<?xml version="1.0" encoding="UTF-8"?> <svg xmlns="http://www.w3.org/2000/svg" width="20" height="20" viewBox="0 0 20 20" fill="none"><path d="M7.33333 1.5H2.66667C2.02233 1.5 1.5 2.02233 1.5 2.66667V7.33333C1.5 7.97767 2.02233 8.5 2.66667 8.5H7.33333C7.97767 8.5 8.5 7.97767 8.5 7.33333V2.66667C8.5 2.02233 7.97767 1.5 7.33333 1.5Z" stroke="#97A2B8" stroke-width="1.5" stroke-linecap="round" stroke-linejoin="round"></path><path d="M7.33333 11.5H2.66667C2.02233 11.5 1.5 12.0223 1.5 12.6667V17.3333C1.5 17.9777 2.02233 18.5 2.66667 18.5H7.33333C7.97767 18.5 8.5 17.9777 8.5 17.3333V12.6667C8.5 12.0223 7.97767 11.5 7.33333 11.5Z" stroke="#97A2B8" stroke-width="1.5" stroke-linecap="round" stroke-linejoin="round"></path><path d="M17.3333 1.5H12.6667C12.0223 1.5 11.5 2.02233 11.5 2.66667V7.33333C11.5 7.97767 12.0223 8.5 12.6667 8.5H17.3333C17.9777 8.5 18.5 7.97767 18.5 7.33333V2.66667C18.5 2.02233 17.9777 1.5 17.3333 1.5Z" stroke="#97A2B8" stroke-width="1.5" stroke-linecap="round" stroke-linejoin="round"></path><path d="M17.3333 11.5H12.6667C12.0223 11.5 11.5 12.0223 11.5 12.6667V17.3333C11.5 17.9777 12.0223 18.5 12.6667 18.5H17.3333C17.9777 18.5 18.5 17.9777 18.5 17.3333V12.6667C18.5 12.0223 17.9777 11.5 17.3333 11.5Z" stroke="#97A2B8" stroke-width="1.5" stroke-linecap="round" stroke-linejoin="round"></path></svg> 