<?xml version="1.0" encoding="UTF-8"?> <svg xmlns="http://www.w3.org/2000/svg" width="56" height="56" viewBox="0 0 56 56" fill="none"><path d="M49 28.0124C48.9998 26.7932 48.6017 25.6075 47.8662 24.6351C47.1307 23.6628 46.0981 22.9571 44.925 22.6251C45.5041 22.0634 45.9091 21.3468 46.0916 20.561C46.2741 19.7752 46.2263 18.9534 45.9539 18.1941C45.6816 17.4347 45.1962 16.7699 44.5559 16.2792C43.9156 15.7885 43.1474 15.4926 42.3434 15.4271C42.1157 15.1713 41.8581 14.9438 41.5761 14.7495C42.1343 13.4067 42.1482 11.8995 41.6149 10.5466C41.0817 9.19373 40.0432 8.10133 38.719 7.50046C37.3948 6.89958 35.8888 6.83736 34.5195 7.32694C33.1502 7.81652 32.0251 8.81952 31.3821 10.1238C30.992 9.59321 30.4826 9.16185 29.895 8.86454C29.3075 8.56723 28.6582 8.41232 27.9996 8.41232C27.3411 8.41232 26.6918 8.56723 26.1042 8.86454C25.5167 9.16185 25.0072 9.59321 24.6172 10.1238C23.9742 8.81952 22.849 7.81652 21.4798 7.32694C20.1105 6.83736 18.6045 6.89958 17.2803 7.50046C15.9561 8.10133 14.9176 9.19373 14.3843 10.5466C13.8511 11.8995 13.865 13.4067 14.4231 14.7495C14.1412 14.9438 13.8836 15.1713 13.6559 15.4271C12.8519 15.4926 12.0837 15.7885 11.4434 16.2792C10.8031 16.7699 10.3177 17.4347 10.0454 18.1941C9.773 18.9534 9.72521 19.7752 9.90768 20.561C10.0902 21.3468 10.4952 22.0634 11.0743 22.6251C9.9012 22.9572 8.86858 23.6632 8.13323 24.6357C7.39789 25.6082 7 26.7941 7 28.0133C7 29.2325 7.39789 30.4184 8.13323 31.3909C8.86858 32.3634 9.9012 33.0693 11.0743 33.4015C10.495 33.9629 10.0898 34.6794 9.90717 35.4652C9.72457 36.2509 9.77234 37.0727 10.0448 37.832C10.3172 38.5913 10.8027 39.256 11.4431 39.7465C12.0836 40.237 12.8519 40.5325 13.6559 40.5976C13.8836 40.8534 14.1412 41.0809 14.4231 41.2752C13.865 42.618 13.8511 44.1253 14.3843 45.4781C14.9176 46.831 15.9561 47.9234 17.2803 48.5242C18.6045 49.1251 20.1105 49.1874 21.4798 48.6978C22.849 48.2082 23.9742 47.2052 24.6172 45.9009C25.0072 46.4315 25.5167 46.8629 26.1042 47.1602C26.6918 47.4575 27.3411 47.6124 27.9996 47.6124C28.6582 47.6124 29.3075 47.4575 29.895 47.1602C30.4826 46.8629 30.992 46.4315 31.3821 45.9009C32.0251 47.2052 33.1502 48.2082 34.5195 48.6978C35.8888 49.1874 37.3948 49.1251 38.719 48.5242C40.0432 47.9234 41.0817 46.831 41.6149 45.4781C42.1482 44.1253 42.1343 42.618 41.5761 41.2752C41.8581 41.0809 42.1157 40.8534 42.3434 40.5976C43.1474 40.5325 43.9157 40.237 44.5562 39.7465C45.1966 39.256 45.6821 38.5913 45.9545 37.832C46.2269 37.0727 46.2747 36.2509 46.0921 35.4652C45.9095 34.6794 45.5043 33.9629 44.925 33.4015C46.0984 33.0694 47.1313 32.3634 47.8668 31.3907C48.6023 30.418 49.0002 29.2318 49 28.0124Z" stroke="#292B2F" stroke-width="3" stroke-linecap="round" stroke-linejoin="round"></path><path d="M19.5996 19.6123H36.3999V36.4126H19.5996V19.6123Z" stroke="#292B2F" stroke-width="3" stroke-linecap="round" stroke-linejoin="round"></path><path d="M23.7998 19.6125V16.8125" stroke="#292B2F" stroke-width="3" stroke-linecap="round" stroke-linejoin="round"></path><path d="M32.1992 19.6125V16.8125" stroke="#292B2F" stroke-width="3" stroke-linecap="round" stroke-linejoin="round"></path><path d="M23.7998 39.2122V36.4121" stroke="#292B2F" stroke-width="3" stroke-linecap="round" stroke-linejoin="round"></path><path d="M32.1992 39.2122V36.4121" stroke="#292B2F" stroke-width="3" stroke-linecap="round" stroke-linejoin="round"></path><path d="M36.3994 23.8125H39.1995" stroke="#292B2F" stroke-width="3" stroke-linecap="round" stroke-linejoin="round"></path><path d="M36.3994 32.2129H39.1995" stroke="#292B2F" stroke-width="3" stroke-linecap="round" stroke-linejoin="round"></path><path d="M16.7988 23.8125H19.5989" stroke="#292B2F" stroke-width="3" stroke-linecap="round" stroke-linejoin="round"></path><path d="M16.7988 32.2129H19.5989" stroke="#292B2F" stroke-width="3" stroke-linecap="round" stroke-linejoin="round"></path><path d="M25.1992 25.2119H30.7993V30.812H25.1992V25.2119Z" stroke="#292B2F" stroke-width="3" stroke-linecap="round" stroke-linejoin="round"></path></svg> 