<?xml version="1.0" encoding="UTF-8"?> <svg xmlns="http://www.w3.org/2000/svg" width="56" height="56" viewBox="0 0 56 56" fill="none"><path d="M46.2 10H9.8C8.2536 10 7 11.2536 7 12.8V35.2C7 36.7464 8.2536 38 9.8 38H46.2C47.7464 38 49 36.7464 49 35.2V12.8C49 11.2536 47.7464 10 46.2 10Z" stroke="#292B2F" stroke-width="3" stroke-linecap="round" stroke-linejoin="round"></path><path d="M35 46.4H21L22.4 38H33.6L35 46.4Z" stroke="#292B2F" stroke-width="3" stroke-linecap="round" stroke-linejoin="round"></path><path d="M16.7998 46.4004H39.1998" stroke="#292B2F" stroke-width="3" stroke-linecap="round" stroke-linejoin="round"></path><path d="M20.7725 26.7998C22.7485 28.6014 25.3261 29.6001 28.0002 29.6001C30.6742 29.6001 33.2519 28.6014 35.2279 26.7998" stroke="#292B2F" stroke-width="3" stroke-linecap="round" stroke-linejoin="round"></path><path d="M23.7998 18.4004V21.2004" stroke="#292B2F" stroke-width="3" stroke-linecap="round" stroke-linejoin="round"></path><path d="M32.2002 18.4004V21.2004" stroke="#292B2F" stroke-width="3" stroke-linecap="round" stroke-linejoin="round"></path></svg> 