<?xml version="1.0" encoding="UTF-8"?> <svg xmlns="http://www.w3.org/2000/svg" width="20" height="20" viewBox="0 0 20 20" fill="none"><path d="M17.8 2.92871H2.2C1.53726 2.92871 1 3.46007 1 4.11552V17.1705C1 17.8259 1.53726 18.3573 2.2 18.3573H17.8C18.4627 18.3573 19 17.8259 19 17.1705V4.11552C19 3.46007 18.4627 2.92871 17.8 2.92871Z" stroke="#97A2B8" stroke-width="1.5" stroke-linecap="round" stroke-linejoin="round"></path><path d="M1 6.78516H19" stroke="#97A2B8" stroke-width="1.5" stroke-linecap="round" stroke-linejoin="round"></path><path d="M6.14258 4.21401V1.64258" stroke="#97A2B8" stroke-width="1.5" stroke-linecap="round" stroke-linejoin="round"></path><path d="M13.8574 4.21401V1.64258" stroke="#97A2B8" stroke-width="1.5" stroke-linecap="round" stroke-linejoin="round"></path><path d="M12.5716 10.6426L9.87459 14.2228C9.81461 14.3022 9.73817 14.3678 9.65044 14.4153C9.56272 14.4628 9.46576 14.491 9.36612 14.498C9.26648 14.505 9.16648 14.4907 9.0729 14.4559C8.97932 14.4212 8.89434 14.3669 8.8237 14.2968L7.42871 12.9105" stroke="#97A2B8" stroke-width="1.5" stroke-linecap="round" stroke-linejoin="round"></path></svg> 