<?xml version="1.0" encoding="UTF-8"?> <svg xmlns="http://www.w3.org/2000/svg" width="456" height="360" viewBox="0 0 456 360" fill="none"><rect width="456" height="468" fill="white"></rect><path d="M37.679 37.1847C37.1818 34.0739 34.7457 32.2557 31.6705 32.2557C27.9062 32.2557 25.1293 35.0753 25.1293 39.7273C25.1293 44.3793 27.892 47.1989 31.6705 47.1989C34.8665 47.1989 37.2031 45.196 37.679 42.3196L35.4631 42.3125C35.0866 44.1733 33.5241 45.196 31.6847 45.196C29.1918 45.196 27.3097 43.2855 27.3097 39.7273C27.3097 36.1974 29.1847 34.2585 31.6918 34.2585C33.5455 34.2585 35.1009 35.3026 35.4631 37.1847H37.679ZM39.7946 47H41.9182V40.3381C41.9182 38.9105 43.019 37.8807 44.5247 37.8807C44.965 37.8807 45.4622 37.9588 45.6327 38.0085V35.9773C45.4196 35.9489 45.0006 35.9276 44.7307 35.9276C43.4523 35.9276 42.3585 36.652 41.9608 37.8239H41.8471V36.0909H39.7946V47ZM51.4414 47.2202C53.8207 47.2202 55.5039 46.0483 55.9869 44.2727L53.977 43.9105C53.5934 44.9403 52.6701 45.4659 51.4628 45.4659C49.6446 45.4659 48.423 44.2869 48.3662 42.1847H56.1218V41.4318C56.1218 37.4901 53.7639 35.9489 51.2923 35.9489C48.2525 35.9489 46.2497 38.2642 46.2497 41.6165C46.2497 45.0043 48.2241 47.2202 51.4414 47.2202ZM48.3733 40.5938C48.4585 39.0455 49.5807 37.7031 51.3065 37.7031C52.9542 37.7031 54.0338 38.9247 54.0409 40.5938H48.3733ZM61.3127 47.2415C63.1167 47.2415 64.1323 46.3253 64.5372 45.5085H64.6224V47H66.6963V39.7557C66.6963 36.581 64.1963 35.9489 62.4633 35.9489C60.4889 35.9489 58.6707 36.7443 57.9605 38.733L59.9562 39.1875C60.2687 38.4134 61.0642 37.6676 62.4917 37.6676C63.8625 37.6676 64.5656 38.3849 64.5656 39.6207V39.6705C64.5656 40.4446 63.7701 40.4304 61.8099 40.6577C59.7431 40.8991 57.6267 41.4389 57.6267 43.9176C57.6267 46.0625 59.2389 47.2415 61.3127 47.2415ZM61.7744 45.5369C60.5741 45.5369 59.7076 44.9972 59.7076 43.946C59.7076 42.8097 60.7162 42.4048 61.9448 42.2415C62.6338 42.1491 64.2673 41.9645 64.5727 41.6591V43.0653C64.5727 44.358 63.5429 45.5369 61.7744 45.5369ZM74.2771 36.0909H72.0399V33.4773H69.9163V36.0909H68.3183V37.7955H69.9163V44.2372C69.9092 46.2188 71.422 47.1776 73.0981 47.142C73.7728 47.1349 74.2274 47.0071 74.4759 46.9148L74.0924 45.1605C73.9504 45.1889 73.6876 45.2528 73.3467 45.2528C72.6578 45.2528 72.0399 45.0256 72.0399 43.7969V37.7955H74.2771V36.0909ZM80.8707 47.2202C83.2499 47.2202 84.9332 46.0483 85.4161 44.2727L83.4062 43.9105C83.0227 44.9403 82.0994 45.4659 80.892 45.4659C79.0738 45.4659 77.8522 44.2869 77.7954 42.1847H85.5511V41.4318C85.5511 37.4901 83.1931 35.9489 80.7215 35.9489C77.6817 35.9489 75.6789 38.2642 75.6789 41.6165C75.6789 45.0043 77.6533 47.2202 80.8707 47.2202ZM77.8025 40.5938C77.8877 39.0455 79.0099 37.7031 80.7357 37.7031C82.3835 37.7031 83.463 38.9247 83.4701 40.5938H77.8025ZM97.2219 47.2202C99.6012 47.2202 101.284 46.0483 101.767 44.2727L99.7574 43.9105C99.3739 44.9403 98.4506 45.4659 97.2432 45.4659C95.425 45.4659 94.2035 44.2869 94.1466 42.1847H101.902V41.4318C101.902 37.4901 99.5444 35.9489 97.0728 35.9489C94.033 35.9489 92.0302 38.2642 92.0302 41.6165C92.0302 45.0043 94.0046 47.2202 97.2219 47.2202ZM94.1537 40.5938C94.239 39.0455 95.3611 37.7031 97.087 37.7031C98.7347 37.7031 99.8143 38.9247 99.8214 40.5938H94.1537ZM112.919 36.0909H110.639L107.883 44.4858H107.77L105.007 36.0909H102.727L106.69 47H108.963L112.919 36.0909ZM118.886 47.2202C121.265 47.2202 122.948 46.0483 123.431 44.2727L121.421 43.9105C121.038 44.9403 120.114 45.4659 118.907 45.4659C117.089 45.4659 115.867 44.2869 115.81 42.1847H123.566V41.4318C123.566 37.4901 121.208 35.9489 118.737 35.9489C115.697 35.9489 113.694 38.2642 113.694 41.6165C113.694 45.0043 115.668 47.2202 118.886 47.2202ZM115.817 40.5938C115.903 39.0455 117.025 37.7031 118.751 37.7031C120.398 37.7031 121.478 38.9247 121.485 40.5938H115.817ZM127.706 40.5227C127.706 38.7827 128.771 37.7884 130.248 37.7884C131.69 37.7884 132.564 38.733 132.564 40.3168V47H134.687V40.0611C134.687 37.3622 133.203 35.9489 130.973 35.9489C129.332 35.9489 128.26 36.7088 127.756 37.8665H127.621V36.0909H125.582V47H127.706V40.5227ZM142.288 36.0909H140.05V33.4773H137.927V36.0909H136.329V37.7955H137.927V44.2372C137.92 46.2188 139.433 47.1776 141.109 47.142C141.783 47.1349 142.238 47.0071 142.487 46.9148L142.103 45.1605C141.961 45.1889 141.698 45.2528 141.357 45.2528C140.668 45.2528 140.05 45.0256 140.05 43.7969V37.7955H142.288V36.0909Z" fill="#2D2F33"></path><path d="M414 46L426 34" stroke="#696F80" stroke-linecap="round" stroke-linejoin="round"></path><path d="M426 46L414 34" stroke="#696F80" stroke-linecap="round" stroke-linejoin="round"></path><rect x="24.5" y="80.5" width="407" height="39" rx="7.5" fill="white"></rect><path d="M37.233 105H38.4659V101.023H40.6932C40.7827 101.023 40.8672 101.023 40.9517 101.018L43.0994 105H44.5312L42.2294 100.794C43.527 100.352 44.1335 99.2926 44.1335 97.9403C44.1335 96.1406 43.0597 94.8182 40.6733 94.8182H37.233V105ZM38.4659 99.9091V95.9119H40.6335C42.2841 95.9119 42.9205 96.7173 42.9205 97.9403C42.9205 99.1634 42.2841 99.9091 40.6534 99.9091H38.4659ZM49.0646 105.159C50.6158 105.159 51.7493 104.384 52.1072 103.23L50.9737 102.912C50.6754 103.707 49.9844 104.105 49.0646 104.105C47.6875 104.105 46.7379 103.215 46.6832 101.58H52.2265V101.082C52.2265 98.2386 50.5362 97.2642 48.9453 97.2642C46.8771 97.2642 45.505 98.8949 45.505 101.241C45.505 103.588 46.8572 105.159 49.0646 105.159ZM46.6832 100.565C46.7628 99.3771 47.603 98.3182 48.9453 98.3182C50.218 98.3182 51.0334 99.2727 51.0334 100.565H46.6832ZM55.1006 100.406C55.1006 99.0739 55.9259 98.3182 57.0495 98.3182C58.1383 98.3182 58.7995 99.0291 58.7995 100.227V105H59.9728V100.148C59.9728 98.1989 58.9337 97.2642 57.3876 97.2642C56.2342 97.2642 55.5183 97.7812 55.1603 98.5568H55.0609V97.3636H53.9273V105H55.1006V100.406ZM65.2345 105.159C66.7856 105.159 67.9192 104.384 68.2771 103.23L67.1436 102.912C66.8453 103.707 66.1542 104.105 65.2345 104.105C63.8574 104.105 62.9078 103.215 62.8531 101.58H68.3964V101.082C68.3964 98.2386 66.7061 97.2642 65.1152 97.2642C63.047 97.2642 61.6748 98.8949 61.6748 101.241C61.6748 103.588 63.0271 105.159 65.2345 105.159ZM62.8531 100.565C62.9327 99.3771 63.7729 98.3182 65.1152 98.3182C66.3879 98.3182 67.2033 99.2727 67.2033 100.565H62.8531ZM71.8274 105H72.9808L74.6512 99.1335H74.7705L76.441 105H77.5944L79.9211 97.3636H78.6881L77.0376 103.19H76.958L75.3472 97.3636H74.0944L72.4637 103.21H72.3842L70.7336 97.3636H69.5006L71.8274 105ZM83.6354 105.179C84.9678 105.179 85.6638 104.463 85.9024 103.966H85.9621V105H87.1354V99.9688C87.1354 97.5426 85.286 97.2642 84.3115 97.2642C83.1581 97.2642 81.8456 97.6619 81.249 99.054L82.3627 99.4517C82.6212 98.8949 83.2327 98.2983 84.3513 98.2983C85.4301 98.2983 85.9621 98.87 85.9621 99.8494V99.8892C85.9621 100.456 85.3854 100.406 83.9934 100.585C82.5765 100.769 81.0303 101.082 81.0303 102.832C81.0303 104.324 82.1837 105.179 83.6354 105.179ZM83.8144 104.125C82.8797 104.125 82.2036 103.707 82.2036 102.892C82.2036 101.997 83.0189 101.719 83.9337 101.599C84.4309 101.54 85.7632 101.401 85.9621 101.162V102.236C85.9621 103.19 85.2064 104.125 83.8144 104.125ZM90.3662 94.8182H89.1929V105H90.3662V94.8182ZM99.3869 105.159C101.455 105.159 102.847 103.588 102.847 101.222C102.847 98.8352 101.455 97.2642 99.3869 97.2642C97.3188 97.2642 95.9267 98.8352 95.9267 101.222C95.9267 103.588 97.3188 105.159 99.3869 105.159ZM99.3869 104.105C97.8159 104.105 97.1 102.753 97.1 101.222C97.1 99.6903 97.8159 98.3182 99.3869 98.3182C100.958 98.3182 101.674 99.6903 101.674 101.222C101.674 102.753 100.958 104.105 99.3869 104.105ZM107.955 97.3636H106.245V96.5881C106.245 95.8324 106.563 95.4347 107.338 95.4347C107.676 95.4347 107.875 95.5142 107.995 95.554L108.333 94.5398C108.154 94.4602 107.796 94.3409 107.219 94.3409C106.125 94.3409 105.071 94.9972 105.071 96.3097V97.3636H103.838V98.358H105.071V105H106.245V98.358H107.955V97.3636ZM116.69 97.3636H115.059V95.5341H113.886V97.3636H112.732V98.358H113.886V103.131C113.886 104.463 114.96 105.099 115.954 105.099C116.391 105.099 116.67 105.02 116.829 104.96L116.59 103.906C116.491 103.926 116.332 103.966 116.073 103.966C115.556 103.966 115.059 103.807 115.059 102.812V98.358H116.69V97.3636ZM119.708 100.406C119.708 99.0739 120.558 98.3182 121.716 98.3182C122.82 98.3182 123.486 99.0142 123.486 100.227V105H124.66V100.148C124.66 98.1839 123.616 97.2642 122.054 97.2642C120.851 97.2642 120.165 97.7663 119.807 98.5568H119.708V94.8182H118.535V105H119.708V100.406ZM129.924 105.159C131.475 105.159 132.608 104.384 132.966 103.23L131.833 102.912C131.535 103.707 130.844 104.105 129.924 104.105C128.547 104.105 127.597 103.215 127.542 101.58H133.086V101.082C133.086 98.2386 131.395 97.2642 129.804 97.2642C127.736 97.2642 126.364 98.8949 126.364 101.241C126.364 103.588 127.716 105.159 129.924 105.159ZM127.542 100.565C127.622 99.3771 128.462 98.3182 129.804 98.3182C131.077 98.3182 131.893 99.2727 131.893 100.565H127.542ZM141.742 105.159C143.433 105.159 144.546 104.125 144.745 102.773H143.572C143.353 103.608 142.657 104.105 141.742 104.105C140.35 104.105 139.455 102.952 139.455 101.182C139.455 99.4517 140.37 98.3182 141.742 98.3182C142.776 98.3182 143.393 98.9545 143.572 99.6506H144.745C144.546 98.2188 143.333 97.2642 141.722 97.2642C139.654 97.2642 138.282 98.8949 138.282 101.222C138.282 103.509 139.595 105.159 141.742 105.159ZM149.479 105.159C151.547 105.159 152.939 103.588 152.939 101.222C152.939 98.8352 151.547 97.2642 149.479 97.2642C147.41 97.2642 146.018 98.8352 146.018 101.222C146.018 103.588 147.41 105.159 149.479 105.159ZM149.479 104.105C147.908 104.105 147.192 102.753 147.192 101.222C147.192 99.6903 147.908 98.3182 149.479 98.3182C151.05 98.3182 151.766 99.6903 151.766 101.222C151.766 102.753 151.05 104.105 149.479 104.105ZM155.819 100.406C155.819 99.0739 156.644 98.3182 157.768 98.3182C158.857 98.3182 159.518 99.0291 159.518 100.227V105H160.691V100.148C160.691 98.1989 159.652 97.2642 158.106 97.2642C156.953 97.2642 156.237 97.7812 155.879 98.5568H155.779V97.3636H154.646V105H155.819V100.406ZM166.072 97.3636H164.442V95.5341H163.268V97.3636H162.115V98.358H163.268V103.131C163.268 104.463 164.342 105.099 165.337 105.099C165.774 105.099 166.052 105.02 166.212 104.96L165.973 103.906C165.873 103.926 165.714 103.966 165.456 103.966C164.939 103.966 164.442 103.807 164.442 102.812V98.358H166.072V97.3636ZM167.753 105H168.927V100.168C168.927 99.1335 169.742 98.3778 170.856 98.3778C171.169 98.3778 171.492 98.4375 171.571 98.4574V97.2642C171.437 97.2543 171.129 97.2443 170.955 97.2443C170.04 97.2443 169.245 97.7614 168.966 98.517H168.887V97.3636H167.753V105ZM175.125 105.179C176.458 105.179 177.154 104.463 177.392 103.966H177.452V105H178.625V99.9688C178.625 97.5426 176.776 97.2642 175.802 97.2642C174.648 97.2642 173.336 97.6619 172.739 99.054L173.853 99.4517C174.111 98.8949 174.723 98.2983 175.841 98.2983C176.92 98.2983 177.452 98.87 177.452 99.8494V99.8892C177.452 100.456 176.875 100.406 175.483 100.585C174.066 100.769 172.52 101.082 172.52 102.832C172.52 104.324 173.674 105.179 175.125 105.179ZM175.304 104.125C174.37 104.125 173.694 103.707 173.694 102.892C173.694 101.997 174.509 101.719 175.424 101.599C175.921 101.54 177.253 101.401 177.452 101.162V102.236C177.452 103.19 176.696 104.125 175.304 104.125ZM183.785 105.159C185.476 105.159 186.589 104.125 186.788 102.773H185.615C185.396 103.608 184.7 104.105 183.785 104.105C182.393 104.105 181.498 102.952 181.498 101.182C181.498 99.4517 182.413 98.3182 183.785 98.3182C184.819 98.3182 185.436 98.9545 185.615 99.6506H186.788C186.589 98.2188 185.376 97.2642 183.765 97.2642C181.697 97.2642 180.325 98.8949 180.325 101.222C180.325 103.509 181.637 105.159 183.785 105.159ZM191.74 97.3636H190.11V95.5341H188.936V97.3636H187.783V98.358H188.936V103.131C188.936 104.463 190.01 105.099 191.004 105.099C191.442 105.099 191.72 105.02 191.879 104.96L191.641 103.906C191.541 103.926 191.382 103.966 191.124 103.966C190.607 103.966 190.11 103.807 190.11 102.812V98.358H191.74V97.3636ZM197.692 100.705C197.692 103.21 198.368 105.298 199.581 107.068H200.616C199.661 105.756 198.905 103.071 198.905 100.705C198.905 98.3381 199.661 95.6534 200.616 94.3409H199.581C198.368 96.1108 197.692 98.1989 197.692 100.705ZM201.865 95.9119H205.067V105H206.3V95.9119H209.502V94.8182H201.865V95.9119ZM213.256 105.159C214.807 105.159 215.94 104.384 216.298 103.23L215.165 102.912C214.866 103.707 214.175 104.105 213.256 104.105C211.878 104.105 210.929 103.215 210.874 101.58H216.418V101.082C216.418 98.2386 214.727 97.2642 213.136 97.2642C211.068 97.2642 209.696 98.8949 209.696 101.241C209.696 103.588 211.048 105.159 213.256 105.159ZM210.874 100.565C210.954 99.3771 211.794 98.3182 213.136 98.3182C214.409 98.3182 215.224 99.2727 215.224 100.565H210.874ZM223.527 99.0739C223.16 97.9901 222.334 97.2642 220.823 97.2642C219.212 97.2642 218.019 98.179 218.019 99.4716C218.019 100.526 218.645 101.232 220.047 101.56L221.32 101.858C222.091 102.037 222.454 102.405 222.454 102.932C222.454 103.588 221.758 104.125 220.664 104.125C219.704 104.125 219.103 103.712 218.894 102.892L217.78 103.17C218.054 104.468 219.123 105.159 220.684 105.159C222.459 105.159 223.667 104.19 223.667 102.872C223.667 101.808 223 101.137 221.638 100.804L220.505 100.526C219.6 100.302 219.192 99.9986 219.192 99.4119C219.192 98.7557 219.888 98.2784 220.823 98.2784C221.847 98.2784 222.27 98.8452 222.473 99.3722L223.527 99.0739ZM226.522 94.8182H225.349V105H226.522V94.8182ZM230.834 105.179C232.167 105.179 232.863 104.463 233.101 103.966H233.161V105H234.334V99.9688C234.334 97.5426 232.485 97.2642 231.51 97.2642C230.357 97.2642 229.044 97.6619 228.448 99.054L229.562 99.4517C229.82 98.8949 230.432 98.2983 231.55 98.2983C232.629 98.2983 233.161 98.87 233.161 99.8494V99.8892C233.161 100.456 232.584 100.406 231.192 100.585C229.775 100.769 228.229 101.082 228.229 102.832C228.229 104.324 229.383 105.179 230.834 105.179ZM231.013 104.125C230.079 104.125 229.402 103.707 229.402 102.892C229.402 101.997 230.218 101.719 231.133 101.599C231.63 101.54 232.962 101.401 233.161 101.162V102.236C233.161 103.19 232.405 104.125 231.013 104.125ZM240.404 105H244.083C246.49 105 247.484 103.827 247.484 102.295C247.484 100.685 246.37 99.8097 245.436 99.75V99.6506C246.311 99.4119 247.086 98.8352 247.086 97.5227C247.086 96.0312 246.092 94.8182 243.964 94.8182H240.404V105ZM241.637 103.906V100.366H244.143C245.475 100.366 246.311 101.261 246.311 102.295C246.311 103.19 245.694 103.906 244.083 103.906H241.637ZM241.637 99.2926V95.9119H243.964C245.316 95.9119 245.913 96.6278 245.913 97.5227C245.913 98.5966 245.038 99.2926 243.924 99.2926H241.637ZM252.468 105.159C254.02 105.159 255.153 104.384 255.511 103.23L254.378 102.912C254.079 103.707 253.388 104.105 252.468 104.105C251.091 104.105 250.142 103.215 250.087 101.58H255.63V101.082C255.63 98.2386 253.94 97.2642 252.349 97.2642C250.281 97.2642 248.909 98.8949 248.909 101.241C248.909 103.588 250.261 105.159 252.468 105.159ZM250.087 100.565C250.167 99.3771 251.007 98.3182 252.349 98.3182C253.622 98.3182 254.437 99.2727 254.437 100.565H250.087ZM257.331 105H258.504V100.168C258.504 99.1335 259.32 98.3778 260.433 98.3778C260.747 98.3778 261.07 98.4375 261.149 98.4574V97.2642C261.015 97.2543 260.707 97.2443 260.533 97.2443C259.618 97.2443 258.823 97.7614 258.544 98.517H258.465V97.3636H257.331V105ZM263.629 94.8182H262.456V105H263.629V94.8182ZM265.694 105H266.868V97.3636H265.694V105ZM266.291 96.0909C266.748 96.0909 267.126 95.733 267.126 95.2955C267.126 94.858 266.748 94.5 266.291 94.5C265.834 94.5 265.456 94.858 265.456 95.2955C265.456 95.733 265.834 96.0909 266.291 96.0909ZM270.106 100.406C270.106 99.0739 270.931 98.3182 272.055 98.3182C273.144 98.3182 273.805 99.0291 273.805 100.227V105H274.978V100.148C274.978 98.1989 273.939 97.2642 272.393 97.2642C271.239 97.2642 270.524 97.7812 270.166 98.5568H270.066V97.3636H268.933V105H270.106V100.406ZM279.544 100.705C279.544 98.1989 278.868 96.1108 277.655 94.3409H276.621C277.575 95.6534 278.331 98.3381 278.331 100.705C278.331 103.071 277.575 105.756 276.621 107.068H277.655C278.868 105.298 279.544 103.21 279.544 100.705Z" fill="#2D2F33"></path><rect x="24.5" y="80.5" width="407" height="39" rx="7.5" stroke="#D3D5DB"></rect><rect x="24.5" y="128.5" width="407" height="39" rx="7.5" fill="white"></rect><path d="M37.054 153H43.4773V151.906H38.7443V151.827L41.0312 149.381C42.7812 147.506 43.2983 146.631 43.2983 145.503C43.2983 143.932 42.0256 142.679 40.2358 142.679C38.451 142.679 37.0938 143.892 37.0938 145.682H38.267C38.267 144.523 39.0178 143.753 40.196 143.753C41.2997 143.753 42.1449 144.429 42.1449 145.503C42.1449 146.442 41.593 147.138 40.4148 148.426L37.054 152.105V153ZM48.6284 153.139C50.5673 153.139 51.9892 151.707 51.9892 149.759C51.9892 147.785 50.617 146.338 48.7477 146.338C48.0616 146.338 47.3954 146.582 46.9778 146.915H46.9181L47.2761 143.912H51.5318V142.818H46.242L45.6255 147.83L46.7789 147.969C47.2015 147.665 47.9224 147.447 48.5488 147.452C49.8464 147.462 50.796 148.446 50.796 149.778C50.796 151.086 49.8812 152.045 48.6284 152.045C47.5843 152.045 46.7541 151.374 46.6596 150.455H45.4664C45.541 152.006 46.8784 153.139 48.6284 153.139ZM57.9126 153H59.1455V148.446H63.5603V147.352H59.1455V143.912H64.0177V142.818H57.9126V153ZM68.5275 153.159C70.0786 153.159 71.2121 152.384 71.5701 151.23L70.4365 150.912C70.1383 151.707 69.4472 152.105 68.5275 152.105C67.1503 152.105 66.2008 151.215 66.1461 149.58H71.6894V149.082C71.6894 146.239 69.999 145.264 68.4081 145.264C66.34 145.264 64.9678 146.895 64.9678 149.241C64.9678 151.588 66.3201 153.159 68.5275 153.159ZM66.1461 148.565C66.2256 147.377 67.0658 146.318 68.4081 146.318C69.6809 146.318 70.4962 147.273 70.4962 148.565H66.1461ZM73.5493 153H74.6828V151.827H74.822C75.0805 152.244 75.5777 153.159 77.0493 153.159C78.9584 153.159 80.2908 151.628 80.2908 149.202C80.2908 146.795 78.9584 145.264 77.0294 145.264C75.5379 145.264 75.0805 146.179 74.822 146.577H74.7226V142.818H73.5493V153ZM74.7027 149.182C74.7027 147.472 75.4584 146.318 76.8902 146.318C78.3817 146.318 79.1175 147.571 79.1175 149.182C79.1175 150.812 78.3618 152.105 76.8902 152.105C75.4783 152.105 74.7027 150.912 74.7027 149.182ZM82.0015 153H83.1748V148.168C83.1748 147.134 83.9901 146.378 85.1038 146.378C85.417 146.378 85.7401 146.438 85.8197 146.457V145.264C85.6855 145.254 85.3772 145.244 85.2032 145.244C84.2884 145.244 83.493 145.761 83.2146 146.517H83.135V145.364H82.0015V153ZM91.939 149.878C91.939 151.31 90.8452 151.966 89.9702 151.966C88.9958 151.966 88.2998 151.25 88.2998 150.136V145.364H87.1265V150.216C87.1265 152.165 88.1606 153.099 89.5924 153.099C90.7458 153.099 91.5015 152.483 91.8594 151.707H91.939V153H93.1123V145.364H91.939V149.878ZM97.4244 153.179C98.7568 153.179 99.4528 152.463 99.6915 151.966H99.7511V153H100.924V147.969C100.924 145.543 99.075 145.264 98.1005 145.264C96.9471 145.264 95.6346 145.662 95.038 147.054L96.1517 147.452C96.4102 146.895 97.0217 146.298 98.1403 146.298C99.2192 146.298 99.7511 146.87 99.7511 147.849V147.889C99.7511 148.456 99.1744 148.406 97.7824 148.585C96.3655 148.769 94.8193 149.082 94.8193 150.832C94.8193 152.324 95.9727 153.179 97.4244 153.179ZM97.6034 152.125C96.6687 152.125 95.9926 151.707 95.9926 150.892C95.9926 149.997 96.8079 149.719 97.7227 149.599C98.2199 149.54 99.5523 149.401 99.7511 149.162V150.236C99.7511 151.19 98.9954 152.125 97.6034 152.125ZM102.982 153H104.155V148.168C104.155 147.134 104.971 146.378 106.084 146.378C106.397 146.378 106.721 146.438 106.8 146.457V145.264C106.666 145.254 106.358 145.244 106.184 145.244C105.269 145.244 104.473 145.761 104.195 146.517H104.115V145.364H102.982V153ZM109.095 155.864C110.154 155.864 110.9 155.302 111.342 154.114L114.594 145.384L113.311 145.364L111.203 151.449H111.123L109.015 145.364H107.743L110.567 153.04L110.348 153.636C109.92 154.8 109.393 154.909 108.538 154.69L108.24 155.724C108.359 155.784 108.697 155.864 109.095 155.864ZM119.896 153H126.319V151.906H121.586V151.827L123.873 149.381C125.623 147.506 126.14 146.631 126.14 145.503C126.14 143.932 124.867 142.679 123.077 142.679C121.293 142.679 119.935 143.892 119.935 145.682H121.109C121.109 144.523 121.859 143.753 123.038 143.753C124.141 143.753 124.986 144.429 124.986 145.503C124.986 146.442 124.435 147.138 123.256 148.426L119.896 152.105V153ZM131.609 153.139C133.856 153.139 135.149 151.235 135.149 147.909C135.149 144.608 133.836 142.679 131.609 142.679C129.382 142.679 128.069 144.608 128.069 147.909C128.069 151.235 129.362 153.139 131.609 153.139ZM131.609 152.045C130.128 152.045 129.263 150.559 129.263 147.909C129.263 145.264 130.138 143.753 131.609 143.753C133.081 143.753 133.956 145.264 133.956 147.909C133.956 150.559 133.091 152.045 131.609 152.045ZM136.954 153H143.377V151.906H138.644V151.827L140.931 149.381C142.681 147.506 143.198 146.631 143.198 145.503C143.198 143.932 141.926 142.679 140.136 142.679C138.351 142.679 136.994 143.892 136.994 145.682H138.167C138.167 144.523 138.918 143.753 140.096 143.753C141.2 143.753 142.045 144.429 142.045 145.503C142.045 146.442 141.493 147.138 140.315 148.426L136.954 152.105V153ZM148.926 142.818H147.693L145.148 144.509V145.761L147.634 144.111H147.693V153H148.926V142.818Z" fill="#2D2F33"></path><path d="M418.067 142H405.933C405.418 142 405 142.413 405 142.923V153.077C405 153.587 405.418 154 405.933 154H418.067C418.582 154 419 153.587 419 153.077V142.923C419 142.413 418.582 142 418.067 142Z" stroke="#696F80" stroke-linecap="round" stroke-linejoin="round"></path><path d="M405 145H419" stroke="#696F80" stroke-linecap="round" stroke-linejoin="round"></path><path d="M409 143L409 141" stroke="#696F80" stroke-linecap="round" stroke-linejoin="round"></path><path d="M415 143L415 141" stroke="#696F80" stroke-linecap="round" stroke-linejoin="round"></path><rect x="24.5" y="128.5" width="407" height="39" rx="7.5" stroke="#D3D5DB"></rect><rect x="24" y="192" width="408" height="88" rx="8" fill="#F7F8FA"></rect><path d="M44 218C47.3137 218 50 215.314 50 212C50 208.686 47.3137 206 44 206C40.6863 206 38 208.686 38 212C38 215.314 40.6863 218 44 218Z" stroke="#2D2F33" stroke-linecap="round" stroke-linejoin="round"></path><path d="M40.5 218.866L41 218" stroke="#2D2F33" stroke-linecap="round" stroke-linejoin="round"></path><path d="M44 212.5H41" stroke="#2D2F33" stroke-linecap="round" stroke-linejoin="round"></path><path d="M44 208.5V212.5" stroke="#2D2F33" stroke-linecap="round" stroke-linejoin="round"></path><path d="M38.1631 206.241L39.8361 204.758" stroke="#2D2F33" stroke-linecap="round" stroke-linejoin="round"></path><path d="M47.5 218.866L47 218" stroke="#2D2F33" stroke-linecap="round" stroke-linejoin="round"></path><path d="M49.8361 206.241L48.1631 204.758" stroke="#2D2F33" stroke-linecap="round" stroke-linejoin="round"></path><path d="M64.8423 206.818H63.3459L60.8054 208.479V209.95L63.2415 208.359H63.3011V217H64.8423V206.818ZM72.8091 217H74.3205L75.8716 211.487H75.9859L77.5371 217H79.0534L81.2956 209.364H79.7594L78.2729 214.947H78.1983L76.7068 209.364H75.1706L73.6692 214.972H73.5946L72.0982 209.364H70.5619L72.8091 217ZM85.6811 217.154C87.3465 217.154 88.5248 216.334 88.8629 215.091L87.4559 214.837C87.1875 215.558 86.5411 215.926 85.696 215.926C84.4232 215.926 83.5681 215.101 83.5284 213.629H88.9573V213.102C88.9573 210.343 87.3068 209.264 85.5767 209.264C83.4488 209.264 82.0468 210.885 82.0468 213.232C82.0468 215.603 83.4289 217.154 85.6811 217.154ZM83.5333 212.516C83.593 211.432 84.3785 210.492 85.5866 210.492C86.74 210.492 87.4957 211.347 87.5007 212.516H83.5333ZM93.8139 217.154C95.4793 217.154 96.6576 216.334 96.9957 215.091L95.5887 214.837C95.3202 215.558 94.6739 215.926 93.8288 215.926C92.556 215.926 91.7009 215.101 91.6612 213.629H97.0901V213.102C97.0901 210.343 95.4396 209.264 93.7095 209.264C91.5816 209.264 90.1796 210.885 90.1796 213.232C90.1796 215.603 91.5617 217.154 93.8139 217.154ZM91.6661 212.516C91.7258 211.432 92.5113 210.492 93.7194 210.492C94.8728 210.492 95.6285 211.347 95.6335 212.516H91.6661ZM98.6555 217H100.142V214.29L100.883 213.55L103.478 217H105.302L102.001 212.64L105.094 209.364H103.314L100.271 212.595H100.142V206.818H98.6555V217ZM110.105 217H111.557V215.812H111.681C111.949 216.299 112.496 217.149 113.888 217.149C115.738 217.149 117.08 215.668 117.08 213.197C117.08 210.721 115.718 209.264 113.873 209.264C112.456 209.264 111.944 210.129 111.681 210.602H111.591V206.818H110.105V217ZM111.562 213.182C111.562 211.586 112.258 210.527 113.555 210.527C114.902 210.527 115.579 211.665 115.579 213.182C115.579 214.713 114.883 215.881 113.555 215.881C112.277 215.881 111.562 214.788 111.562 213.182ZM121.956 217.154C123.622 217.154 124.8 216.334 125.138 215.091L123.731 214.837C123.463 215.558 122.816 215.926 121.971 215.926C120.699 215.926 119.843 215.101 119.804 213.629H125.233V213.102C125.233 210.343 123.582 209.264 121.852 209.264C119.724 209.264 118.322 210.885 118.322 213.232C118.322 215.603 119.704 217.154 121.956 217.154ZM119.809 212.516C119.868 211.432 120.654 210.492 121.862 210.492C123.015 210.492 123.771 211.347 123.776 212.516H119.809ZM130.432 209.364H128.787V208.678C128.787 208.001 129.065 207.634 129.791 207.634C130.099 207.634 130.318 207.703 130.457 207.748L130.805 206.545C130.596 206.465 130.164 206.341 129.562 206.341C128.354 206.341 127.295 207.047 127.295 208.479V209.364H126.117V210.557H127.295V217H128.787V210.557H130.432V209.364ZM134.798 217.154C136.95 217.154 138.357 215.578 138.357 213.217C138.357 210.84 136.95 209.264 134.798 209.264C132.645 209.264 131.238 210.84 131.238 213.217C131.238 215.578 132.645 217.154 134.798 217.154ZM134.803 215.906C133.396 215.906 132.74 214.678 132.74 213.212C132.74 211.75 133.396 210.507 134.803 210.507C136.2 210.507 136.856 211.75 136.856 213.212C136.856 214.678 136.2 215.906 134.803 215.906ZM139.933 217H141.419V212.337C141.419 211.337 142.19 210.616 143.244 210.616C143.552 210.616 143.9 210.671 144.019 210.706V209.284C143.87 209.264 143.577 209.249 143.388 209.249C142.493 209.249 141.727 209.756 141.449 210.577H141.369V209.364H139.933V217ZM148.24 217.154C149.905 217.154 151.083 216.334 151.421 215.091L150.014 214.837C149.746 215.558 149.1 215.926 148.254 215.926C146.982 215.926 146.127 215.101 146.087 213.629H151.516V213.102C151.516 210.343 149.865 209.264 148.135 209.264C146.007 209.264 144.605 210.885 144.605 213.232C144.605 215.603 145.987 217.154 148.24 217.154ZM146.092 212.516C146.151 211.432 146.937 210.492 148.145 210.492C149.298 210.492 150.054 211.347 150.059 212.516H146.092Z" fill="#2D2F33"></path><path d="M401 207H415" stroke="#696F80" stroke-linecap="round" stroke-linejoin="round"></path><path d="M409.5 205H406.5C406.235 205 405.98 205.105 405.793 205.293C405.605 205.48 405.5 205.735 405.5 206V207H410.5V206C410.5 205.735 410.395 205.48 410.207 205.293C410.02 205.105 409.765 205 409.5 205Z" stroke="#696F80" stroke-linecap="round" stroke-linejoin="round"></path><path d="M406.5 215.5V210.5" stroke="#696F80" stroke-linecap="round" stroke-linejoin="round"></path><path d="M409.5 215.5V210.5" stroke="#696F80" stroke-linecap="round" stroke-linejoin="round"></path><path d="M412.577 218.083C412.556 218.333 412.442 218.566 412.257 218.736C412.073 218.906 411.831 219 411.58 219H404.421C404.17 219 403.928 218.906 403.743 218.736C403.559 218.566 403.445 218.333 403.424 218.083L402.5 207H413.5L412.577 218.083Z" stroke="#696F80" stroke-linecap="round" stroke-linejoin="round"></path><rect x="36.5" y="232.5" width="121.667" height="39" rx="7.5" fill="white"></rect><path d="M52.6335 246.818H51.4006L48.8551 248.509V249.761L51.3409 248.111H51.4006V257H52.6335V246.818Z" fill="#2D2F33"></path><rect x="36.5" y="232.5" width="121.667" height="39" rx="7.5" stroke="#D3D5DB"></rect><rect x="167.167" y="232.5" width="121.667" height="39" rx="7.5" fill="white"></rect><path d="M181.471 257H182.624L184.295 251.134H184.414L186.085 257H187.238L189.565 249.364H188.332L186.681 255.19H186.602L184.991 249.364H183.738L182.107 255.21H182.028L180.377 249.364H179.144L181.471 257ZM193.974 257.159C195.525 257.159 196.658 256.384 197.016 255.23L195.883 254.912C195.585 255.707 194.894 256.105 193.974 256.105C192.597 256.105 191.647 255.215 191.592 253.58H197.136V253.082C197.136 250.239 195.445 249.264 193.854 249.264C191.786 249.264 190.414 250.895 190.414 253.241C190.414 255.588 191.766 257.159 193.974 257.159ZM191.592 252.565C191.672 251.377 192.512 250.318 193.854 250.318C195.127 250.318 195.943 251.273 195.943 252.565H191.592ZM202.038 257.159C203.589 257.159 204.723 256.384 205.081 255.23L203.947 254.912C203.649 255.707 202.958 256.105 202.038 256.105C200.661 256.105 199.712 255.215 199.657 253.58H205.2V253.082C205.2 250.239 203.51 249.264 201.919 249.264C199.851 249.264 198.479 250.895 198.479 253.241C198.479 255.588 199.831 257.159 202.038 257.159ZM199.657 252.565C199.736 251.377 200.577 250.318 201.919 250.318C203.192 250.318 204.007 251.273 204.007 252.565H199.657ZM206.901 257H208.074V254.141L208.895 253.381L211.753 257H213.245L209.78 252.625L213.006 249.364H211.554L208.213 252.764H208.074V246.818H206.901V257Z" fill="#2D2F33"></path><path d="M273.334 250L269.522 253.92C269.498 253.945 269.468 253.965 269.436 253.979C269.404 253.993 269.369 254 269.334 254C269.299 254 269.264 253.993 269.232 253.979C269.2 253.965 269.17 253.945 269.146 253.92L265.334 250" stroke="#696F80" stroke-linecap="round" stroke-linejoin="round"></path><rect x="167.167" y="232.5" width="121.667" height="39" rx="7.5" stroke="#D3D5DB"></rect><rect x="297.833" y="232.5" width="121.667" height="39" rx="7.5" fill="white"></rect><path d="M310.566 257H311.699V255.827H311.839C312.097 256.244 312.594 257.159 314.066 257.159C315.975 257.159 317.307 255.628 317.307 253.202C317.307 250.795 315.975 249.264 314.046 249.264C312.555 249.264 312.097 250.179 311.839 250.577H311.739V246.818H310.566V257ZM311.719 253.182C311.719 251.472 312.475 250.318 313.907 250.318C315.398 250.318 316.134 251.571 316.134 253.182C316.134 254.812 315.378 256.105 313.907 256.105C312.495 256.105 311.719 254.912 311.719 253.182ZM322.22 257.159C323.771 257.159 324.905 256.384 325.263 255.23L324.129 254.912C323.831 255.707 323.14 256.105 322.22 256.105C320.843 256.105 319.893 255.215 319.838 253.58H325.382V253.082C325.382 250.239 323.691 249.264 322.101 249.264C320.032 249.264 318.66 250.895 318.66 253.241C318.66 255.588 320.013 257.159 322.22 257.159ZM319.838 252.565C319.918 251.377 320.758 250.318 322.101 250.318C323.373 250.318 324.189 251.273 324.189 252.565H319.838ZM330.483 249.364H328.773V248.588C328.773 247.832 329.091 247.435 329.867 247.435C330.205 247.435 330.404 247.514 330.523 247.554L330.861 246.54C330.682 246.46 330.324 246.341 329.747 246.341C328.654 246.341 327.6 246.997 327.6 248.31V249.364H326.367V250.358H327.6V257H328.773V250.358H330.483V249.364ZM334.831 257.159C336.9 257.159 338.292 255.588 338.292 253.222C338.292 250.835 336.9 249.264 334.831 249.264C332.763 249.264 331.371 250.835 331.371 253.222C331.371 255.588 332.763 257.159 334.831 257.159ZM334.831 256.105C333.26 256.105 332.544 254.753 332.544 253.222C332.544 251.69 333.26 250.318 334.831 250.318C336.402 250.318 337.118 251.69 337.118 253.222C337.118 254.753 336.402 256.105 334.831 256.105ZM339.999 257H341.172V252.168C341.172 251.134 341.987 250.378 343.101 250.378C343.414 250.378 343.737 250.438 343.817 250.457V249.264C343.683 249.254 343.374 249.244 343.2 249.244C342.286 249.244 341.49 249.761 341.212 250.517H341.132V249.364H339.999V257ZM348.093 257.159C349.644 257.159 350.778 256.384 351.135 255.23L350.002 254.912C349.704 255.707 349.013 256.105 348.093 256.105C346.716 256.105 345.766 255.215 345.711 253.58H351.255V253.082C351.255 250.239 349.564 249.264 347.974 249.264C345.905 249.264 344.533 250.895 344.533 253.241C344.533 255.588 345.885 257.159 348.093 257.159ZM345.711 252.565C345.791 251.377 346.631 250.318 347.974 250.318C349.246 250.318 350.062 251.273 350.062 252.565H345.711Z" fill="#2D2F33"></path><path d="M404 250L400.188 253.92C400.164 253.945 400.134 253.965 400.102 253.979C400.07 253.993 400.035 254 400 254C399.965 254 399.93 253.993 399.898 253.979C399.866 253.965 399.836 253.945 399.812 253.92L396 250" stroke="#696F80" stroke-linecap="round" stroke-linejoin="round"></path><rect x="297.833" y="232.5" width="121.667" height="39" rx="7.5" stroke="#D3D5DB"></rect><rect x="24" y="284" width="408" height="40" rx="8" fill="#F7F8FA"></rect><path d="M38.5 304H49.5" stroke="#696F80" stroke-linecap="round" stroke-linejoin="round"></path><path d="M44 298.5V309.5" stroke="#696F80" stroke-linecap="round" stroke-linejoin="round"></path><path d="M61.9787 309L62.9134 306.305H66.8906L67.8203 309H69.451L65.7869 298.818H64.0121L60.348 309H61.9787ZM63.3608 305.013L64.8622 300.668H64.9418L66.4432 305.013H63.3608ZM73.4536 309.149C74.8457 309.149 75.3926 308.299 75.661 307.812H75.7853V309H77.237V298.818H75.7505V302.602H75.661C75.3926 302.129 74.8855 301.264 73.4636 301.264C71.6191 301.264 70.2619 302.721 70.2619 305.197C70.2619 307.668 71.5992 309.149 73.4536 309.149ZM73.7818 307.881C72.4544 307.881 71.7633 306.713 71.7633 305.182C71.7633 303.665 72.4394 302.527 73.7818 302.527C75.0794 302.527 75.7754 303.586 75.7754 305.182C75.7754 306.788 75.0644 307.881 73.7818 307.881ZM82.1333 309.149C83.5254 309.149 84.0722 308.299 84.3407 307.812H84.465V309H85.9167V298.818H84.4302V302.602H84.3407C84.0722 302.129 83.5651 301.264 82.1433 301.264C80.2988 301.264 78.9416 302.721 78.9416 305.197C78.9416 307.668 80.2789 309.149 82.1333 309.149ZM82.4614 307.881C81.134 307.881 80.443 306.713 80.443 305.182C80.443 303.665 81.1191 302.527 82.4614 302.527C83.759 302.527 84.455 303.586 84.455 305.182C84.455 306.788 83.7441 307.881 82.4614 307.881ZM91.5754 309H93.0619V304.337C93.0619 303.337 93.8325 302.616 94.8865 302.616C95.1947 302.616 95.5427 302.671 95.662 302.706V301.284C95.5129 301.264 95.2196 301.249 95.0307 301.249C94.1358 301.249 93.3701 301.756 93.0917 302.577H93.0122V301.364H91.5754V309ZM99.8822 309.154C101.548 309.154 102.726 308.334 103.064 307.091L101.657 306.837C101.389 307.558 100.742 307.926 99.8971 307.926C98.6244 307.926 97.7693 307.101 97.7295 305.629H103.158V305.102C103.158 302.343 101.508 301.264 99.7778 301.264C97.65 301.264 96.248 302.885 96.248 305.232C96.248 307.603 97.6301 309.154 99.8822 309.154ZM97.7345 304.516C97.7941 303.432 98.5796 302.492 99.7877 302.492C100.941 302.492 101.697 303.347 101.702 304.516H97.7345ZM104.724 309H106.21V304.292C106.21 303.263 106.931 302.547 107.776 302.547C108.602 302.547 109.173 303.094 109.173 303.924V309H110.655V304.133C110.655 303.213 111.217 302.547 112.186 302.547C112.972 302.547 113.618 302.984 113.618 304.018V309H115.104V303.879C115.104 302.134 114.13 301.264 112.748 301.264C111.649 301.264 110.824 301.791 110.456 302.607H110.377C110.043 301.771 109.342 301.264 108.323 301.264C107.314 301.264 106.563 301.766 106.245 302.607H106.151V301.364H104.724V309ZM117.013 309H118.499V301.364H117.013V309ZM117.764 300.185C118.276 300.185 118.703 299.788 118.703 299.3C118.703 298.813 118.276 298.411 117.764 298.411C117.247 298.411 116.824 298.813 116.824 299.3C116.824 299.788 117.247 300.185 117.764 300.185ZM121.902 304.466C121.902 303.248 122.647 302.552 123.682 302.552C124.691 302.552 125.302 303.213 125.302 304.322V309H126.789V304.143C126.789 302.254 125.75 301.264 124.189 301.264C123.04 301.264 122.289 301.796 121.936 302.607H121.842V301.364H120.415V309H121.902V304.466ZM131.557 309.149C132.949 309.149 133.496 308.299 133.764 307.812H133.889V309H135.34V298.818H133.854V302.602H133.764C133.496 302.129 132.989 301.264 131.567 301.264C129.723 301.264 128.365 302.721 128.365 305.197C128.365 307.668 129.703 309.149 131.557 309.149ZM131.885 307.881C130.558 307.881 129.867 306.713 129.867 305.182C129.867 303.665 130.543 302.527 131.885 302.527C133.183 302.527 133.879 303.586 133.879 305.182C133.879 306.788 133.168 307.881 131.885 307.881ZM140.669 309.154C142.335 309.154 143.513 308.334 143.851 307.091L142.444 306.837C142.176 307.558 141.529 307.926 140.684 307.926C139.411 307.926 138.556 307.101 138.517 305.629H143.946V305.102C143.946 302.343 142.295 301.264 140.565 301.264C138.437 301.264 137.035 302.885 137.035 305.232C137.035 307.603 138.417 309.154 140.669 309.154ZM138.522 304.516C138.581 303.432 139.367 302.492 140.575 302.492C141.728 302.492 142.484 303.347 142.489 304.516H138.522ZM145.511 309H146.997V304.337C146.997 303.337 147.768 302.616 148.822 302.616C149.13 302.616 149.478 302.671 149.597 302.706V301.284C149.448 301.264 149.155 301.249 148.966 301.249C148.071 301.249 147.306 301.756 147.027 302.577H146.948V301.364H145.511V309Z" fill="#696F80"></path><path d="M46.0667 358H33.9333C33.4179 358 33 358.413 33 358.923V369.077C33 369.587 33.4179 370 33.9333 370H46.0667C46.5821 370 47 369.587 47 369.077V358.923C47 358.413 46.5821 358 46.0667 358Z" stroke="#696F80" stroke-linecap="round" stroke-linejoin="round"></path><path d="M37 359L37 357" stroke="#696F80" stroke-linecap="round" stroke-linejoin="round"></path><path d="M43 359L43 357" stroke="#696F80" stroke-linecap="round" stroke-linejoin="round"></path><path d="M57.9787 369L58.9134 366.305H62.8906L63.8203 369H65.451L61.7869 358.818H60.0121L56.348 369H57.9787ZM59.3608 365.013L60.8622 360.668H60.9418L62.4432 365.013H59.3608ZM69.4536 369.149C70.8457 369.149 71.3926 368.299 71.661 367.812H71.7853V369H73.237V358.818H71.7505V362.602H71.661C71.3926 362.129 70.8855 361.264 69.4636 361.264C67.6191 361.264 66.2619 362.721 66.2619 365.197C66.2619 367.668 67.5992 369.149 69.4536 369.149ZM69.7818 367.881C68.4544 367.881 67.7633 366.713 67.7633 365.182C67.7633 363.665 68.4394 362.527 69.7818 362.527C71.0794 362.527 71.7754 363.586 71.7754 365.182C71.7754 366.788 71.0644 367.881 69.7818 367.881ZM78.1333 369.149C79.5254 369.149 80.0722 368.299 80.3407 367.812H80.465V369H81.9167V358.818H80.4302V362.602H80.3407C80.0722 362.129 79.5651 361.264 78.1433 361.264C76.2988 361.264 74.9416 362.721 74.9416 365.197C74.9416 367.668 76.2789 369.149 78.1333 369.149ZM78.4614 367.881C77.134 367.881 76.443 366.713 76.443 365.182C76.443 363.665 77.1191 362.527 78.4614 362.527C79.759 362.527 80.455 363.586 80.455 365.182C80.455 366.788 79.7441 367.881 78.4614 367.881ZM91.14 361.364H89.574V359.534H88.0875V361.364H86.9689V362.557H88.0875V367.066C88.0825 368.453 89.1414 369.124 90.3147 369.099C90.787 369.094 91.1052 369.005 91.2792 368.94L91.0108 367.712C90.9113 367.732 90.7274 367.777 90.4888 367.777C90.0065 367.777 89.574 367.618 89.574 366.758V362.557H91.14V361.364ZM95.835 369.154C97.9877 369.154 99.3946 367.578 99.3946 365.217C99.3946 362.84 97.9877 361.264 95.835 361.264C93.6823 361.264 92.2753 362.84 92.2753 365.217C92.2753 367.578 93.6823 369.154 95.835 369.154ZM95.8399 367.906C94.433 367.906 93.7767 366.678 93.7767 365.212C93.7767 363.75 94.433 362.507 95.8399 362.507C97.237 362.507 97.8932 363.75 97.8932 365.212C97.8932 366.678 97.237 367.906 95.8399 367.906ZM107.808 369.154C109.612 369.154 110.781 368.07 110.945 366.584H109.498C109.309 367.409 108.668 367.896 107.818 367.896C106.56 367.896 105.749 366.847 105.749 365.182C105.749 363.546 106.575 362.517 107.818 362.517C108.762 362.517 109.339 363.114 109.498 363.83H110.945C110.786 362.288 109.528 361.264 107.793 361.264C105.64 361.264 104.248 362.885 104.248 365.217C104.248 367.518 105.59 369.154 107.808 369.154ZM114.673 369.169C115.935 369.169 116.646 368.528 116.93 367.956H116.989V369H118.441V363.929C118.441 361.707 116.691 361.264 115.478 361.264C114.096 361.264 112.823 361.821 112.326 363.213L113.723 363.531C113.942 362.989 114.499 362.467 115.498 362.467C116.457 362.467 116.95 362.969 116.95 363.835V363.869C116.95 364.411 116.393 364.401 115.021 364.56C113.574 364.729 112.092 365.107 112.092 366.842C112.092 368.344 113.221 369.169 114.673 369.169ZM114.996 367.976C114.156 367.976 113.549 367.598 113.549 366.862C113.549 366.067 114.255 365.783 115.115 365.669C115.597 365.604 116.741 365.475 116.955 365.261V366.246C116.955 367.151 116.234 367.976 114.996 367.976ZM121.824 358.818H120.337V369H121.824V358.818ZM127.031 369.154C128.696 369.154 129.874 368.334 130.212 367.091L128.805 366.837C128.537 367.558 127.891 367.926 127.045 367.926C125.773 367.926 124.918 367.101 124.878 365.629H130.307V365.102C130.307 362.343 128.656 361.264 126.926 361.264C124.798 361.264 123.396 362.885 123.396 365.232C123.396 367.603 124.778 369.154 127.031 369.154ZM124.883 364.516C124.942 363.432 125.728 362.492 126.936 362.492C128.09 362.492 128.845 363.347 128.85 364.516H124.883ZM133.359 364.466C133.359 363.248 134.104 362.552 135.138 362.552C136.148 362.552 136.759 363.213 136.759 364.322V369H138.246V364.143C138.246 362.254 137.207 361.264 135.646 361.264C134.497 361.264 133.746 361.796 133.393 362.607H133.299V361.364H131.872V369H133.359V364.466ZM143.014 369.149C144.406 369.149 144.953 368.299 145.221 367.812H145.346V369H146.797V358.818H145.311V362.602H145.221C144.953 362.129 144.446 361.264 143.024 361.264C141.179 361.264 139.822 362.721 139.822 365.197C139.822 367.668 141.16 369.149 143.014 369.149ZM143.342 367.881C142.015 367.881 141.324 366.713 141.324 365.182C141.324 363.665 142 362.527 143.342 362.527C144.64 362.527 145.336 363.586 145.336 365.182C145.336 366.788 144.625 367.881 143.342 367.881ZM151.057 369.169C152.32 369.169 153.031 368.528 153.314 367.956H153.374V369H154.826V363.929C154.826 361.707 153.076 361.264 151.863 361.264C150.481 361.264 149.208 361.821 148.711 363.213L150.108 363.531C150.326 362.989 150.883 362.467 151.883 362.467C152.842 362.467 153.334 362.969 153.334 363.835V363.869C153.334 364.411 152.777 364.401 151.405 364.56C149.959 364.729 148.477 365.107 148.477 366.842C148.477 368.344 149.606 369.169 151.057 369.169ZM151.38 367.976C150.54 367.976 149.934 367.598 149.934 366.862C149.934 366.067 150.64 365.783 151.5 365.669C151.982 365.604 153.126 365.475 153.339 365.261V366.246C153.339 367.151 152.618 367.976 151.38 367.976ZM156.722 369H158.208V364.337C158.208 363.337 158.979 362.616 160.033 362.616C160.341 362.616 160.689 362.671 160.808 362.706V361.284C160.659 361.264 160.366 361.249 160.177 361.249C159.282 361.249 158.516 361.756 158.238 362.577H158.159V361.364H156.722V369Z" fill="#696F80"></path></svg> 