<?xml version="1.0" encoding="UTF-8"?> <svg xmlns="http://www.w3.org/2000/svg" width="56" height="56" viewBox="0 0 56 56" fill="none"><path d="M41 23.7998H15.8C14.2536 23.7998 13 25.0534 13 26.5998V46.1998C13 47.7462 14.2536 48.9998 15.8 48.9998H41C42.5464 48.9998 43.8 47.7462 43.8 46.1998V26.5998C43.8 25.0534 42.5464 23.7998 41 23.7998Z" stroke="#292B2F" stroke-width="3" stroke-linecap="round" stroke-linejoin="round"></path><path d="M18.5996 23.8V16.8C18.5996 14.2009 19.6321 11.7082 21.47 9.87035C23.3078 8.0325 25.8005 7 28.3996 7C30.9987 7 33.4914 8.0325 35.3293 9.87035C37.1671 11.7082 38.1996 14.2009 38.1996 16.8V23.8" stroke="#292B2F" stroke-width="3" stroke-linecap="round" stroke-linejoin="round"></path><path d="M28.4002 35C28.2617 35 28.1264 35.0411 28.0113 35.118C27.8962 35.1949 27.8065 35.3042 27.7535 35.4321C27.7005 35.56 27.6866 35.7008 27.7136 35.8366C27.7407 35.9724 27.8073 36.0971 27.9052 36.195C28.0031 36.2929 28.1278 36.3595 28.2636 36.3866C28.3994 36.4136 28.5402 36.3997 28.6681 36.3467C28.796 36.2937 28.9053 36.204 28.9822 36.0889C29.0591 35.9738 29.1002 35.8385 29.1002 35.7C29.1004 35.608 29.0825 35.5169 29.0474 35.4318C29.0123 35.3468 28.9608 35.2695 28.8957 35.2045C28.8307 35.1394 28.7534 35.0879 28.6684 35.0528C28.5833 35.0177 28.4922 34.9998 28.4002 35" stroke="#292B2F" stroke-width="3" stroke-linecap="round" stroke-linejoin="round"></path></svg> 