<?xml version="1.0" encoding="UTF-8"?> <svg xmlns="http://www.w3.org/2000/svg" width="20" height="20" viewBox="0 0 20 20" fill="none"><path d="M1.56324 8.6683C1.20206 9.02479 1 9.50234 1 9.99948C1 10.4966 1.20206 10.9742 1.56324 11.3307C3.25517 12.958 6.28014 15.5 9.99891 15.5C13.7177 15.5 16.7437 12.959 18.4368 11.3317C18.7979 10.9752 19 10.4977 19 10.0005C19 9.50338 18.7979 9.02584 18.4368 8.66935C16.7426 7.042 13.7144 4.5 9.99891 4.5C6.28342 4.5 3.25626 7.03991 1.56324 8.6683Z" stroke="#97A2B8" stroke-width="1.5" stroke-linecap="round" stroke-linejoin="round"></path><path d="M10 12C11.1046 12 12 11.1046 12 10C12 8.89543 11.1046 8 10 8C8.89543 8 8 8.89543 8 10C8 11.1046 8.89543 12 10 12Z" stroke="#97A2B8" stroke-width="1.5" stroke-linecap="round" stroke-linejoin="round"></path></svg> 