<?xml version="1.0" encoding="UTF-8"?> <svg xmlns="http://www.w3.org/2000/svg" width="504" height="360" viewBox="0 0 504 360" fill="none"><rect width="552" height="488" fill="white"></rect><rect x="16.5" y="16.5" width="167" height="223" rx="7.5" fill="white"></rect><path d="M48.8202 60H38.974C38.5388 60 38.1214 59.8314 37.8137 59.5314C37.5059 59.2313 37.333 58.8243 37.333 58.4V37.6C37.333 37.1757 37.5059 36.7687 37.8137 36.4686C38.1214 36.1686 38.5388 36 38.974 36H50.6023C51.0374 36.0004 51.4545 36.1692 51.762 36.4693L58.1861 42.7317C58.3384 42.8804 58.4593 43.0568 58.5417 43.251C58.6241 43.4452 58.6664 43.6533 58.6663 43.8635V48.8" stroke="#D3D5DB" stroke-width="1.5" stroke-linecap="round" stroke-linejoin="round"></path><path d="M58.6661 44H52.102C51.6667 44 51.2493 43.8314 50.9416 43.5314C50.6338 43.2313 50.4609 42.8243 50.4609 42.4V36" stroke="#D3D5DB" stroke-width="1.5" stroke-linecap="round" stroke-linejoin="round"></path><path d="M55.333 53.333V59.9997" stroke="#D3D5DB" stroke-width="1.5" stroke-linecap="round" stroke-linejoin="round"></path><path d="M52 53.333L58.6667 53.333" stroke="#D3D5DB" stroke-width="1.5" stroke-linecap="round" stroke-linejoin="round"></path><path d="M54 60H56.6612" stroke="#D3D5DB" stroke-width="1.5" stroke-linecap="round" stroke-linejoin="round"></path><path d="M33.1186 97H34.6548V93.4205H36.7429C39.1044 93.4205 40.2727 91.9936 40.2727 90.1143C40.2727 88.2401 39.1143 86.8182 36.7479 86.8182H33.1186V97ZM34.6548 92.1179V88.1357H36.5838C38.1051 88.1357 38.7266 88.9609 38.7266 90.1143C38.7266 91.2678 38.1051 92.1179 36.6037 92.1179H34.6548ZM41.8704 97H43.3569V92.3366C43.3569 91.3374 44.1275 90.6165 45.1814 90.6165C45.4897 90.6165 45.8377 90.6712 45.957 90.706V89.2841C45.8079 89.2642 45.5145 89.2493 45.3256 89.2493C44.4307 89.2493 43.6651 89.7564 43.3867 90.5767H43.3072V89.3636H41.8704V97ZM50.1026 97.1541C52.2553 97.1541 53.6623 95.5781 53.6623 93.2166C53.6623 90.8402 52.2553 89.2642 50.1026 89.2642C47.9499 89.2642 46.5429 90.8402 46.5429 93.2166C46.5429 95.5781 47.9499 97.1541 50.1026 97.1541ZM50.1076 95.9062C48.7006 95.9062 48.0444 94.6783 48.0444 93.2116C48.0444 91.75 48.7006 90.5071 50.1076 90.5071C51.5046 90.5071 52.1608 91.75 52.1608 93.2116C52.1608 94.6783 51.5046 95.9062 50.1076 95.9062ZM55.2375 99.8636H56.724V95.8118H56.8135C57.082 96.299 57.6289 97.1491 59.0209 97.1491C60.8703 97.1491 62.2127 95.6676 62.2127 93.1967C62.2127 90.7209 60.8504 89.2642 59.006 89.2642C57.5891 89.2642 57.077 90.1293 56.8135 90.6016H56.6892V89.3636H55.2375V99.8636ZM56.6942 93.1818C56.6942 91.5859 57.3902 90.527 58.6878 90.527C60.0351 90.527 60.7112 91.6655 60.7112 93.1818C60.7112 94.7131 60.0152 95.8814 58.6878 95.8814C57.4101 95.8814 56.6942 94.7876 56.6942 93.1818ZM67.0853 97.1541C68.7508 97.1541 69.9291 96.3338 70.2672 95.0909L68.8602 94.8374C68.5917 95.5582 67.9454 95.9261 67.1003 95.9261C65.8275 95.9261 64.9724 95.1009 64.9326 93.6293H70.3616V93.1023C70.3616 90.343 68.7111 89.2642 66.9809 89.2642C64.8531 89.2642 63.4511 90.8849 63.4511 93.2315C63.4511 95.603 64.8332 97.1541 67.0853 97.1541ZM64.9376 92.5156C64.9973 91.4318 65.7828 90.4922 66.9909 90.4922C68.1443 90.4922 68.9 91.3473 68.9049 92.5156H64.9376ZM71.9269 97H73.4135V92.3366C73.4135 91.3374 74.1841 90.6165 75.238 90.6165C75.5463 90.6165 75.8943 90.6712 76.0136 90.706V89.2841C75.8644 89.2642 75.5711 89.2493 75.3822 89.2493C74.4873 89.2493 73.7217 89.7564 73.4433 90.5767H73.3637V89.3636H71.9269V97ZM81.2318 89.3636H79.6657V87.5341H78.1792V89.3636H77.0606V90.5568H78.1792V95.0661C78.1743 96.4531 79.2332 97.1243 80.4065 97.0994C80.8788 97.0945 81.197 97.005 81.371 96.9403L81.1025 95.7124C81.0031 95.7322 80.8192 95.777 80.5805 95.777C80.0983 95.777 79.6657 95.6179 79.6657 94.7578V90.5568H81.2318V89.3636ZM83.7318 99.8636C84.9598 99.8636 85.7353 99.2223 86.1778 98.0192L89.3348 89.3786L87.7289 89.3636L85.795 95.2898H85.7154L83.7815 89.3636H82.1906L84.9846 97.0994L84.8007 97.6065C84.4228 98.6207 83.8909 98.7053 83.0755 98.4815L82.7176 99.6996C82.8966 99.7791 83.2843 99.8636 83.7318 99.8636ZM33.1186 110.818V121H34.5803V113.627H34.6747L37.6776 120.985H38.8906L41.8935 113.632H41.9879V121H43.4496V110.818H41.5852L38.3438 118.733H38.2244L34.983 110.818H33.1186ZM47.702 121.169C48.9648 121.169 49.6758 120.528 49.9591 119.956H50.0188V121H51.4705V115.929C51.4705 113.707 49.7205 113.264 48.5074 113.264C47.1253 113.264 45.8526 113.821 45.3555 115.213L46.7525 115.531C46.9712 114.989 47.528 114.467 48.5273 114.467C49.4868 114.467 49.979 114.969 49.979 115.835V115.869C49.979 116.411 49.4222 116.401 48.0501 116.56C46.6033 116.729 45.1218 117.107 45.1218 118.842C45.1218 120.344 46.2503 121.169 47.702 121.169ZM48.0252 119.976C47.185 119.976 46.5785 119.598 46.5785 118.862C46.5785 118.067 47.2844 117.783 48.1445 117.669C48.6268 117.604 49.7702 117.475 49.984 117.261V118.246C49.984 119.151 49.2631 119.976 48.0252 119.976ZM54.853 116.466C54.853 115.248 55.5987 114.552 56.6328 114.552C57.642 114.552 58.2535 115.213 58.2535 116.322V121H59.74V116.143C59.74 114.254 58.701 113.264 57.1399 113.264C55.9914 113.264 55.2407 113.796 54.8878 114.607H54.7933V113.364H53.3664V121H54.853V116.466ZM63.8719 121.169C65.1347 121.169 65.8457 120.528 66.129 119.956H66.1887V121H67.6404V115.929C67.6404 113.707 65.8904 113.264 64.6773 113.264C63.2952 113.264 62.0225 113.821 61.5253 115.213L62.9224 115.531C63.1411 114.989 63.6979 114.467 64.6972 114.467C65.6567 114.467 66.1489 114.969 66.1489 115.835V115.869C66.1489 116.411 65.5921 116.401 64.2199 116.56C62.7732 116.729 61.2917 117.107 61.2917 118.842C61.2917 120.344 62.4202 121.169 63.8719 121.169ZM64.1951 119.976C63.3549 119.976 62.7484 119.598 62.7484 118.862C62.7484 118.067 63.4543 117.783 64.3144 117.669C64.7966 117.604 65.9401 117.475 66.1539 117.261V118.246C66.1539 119.151 65.433 119.976 64.1951 119.976ZM72.738 124.023C74.6819 124.023 76.1834 123.133 76.1834 121.169V113.364H74.7267V114.602H74.6173C74.3538 114.129 73.8268 113.264 72.4049 113.264C70.5605 113.264 69.2032 114.721 69.2032 117.152C69.2032 119.588 70.5903 120.886 72.395 120.886C73.797 120.886 74.3389 120.095 74.6074 119.608H74.7018V121.109C74.7018 122.308 73.8815 122.825 72.753 122.825C71.515 122.825 71.0328 122.203 70.7693 121.766L69.4916 122.293C69.8943 123.227 70.9135 124.023 72.738 124.023ZM72.7231 119.653C71.3957 119.653 70.7047 118.634 70.7047 117.132C70.7047 115.665 71.3808 114.527 72.7231 114.527C74.0207 114.527 74.7167 115.586 74.7167 117.132C74.7167 118.708 74.0058 119.653 72.7231 119.653ZM81.3842 121.154C83.0496 121.154 84.2279 120.334 84.566 119.091L83.159 118.837C82.8905 119.558 82.2442 119.926 81.3991 119.926C80.1263 119.926 79.2712 119.101 79.2315 117.629H84.6604V117.102C84.6604 114.343 83.0099 113.264 81.2798 113.264C79.1519 113.264 77.7499 114.885 77.7499 117.232C77.7499 119.603 79.132 121.154 81.3842 121.154ZM79.2364 116.516C79.2961 115.432 80.0816 114.492 81.2897 114.492C82.4431 114.492 83.1988 115.347 83.2038 116.516H79.2364ZM86.2258 121H87.7123V116.292C87.7123 115.263 88.4331 114.547 89.2783 114.547C90.1036 114.547 90.6753 115.094 90.6753 115.924V121H92.1569V116.133C92.1569 115.213 92.7187 114.547 93.6881 114.547C94.4736 114.547 95.1199 114.984 95.1199 116.018V121H96.6064V115.879C96.6064 114.134 95.632 113.264 94.2499 113.264C93.1512 113.264 92.3259 113.791 91.958 114.607H91.8785C91.5454 113.771 90.8444 113.264 89.8252 113.264C88.816 113.264 88.0652 113.766 87.7471 114.607H87.6526V113.364H86.2258V121ZM101.806 121.154C103.471 121.154 104.65 120.334 104.988 119.091L103.581 118.837C103.312 119.558 102.666 119.926 101.821 119.926C100.548 119.926 99.6931 119.101 99.6533 117.629H105.082V117.102C105.082 114.343 103.432 113.264 101.702 113.264C99.5738 113.264 98.1718 114.885 98.1718 117.232C98.1718 119.603 99.5539 121.154 101.806 121.154ZM99.6583 116.516C99.7179 115.432 100.503 114.492 101.712 114.492C102.865 114.492 103.621 115.347 103.626 116.516H99.6583ZM108.134 116.466C108.134 115.248 108.88 114.552 109.914 114.552C110.923 114.552 111.535 115.213 111.535 116.322V121H113.021V116.143C113.021 114.254 111.982 113.264 110.421 113.264C109.273 113.264 108.522 113.796 108.169 114.607H108.074V113.364H106.648V121H108.134V116.466ZM118.495 113.364H116.929V111.534H115.443V113.364H114.324V114.557H115.443V119.066C115.438 120.453 116.497 121.124 117.67 121.099C118.142 121.094 118.461 121.005 118.635 120.94L118.366 119.712C118.267 119.732 118.083 119.777 117.844 119.777C117.362 119.777 116.929 119.618 116.929 118.758V114.557H118.495V113.364ZM33.9787 145L34.9134 142.305H38.8906L39.8203 145H41.451L37.7869 134.818H36.0121L32.348 145H33.9787ZM35.3608 141.013L36.8622 136.668H36.9418L38.4432 141.013H35.3608ZM45.7967 148.023C47.7406 148.023 49.242 147.133 49.242 145.169V137.364H47.7853V138.602H47.6759C47.4124 138.129 46.8855 137.264 45.4636 137.264C43.6191 137.264 42.2619 138.721 42.2619 141.152C42.2619 143.588 43.649 144.886 45.4536 144.886C46.8556 144.886 47.3975 144.095 47.666 143.608H47.7605V145.109C47.7605 146.308 46.9401 146.825 45.8116 146.825C44.5737 146.825 44.0914 146.203 43.8279 145.766L42.5502 146.293C42.9529 147.227 43.9721 148.023 45.7967 148.023ZM45.7818 143.653C44.4544 143.653 43.7633 142.634 43.7633 141.132C43.7633 139.665 44.4394 138.527 45.7818 138.527C47.0794 138.527 47.7754 139.586 47.7754 141.132C47.7754 142.708 47.0644 143.653 45.7818 143.653ZM51.1516 145H52.6381V140.337C52.6381 139.337 53.4087 138.616 54.4627 138.616C54.7709 138.616 55.1189 138.671 55.2383 138.706V137.284C55.0891 137.264 54.7958 137.249 54.6069 137.249C53.712 137.249 52.9463 137.756 52.6679 138.577H52.5884V137.364H51.1516V145ZM59.4584 145.154C61.1239 145.154 62.3022 144.334 62.6402 143.091L61.2333 142.837C60.9648 143.558 60.3185 143.926 59.4733 143.926C58.2006 143.926 57.3455 143.101 57.3057 141.629H62.7347V141.102C62.7347 138.343 61.0841 137.264 59.354 137.264C57.2262 137.264 55.8242 138.885 55.8242 141.232C55.8242 143.603 57.2063 145.154 59.4584 145.154ZM57.3107 140.516C57.3703 139.432 58.1558 138.492 59.3639 138.492C60.5174 138.492 61.273 139.347 61.278 140.516H57.3107ZM67.5912 145.154C69.2567 145.154 70.435 144.334 70.773 143.091L69.3661 142.837C69.0976 143.558 68.4513 143.926 67.6061 143.926C66.3334 143.926 65.4783 143.101 65.4385 141.629H70.8675V141.102C70.8675 138.343 69.2169 137.264 67.4868 137.264C65.359 137.264 63.957 138.885 63.957 141.232C63.957 143.603 65.3391 145.154 67.5912 145.154ZM65.4435 140.516C65.5031 139.432 66.2886 138.492 67.4967 138.492C68.6502 138.492 69.4058 139.347 69.4108 140.516H65.4435ZM72.4328 145H73.9193V140.292C73.9193 139.263 74.6402 138.547 75.4854 138.547C76.3106 138.547 76.8824 139.094 76.8824 139.924V145H78.3639V140.133C78.3639 139.213 78.9257 138.547 79.8952 138.547C80.6807 138.547 81.327 138.984 81.327 140.018V145H82.8135V139.879C82.8135 138.134 81.8391 137.264 80.457 137.264C79.3582 137.264 78.5329 137.791 78.1651 138.607H78.0855C77.7524 137.771 77.0514 137.264 76.0322 137.264C75.023 137.264 74.2723 137.766 73.9541 138.607H73.8597V137.364H72.4328V145ZM88.013 145.154C89.6785 145.154 90.8568 144.334 91.1949 143.091L89.7879 142.837C89.5194 143.558 88.8731 143.926 88.028 143.926C86.7552 143.926 85.9001 143.101 85.8603 141.629H91.2893V141.102C91.2893 138.343 89.6388 137.264 87.9086 137.264C85.7808 137.264 84.3788 138.885 84.3788 141.232C84.3788 143.603 85.7609 145.154 88.013 145.154ZM85.8653 140.516C85.925 139.432 86.7105 138.492 87.9186 138.492C89.072 138.492 89.8277 139.347 89.8326 140.516H85.8653ZM94.3412 140.466C94.3412 139.248 95.0869 138.552 96.121 138.552C97.1302 138.552 97.7417 139.213 97.7417 140.322V145H99.2282V140.143C99.2282 138.254 98.1892 137.264 96.6281 137.264C95.4796 137.264 94.7289 137.796 94.376 138.607H94.2815V137.364H92.8546V145H94.3412V140.466ZM104.702 137.364H103.136V135.534H101.65V137.364H100.531V138.557H101.65V143.066C101.645 144.453 102.704 145.124 103.877 145.099C104.349 145.094 104.668 145.005 104.842 144.94L104.573 143.712C104.474 143.732 104.29 143.777 104.051 143.777C103.569 143.777 103.136 143.618 103.136 142.758V138.557H104.702V137.364Z" fill="#2D2F33"></path><rect x="32" y="200" width="63" height="24" rx="12" fill="#F7F8FA"></rect><circle cx="43" cy="212" r="3" fill="#29B8A5"></circle><path d="M50.9588 216H52.2756V212.697H54.0653C54.0952 212.697 54.1207 212.697 54.1506 212.697L55.9233 216H57.4233L55.4886 212.467C56.5582 212.071 57.0909 211.18 57.0909 210.009C57.0909 208.402 56.0938 207.273 54.0696 207.273H50.9588V216ZM52.2756 211.564V208.402H53.929C55.2287 208.402 55.7656 209.02 55.7656 210.009C55.7656 210.993 55.2287 211.564 53.946 211.564H52.2756ZM61.3299 216.132C62.7575 216.132 63.7674 215.429 64.0572 214.364L62.8512 214.146C62.6211 214.764 62.0671 215.08 61.3427 215.08C60.2518 215.08 59.5188 214.372 59.4847 213.111H64.1381V212.659C64.1381 210.294 62.7234 209.369 61.2404 209.369C59.4165 209.369 58.2148 210.759 58.2148 212.77C58.2148 214.803 59.3995 216.132 61.3299 216.132ZM59.489 212.156C59.5401 211.227 60.2134 210.422 61.2489 210.422C62.2376 210.422 62.8853 211.155 62.8896 212.156H59.489ZM66.826 212.114C66.826 211.07 67.4652 210.473 68.3516 210.473C69.2166 210.473 69.7408 211.04 69.7408 211.99V216H71.0149V211.837C71.0149 210.217 70.1243 209.369 68.7862 209.369C67.8018 209.369 67.1584 209.825 66.8558 210.52H66.7749V209.455H65.5518V216H66.826V212.114ZM75.7791 209.455H74.4368V207.886H73.1626V209.455H72.2038V210.477H73.1626V214.342C73.1584 215.531 74.0661 216.107 75.0717 216.085C75.4766 216.081 75.7493 216.004 75.8984 215.949L75.6683 214.896C75.5831 214.913 75.4254 214.952 75.2209 214.952C74.8075 214.952 74.4368 214.815 74.4368 214.078V210.477H75.7791V209.455ZM79.0934 216.145C80.1758 216.145 80.7852 215.595 81.0281 215.105H81.0792V216H82.3235V211.653C82.3235 209.749 80.8235 209.369 79.7837 209.369C78.5991 209.369 77.5082 209.847 77.082 211.04L78.2795 211.312C78.467 210.848 78.9442 210.401 79.8008 210.401C80.6232 210.401 81.0451 210.831 81.0451 211.572V211.602C81.0451 212.067 80.5678 212.058 79.3917 212.195C78.1516 212.339 76.8817 212.663 76.8817 214.151C76.8817 215.438 77.8491 216.145 79.0934 216.145ZM79.3704 215.122C78.6502 215.122 78.1303 214.798 78.1303 214.168C78.1303 213.486 78.7354 213.243 79.4727 213.145C79.886 213.089 80.8661 212.979 81.0494 212.795V213.639C81.0494 214.415 80.4315 215.122 79.3704 215.122ZM85.2947 207.273H84.0206V216H85.2947V207.273Z" fill="#696F80"></path><rect x="99" y="200" width="30" height="24" rx="12" fill="#F7F8FA"></rect><path d="M110.422 214.534H111.568V212.224H113.878V211.078H111.568V208.773H110.422V211.078H108.116V212.224H110.422V214.534ZM119.143 207.273H117.86L115.683 208.696V209.957L117.771 208.594H117.822V216H119.143V207.273Z" fill="#696F80"></path><rect x="16.5" y="16.5" width="167" height="223" rx="7.5" stroke="#EBECF0"></rect><rect x="192.5" y="16.5" width="167" height="223" rx="7.5" fill="white"></rect><path d="M224.82 60H214.974C214.539 60 214.121 59.8314 213.814 59.5314C213.506 59.2313 213.333 58.8243 213.333 58.4V37.6C213.333 37.1757 213.506 36.7687 213.814 36.4686C214.121 36.1686 214.539 36 214.974 36H226.602C227.037 36.0004 227.455 36.1692 227.762 36.4693L234.186 42.7317C234.338 42.8804 234.459 43.0568 234.542 43.251C234.624 43.4452 234.666 43.6533 234.666 43.8635V48.8" stroke="#D3D5DB" stroke-width="1.5" stroke-linecap="round" stroke-linejoin="round"></path><path d="M234.666 44H228.102C227.667 44 227.249 43.8314 226.942 43.5314C226.634 43.2313 226.461 42.8243 226.461 42.4V36" stroke="#D3D5DB" stroke-width="1.5" stroke-linecap="round" stroke-linejoin="round"></path><path d="M231.333 53.333V59.9997" stroke="#D3D5DB" stroke-width="1.5" stroke-linecap="round" stroke-linejoin="round"></path><path d="M228 53.333L234.667 53.333" stroke="#D3D5DB" stroke-width="1.5" stroke-linecap="round" stroke-linejoin="round"></path><path d="M230 60H232.661" stroke="#D3D5DB" stroke-width="1.5" stroke-linecap="round" stroke-linejoin="round"></path><path d="M214.672 89.4929H216.153C216.109 87.8622 214.667 86.679 212.599 86.679C210.555 86.679 208.989 87.8473 208.989 89.6023C208.989 91.0192 210.004 91.8494 211.639 92.2919L212.842 92.62C213.931 92.9084 214.771 93.2663 214.771 94.1712C214.771 95.1655 213.822 95.8217 212.514 95.8217C211.331 95.8217 210.347 95.2947 210.257 94.1861H208.716C208.815 96.0305 210.242 97.169 212.524 97.169C214.915 97.169 216.293 95.9112 216.293 94.1861C216.293 92.3516 214.657 91.6406 213.364 91.3224L212.37 91.0639C211.575 90.8601 210.516 90.4872 210.521 89.5128C210.521 88.6477 211.311 88.0064 212.564 88.0064C213.732 88.0064 214.562 88.5533 214.672 89.4929ZM220.147 97.169C221.41 97.169 222.121 96.5277 222.404 95.956H222.464V97H223.916V91.929C223.916 89.7067 222.166 89.2642 220.953 89.2642C219.571 89.2642 218.298 89.821 217.801 91.2131L219.198 91.5312C219.417 90.9893 219.973 90.4673 220.973 90.4673C221.932 90.4673 222.424 90.9695 222.424 91.8345V91.8693C222.424 92.4112 221.868 92.4013 220.495 92.5604C219.049 92.7294 217.567 93.1072 217.567 94.8423C217.567 96.3438 218.696 97.169 220.147 97.169ZM220.471 95.9759C219.63 95.9759 219.024 95.598 219.024 94.8622C219.024 94.0668 219.73 93.7834 220.59 93.669C221.072 93.6044 222.216 93.4751 222.429 93.2614V94.2457C222.429 95.1506 221.708 95.9759 220.471 95.9759ZM227.298 86.8182H225.812V97H227.298V86.8182ZM232.505 97.1541C234.171 97.1541 235.349 96.3338 235.687 95.0909L234.28 94.8374C234.012 95.5582 233.365 95.9261 232.52 95.9261C231.247 95.9261 230.392 95.1009 230.353 93.6293H235.782V93.1023C235.782 90.343 234.131 89.2642 232.401 89.2642C230.273 89.2642 228.871 90.8849 228.871 93.2315C228.871 95.603 230.253 97.1541 232.505 97.1541ZM230.358 92.5156C230.417 91.4318 231.203 90.4922 232.411 90.4922C233.564 90.4922 234.32 91.3473 234.325 92.5156H230.358ZM243.069 91.228C242.761 90.0398 241.831 89.2642 240.181 89.2642C238.456 89.2642 237.233 90.174 237.233 91.5263C237.233 92.6101 237.889 93.331 239.321 93.6491L240.613 93.9325C241.349 94.0966 241.692 94.4247 241.692 94.902C241.692 95.4936 241.061 95.956 240.086 95.956C239.196 95.956 238.625 95.5732 238.446 94.8224L237.009 95.0412C237.257 96.3935 238.381 97.1541 240.096 97.1541C241.941 97.1541 243.218 96.1747 243.218 94.7926C243.218 93.7138 242.532 93.0476 241.13 92.7244L239.917 92.446C239.077 92.2472 238.714 91.9638 238.719 91.4467C238.714 90.8601 239.35 90.4425 240.196 90.4425C241.12 90.4425 241.548 90.9545 241.722 91.4666L243.069 91.228ZM251.353 97.1442C252.273 97.1442 253.292 96.8359 253.978 96.1946L254.664 97H256.344L254.898 95.2699C255.33 94.6932 255.743 93.7884 255.743 92.3764H254.4C254.4 93.0575 254.241 93.6641 253.978 94.1712L251.94 91.7351L252.636 91.223C253.481 90.6065 253.988 89.8956 253.988 88.9261C253.988 87.7379 253.028 86.7088 251.462 86.7088C249.911 86.7088 248.892 87.7081 248.892 89.1151C248.892 90.0249 249.369 90.7457 250.011 91.5263C248.847 92.3317 248.057 93.0824 248.057 94.2955C248.057 95.9311 249.305 97.1442 251.353 97.1442ZM253.143 95.2102C252.616 95.6477 251.984 95.8864 251.358 95.8864C250.254 95.8864 249.533 95.1357 249.533 94.2557C249.533 93.9425 249.797 93.3161 250.592 92.7294L250.861 92.5305L253.143 95.2102ZM251.119 90.7457C250.657 90.179 250.294 89.657 250.294 89.1399C250.294 88.5483 250.781 87.9517 251.497 87.9517C252.183 87.9517 252.631 88.4886 252.631 88.9659C252.631 89.5724 252.297 89.9403 251.746 90.3033L251.119 90.7457ZM261.165 97H262.702V93.4205H264.79C267.151 93.4205 268.319 91.9936 268.319 90.1143C268.319 88.2401 267.161 86.8182 264.795 86.8182H261.165V97ZM262.702 92.1179V88.1357H264.631C266.152 88.1357 266.773 88.9609 266.773 90.1143C266.773 91.2678 266.152 92.1179 264.65 92.1179H262.702ZM274.754 93.8331C274.759 95.1307 273.795 95.7472 272.96 95.7472C272.04 95.7472 271.404 95.081 271.404 94.0419V89.3636H269.917V94.2209C269.917 96.1151 270.956 97.0994 272.423 97.0994C273.571 97.0994 274.352 96.4929 274.705 95.6776H274.784V97H276.246V89.3636H274.754V93.8331ZM278.159 97H279.646V92.3366C279.646 91.3374 280.416 90.6165 281.47 90.6165C281.779 90.6165 282.127 90.6712 282.246 90.706V89.2841C282.097 89.2642 281.803 89.2493 281.615 89.2493C280.72 89.2493 279.954 89.7564 279.676 90.5767H279.596V89.3636H278.159V97ZM286.392 97.1541C288.196 97.1541 289.365 96.0703 289.529 94.5838H288.082C287.893 95.4091 287.252 95.8963 286.401 95.8963C285.144 95.8963 284.333 94.8473 284.333 93.1818C284.333 91.5462 285.159 90.517 286.401 90.517C287.346 90.517 287.923 91.1136 288.082 91.8295H289.529C289.369 90.2884 288.112 89.2642 286.377 89.2642C284.224 89.2642 282.832 90.8849 282.832 93.2166C282.832 95.5185 284.174 97.1541 286.392 97.1541ZM292.521 92.4659C292.521 91.2479 293.291 90.5518 294.35 90.5518C295.374 90.5518 295.986 91.2031 295.986 92.3217V97H297.472V92.1428C297.472 90.2386 296.428 89.2642 294.857 89.2642C293.669 89.2642 292.953 89.7812 292.595 90.6065H292.501V86.8182H291.034V97H292.521V92.4659ZM301.594 97.169C302.857 97.169 303.568 96.5277 303.852 95.956H303.911V97H305.363V91.929C305.363 89.7067 303.613 89.2642 302.4 89.2642C301.018 89.2642 299.745 89.821 299.248 91.2131L300.645 91.5312C300.864 90.9893 301.42 90.4673 302.42 90.4673C303.379 90.4673 303.871 90.9695 303.871 91.8345V91.8693C303.871 92.4112 303.315 92.4013 301.942 92.5604C300.496 92.7294 299.014 93.1072 299.014 94.8423C299.014 96.3438 300.143 97.169 301.594 97.169ZM301.918 95.9759C301.077 95.9759 300.471 95.598 300.471 94.8622C300.471 94.0668 301.177 93.7834 302.037 93.669C302.519 93.6044 303.663 93.4751 303.876 93.2614V94.2457C303.876 95.1506 303.156 95.9759 301.918 95.9759ZM312.981 91.228C312.673 90.0398 311.743 89.2642 310.093 89.2642C308.367 89.2642 307.144 90.174 307.144 91.5263C307.144 92.6101 307.801 93.331 309.233 93.6491L310.525 93.9325C311.261 94.0966 311.604 94.4247 311.604 94.902C311.604 95.4936 310.973 95.956 309.998 95.956C309.108 95.956 308.537 95.5732 308.358 94.8224L306.921 95.0412C307.169 96.3935 308.293 97.1541 310.008 97.1541C311.853 97.1541 313.13 96.1747 313.13 94.7926C313.13 93.7138 312.444 93.0476 311.042 92.7244L309.829 92.446C308.989 92.2472 308.626 91.9638 308.631 91.4467C308.626 90.8601 309.262 90.4425 310.108 90.4425C311.032 90.4425 311.46 90.9545 311.634 91.4666L312.981 91.228ZM317.972 97.1541C319.637 97.1541 320.816 96.3338 321.154 95.0909L319.747 94.8374C319.478 95.5582 318.832 95.9261 317.987 95.9261C316.714 95.9261 315.859 95.1009 315.819 93.6293H321.248V93.1023C321.248 90.343 319.598 89.2642 317.867 89.2642C315.74 89.2642 314.338 90.8849 314.338 93.2315C314.338 95.603 315.72 97.1541 317.972 97.1541ZM315.824 92.5156C315.884 91.4318 316.669 90.4922 317.877 90.4922C319.031 90.4922 319.787 91.3473 319.791 92.5156H315.824ZM209.979 121L210.913 118.305H214.891L215.82 121H217.451L213.787 110.818H212.012L208.348 121H209.979ZM211.361 117.013L212.862 112.668H212.942L214.443 117.013H211.361ZM221.797 124.023C223.741 124.023 225.242 123.133 225.242 121.169V113.364H223.785V114.602H223.676C223.412 114.129 222.885 113.264 221.464 113.264C219.619 113.264 218.262 114.721 218.262 117.152C218.262 119.588 219.649 120.886 221.454 120.886C222.856 120.886 223.398 120.095 223.666 119.608H223.76V121.109C223.76 122.308 222.94 122.825 221.812 122.825C220.574 122.825 220.091 122.203 219.828 121.766L218.55 122.293C218.953 123.227 219.972 124.023 221.797 124.023ZM221.782 119.653C220.454 119.653 219.763 118.634 219.763 117.132C219.763 115.665 220.439 114.527 221.782 114.527C223.079 114.527 223.775 115.586 223.775 117.132C223.775 118.708 223.064 119.653 221.782 119.653ZM227.152 121H228.638V116.337C228.638 115.337 229.409 114.616 230.463 114.616C230.771 114.616 231.119 114.671 231.238 114.706V113.284C231.089 113.264 230.796 113.249 230.607 113.249C229.712 113.249 228.946 113.756 228.668 114.577H228.588V113.364H227.152V121ZM235.458 121.154C237.124 121.154 238.302 120.334 238.64 119.091L237.233 118.837C236.965 119.558 236.318 119.926 235.473 119.926C234.201 119.926 233.345 119.101 233.306 117.629H238.735V117.102C238.735 114.343 237.084 113.264 235.354 113.264C233.226 113.264 231.824 114.885 231.824 117.232C231.824 119.603 233.206 121.154 235.458 121.154ZM233.311 116.516C233.37 115.432 234.156 114.492 235.364 114.492C236.517 114.492 237.273 115.347 237.278 116.516H233.311ZM243.591 121.154C245.257 121.154 246.435 120.334 246.773 119.091L245.366 118.837C245.098 119.558 244.451 119.926 243.606 119.926C242.333 119.926 241.478 119.101 241.439 117.629H246.867V117.102C246.867 114.343 245.217 113.264 243.487 113.264C241.359 113.264 239.957 114.885 239.957 117.232C239.957 119.603 241.339 121.154 243.591 121.154ZM241.443 116.516C241.503 115.432 242.289 114.492 243.497 114.492C244.65 114.492 245.406 115.347 245.411 116.516H241.443ZM248.433 121H249.919V116.292C249.919 115.263 250.64 114.547 251.485 114.547C252.311 114.547 252.882 115.094 252.882 115.924V121H254.364V116.133C254.364 115.213 254.926 114.547 255.895 114.547C256.681 114.547 257.327 114.984 257.327 116.018V121H258.813V115.879C258.813 114.134 257.839 113.264 256.457 113.264C255.358 113.264 254.533 113.791 254.165 114.607H254.086C253.752 113.771 253.051 113.264 252.032 113.264C251.023 113.264 250.272 113.766 249.954 114.607H249.86V113.364H248.433V121ZM264.013 121.154C265.679 121.154 266.857 120.334 267.195 119.091L265.788 118.837C265.519 119.558 264.873 119.926 264.028 119.926C262.755 119.926 261.9 119.101 261.86 117.629H267.289V117.102C267.289 114.343 265.639 113.264 263.909 113.264C261.781 113.264 260.379 114.885 260.379 117.232C260.379 119.603 261.761 121.154 264.013 121.154ZM261.865 116.516C261.925 115.432 262.71 114.492 263.919 114.492C265.072 114.492 265.828 115.347 265.833 116.516H261.865ZM270.341 116.466C270.341 115.248 271.087 114.552 272.121 114.552C273.13 114.552 273.742 115.213 273.742 116.322V121H275.228V116.143C275.228 114.254 274.189 113.264 272.628 113.264C271.48 113.264 270.729 113.796 270.376 114.607H270.281V113.364H268.855V121H270.341V116.466ZM280.702 113.364H279.136V111.534H277.65V113.364H276.531V114.557H277.65V119.066C277.645 120.453 278.704 121.124 279.877 121.099C280.349 121.094 280.668 121.005 280.842 120.94L280.573 119.712C280.474 119.732 280.29 119.777 280.051 119.777C279.569 119.777 279.136 119.618 279.136 118.758V114.557H280.702V113.364Z" fill="#2D2F33"></path><rect x="208" y="200" width="58" height="24" rx="12" fill="#F7F8FA"></rect><circle cx="219" cy="212" r="3" fill="#9653E3"></circle><path d="M231.719 209.565H232.989C232.95 208.168 231.714 207.153 229.942 207.153C228.19 207.153 226.848 208.155 226.848 209.659C226.848 210.874 227.717 211.585 229.119 211.964L230.151 212.246C231.084 212.493 231.804 212.8 231.804 213.575C231.804 214.428 230.99 214.99 229.869 214.99C228.855 214.99 228.011 214.538 227.935 213.588H226.614C226.699 215.169 227.922 216.145 229.878 216.145C231.928 216.145 233.108 215.067 233.108 213.588C233.108 212.016 231.706 211.406 230.598 211.134L229.746 210.912C229.064 210.737 228.156 210.418 228.161 209.582C228.161 208.841 228.838 208.291 229.912 208.291C230.913 208.291 231.625 208.76 231.719 209.565ZM236.484 216.145C237.566 216.145 238.176 215.595 238.419 215.105H238.47V216H239.714V211.653C239.714 209.749 238.214 209.369 237.174 209.369C235.99 209.369 234.899 209.847 234.473 211.04L235.67 211.312C235.858 210.848 236.335 210.401 237.191 210.401C238.014 210.401 238.436 210.831 238.436 211.572V211.602C238.436 212.067 237.958 212.058 236.782 212.195C235.542 212.339 234.272 212.663 234.272 214.151C234.272 215.438 235.24 216.145 236.484 216.145ZM236.761 215.122C236.041 215.122 235.521 214.798 235.521 214.168C235.521 213.486 236.126 213.243 236.863 213.145C237.277 213.089 238.257 212.979 238.44 212.795V213.639C238.44 214.415 237.822 215.122 236.761 215.122ZM242.685 207.273H241.411V216H242.685V207.273ZM247.221 216.132C248.648 216.132 249.658 215.429 249.948 214.364L248.742 214.146C248.512 214.764 247.958 215.08 247.233 215.08C246.142 215.08 245.409 214.372 245.375 213.111H250.029V212.659C250.029 210.294 248.614 209.369 247.131 209.369C245.307 209.369 244.105 210.759 244.105 212.77C244.105 214.803 245.29 216.132 247.221 216.132ZM245.38 212.156C245.431 211.227 246.104 210.422 247.14 210.422C248.128 210.422 248.776 211.155 248.78 212.156H245.38ZM256.347 211.053C256.083 210.034 255.286 209.369 253.871 209.369C252.393 209.369 251.344 210.149 251.344 211.308C251.344 212.237 251.907 212.855 253.134 213.128L254.242 213.371C254.873 213.511 255.167 213.793 255.167 214.202C255.167 214.709 254.626 215.105 253.79 215.105C253.028 215.105 252.538 214.777 252.384 214.134L251.153 214.321C251.366 215.48 252.329 216.132 253.799 216.132C255.38 216.132 256.475 215.293 256.475 214.108C256.475 213.183 255.887 212.612 254.685 212.335L253.646 212.097C252.925 211.926 252.614 211.683 252.619 211.24C252.614 210.737 253.16 210.379 253.884 210.379C254.677 210.379 255.043 210.818 255.192 211.257L256.347 211.053Z" fill="#696F80"></path><rect x="192.5" y="16.5" width="167" height="223" rx="7.5" stroke="#EBECF0"></rect><rect x="368.5" y="16.5" width="167" height="223" rx="7.5" fill="white"></rect><path d="M400.82 60H390.974C390.539 60 390.121 59.8314 389.814 59.5314C389.506 59.2313 389.333 58.8243 389.333 58.4V37.6C389.333 37.1757 389.506 36.7687 389.814 36.4686C390.121 36.1686 390.539 36 390.974 36H402.602C403.037 36.0004 403.455 36.1692 403.762 36.4693L410.186 42.7317C410.338 42.8804 410.459 43.0568 410.542 43.251C410.624 43.4452 410.666 43.6533 410.666 43.8635V48.8" stroke="#D3D5DB" stroke-width="1.5" stroke-linecap="round" stroke-linejoin="round"></path><path d="M410.666 44H404.102C403.667 44 403.249 43.8314 402.942 43.5314C402.634 43.2313 402.461 42.8243 402.461 42.4V36" stroke="#D3D5DB" stroke-width="1.5" stroke-linecap="round" stroke-linejoin="round"></path><path d="M407.333 53.333V59.9997" stroke="#D3D5DB" stroke-width="1.5" stroke-linecap="round" stroke-linejoin="round"></path><path d="M404 53.333L410.667 53.333" stroke="#D3D5DB" stroke-width="1.5" stroke-linecap="round" stroke-linejoin="round"></path><path d="M406 60H408.661" stroke="#D3D5DB" stroke-width="1.5" stroke-linecap="round" stroke-linejoin="round"></path><path d="M385.119 97H391.562V95.6776H386.655V92.5604H391.169V91.2429H386.655V88.1406H391.502V86.8182H385.119V97ZM393.351 97H394.837V92.2919C394.837 91.2628 395.558 90.5469 396.403 90.5469C397.229 90.5469 397.8 91.0938 397.8 91.924V97H399.282V92.1328C399.282 91.2131 399.844 90.5469 400.813 90.5469C401.599 90.5469 402.245 90.9844 402.245 92.0185V97H403.732V91.8793C403.732 90.1342 402.757 89.2642 401.375 89.2642C400.276 89.2642 399.451 89.7912 399.083 90.6065H399.004C398.67 89.7713 397.969 89.2642 396.95 89.2642C395.941 89.2642 395.19 89.7663 394.872 90.6065H394.778V89.3636H393.351V97ZM405.64 99.8636H407.126V95.8118H407.216C407.484 96.299 408.031 97.1491 409.423 97.1491C411.273 97.1491 412.615 95.6676 412.615 93.1967C412.615 90.7209 411.253 89.2642 409.408 89.2642C407.991 89.2642 407.479 90.1293 407.216 90.6016H407.092V89.3636H405.64V99.8636ZM407.097 93.1818C407.097 91.5859 407.793 90.527 409.09 90.527C410.437 90.527 411.114 91.6655 411.114 93.1818C411.114 94.7131 410.418 95.8814 409.09 95.8814C407.812 95.8814 407.097 94.7876 407.097 93.1818ZM415.683 86.8182H414.197V97H415.683V86.8182ZM420.815 97.1541C422.968 97.1541 424.375 95.5781 424.375 93.2166C424.375 90.8402 422.968 89.2642 420.815 89.2642C418.663 89.2642 417.256 90.8402 417.256 93.2166C417.256 95.5781 418.663 97.1541 420.815 97.1541ZM420.82 95.9062C419.413 95.9062 418.757 94.6783 418.757 93.2116C418.757 91.75 419.413 90.5071 420.82 90.5071C422.217 90.5071 422.874 91.75 422.874 93.2116C422.874 94.6783 422.217 95.9062 420.82 95.9062ZM426.617 99.8636C427.845 99.8636 428.62 99.2223 429.063 98.0192L432.22 89.3786L430.614 89.3636L428.68 95.2898H428.6L426.666 89.3636H425.075L427.869 97.0994L427.685 97.6065C427.308 98.6207 426.776 98.7053 425.96 98.4815L425.602 99.6996C425.781 99.7791 426.169 99.8636 426.617 99.8636ZM433.536 97H435.023V92.2919C435.023 91.2628 435.744 90.5469 436.589 90.5469C437.414 90.5469 437.986 91.0938 437.986 91.924V97H439.467V92.1328C439.467 91.2131 440.029 90.5469 440.999 90.5469C441.784 90.5469 442.43 90.9844 442.43 92.0185V97H443.917V91.8793C443.917 90.1342 442.943 89.2642 441.56 89.2642C440.462 89.2642 439.636 89.7912 439.269 90.6065H439.189C438.856 89.7713 438.155 89.2642 437.136 89.2642C436.127 89.2642 435.376 89.7663 435.058 90.6065H434.963V89.3636H433.536V97ZM449.117 97.1541C450.782 97.1541 451.96 96.3338 452.298 95.0909L450.891 94.8374C450.623 95.5582 449.977 95.9261 449.131 95.9261C447.859 95.9261 447.004 95.1009 446.964 93.6293H452.393V93.1023C452.393 90.343 450.742 89.2642 449.012 89.2642C446.884 89.2642 445.482 90.8849 445.482 93.2315C445.482 95.603 446.864 97.1541 449.117 97.1541ZM446.969 92.5156C447.028 91.4318 447.814 90.4922 449.022 90.4922C450.175 90.4922 450.931 91.3473 450.936 92.5156H446.969ZM455.445 92.4659C455.445 91.2479 456.19 90.5518 457.224 90.5518C458.234 90.5518 458.845 91.2131 458.845 92.3217V97H460.332V92.1428C460.332 90.2536 459.293 89.2642 457.732 89.2642C456.583 89.2642 455.832 89.7962 455.479 90.6065H455.385V89.3636H453.958V97H455.445V92.4659ZM465.806 89.3636H464.24V87.5341H462.753V89.3636H461.635V90.5568H462.753V95.0661C462.748 96.4531 463.807 97.1243 464.981 97.0994C465.453 97.0945 465.771 97.005 465.945 96.9403L465.677 95.7124C465.577 95.7322 465.393 95.777 465.155 95.777C464.672 95.777 464.24 95.6179 464.24 94.7578V90.5568H465.806V89.3636ZM393.575 114.129C393.227 111.952 391.522 110.679 389.369 110.679C386.734 110.679 384.79 112.653 384.79 115.909C384.79 119.165 386.724 121.139 389.369 121.139C391.607 121.139 393.242 119.737 393.575 117.724L392.024 117.719C391.761 119.021 390.667 119.737 389.379 119.737C387.634 119.737 386.317 118.4 386.317 115.909C386.317 113.438 387.629 112.081 389.384 112.081C390.682 112.081 391.771 112.812 392.024 114.129H393.575ZM398.427 121.154C400.58 121.154 401.986 119.578 401.986 117.217C401.986 114.84 400.58 113.264 398.427 113.264C396.274 113.264 394.867 114.84 394.867 117.217C394.867 119.578 396.274 121.154 398.427 121.154ZM398.432 119.906C397.025 119.906 396.369 118.678 396.369 117.212C396.369 115.75 397.025 114.507 398.432 114.507C399.829 114.507 400.485 115.75 400.485 117.212C400.485 118.678 399.829 119.906 398.432 119.906ZM405.048 116.466C405.048 115.248 405.794 114.552 406.828 114.552C407.837 114.552 408.449 115.213 408.449 116.322V121H409.935V116.143C409.935 114.254 408.896 113.264 407.335 113.264C406.187 113.264 405.436 113.796 405.083 114.607H404.989V113.364H403.562V121H405.048V116.466ZM415.41 113.364H413.844V111.534H412.357V113.364H411.238V114.557H412.357V119.066C412.352 120.453 413.411 121.124 414.584 121.099C415.057 121.094 415.375 121.005 415.549 120.94L415.28 119.712C415.181 119.732 414.997 119.777 414.758 119.777C414.276 119.777 413.844 119.618 413.844 118.758V114.557H415.41V113.364ZM416.97 121H418.456V116.337C418.456 115.337 419.227 114.616 420.281 114.616C420.589 114.616 420.937 114.671 421.057 114.706V113.284C420.907 113.264 420.614 113.249 420.425 113.249C419.53 113.249 418.765 113.756 418.486 114.577H418.407V113.364H416.97V121ZM424.413 121.169C425.676 121.169 426.387 120.528 426.67 119.956H426.73V121H428.181V115.929C428.181 113.707 426.431 113.264 425.218 113.264C423.836 113.264 422.563 113.821 422.066 115.213L423.463 115.531C423.682 114.989 424.239 114.467 425.238 114.467C426.198 114.467 426.69 114.969 426.69 115.835V115.869C426.69 116.411 426.133 116.401 424.761 116.56C423.314 116.729 421.833 117.107 421.833 118.842C421.833 120.344 422.961 121.169 424.413 121.169ZM424.736 119.976C423.896 119.976 423.289 119.598 423.289 118.862C423.289 118.067 423.995 117.783 424.855 117.669C425.338 117.604 426.481 117.475 426.695 117.261V118.246C426.695 119.151 425.974 119.976 424.736 119.976ZM433.294 121.154C435.099 121.154 436.267 120.07 436.431 118.584H434.984C434.795 119.409 434.154 119.896 433.304 119.896C432.046 119.896 431.236 118.847 431.236 117.182C431.236 115.546 432.061 114.517 433.304 114.517C434.248 114.517 434.825 115.114 434.984 115.83H436.431C436.272 114.288 435.014 113.264 433.279 113.264C431.126 113.264 429.734 114.885 429.734 117.217C429.734 119.518 431.077 121.154 433.294 121.154ZM441.501 113.364H439.935V111.534H438.449V113.364H437.33V114.557H438.449V119.066C438.444 120.453 439.503 121.124 440.676 121.099C441.148 121.094 441.467 121.005 441.641 120.94L441.372 119.712C441.273 119.732 441.089 119.777 440.85 119.777C440.368 119.777 439.935 119.618 439.935 118.758V114.557H441.501V113.364ZM447.115 116.774C447.115 119.27 447.781 121.348 449.044 123.118H450.406C449.427 121.805 448.656 119.141 448.656 116.774C448.656 114.413 449.427 111.748 450.406 110.435H449.044C447.781 112.205 447.115 114.283 447.115 116.774ZM455.524 113.364H453.878V112.678C453.878 112.001 454.157 111.634 454.883 111.634C455.191 111.634 455.41 111.703 455.549 111.748L455.897 110.545C455.688 110.465 455.256 110.341 454.654 110.341C453.446 110.341 452.387 111.047 452.387 112.479V113.364H451.209V114.557H452.387V121H453.878V114.557H455.524V113.364ZM456.974 121H458.46V113.364H456.974V121ZM457.724 112.185C458.237 112.185 458.664 111.788 458.664 111.3C458.664 110.813 458.237 110.411 457.724 110.411C457.207 110.411 456.785 110.813 456.785 111.3C456.785 111.788 457.207 112.185 457.724 112.185ZM461.549 113.364H459.919L462.265 117.182L459.889 121H461.52L463.235 118.146L464.955 121H466.581L464.179 117.182L466.561 113.364H464.935L463.235 116.337L461.549 113.364ZM470.98 121.154C472.645 121.154 473.823 120.334 474.162 119.091L472.755 118.837C472.486 119.558 471.84 119.926 470.995 119.926C469.722 119.926 468.867 119.101 468.827 117.629H474.256V117.102C474.256 114.343 472.605 113.264 470.875 113.264C468.747 113.264 467.345 114.885 467.345 117.232C467.345 119.603 468.728 121.154 470.98 121.154ZM468.832 116.516C468.892 115.432 469.677 114.492 470.885 114.492C472.039 114.492 472.794 115.347 472.799 116.516H468.832ZM478.68 121.149C480.072 121.149 480.619 120.299 480.887 119.812H481.012V121H482.463V110.818H480.977V114.602H480.887C480.619 114.129 480.112 113.264 478.69 113.264C476.845 113.264 475.488 114.721 475.488 117.197C475.488 119.668 476.826 121.149 478.68 121.149ZM479.008 119.881C477.681 119.881 476.99 118.713 476.99 117.182C476.99 115.665 477.666 114.527 479.008 114.527C480.306 114.527 481.002 115.586 481.002 117.182C481.002 118.788 480.291 119.881 479.008 119.881ZM384.999 147.864H386.486V143.812H386.575C386.844 144.299 387.391 145.149 388.783 145.149C390.632 145.149 391.974 143.668 391.974 141.197C391.974 138.721 390.612 137.264 388.768 137.264C387.351 137.264 386.839 138.129 386.575 138.602H386.451V137.364H384.999V147.864ZM386.456 141.182C386.456 139.586 387.152 138.527 388.45 138.527C389.797 138.527 390.473 139.665 390.473 141.182C390.473 142.713 389.777 143.881 388.45 143.881C387.172 143.881 386.456 142.788 386.456 141.182ZM395.778 145.169C397.041 145.169 397.752 144.528 398.035 143.956H398.095V145H399.547V139.929C399.547 137.707 397.797 137.264 396.584 137.264C395.202 137.264 393.929 137.821 393.432 139.213L394.829 139.531C395.047 138.989 395.604 138.467 396.604 138.467C397.563 138.467 398.055 138.969 398.055 139.835V139.869C398.055 140.411 397.498 140.401 396.126 140.56C394.679 140.729 393.198 141.107 393.198 142.842C393.198 144.344 394.327 145.169 395.778 145.169ZM396.101 143.976C395.261 143.976 394.655 143.598 394.655 142.862C394.655 142.067 395.361 141.783 396.221 141.669C396.703 141.604 397.846 141.475 398.06 141.261V142.246C398.06 143.151 397.339 143.976 396.101 143.976ZM402.109 147.864C403.337 147.864 404.112 147.222 404.555 146.019L407.712 137.379L406.106 137.364L404.172 143.29H404.092L402.159 137.364H400.568L403.362 145.099L403.178 145.607C402.8 146.621 402.268 146.705 401.453 146.482L401.095 147.7C401.274 147.779 401.661 147.864 402.109 147.864ZM409.029 145H410.515V140.292C410.515 139.263 411.236 138.547 412.081 138.547C412.906 138.547 413.478 139.094 413.478 139.924V145H414.96V140.133C414.96 139.213 415.521 138.547 416.491 138.547C417.276 138.547 417.923 138.984 417.923 140.018V145H419.409V139.879C419.409 138.134 418.435 137.264 417.053 137.264C415.954 137.264 415.129 137.791 414.761 138.607H414.681C414.348 137.771 413.647 137.264 412.628 137.264C411.619 137.264 410.868 137.766 410.55 138.607H410.455V137.364H409.029V145ZM424.609 145.154C426.274 145.154 427.453 144.334 427.791 143.091L426.384 142.837C426.115 143.558 425.469 143.926 424.624 143.926C423.351 143.926 422.496 143.101 422.456 141.629H427.885V141.102C427.885 138.343 426.234 137.264 424.504 137.264C422.377 137.264 420.975 138.885 420.975 141.232C420.975 143.603 422.357 145.154 424.609 145.154ZM422.461 140.516C422.521 139.432 423.306 138.492 424.514 138.492C425.668 138.492 426.423 139.347 426.428 140.516H422.461ZM430.937 140.466C430.937 139.248 431.683 138.552 432.717 138.552C433.726 138.552 434.337 139.213 434.337 140.322V145H435.824V140.143C435.824 138.254 434.785 137.264 433.224 137.264C432.075 137.264 431.325 137.796 430.972 138.607H430.877V137.364H429.45V145H430.937V140.466ZM441.298 137.364H439.732V135.534H438.246V137.364H437.127V138.557H438.246V143.066C438.241 144.453 439.3 145.124 440.473 145.099C440.945 145.094 441.263 145.005 441.437 144.94L441.169 143.712C441.07 143.732 440.886 143.777 440.647 143.777C440.165 143.777 439.732 143.618 439.732 142.758V138.557H441.298V137.364ZM445.717 140.779C445.717 138.283 445.051 136.205 443.788 134.435H442.426C443.405 135.748 444.176 138.413 444.176 140.779C444.176 143.141 443.405 145.805 442.426 147.118H443.788C445.051 145.348 445.717 143.27 445.717 140.779Z" fill="#2D2F33"></path><rect x="384" y="200" width="43" height="24" rx="12" fill="#F7F8FA"></rect><circle cx="395" cy="212" r="3" fill="#EBA63D"></circle><path d="M402.959 216H404.276V212.195H408.626V216H409.947V207.273H408.626V211.065H404.276V207.273H402.959V216ZM411.865 216H413.182V212.697H414.972C415.001 212.697 415.027 212.697 415.057 212.697L416.83 216H418.33L416.395 212.467C417.464 212.071 417.997 211.18 417.997 210.009C417.997 208.402 417 207.273 414.976 207.273H411.865V216ZM413.182 211.564V208.402H414.835C416.135 208.402 416.672 209.02 416.672 210.009C416.672 210.993 416.135 211.564 414.852 211.564H413.182Z" fill="#696F80"></path><rect x="368.5" y="16.5" width="167" height="223" rx="7.5" stroke="#EBECF0"></rect><rect x="16.5" y="248.5" width="167" height="223" rx="7.5" fill="white"></rect><path d="M48.8202 292H38.974C38.5388 292 38.1214 291.831 37.8137 291.531C37.5059 291.231 37.333 290.824 37.333 290.4V269.6C37.333 269.176 37.5059 268.769 37.8137 268.469C38.1214 268.169 38.5388 268 38.974 268H50.6023C51.0374 268 51.4545 268.169 51.762 268.469L58.1861 274.732C58.3384 274.88 58.4593 275.057 58.5417 275.251C58.6241 275.445 58.6664 275.653 58.6663 275.863V280.8" stroke="#D3D5DB" stroke-width="1.5" stroke-linecap="round" stroke-linejoin="round"></path><path d="M58.6661 276H52.102C51.6667 276 51.2493 275.831 50.9416 275.531C50.6338 275.231 50.4609 274.824 50.4609 274.4V268" stroke="#D3D5DB" stroke-width="1.5" stroke-linecap="round" stroke-linejoin="round"></path><path d="M55.333 285.333V292" stroke="#D3D5DB" stroke-width="1.5" stroke-linecap="round" stroke-linejoin="round"></path><path d="M52 285.333L58.6667 285.333" stroke="#D3D5DB" stroke-width="1.5" stroke-linecap="round" stroke-linejoin="round"></path><path d="M54 292H56.6612" stroke="#D3D5DB" stroke-width="1.5" stroke-linecap="round" stroke-linejoin="round"></path><path d="M33.1186 329H39.2685V327.678H34.6548V318.818H33.1186V329ZM40.8176 329H42.3041V321.364H40.8176V329ZM41.5683 320.185C42.0804 320.185 42.508 319.788 42.508 319.3C42.508 318.813 42.0804 318.411 41.5683 318.411C41.0513 318.411 40.6287 318.813 40.6287 319.3C40.6287 319.788 41.0513 320.185 41.5683 320.185ZM47.4366 329.154C49.2413 329.154 50.4096 328.07 50.5737 326.584H49.1269C48.938 327.409 48.2967 327.896 47.4465 327.896C46.1887 327.896 45.3783 326.847 45.3783 325.182C45.3783 323.546 46.2036 322.517 47.4465 322.517C48.3911 322.517 48.9678 323.114 49.1269 323.83H50.5737C50.4146 322.288 49.1568 321.264 47.4217 321.264C45.269 321.264 43.8769 322.885 43.8769 325.217C43.8769 327.518 45.2193 329.154 47.4366 329.154ZM55.3705 329.154C57.036 329.154 58.2143 328.334 58.5523 327.091L57.1454 326.837C56.8769 327.558 56.2306 327.926 55.3854 327.926C54.1127 327.926 53.2576 327.101 53.2178 325.629H58.6468V325.102C58.6468 322.343 56.9962 321.264 55.2661 321.264C53.1383 321.264 51.7363 322.885 51.7363 325.232C51.7363 327.603 53.1184 329.154 55.3705 329.154ZM53.2228 324.516C53.2824 323.432 54.068 322.492 55.2761 322.492C56.4295 322.492 57.1851 323.347 57.1901 324.516H53.2228ZM61.6986 324.466C61.6986 323.248 62.4444 322.552 63.4785 322.552C64.4877 322.552 65.0992 323.213 65.0992 324.322V329H66.5857V324.143C66.5857 322.254 65.5466 321.264 63.9856 321.264C62.8371 321.264 62.0864 321.796 61.7334 322.607H61.639V321.364H60.2121V329H61.6986V324.466ZM74.2176 323.228C73.9094 322.04 72.9797 321.264 71.3291 321.264C69.604 321.264 68.381 322.174 68.381 323.526C68.381 324.61 69.0372 325.331 70.469 325.649L71.7616 325.933C72.4974 326.097 72.8405 326.425 72.8405 326.902C72.8405 327.494 72.2091 327.956 71.2347 327.956C70.3447 327.956 69.773 327.573 69.594 326.822L68.1572 327.041C68.4058 328.393 69.5294 329.154 71.2446 329.154C73.0891 329.154 74.3668 328.175 74.3668 326.793C74.3668 325.714 73.6807 325.048 72.2787 324.724L71.0656 324.446C70.2254 324.247 69.8625 323.964 69.8675 323.447C69.8625 322.86 70.4989 322.442 71.344 322.442C72.2687 322.442 72.6963 322.955 72.8703 323.467L74.2176 323.228ZM75.9172 329H77.4037V321.364H75.9172V329ZM76.6679 320.185C77.1799 320.185 77.6075 319.788 77.6075 319.3C77.6075 318.813 77.1799 318.411 76.6679 318.411C76.1508 318.411 75.7282 318.813 75.7282 319.3C75.7282 319.788 76.1508 320.185 76.6679 320.185ZM80.806 324.466C80.806 323.248 81.5517 322.552 82.5858 322.552C83.5951 322.552 84.2066 323.213 84.2066 324.322V329H85.6931V324.143C85.6931 322.254 84.654 321.264 83.0929 321.264C81.9445 321.264 81.1938 321.796 80.8408 322.607H80.7463V321.364H79.3195V329H80.806V324.466ZM90.8044 332.023C92.7483 332.023 94.2497 331.133 94.2497 329.169V321.364H92.793V322.602H92.6836C92.4202 322.129 91.8932 321.264 90.4713 321.264C88.6268 321.264 87.2696 322.721 87.2696 325.152C87.2696 327.588 88.6567 328.886 90.4613 328.886C91.8633 328.886 92.4052 328.095 92.6737 327.608H92.7682V329.109C92.7682 330.308 91.9478 330.825 90.8193 330.825C89.5814 330.825 89.0991 330.203 88.8356 329.766L87.5579 330.293C87.9606 331.227 88.9798 332.023 90.8044 332.023ZM90.7895 327.653C89.4621 327.653 88.771 326.634 88.771 325.132C88.771 323.665 89.4471 322.527 90.7895 322.527C92.0871 322.527 92.7831 323.586 92.7831 325.132C92.7831 326.708 92.0721 327.653 90.7895 327.653ZM33.9787 353L34.9134 350.305H38.8906L39.8203 353H41.451L37.7869 342.818H36.0121L32.348 353H33.9787ZM35.3608 349.013L36.8622 344.668H36.9418L38.4432 349.013H35.3608ZM45.7967 356.023C47.7406 356.023 49.242 355.133 49.242 353.169V345.364H47.7853V346.602H47.6759C47.4124 346.129 46.8855 345.264 45.4636 345.264C43.6191 345.264 42.2619 346.721 42.2619 349.152C42.2619 351.588 43.649 352.886 45.4536 352.886C46.8556 352.886 47.3975 352.095 47.666 351.608H47.7605V353.109C47.7605 354.308 46.9401 354.825 45.8116 354.825C44.5737 354.825 44.0914 354.203 43.8279 353.766L42.5502 354.293C42.9529 355.227 43.9721 356.023 45.7967 356.023ZM45.7818 351.653C44.4544 351.653 43.7633 350.634 43.7633 349.132C43.7633 347.665 44.4394 346.527 45.7818 346.527C47.0794 346.527 47.7754 347.586 47.7754 349.132C47.7754 350.708 47.0644 351.653 45.7818 351.653ZM51.1516 353H52.6381V348.337C52.6381 347.337 53.4087 346.616 54.4627 346.616C54.7709 346.616 55.1189 346.671 55.2383 346.706V345.284C55.0891 345.264 54.7958 345.249 54.6069 345.249C53.712 345.249 52.9463 345.756 52.6679 346.577H52.5884V345.364H51.1516V353ZM59.4584 353.154C61.1239 353.154 62.3022 352.334 62.6402 351.091L61.2333 350.837C60.9648 351.558 60.3185 351.926 59.4733 351.926C58.2006 351.926 57.3455 351.101 57.3057 349.629H62.7347V349.102C62.7347 346.343 61.0841 345.264 59.354 345.264C57.2262 345.264 55.8242 346.885 55.8242 349.232C55.8242 351.603 57.2063 353.154 59.4584 353.154ZM57.3107 348.516C57.3703 347.432 58.1558 346.492 59.3639 346.492C60.5174 346.492 61.273 347.347 61.278 348.516H57.3107ZM67.5912 353.154C69.2567 353.154 70.435 352.334 70.773 351.091L69.3661 350.837C69.0976 351.558 68.4513 351.926 67.6061 351.926C66.3334 351.926 65.4783 351.101 65.4385 349.629H70.8675V349.102C70.8675 346.343 69.2169 345.264 67.4868 345.264C65.359 345.264 63.957 346.885 63.957 349.232C63.957 351.603 65.3391 353.154 67.5912 353.154ZM65.4435 348.516C65.5031 347.432 66.2886 346.492 67.4967 346.492C68.6502 346.492 69.4058 347.347 69.4108 348.516H65.4435ZM72.4328 353H73.9193V348.292C73.9193 347.263 74.6402 346.547 75.4854 346.547C76.3106 346.547 76.8824 347.094 76.8824 347.924V353H78.3639V348.133C78.3639 347.213 78.9257 346.547 79.8952 346.547C80.6807 346.547 81.327 346.984 81.327 348.018V353H82.8135V347.879C82.8135 346.134 81.8391 345.264 80.457 345.264C79.3582 345.264 78.5329 345.791 78.1651 346.607H78.0855C77.7524 345.771 77.0514 345.264 76.0322 345.264C75.023 345.264 74.2723 345.766 73.9541 346.607H73.8597V345.364H72.4328V353ZM88.013 353.154C89.6785 353.154 90.8568 352.334 91.1949 351.091L89.7879 350.837C89.5194 351.558 88.8731 351.926 88.028 351.926C86.7552 351.926 85.9001 351.101 85.8603 349.629H91.2893V349.102C91.2893 346.343 89.6388 345.264 87.9086 345.264C85.7808 345.264 84.3788 346.885 84.3788 349.232C84.3788 351.603 85.7609 353.154 88.013 353.154ZM85.8653 348.516C85.925 347.432 86.7105 346.492 87.9186 346.492C89.072 346.492 89.8277 347.347 89.8326 348.516H85.8653ZM94.3412 348.466C94.3412 347.248 95.0869 346.552 96.121 346.552C97.1302 346.552 97.7417 347.213 97.7417 348.322V353H99.2282V348.143C99.2282 346.254 98.1892 345.264 96.6281 345.264C95.4796 345.264 94.7289 345.796 94.376 346.607H94.2815V345.364H92.8546V353H94.3412V348.466ZM104.702 345.364H103.136V343.534H101.65V345.364H100.531V346.557H101.65V351.066C101.645 352.453 102.704 353.124 103.877 353.099C104.349 353.094 104.668 353.005 104.842 352.94L104.573 351.712C104.474 351.732 104.29 351.777 104.051 351.777C103.569 351.777 103.136 351.618 103.136 350.758V346.557H104.702V345.364Z" fill="#2D2F33"></path><rect x="16.5" y="248.5" width="167" height="223" rx="7.5" stroke="#EBECF0"></rect><rect x="192.5" y="248.5" width="167" height="223" rx="7.5" fill="white"></rect><path d="M224.82 292H214.974C214.539 292 214.121 291.831 213.814 291.531C213.506 291.231 213.333 290.824 213.333 290.4V269.6C213.333 269.176 213.506 268.769 213.814 268.469C214.121 268.169 214.539 268 214.974 268H226.602C227.037 268 227.455 268.169 227.762 268.469L234.186 274.732C234.338 274.88 234.459 275.057 234.542 275.251C234.624 275.445 234.666 275.653 234.666 275.863V280.8" stroke="#D3D5DB" stroke-width="1.5" stroke-linecap="round" stroke-linejoin="round"></path><path d="M234.666 276H228.102C227.667 276 227.249 275.831 226.942 275.531C226.634 275.231 226.461 274.824 226.461 274.4V268" stroke="#D3D5DB" stroke-width="1.5" stroke-linecap="round" stroke-linejoin="round"></path><path d="M231.333 285.333V292" stroke="#D3D5DB" stroke-width="1.5" stroke-linecap="round" stroke-linejoin="round"></path><path d="M228 285.333L234.667 285.333" stroke="#D3D5DB" stroke-width="1.5" stroke-linecap="round" stroke-linejoin="round"></path><path d="M230 292H232.661" stroke="#D3D5DB" stroke-width="1.5" stroke-linecap="round" stroke-linejoin="round"></path><path d="M209.119 329H210.655V325.147H212.743C212.778 325.147 212.808 325.147 212.842 325.147L214.911 329H216.661L214.403 324.879C215.651 324.416 216.273 323.377 216.273 322.01C216.273 320.136 215.109 318.818 212.748 318.818H209.119V329ZM210.655 323.825V320.136H212.584C214.1 320.136 214.727 320.857 214.727 322.01C214.727 323.158 214.1 323.825 212.604 323.825H210.655ZM221.134 329.154C222.8 329.154 223.978 328.334 224.316 327.091L222.909 326.837C222.641 327.558 221.994 327.926 221.149 327.926C219.876 327.926 219.021 327.101 218.982 325.629H224.41V325.102C224.41 322.343 222.76 321.264 221.03 321.264C218.902 321.264 217.5 322.885 217.5 325.232C217.5 327.603 218.882 329.154 221.134 329.154ZM218.986 324.516C219.046 323.432 219.832 322.492 221.04 322.492C222.193 322.492 222.949 323.347 222.954 324.516H218.986ZM227.462 324.466C227.462 323.248 228.208 322.552 229.242 322.552C230.251 322.552 230.863 323.213 230.863 324.322V329H232.349V324.143C232.349 322.254 231.31 321.264 229.749 321.264C228.601 321.264 227.85 321.796 227.497 322.607H227.403V321.364H225.976V329H227.462V324.466ZM237.824 321.364H236.258V319.534H234.771V321.364H233.652V322.557H234.771V327.066C234.766 328.453 235.825 329.124 236.998 329.099C237.471 329.094 237.789 329.005 237.963 328.94L237.694 327.712C237.595 327.732 237.411 327.777 237.172 327.777C236.69 327.777 236.258 327.618 236.258 326.758V322.557H237.824V321.364ZM241.606 329.169C242.869 329.169 243.58 328.528 243.863 327.956H243.923V329H245.375V323.929C245.375 321.707 243.625 321.264 242.412 321.264C241.03 321.264 239.757 321.821 239.26 323.213L240.657 323.531C240.875 322.989 241.432 322.467 242.432 322.467C243.391 322.467 243.883 322.969 243.883 323.835V323.869C243.883 324.411 243.326 324.401 241.954 324.56C240.508 324.729 239.026 325.107 239.026 326.842C239.026 328.344 240.155 329.169 241.606 329.169ZM241.929 327.976C241.089 327.976 240.483 327.598 240.483 326.862C240.483 326.067 241.189 325.783 242.049 325.669C242.531 325.604 243.674 325.475 243.888 325.261V326.246C243.888 327.151 243.167 327.976 241.929 327.976ZM248.757 318.818H247.271V329H248.757V318.818ZM256.516 329.169C257.779 329.169 258.49 328.528 258.774 327.956H258.833V329H260.285V323.929C260.285 321.707 258.535 321.264 257.322 321.264C255.94 321.264 254.667 321.821 254.17 323.213L255.567 323.531C255.786 322.989 256.342 322.467 257.342 322.467C258.301 322.467 258.793 322.969 258.793 323.835V323.869C258.793 324.411 258.237 324.401 256.864 324.56C255.418 324.729 253.936 325.107 253.936 326.842C253.936 328.344 255.065 329.169 256.516 329.169ZM256.84 327.976C255.999 327.976 255.393 327.598 255.393 326.862C255.393 326.067 256.099 325.783 256.959 325.669C257.441 325.604 258.585 325.475 258.798 325.261V326.246C258.798 327.151 258.077 327.976 256.84 327.976ZM265.383 332.023C267.326 332.023 268.828 331.133 268.828 329.169V321.364H267.371V322.602H267.262C266.998 322.129 266.471 321.264 265.049 321.264C263.205 321.264 261.848 322.721 261.848 325.152C261.848 327.588 263.235 328.886 265.039 328.886C266.441 328.886 266.983 328.095 267.252 327.608H267.346V329.109C267.346 330.308 266.526 330.825 265.397 330.825C264.159 330.825 263.677 330.203 263.414 329.766L262.136 330.293C262.539 331.227 263.558 332.023 265.383 332.023ZM265.368 327.653C264.04 327.653 263.349 326.634 263.349 325.132C263.349 323.665 264.025 322.527 265.368 322.527C266.665 322.527 267.361 323.586 267.361 325.132C267.361 326.708 266.65 327.653 265.368 327.653ZM270.737 329H272.224V324.337C272.224 323.337 272.995 322.616 274.049 322.616C274.357 322.616 274.705 322.671 274.824 322.706V321.284C274.675 321.264 274.382 321.249 274.193 321.249C273.298 321.249 272.532 321.756 272.254 322.577H272.174V321.364H270.737V329ZM279.044 329.154C280.71 329.154 281.888 328.334 282.226 327.091L280.819 326.837C280.551 327.558 279.904 327.926 279.059 327.926C277.786 327.926 276.931 327.101 276.892 325.629H282.321V325.102C282.321 322.343 280.67 321.264 278.94 321.264C276.812 321.264 275.41 322.885 275.41 325.232C275.41 327.603 276.792 329.154 279.044 329.154ZM276.897 324.516C276.956 323.432 277.742 322.492 278.95 322.492C280.103 322.492 280.859 323.347 280.864 324.516H276.897ZM287.177 329.154C288.843 329.154 290.021 328.334 290.359 327.091L288.952 326.837C288.683 327.558 288.037 327.926 287.192 327.926C285.919 327.926 285.064 327.101 285.024 325.629H290.453V325.102C290.453 322.343 288.803 321.264 287.073 321.264C284.945 321.264 283.543 322.885 283.543 325.232C283.543 327.603 284.925 329.154 287.177 329.154ZM285.029 324.516C285.089 323.432 285.874 322.492 287.083 322.492C288.236 322.492 288.992 323.347 288.997 324.516H285.029ZM292.019 329H293.505V324.292C293.505 323.263 294.226 322.547 295.071 322.547C295.896 322.547 296.468 323.094 296.468 323.924V329H297.95V324.133C297.95 323.213 298.512 322.547 299.481 322.547C300.266 322.547 300.913 322.984 300.913 324.018V329H302.399V323.879C302.399 322.134 301.425 321.264 300.043 321.264C298.944 321.264 298.119 321.791 297.751 322.607H297.671C297.338 321.771 296.637 321.264 295.618 321.264C294.609 321.264 293.858 321.766 293.54 322.607H293.445V321.364H292.019V329ZM307.599 329.154C309.264 329.154 310.443 328.334 310.781 327.091L309.374 326.837C309.105 327.558 308.459 327.926 307.614 327.926C306.341 327.926 305.486 327.101 305.446 325.629H310.875V325.102C310.875 322.343 309.225 321.264 307.494 321.264C305.367 321.264 303.965 322.885 303.965 325.232C303.965 327.603 305.347 329.154 307.599 329.154ZM305.451 324.516C305.511 323.432 306.296 322.492 307.504 322.492C308.658 322.492 309.414 323.347 309.418 324.516H305.451ZM313.927 324.466C313.927 323.248 314.673 322.552 315.707 322.552C316.716 322.552 317.328 323.213 317.328 324.322V329H318.814V324.143C318.814 322.254 317.775 321.264 316.214 321.264C315.065 321.264 314.315 321.796 313.962 322.607H313.867V321.364H312.44V329H313.927V324.466ZM324.288 321.364H322.722V319.534H321.236V321.364H320.117V322.557H321.236V327.066C321.231 328.453 322.29 329.124 323.463 329.099C323.935 329.094 324.253 329.005 324.427 328.94L324.159 327.712C324.06 327.732 323.876 327.777 323.637 327.777C323.155 327.777 322.722 327.618 322.722 326.758V322.557H324.288V321.364ZM209.432 348.774C209.432 351.27 210.098 353.348 211.361 355.118H212.723C211.744 353.805 210.973 351.141 210.973 348.774C210.973 346.413 211.744 343.748 212.723 342.435H211.361C210.098 344.205 209.432 346.283 209.432 348.774ZM214.206 355.864H215.693V351.812H215.782C216.051 352.299 216.598 353.149 217.99 353.149C219.839 353.149 221.181 351.668 221.181 349.197C221.181 346.721 219.819 345.264 217.975 345.264C216.558 345.264 216.046 346.129 215.782 346.602H215.658V345.364H214.206V355.864ZM215.663 349.182C215.663 347.586 216.359 346.527 217.657 346.527C219.004 346.527 219.68 347.665 219.68 349.182C219.68 350.713 218.984 351.881 217.657 351.881C216.379 351.881 215.663 350.788 215.663 349.182ZM222.763 353H224.249V348.337C224.249 347.337 225.02 346.616 226.074 346.616C226.382 346.616 226.73 346.671 226.85 346.706V345.284C226.7 345.264 226.407 345.249 226.218 345.249C225.323 345.249 224.558 345.756 224.279 346.577H224.2V345.364H222.763V353ZM228.052 353H229.538V345.364H228.052V353ZM228.803 344.185C229.315 344.185 229.742 343.788 229.742 343.3C229.742 342.813 229.315 342.411 228.803 342.411C228.286 342.411 227.863 342.813 227.863 343.3C227.863 343.788 228.286 344.185 228.803 344.185ZM237.987 345.364H236.391L234.462 351.24H234.383L232.449 345.364H230.853L233.627 353H235.218L237.987 345.364ZM241.29 353.169C242.553 353.169 243.264 352.528 243.547 351.956H243.607V353H245.058V347.929C245.058 345.707 243.308 345.264 242.095 345.264C240.713 345.264 239.44 345.821 238.943 347.213L240.34 347.531C240.559 346.989 241.116 346.467 242.115 346.467C243.075 346.467 243.567 346.969 243.567 347.835V347.869C243.567 348.411 243.01 348.401 241.638 348.56C240.191 348.729 238.71 349.107 238.71 350.842C238.71 352.344 239.838 353.169 241.29 353.169ZM241.613 351.976C240.773 351.976 240.166 351.598 240.166 350.862C240.166 350.067 240.872 349.783 241.732 349.669C242.215 349.604 243.358 349.475 243.572 349.261V350.246C243.572 351.151 242.851 351.976 241.613 351.976ZM250.519 345.364H248.953V343.534H247.466V345.364H246.348V346.557H247.466V351.066C247.461 352.453 248.52 353.124 249.694 353.099C250.166 353.094 250.484 353.005 250.658 352.94L250.39 351.712C250.29 351.732 250.106 351.777 249.868 351.777C249.385 351.777 248.953 351.618 248.953 350.758V346.557H250.519V345.364ZM255.288 353.154C256.954 353.154 258.132 352.334 258.47 351.091L257.063 350.837C256.795 351.558 256.149 351.926 255.303 351.926C254.031 351.926 253.175 351.101 253.136 349.629H258.565V349.102C258.565 346.343 256.914 345.264 255.184 345.264C253.056 345.264 251.654 346.885 251.654 349.232C251.654 351.603 253.036 353.154 255.288 353.154ZM253.141 348.516C253.2 347.432 253.986 346.492 255.194 346.492C256.347 346.492 257.103 347.347 257.108 348.516H253.141ZM262.989 348.779C262.989 346.283 262.322 344.205 261.06 342.435H259.697C260.677 343.748 261.447 346.413 261.447 348.779C261.447 351.141 260.677 353.805 259.697 355.118H261.06C262.322 353.348 262.989 351.27 262.989 348.779Z" fill="#2D2F33"></path><rect x="192.5" y="248.5" width="167" height="223" rx="7.5" stroke="#EBECF0"></rect><rect x="368.5" y="248.5" width="167" height="223" rx="7.5" fill="white"></rect><path d="M400.82 292H390.974C390.539 292 390.121 291.831 389.814 291.531C389.506 291.231 389.333 290.824 389.333 290.4V269.6C389.333 269.176 389.506 268.769 389.814 268.469C390.121 268.169 390.539 268 390.974 268H402.602C403.037 268 403.455 268.169 403.762 268.469L410.186 274.732C410.338 274.88 410.459 275.057 410.542 275.251C410.624 275.445 410.666 275.653 410.666 275.863V280.8" stroke="#D3D5DB" stroke-width="1.5" stroke-linecap="round" stroke-linejoin="round"></path><path d="M410.666 276H404.102C403.667 276 403.249 275.831 402.942 275.531C402.634 275.231 402.461 274.824 402.461 274.4V268" stroke="#D3D5DB" stroke-width="1.5" stroke-linecap="round" stroke-linejoin="round"></path><path d="M407.333 285.333V292" stroke="#D3D5DB" stroke-width="1.5" stroke-linecap="round" stroke-linejoin="round"></path><path d="M404 285.333L410.667 285.333" stroke="#D3D5DB" stroke-width="1.5" stroke-linecap="round" stroke-linejoin="round"></path><path d="M406 292H408.661" stroke="#D3D5DB" stroke-width="1.5" stroke-linecap="round" stroke-linejoin="round"></path><path d="M392.009 322.035H393.585C393.242 320.051 391.547 318.679 389.349 318.679C386.714 318.679 384.79 320.663 384.79 323.914C384.79 327.136 386.66 329.139 389.419 329.139C391.89 329.139 393.655 327.518 393.655 324.948V323.79H389.653V325.058H392.168C392.134 326.698 391.05 327.737 389.419 327.737C387.624 327.737 386.317 326.38 386.317 323.904C386.317 321.438 387.634 320.081 389.359 320.081C390.712 320.081 391.626 320.827 392.009 322.035ZM398.693 329.154C400.358 329.154 401.537 328.334 401.875 327.091L400.468 326.837C400.199 327.558 399.553 327.926 398.708 327.926C397.435 327.926 396.58 327.101 396.54 325.629H401.969V325.102C401.969 322.343 400.319 321.264 398.588 321.264C396.461 321.264 395.059 322.885 395.059 325.232C395.059 327.603 396.441 329.154 398.693 329.154ZM396.545 324.516C396.605 323.432 397.39 322.492 398.598 322.492C399.752 322.492 400.507 323.347 400.512 324.516H396.545ZM405.021 324.466C405.021 323.248 405.767 322.552 406.801 322.552C407.81 322.552 408.421 323.213 408.421 324.322V329H409.908V324.143C409.908 322.254 408.869 321.264 407.308 321.264C406.159 321.264 405.409 321.796 405.056 322.607H404.961V321.364H403.534V329H405.021V324.466ZM415.109 329.154C416.774 329.154 417.953 328.334 418.291 327.091L416.884 326.837C416.615 327.558 415.969 327.926 415.124 327.926C413.851 327.926 412.996 327.101 412.956 325.629H418.385V325.102C418.385 322.343 416.735 321.264 415.004 321.264C412.877 321.264 411.475 322.885 411.475 325.232C411.475 327.603 412.857 329.154 415.109 329.154ZM412.961 324.516C413.021 323.432 413.806 322.492 415.014 322.492C416.168 322.492 416.923 323.347 416.928 324.516H412.961ZM419.95 329H421.437V324.337C421.437 323.337 422.208 322.616 423.261 322.616C423.57 322.616 423.918 322.671 424.037 322.706V321.284C423.888 321.264 423.595 321.249 423.406 321.249C422.511 321.249 421.745 321.756 421.467 322.577H421.387V321.364H419.95V329ZM427.393 329.169C428.656 329.169 429.367 328.528 429.65 327.956H429.71V329H431.162V323.929C431.162 321.707 429.412 321.264 428.199 321.264C426.817 321.264 425.544 321.821 425.047 323.213L426.444 323.531C426.663 322.989 427.219 322.467 428.219 322.467C429.178 322.467 429.67 322.969 429.67 323.835V323.869C429.67 324.411 429.114 324.401 427.741 324.56C426.295 324.729 424.813 325.107 424.813 326.842C424.813 328.344 425.942 329.169 427.393 329.169ZM427.717 327.976C426.876 327.976 426.27 327.598 426.27 326.862C426.27 326.067 426.976 325.783 427.836 325.669C428.318 325.604 429.462 325.475 429.675 325.261V326.246C429.675 327.151 428.954 327.976 427.717 327.976ZM434.544 318.818H433.058V329H434.544V318.818ZM439.698 320.141H442.87V329H444.402V320.141H447.578V318.818H439.698V320.141ZM451.3 329.154C452.966 329.154 454.144 328.334 454.482 327.091L453.075 326.837C452.806 327.558 452.16 327.926 451.315 327.926C450.042 327.926 449.187 327.101 449.147 325.629H454.576V325.102C454.576 322.343 452.926 321.264 451.196 321.264C449.068 321.264 447.666 322.885 447.666 325.232C447.666 327.603 449.048 329.154 451.3 329.154ZM449.152 324.516C449.212 323.432 449.998 322.492 451.206 322.492C452.359 322.492 453.115 323.347 453.12 324.516H449.152ZM456.142 329H457.628V324.337C457.628 323.337 458.399 322.616 459.453 322.616C459.761 322.616 460.109 322.671 460.228 322.706V321.284C460.079 321.264 459.786 321.249 459.597 321.249C458.702 321.249 457.936 321.756 457.658 322.577H457.579V321.364H456.142V329ZM461.431 329H462.917V324.292C462.917 323.263 463.638 322.547 464.483 322.547C465.309 322.547 465.88 323.094 465.88 323.924V329H467.362V324.133C467.362 323.213 467.924 322.547 468.893 322.547C469.679 322.547 470.325 322.984 470.325 324.018V329H471.811V323.879C471.811 322.134 470.837 321.264 469.455 321.264C468.356 321.264 467.531 321.791 467.163 322.607H467.083C466.75 321.771 466.049 321.264 465.03 321.264C464.021 321.264 463.27 321.766 462.952 322.607H462.858V321.364H461.431V329ZM479.442 323.228C479.134 322.04 478.204 321.264 476.554 321.264C474.828 321.264 473.605 322.174 473.605 323.526C473.605 324.61 474.262 325.331 475.694 325.649L476.986 325.933C477.722 326.097 478.065 326.425 478.065 326.902C478.065 327.494 477.434 327.956 476.459 327.956C475.569 327.956 474.998 327.573 474.819 326.822L473.382 327.041C473.63 328.393 474.754 329.154 476.469 329.154C478.314 329.154 479.591 328.175 479.591 326.793C479.591 325.714 478.905 325.048 477.503 324.724L476.29 324.446C475.45 324.247 475.087 323.964 475.092 323.447C475.087 322.86 475.723 322.442 476.569 322.442C477.493 322.442 477.921 322.955 478.095 323.467L479.442 323.228ZM486.985 329.169C488.248 329.169 488.959 328.528 489.242 327.956H489.302V329H490.754V323.929C490.754 321.707 489.004 321.264 487.79 321.264C486.408 321.264 485.136 321.821 484.638 323.213L486.035 323.531C486.254 322.989 486.811 322.467 487.81 322.467C488.77 322.467 489.262 322.969 489.262 323.835V323.869C489.262 324.411 488.705 324.401 487.333 324.56C485.886 324.729 484.405 325.107 484.405 326.842C484.405 328.344 485.533 329.169 486.985 329.169ZM487.308 327.976C486.468 327.976 485.861 327.598 485.861 326.862C485.861 326.067 486.567 325.783 487.428 325.669C487.91 325.604 489.053 325.475 489.267 325.261V326.246C489.267 327.151 488.546 327.976 487.308 327.976ZM494.136 324.466C494.136 323.248 494.882 322.552 495.916 322.552C496.925 322.552 497.537 323.213 497.537 324.322V329H499.023V324.143C499.023 322.254 497.984 321.264 496.423 321.264C495.274 321.264 494.524 321.796 494.171 322.607H494.076V321.364H492.649V329H494.136V324.466ZM503.791 329.149C505.183 329.149 505.73 328.299 505.999 327.812H506.123V329H507.575V318.818H506.088V322.602H505.999C505.73 322.129 505.223 321.264 503.801 321.264C501.957 321.264 500.6 322.721 500.6 325.197C500.6 327.668 501.937 329.149 503.791 329.149ZM504.119 327.881C502.792 327.881 502.101 326.713 502.101 325.182C502.101 323.665 502.777 322.527 504.119 322.527C505.417 322.527 506.113 323.586 506.113 325.182C506.113 326.788 505.402 327.881 504.119 327.881ZM393.575 346.129C393.227 343.952 391.522 342.679 389.369 342.679C386.734 342.679 384.79 344.653 384.79 347.909C384.79 351.165 386.724 353.139 389.369 353.139C391.607 353.139 393.242 351.737 393.575 349.724L392.024 349.719C391.761 351.021 390.667 351.737 389.379 351.737C387.634 351.737 386.317 350.4 386.317 347.909C386.317 345.438 387.629 344.081 389.384 344.081C390.682 344.081 391.771 344.812 392.024 346.129H393.575ZM398.427 353.154C400.58 353.154 401.986 351.578 401.986 349.217C401.986 346.84 400.58 345.264 398.427 345.264C396.274 345.264 394.867 346.84 394.867 349.217C394.867 351.578 396.274 353.154 398.427 353.154ZM398.432 351.906C397.025 351.906 396.369 350.678 396.369 349.212C396.369 347.75 397.025 346.507 398.432 346.507C399.829 346.507 400.485 347.75 400.485 349.212C400.485 350.678 399.829 351.906 398.432 351.906ZM405.048 348.466C405.048 347.248 405.794 346.552 406.828 346.552C407.837 346.552 408.449 347.213 408.449 348.322V353H409.935V348.143C409.935 346.254 408.896 345.264 407.335 345.264C406.187 345.264 405.436 345.796 405.083 346.607H404.989V345.364H403.562V353H405.048V348.466ZM414.704 353.149C416.096 353.149 416.643 352.299 416.911 351.812H417.035V353H418.487V342.818H417V346.602H416.911C416.643 346.129 416.135 345.264 414.714 345.264C412.869 345.264 411.512 346.721 411.512 349.197C411.512 351.668 412.849 353.149 414.704 353.149ZM415.032 351.881C413.704 351.881 413.013 350.713 413.013 349.182C413.013 347.665 413.689 346.527 415.032 346.527C416.329 346.527 417.025 347.586 417.025 349.182C417.025 350.788 416.314 351.881 415.032 351.881ZM420.525 353H422.011V345.364H420.525V353ZM421.275 344.185C421.787 344.185 422.215 343.788 422.215 343.3C422.215 342.813 421.787 342.411 421.275 342.411C420.758 342.411 420.336 342.813 420.336 343.3C420.336 343.788 420.758 344.185 421.275 344.185ZM427.492 345.364H425.926V343.534H424.439V345.364H423.32V346.557H424.439V351.066C424.434 352.453 425.493 353.124 426.666 353.099C427.139 353.094 427.457 353.005 427.631 352.94L427.362 351.712C427.263 351.732 427.079 351.777 426.84 351.777C426.358 351.777 425.926 351.618 425.926 350.758V346.557H427.492V345.364ZM429.052 353H430.538V345.364H429.052V353ZM429.803 344.185C430.315 344.185 430.742 343.788 430.742 343.3C430.742 342.813 430.315 342.411 429.803 342.411C429.286 342.411 428.863 342.813 428.863 343.3C428.863 343.788 429.286 344.185 429.803 344.185ZM435.671 353.154C437.824 353.154 439.231 351.578 439.231 349.217C439.231 346.84 437.824 345.264 435.671 345.264C433.518 345.264 432.111 346.84 432.111 349.217C432.111 351.578 433.518 353.154 435.671 353.154ZM435.676 351.906C434.269 351.906 433.613 350.678 433.613 349.212C433.613 347.75 434.269 346.507 435.676 346.507C437.073 346.507 437.729 347.75 437.729 349.212C437.729 350.678 437.073 351.906 435.676 351.906ZM442.292 348.466C442.292 347.248 443.038 346.552 444.072 346.552C445.081 346.552 445.693 347.213 445.693 348.322V353H447.179V348.143C447.179 346.254 446.14 345.264 444.579 345.264C443.431 345.264 442.68 345.796 442.327 346.607H442.233V345.364H440.806V353H442.292V348.466ZM454.811 347.228C454.503 346.04 453.573 345.264 451.923 345.264C450.198 345.264 448.975 346.174 448.975 347.526C448.975 348.61 449.631 349.331 451.063 349.649L452.355 349.933C453.091 350.097 453.434 350.425 453.434 350.902C453.434 351.494 452.803 351.956 451.828 351.956C450.938 351.956 450.367 351.573 450.188 350.822L448.751 351.041C449 352.393 450.123 353.154 451.838 353.154C453.683 353.154 454.96 352.175 454.96 350.793C454.96 349.714 454.274 349.048 452.872 348.724L451.659 348.446C450.819 348.247 450.456 347.964 450.461 347.447C450.456 346.86 451.093 346.442 451.938 346.442C452.862 346.442 453.29 346.955 453.464 347.467L454.811 347.228ZM463.349 353.154C465.501 353.154 466.908 351.578 466.908 349.217C466.908 346.84 465.501 345.264 463.349 345.264C461.196 345.264 459.789 346.84 459.789 349.217C459.789 351.578 461.196 353.154 463.349 353.154ZM463.354 351.906C461.947 351.906 461.29 350.678 461.29 349.212C461.29 347.75 461.947 346.507 463.354 346.507C464.751 346.507 465.407 347.75 465.407 349.212C465.407 350.678 464.751 351.906 463.354 351.906ZM472.118 345.364H470.472V344.678C470.472 344.001 470.751 343.634 471.476 343.634C471.785 343.634 472.003 343.703 472.143 343.748L472.491 342.545C472.282 342.465 471.849 342.341 471.248 342.341C470.04 342.341 468.981 343.047 468.981 344.479V345.364H467.802V346.557H468.981V353H470.472V346.557H472.118V345.364ZM482.861 345.493H484.343C484.298 343.862 482.856 342.679 480.788 342.679C478.745 342.679 477.179 343.847 477.179 345.602C477.179 347.019 478.193 347.849 479.828 348.292L481.032 348.62C482.12 348.908 482.961 349.266 482.961 350.171C482.961 351.165 482.011 351.822 480.703 351.822C479.52 351.822 478.536 351.295 478.446 350.186H476.905C477.005 352.031 478.431 353.169 480.713 353.169C483.105 353.169 484.482 351.911 484.482 350.186C484.482 348.352 482.846 347.641 481.554 347.322L480.559 347.064C479.764 346.86 478.705 346.487 478.71 345.513C478.71 344.648 479.5 344.006 480.753 344.006C481.921 344.006 482.752 344.553 482.861 345.493ZM488.337 353.169C489.599 353.169 490.31 352.528 490.594 351.956H490.653V353H492.105V347.929C492.105 345.707 490.355 345.264 489.142 345.264C487.76 345.264 486.487 345.821 485.99 347.213L487.387 347.531C487.606 346.989 488.163 346.467 489.162 346.467C490.121 346.467 490.614 346.969 490.614 347.835V347.869C490.614 348.411 490.057 348.401 488.685 348.56C487.238 348.729 485.756 349.107 485.756 350.842C485.756 352.344 486.885 353.169 488.337 353.169ZM488.66 351.976C487.82 351.976 487.213 351.598 487.213 350.862C487.213 350.067 487.919 349.783 488.779 349.669C489.261 349.604 490.405 349.475 490.619 349.261V350.246C490.619 351.151 489.898 351.976 488.66 351.976ZM495.487 342.818H494.001V353H495.487V342.818ZM500.695 353.154C502.36 353.154 503.538 352.334 503.876 351.091L502.469 350.837C502.201 351.558 501.555 351.926 500.709 351.926C499.437 351.926 498.582 351.101 498.542 349.629H503.971V349.102C503.971 346.343 502.32 345.264 500.59 345.264C498.462 345.264 497.06 346.885 497.06 349.232C497.06 351.603 498.442 353.154 500.695 353.154ZM498.547 348.516C498.606 347.432 499.392 346.492 500.6 346.492C501.753 346.492 502.509 347.347 502.514 348.516H498.547Z" fill="#2D2F33"></path><rect x="368.5" y="248.5" width="167" height="223" rx="7.5" stroke="#EBECF0"></rect></svg> 