<?xml version="1.0" encoding="UTF-8"?> <svg xmlns="http://www.w3.org/2000/svg" width="56" height="56" viewBox="0 0 56 56" fill="none"><path d="M49 27V12.8C49 11.2536 47.7464 10 46.2 10H9.8C8.2536 10 7 11.2536 7 12.8V35.2C7 36.7464 8.2536 38 9.8 38H22" stroke="#292B2F" stroke-width="3" stroke-linecap="round" stroke-linejoin="round"></path><path d="M21 46.4L22.4 38" stroke="#292B2F" stroke-width="3" stroke-linecap="round" stroke-linejoin="round"></path><path d="M16.7998 46.4004H21" stroke="#292B2F" stroke-width="3" stroke-linecap="round" stroke-linejoin="round"></path><path d="M32.1387 44.1452C32.1387 44.1452 34.4142 48.8026 38.2427 48.4535C46.0043 47.7442 45.4854 37.4271 48.3227 33.7834C45.9226 32.5872 43.2734 31.9764 40.5919 32.0007C37.9104 32.025 35.2727 32.6839 32.8947 33.9233C28.8739 36.1932 28.5883 40.0273 32.1387 44.1452V44.1452Z" stroke="#12BA69" stroke-width="3" stroke-linecap="round" stroke-linejoin="round"></path><path d="M37.6296 39.4131C37.6296 39.4131 32.5896 40.0366 29 48.8043" stroke="#12BA69" stroke-width="3" stroke-linecap="round" stroke-linejoin="round"></path></svg> 