<?xml version="1.0" encoding="UTF-8"?> <svg xmlns="http://www.w3.org/2000/svg" width="20" height="20" viewBox="0 0 20 20" fill="none"><path d="M1 10.9272H4.27273L6.73818 5.45384C6.80025 5.31739 6.90756 5.20093 7.0459 5.1199C7.18423 5.03887 7.34705 4.99711 7.51273 5.00016C7.67841 5.0032 7.83914 5.05092 7.97357 5.13696C8.10801 5.22301 8.20981 5.34332 8.26545 5.48194L11.8567 14.5154C11.9089 14.6466 12.0024 14.7617 12.126 14.8471C12.2497 14.9324 12.3984 14.9845 12.5544 14.997C12.7104 15.0096 12.8672 14.9821 13.0061 14.9178C13.1451 14.8536 13.2603 14.7553 13.3382 14.6346L15.7273 10.9272H19" stroke="#97A2B8" stroke-width="1.5" stroke-linecap="round" stroke-linejoin="round"></path></svg> 