<?xml version="1.0" encoding="UTF-8"?> <svg xmlns="http://www.w3.org/2000/svg" width="64" height="64" viewBox="0 0 64 64" fill="none"><path d="M60.8 0H3.2C1.43269 0 0 1.43269 0 3.2V60.8C0 62.5673 1.43269 64 3.2 64H60.8C62.5673 64 64 62.5673 64 60.8V3.2C64 1.43269 62.5673 0 60.8 0Z" fill="#033FB1"></path><path d="M31.9992 3.2002L33.1272 6.87302H36.7992L33.8352 9.14004L34.9632 12.8002L31.9992 10.5332L29.0352 12.8002L30.1632 9.14004L27.1992 6.87302H30.8712L31.9992 3.2002Z" fill="#FFC721"></path><path d="M31.9992 51.2002L33.1272 54.8604H36.7992L33.8352 57.1274L34.9632 60.8002L31.9992 58.5332L29.0352 60.8002L30.1632 57.1274L27.1992 54.8604H30.8712L31.9992 51.2002Z" fill="#FFC721"></path><path d="M49.6008 44.7998L50.7408 48.46H54.4008L51.4368 50.727L52.5768 54.3998L49.6008 52.1328L46.6368 54.3998L47.7768 50.727L44.8008 48.46H48.4728L49.6008 44.7998Z" fill="#FFC721"></path><path d="M14.3936 44.7998L15.5322 48.46H19.1996L16.2273 50.727L17.3659 54.3998L14.3936 52.1328L11.4333 54.3998L12.5719 50.727L9.59961 48.46H13.267L14.3936 44.7998Z" fill="#FFC721"></path><path d="M49.6008 9.59961L50.7408 13.2676H54.4008L51.4368 15.5316L52.5768 19.1996L49.6008 16.9356L46.6368 19.1996L47.7768 15.5316L44.8008 13.2676H48.4728L49.6008 9.59961Z" fill="#FFC721"></path><path d="M14.3936 9.59961L15.5322 13.2676H19.1996L16.2273 15.5316L17.3659 19.1996L14.3936 16.9356L11.4333 19.1996L12.5719 15.5316L9.59961 13.2676H13.267L14.3936 9.59961Z" fill="#FFC721"></path><path d="M55.9992 27.2002L57.1392 30.8604H60.7992L57.8352 33.1274L58.9632 36.8002L55.9992 34.5332L53.0352 36.8002L54.1632 33.1274L51.1992 30.8604H54.8712L55.9992 27.2002Z" fill="#FFC721"></path><path d="M7.99922 27.2002L9.12722 30.8604H12.7992L9.83522 33.1274L10.9632 36.8002L7.99922 34.5332L5.03522 36.8002L6.16322 33.1274L3.19922 30.8604H6.85922L7.99922 27.2002Z" fill="#FFC721"></path><path d="M17.3547 36C19.5706 36 20.8845 34.6293 20.8845 32.3565C20.8845 30.0909 19.5706 28.7273 17.4044 28.7273H14.8902V36H17.3547ZM16.2077 34.8601V29.8672H17.3298C18.8071 29.8672 19.5777 30.6911 19.5777 32.3565C19.5777 34.0291 18.8071 34.8601 17.2907 34.8601H16.2077ZM26.0887 30.7266H27.3564C27.3316 29.4979 26.284 28.6278 24.7357 28.6278C23.2087 28.6278 22.0617 29.4872 22.0653 30.7727C22.0653 31.8168 22.8074 32.4169 24.0042 32.7259L24.8316 32.9389C25.6164 33.1378 26.1349 33.3828 26.1384 33.9474C26.1349 34.5689 25.5454 34.9844 24.686 34.9844C23.8621 34.9844 23.2229 34.6151 23.1697 33.8516H21.8735C21.9268 35.2969 23.0028 36.1101 24.6966 36.1101C26.4403 36.1101 27.4523 35.2401 27.4559 33.9581C27.4523 32.6974 26.4118 32.1222 25.3181 31.8629L24.6363 31.6925C24.0397 31.5504 23.3934 31.2983 23.4005 30.6911C23.404 30.1442 23.8941 29.7429 24.718 29.7429C25.5028 29.7429 26.0212 30.1087 26.0887 30.7266ZM33.5026 31.0497H34.8449C34.6212 29.6222 33.3854 28.6278 31.7767 28.6278C29.8733 28.6278 28.4458 30.027 28.4458 32.3707C28.4458 34.6719 29.8094 36.0994 31.8158 36.0994C33.6162 36.0994 34.9053 34.9418 34.9053 33.0668V32.1932H31.9543V33.223H33.6304C33.6091 34.2599 32.9166 34.9169 31.8229 34.9169C30.6048 34.9169 29.7703 34.0043 29.7703 32.3565C29.7703 30.7195 30.6191 29.8104 31.7945 29.8104C32.6716 29.8104 33.2682 30.2791 33.5026 31.0497ZM36.9276 28.7273H35.4823L38.0427 36H39.6691L42.233 28.7273H40.7842L38.895 34.4517H38.8204L36.9276 28.7273ZM49.2989 32.3636C49.2989 30.0128 47.8643 28.6278 45.9573 28.6278C44.0468 28.6278 42.6157 30.0128 42.6157 32.3636C42.6157 34.7109 44.0468 36.0994 45.9573 36.0994C47.8643 36.0994 49.2989 34.7145 49.2989 32.3636ZM47.9743 32.3636C47.9743 34.0185 47.1434 34.9169 45.9573 34.9169C44.7748 34.9169 43.9403 34.0185 43.9403 32.3636C43.9403 30.7088 44.7748 29.8104 45.9573 29.8104C47.1434 29.8104 47.9743 30.7088 47.9743 32.3636Z" fill="white"></path></svg> 