<?xml version="1.0" encoding="UTF-8"?> <svg xmlns="http://www.w3.org/2000/svg" width="64" height="64" viewBox="0 0 64 64" fill="none"><path d="M60.8 0H3.2C1.43269 0 0 1.43269 0 3.2V60.8C0 62.5673 1.43269 64 3.2 64H60.8C62.5673 64 64 62.5673 64 60.8V3.2C64 1.43269 62.5673 0 60.8 0Z" fill="#033FB1"></path><path d="M32.0002 3.2002L33.1282 6.87302H36.8002L33.8362 9.14004L34.9642 12.8002L32.0002 10.5332L29.0362 12.8002L30.1642 9.14004L27.2002 6.87302H30.8722L32.0002 3.2002Z" fill="#FFC721"></path><path d="M32.0002 51.2002L33.1282 54.8604H36.8002L33.8362 57.1274L34.9642 60.8002L32.0002 58.5332L29.0362 60.8002L30.1642 57.1274L27.2002 54.8604H30.8722L32.0002 51.2002Z" fill="#FFC721"></path><path d="M49.5998 44.7998L50.7398 48.46H54.3998L51.4358 50.727L52.5758 54.3998L49.5998 52.1328L46.6358 54.3998L47.7758 50.727L44.7998 48.46H48.4718L49.5998 44.7998Z" fill="#FFC721"></path><path d="M14.3936 44.7998L15.5322 48.46H19.1996L16.2273 50.727L17.3659 54.3998L14.3936 52.1328L11.4333 54.3998L12.5719 50.727L9.59961 48.46H13.267L14.3936 44.7998Z" fill="#FFC721"></path><path d="M49.5998 9.59961L50.7398 13.2676H54.3998L51.4358 15.5316L52.5758 19.1996L49.5998 16.9356L46.6358 19.1996L47.7758 15.5316L44.7998 13.2676H48.4718L49.5998 9.59961Z" fill="#FFC721"></path><path d="M14.3936 9.59961L15.5322 13.2676H19.1996L16.2273 15.5316L17.3659 19.1996L14.3936 16.9356L11.4333 19.1996L12.5719 15.5316L9.59961 13.2676H13.267L14.3936 9.59961Z" fill="#FFC721"></path><path d="M56.0002 27.2002L57.1402 30.8604H60.8002L57.8362 33.1274L58.9642 36.8002L56.0002 34.5332L53.0362 36.8002L54.1642 33.1274L51.2002 30.8604H54.8722L56.0002 27.2002Z" fill="#FFC721"></path><path d="M8.0002 27.2002L9.12819 30.8604H12.8002L9.8362 33.1274L10.9642 36.8002L8.0002 34.5332L5.0362 36.8002L6.1642 33.1274L3.2002 30.8604H6.8602L8.0002 27.2002Z" fill="#FFC721"></path><path d="M20.5509 28.0009C21.2087 27.9875 21.8604 28.1273 22.4533 28.4091C23.0463 28.6909 23.5638 29.1068 23.9641 29.6231L23.0898 30.1559C22.7833 29.7832 22.396 29.4833 21.9565 29.2784C21.5171 29.0735 21.0368 28.9687 20.5509 28.9718C20.0876 28.9693 19.6288 29.061 19.2029 29.2412C18.7771 29.4215 18.3933 29.6864 18.0754 30.0196C17.7575 30.3528 17.5123 30.747 17.3551 31.1779C17.198 31.6087 17.1321 32.0669 17.1617 32.524C17.1197 33.1994 17.2856 33.8714 17.6373 34.4518C17.9891 35.0322 18.5103 35.4937 19.1324 35.7756C19.7545 36.0575 20.4483 36.1466 21.1226 36.0312C21.797 35.9158 22.4201 35.6012 22.9102 35.129V33.3292H19.8922V32.3583H24V35.5079C23.5641 35.9831 23.0314 36.3616 22.4369 36.6188C21.8425 36.8759 21.1997 37.0058 20.5509 36.9998C19.3439 36.9998 18.1864 36.5258 17.3329 35.6819C16.4795 34.8381 16 33.6937 16 32.5003C16 31.307 16.4795 30.1626 17.3329 29.3187C18.1864 28.4749 19.3439 28.0009 20.5509 28.0009Z" fill="white"></path><path d="M25 28H28.2492C28.8731 28 29.4909 28.1164 30.0672 28.3425C30.6436 28.5687 31.1674 28.9002 31.6085 29.318C32.0497 29.7359 32.3996 30.232 32.6384 30.7779C32.8771 31.3239 33 31.9091 33 32.5C33 33.091 32.8771 33.6761 32.6384 34.2221C32.3996 34.768 32.0497 35.2641 31.6085 35.682C31.1674 36.0998 30.6436 36.4313 30.0672 36.6575C29.4909 36.8836 28.8731 37 28.2492 37H25V28ZM28.2492 35.9946C28.7322 36.0152 29.2145 35.9408 29.6655 35.7759C30.1166 35.611 30.5266 35.3593 30.8697 35.0366C31.2128 34.7139 31.4815 34.3273 31.6588 33.9013C31.836 33.4752 31.9181 33.0189 31.8997 32.5613C31.9313 32.0972 31.859 31.632 31.6875 31.1962C31.5159 30.7605 31.249 30.364 30.9043 30.0329C30.5596 29.7017 30.1448 29.4433 29.6872 29.2747C29.2296 29.1061 28.7396 29.0311 28.2492 29.0545H26.1909V35.9946H28.2492Z" fill="white"></path><path d="M34 28H37.4252C38.1081 28 38.763 28.2855 39.2459 28.7937C39.7287 29.3019 40 29.9911 40 30.7098C40 31.4285 39.7287 32.1177 39.2459 32.6259C38.763 33.1341 38.1081 33.4196 37.4252 33.4196H35.0951V37H34.035L34 28ZM37.2971 28.9932H35.0951V32.4264H37.332C37.7646 32.4264 38.1795 32.2456 38.4854 31.9236C38.7913 31.6017 38.9631 31.1651 38.9631 30.7098C38.9631 30.2545 38.7913 29.8179 38.4854 29.496C38.1795 29.174 37.7646 28.9932 37.332 28.9932H37.2971Z" fill="white"></path><path d="M44.6943 33.4128H43.0302V36.9878H42V28.0015H45.3962C45.7278 27.9895 46.058 28.0513 46.3666 28.1831C46.6751 28.3148 46.9553 28.5137 47.1899 28.7674C47.4244 29.021 47.6083 29.3241 47.7302 29.6578C47.852 29.9914 47.9091 30.3486 47.8981 30.7071C47.9196 31.0337 47.8803 31.3617 47.7825 31.6715C47.6847 31.9814 47.5305 32.2669 47.3289 32.5112C47.1273 32.7555 46.8824 32.9535 46.6088 33.0937C46.3352 33.2338 46.0383 33.3132 45.7358 33.3271L48 37H46.766L44.6943 33.4128ZM45.2151 28.9931H43.0302V32.4334H45.2151C45.4353 32.4535 45.6569 32.424 45.8659 32.3466C46.075 32.2693 46.2669 32.1459 46.4296 31.9842C46.5922 31.8225 46.7221 31.6261 46.8109 31.4073C46.8998 31.1885 46.9456 30.9522 46.9456 30.7133C46.9456 30.4743 46.8998 30.238 46.8109 30.0192C46.7221 29.8004 46.5922 29.604 46.4296 29.4423C46.2669 29.2806 46.075 29.1572 45.8659 29.0799C45.6569 29.0026 45.4353 28.973 45.2151 28.9931Z" fill="white"></path></svg> 