<?xml version="1.0" encoding="UTF-8"?> <svg xmlns="http://www.w3.org/2000/svg" width="264" height="160" viewBox="0 0 264 160" fill="none"><rect x="1" y="25" width="14" height="14" rx="7" stroke="#363B47" stroke-width="2"></rect><rect x="25" y="25" width="166" height="14" rx="3" stroke="#363B47" stroke-width="2"></rect><rect x="201" y="25" width="62" height="14" rx="3" stroke="#363B47" stroke-width="2"></rect><rect x="1" y="57" width="14" height="14" rx="7" stroke="#363B47" stroke-width="2"></rect><rect x="25" y="57" width="166" height="14" rx="3" stroke="#363B47" stroke-width="2"></rect><rect x="201" y="57" width="62" height="14" rx="3" stroke="#363B47" stroke-width="2"></rect><rect x="1" y="89" width="14" height="14" rx="7" stroke="#EBA330" stroke-width="2"></rect><rect x="25" y="89" width="166" height="14" rx="3" stroke="#EBA330" stroke-width="2"></rect><rect x="201" y="89" width="62" height="14" rx="3" stroke="#EBA330" stroke-width="2"></rect><rect x="1" y="121" width="14" height="14" rx="7" stroke="#363B47" stroke-width="2"></rect><rect x="25" y="121" width="166" height="14" rx="3" stroke="#363B47" stroke-width="2"></rect><rect x="201" y="121" width="62" height="14" rx="3" stroke="#363B47" stroke-width="2"></rect></svg> 