<?xml version="1.0" encoding="UTF-8"?> <svg xmlns="http://www.w3.org/2000/svg" width="552" height="348" viewBox="0 0 552 348" fill="none"><rect width="552" height="348" fill="white"></rect><path d="M28.4148 41C31.517 41 33.3118 39.076 33.3118 35.8942C33.3118 32.7273 31.517 30.8182 28.5192 30.8182H25.1186V41H28.4148ZM26.6548 39.6577V32.1605H28.4247C30.652 32.1605 31.8004 33.4929 31.8004 35.8942C31.8004 38.3054 30.652 39.6577 28.3303 39.6577H26.6548ZM38.2354 41.1541C40.3881 41.1541 41.7951 39.5781 41.7951 37.2166C41.7951 34.8402 40.3881 33.2642 38.2354 33.2642C36.0827 33.2642 34.6758 34.8402 34.6758 37.2166C34.6758 39.5781 36.0827 41.1541 38.2354 41.1541ZM38.2404 39.9062C36.8334 39.9062 36.1772 38.6783 36.1772 37.2116C36.1772 35.75 36.8334 34.5071 38.2404 34.5071C39.6374 34.5071 40.2937 35.75 40.2937 37.2116C40.2937 38.6783 39.6374 39.9062 38.2404 39.9062ZM46.587 41.1541C48.3917 41.1541 49.56 40.0703 49.724 38.5838H48.2773C48.0884 39.4091 47.4471 39.8963 46.5969 39.8963C45.3391 39.8963 44.5287 38.8473 44.5287 37.1818C44.5287 35.5462 45.354 34.517 46.5969 34.517C47.5415 34.517 48.1182 35.1136 48.2773 35.8295H49.724C49.565 34.2884 48.3071 33.2642 46.5721 33.2642C44.4194 33.2642 43.0273 34.8849 43.0273 37.2166C43.0273 39.5185 44.3696 41.1541 46.587 41.1541ZM56.0671 37.8331C56.072 39.1307 55.1076 39.7472 54.2723 39.7472C53.3526 39.7472 52.7162 39.081 52.7162 38.0419V33.3636H51.2297V38.2209C51.2297 40.1151 52.2688 41.0994 53.7354 41.0994C54.8838 41.0994 55.6644 40.4929 56.0174 39.6776H56.0969V41H57.5585V33.3636H56.0671V37.8331ZM59.4719 41H60.9584V36.2919C60.9584 35.2628 61.6793 34.5469 62.5244 34.5469C63.3497 34.5469 63.9215 35.0938 63.9215 35.924V41H65.403V36.1328C65.403 35.2131 65.9648 34.5469 66.9342 34.5469C67.7198 34.5469 68.3661 34.9844 68.3661 36.0185V41H69.8526V35.8793C69.8526 34.1342 68.8781 33.2642 67.496 33.2642C66.3973 33.2642 65.572 33.7912 65.2041 34.6065H65.1246C64.7915 33.7713 64.0905 33.2642 63.0713 33.2642C62.0621 33.2642 61.3114 33.7663 60.9932 34.6065H60.8987V33.3636H59.4719V41ZM75.0521 41.1541C76.7176 41.1541 77.8959 40.3338 78.2339 39.0909L76.827 38.8374C76.5585 39.5582 75.9122 39.9261 75.067 39.9261C73.7943 39.9261 72.9392 39.1009 72.8994 37.6293H78.3284V37.1023C78.3284 34.343 76.6778 33.2642 74.9477 33.2642C72.8199 33.2642 71.4179 34.8849 71.4179 37.2315C71.4179 39.603 72.8 41.1541 75.0521 41.1541ZM72.9044 36.5156C72.9641 35.4318 73.7496 34.4922 74.9577 34.4922C76.1111 34.4922 76.8668 35.3473 76.8717 36.5156H72.9044ZM81.3802 36.4659C81.3802 35.2479 82.126 34.5518 83.1601 34.5518C84.1693 34.5518 84.7808 35.2131 84.7808 36.3217V41H86.2673V36.1428C86.2673 34.2536 85.2282 33.2642 83.6672 33.2642C82.5187 33.2642 81.768 33.7962 81.415 34.6065H81.3206V33.3636H79.8937V41H81.3802V36.4659ZM91.7415 33.3636H90.1755V31.5341H88.689V33.3636H87.5704V34.5568H88.689V39.0661C88.684 40.4531 89.743 41.1243 90.9163 41.0994C91.3886 41.0945 91.7067 41.005 91.8807 40.9403L91.6123 39.7124C91.5129 39.7322 91.3289 39.777 91.0903 39.777C90.608 39.777 90.1755 39.6179 90.1755 38.7578V34.5568H91.7415V33.3636ZM98.9012 35.228C98.5929 34.0398 97.6632 33.2642 96.0127 33.2642C94.2875 33.2642 93.0645 34.174 93.0645 35.5263C93.0645 36.6101 93.7208 37.331 95.1526 37.6491L96.4452 37.9325C97.181 38.0966 97.524 38.4247 97.524 38.902C97.524 39.4936 96.8926 39.956 95.9182 39.956C95.0283 39.956 94.4566 39.5732 94.2776 38.8224L92.8408 39.0412C93.0894 40.3935 94.2129 41.1541 95.9281 41.1541C97.7726 41.1541 99.0503 40.1747 99.0503 38.7926C99.0503 37.7138 98.3642 37.0476 96.9622 36.7244L95.7492 36.446C94.909 36.2472 94.546 35.9638 94.551 35.4467C94.546 34.8601 95.1824 34.4425 96.0276 34.4425C96.9523 34.4425 97.3798 34.9545 97.5539 35.4666L98.9012 35.228Z" fill="#292B2F"></path><path d="M104.269 35.9091C104.269 38.4148 104.945 40.5028 106.158 42.2727H107.192C106.237 40.9602 105.482 38.2756 105.482 35.9091C105.482 33.5426 106.237 30.858 107.192 29.5455H106.158C104.945 31.3153 104.269 33.4034 104.269 35.9091ZM108.998 41H110.231V37.0227H112.459C112.548 37.0227 112.633 37.0227 112.717 37.0178L114.865 41H116.297L113.995 36.794C115.292 36.3516 115.899 35.2926 115.899 33.9403C115.899 32.1406 114.825 30.8182 112.439 30.8182H108.998V41ZM110.231 35.9091V31.9119H112.399C114.05 31.9119 114.686 32.7173 114.686 33.9403C114.686 35.1634 114.05 35.9091 112.419 35.9091H110.231ZM120.83 41.1591C122.381 41.1591 123.515 40.3835 123.873 39.2301L122.739 38.9119C122.441 39.7074 121.75 40.1051 120.83 40.1051C119.453 40.1051 118.503 39.2152 118.449 37.5795H123.992V37.0824C123.992 34.2386 122.302 33.2642 120.711 33.2642C118.643 33.2642 117.27 34.8949 117.27 37.2415C117.27 39.5881 118.623 41.1591 120.83 41.1591ZM118.449 36.5653C118.528 35.3771 119.368 34.3182 120.711 34.3182C121.983 34.3182 122.799 35.2727 122.799 36.5653H118.449ZM132.076 43.8636V33.3636H130.943V34.5767H130.804C130.545 34.179 130.088 33.2642 128.596 33.2642C126.667 33.2642 125.335 34.7955 125.335 37.2017C125.335 39.6278 126.667 41.1591 128.576 41.1591C130.048 41.1591 130.545 40.2443 130.804 39.8267H130.903V43.8636H132.076ZM130.923 37.1818C130.923 38.9119 130.147 40.1051 128.735 40.1051C127.264 40.1051 126.508 38.8125 126.508 37.1818C126.508 35.571 127.244 34.3182 128.735 34.3182C130.167 34.3182 130.923 35.4716 130.923 37.1818ZM138.953 37.8778C138.953 39.3097 137.859 39.9659 136.984 39.9659C136.009 39.9659 135.313 39.25 135.313 38.1364V33.3636H134.14V38.2159C134.14 40.1648 135.174 41.0994 136.606 41.0994C137.759 41.0994 138.515 40.483 138.873 39.7074H138.953V41H140.126V33.3636H138.953V37.8778ZM142.191 41H143.364V33.3636H142.191V41ZM142.787 32.0909C143.245 32.0909 143.623 31.733 143.623 31.2955C143.623 30.858 143.245 30.5 142.787 30.5C142.33 30.5 141.952 30.858 141.952 31.2955C141.952 31.733 142.33 32.0909 142.787 32.0909ZM145.429 41H146.602V36.1676C146.602 35.1335 147.418 34.3778 148.531 34.3778C148.845 34.3778 149.168 34.4375 149.247 34.4574V33.2642C149.113 33.2543 148.805 33.2443 148.631 33.2443C147.716 33.2443 146.921 33.7614 146.642 34.517H146.563V33.3636H145.429V41ZM153.523 41.1591C155.074 41.1591 156.208 40.3835 156.566 39.2301L155.432 38.9119C155.134 39.7074 154.443 40.1051 153.523 40.1051C152.146 40.1051 151.197 39.2152 151.142 37.5795H156.685V37.0824C156.685 34.2386 154.995 33.2642 153.404 33.2642C151.336 33.2642 149.964 34.8949 149.964 37.2415C149.964 39.5881 151.316 41.1591 153.523 41.1591ZM151.142 36.5653C151.222 35.3771 152.062 34.3182 153.404 34.3182C154.677 34.3182 155.492 35.2727 155.492 36.5653H151.142ZM161.27 41.1591C162.741 41.1591 163.238 40.2443 163.497 39.8267H163.636V41H164.77V30.8182H163.596V34.5767H163.497C163.238 34.179 162.781 33.2642 161.29 33.2642C159.361 33.2642 158.028 34.7955 158.028 37.2017C158.028 39.6278 159.361 41.1591 161.27 41.1591ZM161.429 40.1051C159.957 40.1051 159.201 38.8125 159.201 37.1818C159.201 35.571 159.937 34.3182 161.429 34.3182C162.861 34.3182 163.616 35.4716 163.616 37.1818C163.616 38.9119 162.841 40.1051 161.429 40.1051ZM169.503 36.7045C169.503 34.1989 168.827 32.1108 167.614 30.3409H166.58C167.534 31.6534 168.29 34.3381 168.29 36.7045C168.29 39.071 167.534 41.7557 166.58 43.0682H167.614C168.827 41.2983 169.503 39.2102 169.503 36.7045Z" fill="#646C7A"></path><rect x="24" y="56" width="504" height="64" rx="6" fill="#F7F8FA"></rect><path d="M178.5 86.8139L172.158 93.327C171.426 94.0781 170.434 94.5 169.4 94.5C168.366 94.5 167.374 94.0781 166.642 93.327C165.911 92.576 165.5 91.5574 165.5 90.4953C165.5 89.4332 165.911 88.4146 166.642 87.6635L171.852 82.3151C172.091 82.0601 172.378 81.8567 172.695 81.7168C173.013 81.5768 173.354 81.5032 173.699 81.5001C174.044 81.497 174.387 81.5646 174.706 81.6988C175.026 81.833 175.316 82.0313 175.56 82.282C175.804 82.5326 175.997 82.8307 176.128 83.1588C176.259 83.4869 176.325 83.8385 176.322 84.193C176.319 84.5475 176.247 84.8978 176.111 85.2235C175.974 85.5493 175.776 85.8439 175.528 86.0901L170.319 91.4416C170.074 91.6848 169.746 91.8194 169.405 91.8164C169.064 91.8134 168.738 91.6731 168.497 91.4256C168.256 91.1782 168.119 90.8434 168.116 90.4934C168.113 90.1434 168.244 89.8061 168.481 89.5543L173.69 84.2035" stroke="#646C7A" stroke-linecap="round" stroke-linejoin="round"></path><path d="M192.687 93C195.79 93 197.584 91.076 197.584 87.8942C197.584 84.7273 195.79 82.8182 192.792 82.8182H189.391V93H192.687ZM190.928 91.6577V84.1605H192.697C194.925 84.1605 196.073 85.4929 196.073 87.8942C196.073 90.3054 194.925 91.6577 192.603 91.6577H190.928ZM199.292 93H200.778V88.3366C200.778 87.3374 201.549 86.6165 202.603 86.6165C202.911 86.6165 203.259 86.6712 203.378 86.706V85.2841C203.229 85.2642 202.936 85.2493 202.747 85.2493C201.852 85.2493 201.086 85.7564 200.808 86.5767H200.728V85.3636H199.292V93ZM207.524 93.1541C209.676 93.1541 211.083 91.5781 211.083 89.2166C211.083 86.8402 209.676 85.2642 207.524 85.2642C205.371 85.2642 203.964 86.8402 203.964 89.2166C203.964 91.5781 205.371 93.1541 207.524 93.1541ZM207.529 91.9062C206.122 91.9062 205.465 90.6783 205.465 89.2116C205.465 87.75 206.122 86.5071 207.529 86.5071C208.926 86.5071 209.582 87.75 209.582 89.2116C209.582 90.6783 208.926 91.9062 207.529 91.9062ZM212.659 95.8636H214.145V91.8118H214.235C214.503 92.299 215.05 93.1491 216.442 93.1491C218.291 93.1491 219.634 91.6676 219.634 89.1967C219.634 86.7209 218.272 85.2642 216.427 85.2642C215.01 85.2642 214.498 86.1293 214.235 86.6016H214.11V85.3636H212.659V95.8636ZM214.115 89.1818C214.115 87.5859 214.811 86.527 216.109 86.527C217.456 86.527 218.132 87.6655 218.132 89.1818C218.132 90.7131 217.436 91.8814 216.109 91.8814C214.831 91.8814 214.115 90.7876 214.115 89.1818ZM228.471 85.3636H226.825V84.6776C226.825 84.0014 227.103 83.6335 227.829 83.6335C228.138 83.6335 228.356 83.7031 228.495 83.7479L228.843 82.5447C228.635 82.4652 228.202 82.3409 227.601 82.3409C226.392 82.3409 225.334 83.0469 225.334 84.4787V85.3636H224.155V86.5568H225.334V93H226.825V86.5568H228.471V85.3636ZM229.92 93H231.407V85.3636H229.92V93ZM230.671 84.1854C231.183 84.1854 231.611 83.7876 231.611 83.3004C231.611 82.8132 231.183 82.4105 230.671 82.4105C230.154 82.4105 229.731 82.8132 229.731 83.3004C229.731 83.7876 230.154 84.1854 230.671 84.1854ZM234.809 82.8182H233.323V93H234.809V82.8182ZM240.016 93.1541C241.682 93.1541 242.86 92.3338 243.198 91.0909L241.791 90.8374C241.523 91.5582 240.876 91.9261 240.031 91.9261C238.758 91.9261 237.903 91.1009 237.863 89.6293H243.292V89.1023C243.292 86.343 241.642 85.2642 239.912 85.2642C237.784 85.2642 236.382 86.8849 236.382 89.2315C236.382 91.603 237.764 93.1541 240.016 93.1541ZM237.868 88.5156C237.928 87.4318 238.714 86.4922 239.922 86.4922C241.075 86.4922 241.831 87.3473 241.836 88.5156H237.868ZM250.58 87.228C250.272 86.0398 249.342 85.2642 247.692 85.2642C245.966 85.2642 244.743 86.174 244.743 87.5263C244.743 88.6101 245.4 89.331 246.832 89.6491L248.124 89.9325C248.86 90.0966 249.203 90.4247 249.203 90.902C249.203 91.4936 248.572 91.956 247.597 91.956C246.707 91.956 246.135 91.5732 245.957 90.8224L244.52 91.0412C244.768 92.3935 245.892 93.1541 247.607 93.1541C249.452 93.1541 250.729 92.1747 250.729 90.7926C250.729 89.7138 250.043 89.0476 248.641 88.7244L247.428 88.446C246.588 88.2472 246.225 87.9638 246.23 87.4467C246.225 86.8601 246.861 86.4425 247.707 86.4425C248.631 86.4425 249.059 86.9545 249.233 87.4666L250.58 87.228ZM259.465 85.3636H257.899V83.5341H256.413V85.3636H255.294V86.5568H256.413V91.0661C256.408 92.4531 257.467 93.1243 258.64 93.0994C259.112 93.0945 259.431 93.005 259.605 92.9403L259.336 91.7124C259.237 91.7322 259.053 91.777 258.814 91.777C258.332 91.777 257.899 91.6179 257.899 90.7578V86.5568H259.465V85.3636ZM264.16 93.1541C266.313 93.1541 267.72 91.5781 267.72 89.2166C267.72 86.8402 266.313 85.2642 264.16 85.2642C262.008 85.2642 260.601 86.8402 260.601 89.2166C260.601 91.5781 262.008 93.1541 264.16 93.1541ZM264.165 91.9062C262.758 91.9062 262.102 90.6783 262.102 89.2116C262.102 87.75 262.758 86.5071 264.165 86.5071C265.562 86.5071 266.219 87.75 266.219 89.2116C266.219 90.6783 265.562 91.9062 264.165 91.9062ZM275.139 93.169C276.401 93.169 277.112 92.5277 277.396 91.956H277.455V93H278.907V87.929C278.907 85.7067 277.157 85.2642 275.944 85.2642C274.562 85.2642 273.289 85.821 272.792 87.2131L274.189 87.5312C274.408 86.9893 274.965 86.4673 275.964 86.4673C276.923 86.4673 277.416 86.9695 277.416 87.8345V87.8693C277.416 88.4112 276.859 88.4013 275.487 88.5604C274.04 88.7294 272.558 89.1072 272.558 90.8423C272.558 92.3438 273.687 93.169 275.139 93.169ZM275.462 91.9759C274.622 91.9759 274.015 91.598 274.015 90.8622C274.015 90.0668 274.721 89.7834 275.581 89.669C276.063 89.6044 277.207 89.4751 277.421 89.2614V90.2457C277.421 91.1506 276.7 91.9759 275.462 91.9759ZM284.368 85.3636H282.802V83.5341H281.315V85.3636H280.196V86.5568H281.315V91.0661C281.31 92.4531 282.369 93.1243 283.542 93.0994C284.015 93.0945 284.333 93.005 284.507 92.9403L284.238 91.7124C284.139 91.7322 283.955 91.777 283.716 91.777C283.234 91.777 282.802 91.6179 282.802 90.7578V86.5568H284.368V85.3636ZM289.493 85.3636H287.927V83.5341H286.44V85.3636H285.321V86.5568H286.44V91.0661C286.435 92.4531 287.494 93.1243 288.667 93.0994C289.14 93.0945 289.458 93.005 289.632 92.9403L289.363 91.7124C289.264 91.7322 289.08 91.777 288.841 91.777C288.359 91.777 287.927 91.6179 287.927 90.7578V86.5568H289.493V85.3636ZM293.275 93.169C294.538 93.169 295.249 92.5277 295.532 91.956H295.592V93H297.044V87.929C297.044 85.7067 295.294 85.2642 294.081 85.2642C292.699 85.2642 291.426 85.821 290.929 87.2131L292.326 87.5312C292.544 86.9893 293.101 86.4673 294.101 86.4673C295.06 86.4673 295.552 86.9695 295.552 87.8345V87.8693C295.552 88.4112 294.995 88.4013 293.623 88.5604C292.177 88.7294 290.695 89.1072 290.695 90.8423C290.695 92.3438 291.824 93.169 293.275 93.169ZM293.598 91.9759C292.758 91.9759 292.152 91.598 292.152 90.8622C292.152 90.0668 292.858 89.7834 293.718 89.669C294.2 89.6044 295.343 89.4751 295.557 89.2614V90.2457C295.557 91.1506 294.836 91.9759 293.598 91.9759ZM302.156 93.1541C303.961 93.1541 305.129 92.0703 305.293 90.5838H303.847C303.658 91.4091 303.016 91.8963 302.166 91.8963C300.908 91.8963 300.098 90.8473 300.098 89.1818C300.098 87.5462 300.923 86.517 302.166 86.517C303.111 86.517 303.688 87.1136 303.847 87.8295H305.293C305.134 86.2884 303.876 85.2642 302.141 85.2642C299.989 85.2642 298.597 86.8849 298.597 89.2166C298.597 91.5185 299.939 93.1541 302.156 93.1541ZM308.286 88.4659C308.286 87.2479 309.056 86.5518 310.115 86.5518C311.139 86.5518 311.751 87.2031 311.751 88.3217V93H313.237V88.1428C313.237 86.2386 312.193 85.2642 310.622 85.2642C309.434 85.2642 308.718 85.7812 308.36 86.6065H308.266V82.8182H306.799V93H308.286V88.4659ZM317.071 91.608H315.639L315.589 92.1648C315.475 93.5121 315.157 94.8693 315.023 95.4858H316.077C316.315 94.8345 316.842 93.343 316.996 92.1499L317.071 91.608ZM325.76 93.1541C327.912 93.1541 329.319 91.5781 329.319 89.2166C329.319 86.8402 327.912 85.2642 325.76 85.2642C323.607 85.2642 322.2 86.8402 322.2 89.2166C322.2 91.5781 323.607 93.1541 325.76 93.1541ZM325.765 91.9062C324.358 91.9062 323.701 90.6783 323.701 89.2116C323.701 87.75 324.358 86.5071 325.765 86.5071C327.162 86.5071 327.818 87.75 327.818 89.2116C327.818 90.6783 327.162 91.9062 325.765 91.9062ZM330.895 93H332.381V88.3366C332.381 87.3374 333.152 86.6165 334.206 86.6165C334.514 86.6165 334.862 86.6712 334.981 86.706V85.2841C334.832 85.2642 334.539 85.2493 334.35 85.2493C333.455 85.2493 332.689 85.7564 332.411 86.5767H332.331V85.3636H330.895V93Z" fill="#646C7A"></path><path d="M339.924 93H341.376V91.8118H341.5C341.769 92.299 342.315 93.1491 343.708 93.1491C345.557 93.1491 346.899 91.6676 346.899 89.1967C346.899 86.7209 345.537 85.2642 343.693 85.2642C342.276 85.2642 341.764 86.1293 341.5 86.6016H341.411V82.8182H339.924V93ZM341.381 89.1818C341.381 87.5859 342.077 86.527 343.374 86.527C344.722 86.527 345.398 87.6655 345.398 89.1818C345.398 90.7131 344.702 91.8814 343.374 91.8814C342.097 91.8814 341.381 90.7876 341.381 89.1818ZM348.484 93H349.971V88.3366C349.971 87.3374 350.742 86.6165 351.796 86.6165C352.104 86.6165 352.452 86.6712 352.571 86.706V85.2841C352.422 85.2642 352.129 85.2493 351.94 85.2493C351.045 85.2493 350.279 85.7564 350.001 86.5767H349.921V85.3636H348.484V93ZM356.717 93.1541C358.869 93.1541 360.276 91.5781 360.276 89.2166C360.276 86.8402 358.869 85.2642 356.717 85.2642C354.564 85.2642 353.157 86.8402 353.157 89.2166C353.157 91.5781 354.564 93.1541 356.717 93.1541ZM356.722 91.9062C355.315 91.9062 354.658 90.6783 354.658 89.2116C354.658 87.75 355.315 86.5071 356.722 86.5071C358.119 86.5071 358.775 87.75 358.775 89.2116C358.775 90.6783 358.119 91.9062 356.722 91.9062ZM363.275 93H364.786L366.337 87.4865H366.452L368.003 93H369.519L371.761 85.3636H370.225L368.739 90.9467H368.664L367.172 85.3636H365.636L364.135 90.9716H364.06L362.564 85.3636H361.028L363.275 93ZM378.81 87.228C378.502 86.0398 377.572 85.2642 375.922 85.2642C374.197 85.2642 372.974 86.174 372.974 87.5263C372.974 88.6101 373.63 89.331 375.062 89.6491L376.354 89.9325C377.09 90.0966 377.433 90.4247 377.433 90.902C377.433 91.4936 376.802 91.956 375.827 91.956C374.937 91.956 374.366 91.5732 374.187 90.8224L372.75 91.0412C372.998 92.3935 374.122 93.1541 375.837 93.1541C377.682 93.1541 378.959 92.1747 378.959 90.7926C378.959 89.7138 378.273 89.0476 376.871 88.7244L375.658 88.446C374.818 88.2472 374.455 87.9638 374.46 87.4467C374.455 86.8601 375.091 86.4425 375.937 86.4425C376.861 86.4425 377.289 86.9545 377.463 87.4666L378.81 87.228ZM383.801 93.1541C385.466 93.1541 386.645 92.3338 386.983 91.0909L385.576 90.8374C385.307 91.5582 384.661 91.9261 383.816 91.9261C382.543 91.9261 381.688 91.1009 381.648 89.6293H387.077V89.1023C387.077 86.343 385.427 85.2642 383.697 85.2642C381.569 85.2642 380.167 86.8849 380.167 89.2315C380.167 91.603 381.549 93.1541 383.801 93.1541ZM381.653 88.5156C381.713 87.4318 382.498 86.4922 383.707 86.4922C384.86 86.4922 385.616 87.3473 385.621 88.5156H381.653Z" fill="#3574F6"></path><path d="M59.8997 143H41C39.8954 143 39 144.033 39 145.308V170.692C39 171.967 39.8954 173 41 173H63C64.1046 173 65 171.967 65 170.692V147.828C65 146.96 64.6241 146.134 63.9694 145.565L61.8691 143.737C61.323 143.262 60.6235 143 59.8997 143Z" fill="#EB5261" stroke="#EB5261" stroke-linecap="round" stroke-linejoin="round"></path><path d="M48.9525 153.075C48.877 152.592 48.6936 152.127 48.4129 151.707C48.27 151.499 48.0702 151.325 47.8315 151.201C47.5929 151.078 47.323 151.008 47.0464 151C46.694 151.033 46.3645 151.169 46.11 151.387C45.8555 151.604 45.6907 151.889 45.6417 152.198C45.5627 152.823 45.7464 153.452 46.158 153.966C47.455 155.28 48.8489 156.518 50.3307 157.672C51.9901 158.855 53.8675 159.78 55.8817 160.405C56.4335 160.632 57.0368 160.745 57.6458 160.736C57.9496 160.725 58.242 160.631 58.4824 160.467C58.7228 160.303 58.8991 160.077 58.9869 159.821C59.02 159.61 58.9901 159.396 58.9002 159.198C58.8102 159.001 58.6632 158.828 58.4737 158.696C58.0907 158.435 57.6399 158.263 57.1623 158.195C55.2615 157.951 53.3214 158.132 51.5213 158.723C49.8017 159.189 44.7766 160.651 45.0077 164.37C45.0141 164.463 45.0003 165.081 45.9057 164.991C46.2781 164.927 46.6314 164.796 46.9431 164.605C47.2549 164.415 47.5182 164.169 47.7164 163.884C48.8751 162.444 48.996 160.609 49.1476 158.909C49.3712 156.965 49.3057 155.004 48.9525 153.075V153.075Z" stroke="white" stroke-width="1.5" stroke-linecap="round" stroke-linejoin="round"></path><path d="M87.1758 149.228C86.8676 148.04 85.9379 147.264 84.2873 147.264C82.5622 147.264 81.3392 148.174 81.3392 149.526C81.3392 150.61 81.9954 151.331 83.4272 151.649L84.7199 151.933C85.4557 152.097 85.7987 152.425 85.7987 152.902C85.7987 153.494 85.1673 153.956 84.1929 153.956C83.303 153.956 82.7312 153.573 82.5522 152.822L81.1155 153.041C81.364 154.393 82.4876 155.154 84.2028 155.154C86.0473 155.154 87.325 154.175 87.325 152.793C87.325 151.714 86.6389 151.048 85.2369 150.724L84.0238 150.446C83.1836 150.247 82.8207 149.964 82.8257 149.447C82.8207 148.86 83.4571 148.442 84.3022 148.442C85.227 148.442 85.6545 148.955 85.8285 149.467L87.1758 149.228ZM91.0977 155.169C92.3605 155.169 93.0714 154.528 93.3548 153.956H93.4144V155H94.8661V149.929C94.8661 147.707 93.1161 147.264 91.9031 147.264C90.521 147.264 89.2482 147.821 88.7511 149.213L90.1481 149.531C90.3669 148.989 90.9237 148.467 91.923 148.467C92.8825 148.467 93.3747 148.969 93.3747 149.835V149.869C93.3747 150.411 92.8179 150.401 91.4457 150.56C89.999 150.729 88.5174 151.107 88.5174 152.842C88.5174 154.344 89.646 155.169 91.0977 155.169ZM91.4208 153.976C90.5806 153.976 89.9741 153.598 89.9741 152.862C89.9741 152.067 90.6801 151.783 91.5402 151.669C92.0224 151.604 93.1659 151.475 93.3796 151.261V152.246C93.3796 153.151 92.6588 153.976 91.4208 153.976ZM98.2486 144.818H96.7621V155H98.2486V144.818ZM103.456 155.154C105.121 155.154 106.299 154.334 106.637 153.091L105.23 152.837C104.962 153.558 104.316 153.926 103.471 153.926C102.198 153.926 101.343 153.101 101.303 151.629H106.732V151.102C106.732 148.343 105.081 147.264 103.351 147.264C101.223 147.264 99.8214 148.885 99.8214 151.232C99.8214 153.603 101.203 155.154 103.456 155.154ZM101.308 150.516C101.368 149.432 102.153 148.492 103.361 148.492C104.515 148.492 105.27 149.347 105.275 150.516H101.308ZM114.02 149.228C113.711 148.04 112.782 147.264 111.131 147.264C109.406 147.264 108.183 148.174 108.183 149.526C108.183 150.61 108.839 151.331 110.271 151.649L111.564 151.933C112.299 152.097 112.642 152.425 112.642 152.902C112.642 153.494 112.011 153.956 111.037 153.956C110.147 153.956 109.575 153.573 109.396 152.822L107.959 153.041C108.208 154.393 109.331 155.154 111.046 155.154C112.891 155.154 114.169 154.175 114.169 152.793C114.169 151.714 113.483 151.048 112.081 150.724L110.868 150.446C110.027 150.247 109.664 149.964 109.669 149.447C109.664 148.86 110.301 148.442 111.146 148.442C112.071 148.442 112.498 148.955 112.672 149.467L114.02 149.228ZM119.353 147.364H117.708V146.678C117.708 146.001 117.986 145.634 118.712 145.634C119.02 145.634 119.239 145.703 119.378 145.748L119.726 144.545C119.517 144.465 119.085 144.341 118.483 144.341C117.275 144.341 116.216 145.047 116.216 146.479V147.364H115.038V148.557H116.216V155H117.708V148.557H119.353V147.364ZM123.719 155.154C125.872 155.154 127.279 153.578 127.279 151.217C127.279 148.84 125.872 147.264 123.719 147.264C121.566 147.264 120.159 148.84 120.159 151.217C120.159 153.578 121.566 155.154 123.719 155.154ZM123.724 153.906C122.317 153.906 121.661 152.678 121.661 151.212C121.661 149.75 122.317 148.507 123.724 148.507C125.121 148.507 125.777 149.75 125.777 151.212C125.777 152.678 125.121 153.906 123.724 153.906ZM128.854 155H130.34V150.337C130.34 149.337 131.111 148.616 132.165 148.616C132.473 148.616 132.821 148.671 132.94 148.706V147.284C132.791 147.264 132.498 147.249 132.309 147.249C131.414 147.249 130.649 147.756 130.37 148.577H130.291V147.364H128.854V155ZM137.086 155.154C138.891 155.154 140.059 154.07 140.223 152.584H138.776C138.587 153.409 137.946 153.896 137.096 153.896C135.838 153.896 135.028 152.847 135.028 151.182C135.028 149.546 135.853 148.517 137.096 148.517C138.041 148.517 138.617 149.114 138.776 149.83H140.223C140.064 148.288 138.806 147.264 137.071 147.264C134.918 147.264 133.526 148.885 133.526 151.217C133.526 153.518 134.869 155.154 137.086 155.154ZM145.02 155.154C146.685 155.154 147.864 154.334 148.202 153.091L146.795 152.837C146.526 153.558 145.88 153.926 145.035 153.926C143.762 153.926 142.907 153.101 142.867 151.629H148.296V151.102C148.296 148.343 146.646 147.264 144.916 147.264C142.788 147.264 141.386 148.885 141.386 151.232C141.386 153.603 142.768 155.154 145.02 155.154ZM142.872 150.516C142.932 149.432 143.717 148.492 144.926 148.492C146.079 148.492 146.835 149.347 146.84 150.516H142.872ZM155.315 155H148.847V156.263H155.315V155ZM156.336 144.818V155H157.798V147.627H157.892L160.895 154.985H162.108L165.111 147.632H165.206V155H166.667V144.818H164.803L161.561 152.733H161.442L158.201 144.818H156.336ZM174.37 147.493H175.852C175.807 145.862 174.365 144.679 172.297 144.679C170.254 144.679 168.688 145.847 168.688 147.602C168.688 149.019 169.702 149.849 171.337 150.292L172.541 150.62C173.629 150.908 174.469 151.266 174.469 152.171C174.469 153.165 173.52 153.822 172.212 153.822C171.029 153.822 170.045 153.295 169.955 152.186H168.414C168.514 154.031 169.94 155.169 172.222 155.169C174.614 155.169 175.991 153.911 175.991 152.186C175.991 150.352 174.355 149.641 173.063 149.322L172.068 149.064C171.273 148.86 170.214 148.487 170.219 147.513C170.219 146.648 171.009 146.006 172.262 146.006C173.43 146.006 174.261 146.553 174.37 147.493ZM178.521 155L179.455 152.305H183.433L184.362 155H185.993L182.329 144.818H180.554L176.89 155H178.521ZM179.903 151.013L181.404 146.668H181.484L182.985 151.013H179.903ZM188.239 155.094C188.781 155.094 189.234 154.652 189.234 154.1C189.234 153.558 188.781 153.111 188.239 153.111C187.692 153.111 187.245 153.558 187.245 154.1C187.245 154.652 187.692 155.094 188.239 155.094ZM191.141 157.864H192.627V153.812H192.717C192.985 154.299 193.532 155.149 194.924 155.149C196.774 155.149 198.116 153.668 198.116 151.197C198.116 148.721 196.754 147.264 194.909 147.264C193.492 147.264 192.98 148.129 192.717 148.602H192.592V147.364H191.141V157.864ZM192.597 151.182C192.597 149.586 193.293 148.527 194.591 148.527C195.938 148.527 196.615 149.665 196.615 151.182C196.615 152.713 195.918 153.881 194.591 153.881C193.313 153.881 192.597 152.788 192.597 151.182ZM202.556 155.149C203.948 155.149 204.495 154.299 204.763 153.812H204.888V155H206.339V144.818H204.853V148.602H204.763C204.495 148.129 203.988 147.264 202.566 147.264C200.722 147.264 199.364 148.721 199.364 151.197C199.364 153.668 200.702 155.149 202.556 155.149ZM202.884 153.881C201.557 153.881 200.866 152.713 200.866 151.182C200.866 149.665 201.542 148.527 202.884 148.527C204.182 148.527 204.878 149.586 204.878 151.182C204.878 152.788 204.167 153.881 202.884 153.881ZM212.011 147.364H210.366V146.678C210.366 146.001 210.644 145.634 211.37 145.634C211.678 145.634 211.897 145.703 212.036 145.748L212.384 144.545C212.175 144.465 211.743 144.341 211.141 144.341C209.933 144.341 208.874 145.047 208.874 146.479V147.364H207.696V148.557H208.874V155H210.366V148.557H212.011V147.364Z" fill="#292B2F"></path><path d="M80.9688 174H81.9375V171.078H83.6875C85.5508 171.078 86.3906 169.945 86.3906 168.531C86.3906 167.117 85.5508 166 83.6719 166H80.9688V174ZM81.9375 170.219V166.859H83.6406C84.9414 166.859 85.4375 167.57 85.4375 168.531C85.4375 169.492 84.9414 170.219 83.6563 170.219H81.9375ZM90.4749 174C92.9124 174 94.2874 172.484 94.2874 169.984C94.2874 167.5 92.9124 166 90.5843 166H88.0062V174H90.4749ZM88.9749 173.141V166.859H90.5218C92.3968 166.859 93.3499 168.047 93.3499 169.984C93.3499 171.938 92.3968 173.141 90.4124 173.141H88.9749ZM95.9674 174H96.9362V170.422H100.405V169.562H96.9362V166.859H100.764V166H95.9674V174ZM107.768 174.125C108.924 174.125 109.315 173.406 109.518 173.078H109.627V174H110.518V166H109.596V168.953H109.518C109.315 168.641 108.955 167.922 107.783 167.922C106.268 167.922 105.221 169.125 105.221 171.016C105.221 172.922 106.268 174.125 107.768 174.125ZM107.893 173.297C106.737 173.297 106.143 172.281 106.143 171C106.143 169.734 106.721 168.75 107.893 168.75C109.018 168.75 109.612 169.656 109.612 171C109.612 172.359 109.002 173.297 107.893 173.297ZM114.827 174.125C116.452 174.125 117.546 172.891 117.546 171.031C117.546 169.156 116.452 167.922 114.827 167.922C113.202 167.922 112.108 169.156 112.108 171.031C112.108 172.891 113.202 174.125 114.827 174.125ZM114.827 173.297C113.592 173.297 113.03 172.234 113.03 171.031C113.03 169.828 113.592 168.75 114.827 168.75C116.061 168.75 116.624 169.828 116.624 171.031C116.624 172.234 116.061 173.297 114.827 173.297ZM121.445 174.125C122.773 174.125 123.648 173.312 123.805 172.25H122.883C122.711 172.906 122.164 173.297 121.445 173.297C120.351 173.297 119.648 172.391 119.648 171C119.648 169.641 120.367 168.75 121.445 168.75C122.258 168.75 122.742 169.25 122.883 169.797H123.805C123.648 168.672 122.695 167.922 121.43 167.922C119.805 167.922 118.726 169.203 118.726 171.031C118.726 172.828 119.758 174.125 121.445 174.125ZM128.989 171.547C128.989 172.672 128.129 173.187 127.442 173.187C126.676 173.187 126.129 172.625 126.129 171.75V168H125.207V171.812C125.207 173.344 126.02 174.078 127.145 174.078C128.051 174.078 128.645 173.594 128.926 172.984H128.989V174H129.91V168H128.989V171.547ZM131.654 174H132.576V170.25C132.576 169.371 133.216 168.75 133.935 168.75C134.634 168.75 135.123 169.207 135.123 169.891V174H136.06V170.094C136.06 169.32 136.544 168.75 137.388 168.75C138.044 168.75 138.607 169.098 138.607 169.984V174H139.529V169.984C139.529 168.574 138.771 167.922 137.701 167.922C136.841 167.922 136.212 168.316 135.904 168.937H135.841C135.544 168.297 135.021 167.922 134.232 167.922C133.451 167.922 132.873 168.297 132.623 168.937H132.544V168H131.654V174ZM143.785 174.125C145.004 174.125 145.894 173.516 146.176 172.609L145.285 172.359C145.051 172.984 144.508 173.297 143.785 173.297C142.703 173.297 141.957 172.598 141.914 171.312H146.269V170.922C146.269 168.687 144.941 167.922 143.691 167.922C142.066 167.922 140.988 169.203 140.988 171.047C140.988 172.891 142.051 174.125 143.785 174.125ZM141.914 170.516C141.976 169.582 142.637 168.75 143.691 168.75C144.691 168.75 145.332 169.5 145.332 170.516H141.914ZM148.649 170.391C148.649 169.344 149.297 168.75 150.18 168.75C151.035 168.75 151.555 169.309 151.555 170.25V174H152.477V170.188C152.477 168.656 151.66 167.922 150.446 167.922C149.539 167.922 148.977 168.328 148.696 168.937H148.617V168H147.727V174H148.649V170.391ZM156.826 168H155.544V166.562H154.623V168H153.716V168.781H154.623V172.531C154.623 173.578 155.466 174.078 156.248 174.078C156.591 174.078 156.81 174.016 156.935 173.969L156.748 173.141C156.669 173.156 156.544 173.187 156.341 173.187C155.935 173.187 155.544 173.062 155.544 172.281V168.781H156.826V168ZM162.924 168.654C162.275 168.654 161.758 169.171 161.758 169.82C161.758 170.469 162.275 170.986 162.924 170.986C163.573 170.986 164.09 170.469 164.09 169.82C164.09 169.171 163.573 168.654 162.924 168.654ZM171.916 174C174.354 174 175.729 172.484 175.729 169.984C175.729 167.5 174.354 166 172.026 166H169.447V174H171.916ZM170.416 173.141V166.859H171.963C173.838 166.859 174.791 168.047 174.791 169.984C174.791 171.938 173.838 173.141 171.854 173.141H170.416ZM179.721 174.125C181.346 174.125 182.44 172.891 182.44 171.031C182.44 169.156 181.346 167.922 179.721 167.922C178.096 167.922 177.002 169.156 177.002 171.031C177.002 172.891 178.096 174.125 179.721 174.125ZM179.721 173.297C178.487 173.297 177.924 172.234 177.924 171.031C177.924 169.828 178.487 168.75 179.721 168.75C180.956 168.75 181.518 169.828 181.518 171.031C181.518 172.234 180.956 173.297 179.721 173.297ZM185.057 174H185.964L187.276 169.391H187.37L188.682 174H189.589L191.417 168H190.448L189.151 172.578H189.089L187.823 168H186.839L185.557 172.594H185.495L184.198 168H183.229L185.057 174ZM193.612 170.391C193.612 169.344 194.261 168.75 195.144 168.75C195.999 168.75 196.519 169.309 196.519 170.25V174H197.441V170.188C197.441 168.656 196.624 167.922 195.409 167.922C194.503 167.922 193.941 168.328 193.659 168.937H193.581V168H192.691V174H193.612V170.391ZM200.102 166H199.18V174H200.102V166ZM204.283 174.125C205.908 174.125 207.002 172.891 207.002 171.031C207.002 169.156 205.908 167.922 204.283 167.922C202.658 167.922 201.564 169.156 201.564 171.031C201.564 172.891 202.658 174.125 204.283 174.125ZM204.283 173.297C203.049 173.297 202.486 172.234 202.486 171.031C202.486 169.828 203.049 168.75 204.283 168.75C205.517 168.75 206.08 169.828 206.08 171.031C206.08 172.234 205.517 173.297 204.283 173.297ZM210.23 174.141C211.276 174.141 211.823 173.578 212.011 173.187H212.058V174H212.98V170.047C212.98 168.141 211.526 167.922 210.761 167.922C209.855 167.922 208.823 168.234 208.355 169.328L209.23 169.641C209.433 169.203 209.913 168.734 210.792 168.734C211.64 168.734 212.058 169.184 212.058 169.953V169.984C212.058 170.43 211.605 170.391 210.511 170.531C209.398 170.676 208.183 170.922 208.183 172.297C208.183 173.469 209.089 174.141 210.23 174.141ZM210.37 173.312C209.636 173.312 209.105 172.984 209.105 172.344C209.105 171.641 209.745 171.422 210.464 171.328C210.855 171.281 211.901 171.172 212.058 170.984V171.828C212.058 172.578 211.464 173.312 210.37 173.312ZM216.983 174.125C218.139 174.125 218.53 173.406 218.733 173.078H218.842V174H219.733V166H218.811V168.953H218.733C218.53 168.641 218.17 167.922 216.998 167.922C215.483 167.922 214.436 169.125 214.436 171.016C214.436 172.922 215.483 174.125 216.983 174.125ZM217.108 173.297C215.952 173.297 215.358 172.281 215.358 171C215.358 169.734 215.936 168.75 217.108 168.75C218.233 168.75 218.827 169.656 218.827 171C218.827 172.359 218.217 173.297 217.108 173.297Z" fill="#646C7A"></path><rect x="24.5" y="128.5" width="503" height="59" rx="5.5" stroke="#EBEDF0"></rect><path d="M59.8997 211H41C39.8954 211 39 212.033 39 213.308V238.692C39 239.967 39.8954 241 41 241H63C64.1046 241 65 239.967 65 238.692V215.828C65 214.96 64.6241 214.134 63.9694 213.565L61.8691 211.737C61.323 211.262 60.6235 211 59.8997 211Z" fill="#EB5261" stroke="#EB5261" stroke-linecap="round" stroke-linejoin="round"></path><path d="M48.9525 221.075C48.877 220.592 48.6936 220.127 48.4129 219.707C48.27 219.499 48.0702 219.325 47.8315 219.201C47.5929 219.078 47.323 219.008 47.0464 219C46.694 219.033 46.3645 219.169 46.11 219.387C45.8555 219.604 45.6907 219.889 45.6417 220.198C45.5627 220.823 45.7464 221.452 46.158 221.966C47.455 223.28 48.8489 224.518 50.3307 225.672C51.9901 226.855 53.8675 227.78 55.8817 228.405C56.4335 228.632 57.0368 228.745 57.6458 228.736C57.9496 228.725 58.242 228.631 58.4824 228.467C58.7228 228.303 58.8991 228.077 58.9869 227.821C59.02 227.61 58.9901 227.396 58.9002 227.198C58.8102 227.001 58.6632 226.828 58.4737 226.696C58.0907 226.435 57.6399 226.263 57.1623 226.195C55.2615 225.951 53.3214 226.132 51.5213 226.723C49.8017 227.189 44.7766 228.651 45.0077 232.37C45.0141 232.463 45.0003 233.081 45.9057 232.991C46.2781 232.927 46.6314 232.796 46.9431 232.605C47.2549 232.415 47.5182 232.169 47.7164 231.884C48.8751 230.444 48.996 228.609 49.1476 226.909C49.3712 224.965 49.3057 223.004 48.9525 221.075V221.075Z" stroke="white" stroke-width="1.5" stroke-linecap="round" stroke-linejoin="round"></path><path d="M81.0248 223H82.5113V215.364H81.0248V223ZM81.7755 214.185C82.2876 214.185 82.7151 213.788 82.7151 213.3C82.7151 212.813 82.2876 212.411 81.7755 212.411C81.2585 212.411 80.8359 212.813 80.8359 213.3C80.8359 213.788 81.2585 214.185 81.7755 214.185ZM85.9136 218.466C85.9136 217.248 86.6594 216.552 87.6935 216.552C88.7027 216.552 89.3142 217.213 89.3142 218.322V223H90.8007V218.143C90.8007 216.254 89.7617 215.264 88.2006 215.264C87.0521 215.264 86.3014 215.796 85.9484 216.607H85.854V215.364H84.4271V223H85.9136V218.466ZM98.9696 215.364H97.3737L95.4447 221.24H95.3652L93.4312 215.364H91.8353L94.6095 223H96.2004L98.9696 215.364ZM103.226 223.154C105.378 223.154 106.785 221.578 106.785 219.217C106.785 216.84 105.378 215.264 103.226 215.264C101.073 215.264 99.6661 216.84 99.6661 219.217C99.6661 221.578 101.073 223.154 103.226 223.154ZM103.231 221.906C101.824 221.906 101.168 220.678 101.168 219.212C101.168 217.75 101.824 216.507 103.231 216.507C104.628 216.507 105.284 217.75 105.284 219.212C105.284 220.678 104.628 221.906 103.231 221.906ZM108.361 223H109.847V215.364H108.361V223ZM109.111 214.185C109.623 214.185 110.051 213.788 110.051 213.3C110.051 212.813 109.623 212.411 109.111 212.411C108.594 212.411 108.172 212.813 108.172 213.3C108.172 213.788 108.594 214.185 109.111 214.185ZM114.98 223.154C116.784 223.154 117.953 222.07 118.117 220.584H116.67C116.481 221.409 115.84 221.896 114.99 221.896C113.732 221.896 112.921 220.847 112.921 219.182C112.921 217.546 113.747 216.517 114.99 216.517C115.934 216.517 116.511 217.114 116.67 217.83H118.117C117.958 216.288 116.7 215.264 114.965 215.264C112.812 215.264 111.42 216.885 111.42 219.217C111.42 221.518 112.762 223.154 114.98 223.154ZM122.914 223.154C124.579 223.154 125.757 222.334 126.095 221.091L124.688 220.837C124.42 221.558 123.774 221.926 122.928 221.926C121.656 221.926 120.801 221.101 120.761 219.629H126.19V219.102C126.19 216.343 124.539 215.264 122.809 215.264C120.681 215.264 119.279 216.885 119.279 219.232C119.279 221.603 120.661 223.154 122.914 223.154ZM120.766 218.516C120.825 217.432 121.611 216.492 122.819 216.492C123.973 216.492 124.728 217.347 124.733 218.516H120.766ZM132.254 218.053H127.74V219.341H132.254V218.053ZM136.374 223.169C137.637 223.169 138.348 222.528 138.631 221.956H138.691V223H140.142V217.929C140.142 215.707 138.392 215.264 137.179 215.264C135.797 215.264 134.525 215.821 134.027 217.213L135.424 217.531C135.643 216.989 136.2 216.467 137.199 216.467C138.159 216.467 138.651 216.969 138.651 217.835V217.869C138.651 218.411 138.094 218.401 136.722 218.56C135.275 218.729 133.794 219.107 133.794 220.842C133.794 222.344 134.922 223.169 136.374 223.169ZM136.697 221.976C135.857 221.976 135.25 221.598 135.25 220.862C135.25 220.067 135.956 219.783 136.816 219.669C137.299 219.604 138.442 219.475 138.656 219.261V220.246C138.656 221.151 137.935 221.976 136.697 221.976ZM142.038 225.864H143.525V221.812H143.614C143.883 222.299 144.43 223.149 145.822 223.149C147.671 223.149 149.013 221.668 149.013 219.197C149.013 216.721 147.651 215.264 145.807 215.264C144.39 215.264 143.878 216.129 143.614 216.602H143.49V215.364H142.038V225.864ZM143.495 219.182C143.495 217.586 144.191 216.527 145.489 216.527C146.836 216.527 147.512 217.665 147.512 219.182C147.512 220.713 146.816 221.881 145.489 221.881C144.211 221.881 143.495 220.788 143.495 219.182ZM150.595 223H152.081V218.337C152.081 217.337 152.852 216.616 153.906 216.616C154.214 216.616 154.562 216.671 154.682 216.706V215.284C154.532 215.264 154.239 215.249 154.05 215.249C153.155 215.249 152.39 215.756 152.111 216.577H152.032V215.364H150.595V223ZM155.884 223H157.371V215.364H155.884V223ZM156.635 214.185C157.147 214.185 157.574 213.788 157.574 213.3C157.574 212.813 157.147 212.411 156.635 212.411C156.118 212.411 155.695 212.813 155.695 213.3C155.695 213.788 156.118 214.185 156.635 214.185ZM160.773 212.818H159.286V223H160.773V212.818ZM163.668 223.094C164.21 223.094 164.662 222.652 164.662 222.1C164.662 221.558 164.21 221.111 163.668 221.111C163.121 221.111 162.674 221.558 162.674 222.1C162.674 222.652 163.121 223.094 163.668 223.094ZM166.57 225.864H168.056V221.812H168.146C168.414 222.299 168.961 223.149 170.353 223.149C172.202 223.149 173.545 221.668 173.545 219.197C173.545 216.721 172.182 215.264 170.338 215.264C168.921 215.264 168.409 216.129 168.146 216.602H168.021V215.364H166.57V225.864ZM168.026 219.182C168.026 217.586 168.722 216.527 170.02 216.527C171.367 216.527 172.043 217.665 172.043 219.182C172.043 220.713 171.347 221.881 170.02 221.881C168.742 221.881 168.026 220.788 168.026 219.182ZM177.985 223.149C179.377 223.149 179.924 222.299 180.192 221.812H180.316V223H181.768V212.818H180.282V216.602H180.192C179.924 216.129 179.417 215.264 177.995 215.264C176.15 215.264 174.793 216.721 174.793 219.197C174.793 221.668 176.13 223.149 177.985 223.149ZM178.313 221.881C176.986 221.881 176.294 220.713 176.294 219.182C176.294 217.665 176.971 216.527 178.313 216.527C179.611 216.527 180.307 217.586 180.307 219.182C180.307 220.788 179.596 221.881 178.313 221.881ZM187.44 215.364H185.794V214.678C185.794 214.001 186.073 213.634 186.799 213.634C187.107 213.634 187.326 213.703 187.465 213.748L187.813 212.545C187.604 212.465 187.172 212.341 186.57 212.341C185.362 212.341 184.303 213.047 184.303 214.479V215.364H183.125V216.557H184.303V223H185.794V216.557H187.44V215.364Z" fill="#292B2F"></path><path d="M80.9688 242H81.9375V239.078H83.6875C85.5508 239.078 86.3906 237.945 86.3906 236.531C86.3906 235.117 85.5508 234 83.6719 234H80.9688V242ZM81.9375 238.219V234.859H83.6406C84.9414 234.859 85.4375 235.57 85.4375 236.531C85.4375 237.492 84.9414 238.219 83.6563 238.219H81.9375ZM90.4749 242C92.9124 242 94.2874 240.484 94.2874 237.984C94.2874 235.5 92.9124 234 90.5843 234H88.0062V242H90.4749ZM88.9749 241.141V234.859H90.5218C92.3968 234.859 93.3499 236.047 93.3499 237.984C93.3499 239.938 92.3968 241.141 90.4124 241.141H88.9749ZM95.9674 242H96.9362V238.422H100.405V237.562H96.9362V234.859H100.764V234H95.9674V242ZM107.768 242.125C108.924 242.125 109.315 241.406 109.518 241.078H109.627V242H110.518V234H109.596V236.953H109.518C109.315 236.641 108.955 235.922 107.783 235.922C106.268 235.922 105.221 237.125 105.221 239.016C105.221 240.922 106.268 242.125 107.768 242.125ZM107.893 241.297C106.737 241.297 106.143 240.281 106.143 239C106.143 237.734 106.721 236.75 107.893 236.75C109.018 236.75 109.612 237.656 109.612 239C109.612 240.359 109.002 241.297 107.893 241.297ZM114.827 242.125C116.452 242.125 117.546 240.891 117.546 239.031C117.546 237.156 116.452 235.922 114.827 235.922C113.202 235.922 112.108 237.156 112.108 239.031C112.108 240.891 113.202 242.125 114.827 242.125ZM114.827 241.297C113.592 241.297 113.03 240.234 113.03 239.031C113.03 237.828 113.592 236.75 114.827 236.75C116.061 236.75 116.624 237.828 116.624 239.031C116.624 240.234 116.061 241.297 114.827 241.297ZM121.445 242.125C122.773 242.125 123.648 241.312 123.805 240.25H122.883C122.711 240.906 122.164 241.297 121.445 241.297C120.351 241.297 119.648 240.391 119.648 239C119.648 237.641 120.367 236.75 121.445 236.75C122.258 236.75 122.742 237.25 122.883 237.797H123.805C123.648 236.672 122.695 235.922 121.43 235.922C119.805 235.922 118.726 237.203 118.726 239.031C118.726 240.828 119.758 242.125 121.445 242.125ZM128.989 239.547C128.989 240.672 128.129 241.187 127.442 241.187C126.676 241.187 126.129 240.625 126.129 239.75V236H125.207V239.812C125.207 241.344 126.02 242.078 127.145 242.078C128.051 242.078 128.645 241.594 128.926 240.984H128.989V242H129.91V236H128.989V239.547ZM131.654 242H132.576V238.25C132.576 237.371 133.216 236.75 133.935 236.75C134.634 236.75 135.123 237.207 135.123 237.891V242H136.06V238.094C136.06 237.32 136.544 236.75 137.388 236.75C138.044 236.75 138.607 237.098 138.607 237.984V242H139.529V237.984C139.529 236.574 138.771 235.922 137.701 235.922C136.841 235.922 136.212 236.316 135.904 236.937H135.841C135.544 236.297 135.021 235.922 134.232 235.922C133.451 235.922 132.873 236.297 132.623 236.937H132.544V236H131.654V242ZM143.785 242.125C145.004 242.125 145.894 241.516 146.176 240.609L145.285 240.359C145.051 240.984 144.508 241.297 143.785 241.297C142.703 241.297 141.957 240.598 141.914 239.312H146.269V238.922C146.269 236.687 144.941 235.922 143.691 235.922C142.066 235.922 140.988 237.203 140.988 239.047C140.988 240.891 142.051 242.125 143.785 242.125ZM141.914 238.516C141.976 237.582 142.637 236.75 143.691 236.75C144.691 236.75 145.332 237.5 145.332 238.516H141.914ZM148.649 238.391C148.649 237.344 149.297 236.75 150.18 236.75C151.035 236.75 151.555 237.309 151.555 238.25V242H152.477V238.188C152.477 236.656 151.66 235.922 150.446 235.922C149.539 235.922 148.977 236.328 148.696 236.937H148.617V236H147.727V242H148.649V238.391ZM156.826 236H155.544V234.562H154.623V236H153.716V236.781H154.623V240.531C154.623 241.578 155.466 242.078 156.248 242.078C156.591 242.078 156.81 242.016 156.935 241.969L156.748 241.141C156.669 241.156 156.544 241.187 156.341 241.187C155.935 241.187 155.544 241.062 155.544 240.281V236.781H156.826V236ZM162.924 236.654C162.275 236.654 161.758 237.171 161.758 237.82C161.758 238.469 162.275 238.986 162.924 238.986C163.573 238.986 164.09 238.469 164.09 237.82C164.09 237.171 163.573 236.654 162.924 236.654ZM171.916 242C174.354 242 175.729 240.484 175.729 237.984C175.729 235.5 174.354 234 172.026 234H169.447V242H171.916ZM170.416 241.141V234.859H171.963C173.838 234.859 174.791 236.047 174.791 237.984C174.791 239.938 173.838 241.141 171.854 241.141H170.416ZM179.721 242.125C181.346 242.125 182.44 240.891 182.44 239.031C182.44 237.156 181.346 235.922 179.721 235.922C178.096 235.922 177.002 237.156 177.002 239.031C177.002 240.891 178.096 242.125 179.721 242.125ZM179.721 241.297C178.487 241.297 177.924 240.234 177.924 239.031C177.924 237.828 178.487 236.75 179.721 236.75C180.956 236.75 181.518 237.828 181.518 239.031C181.518 240.234 180.956 241.297 179.721 241.297ZM185.057 242H185.964L187.276 237.391H187.37L188.682 242H189.589L191.417 236H190.448L189.151 240.578H189.089L187.823 236H186.839L185.557 240.594H185.495L184.198 236H183.229L185.057 242ZM193.612 238.391C193.612 237.344 194.261 236.75 195.144 236.75C195.999 236.75 196.519 237.309 196.519 238.25V242H197.441V238.188C197.441 236.656 196.624 235.922 195.409 235.922C194.503 235.922 193.941 236.328 193.659 236.937H193.581V236H192.691V242H193.612V238.391ZM200.102 234H199.18V242H200.102V234ZM204.283 242.125C205.908 242.125 207.002 240.891 207.002 239.031C207.002 237.156 205.908 235.922 204.283 235.922C202.658 235.922 201.564 237.156 201.564 239.031C201.564 240.891 202.658 242.125 204.283 242.125ZM204.283 241.297C203.049 241.297 202.486 240.234 202.486 239.031C202.486 237.828 203.049 236.75 204.283 236.75C205.517 236.75 206.08 237.828 206.08 239.031C206.08 240.234 205.517 241.297 204.283 241.297ZM210.23 242.141C211.276 242.141 211.823 241.578 212.011 241.187H212.058V242H212.98V238.047C212.98 236.141 211.526 235.922 210.761 235.922C209.855 235.922 208.823 236.234 208.355 237.328L209.23 237.641C209.433 237.203 209.913 236.734 210.792 236.734C211.64 236.734 212.058 237.184 212.058 237.953V237.984C212.058 238.43 211.605 238.391 210.511 238.531C209.398 238.676 208.183 238.922 208.183 240.297C208.183 241.469 209.089 242.141 210.23 242.141ZM210.37 241.312C209.636 241.312 209.105 240.984 209.105 240.344C209.105 239.641 209.745 239.422 210.464 239.328C210.855 239.281 211.901 239.172 212.058 238.984V239.828C212.058 240.578 211.464 241.312 210.37 241.312ZM216.983 242.125C218.139 242.125 218.53 241.406 218.733 241.078H218.842V242H219.733V234H218.811V236.953H218.733C218.53 236.641 218.17 235.922 216.998 235.922C215.483 235.922 214.436 237.125 214.436 239.016C214.436 240.922 215.483 242.125 216.983 242.125ZM217.108 241.297C215.952 241.297 215.358 240.281 215.358 239C215.358 237.734 215.936 236.75 217.108 236.75C218.233 236.75 218.827 237.656 218.827 239C218.827 240.359 218.217 241.297 217.108 241.297Z" fill="#646C7A"></path><rect x="24.5" y="196.5" width="503" height="59" rx="5.5" stroke="#EBEDF0"></rect><path d="M59.8997 279H41C39.8954 279 39 280.033 39 281.308V306.692C39 307.967 39.8954 309 41 309H63C64.1046 309 65 307.967 65 306.692V283.828C65 282.96 64.6241 282.134 63.9694 281.565L61.8691 279.737C61.323 279.262 60.6235 279 59.8997 279Z" fill="#4285EB"></path><path d="M44 286H56" stroke="white" stroke-width="1.5" stroke-linecap="round" stroke-linejoin="round"></path><path d="M44 291H59" stroke="white" stroke-width="1.5" stroke-linecap="round" stroke-linejoin="round"></path><path d="M44 301H59" stroke="white" stroke-width="1.5" stroke-linecap="round" stroke-linejoin="round"></path><path d="M44 296H54" stroke="white" stroke-width="1.5" stroke-linecap="round" stroke-linejoin="round"></path><path d="M86.713 283.493H88.1945C88.1498 281.862 86.708 280.679 84.6398 280.679C82.5965 280.679 81.0305 281.847 81.0305 283.602C81.0305 285.019 82.0447 285.849 83.6803 286.292L84.8835 286.62C85.9722 286.908 86.8124 287.266 86.8124 288.171C86.8124 289.165 85.8629 289.822 84.5553 289.822C83.3721 289.822 82.3877 289.295 82.2982 288.186H80.757C80.8565 290.031 82.2833 291.169 84.5653 291.169C86.9566 291.169 88.3337 289.911 88.3337 288.186C88.3337 286.352 86.6981 285.641 85.4055 285.322L84.4112 285.064C83.6157 284.86 82.5568 284.487 82.5617 283.513C82.5617 282.648 83.3522 282.006 84.605 282.006C85.7734 282.006 86.6036 282.553 86.713 283.493ZM93.3817 291C96.4839 291 98.2787 289.076 98.2787 285.894C98.2787 282.727 96.4839 280.818 93.4861 280.818H90.0855V291H93.3817ZM91.6217 289.658V282.161H93.3916C95.6189 282.161 96.7673 283.493 96.7673 285.894C96.7673 288.305 95.6189 289.658 93.2971 289.658H91.6217ZM100.105 291H106.548V289.678H101.641V286.56H106.155V285.243H101.641V282.141H106.489V280.818H100.105V291ZM112.078 291H115.98C118.347 291 119.416 289.822 119.416 288.261C119.416 286.685 118.312 285.795 117.303 285.74V285.641C118.237 285.402 119.018 284.766 119.018 283.493C119.018 281.987 117.974 280.818 115.806 280.818H112.078V291ZM113.614 289.683V286.421H115.886C117.119 286.421 117.889 287.217 117.889 288.186C117.889 289.041 117.308 289.683 115.831 289.683H113.614ZM113.614 285.223V282.126H115.712C116.93 282.126 117.512 282.767 117.512 283.612C117.512 284.597 116.706 285.223 115.672 285.223H113.614ZM124.326 291.154C125.991 291.154 127.169 290.334 127.507 289.091L126.101 288.837C125.832 289.558 125.186 289.926 124.341 289.926C123.068 289.926 122.213 289.101 122.173 287.629H127.602V287.102C127.602 284.343 125.951 283.264 124.221 283.264C122.093 283.264 120.691 284.885 120.691 287.232C120.691 289.603 122.074 291.154 124.326 291.154ZM122.178 286.516C122.238 285.432 123.023 284.492 124.231 284.492C125.385 284.492 126.14 285.347 126.145 286.516H122.178ZM129.167 291H130.654V286.337C130.654 285.337 131.424 284.616 132.478 284.616C132.787 284.616 133.135 284.671 133.254 284.706V283.284C133.105 283.264 132.811 283.249 132.623 283.249C131.728 283.249 130.962 283.756 130.684 284.577H130.604V283.364H129.167V291ZM135.943 280.818H134.456V291H135.943V280.818ZM137.859 291H139.345V283.364H137.859V291ZM138.609 282.185C139.121 282.185 139.549 281.788 139.549 281.3C139.549 280.813 139.121 280.411 138.609 280.411C138.092 280.411 137.67 280.813 137.67 281.3C137.67 281.788 138.092 282.185 138.609 282.185ZM142.747 286.466C142.747 285.248 143.493 284.552 144.527 284.552C145.537 284.552 146.148 285.213 146.148 286.322V291H147.635V286.143C147.635 284.254 146.595 283.264 145.034 283.264C143.886 283.264 143.135 283.796 142.782 284.607H142.688V283.364H141.261V291H142.747V286.466ZM150.524 291.094C151.065 291.094 151.518 290.652 151.518 290.1C151.518 289.558 151.065 289.111 150.524 289.111C149.977 289.111 149.529 289.558 149.529 290.1C149.529 290.652 149.977 291.094 150.524 291.094ZM156.284 291.149C157.676 291.149 158.223 290.299 158.491 289.812H158.615V291H160.067V280.818H158.581V284.602H158.491C158.223 284.129 157.715 283.264 156.294 283.264C154.449 283.264 153.092 284.721 153.092 287.197C153.092 289.668 154.429 291.149 156.284 291.149ZM156.612 289.881C155.284 289.881 154.593 288.713 154.593 287.182C154.593 285.665 155.269 284.527 156.612 284.527C157.909 284.527 158.605 285.586 158.605 287.182C158.605 288.788 157.894 289.881 156.612 289.881ZM165.321 291.154C167.474 291.154 168.881 289.578 168.881 287.217C168.881 284.84 167.474 283.264 165.321 283.264C163.169 283.264 161.762 284.84 161.762 287.217C161.762 289.578 163.169 291.154 165.321 291.154ZM165.326 289.906C163.919 289.906 163.263 288.678 163.263 287.212C163.263 285.75 163.919 284.507 165.326 284.507C166.723 284.507 167.38 285.75 167.38 287.212C167.38 288.678 166.723 289.906 165.326 289.906ZM173.673 291.154C175.478 291.154 176.646 290.07 176.81 288.584H175.363C175.174 289.409 174.533 289.896 173.683 289.896C172.425 289.896 171.615 288.847 171.615 287.182C171.615 285.546 172.44 284.517 173.683 284.517C174.627 284.517 175.204 285.114 175.363 285.83H176.81C176.651 284.288 175.393 283.264 173.658 283.264C171.505 283.264 170.113 284.885 170.113 287.217C170.113 289.518 171.456 291.154 173.673 291.154ZM179.421 283.364H177.79L180.136 287.182L177.76 291H179.391L181.106 288.146L182.826 291H184.452L182.05 287.182L184.432 283.364H182.806L181.106 286.337L179.421 283.364Z" fill="#292B2F"></path><path d="M82.4219 310H83.4219L85.1875 303.625H85.25L87.0156 310H88.0156L90.2031 302H89.2188L87.5469 308.516H87.4688L85.7656 302H84.6719L82.9688 308.516H82.8906L81.2188 302H80.2344L82.4219 310ZM93.2191 310.125C94.8441 310.125 95.9378 308.891 95.9378 307.031C95.9378 305.156 94.8441 303.922 93.2191 303.922C91.5941 303.922 90.5003 305.156 90.5003 307.031C90.5003 308.891 91.5941 310.125 93.2191 310.125ZM93.2191 309.297C91.9847 309.297 91.4222 308.234 91.4222 307.031C91.4222 305.828 91.9847 304.75 93.2191 304.75C94.4534 304.75 95.0159 305.828 95.0159 307.031C95.0159 308.234 94.4534 309.297 93.2191 309.297ZM97.4 310H98.3219V306.203C98.3219 305.391 98.9625 304.797 99.8375 304.797C100.084 304.797 100.338 304.844 100.4 304.859V303.922C100.295 303.914 100.052 303.906 99.9157 303.906C99.1969 303.906 98.5719 304.312 98.3532 304.906H98.2907V304H97.4V310ZM103.631 310.125C104.787 310.125 105.178 309.406 105.381 309.078H105.49V310H106.381V302H105.459V304.953H105.381C105.178 304.641 104.818 303.922 103.646 303.922C102.131 303.922 101.084 305.125 101.084 307.016C101.084 308.922 102.131 310.125 103.631 310.125ZM103.756 309.297C102.6 309.297 102.006 308.281 102.006 307C102.006 305.734 102.584 304.75 103.756 304.75C104.881 304.75 105.475 305.656 105.475 307C105.475 308.359 104.865 309.297 103.756 309.297ZM113.995 310C116.432 310 117.807 308.484 117.807 305.984C117.807 303.5 116.432 302 114.104 302H111.526V310H113.995ZM112.495 309.141V302.859H114.042C115.917 302.859 116.87 304.047 116.87 305.984C116.87 307.938 115.917 309.141 113.932 309.141H112.495ZM121.8 310.125C123.425 310.125 124.518 308.891 124.518 307.031C124.518 305.156 123.425 303.922 121.8 303.922C120.175 303.922 119.081 305.156 119.081 307.031C119.081 308.891 120.175 310.125 121.8 310.125ZM121.8 309.297C120.565 309.297 120.003 308.234 120.003 307.031C120.003 305.828 120.565 304.75 121.8 304.75C123.034 304.75 123.597 305.828 123.597 307.031C123.597 308.234 123.034 309.297 121.8 309.297ZM128.418 310.125C129.746 310.125 130.621 309.312 130.778 308.25H129.856C129.684 308.906 129.137 309.297 128.418 309.297C127.324 309.297 126.621 308.391 126.621 307C126.621 305.641 127.34 304.75 128.418 304.75C129.231 304.75 129.715 305.25 129.856 305.797H130.778C130.621 304.672 129.668 303.922 128.403 303.922C126.778 303.922 125.699 305.203 125.699 307.031C125.699 308.828 126.731 310.125 128.418 310.125ZM135.961 307.547C135.961 308.672 135.102 309.187 134.415 309.187C133.649 309.187 133.102 308.625 133.102 307.75V304H132.18V307.812C132.18 309.344 132.993 310.078 134.118 310.078C135.024 310.078 135.618 309.594 135.899 308.984H135.961V310H136.883V304H135.961V307.547ZM138.627 310H139.549V306.25C139.549 305.371 140.189 304.75 140.908 304.75C141.607 304.75 142.096 305.207 142.096 305.891V310H143.033V306.094C143.033 305.32 143.517 304.75 144.361 304.75C145.017 304.75 145.58 305.098 145.58 305.984V310H146.502V305.984C146.502 304.574 145.744 303.922 144.674 303.922C143.814 303.922 143.185 304.316 142.877 304.937H142.814C142.517 304.297 141.994 303.922 141.205 303.922C140.424 303.922 139.846 304.297 139.596 304.937H139.517V304H138.627V310ZM150.758 310.125C151.977 310.125 152.867 309.516 153.149 308.609L152.258 308.359C152.024 308.984 151.481 309.297 150.758 309.297C149.676 309.297 148.93 308.598 148.887 307.312H153.242V306.922C153.242 304.687 151.914 303.922 150.664 303.922C149.039 303.922 147.961 305.203 147.961 307.047C147.961 308.891 149.024 310.125 150.758 310.125ZM148.887 306.516C148.949 305.582 149.61 304.75 150.664 304.75C151.664 304.75 152.305 305.5 152.305 306.516H148.887ZM155.622 306.391C155.622 305.344 156.27 304.75 157.153 304.75C158.008 304.75 158.528 305.309 158.528 306.25V310H159.45V306.188C159.45 304.656 158.633 303.922 157.418 303.922C156.512 303.922 155.95 304.328 155.668 304.937H155.59V304H154.7V310H155.622V306.391ZM163.799 304H162.517V302.562H161.596V304H160.689V304.781H161.596V308.531C161.596 309.578 162.439 310.078 163.221 310.078C163.564 310.078 163.783 310.016 163.908 309.969L163.721 309.141C163.642 309.156 163.517 309.187 163.314 309.187C162.908 309.187 162.517 309.062 162.517 308.281V304.781H163.799V304ZM169.897 304.654C169.248 304.654 168.731 305.171 168.731 305.82C168.731 306.469 169.248 306.986 169.897 306.986C170.546 306.986 171.063 306.469 171.063 305.82C171.063 305.171 170.546 304.654 169.897 304.654ZM178.889 310C181.327 310 182.702 308.484 182.702 305.984C182.702 303.5 181.327 302 178.999 302H176.42V310H178.889ZM177.389 309.141V302.859H178.936C180.811 302.859 181.764 304.047 181.764 305.984C181.764 307.938 180.811 309.141 178.827 309.141H177.389ZM186.694 310.125C188.319 310.125 189.413 308.891 189.413 307.031C189.413 305.156 188.319 303.922 186.694 303.922C185.069 303.922 183.975 305.156 183.975 307.031C183.975 308.891 185.069 310.125 186.694 310.125ZM186.694 309.297C185.46 309.297 184.897 308.234 184.897 307.031C184.897 305.828 185.46 304.75 186.694 304.75C187.929 304.75 188.491 305.828 188.491 307.031C188.491 308.234 187.929 309.297 186.694 309.297ZM192.03 310H192.937L194.249 305.391H194.343L195.655 310H196.562L198.39 304H197.421L196.124 308.578H196.062L194.796 304H193.812L192.53 308.594H192.468L191.171 304H190.202L192.03 310ZM200.585 306.391C200.585 305.344 201.234 304.75 202.117 304.75C202.972 304.75 203.492 305.309 203.492 306.25V310H204.414V306.188C204.414 304.656 203.597 303.922 202.382 303.922C201.476 303.922 200.914 304.328 200.632 304.937H200.554V304H199.664V310H200.585V306.391ZM207.075 302H206.153V310H207.075V302ZM211.256 310.125C212.881 310.125 213.975 308.891 213.975 307.031C213.975 305.156 212.881 303.922 211.256 303.922C209.631 303.922 208.537 305.156 208.537 307.031C208.537 308.891 209.631 310.125 211.256 310.125ZM211.256 309.297C210.022 309.297 209.459 308.234 209.459 307.031C209.459 305.828 210.022 304.75 211.256 304.75C212.49 304.75 213.053 305.828 213.053 307.031C213.053 308.234 212.49 309.297 211.256 309.297ZM217.203 310.141C218.249 310.141 218.796 309.578 218.984 309.187H219.031V310H219.953V306.047C219.953 304.141 218.499 303.922 217.734 303.922C216.828 303.922 215.796 304.234 215.328 305.328L216.203 305.641C216.406 305.203 216.886 304.734 217.765 304.734C218.613 304.734 219.031 305.184 219.031 305.953V305.984C219.031 306.43 218.578 306.391 217.484 306.531C216.371 306.676 215.156 306.922 215.156 308.297C215.156 309.469 216.062 310.141 217.203 310.141ZM217.343 309.312C216.609 309.312 216.078 308.984 216.078 308.344C216.078 307.641 216.718 307.422 217.437 307.328C217.828 307.281 218.874 307.172 219.031 306.984V307.828C219.031 308.578 218.437 309.312 217.343 309.312ZM223.956 310.125C225.112 310.125 225.503 309.406 225.706 309.078H225.815V310H226.706V302H225.784V304.953H225.706C225.503 304.641 225.143 303.922 223.971 303.922C222.456 303.922 221.409 305.125 221.409 307.016C221.409 308.922 222.456 310.125 223.956 310.125ZM224.081 309.297C222.925 309.297 222.331 308.281 222.331 307C222.331 305.734 222.909 304.75 224.081 304.75C225.206 304.75 225.8 305.656 225.8 307C225.8 308.359 225.19 309.297 224.081 309.297Z" fill="#646C7A"></path><rect x="24.5" y="264.5" width="503" height="59" rx="5.5" stroke="#EBEDF0"></rect></svg> 