<?xml version="1.0" encoding="UTF-8"?> <svg xmlns="http://www.w3.org/2000/svg" width="504" height="464" viewBox="0 0 504 464" fill="none"><path fill-rule="evenodd" clip-rule="evenodd" d="M156 38C146.059 38 138 46.0589 138 56V88C138 97.9411 146.059 106 156 106C165.941 106 174 97.9411 174 88V56C174 46.0589 165.941 38 156 38ZM156 50C152.686 50 150 52.6863 150 56V88C150 91.3137 152.686 94 156 94C159.314 94 162 91.3137 162 88V56C162 52.6863 159.314 50 156 50Z" fill="#292B2F"></path><path fill-rule="evenodd" clip-rule="evenodd" d="M156 118C146.059 118 138 126.059 138 136V168C138 177.941 146.059 186 156 186C165.941 186 174 177.941 174 168V136C174 126.059 165.941 118 156 118ZM156 130C152.686 130 150 132.686 150 136V168C150 171.314 152.686 174 156 174C159.314 174 162 171.314 162 168V136C162 132.686 159.314 130 156 130Z" fill="#292B2F"></path><path fill-rule="evenodd" clip-rule="evenodd" d="M156 198C146.059 198 138 206.059 138 216V248C138 257.941 146.059 266 156 266C165.941 266 174 257.941 174 248V216C174 206.059 165.941 198 156 198ZM156 210C152.686 210 150 212.686 150 216V248C150 251.314 152.686 254 156 254C159.314 254 162 251.314 162 248V216C162 212.686 159.314 210 156 210Z" fill="#292B2F"></path><path fill-rule="evenodd" clip-rule="evenodd" d="M156 278C146.059 278 138 286.059 138 296V328C138 337.941 146.059 346 156 346C165.941 346 174 337.941 174 328V296C174 286.059 165.941 278 156 278ZM156 290C152.686 290 150 292.686 150 296V328C150 331.314 152.686 334 156 334C159.314 334 162 331.314 162 328V296C162 292.686 159.314 290 156 290Z" fill="#292B2F"></path><path fill-rule="evenodd" clip-rule="evenodd" d="M156 358C146.059 358 138 366.059 138 376V408C138 417.941 146.059 426 156 426C165.941 426 174 417.941 174 408V376C174 366.059 165.941 358 156 358ZM156 370C152.686 370 150 372.686 150 376V408C150 411.314 152.686 414 156 414C159.314 414 162 411.314 162 408V376C162 372.686 159.314 370 156 370Z" fill="#292B2F"></path><path fill-rule="evenodd" clip-rule="evenodd" d="M228 38C218.059 38 210 46.0589 210 56V88C210 97.9411 218.059 106 228 106C237.941 106 246 97.9411 246 88V56C246 46.0589 237.941 38 228 38ZM228 50C224.686 50 222 52.6863 222 56V88C222 91.3137 224.686 94 228 94C231.314 94 234 91.3137 234 88V56C234 52.6863 231.314 50 228 50Z" fill="#292B2F"></path><path fill-rule="evenodd" clip-rule="evenodd" d="M228 118C218.059 118 210 126.059 210 136V168C210 177.941 218.059 186 228 186C237.941 186 246 177.941 246 168V136C246 126.059 237.941 118 228 118ZM228 130C224.686 130 222 132.686 222 136V168C222 171.314 224.686 174 228 174C231.314 174 234 171.314 234 168V136C234 132.686 231.314 130 228 130Z" fill="#292B2F"></path><path fill-rule="evenodd" clip-rule="evenodd" d="M228 198C218.059 198 210 206.059 210 216V248C210 257.941 218.059 266 228 266C237.941 266 246 257.941 246 248V216C246 206.059 237.941 198 228 198ZM228 210C224.686 210 222 212.686 222 216V248C222 251.314 224.686 254 228 254C231.314 254 234 251.314 234 248V216C234 212.686 231.314 210 228 210Z" fill="#292B2F"></path><path fill-rule="evenodd" clip-rule="evenodd" d="M228 278C218.059 278 210 286.059 210 296V328C210 337.941 218.059 346 228 346C237.941 346 246 337.941 246 328V296C246 286.059 237.941 278 228 278ZM228 290C224.686 290 222 292.686 222 296V328C222 331.314 224.686 334 228 334C231.314 334 234 331.314 234 328V296C234 292.686 231.314 290 228 290Z" fill="#292B2F"></path><path fill-rule="evenodd" clip-rule="evenodd" d="M228 358C218.059 358 210 366.059 210 376V408C210 417.941 218.059 426 228 426C237.941 426 246 417.941 246 408V376C246 366.059 237.941 358 228 358ZM228 370C224.686 370 222 372.686 222 376V408C222 411.314 224.686 414 228 414C231.314 414 234 411.314 234 408V376C234 372.686 231.314 370 228 370Z" fill="#292B2F"></path><path fill-rule="evenodd" clip-rule="evenodd" d="M300 198C290.059 198 282 206.059 282 216V248C282 257.941 290.059 266 300 266C309.941 266 318 257.941 318 248V216C318 206.059 309.941 198 300 198ZM300 210C296.686 210 294 212.686 294 216V248C294 251.314 296.686 254 300 254C303.314 254 306 251.314 306 248V216C306 212.686 303.314 210 300 210Z" fill="#292B2F"></path><path fill-rule="evenodd" clip-rule="evenodd" d="M300 278C290.059 278 282 286.059 282 296V328C282 337.941 290.059 346 300 346C309.941 346 318 337.941 318 328V296C318 286.059 309.941 278 300 278ZM300 290C296.686 290 294 292.686 294 296V328C294 331.314 296.686 334 300 334C303.314 334 306 331.314 306 328V296C306 292.686 303.314 290 300 290Z" fill="#292B2F"></path><path fill-rule="evenodd" clip-rule="evenodd" d="M300 358C290.059 358 282 366.059 282 376V408C282 417.941 290.059 426 300 426C309.941 426 318 417.941 318 408V376C318 366.059 309.941 358 300 358ZM300 370C296.686 370 294 372.686 294 376V408C294 411.314 296.686 414 300 414C303.314 414 306 411.314 306 408V376C306 372.686 303.314 370 300 370Z" fill="#292B2F"></path><path fill-rule="evenodd" clip-rule="evenodd" d="M372 198C362.059 198 354 206.059 354 216V248C354 257.941 362.059 266 372 266C381.941 266 390 257.941 390 248V216C390 206.059 381.941 198 372 198ZM372 210C368.686 210 366 212.686 366 216V248C366 251.314 368.686 254 372 254C375.314 254 378 251.314 378 248V216C378 212.686 375.314 210 372 210Z" fill="#292B2F"></path><path fill-rule="evenodd" clip-rule="evenodd" d="M372 278C362.059 278 354 286.059 354 296V328C354 337.941 362.059 346 372 346C381.941 346 390 337.941 390 328V296C390 286.059 381.941 278 372 278ZM372 290C368.686 290 366 292.686 366 296V328C366 331.314 368.686 334 372 334C375.314 334 378 331.314 378 328V296C378 292.686 375.314 290 372 290Z" fill="#292B2F"></path><path fill-rule="evenodd" clip-rule="evenodd" d="M372 358C362.059 358 354 366.059 354 376V408C354 417.941 362.059 426 372 426C381.941 426 390 417.941 390 408V376C390 366.059 381.941 358 372 358ZM372 370C368.686 370 366 372.686 366 376V408C366 411.314 368.686 414 372 414C375.314 414 378 411.314 378 408V376C378 372.686 375.314 370 372 370Z" fill="#292B2F"></path><rect x="114" y="38" width="12" height="68" fill="#292B2F"></rect><rect x="114" y="118" width="12" height="68" fill="#292B2F"></rect><rect x="114" y="198" width="12" height="68" fill="#292B2F"></rect><rect x="114" y="278" width="12" height="68" fill="#292B2F"></rect><rect x="114" y="358" width="12" height="68" fill="#292B2F"></rect><rect x="186" y="38" width="12" height="68" fill="#292B2F"></rect><rect x="186" y="118" width="12" height="68" fill="#292B2F"></rect><rect x="186" y="198" width="12" height="68" fill="#292B2F"></rect><rect x="186" y="278" width="12" height="68" fill="#292B2F"></rect><rect x="186" y="358" width="12" height="68" fill="#292B2F"></rect><rect x="258" y="38" width="12" height="68" fill="#292B2F"></rect><rect x="258" y="118" width="12" height="68" fill="#292B2F"></rect><rect x="258" y="198" width="12" height="68" fill="#292B2F"></rect><rect x="258" y="278" width="12" height="68" fill="#292B2F"></rect><rect x="258" y="358" width="12" height="68" fill="#292B2F"></rect><rect x="330" y="198" width="12" height="68" fill="#292B2F"></rect><rect x="330" y="278" width="12" height="68" fill="#292B2F"></rect><rect x="330" y="358" width="12" height="68" fill="#292B2F"></rect><path d="M282 38H366L378 50L390 62V186H282V38Z" fill="#292B2F"></path><path d="M366 62H390L366 38V62Z" fill="#3574F6"></path><path d="M352 104H348V100C348 93.382 342.618 88 336 88C329.382 88 324 93.382 324 100V104H320C318.896 104 318 104.896 318 106V134C318 135.104 318.896 136 320 136H352C353.104 136 354 135.104 354 134V106C354 104.896 353.104 104 352 104ZM338 123.632V128H334V123.632C331.678 122.804 330 120.604 330 118C330 114.692 332.692 112 336 112C339.308 112 342 114.692 342 118C342 120.604 340.324 122.804 338 123.632ZM344 104H328V100C328 95.588 331.588 92 336 92C340.412 92 344 95.588 344 100V104Z" fill="#13EA66"></path></svg> 