<?xml version="1.0" encoding="UTF-8"?> <svg xmlns="http://www.w3.org/2000/svg" width="456" height="332" viewBox="0 0 456 332" fill="none"><rect width="456" height="368" fill="white"></rect><path d="M33.5312 36.2756H35.6477C35.5838 33.946 33.5241 32.2557 30.5696 32.2557C27.6506 32.2557 25.4134 33.9247 25.4134 36.4318C25.4134 38.456 26.8622 39.642 29.1989 40.2741L30.9176 40.7429C32.473 41.1548 33.6733 41.6662 33.6733 42.9588C33.6733 44.3793 32.3168 45.3168 30.4489 45.3168C28.7585 45.3168 27.3523 44.5639 27.2244 42.9801H25.0227C25.1648 45.6151 27.2031 47.2415 30.4631 47.2415C33.8793 47.2415 35.8466 45.4446 35.8466 42.9801C35.8466 40.3594 33.5099 39.3438 31.6634 38.8892L30.2429 38.5199C29.1065 38.2287 27.5938 37.696 27.6009 36.304C27.6009 35.0682 28.7301 34.152 30.5199 34.152C32.1889 34.152 33.375 34.9332 33.5312 36.2756ZM40.0822 40.5227C40.0822 38.7827 41.1831 37.7884 42.6959 37.7884C44.1589 37.7884 45.0325 38.7188 45.0325 40.3168V47H47.1561V40.0611C47.1561 37.3409 45.6646 35.9489 43.4203 35.9489C41.7229 35.9489 40.7001 36.6875 40.1888 37.8665H40.0538V32.4545H37.9587V47H40.0822V40.5227ZM52.8246 47.2415C54.6286 47.2415 55.6442 46.3253 56.049 45.5085H56.1343V47H58.2081V39.7557C58.2081 36.581 55.7081 35.9489 53.9752 35.9489C52.0008 35.9489 50.1826 36.7443 49.4723 38.733L51.4681 39.1875C51.7806 38.4134 52.576 37.6676 54.0036 37.6676C55.3743 37.6676 56.0775 38.3849 56.0775 39.6207V39.6705C56.0775 40.4446 55.282 40.4304 53.3218 40.6577C51.255 40.8991 49.1385 41.4389 49.1385 43.9176C49.1385 46.0625 50.7508 47.2415 52.8246 47.2415ZM53.2863 45.5369C52.086 45.5369 51.2195 44.9972 51.2195 43.946C51.2195 42.8097 52.228 42.4048 53.4567 42.2415C54.1456 42.1491 55.7792 41.9645 56.0846 41.6591V43.0653C56.0846 44.358 55.0547 45.5369 53.2863 45.5369ZM60.6966 47H62.8202V40.3381C62.8202 38.9105 63.9211 37.8807 65.4267 37.8807C65.8671 37.8807 66.3642 37.9588 66.5347 38.0085V35.9773C66.3216 35.9489 65.9026 35.9276 65.6327 35.9276C64.3543 35.9276 63.2605 36.652 62.8628 37.8239H62.7492V36.0909H60.6966V47ZM72.3435 47.2202C74.7227 47.2202 76.406 46.0483 76.8889 44.2727L74.879 43.9105C74.4955 44.9403 73.5722 45.4659 72.3648 45.4659C70.5466 45.4659 69.325 44.2869 69.2682 42.1847H77.0239V41.4318C77.0239 37.4901 74.6659 35.9489 72.1943 35.9489C69.1546 35.9489 67.1517 38.2642 67.1517 41.6165C67.1517 45.0043 69.1262 47.2202 72.3435 47.2202ZM69.2753 40.5938C69.3605 39.0455 70.4827 37.7031 72.2085 37.7031C73.8563 37.7031 74.9358 38.9247 74.9429 40.5938H69.2753ZM88.5882 47.2202C91.1663 47.2202 92.8354 45.6719 93.0697 43.5483H91.003C90.7331 44.7273 89.8169 45.4233 88.6024 45.4233C86.8055 45.4233 85.6479 43.9247 85.6479 41.5455C85.6479 39.2088 86.8268 37.7386 88.6024 37.7386C89.9518 37.7386 90.7757 38.5909 91.003 39.6136H93.0697C92.8425 37.4119 91.0456 35.9489 88.5669 35.9489C85.4916 35.9489 83.503 38.2642 83.503 41.5952C83.503 44.8835 85.4206 47.2202 88.5882 47.2202ZM99.5959 47.2202C102.671 47.2202 104.681 44.9688 104.681 41.5952C104.681 38.2003 102.671 35.9489 99.5959 35.9489C96.5206 35.9489 94.5106 38.2003 94.5106 41.5952C94.5106 44.9688 96.5206 47.2202 99.5959 47.2202ZM99.603 45.4375C97.593 45.4375 96.6555 43.6832 96.6555 41.5881C96.6555 39.5 97.593 37.7244 99.603 37.7244C101.599 37.7244 102.536 39.5 102.536 41.5881C102.536 43.6832 101.599 45.4375 99.603 45.4375ZM108.835 40.5227C108.835 38.7827 109.9 37.7884 111.378 37.7884C112.819 37.7884 113.693 38.733 113.693 40.3168V47H115.817V40.0611C115.817 37.3622 114.332 35.9489 112.102 35.9489C110.461 35.9489 109.389 36.7088 108.885 37.8665H108.75V36.0909H106.711V47H108.835V40.5227ZM123.417 36.0909H121.18V33.4773H119.056V36.0909H117.458V37.7955H119.056V44.2372C119.049 46.2188 120.562 47.1776 122.238 47.142C122.913 47.1349 123.367 47.0071 123.616 46.9148L123.232 45.1605C123.09 45.1889 122.827 45.2528 122.487 45.2528C121.798 45.2528 121.18 45.0256 121.18 43.7969V37.7955H123.417V36.0909ZM125.426 47H127.55V40.3381C127.55 38.9105 128.65 37.8807 130.156 37.8807C130.596 37.8807 131.094 37.9588 131.264 38.0085V35.9773C131.051 35.9489 130.632 35.9276 130.362 35.9276C129.084 35.9276 127.99 36.652 127.592 37.8239H127.479V36.0909H125.426V47ZM135.839 47.2415C137.643 47.2415 138.658 46.3253 139.063 45.5085H139.148V47H141.222V39.7557C141.222 36.581 138.722 35.9489 136.989 35.9489C135.015 35.9489 133.197 36.7443 132.487 38.733L134.482 39.1875C134.795 38.4134 135.59 37.6676 137.018 37.6676C138.389 37.6676 139.092 38.3849 139.092 39.6207V39.6705C139.092 40.4446 138.296 40.4304 136.336 40.6577C134.269 40.8991 132.153 41.4389 132.153 43.9176C132.153 46.0625 133.765 47.2415 135.839 47.2415ZM136.3 45.5369C135.1 45.5369 134.234 44.9972 134.234 43.946C134.234 42.8097 135.242 42.4048 136.471 42.2415C137.16 42.1491 138.793 41.9645 139.099 41.6591V43.0653C139.099 44.358 138.069 45.5369 136.3 45.5369ZM148.306 47.2202C150.884 47.2202 152.553 45.6719 152.788 43.5483H150.721C150.451 44.7273 149.535 45.4233 148.32 45.4233C146.523 45.4233 145.366 43.9247 145.366 41.5455C145.366 39.2088 146.545 37.7386 148.32 37.7386C149.67 37.7386 150.494 38.5909 150.721 39.6136H152.788C152.56 37.4119 150.763 35.9489 148.285 35.9489C145.209 35.9489 143.221 38.2642 143.221 41.5952C143.221 44.8835 145.138 47.2202 148.306 47.2202ZM159.811 36.0909H157.574V33.4773H155.45V36.0909H153.852V37.7955H155.45V44.2372C155.443 46.2188 156.956 47.1776 158.632 47.142C159.307 47.1349 159.761 47.0071 160.01 46.9148L159.626 45.1605C159.484 45.1889 159.221 45.2528 158.88 45.2528C158.192 45.2528 157.574 45.0256 157.574 43.7969V37.7955H159.811V36.0909Z" fill="#292B2F"></path><path d="M414 46L426 34" stroke="#646C7A" stroke-linecap="round" stroke-linejoin="round"></path><path d="M426 46L414 34" stroke="#646C7A" stroke-linecap="round" stroke-linejoin="round"></path><path d="M37.233 105H43.4574V103.906H38.4659V100.446H43.0597V99.3523H38.4659V95.9119H43.3778V94.8182H37.233V105ZM45.3571 105H46.5303V100.227C46.5303 99.1087 47.3457 98.3182 48.2605 98.3182C49.1504 98.3182 49.7718 98.8999 49.7718 99.7699V105H50.965V100.028C50.965 99.044 51.5815 98.3182 52.6553 98.3182C53.4906 98.3182 54.2065 98.7607 54.2065 99.8892V105H55.3798V99.8892C55.3798 98.0945 54.4153 97.2642 53.0531 97.2642C51.9593 97.2642 51.1589 97.7663 50.7661 98.5568H50.6866C50.3088 97.7415 49.6426 97.2642 48.6383 97.2642C47.644 97.2642 46.9082 97.7415 46.59 98.5568H46.4906V97.3636H45.3571V105ZM59.6882 105.179C61.0206 105.179 61.7166 104.463 61.9552 103.966H62.0149V105H63.1882V99.9688C63.1882 97.5426 61.3387 97.2642 60.3643 97.2642C59.2109 97.2642 57.8984 97.6619 57.3018 99.054L58.4155 99.4517C58.674 98.8949 59.2855 98.2983 60.4041 98.2983C61.4829 98.2983 62.0149 98.87 62.0149 99.8494V99.8892C62.0149 100.456 61.4382 100.406 60.0461 100.585C58.6292 100.769 57.0831 101.082 57.0831 102.832C57.0831 104.324 58.2365 105.179 59.6882 105.179ZM59.8672 104.125C58.9325 104.125 58.2564 103.707 58.2564 102.892C58.2564 101.997 59.0717 101.719 59.9865 101.599C60.4836 101.54 61.816 101.401 62.0149 101.162V102.236C62.0149 103.19 61.2592 104.125 59.8672 104.125ZM65.2457 105H66.419V97.3636H65.2457V105ZM65.8423 96.0909C66.2997 96.0909 66.6775 95.733 66.6775 95.2955C66.6775 94.858 66.2997 94.5 65.8423 94.5C65.3849 94.5 65.0071 94.858 65.0071 95.2955C65.0071 95.733 65.3849 96.0909 65.8423 96.0909ZM69.6573 94.8182H68.484V105H69.6573V94.8182ZM73.4722 103.608H72.1995L72.1398 104.165C71.9957 105.512 71.7123 106.854 71.583 107.486H72.4779C72.7165 106.81 73.2236 105.278 73.3927 104.145L73.4722 103.608ZM79.4155 105H80.5888V100.227C80.5888 99.1087 81.4042 98.3182 82.319 98.3182C83.2089 98.3182 83.8303 98.8999 83.8303 99.7699V105H85.0235V100.028C85.0235 99.044 85.64 98.3182 86.7138 98.3182C87.5491 98.3182 88.265 98.7607 88.265 99.8892V105H89.4383V99.8892C89.4383 98.0945 88.4738 97.2642 87.1116 97.2642C86.0178 97.2642 85.2174 97.7663 84.8246 98.5568H84.7451C84.3673 97.7415 83.7011 97.2642 82.6968 97.2642C81.7025 97.2642 80.9667 97.7415 80.6485 98.5568H80.5491V97.3636H79.4155V105ZM94.7012 105.159C96.2524 105.159 97.3859 104.384 97.7438 103.23L96.6103 102.912C96.312 103.707 95.621 104.105 94.7012 104.105C93.3241 104.105 92.3745 103.215 92.3198 101.58H97.8632V101.082C97.8632 98.2386 96.1728 97.2642 94.5819 97.2642C92.5137 97.2642 91.1416 98.8949 91.1416 101.241C91.1416 103.588 92.4938 105.159 94.7012 105.159ZM92.3198 100.565C92.3994 99.3771 93.2396 98.3182 94.5819 98.3182C95.8546 98.3182 96.67 99.2727 96.67 100.565H92.3198ZM99.564 105H100.737V100.227C100.737 99.1087 101.553 98.3182 102.467 98.3182C103.357 98.3182 103.979 98.8999 103.979 99.7699V105H105.172V100.028C105.172 99.044 105.788 98.3182 106.862 98.3182C107.697 98.3182 108.413 98.7607 108.413 99.8892V105H109.587V99.8892C109.587 98.0945 108.622 97.2642 107.26 97.2642C106.166 97.2642 105.366 97.7663 104.973 98.5568H104.894C104.516 97.7415 103.849 97.2642 102.845 97.2642C101.851 97.2642 101.115 97.7415 100.797 98.5568H100.697V97.3636H99.564V105ZM111.807 105H112.941V103.827H113.08C113.338 104.244 113.835 105.159 115.307 105.159C117.216 105.159 118.548 103.628 118.548 101.202C118.548 98.7955 117.216 97.2642 115.287 97.2642C113.796 97.2642 113.338 98.179 113.08 98.5767H112.98V94.8182H111.807V105ZM112.96 101.182C112.96 99.4716 113.716 98.3182 115.148 98.3182C116.639 98.3182 117.375 99.571 117.375 101.182C117.375 102.812 116.62 104.105 115.148 104.105C113.736 104.105 112.96 102.912 112.96 101.182ZM123.461 105.159C125.012 105.159 126.146 104.384 126.504 103.23L125.37 102.912C125.072 103.707 124.381 104.105 123.461 104.105C122.084 104.105 121.134 103.215 121.08 101.58H126.623V101.082C126.623 98.2386 124.933 97.2642 123.342 97.2642C121.273 97.2642 119.901 98.8949 119.901 101.241C119.901 103.588 121.254 105.159 123.461 105.159ZM121.08 100.565C121.159 99.3771 121.999 98.3182 123.342 98.3182C124.614 98.3182 125.43 99.2727 125.43 100.565H121.08ZM128.324 105H129.497V100.168C129.497 99.1335 130.312 98.3778 131.426 98.3778C131.739 98.3778 132.062 98.4375 132.142 98.4574V97.2642C132.008 97.2543 131.699 97.2443 131.525 97.2443C130.611 97.2443 129.815 97.7614 129.537 98.517H129.457V97.3636H128.324V105ZM140.404 105.159C142.473 105.159 143.865 103.588 143.865 101.222C143.865 98.8352 142.473 97.2642 140.404 97.2642C138.336 97.2642 136.944 98.8352 136.944 101.222C136.944 103.588 138.336 105.159 140.404 105.159ZM140.404 104.105C138.833 104.105 138.117 102.753 138.117 101.222C138.117 99.6903 138.833 98.3182 140.404 98.3182C141.975 98.3182 142.691 99.6903 142.691 101.222C142.691 102.753 141.975 104.105 140.404 104.105ZM145.572 105H146.745V100.168C146.745 99.1335 147.56 98.3778 148.674 98.3778C148.987 98.3778 149.31 98.4375 149.39 98.4574V97.2642C149.256 97.2543 148.947 97.2443 148.773 97.2443C147.859 97.2443 147.063 97.7614 146.785 98.517H146.705V97.3636H145.572V105ZM157.633 108.023C159.462 108.023 160.934 107.188 160.934 105.219V97.3636H159.8V98.5767H159.681C159.422 98.179 158.945 97.2642 157.454 97.2642C155.525 97.2642 154.192 98.7955 154.192 101.142C154.192 103.528 155.584 104.881 157.434 104.881C158.925 104.881 159.402 104.006 159.661 103.588H159.76V105.139C159.76 106.412 158.866 106.989 157.633 106.989C156.245 106.989 155.758 106.258 155.445 105.835L154.51 106.491C154.988 107.292 155.927 108.023 157.633 108.023ZM157.593 103.827C156.121 103.827 155.366 102.713 155.366 101.122C155.366 99.571 156.101 98.3182 157.593 98.3182C159.025 98.3182 159.78 99.4716 159.78 101.122C159.78 102.812 159.005 103.827 157.593 103.827ZM162.997 105H164.171V100.168C164.171 99.1335 164.986 98.3778 166.1 98.3778C166.413 98.3778 166.736 98.4375 166.816 98.4574V97.2642C166.681 97.2543 166.373 97.2443 166.199 97.2443C165.284 97.2443 164.489 97.7614 164.21 98.517H164.131V97.3636H162.997V105ZM170.992 105.159C173.06 105.159 174.452 103.588 174.452 101.222C174.452 98.8352 173.06 97.2642 170.992 97.2642C168.924 97.2642 167.532 98.8352 167.532 101.222C167.532 103.588 168.924 105.159 170.992 105.159ZM170.992 104.105C169.421 104.105 168.705 102.753 168.705 101.222C168.705 99.6903 169.421 98.3182 170.992 98.3182C172.563 98.3182 173.279 99.6903 173.279 101.222C173.279 102.753 172.563 104.105 170.992 104.105ZM180.972 101.878C180.972 103.31 179.878 103.966 179.003 103.966C178.029 103.966 177.333 103.25 177.333 102.136V97.3636H176.159V102.216C176.159 104.165 177.194 105.099 178.625 105.099C179.779 105.099 180.534 104.483 180.892 103.707H180.972V105H182.145V97.3636H180.972V101.878ZM184.21 107.864H185.384V103.827H185.483C185.741 104.244 186.239 105.159 187.71 105.159C189.619 105.159 190.952 103.628 190.952 101.202C190.952 98.7955 189.619 97.2642 187.69 97.2642C186.199 97.2642 185.741 98.179 185.483 98.5767H185.344V97.3636H184.21V107.864ZM185.364 101.182C185.364 99.4716 186.119 98.3182 187.551 98.3182C189.043 98.3182 189.778 99.571 189.778 101.182C189.778 102.812 189.023 104.105 187.551 104.105C186.139 104.105 185.364 102.912 185.364 101.182ZM197.684 100.406C197.684 99.0739 198.51 98.3182 199.633 98.3182C200.722 98.3182 201.383 99.0291 201.383 100.227V105H202.556V100.148C202.556 98.1989 201.517 97.2642 199.971 97.2642C198.818 97.2642 198.102 97.7812 197.744 98.5568H197.645V97.3636H196.511V105H197.684V100.406ZM206.864 105.179C208.196 105.179 208.892 104.463 209.131 103.966H209.19V105H210.364V99.9688C210.364 97.5426 208.514 97.2642 207.54 97.2642C206.386 97.2642 205.074 97.6619 204.477 99.054L205.591 99.4517C205.849 98.8949 206.461 98.2983 207.58 98.2983C208.658 98.2983 209.19 98.87 209.19 99.8494V99.8892C209.19 100.456 208.614 100.406 207.222 100.585C205.805 100.769 204.258 101.082 204.258 102.832C204.258 104.324 205.412 105.179 206.864 105.179ZM207.043 104.125C206.108 104.125 205.432 103.707 205.432 102.892C205.432 101.997 206.247 101.719 207.162 101.599C207.659 101.54 208.991 101.401 209.19 101.162V102.236C209.19 103.19 208.435 104.125 207.043 104.125ZM212.421 105H213.594V100.227C213.594 99.1087 214.41 98.3182 215.325 98.3182C216.214 98.3182 216.836 98.8999 216.836 99.7699V105H218.029V100.028C218.029 99.044 218.646 98.3182 219.719 98.3182C220.555 98.3182 221.271 98.7607 221.271 99.8892V105H222.444V99.8892C222.444 98.0945 221.479 97.2642 220.117 97.2642C219.023 97.2642 218.223 97.7663 217.83 98.5568H217.751C217.373 97.7415 216.707 97.2642 215.702 97.2642C214.708 97.2642 213.972 97.7415 213.654 98.5568H213.555V97.3636H212.421V105ZM227.707 105.159C229.258 105.159 230.391 104.384 230.749 103.23L229.616 102.912C229.318 103.707 228.627 104.105 227.707 104.105C226.33 104.105 225.38 103.215 225.325 101.58H230.869V101.082C230.869 98.2386 229.178 97.2642 227.587 97.2642C225.519 97.2642 224.147 98.8949 224.147 101.241C224.147 103.588 225.499 105.159 227.707 105.159ZM225.325 100.565C225.405 99.3771 226.245 98.3182 227.587 98.3182C228.86 98.3182 229.676 99.2727 229.676 100.565H225.325ZM233.425 105.08C233.917 105.08 234.32 104.677 234.32 104.185C234.32 103.692 233.917 103.29 233.425 103.29C232.932 103.29 232.53 103.692 232.53 104.185C232.53 104.677 232.932 105.08 233.425 105.08ZM237.243 105.08C237.735 105.08 238.138 104.677 238.138 104.185C238.138 103.692 237.735 103.29 237.243 103.29C236.751 103.29 236.348 103.692 236.348 104.185C236.348 104.677 236.751 105.08 237.243 105.08ZM241.061 105.08C241.553 105.08 241.956 104.677 241.956 104.185C241.956 103.692 241.553 103.29 241.061 103.29C240.569 103.29 240.166 103.692 240.166 104.185C240.166 104.677 240.569 105.08 241.061 105.08Z" fill="#97A2B8"></path><path d="M275.207 98.1108C274.909 96.2443 273.447 95.1534 271.602 95.1534C269.344 95.1534 267.678 96.8452 267.678 99.6364C267.678 102.428 269.335 104.119 271.602 104.119C273.52 104.119 274.922 102.918 275.207 101.192L273.878 101.188C273.652 102.304 272.714 102.918 271.611 102.918C270.115 102.918 268.986 101.771 268.986 99.6364C268.986 97.5185 270.111 96.3551 271.615 96.3551C272.727 96.3551 273.661 96.9815 273.878 98.1108H275.207ZM278.586 104.145C279.668 104.145 280.277 103.595 280.52 103.105H280.571V104H281.816V99.6534C281.816 97.7486 280.316 97.3693 279.276 97.3693C278.091 97.3693 277 97.8466 276.574 99.0398L277.772 99.3125C277.959 98.848 278.436 98.4006 279.293 98.4006C280.115 98.4006 280.537 98.831 280.537 99.5724V99.6023C280.537 100.067 280.06 100.058 278.884 100.195C277.644 100.339 276.374 100.663 276.374 102.151C276.374 103.438 277.341 104.145 278.586 104.145ZM278.863 103.122C278.142 103.122 277.623 102.798 277.623 102.168C277.623 101.486 278.228 101.243 278.965 101.145C279.378 101.089 280.358 100.979 280.542 100.795V101.639C280.542 102.415 279.924 103.122 278.863 103.122ZM284.787 100.114C284.787 99.0696 285.426 98.473 286.312 98.473C287.178 98.473 287.702 99.0398 287.702 99.9901V104H288.976V99.8366C288.976 98.2173 288.085 97.3693 286.747 97.3693C285.763 97.3693 285.119 97.8253 284.817 98.5199H284.736V97.4545H283.513V104H284.787V100.114ZM296.681 104.132C298.109 104.132 299.119 103.429 299.409 102.364L298.203 102.146C297.973 102.764 297.419 103.08 296.694 103.08C295.603 103.08 294.87 102.372 294.836 101.111H299.49V100.659C299.49 98.294 298.075 97.3693 296.592 97.3693C294.768 97.3693 293.566 98.7585 293.566 100.77C293.566 102.803 294.751 104.132 296.681 104.132ZM294.841 100.156C294.892 99.2273 295.565 98.4219 296.6 98.4219C297.589 98.4219 298.237 99.1548 298.241 100.156H294.841ZM303.354 104.128C304.547 104.128 305.016 103.399 305.246 102.982H305.352V104H306.597V95.2727H305.322V98.5156H305.246C305.016 98.1108 304.581 97.3693 303.362 97.3693C301.781 97.3693 300.618 98.6179 300.618 100.74C300.618 102.858 301.764 104.128 303.354 104.128ZM303.635 103.041C302.497 103.041 301.905 102.04 301.905 100.727C301.905 99.4276 302.484 98.4517 303.635 98.4517C304.747 98.4517 305.344 99.3594 305.344 100.727C305.344 102.104 304.734 103.041 303.635 103.041ZM308.415 104H309.689V97.4545H308.415V104ZM309.059 96.4446C309.498 96.4446 309.864 96.1037 309.864 95.6861C309.864 95.2685 309.498 94.9233 309.059 94.9233C308.615 94.9233 308.253 95.2685 308.253 95.6861C308.253 96.1037 308.615 96.4446 309.059 96.4446ZM314.459 97.4545H313.116V95.8864H311.842V97.4545H310.884V98.4773H311.842V102.342C311.838 103.531 312.746 104.107 313.751 104.085C314.156 104.081 314.429 104.004 314.578 103.949L314.348 102.896C314.263 102.913 314.105 102.952 313.901 102.952C313.487 102.952 313.116 102.815 313.116 102.078V98.4773H314.459V97.4545Z" fill="#646C7A"></path><path d="M332 98L328.188 101.92C328.164 101.945 328.134 101.965 328.102 101.979C328.07 101.993 328.035 102 328 102C327.965 102 327.93 101.993 327.898 101.979C327.866 101.965 327.836 101.945 327.812 101.92L324 98" stroke="#646C7A" stroke-linecap="round" stroke-linejoin="round"></path><rect x="24.5" y="80.5" width="331" height="39" rx="5.5" stroke="#EBEDF0"></rect><rect x="372" y="80" width="60" height="40" rx="6" fill="#3574F6"></rect><path d="M389.979 105L390.913 102.305H394.891L395.82 105H397.451L393.787 94.8182H392.012L388.348 105H389.979ZM391.361 101.013L392.862 96.6676H392.942L394.443 101.013H391.361ZM401.454 105.149C402.846 105.149 403.393 104.299 403.661 103.812H403.785V105H405.237V94.8182H403.751V98.6016H403.661C403.393 98.1293 402.885 97.2642 401.464 97.2642C399.619 97.2642 398.262 98.7209 398.262 101.197C398.262 103.668 399.599 105.149 401.454 105.149ZM401.782 103.881C400.454 103.881 399.763 102.713 399.763 101.182C399.763 99.6655 400.439 98.527 401.782 98.527C403.079 98.527 403.775 99.5859 403.775 101.182C403.775 102.788 403.064 103.881 401.782 103.881ZM410.133 105.149C411.525 105.149 412.072 104.299 412.341 103.812H412.465V105H413.917V94.8182H412.43V98.6016H412.341C412.072 98.1293 411.565 97.2642 410.143 97.2642C408.299 97.2642 406.942 98.7209 406.942 101.197C406.942 103.668 408.279 105.149 410.133 105.149ZM410.461 103.881C409.134 103.881 408.443 102.713 408.443 101.182C408.443 99.6655 409.119 98.527 410.461 98.527C411.759 98.527 412.455 99.5859 412.455 101.182C412.455 102.788 411.744 103.881 410.461 103.881Z" fill="white"></path><rect x="24" y="140" width="32" height="32" rx="16" fill="#EBEDF0"></rect><path d="M37 156C38.6569 156 40 154.657 40 153C40 151.343 38.6569 150 37 150C35.3431 150 34 151.343 34 153C34 154.657 35.3431 156 37 156Z" stroke="#646C7A" stroke-linecap="round" stroke-linejoin="round"></path><path d="M33 162C32.4477 162 31.9899 161.548 32.0997 161.007C32.2935 160.051 32.7645 159.164 33.4645 158.464C34.4021 157.527 35.6739 157 37 157C38.3261 157 39.5979 157.527 40.5355 158.464C41.2355 159.164 41.7065 160.051 41.9003 161.007" stroke="#646C7A" stroke-linecap="round" stroke-linejoin="round"></path><path d="M44.5 157C45.8807 157 47 155.881 47 154.5C47 153.119 45.8807 152 44.5 152C43.1193 152 42 153.119 42 154.5C42 155.881 43.1193 157 44.5 157Z" stroke="#646C7A" stroke-linecap="round" stroke-linejoin="round"></path><path d="M43 158.247C43.5614 158.024 44.1646 157.95 44.758 158.033C45.3515 158.115 45.9178 158.35 46.4087 158.719C46.8997 159.087 47.3007 159.578 47.5778 160.149C47.8548 160.72 47.9997 161.355 48 162H44.9746" stroke="#646C7A" stroke-linecap="round" stroke-linejoin="round"></path><path d="M69.1186 150.818V161H70.5803V153.627H70.6747L73.6776 160.985H74.8906L77.8935 153.632H77.9879V161H79.4496V150.818H77.5852L74.3438 158.733H74.2244L70.983 150.818H69.1186ZM84.7709 161.154C86.4364 161.154 87.6147 160.334 87.9528 159.091L86.5458 158.837C86.2773 159.558 85.631 159.926 84.7859 159.926C83.5131 159.926 82.658 159.101 82.6182 157.629H88.0472V157.102C88.0472 154.343 86.3966 153.264 84.6665 153.264C82.5387 153.264 81.1367 154.885 81.1367 157.232C81.1367 159.603 82.5188 161.154 84.7709 161.154ZM82.6232 156.516C82.6829 155.432 83.4684 154.492 84.6765 154.492C85.8299 154.492 86.5856 155.347 86.5905 156.516H82.6232ZM89.6125 161H91.099V156.292C91.099 155.263 91.8199 154.547 92.6651 154.547C93.4904 154.547 94.0621 155.094 94.0621 155.924V161H95.5436V156.133C95.5436 155.213 96.1054 154.547 97.0749 154.547C97.8604 154.547 98.5067 154.984 98.5067 156.018V161H99.9932V155.879C99.9932 154.134 99.0188 153.264 97.6367 153.264C96.538 153.264 95.7127 153.791 95.3448 154.607H95.2652C94.9321 153.771 94.2311 153.264 93.212 153.264C92.2027 153.264 91.452 153.766 91.1338 154.607H91.0394V153.364H89.6125V161ZM102.021 161H103.473V159.812H103.597C103.865 160.299 104.412 161.149 105.804 161.149C107.654 161.149 108.996 159.668 108.996 157.197C108.996 154.721 107.634 153.264 105.789 153.264C104.372 153.264 103.86 154.129 103.597 154.602H103.507V150.818H102.021V161ZM103.478 157.182C103.478 155.586 104.174 154.527 105.471 154.527C106.818 154.527 107.495 155.665 107.495 157.182C107.495 158.713 106.799 159.881 105.471 159.881C104.193 159.881 103.478 158.788 103.478 157.182ZM113.872 161.154C115.538 161.154 116.716 160.334 117.054 159.091L115.647 158.837C115.379 159.558 114.733 159.926 113.887 159.926C112.615 159.926 111.76 159.101 111.72 157.629H117.149V157.102C117.149 154.343 115.498 153.264 113.768 153.264C111.64 153.264 110.238 154.885 110.238 157.232C110.238 159.603 111.62 161.154 113.872 161.154ZM111.725 156.516C111.784 155.432 112.57 154.492 113.778 154.492C114.931 154.492 115.687 155.347 115.692 156.516H111.725ZM118.714 161H120.201V156.337C120.201 155.337 120.971 154.616 122.025 154.616C122.333 154.616 122.681 154.671 122.801 154.706V153.284C122.652 153.264 122.358 153.249 122.169 153.249C121.274 153.249 120.509 153.756 120.23 154.577H120.151V153.364H118.714V161ZM129.725 155.228C129.417 154.04 128.487 153.264 126.837 153.264C125.112 153.264 123.889 154.174 123.889 155.526C123.889 156.61 124.545 157.331 125.977 157.649L127.269 157.933C128.005 158.097 128.348 158.425 128.348 158.902C128.348 159.494 127.717 159.956 126.742 159.956C125.853 159.956 125.281 159.573 125.102 158.822L123.665 159.041C123.914 160.393 125.037 161.154 126.752 161.154C128.597 161.154 129.875 160.175 129.875 158.793C129.875 157.714 129.188 157.048 127.786 156.724L126.573 156.446C125.733 156.247 125.37 155.964 125.375 155.447C125.37 154.86 126.007 154.442 126.852 154.442C127.777 154.442 128.204 154.955 128.378 155.467L129.725 155.228ZM138.263 161.154C140.415 161.154 141.822 159.578 141.822 157.217C141.822 154.84 140.415 153.264 138.263 153.264C136.11 153.264 134.703 154.84 134.703 157.217C134.703 159.578 136.11 161.154 138.263 161.154ZM138.268 159.906C136.861 159.906 136.204 158.678 136.204 157.212C136.204 155.75 136.861 154.507 138.268 154.507C139.665 154.507 140.321 155.75 140.321 157.212C140.321 158.678 139.665 159.906 138.268 159.906ZM147.032 153.364H145.386V152.678C145.386 152.001 145.665 151.634 146.39 151.634C146.699 151.634 146.917 151.703 147.057 151.748L147.405 150.545C147.196 150.465 146.763 150.341 146.162 150.341C144.954 150.341 143.895 151.047 143.895 152.479V153.364H142.716V154.557H143.895V161H145.386V154.557H147.032V153.364ZM157.775 153.493H159.257C159.212 151.862 157.77 150.679 155.702 150.679C153.659 150.679 152.093 151.847 152.093 153.602C152.093 155.019 153.107 155.849 154.743 156.292L155.946 156.62C157.034 156.908 157.875 157.266 157.875 158.171C157.875 159.165 156.925 159.822 155.618 159.822C154.434 159.822 153.45 159.295 153.36 158.186H151.819C151.919 160.031 153.346 161.169 155.627 161.169C158.019 161.169 159.396 159.911 159.396 158.186C159.396 156.352 157.76 155.641 156.468 155.322L155.473 155.064C154.678 154.86 153.619 154.487 153.624 153.513C153.624 152.648 154.414 152.006 155.667 152.006C156.836 152.006 157.666 152.553 157.775 153.493ZM163.251 161.169C164.513 161.169 165.224 160.528 165.508 159.956H165.567V161H167.019V155.929C167.019 153.707 165.269 153.264 164.056 153.264C162.674 153.264 161.401 153.821 160.904 155.213L162.301 155.531C162.52 154.989 163.077 154.467 164.076 154.467C165.035 154.467 165.528 154.969 165.528 155.835V155.869C165.528 156.411 164.971 156.401 163.599 156.56C162.152 156.729 160.67 157.107 160.67 158.842C160.67 160.344 161.799 161.169 163.251 161.169ZM163.574 159.976C162.734 159.976 162.127 159.598 162.127 158.862C162.127 158.067 162.833 157.783 163.693 157.669C164.175 157.604 165.319 157.475 165.533 157.261V158.246C165.533 159.151 164.812 159.976 163.574 159.976ZM170.402 150.818H168.915V161H170.402V150.818ZM175.609 161.154C177.274 161.154 178.452 160.334 178.79 159.091L177.383 158.837C177.115 159.558 176.469 159.926 175.624 159.926C174.351 159.926 173.496 159.101 173.456 157.629H178.885V157.102C178.885 154.343 177.234 153.264 175.504 153.264C173.376 153.264 171.974 154.885 171.974 157.232C171.974 159.603 173.356 161.154 175.609 161.154ZM173.461 156.516C173.521 155.432 174.306 154.492 175.514 154.492C176.668 154.492 177.423 155.347 177.428 156.516H173.461ZM186.173 155.228C185.864 154.04 184.935 153.264 183.284 153.264C181.559 153.264 180.336 154.174 180.336 155.526C180.336 156.61 180.992 157.331 182.424 157.649L183.717 157.933C184.452 158.097 184.795 158.425 184.795 158.902C184.795 159.494 184.164 159.956 183.19 159.956C182.3 159.956 181.728 159.573 181.549 158.822L180.112 159.041C180.361 160.393 181.484 161.154 183.2 161.154C185.044 161.154 186.322 160.175 186.322 158.793C186.322 157.714 185.636 157.048 184.234 156.724L183.021 156.446C182.18 156.247 181.817 155.964 181.822 155.447C181.817 154.86 182.454 154.442 183.299 154.442C184.224 154.442 184.651 154.955 184.825 155.467L186.173 155.228Z" fill="#292B2F"></path><path d="M357.575 154.129C357.227 151.952 355.522 150.679 353.369 150.679C350.734 150.679 348.79 152.653 348.79 155.909C348.79 159.165 350.724 161.139 353.369 161.139C355.607 161.139 357.242 159.737 357.575 157.724L356.024 157.719C355.761 159.021 354.667 159.737 353.379 159.737C351.634 159.737 350.317 158.4 350.317 155.909C350.317 153.438 351.629 152.081 353.384 152.081C354.682 152.081 355.771 152.812 356.024 154.129H357.575ZM361.433 161.169C362.695 161.169 363.406 160.528 363.69 159.956H363.749V161H365.201V155.929C365.201 153.707 363.451 153.264 362.238 153.264C360.856 153.264 359.583 153.821 359.086 155.213L360.483 155.531C360.702 154.989 361.259 154.467 362.258 154.467C363.217 154.467 363.71 154.969 363.71 155.835V155.869C363.71 156.411 363.153 156.401 361.781 156.56C360.334 156.729 358.852 157.107 358.852 158.842C358.852 160.344 359.981 161.169 361.433 161.169ZM361.756 159.976C360.915 159.976 360.309 159.598 360.309 158.862C360.309 158.067 361.015 157.783 361.875 157.669C362.357 157.604 363.501 157.475 363.714 157.261V158.246C363.714 159.151 362.994 159.976 361.756 159.976ZM368.583 156.466C368.583 155.248 369.329 154.552 370.363 154.552C371.372 154.552 371.984 155.213 371.984 156.322V161H373.47V156.143C373.47 154.254 372.431 153.264 370.87 153.264C369.722 153.264 368.971 153.796 368.618 154.607H368.524V153.364H367.097V161H368.583V156.466ZM382.292 161.154C383.958 161.154 385.136 160.334 385.474 159.091L384.067 158.837C383.799 159.558 383.152 159.926 382.307 159.926C381.035 159.926 380.179 159.101 380.14 157.629H385.569V157.102C385.569 154.343 383.918 153.264 382.188 153.264C380.06 153.264 378.658 154.885 378.658 157.232C378.658 159.603 380.04 161.154 382.292 161.154ZM380.145 156.516C380.204 155.432 380.99 154.492 382.198 154.492C383.351 154.492 384.107 155.347 384.112 156.516H380.145ZM389.993 161.149C391.385 161.149 391.932 160.299 392.2 159.812H392.324V161H393.776V150.818H392.29V154.602H392.2C391.932 154.129 391.424 153.264 390.003 153.264C388.158 153.264 386.801 154.721 386.801 157.197C386.801 159.668 388.138 161.149 389.993 161.149ZM390.321 159.881C388.993 159.881 388.302 158.713 388.302 157.182C388.302 155.665 388.978 154.527 390.321 154.527C391.618 154.527 392.314 155.586 392.314 157.182C392.314 158.788 391.603 159.881 390.321 159.881ZM395.814 161H397.3V153.364H395.814V161ZM396.564 152.185C397.076 152.185 397.504 151.788 397.504 151.3C397.504 150.813 397.076 150.411 396.564 150.411C396.047 150.411 395.625 150.813 395.625 151.3C395.625 151.788 396.047 152.185 396.564 152.185ZM402.781 153.364H401.215V151.534H399.728V153.364H398.609V154.557H399.728V159.066C399.723 160.453 400.782 161.124 401.955 161.099C402.428 161.094 402.746 161.005 402.92 160.94L402.651 159.712C402.552 159.732 402.368 159.777 402.129 159.777C401.647 159.777 401.215 159.618 401.215 158.758V154.557H402.781V153.364Z" fill="#646C7A"></path><path d="M420 154L416.188 157.92C416.164 157.945 416.134 157.965 416.102 157.979C416.07 157.993 416.035 158 416 158C415.965 158 415.93 157.993 415.898 157.979C415.866 157.965 415.836 157.945 415.812 157.92L412 154" stroke="#646C7A" stroke-linecap="round" stroke-linejoin="round"></path><rect x="24" y="196" width="32" height="32" rx="16" fill="#4B99EB"></rect><path d="M32.1483 207.273V216H33.4011V209.68H33.4821L36.0559 215.987H37.0957L39.6696 209.685H39.7505V216H41.0034V207.273H39.4054L36.627 214.057H36.5247L33.7463 207.273H32.1483ZM42.9178 216H46.263C48.2914 216 49.2076 214.99 49.2076 213.652C49.2076 212.301 48.2615 211.538 47.3965 211.491V211.406C48.1976 211.202 48.8667 210.656 48.8667 209.565C48.8667 208.274 47.9718 207.273 46.1138 207.273H42.9178V216ZM44.2346 214.871V212.075H46.182C47.2388 212.075 47.8993 212.757 47.8993 213.588C47.8993 214.321 47.4007 214.871 46.1351 214.871H44.2346ZM44.2346 211.048V208.393H46.0328C47.0769 208.393 47.5755 208.943 47.5755 209.668C47.5755 210.511 46.8851 211.048 45.9988 211.048H44.2346Z" fill="white"></path><path d="M69.1186 198.818V209H70.5803V201.627H70.6747L73.6776 208.985H74.8906L77.8935 201.632H77.9879V209H79.4496V198.818H77.5852L74.3438 206.733H74.2244L70.983 198.818H69.1186ZM81.4797 209H82.9662V201.364H81.4797V209ZM82.2305 200.185C82.7425 200.185 83.1701 199.788 83.1701 199.3C83.1701 198.813 82.7425 198.411 82.2305 198.411C81.7134 198.411 81.2908 198.813 81.2908 199.3C81.2908 199.788 81.7134 200.185 82.2305 200.185ZM88.0987 209.154C89.9034 209.154 91.0717 208.07 91.2358 206.584H89.789C89.6001 207.409 88.9588 207.896 88.1086 207.896C86.8508 207.896 86.0405 206.847 86.0405 205.182C86.0405 203.546 86.8657 202.517 88.1086 202.517C89.0532 202.517 89.6299 203.114 89.789 203.83H91.2358C91.0767 202.288 89.8189 201.264 88.0838 201.264C85.9311 201.264 84.539 202.885 84.539 205.217C84.539 207.518 85.8814 209.154 88.0987 209.154ZM94.2279 204.466C94.2279 203.248 94.9985 202.552 96.0575 202.552C97.0816 202.552 97.6931 203.203 97.6931 204.322V209H99.1796V204.143C99.1796 202.239 98.1356 201.264 96.5646 201.264C95.3764 201.264 94.6605 201.781 94.3025 202.607H94.208V198.818H92.7414V209H94.2279V204.466ZM103.302 209.169C104.564 209.169 105.275 208.528 105.559 207.956H105.618V209H107.07V203.929C107.07 201.707 105.32 201.264 104.107 201.264C102.725 201.264 101.452 201.821 100.955 203.213L102.352 203.531C102.571 202.989 103.128 202.467 104.127 202.467C105.086 202.467 105.579 202.969 105.579 203.835V203.869C105.579 204.411 105.022 204.401 103.65 204.56C102.203 204.729 100.721 205.107 100.721 206.842C100.721 208.344 101.85 209.169 103.302 209.169ZM103.625 207.976C102.785 207.976 102.178 207.598 102.178 206.862C102.178 206.067 102.884 205.783 103.744 205.669C104.226 205.604 105.37 205.475 105.584 205.261V206.246C105.584 207.151 104.863 207.976 103.625 207.976ZM112.257 209.154C113.923 209.154 115.101 208.334 115.439 207.091L114.032 206.837C113.764 207.558 113.117 207.926 112.272 207.926C110.999 207.926 110.144 207.101 110.105 205.629H115.533V205.102C115.533 202.343 113.883 201.264 112.153 201.264C110.025 201.264 108.623 202.885 108.623 205.232C108.623 207.603 110.005 209.154 112.257 209.154ZM110.109 204.516C110.169 203.432 110.955 202.492 112.163 202.492C113.316 202.492 114.072 203.347 114.077 204.516H110.109ZM118.585 198.818H117.099V209H118.585V198.818ZM124.242 209H128.144C130.511 209 131.58 207.822 131.58 206.261C131.58 204.685 130.476 203.795 129.467 203.74V203.641C130.401 203.402 131.182 202.766 131.182 201.493C131.182 199.987 130.138 198.818 127.97 198.818H124.242V209ZM125.778 207.683V204.421H128.05C129.283 204.421 130.053 205.217 130.053 206.186C130.053 207.041 129.472 207.683 127.995 207.683H125.778ZM125.778 203.223V200.126H127.876C129.094 200.126 129.675 200.767 129.675 201.612C129.675 202.597 128.87 203.223 127.836 203.223H125.778ZM136.415 209.154C138.568 209.154 139.975 207.578 139.975 205.217C139.975 202.84 138.568 201.264 136.415 201.264C134.262 201.264 132.855 202.84 132.855 205.217C132.855 207.578 134.262 209.154 136.415 209.154ZM136.42 207.906C135.013 207.906 134.357 206.678 134.357 205.212C134.357 203.75 135.013 202.507 136.42 202.507C137.817 202.507 138.473 203.75 138.473 205.212C138.473 206.678 137.817 207.906 136.42 207.906ZM142.973 209H144.484L146.036 203.487H146.15L147.701 209H149.217L151.46 201.364H149.923L148.437 206.947H148.362L146.871 201.364H145.335L143.833 206.972H143.759L142.262 201.364H140.726L142.973 209ZM154.273 198.818H152.786V209H154.273V198.818Z" fill="#292B2F"></path><path d="M68.9205 228H69.9261V223.909C69.9261 222.95 70.625 222.273 71.4091 222.273C72.1719 222.273 72.7045 222.771 72.7045 223.517V228H73.7273V223.739C73.7273 222.895 74.2557 222.273 75.1761 222.273C75.892 222.273 76.5057 222.652 76.5057 223.619V228H77.5114V223.619C77.5114 222.081 76.6847 221.369 75.517 221.369C74.5795 221.369 73.8935 221.8 73.5568 222.477H73.4886C73.1648 221.778 72.5938 221.369 71.733 221.369C70.8807 221.369 70.25 221.778 69.9773 222.477H69.892V221.455H68.9205V228ZM79.3501 228H80.3558V221.455H79.3501V228ZM79.8615 220.364C80.2536 220.364 80.5774 220.057 80.5774 219.682C80.5774 219.307 80.2536 219 79.8615 219C79.4695 219 79.1456 219.307 79.1456 219.682C79.1456 220.057 79.4695 220.364 79.8615 220.364ZM84.8569 228.136C86.3058 228.136 87.2603 227.25 87.4308 226.091H86.4251C86.2376 226.807 85.641 227.233 84.8569 227.233C83.6637 227.233 82.8967 226.244 82.8967 224.727C82.8967 223.244 83.6808 222.273 84.8569 222.273C85.7433 222.273 86.2717 222.818 86.4251 223.415H87.4308C87.2603 222.188 86.2205 221.369 84.8398 221.369C83.0671 221.369 81.891 222.767 81.891 224.761C81.891 226.722 83.016 228.136 84.8569 228.136ZM89.9066 224.062C89.9066 222.92 90.6353 222.273 91.6282 222.273C92.5742 222.273 93.1452 222.869 93.1452 223.909V228H94.1509V223.841C94.1509 222.158 93.256 221.369 91.918 221.369C90.8867 221.369 90.2987 221.8 89.9918 222.477H89.9066V219.273H88.9009V228H89.9066V224.062ZM97.9169 228.153C99.0589 228.153 99.6555 227.54 99.8601 227.114H99.9112V228H100.917V223.688C100.917 221.608 99.3317 221.369 98.4964 221.369C97.5078 221.369 96.3828 221.71 95.8714 222.903L96.826 223.244C97.0476 222.767 97.5717 222.256 98.5305 222.256C99.4553 222.256 99.9112 222.746 99.9112 223.585V223.619C99.9112 224.105 99.4169 224.062 98.2237 224.216C97.0092 224.374 95.6839 224.642 95.6839 226.142C95.6839 227.42 96.6726 228.153 97.9169 228.153ZM98.0703 227.25C97.2692 227.25 96.6896 226.892 96.6896 226.193C96.6896 225.426 97.3885 225.188 98.1726 225.085C98.5987 225.034 99.7408 224.915 99.9112 224.71V225.631C99.9112 226.449 99.2635 227.25 98.0703 227.25ZM105.497 228.136C106.826 228.136 107.798 227.472 108.105 226.483L107.133 226.21C106.877 226.892 106.285 227.233 105.497 227.233C104.316 227.233 103.502 226.47 103.456 225.068H108.207V224.642C108.207 222.205 106.758 221.369 105.395 221.369C103.622 221.369 102.446 222.767 102.446 224.778C102.446 226.79 103.605 228.136 105.497 228.136ZM103.456 224.199C103.524 223.18 104.244 222.273 105.395 222.273C106.485 222.273 107.184 223.091 107.184 224.199H103.456ZM110.743 219.273H109.737V228H110.743V219.273ZM113.317 228.068C113.739 228.068 114.085 227.723 114.085 227.301C114.085 226.879 113.739 226.534 113.317 226.534C112.896 226.534 112.55 226.879 112.55 227.301C112.55 227.723 112.896 228.068 113.317 228.068ZM116.026 228H116.997V226.994H117.116C117.338 227.352 117.764 228.136 119.026 228.136C120.662 228.136 121.804 226.824 121.804 224.744C121.804 222.682 120.662 221.369 119.009 221.369C117.73 221.369 117.338 222.153 117.116 222.494H117.031V219.273H116.026V228ZM117.014 224.727C117.014 223.261 117.662 222.273 118.889 222.273C120.168 222.273 120.798 223.347 120.798 224.727C120.798 226.125 120.151 227.233 118.889 227.233C117.679 227.233 117.014 226.21 117.014 224.727ZM126.001 228.136C127.774 228.136 128.967 226.79 128.967 224.761C128.967 222.716 127.774 221.369 126.001 221.369C124.229 221.369 123.036 222.716 123.036 224.761C123.036 226.79 124.229 228.136 126.001 228.136ZM126.001 227.233C124.655 227.233 124.041 226.074 124.041 224.761C124.041 223.449 124.655 222.273 126.001 222.273C127.348 222.273 127.962 223.449 127.962 224.761C127.962 226.074 127.348 227.233 126.001 227.233ZM131.763 228H132.751L134.183 222.972H134.286L135.717 228H136.706L138.7 221.455H137.643L136.229 226.449H136.161L134.78 221.455H133.706L132.308 226.466H132.24L130.825 221.455H129.768L131.763 228ZM141.036 219.273H140.03V228H141.036V219.273ZM147.906 230.301C148.775 230.301 149.883 230.045 150.412 229.824L150.173 229.04C149.866 229.142 148.877 229.483 147.94 229.483C145.025 229.483 143.474 227.847 143.474 224.949C143.474 222.102 145.059 220.398 147.735 220.398C150.446 220.398 151.724 222.307 151.724 224.216C151.724 226.159 151.52 227.028 150.65 227.028C150.139 227.028 149.866 226.602 149.866 226.125V222.273H148.963V222.75H148.912C148.792 222.375 148.127 222.051 147.275 222.136C145.997 222.273 145.025 223.33 145.025 224.864C145.025 226.483 145.792 227.727 147.275 227.778C148.247 227.812 148.758 227.335 148.963 226.841H149.014C149.116 227.574 150.037 227.83 150.633 227.83C152.44 227.83 152.61 225.886 152.61 224.233C152.61 221.898 150.974 219.597 147.787 219.597C144.497 219.597 142.537 221.591 142.537 224.915C142.537 228.358 144.429 230.301 147.906 230.301ZM147.412 226.909C146.304 226.909 145.912 225.903 145.912 224.812C145.912 223.824 146.474 222.972 147.446 222.972C148.468 222.972 149.014 223.381 149.014 224.812C149.014 226.227 148.554 226.909 147.412 226.909ZM158.752 222.92C158.437 221.991 157.729 221.369 156.434 221.369C155.053 221.369 154.031 222.153 154.031 223.261C154.031 224.165 154.567 224.77 155.769 225.051L156.86 225.307C157.521 225.46 157.832 225.776 157.832 226.227C157.832 226.79 157.235 227.25 156.298 227.25C155.475 227.25 154.96 226.896 154.781 226.193L153.826 226.432C154.06 227.544 154.977 228.136 156.315 228.136C157.836 228.136 158.871 227.305 158.871 226.176C158.871 225.264 158.3 224.689 157.133 224.403L156.161 224.165C155.386 223.973 155.036 223.713 155.036 223.21C155.036 222.648 155.633 222.239 156.434 222.239C157.312 222.239 157.674 222.724 157.849 223.176L158.752 222.92ZM160.385 228H161.391V221.455H160.385V228ZM160.897 220.364C161.289 220.364 161.613 220.057 161.613 219.682C161.613 219.307 161.289 219 160.897 219C160.505 219 160.181 219.307 160.181 219.682C160.181 220.057 160.505 220.364 160.897 220.364ZM164.239 219.273H163.233V228H164.239V219.273ZM171.433 221.455H170.342L168.535 226.67H168.467L166.66 221.455H165.569L167.99 228H169.012L171.433 221.455ZM175.27 228.136C176.6 228.136 177.571 227.472 177.878 226.483L176.907 226.21C176.651 226.892 176.059 227.233 175.27 227.233C174.09 227.233 173.276 226.47 173.229 225.068H177.98V224.642C177.98 222.205 176.532 221.369 175.168 221.369C173.395 221.369 172.219 222.767 172.219 224.778C172.219 226.79 173.378 228.136 175.27 228.136ZM173.229 224.199C173.297 223.18 174.017 222.273 175.168 222.273C176.259 222.273 176.958 223.091 176.958 224.199H173.229ZM179.51 228H180.516V223.858C180.516 222.972 181.215 222.324 182.169 222.324C182.438 222.324 182.715 222.375 182.783 222.392V221.369C182.668 221.361 182.404 221.352 182.255 221.352C181.471 221.352 180.789 221.795 180.55 222.443H180.482V221.455H179.51V228ZM184.112 228H185.083V226.994H185.202C185.424 227.352 185.85 228.136 187.112 228.136C188.748 228.136 189.89 226.824 189.89 224.744C189.89 222.682 188.748 221.369 187.094 221.369C185.816 221.369 185.424 222.153 185.202 222.494H185.117V219.273H184.112V228ZM185.1 224.727C185.1 223.261 185.748 222.273 186.975 222.273C188.254 222.273 188.884 223.347 188.884 224.727C188.884 226.125 188.237 227.233 186.975 227.233C185.765 227.233 185.1 226.21 185.1 224.727ZM194.173 228.136C195.502 228.136 196.474 227.472 196.781 226.483L195.809 226.21C195.553 226.892 194.961 227.233 194.173 227.233C192.992 227.233 192.178 226.47 192.131 225.068H196.883V224.642C196.883 222.205 195.434 221.369 194.07 221.369C192.298 221.369 191.121 222.767 191.121 224.778C191.121 226.79 192.281 228.136 194.173 228.136ZM192.131 224.199C192.2 223.18 192.92 222.273 194.07 222.273C195.161 222.273 195.86 223.091 195.86 224.199H192.131ZM201.072 228.136C202.521 228.136 203.475 227.25 203.646 226.091H202.64C202.452 226.807 201.856 227.233 201.072 227.233C199.879 227.233 199.112 226.244 199.112 224.727C199.112 223.244 199.896 222.273 201.072 222.273C201.958 222.273 202.487 222.818 202.64 223.415H203.646C203.475 222.188 202.435 221.369 201.055 221.369C199.282 221.369 198.106 222.767 198.106 224.761C198.106 226.722 199.231 228.136 201.072 228.136ZM205.116 228H206.121V225.55L206.825 224.898L209.275 228H210.553L207.583 224.25L210.349 221.455H209.104L206.241 224.369H206.121V219.273H205.116V228ZM212.376 228.068C212.798 228.068 213.143 227.723 213.143 227.301C213.143 226.879 212.798 226.534 212.376 226.534C211.954 226.534 211.609 226.879 211.609 227.301C211.609 227.723 211.954 228.068 212.376 228.068ZM217.419 228.136C218.681 228.136 219.107 227.352 219.328 226.994H219.448V228H220.419V219.273H219.414V222.494H219.328C219.107 222.153 218.715 221.369 217.436 221.369C215.783 221.369 214.641 222.682 214.641 224.744C214.641 226.824 215.783 228.136 217.419 228.136ZM217.556 227.233C216.294 227.233 215.647 226.125 215.647 224.727C215.647 223.347 216.277 222.273 217.556 222.273C218.783 222.273 219.431 223.261 219.431 224.727C219.431 226.21 218.766 227.233 217.556 227.233ZM225.145 228.136C226.475 228.136 227.446 227.472 227.753 226.483L226.782 226.21C226.526 226.892 225.934 227.233 225.145 227.233C223.965 227.233 223.151 226.47 223.104 225.068H227.855V224.642C227.855 222.205 226.407 221.369 225.043 221.369C223.27 221.369 222.094 222.767 222.094 224.778C222.094 226.79 223.253 228.136 225.145 228.136ZM223.104 224.199C223.172 223.18 223.892 222.273 225.043 222.273C226.134 222.273 226.833 223.091 226.833 224.199H223.104Z" fill="#646C7A"></path><path d="M369.963 211.909C369.963 208.653 368.014 206.679 365.379 206.679C362.734 206.679 360.79 208.653 360.79 211.909C360.79 215.161 362.734 217.139 365.379 217.139C368.014 217.139 369.963 215.165 369.963 211.909ZM368.442 211.909C368.442 214.39 367.129 215.737 365.379 215.737C363.624 215.737 362.317 214.39 362.317 211.909C362.317 209.428 363.624 208.081 365.379 208.081C367.129 208.081 368.442 209.428 368.442 211.909ZM373.331 217H374.842L376.393 211.487H376.507L378.059 217H379.575L381.817 209.364H380.281L378.794 214.947H378.72L377.228 209.364H375.692L374.191 214.972H374.116L372.62 209.364H371.083L373.331 217ZM384.63 212.466C384.63 211.248 385.376 210.552 386.41 210.552C387.419 210.552 388.031 211.213 388.031 212.322V217H389.517V212.143C389.517 210.254 388.478 209.264 386.917 209.264C385.769 209.264 385.018 209.796 384.665 210.607H384.571V209.364H383.144V217H384.63V212.466ZM394.718 217.154C396.384 217.154 397.562 216.334 397.9 215.091L396.493 214.837C396.225 215.558 395.578 215.926 394.733 215.926C393.46 215.926 392.605 215.101 392.565 213.629H397.994V213.102C397.994 210.343 396.344 209.264 394.614 209.264C392.486 209.264 391.084 210.885 391.084 213.232C391.084 215.603 392.466 217.154 394.718 217.154ZM392.57 212.516C392.63 211.432 393.416 210.492 394.624 210.492C395.777 210.492 396.533 211.347 396.538 212.516H392.57ZM399.56 217H401.046V212.337C401.046 211.337 401.817 210.616 402.871 210.616C403.179 210.616 403.527 210.671 403.646 210.706V209.284C403.497 209.264 403.204 209.249 403.015 209.249C402.12 209.249 401.355 209.756 401.076 210.577H400.997V209.364H399.56V217Z" fill="#646C7A"></path><path d="M420 210L416.188 213.92C416.164 213.945 416.134 213.965 416.102 213.979C416.07 213.993 416.035 214 416 214C415.965 214 415.93 213.993 415.898 213.979C415.866 213.965 415.836 213.945 415.812 213.92L412 210" stroke="#646C7A" stroke-linecap="round" stroke-linejoin="round"></path><rect x="24" y="252" width="32" height="32" rx="16" fill="#EB598C"></rect><path d="M32.2362 272H33.5529V268.932H35.3427C37.3668 268.932 38.3683 267.709 38.3683 266.098C38.3683 264.491 37.3754 263.273 35.3469 263.273H32.2362V272ZM33.5529 267.815V264.402H35.2063C36.5103 264.402 37.043 265.109 37.043 266.098C37.043 267.087 36.5103 267.815 35.2234 267.815H33.5529ZM39.9119 263.273V272H41.1648V265.68H41.2457L43.8196 271.987H44.8594L47.4332 265.685H47.5142V272H48.767V263.273H47.169L44.3906 270.057H44.2884L41.5099 263.273H39.9119Z" fill="white"></path><path d="M69.1186 265H70.6548V261.42H72.7429C75.1044 261.42 76.2727 259.994 76.2727 258.114C76.2727 256.24 75.1143 254.818 72.7479 254.818H69.1186V265ZM70.6548 260.118V256.136H72.5838C74.1051 256.136 74.7266 256.961 74.7266 258.114C74.7266 259.268 74.1051 260.118 72.6037 260.118H70.6548ZM81.0659 265.154C82.7313 265.154 83.9096 264.334 84.2477 263.091L82.8407 262.837C82.5723 263.558 81.9259 263.926 81.0808 263.926C79.808 263.926 78.9529 263.101 78.9132 261.629H84.3421V261.102C84.3421 258.343 82.6916 257.264 80.9615 257.264C78.8336 257.264 77.4316 258.885 77.4316 261.232C77.4316 263.603 78.8137 265.154 81.0659 265.154ZM78.9181 260.516C78.9778 259.432 79.7633 258.492 80.9714 258.492C82.1248 258.492 82.8805 259.347 82.8855 260.516H78.9181ZM89.4721 257.364H87.906V255.534H86.4195V257.364H85.3009V258.557H86.4195V263.066C86.4146 264.453 87.4735 265.124 88.6468 265.099C89.1191 265.094 89.4373 265.005 89.6113 264.94L89.3428 263.712C89.2434 263.732 89.0595 263.777 88.8208 263.777C88.3386 263.777 87.906 263.618 87.906 262.758V258.557H89.4721V257.364ZM91.0324 265H92.519V260.337C92.519 259.337 93.2895 258.616 94.3435 258.616C94.6518 258.616 94.9998 258.671 95.1191 258.706V257.284C94.9699 257.264 94.6766 257.249 94.4877 257.249C93.5928 257.249 92.8272 257.756 92.5488 258.577H92.4692V257.364H91.0324V265ZM98.4754 265.169C99.7382 265.169 100.449 264.528 100.733 263.956H100.792V265H102.244V259.929C102.244 257.707 100.494 257.264 99.2808 257.264C97.8987 257.264 96.626 257.821 96.1288 259.213L97.5259 259.531C97.7446 258.989 98.3014 258.467 99.3007 258.467C100.26 258.467 100.752 258.969 100.752 259.835V259.869C100.752 260.411 100.196 260.401 98.8234 260.56C97.3767 260.729 95.8952 261.107 95.8952 262.842C95.8952 264.344 97.0237 265.169 98.4754 265.169ZM98.7986 263.976C97.9584 263.976 97.3519 263.598 97.3519 262.862C97.3519 262.067 98.0578 261.783 98.9179 261.669C99.4002 261.604 100.544 261.475 100.757 261.261V262.246C100.757 263.151 100.037 263.976 98.7986 263.976ZM107.88 254.818V265H109.342V257.627H109.436L112.439 264.985H113.652L116.655 257.632H116.75V265H118.211V254.818H116.347L113.105 262.733H112.986L109.745 254.818H107.88ZM123.533 265.154C125.198 265.154 126.376 264.334 126.714 263.091L125.307 262.837C125.039 263.558 124.393 263.926 123.547 263.926C122.275 263.926 121.42 263.101 121.38 261.629H126.809V261.102C126.809 258.343 125.158 257.264 123.428 257.264C121.3 257.264 119.898 258.885 119.898 261.232C119.898 263.603 121.28 265.154 123.533 265.154ZM121.385 260.516C121.444 259.432 122.23 258.492 123.438 258.492C124.592 258.492 125.347 259.347 125.352 260.516H121.385ZM129.081 267.864C130.309 267.864 131.085 267.222 131.527 266.019L134.684 257.379L133.079 257.364L131.145 263.29H131.065L129.131 257.364H127.54L130.334 265.099L130.15 265.607C129.772 266.621 129.24 266.705 128.425 266.482L128.067 267.7C128.246 267.779 128.634 267.864 129.081 267.864ZM139.019 265.154C140.684 265.154 141.863 264.334 142.201 263.091L140.794 262.837C140.525 263.558 139.879 263.926 139.034 263.926C137.761 263.926 136.906 263.101 136.866 261.629H142.295V261.102C142.295 258.343 140.645 257.264 138.914 257.264C136.787 257.264 135.385 258.885 135.385 261.232C135.385 263.603 136.767 265.154 139.019 265.154ZM136.871 260.516C136.931 259.432 137.716 258.492 138.924 258.492C140.078 258.492 140.833 259.347 140.838 260.516H136.871ZM143.86 265H145.347V260.337C145.347 259.337 146.118 258.616 147.172 258.616C147.48 258.616 147.828 258.671 147.947 258.706V257.284C147.798 257.264 147.505 257.249 147.316 257.249C146.421 257.249 145.655 257.756 145.377 258.577H145.297V257.364H143.86V265Z" fill="#292B2F"></path><path d="M68.9205 284H69.9261V279.909C69.9261 278.95 70.625 278.273 71.4091 278.273C72.1719 278.273 72.7045 278.771 72.7045 279.517V284H73.7273V279.739C73.7273 278.895 74.2557 278.273 75.1761 278.273C75.892 278.273 76.5057 278.652 76.5057 279.619V284H77.5114V279.619C77.5114 278.081 76.6847 277.369 75.517 277.369C74.5795 277.369 73.8935 277.8 73.5568 278.477H73.4886C73.1648 277.778 72.5938 277.369 71.733 277.369C70.8807 277.369 70.25 277.778 69.9773 278.477H69.892V277.455H68.9205V284ZM82.0945 284.136C83.424 284.136 84.3956 283.472 84.7024 282.483L83.7308 282.21C83.4751 282.892 82.8828 283.233 82.0945 283.233C80.9141 283.233 80.1001 282.47 80.0533 281.068H84.8047V280.642C84.8047 278.205 83.3558 277.369 81.9922 277.369C80.2195 277.369 79.0433 278.767 79.0433 280.778C79.0433 282.79 80.2024 284.136 82.0945 284.136ZM80.0533 280.199C80.1214 279.18 80.8416 278.273 81.9922 278.273C83.0831 278.273 83.782 279.091 83.782 280.199H80.0533ZM86.783 286.455C87.6907 286.455 88.3299 285.973 88.7092 284.955L91.4961 277.472L90.3967 277.455L88.5898 282.67H88.5217L86.7148 277.455H85.6239L88.0444 284.034L87.8569 284.545C87.4904 285.543 87.0387 285.636 86.3058 285.449L86.0501 286.335C86.1523 286.386 86.4421 286.455 86.783 286.455ZM95.3366 284.136C96.6662 284.136 97.6378 283.472 97.9446 282.483L96.973 282.21C96.7173 282.892 96.125 283.233 95.3366 283.233C94.1562 283.233 93.3423 282.47 93.2955 281.068H98.0469V280.642C98.0469 278.205 96.598 277.369 95.2344 277.369C93.4616 277.369 92.2855 278.767 92.2855 280.778C92.2855 282.79 93.4446 284.136 95.3366 284.136ZM93.2955 280.199C93.3636 279.18 94.0838 278.273 95.2344 278.273C96.3253 278.273 97.0241 279.091 97.0241 280.199H93.2955ZM99.5767 284H100.582V279.858C100.582 278.972 101.281 278.324 102.236 278.324C102.504 278.324 102.781 278.375 102.849 278.392V277.369C102.734 277.361 102.47 277.352 102.321 277.352C101.537 277.352 100.855 277.795 100.616 278.443H100.548V277.455H99.5767V284ZM104.042 286.455H105.047V282.994H105.132C105.354 283.352 105.78 284.136 107.042 284.136C108.678 284.136 109.82 282.824 109.82 280.744C109.82 278.682 108.678 277.369 107.025 277.369C105.746 277.369 105.354 278.153 105.132 278.494H105.013V277.455H104.042V286.455ZM105.03 280.727C105.03 279.261 105.678 278.273 106.905 278.273C108.184 278.273 108.814 279.347 108.814 280.727C108.814 282.125 108.167 283.233 106.905 283.233C105.695 283.233 105.03 282.21 105.03 280.727ZM114.098 284.136C115.428 284.136 116.4 283.472 116.706 282.483L115.735 282.21C115.479 282.892 114.887 283.233 114.098 283.233C112.918 283.233 112.104 282.47 112.057 281.068H116.809V280.642C116.809 278.205 115.36 277.369 113.996 277.369C112.223 277.369 111.047 278.767 111.047 280.778C111.047 282.79 112.206 284.136 114.098 284.136ZM112.057 280.199C112.125 279.18 112.846 278.273 113.996 278.273C115.087 278.273 115.786 279.091 115.786 280.199H112.057ZM121.185 277.455H119.787V275.886H118.782V277.455H117.793V278.307H118.782V282.398C118.782 283.54 119.702 284.085 120.554 284.085C120.929 284.085 121.168 284.017 121.304 283.966L121.1 283.062C121.015 283.08 120.878 283.114 120.657 283.114C120.213 283.114 119.787 282.977 119.787 282.125V278.307H121.185V277.455ZM122.698 284H123.703V279.858C123.703 278.972 124.402 278.324 125.357 278.324C125.625 278.324 125.902 278.375 125.971 278.392V277.369C125.855 277.361 125.591 277.352 125.442 277.352C124.658 277.352 123.976 277.795 123.738 278.443H123.669V277.455H122.698V284ZM129.089 284.153C130.231 284.153 130.827 283.54 131.032 283.114H131.083V284H132.089V279.688C132.089 277.608 130.504 277.369 129.668 277.369C128.68 277.369 127.555 277.71 127.043 278.903L127.998 279.244C128.219 278.767 128.744 278.256 129.702 278.256C130.627 278.256 131.083 278.746 131.083 279.585V279.619C131.083 280.105 130.589 280.062 129.396 280.216C128.181 280.374 126.856 280.642 126.856 282.142C126.856 283.42 127.844 284.153 129.089 284.153ZM129.242 283.25C128.441 283.25 127.862 282.892 127.862 282.193C127.862 281.426 128.56 281.188 129.344 281.085C129.771 281.034 130.913 280.915 131.083 280.71V281.631C131.083 282.449 130.435 283.25 129.242 283.25ZM136.703 284.119C138.446 284.119 139.66 283.101 139.669 281.682C139.66 280.578 138.923 279.641 137.981 279.466V279.415C138.799 279.202 139.336 278.401 139.345 277.472C139.336 276.142 138.22 275.153 136.703 275.153C135.169 275.153 134.052 276.142 134.061 277.472C134.052 278.401 134.589 279.202 135.424 279.415V279.466C134.466 279.641 133.728 280.578 133.737 281.682C133.728 283.101 134.943 284.119 136.703 284.119ZM136.703 283.182C135.505 283.182 134.768 282.568 134.777 281.631C134.768 280.646 135.582 279.943 136.703 279.943C137.806 279.943 138.62 280.646 138.629 281.631C138.62 282.568 137.883 283.182 136.703 283.182ZM136.703 279.04C135.748 279.04 135.075 278.443 135.083 277.54C135.075 276.653 135.723 276.074 136.703 276.074C137.666 276.074 138.314 276.653 138.322 277.54C138.314 278.443 137.64 279.04 136.703 279.04ZM141.575 284H142.683L146.569 276.261V275.273H140.978V276.21H145.478V276.278L141.575 284ZM153.203 286.301C154.072 286.301 155.18 286.045 155.708 285.824L155.47 285.04C155.163 285.142 154.174 285.483 153.237 285.483C150.322 285.483 148.771 283.847 148.771 280.949C148.771 278.102 150.356 276.398 153.032 276.398C155.743 276.398 157.021 278.307 157.021 280.216C157.021 282.159 156.816 283.028 155.947 283.028C155.436 283.028 155.163 282.602 155.163 282.125V278.273H154.26V278.75H154.208C154.089 278.375 153.424 278.051 152.572 278.136C151.294 278.273 150.322 279.33 150.322 280.864C150.322 282.483 151.089 283.727 152.572 283.778C153.544 283.812 154.055 283.335 154.26 282.841H154.311C154.413 283.574 155.333 283.83 155.93 283.83C157.737 283.83 157.907 281.886 157.907 280.233C157.907 277.898 156.271 275.597 153.083 275.597C149.794 275.597 147.833 277.591 147.833 280.915C147.833 284.358 149.725 286.301 153.203 286.301ZM152.708 282.909C151.6 282.909 151.208 281.903 151.208 280.812C151.208 279.824 151.771 278.972 152.743 278.972C153.765 278.972 154.311 279.381 154.311 280.812C154.311 282.227 153.85 282.909 152.708 282.909ZM162.055 286.591C163.623 286.591 164.884 285.875 164.884 284.188V277.455H163.913V278.494H163.81C163.589 278.153 163.18 277.369 161.901 277.369C160.248 277.369 159.106 278.682 159.106 280.693C159.106 282.739 160.299 283.898 161.884 283.898C163.163 283.898 163.572 283.148 163.793 282.79H163.879V284.119C163.879 285.21 163.112 285.705 162.055 285.705C160.866 285.705 160.448 285.078 160.18 284.716L159.379 285.278C159.788 285.964 160.593 286.591 162.055 286.591ZM162.021 282.994C160.759 282.994 160.112 282.04 160.112 280.676C160.112 279.347 160.742 278.273 162.021 278.273C163.248 278.273 163.896 279.261 163.896 280.676C163.896 282.125 163.231 282.994 162.021 282.994ZM166.725 284H167.731V279.909C167.731 278.95 168.43 278.273 169.214 278.273C169.977 278.273 170.509 278.771 170.509 279.517V284H171.532V279.739C171.532 278.895 172.06 278.273 172.981 278.273C173.697 278.273 174.31 278.652 174.31 279.619V284H175.316V279.619C175.316 278.081 174.489 277.369 173.322 277.369C172.384 277.369 171.698 277.8 171.362 278.477H171.293C170.969 277.778 170.398 277.369 169.538 277.369C168.685 277.369 168.055 277.778 167.782 278.477H167.697V277.455H166.725V284ZM179.081 284.153C180.223 284.153 180.82 283.54 181.024 283.114H181.075V284H182.081V279.688C182.081 277.608 180.496 277.369 179.661 277.369C178.672 277.369 177.547 277.71 177.036 278.903L177.99 279.244C178.212 278.767 178.736 278.256 179.695 278.256C180.619 278.256 181.075 278.746 181.075 279.585V279.619C181.075 280.105 180.581 280.062 179.388 280.216C178.173 280.374 176.848 280.642 176.848 282.142C176.848 283.42 177.837 284.153 179.081 284.153ZM179.234 283.25C178.433 283.25 177.854 282.892 177.854 282.193C177.854 281.426 178.553 281.188 179.337 281.085C179.763 281.034 180.905 280.915 181.075 280.71V281.631C181.075 282.449 180.428 283.25 179.234 283.25ZM183.917 284H184.922V277.455H183.917V284ZM184.428 276.364C184.82 276.364 185.144 276.057 185.144 275.682C185.144 275.307 184.82 275 184.428 275C184.036 275 183.712 275.307 183.712 275.682C183.712 276.057 184.036 276.364 184.428 276.364ZM187.77 275.273H186.764V284H187.77V275.273ZM190.345 284.068C190.767 284.068 191.112 283.723 191.112 283.301C191.112 282.879 190.767 282.534 190.345 282.534C189.923 282.534 189.578 282.879 189.578 283.301C189.578 283.723 189.923 284.068 190.345 284.068ZM195.576 284.136C197.025 284.136 197.979 283.25 198.15 282.091H197.144C196.956 282.807 196.36 283.233 195.576 283.233C194.382 283.233 193.615 282.244 193.615 280.727C193.615 279.244 194.4 278.273 195.576 278.273C196.462 278.273 196.99 278.818 197.144 279.415H198.15C197.979 278.188 196.939 277.369 195.559 277.369C193.786 277.369 192.61 278.767 192.61 280.761C192.61 282.722 193.735 284.136 195.576 284.136ZM202.279 284.136C204.051 284.136 205.245 282.79 205.245 280.761C205.245 278.716 204.051 277.369 202.279 277.369C200.506 277.369 199.313 278.716 199.313 280.761C199.313 282.79 200.506 284.136 202.279 284.136ZM202.279 283.233C200.932 283.233 200.319 282.074 200.319 280.761C200.319 279.449 200.932 278.273 202.279 278.273C203.625 278.273 204.239 279.449 204.239 280.761C204.239 282.074 203.625 283.233 202.279 283.233ZM206.78 284H207.786V279.909C207.786 278.95 208.484 278.273 209.268 278.273C210.031 278.273 210.564 278.771 210.564 279.517V284H211.587V279.739C211.587 278.895 212.115 278.273 213.036 278.273C213.751 278.273 214.365 278.652 214.365 279.619V284H215.371V279.619C215.371 278.081 214.544 277.369 213.376 277.369C212.439 277.369 211.753 277.8 211.416 278.477H211.348C211.024 277.778 210.453 277.369 209.592 277.369C208.74 277.369 208.109 277.778 207.837 278.477H207.751V277.455H206.78V284Z" fill="#646C7A"></path><path d="M357.575 266.129C357.227 263.952 355.522 262.679 353.369 262.679C350.734 262.679 348.79 264.653 348.79 267.909C348.79 271.165 350.724 273.139 353.369 273.139C355.607 273.139 357.242 271.737 357.575 269.724L356.024 269.719C355.761 271.021 354.667 271.737 353.379 271.737C351.634 271.737 350.317 270.4 350.317 267.909C350.317 265.438 351.629 264.081 353.384 264.081C354.682 264.081 355.771 264.812 356.024 266.129H357.575ZM361.433 273.169C362.695 273.169 363.406 272.528 363.69 271.956H363.749V273H365.201V267.929C365.201 265.707 363.451 265.264 362.238 265.264C360.856 265.264 359.583 265.821 359.086 267.213L360.483 267.531C360.702 266.989 361.259 266.467 362.258 266.467C363.217 266.467 363.71 266.969 363.71 267.835V267.869C363.71 268.411 363.153 268.401 361.781 268.56C360.334 268.729 358.852 269.107 358.852 270.842C358.852 272.344 359.981 273.169 361.433 273.169ZM361.756 271.976C360.915 271.976 360.309 271.598 360.309 270.862C360.309 270.067 361.015 269.783 361.875 269.669C362.357 269.604 363.501 269.475 363.714 269.261V270.246C363.714 271.151 362.994 271.976 361.756 271.976ZM368.583 268.466C368.583 267.248 369.329 266.552 370.363 266.552C371.372 266.552 371.984 267.213 371.984 268.322V273H373.47V268.143C373.47 266.254 372.431 265.264 370.87 265.264C369.722 265.264 368.971 265.796 368.618 266.607H368.524V265.364H367.097V273H368.583V268.466ZM382.292 273.154C383.958 273.154 385.136 272.334 385.474 271.091L384.067 270.837C383.799 271.558 383.152 271.926 382.307 271.926C381.035 271.926 380.179 271.101 380.14 269.629H385.569V269.102C385.569 266.343 383.918 265.264 382.188 265.264C380.06 265.264 378.658 266.885 378.658 269.232C378.658 271.603 380.04 273.154 382.292 273.154ZM380.145 268.516C380.204 267.432 380.99 266.492 382.198 266.492C383.351 266.492 384.107 267.347 384.112 268.516H380.145ZM389.993 273.149C391.385 273.149 391.932 272.299 392.2 271.812H392.324V273H393.776V262.818H392.29V266.602H392.2C391.932 266.129 391.424 265.264 390.003 265.264C388.158 265.264 386.801 266.721 386.801 269.197C386.801 271.668 388.138 273.149 389.993 273.149ZM390.321 271.881C388.993 271.881 388.302 270.713 388.302 269.182C388.302 267.665 388.978 266.527 390.321 266.527C391.618 266.527 392.314 267.586 392.314 269.182C392.314 270.788 391.603 271.881 390.321 271.881ZM395.814 273H397.3V265.364H395.814V273ZM396.564 264.185C397.076 264.185 397.504 263.788 397.504 263.3C397.504 262.813 397.076 262.411 396.564 262.411C396.047 262.411 395.625 262.813 395.625 263.3C395.625 263.788 396.047 264.185 396.564 264.185ZM402.781 265.364H401.215V263.534H399.728V265.364H398.609V266.557H399.728V271.066C399.723 272.453 400.782 273.124 401.955 273.099C402.428 273.094 402.746 273.005 402.92 272.94L402.651 271.712C402.552 271.732 402.368 271.777 402.129 271.777C401.647 271.777 401.215 271.618 401.215 270.758V266.557H402.781V265.364Z" fill="#646C7A"></path><path d="M420 266L416.188 269.92C416.164 269.945 416.134 269.965 416.102 269.979C416.07 269.993 416.035 270 416 270C415.965 270 415.93 269.993 415.898 269.979C415.866 269.965 415.836 269.945 415.812 269.92L412 266" stroke="#646C7A" stroke-linecap="round" stroke-linejoin="round"></path><rect x="24" y="308" width="32" height="32" rx="16" fill="#42AD96"></rect><path d="M33.0124 328L33.8136 325.69H37.2227L38.0195 328H39.4173L36.2766 319.273H34.7553L31.6147 328H33.0124ZM34.1971 324.582L35.484 320.858H35.5522L36.8391 324.582H34.1971ZM47.7216 319.273H46.4176V325.682H46.3366L41.8963 319.273H40.6776V328H41.9943V321.599H42.0753L46.5114 328H47.7216V319.273Z" fill="white"></path><path d="M69.1186 321H70.6548V317.42H72.7429C75.1044 317.42 76.2727 315.994 76.2727 314.114C76.2727 312.24 75.1143 310.818 72.7479 310.818H69.1186V321ZM70.6548 316.118V312.136H72.5838C74.1051 312.136 74.7266 312.961 74.7266 314.114C74.7266 315.268 74.1051 316.118 72.6037 316.118H70.6548ZM81.0659 321.154C82.7313 321.154 83.9096 320.334 84.2477 319.091L82.8407 318.837C82.5723 319.558 81.9259 319.926 81.0808 319.926C79.808 319.926 78.9529 319.101 78.9132 317.629H84.3421V317.102C84.3421 314.343 82.6916 313.264 80.9615 313.264C78.8336 313.264 77.4316 314.885 77.4316 317.232C77.4316 319.603 78.8137 321.154 81.0659 321.154ZM78.9181 316.516C78.9778 315.432 79.7633 314.492 80.9714 314.492C82.1248 314.492 82.8805 315.347 82.8855 316.516H78.9181ZM87.394 316.466C87.394 315.248 88.1397 314.552 89.1738 314.552C90.183 314.552 90.7945 315.213 90.7945 316.322V321H92.281V316.143C92.281 314.254 91.242 313.264 89.6809 313.264C88.5325 313.264 87.7818 313.796 87.4288 314.607H87.3343V313.364H85.9075V321H87.394V316.466ZM97.0493 321.149C98.4414 321.149 98.9882 320.299 99.2567 319.812H99.381V321H100.833V310.818H99.3462V314.602H99.2567C98.9882 314.129 98.4811 313.264 97.0593 313.264C95.2148 313.264 93.8576 314.721 93.8576 317.197C93.8576 319.668 95.1949 321.149 97.0493 321.149ZM97.3774 319.881C96.05 319.881 95.359 318.713 95.359 317.182C95.359 315.665 96.0351 314.527 97.3774 314.527C98.675 314.527 99.371 315.586 99.371 317.182C99.371 318.788 98.6601 319.881 97.3774 319.881ZM102.87 321H104.357V313.364H102.87V321ZM103.621 312.185C104.133 312.185 104.561 311.788 104.561 311.3C104.561 310.813 104.133 310.411 103.621 310.411C103.104 310.411 102.681 310.813 102.681 311.3C102.681 311.788 103.104 312.185 103.621 312.185ZM107.759 316.466C107.759 315.248 108.505 314.552 109.539 314.552C110.548 314.552 111.16 315.213 111.16 316.322V321H112.646V316.143C112.646 314.254 111.607 313.264 110.046 313.264C108.898 313.264 108.147 313.796 107.794 314.607H107.699V313.364H106.273V321H107.759V316.466ZM117.758 324.023C119.701 324.023 121.203 323.133 121.203 321.169V313.364H119.746V314.602H119.637C119.373 314.129 118.846 313.264 117.424 313.264C115.58 313.264 114.223 314.721 114.223 317.152C114.223 319.588 115.61 320.886 117.414 320.886C118.816 320.886 119.358 320.095 119.627 319.608H119.721V321.109C119.721 322.308 118.901 322.825 117.772 322.825C116.535 322.825 116.052 322.203 115.789 321.766L114.511 322.293C114.914 323.227 115.933 324.023 117.758 324.023ZM117.743 319.653C116.415 319.653 115.724 318.634 115.724 317.132C115.724 315.665 116.4 314.527 117.743 314.527C119.04 314.527 119.736 315.586 119.736 317.132C119.736 318.708 119.025 319.653 117.743 319.653ZM124.107 321.094C124.649 321.094 125.101 320.652 125.101 320.1C125.101 319.558 124.649 319.111 124.107 319.111C123.56 319.111 123.112 319.558 123.112 320.1C123.112 320.652 123.56 321.094 124.107 321.094ZM127.821 321.094C128.362 321.094 128.815 320.652 128.815 320.1C128.815 319.558 128.362 319.111 127.821 319.111C127.274 319.111 126.826 319.558 126.826 320.1C126.826 320.652 127.274 321.094 127.821 321.094ZM131.539 321.094C132.081 321.094 132.534 320.652 132.534 320.1C132.534 319.558 132.081 319.111 131.539 319.111C130.992 319.111 130.545 319.558 130.545 320.1C130.545 320.652 130.992 321.094 131.539 321.094Z" fill="#292B2F"></path><path d="M70.8466 340.153C71.9886 340.153 72.5852 339.54 72.7898 339.114H72.8409V340H73.8466V335.688C73.8466 333.608 72.2614 333.369 71.4261 333.369C70.4375 333.369 69.3125 333.71 68.8011 334.903L69.7557 335.244C69.9773 334.767 70.5014 334.256 71.4602 334.256C72.3849 334.256 72.8409 334.746 72.8409 335.585V335.619C72.8409 336.105 72.3466 336.062 71.1534 336.216C69.9389 336.374 68.6136 336.642 68.6136 338.142C68.6136 339.42 69.6023 340.153 70.8466 340.153ZM71 339.25C70.1989 339.25 69.6193 338.892 69.6193 338.193C69.6193 337.426 70.3182 337.188 71.1023 337.085C71.5284 337.034 72.6705 336.915 72.8409 336.71V337.631C72.8409 338.449 72.1932 339.25 71 339.25ZM76.6879 336.062C76.6879 334.92 77.3952 334.273 78.3583 334.273C79.2915 334.273 79.8583 334.882 79.8583 335.909V340H80.864V335.841C80.864 334.17 79.9734 333.369 78.6481 333.369C77.6594 333.369 77.0458 333.812 76.739 334.477H76.6538V333.455H75.6822V340H76.6879V336.062ZM85.1733 340.136C86.4347 340.136 86.8608 339.352 87.0824 338.994H87.2017V340H88.1733V331.273H87.1676V334.494H87.0824C86.8608 334.153 86.4688 333.369 85.1903 333.369C83.5369 333.369 82.3949 334.682 82.3949 336.744C82.3949 338.824 83.5369 340.136 85.1733 340.136ZM85.3097 339.233C84.0483 339.233 83.4006 338.125 83.4006 336.727C83.4006 335.347 84.0312 334.273 85.3097 334.273C86.5369 334.273 87.1847 335.261 87.1847 336.727C87.1847 338.21 86.5199 339.233 85.3097 339.233ZM90.1548 340H91.1605V335.858C91.1605 334.972 91.8594 334.324 92.8139 334.324C93.0824 334.324 93.3594 334.375 93.4276 334.392V333.369C93.3125 333.361 93.0483 333.352 92.8991 333.352C92.1151 333.352 91.4332 333.795 91.1946 334.443H91.1264V333.455H90.1548V340ZM97.1648 340.136C98.4943 340.136 99.4659 339.472 99.7727 338.483L98.8011 338.21C98.5455 338.892 97.9531 339.233 97.1648 339.233C95.9844 339.233 95.1705 338.47 95.1236 337.068H99.875V336.642C99.875 334.205 98.4261 333.369 97.0625 333.369C95.2898 333.369 94.1136 334.767 94.1136 336.778C94.1136 338.79 95.2727 340.136 97.1648 340.136ZM95.1236 336.199C95.1918 335.18 95.9119 334.273 97.0625 334.273C98.1534 334.273 98.8523 335.091 98.8523 336.199H95.1236ZM103.331 340.153C104.473 340.153 105.07 339.54 105.274 339.114H105.325V340H106.331V335.688C106.331 333.608 104.746 333.369 103.911 333.369C102.922 333.369 101.797 333.71 101.286 334.903L102.24 335.244C102.462 334.767 102.986 334.256 103.945 334.256C104.869 334.256 105.325 334.746 105.325 335.585V335.619C105.325 336.105 104.831 336.062 103.638 336.216C102.423 336.374 101.098 336.642 101.098 338.142C101.098 339.42 102.087 340.153 103.331 340.153ZM103.484 339.25C102.683 339.25 102.104 338.892 102.104 338.193C102.104 337.426 102.803 337.188 103.587 337.085C104.013 337.034 105.155 336.915 105.325 336.71V337.631C105.325 338.449 104.678 339.25 103.484 339.25ZM112.803 334.92C112.488 333.991 111.78 333.369 110.485 333.369C109.104 333.369 108.081 334.153 108.081 335.261C108.081 336.165 108.618 336.77 109.82 337.051L110.911 337.307C111.571 337.46 111.882 337.776 111.882 338.227C111.882 338.79 111.286 339.25 110.348 339.25C109.526 339.25 109.01 338.896 108.831 338.193L107.877 338.432C108.111 339.544 109.027 340.136 110.365 340.136C111.887 340.136 112.922 339.305 112.922 338.176C112.922 337.264 112.351 336.689 111.184 336.403L110.212 336.165C109.436 335.973 109.087 335.713 109.087 335.21C109.087 334.648 109.684 334.239 110.485 334.239C111.363 334.239 111.725 334.724 111.9 335.176L112.803 334.92ZM115.169 340.068C115.591 340.068 115.936 339.723 115.936 339.301C115.936 338.879 115.591 338.534 115.169 338.534C114.747 338.534 114.402 338.879 114.402 339.301C114.402 339.723 114.747 340.068 115.169 340.068ZM122.377 334.92C122.062 333.991 121.354 333.369 120.059 333.369C118.678 333.369 117.656 334.153 117.656 335.261C117.656 336.165 118.192 336.77 119.394 337.051L120.485 337.307C121.146 337.46 121.457 337.776 121.457 338.227C121.457 338.79 120.86 339.25 119.923 339.25C119.1 339.25 118.585 338.896 118.406 338.193L117.451 338.432C117.685 339.544 118.602 340.136 119.94 340.136C121.461 340.136 122.496 339.305 122.496 338.176C122.496 337.264 121.925 336.689 120.758 336.403L119.786 336.165C119.011 335.973 118.661 335.713 118.661 335.21C118.661 334.648 119.258 334.239 120.059 334.239C120.937 334.239 121.299 334.724 121.474 335.176L122.377 334.92ZM126.669 340.136C128.118 340.136 129.073 339.25 129.243 338.091H128.238C128.05 338.807 127.453 339.233 126.669 339.233C125.476 339.233 124.709 338.244 124.709 336.727C124.709 335.244 125.493 334.273 126.669 334.273C127.556 334.273 128.084 334.818 128.238 335.415H129.243C129.073 334.188 128.033 333.369 126.652 333.369C124.88 333.369 123.703 334.767 123.703 336.761C123.703 338.722 124.828 340.136 126.669 340.136ZM131.719 336.062C131.719 334.92 132.448 334.273 133.441 334.273C134.387 334.273 134.958 334.869 134.958 335.909V340H135.963V335.841C135.963 334.158 135.069 333.369 133.73 333.369C132.699 333.369 132.111 333.8 131.804 334.477H131.719V331.273H130.713V340H131.719V336.062ZM138.809 336.062C138.809 334.92 139.516 334.273 140.479 334.273C141.413 334.273 141.979 334.882 141.979 335.909V340H142.985V335.841C142.985 334.17 142.094 333.369 140.769 333.369C139.781 333.369 139.167 333.812 138.86 334.477H138.775V333.455H137.803V340H138.809V336.062ZM147.567 340.136C148.897 340.136 149.868 339.472 150.175 338.483L149.203 338.21C148.948 338.892 148.355 339.233 147.567 339.233C146.387 339.233 145.573 338.47 145.526 337.068H150.277V336.642C150.277 334.205 148.828 333.369 147.465 333.369C145.692 333.369 144.516 334.767 144.516 336.778C144.516 338.79 145.675 340.136 147.567 340.136ZM145.526 336.199C145.594 335.18 146.314 334.273 147.465 334.273C148.556 334.273 149.255 335.091 149.255 336.199H145.526ZM151.807 340H152.813V333.455H151.807V340ZM152.319 332.364C152.711 332.364 153.034 332.057 153.034 331.682C153.034 331.307 152.711 331 152.319 331C151.926 331 151.603 331.307 151.603 331.682C151.603 332.057 151.926 332.364 152.319 332.364ZM157.126 340.136C158.388 340.136 158.814 339.352 159.036 338.994H159.155V340H160.126V331.273H159.121V334.494H159.036C158.814 334.153 158.422 333.369 157.143 333.369C155.49 333.369 154.348 334.682 154.348 336.744C154.348 338.824 155.49 340.136 157.126 340.136ZM157.263 339.233C156.001 339.233 155.354 338.125 155.354 336.727C155.354 335.347 155.984 334.273 157.263 334.273C158.49 334.273 159.138 335.261 159.138 336.727C159.138 338.21 158.473 339.233 157.263 339.233ZM164.852 340.136C166.182 340.136 167.153 339.472 167.46 338.483L166.489 338.21C166.233 338.892 165.641 339.233 164.852 339.233C163.672 339.233 162.858 338.47 162.811 337.068H167.562V336.642C167.562 334.205 166.114 333.369 164.75 333.369C162.977 333.369 161.801 334.767 161.801 336.778C161.801 338.79 162.96 340.136 164.852 340.136ZM162.811 336.199C162.879 335.18 163.599 334.273 164.75 334.273C165.841 334.273 166.54 335.091 166.54 336.199H162.811ZM169.092 340H170.098V335.858C170.098 334.972 170.797 334.324 171.751 334.324C172.02 334.324 172.297 334.375 172.365 334.392V333.369C172.25 333.361 171.986 333.352 171.837 333.352C171.053 333.352 170.371 333.795 170.132 334.443H170.064V333.455H169.092V340ZM178.586 342.301C179.455 342.301 180.563 342.045 181.091 341.824L180.853 341.04C180.546 341.142 179.557 341.483 178.62 341.483C175.705 341.483 174.154 339.847 174.154 336.949C174.154 334.102 175.739 332.398 178.415 332.398C181.125 332.398 182.404 334.307 182.404 336.216C182.404 338.159 182.199 339.028 181.33 339.028C180.819 339.028 180.546 338.602 180.546 338.125V334.273H179.642V334.75H179.591C179.472 334.375 178.807 334.051 177.955 334.136C176.676 334.273 175.705 335.33 175.705 336.864C175.705 338.483 176.472 339.727 177.955 339.778C178.926 339.812 179.438 339.335 179.642 338.841H179.694C179.796 339.574 180.716 339.83 181.313 339.83C183.12 339.83 183.29 337.886 183.29 336.233C183.29 333.898 181.654 331.597 178.466 331.597C175.176 331.597 173.216 333.591 173.216 336.915C173.216 340.358 175.108 342.301 178.586 342.301ZM178.091 338.909C176.983 338.909 176.591 337.903 176.591 336.812C176.591 335.824 177.154 334.972 178.125 334.972C179.148 334.972 179.694 335.381 179.694 336.812C179.694 338.227 179.233 338.909 178.091 338.909ZM186.722 340.153C187.864 340.153 188.46 339.54 188.665 339.114H188.716V340H189.722V335.688C189.722 333.608 188.136 333.369 187.301 333.369C186.312 333.369 185.188 333.71 184.676 334.903L185.631 335.244C185.852 334.767 186.376 334.256 187.335 334.256C188.26 334.256 188.716 334.746 188.716 335.585V335.619C188.716 336.105 188.222 336.062 187.028 336.216C185.814 336.374 184.489 336.642 184.489 338.142C184.489 339.42 185.477 340.153 186.722 340.153ZM186.875 339.25C186.074 339.25 185.494 338.892 185.494 338.193C185.494 337.426 186.193 337.188 186.977 337.085C187.403 337.034 188.545 336.915 188.716 336.71V337.631C188.716 338.449 188.068 339.25 186.875 339.25ZM194.216 340.136C195.665 340.136 196.62 339.25 196.79 338.091H195.784C195.597 338.807 195 339.233 194.216 339.233C193.023 339.233 192.256 338.244 192.256 336.727C192.256 335.244 193.04 334.273 194.216 334.273C195.103 334.273 195.631 334.818 195.784 335.415H196.79C196.62 334.188 195.58 333.369 194.199 333.369C192.426 333.369 191.25 334.767 191.25 336.761C191.25 338.722 192.375 340.136 194.216 340.136ZM198.26 340H199.266V335.909C199.266 334.95 199.965 334.273 200.749 334.273C201.512 334.273 202.044 334.771 202.044 335.517V340H203.067V335.739C203.067 334.895 203.596 334.273 204.516 334.273C205.232 334.273 205.846 334.652 205.846 335.619V340H206.851V335.619C206.851 334.081 206.025 333.369 204.857 333.369C203.919 333.369 203.233 333.8 202.897 334.477H202.828C202.505 333.778 201.934 333.369 201.073 333.369C200.221 333.369 199.59 333.778 199.317 334.477H199.232V333.455H198.26V340ZM211.434 340.136C212.764 340.136 213.735 339.472 214.042 338.483L213.071 338.21C212.815 338.892 212.223 339.233 211.434 339.233C210.254 339.233 209.44 338.47 209.393 337.068H214.145V336.642C214.145 334.205 212.696 333.369 211.332 333.369C209.559 333.369 208.383 334.767 208.383 336.778C208.383 338.79 209.542 340.136 211.434 340.136ZM209.393 336.199C209.461 335.18 210.181 334.273 211.332 334.273C212.423 334.273 213.122 335.091 213.122 336.199H209.393ZM216.407 340.068C216.829 340.068 217.174 339.723 217.174 339.301C217.174 338.879 216.829 338.534 216.407 338.534C215.985 338.534 215.64 338.879 215.64 339.301C215.64 339.723 215.985 340.068 216.407 340.068ZM221.638 340.136C223.087 340.136 224.042 339.25 224.212 338.091H223.206C223.019 338.807 222.422 339.233 221.638 339.233C220.445 339.233 219.678 338.244 219.678 336.727C219.678 335.244 220.462 334.273 221.638 334.273C222.525 334.273 223.053 334.818 223.206 335.415H224.212C224.042 334.188 223.002 333.369 221.621 333.369C219.848 333.369 218.672 334.767 218.672 336.761C218.672 338.722 219.797 340.136 221.638 340.136ZM228.341 340.136C230.114 340.136 231.307 338.79 231.307 336.761C231.307 334.716 230.114 333.369 228.341 333.369C226.569 333.369 225.375 334.716 225.375 336.761C225.375 338.79 226.569 340.136 228.341 340.136ZM228.341 339.233C226.995 339.233 226.381 338.074 226.381 336.761C226.381 335.449 226.995 334.273 228.341 334.273C229.688 334.273 230.301 335.449 230.301 336.761C230.301 338.074 229.688 339.233 228.341 339.233ZM232.842 340H233.848V335.909C233.848 334.95 234.547 334.273 235.331 334.273C236.094 334.273 236.626 334.771 236.626 335.517V340H237.649V335.739C237.649 334.895 238.178 334.273 239.098 334.273C239.814 334.273 240.428 334.652 240.428 335.619V340H241.433V335.619C241.433 334.081 240.607 333.369 239.439 333.369C238.501 333.369 237.815 333.8 237.479 334.477H237.411C237.087 333.778 236.516 333.369 235.655 333.369C234.803 333.369 234.172 333.778 233.899 334.477H233.814V333.455H232.842V340Z" fill="#646C7A"></path><path d="M352.575 322.129C352.227 319.952 350.522 318.679 348.369 318.679C345.734 318.679 343.79 320.653 343.79 323.909C343.79 327.165 345.724 329.139 348.369 329.139C350.607 329.139 352.242 327.737 352.575 325.724L351.024 325.719C350.761 327.021 349.667 327.737 348.379 327.737C346.634 327.737 345.317 326.4 345.317 323.909C345.317 321.438 346.629 320.081 348.384 320.081C349.682 320.081 350.771 320.812 351.024 322.129H352.575ZM356.433 329.169C357.695 329.169 358.406 328.528 358.69 327.956H358.749V329H360.201V323.929C360.201 321.707 358.451 321.264 357.238 321.264C355.856 321.264 354.583 321.821 354.086 323.213L355.483 323.531C355.702 322.989 356.259 322.467 357.258 322.467C358.217 322.467 358.71 322.969 358.71 323.835V323.869C358.71 324.411 358.153 324.401 356.781 324.56C355.334 324.729 353.852 325.107 353.852 326.842C353.852 328.344 354.981 329.169 356.433 329.169ZM356.756 327.976C355.915 327.976 355.309 327.598 355.309 326.862C355.309 326.067 356.015 325.783 356.875 325.669C357.357 325.604 358.501 325.475 358.714 325.261V326.246C358.714 327.151 357.994 327.976 356.756 327.976ZM363.583 324.466C363.583 323.248 364.329 322.552 365.363 322.552C366.372 322.552 366.984 323.213 366.984 324.322V329H368.47V324.143C368.47 322.254 367.431 321.264 365.87 321.264C364.722 321.264 363.971 321.796 363.618 322.607H363.524V321.364H362.097V329H363.583V324.466ZM380.534 321.364H378.938L377.009 327.24H376.929L374.995 321.364H373.4L376.174 329H377.765L380.534 321.364ZM381.847 329H383.333V321.364H381.847V329ZM382.598 320.185C383.11 320.185 383.537 319.788 383.537 319.3C383.537 318.813 383.11 318.411 382.598 318.411C382.081 318.411 381.658 318.813 381.658 319.3C381.658 319.788 382.081 320.185 382.598 320.185ZM388.54 329.154C390.206 329.154 391.384 328.334 391.722 327.091L390.315 326.837C390.047 327.558 389.4 327.926 388.555 327.926C387.283 327.926 386.427 327.101 386.388 325.629H391.817V325.102C391.817 322.343 390.166 321.264 388.436 321.264C386.308 321.264 384.906 322.885 384.906 325.232C384.906 327.603 386.288 329.154 388.54 329.154ZM386.393 324.516C386.452 323.432 387.238 322.492 388.446 322.492C389.599 322.492 390.355 323.347 390.36 324.516H386.393ZM395.024 329H396.535L398.086 323.487H398.201L399.752 329H401.268L403.51 321.364H401.974L400.488 326.947H400.413L398.922 321.364H397.385L395.884 326.972H395.809L394.313 321.364H392.777L395.024 329Z" fill="#646C7A"></path><path d="M420 322L416.188 325.92C416.164 325.945 416.134 325.965 416.102 325.979C416.07 325.993 416.035 326 416 326C415.965 326 415.93 325.993 415.898 325.979C415.866 325.965 415.836 325.945 415.812 325.92L412 322" stroke="#646C7A" stroke-linecap="round" stroke-linejoin="round"></path></svg> 