<?xml version="1.0" encoding="UTF-8"?> <svg xmlns="http://www.w3.org/2000/svg" width="552" height="332" viewBox="0 0 552 332" fill="none"><g clip-path="url(#clip0)"><rect width="552" height="424" fill="white"></rect><rect x="16" y="16" width="520" height="56" rx="8" fill="white"></rect><rect x="28" y="28" width="32" height="32" rx="16" fill="#4285EB"></rect><path d="M47.7868 37H38.9231C38.4133 37 38 37.4822 38 38.0769V49.9231C38 50.5178 38.4133 51 38.9231 51H49.0769C49.5867 51 50 50.5178 50 49.9231V39.0675C50 38.7801 49.8763 38.5066 49.6606 38.3167L48.4474 37.2492C48.2648 37.0886 48.03 37 47.7868 37Z" stroke="white" stroke-linecap="round" stroke-linejoin="round"></path><path d="M40.5 44H47.5" stroke="white" stroke-linecap="round" stroke-linejoin="round"></path><path d="M40.5 41L47.5 41" stroke="white" stroke-linecap="round" stroke-linejoin="round"></path><path d="M44 47H40.5" stroke="white" stroke-linecap="round" stroke-linejoin="round"></path><path d="M73.5359 38.8182V49H74.9975V41.6271H75.092L78.0948 48.9851H79.3079L82.3107 41.6321H82.4052V49H83.8668V38.8182H82.0025L78.761 46.733H78.6417L75.4002 38.8182H73.5359ZM85.897 49H87.3835V41.3636H85.897V49ZM86.6477 40.1854C87.1598 40.1854 87.5874 39.7876 87.5874 39.3004C87.5874 38.8132 87.1598 38.4105 86.6477 38.4105C86.1307 38.4105 85.7081 38.8132 85.7081 39.3004C85.7081 39.7876 86.1307 40.1854 86.6477 40.1854ZM92.516 49.1541C94.3207 49.1541 95.489 48.0703 95.653 46.5838H94.2063C94.0174 47.4091 93.3761 47.8963 92.5259 47.8963C91.2681 47.8963 90.4577 46.8473 90.4577 45.1818C90.4577 43.5462 91.283 42.517 92.5259 42.517C93.4705 42.517 94.0472 43.1136 94.2063 43.8295H95.653C95.4939 42.2884 94.2361 41.2642 92.5011 41.2642C90.3484 41.2642 88.9563 42.8849 88.9563 45.2166C88.9563 47.5185 90.2986 49.1541 92.516 49.1541ZM98.6452 44.4659C98.6452 43.2479 99.4158 42.5518 100.475 42.5518C101.499 42.5518 102.11 43.2031 102.11 44.3217V49H103.597V44.1428C103.597 42.2386 102.553 41.2642 100.982 41.2642C99.7936 41.2642 99.0777 41.7812 98.7198 42.6065H98.6253V38.8182H97.1587V49H98.6452V44.4659ZM107.719 49.169C108.982 49.169 109.693 48.5277 109.976 47.956H110.036V49H111.487V43.929C111.487 41.7067 109.737 41.2642 108.524 41.2642C107.142 41.2642 105.869 41.821 105.372 43.2131L106.769 43.5312C106.988 42.9893 107.545 42.4673 108.544 42.4673C109.504 42.4673 109.996 42.9695 109.996 43.8345V43.8693C109.996 44.4112 109.439 44.4013 108.067 44.5604C106.62 44.7294 105.139 45.1072 105.139 46.8423C105.139 48.3438 106.267 49.169 107.719 49.169ZM108.042 47.9759C107.202 47.9759 106.595 47.598 106.595 46.8622C106.595 46.0668 107.301 45.7834 108.161 45.669C108.644 45.6044 109.787 45.4751 110.001 45.2614V46.2457C110.001 47.1506 109.28 47.9759 108.042 47.9759ZM116.674 49.1541C118.34 49.1541 119.518 48.3338 119.856 47.0909L118.449 46.8374C118.181 47.5582 117.535 47.9261 116.689 47.9261C115.417 47.9261 114.562 47.1009 114.522 45.6293H119.951V45.1023C119.951 42.343 118.3 41.2642 116.57 41.2642C114.442 41.2642 113.04 42.8849 113.04 45.2315C113.04 47.603 114.422 49.1541 116.674 49.1541ZM114.527 44.5156C114.586 43.4318 115.372 42.4922 116.58 42.4922C117.733 42.4922 118.489 43.3473 118.494 44.5156H114.527ZM123.003 38.8182H121.516V49H123.003V38.8182ZM128.659 49H132.562C134.928 49 135.997 47.8217 135.997 46.2607C135.997 44.6847 134.893 43.7947 133.884 43.7401V43.6406C134.819 43.402 135.599 42.7656 135.599 41.4929C135.599 39.9865 134.555 38.8182 132.387 38.8182H128.659V49ZM130.195 47.6825V44.4212H132.467C133.7 44.4212 134.471 45.2166 134.471 46.1861C134.471 47.0412 133.889 47.6825 132.412 47.6825H130.195ZM130.195 43.223V40.1257H132.293C133.511 40.1257 134.093 40.767 134.093 41.6122C134.093 42.5966 133.287 43.223 132.253 43.223H130.195ZM140.832 49.1541C142.985 49.1541 144.392 47.5781 144.392 45.2166C144.392 42.8402 142.985 41.2642 140.832 41.2642C138.68 41.2642 137.273 42.8402 137.273 45.2166C137.273 47.5781 138.68 49.1541 140.832 49.1541ZM140.837 47.9062C139.43 47.9062 138.774 46.6783 138.774 45.2116C138.774 43.75 139.43 42.5071 140.837 42.5071C142.234 42.5071 142.891 43.75 142.891 45.2116C142.891 46.6783 142.234 47.9062 140.837 47.9062ZM147.39 49H148.902L150.453 43.4865H150.567L152.118 49H153.635L155.877 41.3636H154.341L152.854 46.9467H152.78L151.288 41.3636H149.752L148.25 46.9716H148.176L146.679 41.3636H145.143L147.39 49ZM158.69 38.8182H157.203V49H158.69V38.8182Z" fill="#2D2F33"></path><path d="M164.659 44.7741C164.659 47.2699 165.326 49.348 166.588 51.1179H167.951C166.971 49.8054 166.201 47.1406 166.201 44.7741C166.201 42.4126 166.971 39.7479 167.951 38.4354H166.588C165.326 40.2053 164.659 42.2834 164.659 44.7741ZM168.768 38.8182L172.462 45.0028V49H173.993V45.0028L177.687 38.8182H175.942L173.282 43.4467H173.173L170.513 38.8182H168.768ZM180.906 49.1541C183.059 49.1541 184.466 47.5781 184.466 45.2166C184.466 42.8402 183.059 41.2642 180.906 41.2642C178.754 41.2642 177.347 42.8402 177.347 45.2166C177.347 47.5781 178.754 49.1541 180.906 49.1541ZM180.911 47.9062C179.504 47.9062 178.848 46.6783 178.848 45.2116C178.848 43.75 179.504 42.5071 180.911 42.5071C182.308 42.5071 182.965 43.75 182.965 45.2116C182.965 46.6783 182.308 47.9062 180.911 47.9062ZM190.879 45.8331C190.884 47.1307 189.919 47.7472 189.084 47.7472C188.164 47.7472 187.528 47.081 187.528 46.0419V41.3636H186.041V46.2209C186.041 48.1151 187.08 49.0994 188.547 49.0994C189.695 49.0994 190.476 48.4929 190.829 47.6776H190.909V49H192.37V41.3636H190.879V45.8331ZM197.142 44.7791C197.142 42.2834 196.476 40.2053 195.213 38.4354H193.851C194.83 39.7479 195.601 42.4126 195.601 44.7791C195.601 47.1406 194.83 49.8054 193.851 51.1179H195.213C196.476 49.348 197.142 47.2699 197.142 44.7791Z" fill="#696F80"></path><path d="M206.288 49.1591C207.979 49.1591 209.092 48.125 209.291 46.7727H208.118C207.899 47.608 207.203 48.1051 206.288 48.1051C204.896 48.1051 204.002 46.9517 204.002 45.1818C204.002 43.4517 204.916 42.3182 206.288 42.3182C207.323 42.3182 207.939 42.9545 208.118 43.6506H209.291C209.092 42.2188 207.879 41.2642 206.269 41.2642C204.2 41.2642 202.828 42.8949 202.828 45.2216C202.828 47.5085 204.141 49.1591 206.288 49.1591ZM210.922 49H212.096V44.1676C212.096 43.1335 212.911 42.3778 214.025 42.3778C214.338 42.3778 214.661 42.4375 214.741 42.4574V41.2642C214.606 41.2543 214.298 41.2443 214.124 41.2443C213.209 41.2443 212.414 41.7614 212.136 42.517H212.056V41.3636H210.922V49ZM219.017 49.1591C220.568 49.1591 221.701 48.3835 222.059 47.2301L220.926 46.9119C220.628 47.7074 219.936 48.1051 219.017 48.1051C217.64 48.1051 216.69 47.2152 216.635 45.5795H222.179V45.0824C222.179 42.2386 220.488 41.2642 218.897 41.2642C216.829 41.2642 215.457 42.8949 215.457 45.2415C215.457 47.5881 216.809 49.1591 219.017 49.1591ZM216.635 44.5653C216.715 43.3771 217.555 42.3182 218.897 42.3182C220.17 42.3182 220.985 43.2727 220.985 44.5653H216.635ZM226.127 49.179C227.459 49.179 228.155 48.4631 228.394 47.9659H228.453V49H229.627V43.9688C229.627 41.5426 227.777 41.2642 226.803 41.2642C225.649 41.2642 224.337 41.6619 223.74 43.054L224.854 43.4517C225.112 42.8949 225.724 42.2983 226.843 42.2983C227.921 42.2983 228.453 42.87 228.453 43.8494V43.8892C228.453 44.456 227.877 44.4062 226.485 44.5852C225.068 44.7692 223.522 45.0824 223.522 46.8324C223.522 48.3239 224.675 49.179 226.127 49.179ZM226.306 48.125C225.371 48.125 224.695 47.7074 224.695 46.892C224.695 45.9972 225.51 45.7188 226.425 45.5994C226.922 45.5398 228.254 45.4006 228.453 45.1619V46.2358C228.453 47.1903 227.698 48.125 226.306 48.125ZM235.005 41.3636H233.374V39.5341H232.201V41.3636H231.048V42.358H232.201V47.1307C232.201 48.4631 233.275 49.0994 234.269 49.0994C234.707 49.0994 234.985 49.0199 235.144 48.9602L234.906 47.9062C234.806 47.9261 234.647 47.9659 234.389 47.9659C233.872 47.9659 233.374 47.8068 233.374 46.8125V42.358H235.005V41.3636ZM239.806 49.1591C241.357 49.1591 242.49 48.3835 242.848 47.2301L241.715 46.9119C241.417 47.7074 240.725 48.1051 239.806 48.1051C238.429 48.1051 237.479 47.2152 237.424 45.5795H242.968V45.0824C242.968 42.2386 241.277 41.2642 239.686 41.2642C237.618 41.2642 236.246 42.8949 236.246 45.2415C236.246 47.5881 237.598 49.1591 239.806 49.1591ZM237.424 44.5653C237.504 43.3771 238.344 42.3182 239.686 42.3182C240.959 42.3182 241.775 43.2727 241.775 44.5653H237.424ZM247.552 49.1591C249.024 49.1591 249.521 48.2443 249.779 47.8267H249.918V49H251.052V38.8182H249.879V42.5767H249.779C249.521 42.179 249.063 41.2642 247.572 41.2642C245.643 41.2642 244.311 42.7955 244.311 45.2017C244.311 47.6278 245.643 49.1591 247.552 49.1591ZM247.711 48.1051C246.239 48.1051 245.484 46.8125 245.484 45.1818C245.484 43.571 246.22 42.3182 247.711 42.3182C249.143 42.3182 249.899 43.4716 249.899 45.1818C249.899 46.9119 249.123 48.1051 247.711 48.1051ZM259.38 49.179C260.713 49.179 261.409 48.4631 261.647 47.9659H261.707V49H262.88V43.9688C262.88 41.5426 261.031 41.2642 260.057 41.2642C258.903 41.2642 257.591 41.6619 256.994 43.054L258.108 43.4517C258.366 42.8949 258.978 42.2983 260.096 42.2983C261.175 42.2983 261.707 42.87 261.707 43.8494V43.8892C261.707 44.456 261.13 44.4062 259.738 44.5852C258.321 44.7692 256.775 45.0824 256.775 46.8324C256.775 48.3239 257.929 49.179 259.38 49.179ZM259.559 48.125C258.625 48.125 257.949 47.7074 257.949 46.892C257.949 45.9972 258.764 45.7188 259.679 45.5994C260.176 45.5398 261.508 45.4006 261.707 45.1619V46.2358C261.707 47.1903 260.951 48.125 259.559 48.125ZM271.894 49.1591C273.584 49.1591 274.698 48.125 274.897 46.7727H273.723C273.505 47.608 272.808 48.1051 271.894 48.1051C270.502 48.1051 269.607 46.9517 269.607 45.1818C269.607 43.4517 270.522 42.3182 271.894 42.3182C272.928 42.3182 273.544 42.9545 273.723 43.6506H274.897C274.698 42.2188 273.485 41.2642 271.874 41.2642C269.806 41.2642 268.433 42.8949 268.433 45.2216C268.433 47.5085 269.746 49.1591 271.894 49.1591ZM279.63 49.1591C281.698 49.1591 283.09 47.5881 283.09 45.2216C283.09 42.8352 281.698 41.2642 279.63 41.2642C277.562 41.2642 276.17 42.8352 276.17 45.2216C276.17 47.5881 277.562 49.1591 279.63 49.1591ZM279.63 48.1051C278.059 48.1051 277.343 46.7528 277.343 45.2216C277.343 43.6903 278.059 42.3182 279.63 42.3182C281.201 42.3182 281.917 43.6903 281.917 45.2216C281.917 46.7528 281.201 48.1051 279.63 48.1051ZM285.971 44.4062C285.971 43.0739 286.796 42.3182 287.919 42.3182C289.008 42.3182 289.669 43.0291 289.669 44.2273V49H290.843V44.1477C290.843 42.1989 289.804 41.2642 288.258 41.2642C287.104 41.2642 286.388 41.7812 286.03 42.5568H285.931V41.3636H284.797V49H285.971V44.4062ZM296.224 41.3636H294.593V39.5341H293.42V41.3636H292.266V42.358H293.42V47.1307C293.42 48.4631 294.494 49.0994 295.488 49.0994C295.925 49.0994 296.204 49.0199 296.363 48.9602L296.124 47.9062C296.025 47.9261 295.866 47.9659 295.607 47.9659C295.09 47.9659 294.593 47.8068 294.593 46.8125V42.358H296.224V41.3636ZM297.905 49H299.078V44.1676C299.078 43.1335 299.893 42.3778 301.007 42.3778C301.32 42.3778 301.643 42.4375 301.723 42.4574V41.2642C301.589 41.2543 301.28 41.2443 301.106 41.2443C300.192 41.2443 299.396 41.7614 299.118 42.517H299.038V41.3636H297.905V49ZM305.277 49.179C306.609 49.179 307.305 48.4631 307.544 47.9659H307.604V49H308.777V43.9688C308.777 41.5426 306.927 41.2642 305.953 41.2642C304.8 41.2642 303.487 41.6619 302.89 43.054L304.004 43.4517C304.263 42.8949 304.874 42.2983 305.993 42.2983C307.072 42.2983 307.604 42.87 307.604 43.8494V43.8892C307.604 44.456 307.027 44.4062 305.635 44.5852C304.218 44.7692 302.672 45.0824 302.672 46.8324C302.672 48.3239 303.825 49.179 305.277 49.179ZM305.456 48.125C304.521 48.125 303.845 47.7074 303.845 46.892C303.845 45.9972 304.66 45.7188 305.575 45.5994C306.072 45.5398 307.405 45.4006 307.604 45.1619V46.2358C307.604 47.1903 306.848 48.125 305.456 48.125ZM313.937 49.1591C315.627 49.1591 316.741 48.125 316.939 46.7727H315.766C315.547 47.608 314.851 48.1051 313.937 48.1051C312.545 48.1051 311.65 46.9517 311.65 45.1818C311.65 43.4517 312.564 42.3182 313.937 42.3182C314.971 42.3182 315.587 42.9545 315.766 43.6506H316.939C316.741 42.2188 315.528 41.2642 313.917 41.2642C311.849 41.2642 310.476 42.8949 310.476 45.2216C310.476 47.5085 311.789 49.1591 313.937 49.1591ZM321.892 41.3636H320.261V39.5341H319.088V41.3636H317.934V42.358H319.088V47.1307C319.088 48.4631 320.162 49.0994 321.156 49.0994C321.593 49.0994 321.872 49.0199 322.031 48.9602L321.792 47.9062C321.693 47.9261 321.534 47.9659 321.275 47.9659C320.758 47.9659 320.261 47.8068 320.261 46.8125V42.358H321.892V41.3636Z" fill="#696F80"></path><path d="M331.903 49H337.409V48.0625H333.352V47.9943L335.312 45.8977C336.812 44.2912 337.256 43.5412 337.256 42.5739C337.256 41.2273 336.165 40.1534 334.631 40.1534C333.101 40.1534 331.938 41.1932 331.938 42.7273H332.943C332.943 41.7344 333.587 41.0739 334.597 41.0739C335.543 41.0739 336.267 41.6534 336.267 42.5739C336.267 43.3793 335.794 43.9759 334.784 45.0795L331.903 48.233V49ZM345.033 49.1364C346.294 49.1364 346.72 48.3523 346.942 47.9943H347.061V49H348.033V40.2727H347.027V43.4943H346.942C346.72 43.1534 346.328 42.3693 345.05 42.3693C343.396 42.3693 342.254 43.6818 342.254 45.7443C342.254 47.8239 343.396 49.1364 345.033 49.1364ZM345.169 48.233C343.908 48.233 343.26 47.125 343.26 45.7273C343.26 44.3466 343.891 43.2727 345.169 43.2727C346.396 43.2727 347.044 44.2614 347.044 45.7273C347.044 47.2102 346.379 48.233 345.169 48.233ZM351.94 49.1534C353.082 49.1534 353.679 48.5398 353.884 48.1136H353.935V49H354.94V44.6875C354.94 42.608 353.355 42.3693 352.52 42.3693C351.531 42.3693 350.406 42.7102 349.895 43.9034L350.849 44.2443C351.071 43.767 351.595 43.2557 352.554 43.2557C353.479 43.2557 353.935 43.7457 353.935 44.5852V44.6193C353.935 45.1051 353.44 45.0625 352.247 45.2159C351.033 45.3736 349.707 45.642 349.707 47.142C349.707 48.4205 350.696 49.1534 351.94 49.1534ZM352.094 48.25C351.293 48.25 350.713 47.892 350.713 47.1932C350.713 46.4261 351.412 46.1875 352.196 46.0852C352.622 46.0341 353.764 45.9148 353.935 45.7102V46.6307C353.935 47.4489 353.287 48.25 352.094 48.25ZM357.189 51.4545C358.097 51.4545 358.736 50.973 359.115 49.9545L361.902 42.4716L360.803 42.4545L358.996 47.6705H358.928L357.121 42.4545H356.03L358.451 49.0341L358.263 49.5455C357.897 50.5426 357.445 50.6364 356.712 50.4489L356.456 51.3352C356.559 51.3864 356.848 51.4545 357.189 51.4545ZM368.534 49.1534C369.676 49.1534 370.273 48.5398 370.477 48.1136H370.528V49H371.534V44.6875C371.534 42.608 369.949 42.3693 369.114 42.3693C368.125 42.3693 367 42.7102 366.489 43.9034L367.443 44.2443C367.665 43.767 368.189 43.2557 369.148 43.2557C370.072 43.2557 370.528 43.7457 370.528 44.5852V44.6193C370.528 45.1051 370.034 45.0625 368.841 45.2159C367.626 45.3736 366.301 45.642 366.301 47.142C366.301 48.4205 367.29 49.1534 368.534 49.1534ZM368.688 48.25C367.886 48.25 367.307 47.892 367.307 47.1932C367.307 46.4261 368.006 46.1875 368.79 46.0852C369.216 46.0341 370.358 45.9148 370.528 45.7102V46.6307C370.528 47.4489 369.881 48.25 368.688 48.25ZM376.012 51.5909C377.58 51.5909 378.841 50.875 378.841 49.1875V42.4545H377.87V43.4943H377.767C377.546 43.1534 377.137 42.3693 375.858 42.3693C374.205 42.3693 373.063 43.6818 373.063 45.6932C373.063 47.7386 374.256 48.8977 375.841 48.8977C377.12 48.8977 377.529 48.1477 377.75 47.7898H377.836V49.1193C377.836 50.2102 377.069 50.7045 376.012 50.7045C374.823 50.7045 374.405 50.0781 374.137 49.7159L373.336 50.2784C373.745 50.9645 374.55 51.5909 376.012 51.5909ZM375.978 47.9943C374.716 47.9943 374.069 47.0398 374.069 45.6761C374.069 44.3466 374.699 43.2727 375.978 43.2727C377.205 43.2727 377.853 44.2614 377.853 45.6761C377.853 47.125 377.188 47.9943 375.978 47.9943ZM383.341 49.1364C385.114 49.1364 386.307 47.7898 386.307 45.7614C386.307 43.7159 385.114 42.3693 383.341 42.3693C381.569 42.3693 380.375 43.7159 380.375 45.7614C380.375 47.7898 381.569 49.1364 383.341 49.1364ZM383.341 48.233C381.995 48.233 381.381 47.0739 381.381 45.7614C381.381 44.4489 381.995 43.2727 383.341 43.2727C384.688 43.2727 385.301 44.4489 385.301 45.7614C385.301 47.0739 384.688 48.233 383.341 48.233Z" fill="#696F80"></path><rect x="16" y="72" width="520" height="56" rx="8" fill="white"></rect><rect x="28" y="84" width="32" height="32" rx="16" fill="#677A8F"></rect><path d="M50.5 98.8139L44.1577 105.327C43.4263 106.078 42.4344 106.5 41.4 106.5C40.3657 106.5 39.3737 106.078 38.6423 105.327C37.9109 104.576 37.5 103.557 37.5 102.495C37.5 101.433 37.9109 100.415 38.6423 99.6635L43.8515 94.3151C44.0914 94.0601 44.3783 93.8567 44.6955 93.7168C45.0127 93.5768 45.3539 93.5032 45.6991 93.5001C46.0443 93.497 46.3867 93.5646 46.7062 93.6988C47.0257 93.833 47.316 94.0313 47.5601 94.282C47.8043 94.5326 47.9973 94.8307 48.1281 95.1588C48.2588 95.4869 48.3246 95.8385 48.3216 96.193C48.3186 96.5475 48.2468 96.8978 48.1106 97.2235C47.9743 97.5493 47.7762 97.8439 47.5279 98.0901L42.3193 103.442C42.0741 103.685 41.7458 103.819 41.4049 103.816C41.064 103.813 40.738 103.673 40.4969 103.426C40.2558 103.178 40.1191 102.843 40.116 102.493C40.113 102.143 40.244 101.806 40.4808 101.554L45.69 96.2035" stroke="white" stroke-linecap="round" stroke-linejoin="round"></path><path d="M73.1794 94.8182V105H74.6411V97.6271H74.7356L77.7384 104.985H78.9515L81.9543 97.6321H82.0488V105H83.5104V94.8182H81.6461L78.4046 102.733H78.2853L75.0438 94.8182H73.1794ZM85.5406 105H87.0271V97.3636H85.5406V105ZM86.2913 96.1854C86.8034 96.1854 87.2309 95.7876 87.2309 95.3004C87.2309 94.8132 86.8034 94.4105 86.2913 94.4105C85.7742 94.4105 85.3517 94.8132 85.3517 95.3004C85.3517 95.7876 85.7742 96.1854 86.2913 96.1854ZM92.1595 105.154C93.9642 105.154 95.1325 104.07 95.2966 102.584H93.8499C93.6609 103.409 93.0196 103.896 92.1695 103.896C90.9117 103.896 90.1013 102.847 90.1013 101.182C90.1013 99.5462 90.9266 98.517 92.1695 98.517C93.1141 98.517 93.6908 99.1136 93.8499 99.8295H95.2966C95.1375 98.2884 93.8797 97.2642 92.1446 97.2642C89.9919 97.2642 88.5999 98.8849 88.5999 101.217C88.5999 103.518 89.9422 105.154 92.1595 105.154ZM98.2888 100.466C98.2888 99.2479 99.0594 98.5518 100.118 98.5518C101.142 98.5518 101.754 99.2031 101.754 100.322V105H103.24V100.143C103.24 98.2386 102.196 97.2642 100.625 97.2642C99.4372 97.2642 98.7213 97.7812 98.3633 98.6065H98.2689V94.8182H96.8023V105H98.2888V100.466ZM107.362 105.169C108.625 105.169 109.336 104.528 109.62 103.956H109.679V105H111.131V99.929C111.131 97.7067 109.381 97.2642 108.168 97.2642C106.786 97.2642 105.513 97.821 105.016 99.2131L106.413 99.5312C106.632 98.9893 107.188 98.4673 108.188 98.4673C109.147 98.4673 109.639 98.9695 109.639 99.8345V99.8693C109.639 100.411 109.083 100.401 107.71 100.56C106.264 100.729 104.782 101.107 104.782 102.842C104.782 104.344 105.911 105.169 107.362 105.169ZM107.686 103.976C106.845 103.976 106.239 103.598 106.239 102.862C106.239 102.067 106.945 101.783 107.805 101.669C108.287 101.604 109.431 101.475 109.644 101.261V102.246C109.644 103.151 108.924 103.976 107.686 103.976ZM116.318 105.154C117.984 105.154 119.162 104.334 119.5 103.091L118.093 102.837C117.824 103.558 117.178 103.926 116.333 103.926C115.06 103.926 114.205 103.101 114.165 101.629H119.594V101.102C119.594 98.343 117.944 97.2642 116.214 97.2642C114.086 97.2642 112.684 98.8849 112.684 101.232C112.684 103.603 114.066 105.154 116.318 105.154ZM114.17 100.516C114.23 99.4318 115.015 98.4922 116.224 98.4922C117.377 98.4922 118.133 99.3473 118.138 100.516H114.17ZM122.646 94.8182H121.16V105H122.646V94.8182ZM128.302 105H132.205C134.572 105 135.64 103.822 135.64 102.261C135.64 100.685 134.537 99.7947 133.528 99.7401V99.6406C134.462 99.402 135.243 98.7656 135.243 97.4929C135.243 95.9865 134.199 94.8182 132.031 94.8182H128.302V105ZM129.839 103.683V100.421H132.111C133.344 100.421 134.114 101.217 134.114 102.186C134.114 103.041 133.532 103.683 132.056 103.683H129.839ZM129.839 99.223V96.1257H131.937C133.155 96.1257 133.736 96.767 133.736 97.6122C133.736 98.5966 132.931 99.223 131.897 99.223H129.839ZM140.476 105.154C142.629 105.154 144.035 103.578 144.035 101.217C144.035 98.8402 142.629 97.2642 140.476 97.2642C138.323 97.2642 136.916 98.8402 136.916 101.217C136.916 103.578 138.323 105.154 140.476 105.154ZM140.481 103.906C139.074 103.906 138.418 102.678 138.418 101.212C138.418 99.75 139.074 98.5071 140.481 98.5071C141.878 98.5071 142.534 99.75 142.534 101.212C142.534 102.678 141.878 103.906 140.481 103.906ZM147.034 105H148.545L150.096 99.4865H150.211L151.762 105H153.278L155.52 97.3636H153.984L152.498 102.947H152.423L150.932 97.3636H149.395L147.894 102.972H147.819L146.323 97.3636H144.787L147.034 105ZM158.334 94.8182H156.847V105H158.334V94.8182Z" fill="#2D2F33"></path><path d="M164.303 100.774C164.303 103.27 164.969 105.348 166.232 107.118H167.594C166.615 105.805 165.844 103.141 165.844 100.774C165.844 98.4126 166.615 95.7479 167.594 94.4354H166.232C164.969 96.2053 164.303 98.2834 164.303 100.774ZM168.411 94.8182L172.105 101.003V105H173.636V101.003L177.33 94.8182H175.585L172.925 99.4467H172.816L170.156 94.8182H168.411ZM180.55 105.154C182.703 105.154 184.11 103.578 184.11 101.217C184.11 98.8402 182.703 97.2642 180.55 97.2642C178.397 97.2642 176.99 98.8402 176.99 101.217C176.99 103.578 178.397 105.154 180.55 105.154ZM180.555 103.906C179.148 103.906 178.492 102.678 178.492 101.212C178.492 99.75 179.148 98.5071 180.555 98.5071C181.952 98.5071 182.608 99.75 182.608 101.212C182.608 102.678 181.952 103.906 180.555 103.906ZM190.522 101.833C190.527 103.131 189.563 103.747 188.727 103.747C187.808 103.747 187.171 103.081 187.171 102.042V97.3636H185.685V102.221C185.685 104.115 186.724 105.099 188.191 105.099C189.339 105.099 190.12 104.493 190.473 103.678H190.552V105H192.014V97.3636H190.522V101.833ZM196.786 100.779C196.786 98.2834 196.12 96.2053 194.857 94.4354H193.495C194.474 95.7479 195.245 98.4126 195.245 100.779C195.245 103.141 194.474 105.805 193.495 107.118H194.857C196.12 105.348 196.786 103.27 196.786 100.779Z" fill="#696F80"></path><path d="M205.077 105.179C206.409 105.179 207.105 104.463 207.344 103.966H207.404V105H208.577V99.9688C208.577 97.5426 206.727 97.2642 205.753 97.2642C204.6 97.2642 203.287 97.6619 202.691 99.054L203.804 99.4517C204.063 98.8949 204.674 98.2983 205.793 98.2983C206.872 98.2983 207.404 98.87 207.404 99.8494V99.8892C207.404 100.456 206.827 100.406 205.435 100.585C204.018 100.769 202.472 101.082 202.472 102.832C202.472 104.324 203.625 105.179 205.077 105.179ZM205.256 104.125C204.321 104.125 203.645 103.707 203.645 102.892C203.645 101.997 204.46 101.719 205.375 101.599C205.872 101.54 207.205 101.401 207.404 101.162V102.236C207.404 103.19 206.648 104.125 205.256 104.125ZM213.518 105.159C214.99 105.159 215.487 104.244 215.745 103.827H215.884V105H217.018V94.8182H215.845V98.5767H215.745C215.487 98.179 215.029 97.2642 213.538 97.2642C211.609 97.2642 210.276 98.7955 210.276 101.202C210.276 103.628 211.609 105.159 213.518 105.159ZM213.677 104.105C212.205 104.105 211.45 102.812 211.45 101.182C211.45 99.571 212.186 98.3182 213.677 98.3182C215.109 98.3182 215.865 99.4716 215.865 101.182C215.865 102.912 215.089 104.105 213.677 104.105ZM222.129 105.159C223.601 105.159 224.098 104.244 224.356 103.827H224.496V105H225.629V94.8182H224.456V98.5767H224.356C224.098 98.179 223.641 97.2642 222.149 97.2642C220.22 97.2642 218.888 98.7955 218.888 101.202C218.888 103.628 220.22 105.159 222.129 105.159ZM222.288 104.105C220.817 104.105 220.061 102.812 220.061 101.182C220.061 99.571 220.797 98.3182 222.288 98.3182C223.72 98.3182 224.476 99.4716 224.476 101.182C224.476 102.912 223.7 104.105 222.288 104.105ZM231.059 105.159C232.61 105.159 233.743 104.384 234.101 103.23L232.968 102.912C232.67 103.707 231.978 104.105 231.059 104.105C229.682 104.105 228.732 103.215 228.677 101.58H234.221V101.082C234.221 98.2386 232.53 97.2642 230.939 97.2642C228.871 97.2642 227.499 98.8949 227.499 101.241C227.499 103.588 228.851 105.159 231.059 105.159ZM228.677 100.565C228.757 99.3771 229.597 98.3182 230.939 98.3182C232.212 98.3182 233.027 99.2727 233.027 100.565H228.677ZM238.805 105.159C240.277 105.159 240.774 104.244 241.032 103.827H241.171V105H242.305V94.8182H241.132V98.5767H241.032C240.774 98.179 240.316 97.2642 238.825 97.2642C236.896 97.2642 235.563 98.7955 235.563 101.202C235.563 103.628 236.896 105.159 238.805 105.159ZM238.964 104.105C237.492 104.105 236.737 102.812 236.737 101.182C236.737 99.571 237.473 98.3182 238.964 98.3182C240.396 98.3182 241.152 99.4716 241.152 101.182C241.152 102.912 240.376 104.105 238.964 104.105ZM254.114 97.3636H255.307C255.252 95.8274 253.835 94.679 251.866 94.679C249.918 94.679 248.386 95.8125 248.386 97.5227C248.386 98.8949 249.381 99.7102 250.971 100.168L252.224 100.526C253.298 100.824 254.253 101.202 254.253 102.216C254.253 103.33 253.179 104.065 251.767 104.065C250.554 104.065 249.48 103.528 249.381 102.375H248.108C248.227 104.045 249.579 105.179 251.767 105.179C254.114 105.179 255.446 103.886 255.446 102.236C255.446 100.327 253.636 99.7102 252.582 99.4318L251.548 99.1534C250.793 98.9545 249.579 98.5568 249.579 97.4631C249.579 96.4886 250.474 95.7727 251.827 95.7727C253.06 95.7727 253.994 96.3594 254.114 97.3636ZM260.531 105C263.633 105 265.383 103.071 265.383 99.8892C265.383 96.7273 263.633 94.8182 260.67 94.8182H257.389V105H260.531ZM258.622 103.906V95.9119H260.591C262.977 95.9119 264.19 97.4233 264.19 99.8892C264.19 102.375 262.977 103.906 260.452 103.906H258.622ZM267.368 105H273.592V103.906H268.601V100.446H273.194V99.3523H268.601V95.9119H273.512V94.8182H267.368V105ZM279.504 105H283.183C285.589 105 286.584 103.827 286.584 102.295C286.584 100.685 285.47 99.8097 284.536 99.75V99.6506C285.411 99.4119 286.186 98.8352 286.186 97.5227C286.186 96.0312 285.192 94.8182 283.064 94.8182H279.504V105ZM280.737 103.906V100.366H283.243C284.575 100.366 285.411 101.261 285.411 102.295C285.411 103.19 284.794 103.906 283.183 103.906H280.737ZM280.737 99.2926V95.9119H283.064C284.416 95.9119 285.013 96.6278 285.013 97.5227C285.013 98.5966 284.138 99.2926 283.024 99.2926H280.737ZM291.568 105.159C293.119 105.159 294.253 104.384 294.611 103.23L293.477 102.912C293.179 103.707 292.488 104.105 291.568 104.105C290.191 104.105 289.242 103.215 289.187 101.58H294.73V101.082C294.73 98.2386 293.04 97.2642 291.449 97.2642C289.381 97.2642 288.009 98.8949 288.009 101.241C288.009 103.588 289.361 105.159 291.568 105.159ZM289.187 100.565C289.267 99.3771 290.107 98.3182 291.449 98.3182C292.722 98.3182 293.537 99.2727 293.537 100.565H289.187ZM296.431 105H297.604V100.168C297.604 99.1335 298.42 98.3778 299.533 98.3778C299.847 98.3778 300.17 98.4375 300.249 98.4574V97.2642C300.115 97.2543 299.807 97.2443 299.633 97.2443C298.718 97.2443 297.923 97.7614 297.644 98.517H297.565V97.3636H296.431V105ZM302.729 94.8182H301.556V105H302.729V94.8182ZM304.794 105H305.968V97.3636H304.794V105ZM305.391 96.0909C305.848 96.0909 306.226 95.733 306.226 95.2955C306.226 94.858 305.848 94.5 305.391 94.5C304.934 94.5 304.556 94.858 304.556 95.2955C304.556 95.733 304.934 96.0909 305.391 96.0909ZM309.206 100.406C309.206 99.0739 310.031 98.3182 311.155 98.3182C312.244 98.3182 312.905 99.0291 312.905 100.227V105H314.078V100.148C314.078 98.1989 313.039 97.2642 311.493 97.2642C310.339 97.2642 309.624 97.7812 309.266 98.5568H309.166V97.3636H308.033V105H309.206V100.406ZM316.993 105.08C317.485 105.08 317.888 104.677 317.888 104.185C317.888 103.692 317.485 103.29 316.993 103.29C316.501 103.29 316.098 103.692 316.098 104.185C316.098 104.677 316.501 105.08 316.993 105.08ZM319.91 107.864H321.083V103.827H321.182C321.441 104.244 321.938 105.159 323.41 105.159C325.319 105.159 326.651 103.628 326.651 101.202C326.651 98.7955 325.319 97.2642 323.39 97.2642C321.898 97.2642 321.441 98.179 321.182 98.5767H321.043V97.3636H319.91V107.864ZM321.063 101.182C321.063 99.4716 321.819 98.3182 323.25 98.3182C324.742 98.3182 325.478 99.571 325.478 101.182C325.478 102.812 324.722 104.105 323.25 104.105C321.839 104.105 321.063 102.912 321.063 101.182ZM331.24 105.159C332.712 105.159 333.209 104.244 333.468 103.827H333.607V105H334.74V94.8182H333.567V98.5767H333.468C333.209 98.179 332.752 97.2642 331.26 97.2642C329.331 97.2642 327.999 98.7955 327.999 101.202C327.999 103.628 329.331 105.159 331.24 105.159ZM331.399 104.105C329.928 104.105 329.172 102.812 329.172 101.182C329.172 99.571 329.908 98.3182 331.399 98.3182C332.831 98.3182 333.587 99.4716 333.587 101.182C333.587 102.912 332.811 104.105 331.399 104.105ZM340.369 97.3636H338.658V96.5881C338.658 95.8324 338.977 95.4347 339.752 95.4347C340.09 95.4347 340.289 95.5142 340.408 95.554L340.746 94.5398C340.568 94.4602 340.21 94.3409 339.633 94.3409C338.539 94.3409 337.485 94.9972 337.485 96.3097V97.3636H336.252V98.358H337.485V105H338.658V98.358H340.369V97.3636Z" fill="#696F80"></path><path d="M349.903 105H355.409V104.062H351.352V103.994L353.312 101.898C354.812 100.291 355.256 99.5412 355.256 98.5739C355.256 97.2273 354.165 96.1534 352.631 96.1534C351.101 96.1534 349.938 97.1932 349.938 98.7273H350.943C350.943 97.7344 351.587 97.0739 352.597 97.0739C353.543 97.0739 354.267 97.6534 354.267 98.5739C354.267 99.3793 353.794 99.9759 352.784 101.08L349.903 104.233V105ZM363.033 105.136C364.294 105.136 364.72 104.352 364.942 103.994H365.061V105H366.033V96.2727H365.027V99.4943H364.942C364.72 99.1534 364.328 98.3693 363.05 98.3693C361.396 98.3693 360.254 99.6818 360.254 101.744C360.254 103.824 361.396 105.136 363.033 105.136ZM363.169 104.233C361.908 104.233 361.26 103.125 361.26 101.727C361.26 100.347 361.891 99.2727 363.169 99.2727C364.396 99.2727 365.044 100.261 365.044 101.727C365.044 103.21 364.379 104.233 363.169 104.233ZM369.94 105.153C371.082 105.153 371.679 104.54 371.884 104.114H371.935V105H372.94V100.688C372.94 98.608 371.355 98.3693 370.52 98.3693C369.531 98.3693 368.406 98.7102 367.895 99.9034L368.849 100.244C369.071 99.767 369.595 99.2557 370.554 99.2557C371.479 99.2557 371.935 99.7457 371.935 100.585V100.619C371.935 101.105 371.44 101.062 370.247 101.216C369.033 101.374 367.707 101.642 367.707 103.142C367.707 104.42 368.696 105.153 369.94 105.153ZM370.094 104.25C369.293 104.25 368.713 103.892 368.713 103.193C368.713 102.426 369.412 102.188 370.196 102.085C370.622 102.034 371.764 101.915 371.935 101.71V102.631C371.935 103.449 371.287 104.25 370.094 104.25ZM375.189 107.455C376.097 107.455 376.736 106.973 377.115 105.955L379.902 98.4716L378.803 98.4545L376.996 103.67H376.928L375.121 98.4545H374.03L376.451 105.034L376.263 105.545C375.897 106.543 375.445 106.636 374.712 106.449L374.456 107.335C374.559 107.386 374.848 107.455 375.189 107.455ZM386.534 105.153C387.676 105.153 388.273 104.54 388.477 104.114H388.528V105H389.534V100.688C389.534 98.608 387.949 98.3693 387.114 98.3693C386.125 98.3693 385 98.7102 384.489 99.9034L385.443 100.244C385.665 99.767 386.189 99.2557 387.148 99.2557C388.072 99.2557 388.528 99.7457 388.528 100.585V100.619C388.528 101.105 388.034 101.062 386.841 101.216C385.626 101.374 384.301 101.642 384.301 103.142C384.301 104.42 385.29 105.153 386.534 105.153ZM386.688 104.25C385.886 104.25 385.307 103.892 385.307 103.193C385.307 102.426 386.006 102.188 386.79 102.085C387.216 102.034 388.358 101.915 388.528 101.71V102.631C388.528 103.449 387.881 104.25 386.688 104.25ZM394.012 107.591C395.58 107.591 396.841 106.875 396.841 105.188V98.4545H395.87V99.4943H395.767C395.546 99.1534 395.137 98.3693 393.858 98.3693C392.205 98.3693 391.063 99.6818 391.063 101.693C391.063 103.739 392.256 104.898 393.841 104.898C395.12 104.898 395.529 104.148 395.75 103.79H395.836V105.119C395.836 106.21 395.069 106.705 394.012 106.705C392.823 106.705 392.405 106.078 392.137 105.716L391.336 106.278C391.745 106.964 392.55 107.591 394.012 107.591ZM393.978 103.994C392.716 103.994 392.069 103.04 392.069 101.676C392.069 100.347 392.699 99.2727 393.978 99.2727C395.205 99.2727 395.853 100.261 395.853 101.676C395.853 103.125 395.188 103.994 393.978 103.994ZM401.341 105.136C403.114 105.136 404.307 103.79 404.307 101.761C404.307 99.7159 403.114 98.3693 401.341 98.3693C399.569 98.3693 398.375 99.7159 398.375 101.761C398.375 103.79 399.569 105.136 401.341 105.136ZM401.341 104.233C399.995 104.233 399.381 103.074 399.381 101.761C399.381 100.449 399.995 99.2727 401.341 99.2727C402.688 99.2727 403.301 100.449 403.301 101.761C403.301 103.074 402.688 104.233 401.341 104.233Z" fill="#696F80"></path><rect x="16" y="128" width="520" height="56" rx="8" fill="white"></rect><rect x="28" y="140" width="32" height="32" rx="16" fill="#4285EB"></rect><path d="M48.4971 156V162" stroke="white" stroke-linecap="round" stroke-linejoin="round"></path><path d="M45.4971 159H51.4971" stroke="white" stroke-linecap="round" stroke-linejoin="round"></path><path d="M44 156.4C43.2355 156.076 42.4022 155.946 41.5746 156.02C40.747 156.095 39.9509 156.373 39.2575 156.828C38.5641 157.284 37.9949 157.903 37.601 158.631C37.3667 159.064 37.1987 159.528 37.1009 160.006C36.9902 160.547 37.4481 161 38.0007 161H43" stroke="white" stroke-linecap="round" stroke-linejoin="round"></path><path d="M42 155C43.6569 155 45 153.657 45 152C45 150.343 43.6569 149 42 149C40.3431 149 39 150.343 39 152C39 153.657 40.3431 155 42 155Z" stroke="white" stroke-linecap="round" stroke-linejoin="round"></path><path d="M78.6771 153.493H80.1586C80.1139 151.862 78.6721 150.679 76.6039 150.679C74.5606 150.679 72.9945 151.847 72.9945 153.602C72.9945 155.019 74.0087 155.849 75.6444 156.292L76.8475 156.62C77.9363 156.908 78.7765 157.266 78.7765 158.171C78.7765 159.165 77.8269 159.822 76.5194 159.822C75.3362 159.822 74.3518 159.295 74.2623 158.186H72.7211C72.8205 160.031 74.2474 161.169 76.5293 161.169C78.9207 161.169 80.2978 159.911 80.2978 158.186C80.2978 156.352 78.6621 155.641 77.3695 155.322L76.3752 155.064C75.5798 154.86 74.5208 154.487 74.5258 153.513C74.5258 152.648 75.3163 152.006 76.5691 152.006C77.7374 152.006 78.5677 152.553 78.6771 153.493ZM84.1525 161.169C85.4153 161.169 86.1263 160.528 86.4096 159.956H86.4693V161H87.921V155.929C87.921 153.707 86.171 153.264 84.9579 153.264C83.5758 153.264 82.3031 153.821 81.806 155.213L83.203 155.531C83.4217 154.989 83.9785 154.467 84.9778 154.467C85.9373 154.467 86.4295 154.969 86.4295 155.835V155.869C86.4295 156.411 85.8727 156.401 84.5006 156.56C83.0538 156.729 81.5723 157.107 81.5723 158.842C81.5723 160.344 82.7008 161.169 84.1525 161.169ZM84.4757 159.976C83.6355 159.976 83.029 159.598 83.029 158.862C83.029 158.067 83.7349 157.783 84.595 157.669C85.0773 157.604 86.2207 157.475 86.4345 157.261V158.246C86.4345 159.151 85.7136 159.976 84.4757 159.976ZM91.3035 150.818H89.8169V161H91.3035V150.818ZM93.2193 161H94.7058V156.292C94.7058 155.263 95.4267 154.547 96.2718 154.547C97.0971 154.547 97.6688 155.094 97.6688 155.924V161H99.1504V156.133C99.1504 155.213 99.7122 154.547 100.682 154.547C101.467 154.547 102.113 154.984 102.113 156.018V161H103.6V155.879C103.6 154.134 102.626 153.264 101.243 153.264C100.145 153.264 99.3194 153.791 98.9515 154.607H98.872C98.5389 153.771 97.8379 153.264 96.8187 153.264C95.8095 153.264 95.0588 153.766 94.7406 154.607H94.6461V153.364H93.2193V161ZM107.731 161.169C108.993 161.169 109.704 160.528 109.988 159.956H110.047V161H111.499V155.929C111.499 153.707 109.749 153.264 108.536 153.264C107.154 153.264 105.881 153.821 105.384 155.213L106.781 155.531C107 154.989 107.557 154.467 108.556 154.467C109.515 154.467 110.008 154.969 110.008 155.835V155.869C110.008 156.411 109.451 156.401 108.079 156.56C106.632 156.729 105.15 157.107 105.15 158.842C105.15 160.344 106.279 161.169 107.731 161.169ZM108.054 159.976C107.214 159.976 106.607 159.598 106.607 158.862C106.607 158.067 107.313 157.783 108.173 157.669C108.655 157.604 109.799 157.475 110.013 157.261V158.246C110.013 159.151 109.292 159.976 108.054 159.976ZM124.026 154.035H125.602C125.259 152.051 123.564 150.679 121.366 150.679C118.731 150.679 116.807 152.663 116.807 155.914C116.807 159.136 118.677 161.139 121.436 161.139C123.907 161.139 125.672 159.518 125.672 156.948V155.79H121.67V157.058H124.185C124.15 158.698 123.067 159.737 121.436 159.737C119.641 159.737 118.334 158.38 118.334 155.904C118.334 153.438 119.651 152.081 121.376 152.081C122.728 152.081 123.643 152.827 124.026 154.035ZM130.635 161.154C132.788 161.154 134.195 159.578 134.195 157.217C134.195 154.84 132.788 153.264 130.635 153.264C128.482 153.264 127.075 154.84 127.075 157.217C127.075 159.578 128.482 161.154 130.635 161.154ZM130.64 159.906C129.233 159.906 128.577 158.678 128.577 157.212C128.577 155.75 129.233 154.507 130.64 154.507C132.037 154.507 132.693 155.75 132.693 157.212C132.693 158.678 132.037 159.906 130.64 159.906ZM138.987 161.154C141.139 161.154 142.546 159.578 142.546 157.217C142.546 154.84 141.139 153.264 138.987 153.264C136.834 153.264 135.427 154.84 135.427 157.217C135.427 159.578 136.834 161.154 138.987 161.154ZM138.992 159.906C137.585 159.906 136.928 158.678 136.928 157.212C136.928 155.75 137.585 154.507 138.992 154.507C140.389 154.507 141.045 155.75 141.045 157.212C141.045 158.678 140.389 159.906 138.992 159.906ZM146.98 161.149C148.372 161.149 148.919 160.299 149.188 159.812H149.312V161H150.764V150.818H149.277V154.602H149.188C148.919 154.129 148.412 153.264 146.99 153.264C145.146 153.264 143.788 154.721 143.788 157.197C143.788 159.668 145.126 161.149 146.98 161.149ZM147.308 159.881C145.981 159.881 145.29 158.713 145.29 157.182C145.29 155.665 145.966 154.527 147.308 154.527C148.606 154.527 149.302 155.586 149.302 157.182C149.302 158.788 148.591 159.881 147.308 159.881ZM159.334 153.364H157.738L155.809 159.24H155.729L153.796 153.364H152.2L154.974 161H156.565L159.334 153.364ZM160.647 161H162.133V153.364H160.647V161ZM161.398 152.185C161.91 152.185 162.337 151.788 162.337 151.3C162.337 150.813 161.91 150.411 161.398 150.411C160.881 150.411 160.458 150.813 160.458 151.3C160.458 151.788 160.881 152.185 161.398 152.185ZM165.536 156.466C165.536 155.248 166.281 154.552 167.316 154.552C168.325 154.552 168.936 155.213 168.936 156.322V161H170.423V156.143C170.423 154.254 169.384 153.264 167.823 153.264C166.674 153.264 165.923 153.796 165.571 154.607H165.476V153.364H164.049V161H165.536V156.466ZM175.624 161.154C177.289 161.154 178.467 160.334 178.805 159.091L177.398 158.837C177.13 159.558 176.484 159.926 175.639 159.926C174.366 159.926 173.511 159.101 173.471 157.629H178.9V157.102C178.9 154.343 177.249 153.264 175.519 153.264C173.391 153.264 171.989 154.885 171.989 157.232C171.989 159.603 173.371 161.154 175.624 161.154ZM173.476 156.516C173.536 155.432 174.321 154.492 175.529 154.492C176.683 154.492 177.438 155.347 177.443 156.516H173.476Z" fill="#2D2F33"></path><path d="M184.161 161H185.334V153.364H184.161V161ZM184.757 152.091C185.215 152.091 185.593 151.733 185.593 151.295C185.593 150.858 185.215 150.5 184.757 150.5C184.3 150.5 183.922 150.858 183.922 151.295C183.922 151.733 184.3 152.091 184.757 152.091ZM188.572 156.406C188.572 155.074 189.398 154.318 190.521 154.318C191.61 154.318 192.271 155.029 192.271 156.227V161H193.445V156.148C193.445 154.199 192.406 153.264 190.859 153.264C189.706 153.264 188.99 153.781 188.632 154.557H188.533V153.364H187.399V161H188.572V156.406ZM201.475 153.364H200.203L198.095 159.449H198.015L195.907 153.364H194.635L197.458 161H198.652L201.475 153.364ZM202.94 161H204.113V153.364H202.94V161ZM203.537 152.091C203.994 152.091 204.372 151.733 204.372 151.295C204.372 150.858 203.994 150.5 203.537 150.5C203.079 150.5 202.701 150.858 202.701 151.295C202.701 151.733 203.079 152.091 203.537 152.091ZM209.499 153.364H207.869V151.534H206.695V153.364H205.542V154.358H206.695V159.131C206.695 160.463 207.769 161.099 208.764 161.099C209.201 161.099 209.48 161.02 209.639 160.96L209.4 159.906C209.301 159.926 209.141 159.966 208.883 159.966C208.366 159.966 207.869 159.807 207.869 158.812V154.358H209.499V153.364ZM214.3 161.159C215.851 161.159 216.985 160.384 217.343 159.23L216.209 158.912C215.911 159.707 215.22 160.105 214.3 160.105C212.923 160.105 211.973 159.215 211.919 157.58H217.462V157.082C217.462 154.239 215.772 153.264 214.181 153.264C212.112 153.264 210.74 154.895 210.74 157.241C210.74 159.588 212.093 161.159 214.3 161.159ZM211.919 156.565C211.998 155.377 212.838 154.318 214.181 154.318C215.453 154.318 216.269 155.273 216.269 156.565H211.919ZM222.046 161.159C223.518 161.159 224.015 160.244 224.273 159.827H224.413V161H225.546V150.818H224.373V154.577H224.273C224.015 154.179 223.558 153.264 222.066 153.264C220.137 153.264 218.805 154.795 218.805 157.202C218.805 159.628 220.137 161.159 222.046 161.159ZM222.205 160.105C220.734 160.105 219.978 158.812 219.978 157.182C219.978 155.571 220.714 154.318 222.205 154.318C223.637 154.318 224.393 155.472 224.393 157.182C224.393 158.912 223.617 160.105 222.205 160.105ZM234.949 153.364H233.318V151.534H232.145V153.364H230.991V154.358H232.145V159.131C232.145 160.463 233.218 161.099 234.213 161.099C234.65 161.099 234.929 161.02 235.088 160.96L234.849 159.906C234.75 159.926 234.591 159.966 234.332 159.966C233.815 159.966 233.318 159.807 233.318 158.812V154.358H234.949V153.364ZM239.65 161.159C241.718 161.159 243.11 159.588 243.11 157.222C243.11 154.835 241.718 153.264 239.65 153.264C237.582 153.264 236.189 154.835 236.189 157.222C236.189 159.588 237.582 161.159 239.65 161.159ZM239.65 160.105C238.079 160.105 237.363 158.753 237.363 157.222C237.363 155.69 238.079 154.318 239.65 154.318C241.221 154.318 241.937 155.69 241.937 157.222C241.937 158.753 241.221 160.105 239.65 160.105ZM254.08 155.074C253.712 153.99 252.886 153.264 251.375 153.264C249.764 153.264 248.571 154.179 248.571 155.472C248.571 156.526 249.197 157.232 250.599 157.56L251.872 157.858C252.643 158.037 253.006 158.405 253.006 158.932C253.006 159.588 252.31 160.125 251.216 160.125C250.256 160.125 249.655 159.712 249.446 158.892L248.332 159.17C248.606 160.468 249.675 161.159 251.236 161.159C253.011 161.159 254.219 160.19 254.219 158.872C254.219 157.808 253.553 157.137 252.19 156.804L251.057 156.526C250.152 156.302 249.744 155.999 249.744 155.412C249.744 154.756 250.44 154.278 251.375 154.278C252.399 154.278 252.822 154.845 253.026 155.372L254.08 155.074ZM255.901 161H257.074V153.364H255.901V161ZM256.497 152.091C256.955 152.091 257.333 151.733 257.333 151.295C257.333 150.858 256.955 150.5 256.497 150.5C256.04 150.5 255.662 150.858 255.662 151.295C255.662 151.733 256.04 152.091 256.497 152.091ZM262.222 164.023C264.051 164.023 265.523 163.188 265.523 161.219V153.364H264.389V154.577H264.27C264.011 154.179 263.534 153.264 262.043 153.264C260.114 153.264 258.781 154.795 258.781 157.142C258.781 159.528 260.173 160.881 262.023 160.881C263.514 160.881 263.991 160.006 264.25 159.588H264.349V161.139C264.349 162.412 263.454 162.989 262.222 162.989C260.834 162.989 260.347 162.258 260.034 161.835L259.099 162.491C259.577 163.292 260.516 164.023 262.222 164.023ZM262.182 159.827C260.71 159.827 259.954 158.713 259.954 157.122C259.954 155.571 260.69 154.318 262.182 154.318C263.614 154.318 264.369 155.472 264.369 157.122C264.369 158.812 263.594 159.827 262.182 159.827ZM268.76 156.406C268.76 155.074 269.585 154.318 270.709 154.318C271.797 154.318 272.459 155.029 272.459 156.227V161H273.632V156.148C273.632 154.199 272.593 153.264 271.047 153.264C269.893 153.264 269.177 153.781 268.819 154.557H268.72V153.364H267.586V161H268.76V156.406ZM281.793 161.179C283.125 161.179 283.821 160.463 284.06 159.966H284.119V161H285.293V155.969C285.293 153.543 283.443 153.264 282.469 153.264C281.315 153.264 280.003 153.662 279.406 155.054L280.52 155.452C280.778 154.895 281.39 154.298 282.508 154.298C283.587 154.298 284.119 154.87 284.119 155.849V155.889C284.119 156.456 283.543 156.406 282.15 156.585C280.734 156.769 279.187 157.082 279.187 158.832C279.187 160.324 280.341 161.179 281.793 161.179ZM281.971 160.125C281.037 160.125 280.361 159.707 280.361 158.892C280.361 157.997 281.176 157.719 282.091 157.599C282.588 157.54 283.92 157.401 284.119 157.162V158.236C284.119 159.19 283.364 160.125 281.971 160.125ZM294.306 161.159C295.996 161.159 297.11 160.125 297.309 158.773H296.135C295.917 159.608 295.221 160.105 294.306 160.105C292.914 160.105 292.019 158.952 292.019 157.182C292.019 155.452 292.934 154.318 294.306 154.318C295.34 154.318 295.956 154.955 296.135 155.651H297.309C297.11 154.219 295.897 153.264 294.286 153.264C292.218 153.264 290.846 154.895 290.846 157.222C290.846 159.509 292.158 161.159 294.306 161.159ZM302.042 161.159C304.11 161.159 305.502 159.588 305.502 157.222C305.502 154.835 304.11 153.264 302.042 153.264C299.974 153.264 298.582 154.835 298.582 157.222C298.582 159.588 299.974 161.159 302.042 161.159ZM302.042 160.105C300.471 160.105 299.755 158.753 299.755 157.222C299.755 155.69 300.471 154.318 302.042 154.318C303.613 154.318 304.329 155.69 304.329 157.222C304.329 158.753 303.613 160.105 302.042 160.105ZM308.383 156.406C308.383 155.074 309.208 154.318 310.332 154.318C311.42 154.318 312.082 155.029 312.082 156.227V161H313.255V156.148C313.255 154.199 312.216 153.264 310.67 153.264C309.516 153.264 308.8 153.781 308.442 154.557H308.343V153.364H307.209V161H308.383V156.406ZM318.636 153.364H317.005V151.534H315.832V153.364H314.678V154.358H315.832V159.131C315.832 160.463 316.906 161.099 317.9 161.099C318.338 161.099 318.616 161.02 318.775 160.96L318.536 159.906C318.437 159.926 318.278 159.966 318.019 159.966C317.502 159.966 317.005 159.807 317.005 158.812V154.358H318.636V153.364ZM320.317 161H321.49V156.168C321.49 155.134 322.305 154.378 323.419 154.378C323.732 154.378 324.055 154.438 324.135 154.457V153.264C324.001 153.254 323.692 153.244 323.518 153.244C322.604 153.244 321.808 153.761 321.53 154.517H321.45V153.364H320.317V161ZM327.689 161.179C329.021 161.179 329.717 160.463 329.956 159.966H330.016V161H331.189V155.969C331.189 153.543 329.339 153.264 328.365 153.264C327.212 153.264 325.899 153.662 325.303 155.054L326.416 155.452C326.675 154.895 327.286 154.298 328.405 154.298C329.484 154.298 330.016 154.87 330.016 155.849V155.889C330.016 156.456 329.439 156.406 328.047 156.585C326.63 156.769 325.084 157.082 325.084 158.832C325.084 160.324 326.237 161.179 327.689 161.179ZM327.868 160.125C326.933 160.125 326.257 159.707 326.257 158.892C326.257 157.997 327.072 157.719 327.987 157.599C328.484 157.54 329.817 157.401 330.016 157.162V158.236C330.016 159.19 329.26 160.125 327.868 160.125ZM336.349 161.159C338.039 161.159 339.153 160.125 339.352 158.773H338.178C337.959 159.608 337.263 160.105 336.349 160.105C334.957 160.105 334.062 158.952 334.062 157.182C334.062 155.452 334.977 154.318 336.349 154.318C337.383 154.318 337.999 154.955 338.178 155.651H339.352C339.153 154.219 337.94 153.264 336.329 153.264C334.261 153.264 332.888 154.895 332.888 157.222C332.888 159.509 334.201 161.159 336.349 161.159ZM344.304 153.364H342.673V151.534H341.5V153.364H340.346V154.358H341.5V159.131C341.5 160.463 342.574 161.099 343.568 161.099C344.005 161.099 344.284 161.02 344.443 160.96L344.204 159.906C344.105 159.926 343.946 159.966 343.687 159.966C343.17 159.966 342.673 159.807 342.673 158.812V154.358H344.304V153.364Z" fill="#696F80"></path><path d="M356.972 152.273H355.915L353.733 153.722V154.795L355.864 153.381H355.915V161H356.972V152.273ZM365.345 161.136C366.607 161.136 367.033 160.352 367.254 159.994H367.374V161H368.345V152.273H367.339V155.494H367.254C367.033 155.153 366.641 154.369 365.362 154.369C363.709 154.369 362.567 155.682 362.567 157.744C362.567 159.824 363.709 161.136 365.345 161.136ZM365.482 160.233C364.22 160.233 363.572 159.125 363.572 157.727C363.572 156.347 364.203 155.273 365.482 155.273C366.709 155.273 367.357 156.261 367.357 157.727C367.357 159.21 366.692 160.233 365.482 160.233ZM372.253 161.153C373.395 161.153 373.991 160.54 374.196 160.114H374.247V161H375.253V156.688C375.253 154.608 373.668 154.369 372.832 154.369C371.844 154.369 370.719 154.71 370.207 155.903L371.162 156.244C371.384 155.767 371.908 155.256 372.866 155.256C373.791 155.256 374.247 155.746 374.247 156.585V156.619C374.247 157.105 373.753 157.062 372.56 157.216C371.345 157.374 370.02 157.642 370.02 159.142C370.02 160.42 371.009 161.153 372.253 161.153ZM372.406 160.25C371.605 160.25 371.026 159.892 371.026 159.193C371.026 158.426 371.724 158.188 372.509 158.085C372.935 158.034 374.077 157.915 374.247 157.71V158.631C374.247 159.449 373.599 160.25 372.406 160.25ZM377.502 163.455C378.409 163.455 379.049 162.973 379.428 161.955L382.215 154.472L381.115 154.455L379.309 159.67H379.24L377.434 154.455H376.343L378.763 161.034L378.576 161.545C378.209 162.543 377.757 162.636 377.025 162.449L376.769 163.335C376.871 163.386 377.161 163.455 377.502 163.455ZM388.847 161.153C389.989 161.153 390.585 160.54 390.79 160.114H390.841V161H391.847V156.688C391.847 154.608 390.261 154.369 389.426 154.369C388.438 154.369 387.312 154.71 386.801 155.903L387.756 156.244C387.977 155.767 388.501 155.256 389.46 155.256C390.385 155.256 390.841 155.746 390.841 156.585V156.619C390.841 157.105 390.347 157.062 389.153 157.216C387.939 157.374 386.614 157.642 386.614 159.142C386.614 160.42 387.602 161.153 388.847 161.153ZM389 160.25C388.199 160.25 387.619 159.892 387.619 159.193C387.619 158.426 388.318 158.188 389.102 158.085C389.528 158.034 390.67 157.915 390.841 157.71V158.631C390.841 159.449 390.193 160.25 389 160.25ZM396.324 163.591C397.892 163.591 399.154 162.875 399.154 161.188V154.455H398.182V155.494H398.08C397.858 155.153 397.449 154.369 396.171 154.369C394.517 154.369 393.375 155.682 393.375 157.693C393.375 159.739 394.569 160.898 396.154 160.898C397.432 160.898 397.841 160.148 398.063 159.79H398.148V161.119C398.148 162.21 397.381 162.705 396.324 162.705C395.135 162.705 394.718 162.078 394.449 161.716L393.648 162.278C394.057 162.964 394.863 163.591 396.324 163.591ZM396.29 159.994C395.029 159.994 394.381 159.04 394.381 157.676C394.381 156.347 395.012 155.273 396.29 155.273C397.517 155.273 398.165 156.261 398.165 157.676C398.165 159.125 397.5 159.994 396.29 159.994ZM403.654 161.136C405.426 161.136 406.62 159.79 406.62 157.761C406.62 155.716 405.426 154.369 403.654 154.369C401.881 154.369 400.688 155.716 400.688 157.761C400.688 159.79 401.881 161.136 403.654 161.136ZM403.654 160.233C402.307 160.233 401.694 159.074 401.694 157.761C401.694 156.449 402.307 155.273 403.654 155.273C405 155.273 405.614 156.449 405.614 157.761C405.614 159.074 405 160.233 403.654 160.233Z" fill="#696F80"></path><rect x="16" y="184" width="520" height="56" rx="8" fill="white"></rect><rect x="28" y="196" width="32" height="32" rx="16" fill="#4285EB"></rect><path d="M48.4971 212V218" stroke="white" stroke-linecap="round" stroke-linejoin="round"></path><path d="M45.4971 215H51.4971" stroke="white" stroke-linecap="round" stroke-linejoin="round"></path><path d="M44 212.4C43.2355 212.076 42.4022 211.946 41.5746 212.02C40.747 212.095 39.9509 212.373 39.2575 212.828C38.5641 213.284 37.9949 213.903 37.601 214.631C37.3667 215.064 37.1987 215.528 37.1009 216.006C36.9902 216.547 37.4481 217 38.0007 217H43" stroke="white" stroke-linecap="round" stroke-linejoin="round"></path><path d="M42 211C43.6569 211 45 209.657 45 208C45 206.343 43.6569 205 42 205C40.3431 205 39 206.343 39 208C39 209.657 40.3431 211 42 211Z" stroke="white" stroke-linecap="round" stroke-linejoin="round"></path><path d="M74.271 217L75.2056 214.305H79.1829L80.1126 217H81.7433L78.0792 206.818H76.3044L72.6403 217H74.271ZM75.6531 213.013L77.1545 208.668H77.2341L78.7355 213.013H75.6531ZM84.4968 206.818H83.0103V217H84.4968V206.818ZM89.7038 217.154C91.3693 217.154 92.5476 216.334 92.8857 215.091L91.4787 214.837C91.2102 215.558 90.5639 215.926 89.7187 215.926C88.446 215.926 87.5909 215.101 87.5511 213.629H92.9801V213.102C92.9801 210.343 91.3295 209.264 89.5994 209.264C87.4716 209.264 86.0696 210.885 86.0696 213.232C86.0696 215.603 87.4517 217.154 89.7038 217.154ZM87.5561 212.516C87.6158 211.432 88.4013 210.492 89.6094 210.492C90.7628 210.492 91.5185 211.347 91.5234 212.516H87.5561ZM95.541 209.364H93.9103L96.2569 213.182L93.8805 217H95.5112L97.2264 214.146L98.9465 217H100.572L98.171 213.182L100.552 209.364H98.9267L97.2264 212.337L95.541 209.364ZM105.735 217H107.271V212.56H111.597V211.243H107.271V208.141H112.049V206.818H105.735V217ZM113.735 217H115.221V209.364H113.735V217ZM114.486 208.185C114.998 208.185 115.425 207.788 115.425 207.3C115.425 206.813 114.998 206.411 114.486 206.411C113.969 206.411 113.546 206.813 113.546 207.3C113.546 207.788 113.969 208.185 114.486 208.185ZM122.859 211.228C122.551 210.04 121.622 209.264 119.971 209.264C118.246 209.264 117.023 210.174 117.023 211.526C117.023 212.61 117.679 213.331 119.111 213.649L120.404 213.933C121.139 214.097 121.482 214.425 121.482 214.902C121.482 215.494 120.851 215.956 119.877 215.956C118.987 215.956 118.415 215.573 118.236 214.822L116.799 215.041C117.048 216.393 118.171 217.154 119.886 217.154C121.731 217.154 123.009 216.175 123.009 214.793C123.009 213.714 122.323 213.048 120.921 212.724L119.707 212.446C118.867 212.247 118.504 211.964 118.509 211.447C118.504 210.86 119.141 210.442 119.986 210.442C120.911 210.442 121.338 210.955 121.512 211.467L122.859 211.228ZM127.776 217.154C129.58 217.154 130.749 216.07 130.913 214.584H129.466C129.277 215.409 128.636 215.896 127.786 215.896C126.528 215.896 125.717 214.847 125.717 213.182C125.717 211.546 126.543 210.517 127.786 210.517C128.73 210.517 129.307 211.114 129.466 211.83H130.913C130.754 210.288 129.496 209.264 127.761 209.264C125.608 209.264 124.216 210.885 124.216 213.217C124.216 215.518 125.558 217.154 127.776 217.154ZM133.905 212.466C133.905 211.248 134.675 210.552 135.734 210.552C136.759 210.552 137.37 211.203 137.37 212.322V217H138.857V212.143C138.857 210.239 137.813 209.264 136.242 209.264C135.053 209.264 134.337 209.781 133.979 210.607H133.885V206.818H132.418V217H133.905V212.466ZM144.047 217.154C145.713 217.154 146.891 216.334 147.229 215.091L145.822 214.837C145.554 215.558 144.908 215.926 144.062 215.926C142.79 215.926 141.935 215.101 141.895 213.629H147.324V213.102C147.324 210.343 145.673 209.264 143.943 209.264C141.815 209.264 140.413 210.885 140.413 213.232C140.413 215.603 141.795 217.154 144.047 217.154ZM141.9 212.516C141.959 211.432 142.745 210.492 143.953 210.492C145.106 210.492 145.862 211.347 145.867 212.516H141.9ZM148.889 217H150.376V212.337C150.376 211.337 151.146 210.616 152.2 210.616C152.508 210.616 152.856 210.671 152.976 210.706V209.284C152.827 209.264 152.533 209.249 152.344 209.249C151.449 209.249 150.684 209.756 150.405 210.577H150.326V209.364H148.889V217Z" fill="#2D2F33"></path><path d="M157.874 217H159.047V209.364H157.874V217ZM158.47 208.091C158.928 208.091 159.306 207.733 159.306 207.295C159.306 206.858 158.928 206.5 158.47 206.5C158.013 206.5 157.635 206.858 157.635 207.295C157.635 207.733 158.013 208.091 158.47 208.091ZM162.285 212.406C162.285 211.074 163.111 210.318 164.234 210.318C165.323 210.318 165.984 211.029 165.984 212.227V217H167.157V212.148C167.157 210.199 166.118 209.264 164.572 209.264C163.419 209.264 162.703 209.781 162.345 210.557H162.246V209.364H161.112V217H162.285V212.406ZM175.188 209.364H173.916L171.808 215.449H171.728L169.62 209.364H168.347L171.171 217H172.364L175.188 209.364ZM176.653 217H177.826V209.364H176.653V217ZM177.25 208.091C177.707 208.091 178.085 207.733 178.085 207.295C178.085 206.858 177.707 206.5 177.25 206.5C176.792 206.5 176.414 206.858 176.414 207.295C176.414 207.733 176.792 208.091 177.25 208.091ZM183.212 209.364H181.582V207.534H180.408V209.364H179.255V210.358H180.408V215.131C180.408 216.463 181.482 217.099 182.477 217.099C182.914 217.099 183.192 217.02 183.352 216.96L183.113 215.906C183.013 215.926 182.854 215.966 182.596 215.966C182.079 215.966 181.582 215.807 181.582 214.812V210.358H183.212V209.364ZM188.013 217.159C189.564 217.159 190.698 216.384 191.056 215.23L189.922 214.912C189.624 215.707 188.933 216.105 188.013 216.105C186.636 216.105 185.686 215.215 185.631 213.58H191.175V213.082C191.175 210.239 189.484 209.264 187.894 209.264C185.825 209.264 184.453 210.895 184.453 213.241C184.453 215.588 185.806 217.159 188.013 217.159ZM185.631 212.565C185.711 211.377 186.551 210.318 187.894 210.318C189.166 210.318 189.982 211.273 189.982 212.565H185.631ZM195.759 217.159C197.231 217.159 197.728 216.244 197.986 215.827H198.126V217H199.259V206.818H198.086V210.577H197.986C197.728 210.179 197.271 209.264 195.779 209.264C193.85 209.264 192.518 210.795 192.518 213.202C192.518 215.628 193.85 217.159 195.759 217.159ZM195.918 216.105C194.447 216.105 193.691 214.812 193.691 213.182C193.691 211.571 194.427 210.318 195.918 210.318C197.35 210.318 198.106 211.472 198.106 213.182C198.106 214.912 197.33 216.105 195.918 216.105ZM208.661 209.364H207.031V207.534H205.857V209.364H204.704V210.358H205.857V215.131C205.857 216.463 206.931 217.099 207.926 217.099C208.363 217.099 208.642 217.02 208.801 216.96L208.562 215.906C208.463 215.926 208.304 215.966 208.045 215.966C207.528 215.966 207.031 215.807 207.031 214.812V210.358H208.661V209.364ZM213.363 217.159C215.431 217.159 216.823 215.588 216.823 213.222C216.823 210.835 215.431 209.264 213.363 209.264C211.294 209.264 209.902 210.835 209.902 213.222C209.902 215.588 211.294 217.159 213.363 217.159ZM213.363 216.105C211.792 216.105 211.076 214.753 211.076 213.222C211.076 211.69 211.792 210.318 213.363 210.318C214.934 210.318 215.65 211.69 215.65 213.222C215.65 214.753 214.934 216.105 213.363 216.105ZM227.792 211.074C227.425 209.99 226.599 209.264 225.088 209.264C223.477 209.264 222.284 210.179 222.284 211.472C222.284 212.526 222.91 213.232 224.312 213.56L225.585 213.858C226.356 214.037 226.719 214.405 226.719 214.932C226.719 215.588 226.023 216.125 224.929 216.125C223.969 216.125 223.368 215.712 223.159 214.892L222.045 215.17C222.319 216.468 223.388 217.159 224.949 217.159C226.724 217.159 227.932 216.19 227.932 214.872C227.932 213.808 227.265 213.137 225.903 212.804L224.77 212.526C223.865 212.302 223.457 211.999 223.457 211.412C223.457 210.756 224.153 210.278 225.088 210.278C226.112 210.278 226.535 210.845 226.738 211.372L227.792 211.074ZM229.614 217H230.787V209.364H229.614V217ZM230.21 208.091C230.668 208.091 231.046 207.733 231.046 207.295C231.046 206.858 230.668 206.5 230.21 206.5C229.753 206.5 229.375 206.858 229.375 207.295C229.375 207.733 229.753 208.091 230.21 208.091ZM235.934 220.023C237.764 220.023 239.236 219.188 239.236 217.219V209.364H238.102V210.577H237.983C237.724 210.179 237.247 209.264 235.755 209.264C233.826 209.264 232.494 210.795 232.494 213.142C232.494 215.528 233.886 216.881 235.736 216.881C237.227 216.881 237.704 216.006 237.963 215.588H238.062V217.139C238.062 218.412 237.167 218.989 235.934 218.989C234.547 218.989 234.06 218.258 233.747 217.835L232.812 218.491C233.29 219.292 234.229 220.023 235.934 220.023ZM235.895 215.827C234.423 215.827 233.667 214.713 233.667 213.122C233.667 211.571 234.403 210.318 235.895 210.318C237.326 210.318 238.082 211.472 238.082 213.122C238.082 214.812 237.307 215.827 235.895 215.827ZM242.473 212.406C242.473 211.074 243.298 210.318 244.421 210.318C245.51 210.318 246.171 211.029 246.171 212.227V217H247.345V212.148C247.345 210.199 246.306 209.264 244.76 209.264C243.606 209.264 242.89 209.781 242.532 210.557H242.433V209.364H241.299V217H242.473V212.406ZM255.505 217.179C256.838 217.179 257.534 216.463 257.772 215.966H257.832V217H259.005V211.969C259.005 209.543 257.156 209.264 256.182 209.264C255.028 209.264 253.716 209.662 253.119 211.054L254.233 211.452C254.491 210.895 255.103 210.298 256.221 210.298C257.3 210.298 257.832 210.87 257.832 211.849V211.889C257.832 212.456 257.255 212.406 255.863 212.585C254.446 212.769 252.9 213.082 252.9 214.832C252.9 216.324 254.054 217.179 255.505 217.179ZM255.684 216.125C254.75 216.125 254.074 215.707 254.074 214.892C254.074 213.997 254.889 213.719 255.804 213.599C256.301 213.54 257.633 213.401 257.832 213.162V214.236C257.832 215.19 257.076 216.125 255.684 216.125ZM268.019 217.159C269.709 217.159 270.823 216.125 271.022 214.773H269.848C269.63 215.608 268.933 216.105 268.019 216.105C266.627 216.105 265.732 214.952 265.732 213.182C265.732 211.452 266.647 210.318 268.019 210.318C269.053 210.318 269.669 210.955 269.848 211.651H271.022C270.823 210.219 269.61 209.264 267.999 209.264C265.931 209.264 264.558 210.895 264.558 213.222C264.558 215.509 265.871 217.159 268.019 217.159ZM275.755 217.159C277.823 217.159 279.215 215.588 279.215 213.222C279.215 210.835 277.823 209.264 275.755 209.264C273.687 209.264 272.295 210.835 272.295 213.222C272.295 215.588 273.687 217.159 275.755 217.159ZM275.755 216.105C274.184 216.105 273.468 214.753 273.468 213.222C273.468 211.69 274.184 210.318 275.755 210.318C277.326 210.318 278.042 211.69 278.042 213.222C278.042 214.753 277.326 216.105 275.755 216.105ZM282.096 212.406C282.096 211.074 282.921 210.318 284.044 210.318C285.133 210.318 285.794 211.029 285.794 212.227V217H286.968V212.148C286.968 210.199 285.929 209.264 284.383 209.264C283.229 209.264 282.513 209.781 282.155 210.557H282.056V209.364H280.922V217H282.096V212.406ZM292.349 209.364H290.718V207.534H289.545V209.364H288.391V210.358H289.545V215.131C289.545 216.463 290.619 217.099 291.613 217.099C292.05 217.099 292.329 217.02 292.488 216.96L292.249 215.906C292.15 215.926 291.991 215.966 291.732 215.966C291.215 215.966 290.718 215.807 290.718 214.812V210.358H292.349V209.364ZM294.03 217H295.203V212.168C295.203 211.134 296.018 210.378 297.132 210.378C297.445 210.378 297.768 210.438 297.848 210.457V209.264C297.714 209.254 297.405 209.244 297.231 209.244C296.317 209.244 295.521 209.761 295.243 210.517H295.163V209.364H294.03V217ZM301.402 217.179C302.734 217.179 303.43 216.463 303.669 215.966H303.729V217H304.902V211.969C304.902 209.543 303.052 209.264 302.078 209.264C300.925 209.264 299.612 209.662 299.015 211.054L300.129 211.452C300.388 210.895 300.999 210.298 302.118 210.298C303.197 210.298 303.729 210.87 303.729 211.849V211.889C303.729 212.456 303.152 212.406 301.76 212.585C300.343 212.769 298.797 213.082 298.797 214.832C298.797 216.324 299.95 217.179 301.402 217.179ZM301.581 216.125C300.646 216.125 299.97 215.707 299.97 214.892C299.97 213.997 300.785 213.719 301.7 213.599C302.197 213.54 303.53 213.401 303.729 213.162V214.236C303.729 215.19 302.973 216.125 301.581 216.125ZM310.062 217.159C311.752 217.159 312.866 216.125 313.064 214.773H311.891C311.672 215.608 310.976 216.105 310.062 216.105C308.67 216.105 307.775 214.952 307.775 213.182C307.775 211.452 308.689 210.318 310.062 210.318C311.096 210.318 311.712 210.955 311.891 211.651H313.064C312.866 210.219 311.653 209.264 310.042 209.264C307.974 209.264 306.601 210.895 306.601 213.222C306.601 215.509 307.914 217.159 310.062 217.159ZM318.017 209.364H316.386V207.534H315.213V209.364H314.059V210.358H315.213V215.131C315.213 216.463 316.287 217.099 317.281 217.099C317.718 217.099 317.997 217.02 318.156 216.96L317.917 215.906C317.818 215.926 317.659 215.966 317.4 215.966C316.883 215.966 316.386 215.807 316.386 214.812V210.358H318.017V209.364Z" fill="#696F80"></path><path d="M330.972 208.273H329.915L327.733 209.722V210.795L329.864 209.381H329.915V217H330.972V208.273ZM339.345 217.136C340.607 217.136 341.033 216.352 341.254 215.994H341.374V217H342.345V208.273H341.339V211.494H341.254C341.033 211.153 340.641 210.369 339.362 210.369C337.709 210.369 336.567 211.682 336.567 213.744C336.567 215.824 337.709 217.136 339.345 217.136ZM339.482 216.233C338.22 216.233 337.572 215.125 337.572 213.727C337.572 212.347 338.203 211.273 339.482 211.273C340.709 211.273 341.357 212.261 341.357 213.727C341.357 215.21 340.692 216.233 339.482 216.233ZM346.253 217.153C347.395 217.153 347.991 216.54 348.196 216.114H348.247V217H349.253V212.688C349.253 210.608 347.668 210.369 346.832 210.369C345.844 210.369 344.719 210.71 344.207 211.903L345.162 212.244C345.384 211.767 345.908 211.256 346.866 211.256C347.791 211.256 348.247 211.746 348.247 212.585V212.619C348.247 213.105 347.753 213.062 346.56 213.216C345.345 213.374 344.02 213.642 344.02 215.142C344.02 216.42 345.009 217.153 346.253 217.153ZM346.406 216.25C345.605 216.25 345.026 215.892 345.026 215.193C345.026 214.426 345.724 214.188 346.509 214.085C346.935 214.034 348.077 213.915 348.247 213.71V214.631C348.247 215.449 347.599 216.25 346.406 216.25ZM351.502 219.455C352.409 219.455 353.049 218.973 353.428 217.955L356.215 210.472L355.115 210.455L353.309 215.67H353.24L351.434 210.455H350.343L352.763 217.034L352.576 217.545C352.209 218.543 351.757 218.636 351.025 218.449L350.769 219.335C350.871 219.386 351.161 219.455 351.502 219.455ZM362.847 217.153C363.989 217.153 364.585 216.54 364.79 216.114H364.841V217H365.847V212.688C365.847 210.608 364.261 210.369 363.426 210.369C362.438 210.369 361.312 210.71 360.801 211.903L361.756 212.244C361.977 211.767 362.501 211.256 363.46 211.256C364.385 211.256 364.841 211.746 364.841 212.585V212.619C364.841 213.105 364.347 213.062 363.153 213.216C361.939 213.374 360.614 213.642 360.614 215.142C360.614 216.42 361.602 217.153 362.847 217.153ZM363 216.25C362.199 216.25 361.619 215.892 361.619 215.193C361.619 214.426 362.318 214.188 363.102 214.085C363.528 214.034 364.67 213.915 364.841 213.71V214.631C364.841 215.449 364.193 216.25 363 216.25ZM370.324 219.591C371.892 219.591 373.154 218.875 373.154 217.188V210.455H372.182V211.494H372.08C371.858 211.153 371.449 210.369 370.171 210.369C368.517 210.369 367.375 211.682 367.375 213.693C367.375 215.739 368.569 216.898 370.154 216.898C371.432 216.898 371.841 216.148 372.063 215.79H372.148V217.119C372.148 218.21 371.381 218.705 370.324 218.705C369.135 218.705 368.718 218.078 368.449 217.716L367.648 218.278C368.057 218.964 368.863 219.591 370.324 219.591ZM370.29 215.994C369.029 215.994 368.381 215.04 368.381 213.676C368.381 212.347 369.012 211.273 370.29 211.273C371.517 211.273 372.165 212.261 372.165 213.676C372.165 215.125 371.5 215.994 370.29 215.994ZM377.654 217.136C379.426 217.136 380.62 215.79 380.62 213.761C380.62 211.716 379.426 210.369 377.654 210.369C375.881 210.369 374.688 211.716 374.688 213.761C374.688 215.79 375.881 217.136 377.654 217.136ZM377.654 216.233C376.307 216.233 375.694 215.074 375.694 213.761C375.694 212.449 376.307 211.273 377.654 211.273C379 211.273 379.614 212.449 379.614 213.761C379.614 215.074 379 216.233 377.654 216.233Z" fill="#696F80"></path><rect x="16" y="240" width="520" height="56" rx="8" fill="white"></rect><rect x="28" y="252" width="32" height="32" rx="16" fill="#29B8A5"></rect><path d="M50 263L43.6304 272.466C43.5272 272.619 43.3957 272.746 43.2448 272.837C43.0938 272.929 42.927 272.983 42.7556 272.997C42.5842 273.01 42.4121 272.983 42.2511 272.916C42.0901 272.849 41.9439 272.744 41.8224 272.608L38 268.35" stroke="white" stroke-linecap="round" stroke-linejoin="round"></path><path d="M74.1879 273L75.1226 270.305H79.0998L80.0295 273H81.6602L77.9961 262.818H76.2213L72.5572 273H74.1879ZM75.57 269.013L77.0714 264.668H77.151L78.6524 269.013H75.57ZM84.4137 262.818H82.9272V273H84.4137V262.818ZM89.6208 273.154C91.2862 273.154 92.4645 272.334 92.8026 271.091L91.3956 270.837C91.1272 271.558 90.4808 271.926 89.6357 271.926C88.3629 271.926 87.5078 271.101 87.4681 269.629H92.897V269.102C92.897 266.343 91.2465 265.264 89.5164 265.264C87.3885 265.264 85.9865 266.885 85.9865 269.232C85.9865 271.603 87.3686 273.154 89.6208 273.154ZM87.473 268.516C87.5327 267.432 88.3182 266.492 89.5263 266.492C90.6797 266.492 91.4354 267.347 91.4404 268.516H87.473ZM95.4579 265.364H93.8272L96.1738 269.182L93.7974 273H95.4281L97.1433 270.146L98.8635 273H100.489L98.0879 269.182L100.469 265.364H98.8436L97.1433 268.337L95.4579 265.364ZM105.652 273H107.188V268.56H111.513V267.243H107.188V264.141H111.966V262.818H105.652V273ZM113.652 273H115.138V265.364H113.652V273ZM114.402 264.185C114.915 264.185 115.342 263.788 115.342 263.3C115.342 262.813 114.915 262.411 114.402 262.411C113.885 262.411 113.463 262.813 113.463 263.3C113.463 263.788 113.885 264.185 114.402 264.185ZM122.776 267.228C122.468 266.04 121.538 265.264 119.888 265.264C118.163 265.264 116.94 266.174 116.94 267.526C116.94 268.61 117.596 269.331 119.028 269.649L120.32 269.933C121.056 270.097 121.399 270.425 121.399 270.902C121.399 271.494 120.768 271.956 119.793 271.956C118.904 271.956 118.332 271.573 118.153 270.822L116.716 271.041C116.965 272.393 118.088 273.154 119.803 273.154C121.648 273.154 122.926 272.175 122.926 270.793C122.926 269.714 122.239 269.048 120.837 268.724L119.624 268.446C118.784 268.247 118.421 267.964 118.426 267.447C118.421 266.86 119.058 266.442 119.903 266.442C120.828 266.442 121.255 266.955 121.429 267.467L122.776 267.228ZM127.693 273.154C129.497 273.154 130.666 272.07 130.83 270.584H129.383C129.194 271.409 128.553 271.896 127.703 271.896C126.445 271.896 125.634 270.847 125.634 269.182C125.634 267.546 126.46 266.517 127.703 266.517C128.647 266.517 129.224 267.114 129.383 267.83H130.83C130.671 266.288 129.413 265.264 127.678 265.264C125.525 265.264 124.133 266.885 124.133 269.217C124.133 271.518 125.475 273.154 127.693 273.154ZM133.822 268.466C133.822 267.248 134.592 266.552 135.651 266.552C136.676 266.552 137.287 267.203 137.287 268.322V273H138.774V268.143C138.774 266.239 137.729 265.264 136.158 265.264C134.97 265.264 134.254 265.781 133.896 266.607H133.802V262.818H132.335V273H133.822V268.466ZM143.964 273.154C145.63 273.154 146.808 272.334 147.146 271.091L145.739 270.837C145.471 271.558 144.824 271.926 143.979 271.926C142.707 271.926 141.851 271.101 141.812 269.629H147.241V269.102C147.241 266.343 145.59 265.264 143.86 265.264C141.732 265.264 140.33 266.885 140.33 269.232C140.33 271.603 141.712 273.154 143.964 273.154ZM141.817 268.516C141.876 267.432 142.662 266.492 143.87 266.492C145.023 266.492 145.779 267.347 145.784 268.516H141.817ZM148.806 273H150.292V268.337C150.292 267.337 151.063 266.616 152.117 266.616C152.425 266.616 152.773 266.671 152.893 266.706V265.284C152.743 265.264 152.45 265.249 152.261 265.249C151.366 265.249 150.601 265.756 150.322 266.577H150.243V265.364H148.806V273Z" fill="#2D2F33"></path><path d="M163.2 267.074C162.832 265.99 162.007 265.264 160.495 265.264C158.884 265.264 157.691 266.179 157.691 267.472C157.691 268.526 158.318 269.232 159.72 269.56L160.992 269.858C161.763 270.037 162.126 270.405 162.126 270.932C162.126 271.588 161.43 272.125 160.336 272.125C159.377 272.125 158.775 271.712 158.566 270.892L157.453 271.17C157.726 272.468 158.795 273.159 160.356 273.159C162.131 273.159 163.339 272.19 163.339 270.872C163.339 269.808 162.673 269.137 161.311 268.804L160.177 268.526C159.272 268.302 158.865 267.999 158.865 267.412C158.865 266.756 159.561 266.278 160.495 266.278C161.519 266.278 161.942 266.845 162.146 267.372L163.2 267.074ZM165.021 273H166.194V265.364H165.021V273ZM165.618 264.091C166.075 264.091 166.453 263.733 166.453 263.295C166.453 262.858 166.075 262.5 165.618 262.5C165.16 262.5 164.783 262.858 164.783 263.295C164.783 263.733 165.16 264.091 165.618 264.091ZM171.342 276.023C173.171 276.023 174.643 275.188 174.643 273.219V265.364H173.509V266.577H173.39C173.132 266.179 172.654 265.264 171.163 265.264C169.234 265.264 167.901 266.795 167.901 269.142C167.901 271.528 169.293 272.881 171.143 272.881C172.634 272.881 173.112 272.006 173.37 271.588H173.47V273.139C173.47 274.412 172.575 274.989 171.342 274.989C169.955 274.989 169.467 274.258 169.154 273.835L168.22 274.491C168.697 275.292 169.637 276.023 171.342 276.023ZM171.302 271.827C169.83 271.827 169.075 270.713 169.075 269.122C169.075 267.571 169.811 266.318 171.302 266.318C172.734 266.318 173.49 267.472 173.49 269.122C173.49 270.812 172.714 271.827 171.302 271.827ZM177.88 268.406C177.88 267.074 178.705 266.318 179.829 266.318C180.918 266.318 181.579 267.029 181.579 268.227V273H182.752V268.148C182.752 266.199 181.713 265.264 180.167 265.264C179.013 265.264 178.298 265.781 177.94 266.557H177.84V265.364H176.707V273H177.88V268.406ZM188.014 273.159C189.565 273.159 190.698 272.384 191.056 271.23L189.923 270.912C189.625 271.707 188.934 272.105 188.014 272.105C186.637 272.105 185.687 271.215 185.632 269.58H191.176V269.082C191.176 266.239 189.485 265.264 187.894 265.264C185.826 265.264 184.454 266.895 184.454 269.241C184.454 271.588 185.806 273.159 188.014 273.159ZM185.632 268.565C185.712 267.377 186.552 266.318 187.894 266.318C189.167 266.318 189.983 267.273 189.983 268.565H185.632ZM195.76 273.159C197.232 273.159 197.729 272.244 197.987 271.827H198.127V273H199.26V262.818H198.087V266.577H197.987C197.729 266.179 197.271 265.264 195.78 265.264C193.851 265.264 192.519 266.795 192.519 269.202C192.519 271.628 193.851 273.159 195.76 273.159ZM195.919 272.105C194.448 272.105 193.692 270.812 193.692 269.182C193.692 267.571 194.428 266.318 195.919 266.318C197.351 266.318 198.107 267.472 198.107 269.182C198.107 270.912 197.331 272.105 195.919 272.105ZM207.589 273.179C208.921 273.179 209.617 272.463 209.856 271.966H209.915V273H211.089V267.969C211.089 265.543 209.239 265.264 208.265 265.264C207.111 265.264 205.799 265.662 205.202 267.054L206.316 267.452C206.574 266.895 207.186 266.298 208.304 266.298C209.383 266.298 209.915 266.87 209.915 267.849V267.889C209.915 268.456 209.339 268.406 207.946 268.585C206.53 268.769 204.983 269.082 204.983 270.832C204.983 272.324 206.137 273.179 207.589 273.179ZM207.768 272.125C206.833 272.125 206.157 271.707 206.157 270.892C206.157 269.997 206.972 269.719 207.887 269.599C208.384 269.54 209.716 269.401 209.915 269.162V270.236C209.915 271.19 209.16 272.125 207.768 272.125ZM220.102 273.159C221.792 273.159 222.906 272.125 223.105 270.773H221.931C221.713 271.608 221.017 272.105 220.102 272.105C218.71 272.105 217.815 270.952 217.815 269.182C217.815 267.452 218.73 266.318 220.102 266.318C221.136 266.318 221.752 266.955 221.931 267.651H223.105C222.906 266.219 221.693 265.264 220.082 265.264C218.014 265.264 216.642 266.895 216.642 269.222C216.642 271.509 217.954 273.159 220.102 273.159ZM227.838 273.159C229.906 273.159 231.298 271.588 231.298 269.222C231.298 266.835 229.906 265.264 227.838 265.264C225.77 265.264 224.378 266.835 224.378 269.222C224.378 271.588 225.77 273.159 227.838 273.159ZM227.838 272.105C226.267 272.105 225.551 270.753 225.551 269.222C225.551 267.69 226.267 266.318 227.838 266.318C229.409 266.318 230.125 267.69 230.125 269.222C230.125 270.753 229.409 272.105 227.838 272.105ZM234.179 268.406C234.179 267.074 235.004 266.318 236.128 266.318C237.216 266.318 237.878 267.029 237.878 268.227V273H239.051V268.148C239.051 266.199 238.012 265.264 236.466 265.264C235.312 265.264 234.596 265.781 234.238 266.557H234.139V265.364H233.005V273H234.179V268.406ZM244.432 265.364H242.801V263.534H241.628V265.364H240.474V266.358H241.628V271.131C241.628 272.463 242.702 273.099 243.696 273.099C244.134 273.099 244.412 273.02 244.571 272.96L244.332 271.906C244.233 271.926 244.074 271.966 243.815 271.966C243.298 271.966 242.801 271.807 242.801 270.812V266.358H244.432V265.364ZM246.113 273H247.286V268.168C247.286 267.134 248.101 266.378 249.215 266.378C249.528 266.378 249.851 266.438 249.931 266.457V265.264C249.797 265.254 249.488 265.244 249.314 265.244C248.4 265.244 247.604 265.761 247.326 266.517H247.246V265.364H246.113V273ZM253.485 273.179C254.817 273.179 255.513 272.463 255.752 271.966H255.812V273H256.985V267.969C256.985 265.543 255.135 265.264 254.161 265.264C253.008 265.264 251.695 265.662 251.099 267.054L252.212 267.452C252.471 266.895 253.082 266.298 254.201 266.298C255.28 266.298 255.812 266.87 255.812 267.849V267.889C255.812 268.456 255.235 268.406 253.843 268.585C252.426 268.769 250.88 269.082 250.88 270.832C250.88 272.324 252.033 273.179 253.485 273.179ZM253.664 272.125C252.729 272.125 252.053 271.707 252.053 270.892C252.053 269.997 252.868 269.719 253.783 269.599C254.28 269.54 255.613 269.401 255.812 269.162V270.236C255.812 271.19 255.056 272.125 253.664 272.125ZM262.145 273.159C263.835 273.159 264.949 272.125 265.148 270.773H263.974C263.755 271.608 263.059 272.105 262.145 272.105C260.753 272.105 259.858 270.952 259.858 269.182C259.858 267.452 260.773 266.318 262.145 266.318C263.179 266.318 263.795 266.955 263.974 267.651H265.148C264.949 266.219 263.736 265.264 262.125 265.264C260.057 265.264 258.684 266.895 258.684 269.222C258.684 271.509 259.997 273.159 262.145 273.159ZM270.1 265.364H268.469V263.534H267.296V265.364H266.142V266.358H267.296V271.131C267.296 272.463 268.37 273.099 269.364 273.099C269.801 273.099 270.08 273.02 270.239 272.96L270 271.906C269.901 271.926 269.742 271.966 269.483 271.966C268.966 271.966 268.469 271.807 268.469 270.812V266.358H270.1V265.364Z" fill="#696F80"></path><path d="M282.631 273.119C284.293 273.119 285.511 271.892 285.511 270.222C285.511 268.53 284.335 267.29 282.733 267.29C282.145 267.29 281.574 267.499 281.216 267.784H281.165L281.472 265.21H285.119V264.273H280.585L280.057 268.568L281.045 268.688C281.408 268.428 282.026 268.24 282.562 268.244C283.675 268.253 284.489 269.097 284.489 270.239C284.489 271.359 283.705 272.182 282.631 272.182C281.736 272.182 281.024 271.607 280.943 270.818H279.92C279.984 272.148 281.131 273.119 282.631 273.119ZM291.602 269.062C291.602 267.92 292.331 267.273 293.324 267.273C294.27 267.273 294.841 267.869 294.841 268.909V273H295.846V268.841C295.846 267.158 294.951 266.369 293.613 266.369C292.582 266.369 291.994 266.8 291.687 267.477H291.602V264.273H290.596V273H291.602V269.062ZM300.345 273.136C302.118 273.136 303.311 271.79 303.311 269.761C303.311 267.716 302.118 266.369 300.345 266.369C298.572 266.369 297.379 267.716 297.379 269.761C297.379 271.79 298.572 273.136 300.345 273.136ZM300.345 272.233C298.999 272.233 298.385 271.074 298.385 269.761C298.385 268.449 298.999 267.273 300.345 267.273C301.692 267.273 302.305 268.449 302.305 269.761C302.305 271.074 301.692 272.233 300.345 272.233ZM308.971 270.324C308.971 271.551 308.034 272.114 307.284 272.114C306.449 272.114 305.852 271.5 305.852 270.545V266.455H304.846V270.614C304.846 272.284 305.733 273.085 306.96 273.085C307.949 273.085 308.596 272.557 308.903 271.892H308.971V273H309.977V266.455H308.971V270.324ZM311.819 273H312.825V268.858C312.825 267.972 313.523 267.324 314.478 267.324C314.746 267.324 315.023 267.375 315.092 267.392V266.369C314.977 266.361 314.712 266.352 314.563 266.352C313.779 266.352 313.097 266.795 312.859 267.443H312.79V266.455H311.819V273ZM320.92 267.92C320.605 266.991 319.897 266.369 318.602 266.369C317.221 266.369 316.199 267.153 316.199 268.261C316.199 269.165 316.735 269.77 317.937 270.051L319.028 270.307C319.689 270.46 320 270.776 320 271.227C320 271.79 319.403 272.25 318.466 272.25C317.643 272.25 317.127 271.896 316.949 271.193L315.994 271.432C316.228 272.544 317.145 273.136 318.483 273.136C320.004 273.136 321.039 272.305 321.039 271.176C321.039 270.264 320.468 269.689 319.301 269.403L318.329 269.165C317.554 268.973 317.204 268.713 317.204 268.21C317.204 267.648 317.801 267.239 318.602 267.239C319.48 267.239 319.842 267.724 320.017 268.176L320.92 267.92ZM327.854 273.153C328.996 273.153 329.593 272.54 329.798 272.114H329.849V273H330.854V268.688C330.854 266.608 329.269 266.369 328.434 266.369C327.445 266.369 326.32 266.71 325.809 267.903L326.763 268.244C326.985 267.767 327.509 267.256 328.468 267.256C329.393 267.256 329.849 267.746 329.849 268.585V268.619C329.849 269.105 329.354 269.062 328.161 269.216C326.947 269.374 325.621 269.642 325.621 271.142C325.621 272.42 326.61 273.153 327.854 273.153ZM328.008 272.25C327.207 272.25 326.627 271.892 326.627 271.193C326.627 270.426 327.326 270.188 328.11 270.085C328.536 270.034 329.678 269.915 329.849 269.71V270.631C329.849 271.449 329.201 272.25 328.008 272.25ZM335.332 275.591C336.9 275.591 338.162 274.875 338.162 273.188V266.455H337.19V267.494H337.088C336.866 267.153 336.457 266.369 335.179 266.369C333.525 266.369 332.383 267.682 332.383 269.693C332.383 271.739 333.576 272.898 335.162 272.898C336.44 272.898 336.849 272.148 337.071 271.79H337.156V273.119C337.156 274.21 336.389 274.705 335.332 274.705C334.143 274.705 333.725 274.078 333.457 273.716L332.656 274.278C333.065 274.964 333.87 275.591 335.332 275.591ZM335.298 271.994C334.037 271.994 333.389 271.04 333.389 269.676C333.389 268.347 334.02 267.273 335.298 267.273C336.525 267.273 337.173 268.261 337.173 269.676C337.173 271.125 336.508 271.994 335.298 271.994ZM342.662 273.136C344.434 273.136 345.627 271.79 345.627 269.761C345.627 267.716 344.434 266.369 342.662 266.369C340.889 266.369 339.696 267.716 339.696 269.761C339.696 271.79 340.889 273.136 342.662 273.136ZM342.662 272.233C341.315 272.233 340.701 271.074 340.701 269.761C340.701 268.449 341.315 267.273 342.662 267.273C344.008 267.273 344.622 268.449 344.622 269.761C344.622 271.074 344.008 272.233 342.662 272.233Z" fill="#696F80"></path><rect x="16" y="296" width="520" height="56" rx="8" fill="white"></rect><rect x="28" y="308" width="32" height="32" rx="16" fill="#29B8A5"></rect><path d="M50 319L43.6304 328.466C43.5272 328.619 43.3957 328.746 43.2448 328.837C43.0938 328.929 42.927 328.983 42.7556 328.997C42.5842 329.01 42.4121 328.983 42.2511 328.916C42.0901 328.849 41.9439 328.744 41.8224 328.608L38 324.35" stroke="white" stroke-linecap="round" stroke-linejoin="round"></path><path d="M79.094 321.493H80.5755C80.5308 319.862 79.089 318.679 77.0208 318.679C74.9775 318.679 73.4115 319.847 73.4115 321.602C73.4115 323.019 74.4257 323.849 76.0613 324.292L77.2644 324.62C78.3532 324.908 79.1934 325.266 79.1934 326.171C79.1934 327.165 78.2439 327.822 76.9363 327.822C75.7531 327.822 74.7687 327.295 74.6792 326.186H73.138C73.2375 328.031 74.6643 329.169 76.9463 329.169C79.3376 329.169 80.7147 327.911 80.7147 326.186C80.7147 324.352 79.0791 323.641 77.7865 323.322L76.7921 323.064C75.9967 322.86 74.9377 322.487 74.9427 321.513C74.9427 320.648 75.7332 320.006 76.986 320.006C78.1544 320.006 78.9846 320.553 79.094 321.493ZM84.5695 329.169C85.8323 329.169 86.5432 328.528 86.8266 327.956H86.8862V329H88.3379V323.929C88.3379 321.707 86.5879 321.264 85.3749 321.264C83.9928 321.264 82.72 321.821 82.2229 323.213L83.6199 323.531C83.8387 322.989 84.3955 322.467 85.3948 322.467C86.3543 322.467 86.8465 322.969 86.8465 323.835V323.869C86.8465 324.411 86.2896 324.401 84.9175 324.56C83.4708 324.729 81.9892 325.107 81.9892 326.842C81.9892 328.344 83.1178 329.169 84.5695 329.169ZM84.8926 327.976C84.0524 327.976 83.4459 327.598 83.4459 326.862C83.4459 326.067 84.1519 325.783 85.0119 325.669C85.4942 325.604 86.6377 325.475 86.8514 325.261V326.246C86.8514 327.151 86.1306 327.976 84.8926 327.976ZM91.7204 318.818H90.2339V329H91.7204V318.818ZM93.6362 329H95.1227V324.292C95.1227 323.263 95.8436 322.547 96.6888 322.547C97.514 322.547 98.0858 323.094 98.0858 323.924V329H99.5673V324.133C99.5673 323.213 100.129 322.547 101.099 322.547C101.884 322.547 102.53 322.984 102.53 324.018V329H104.017V323.879C104.017 322.134 103.042 321.264 101.66 321.264C100.562 321.264 99.7363 321.791 99.3684 322.607H99.2889C98.9558 321.771 98.2548 321.264 97.2356 321.264C96.2264 321.264 95.4757 321.766 95.1575 322.607H95.0631V321.364H93.6362V329ZM108.148 329.169C109.41 329.169 110.121 328.528 110.405 327.956H110.464V329H111.916V323.929C111.916 321.707 110.166 321.264 108.953 321.264C107.571 321.264 106.298 321.821 105.801 323.213L107.198 323.531C107.417 322.989 107.974 322.467 108.973 322.467C109.932 322.467 110.425 322.969 110.425 323.835V323.869C110.425 324.411 109.868 324.401 108.496 324.56C107.049 324.729 105.567 325.107 105.567 326.842C105.567 328.344 106.696 329.169 108.148 329.169ZM108.471 327.976C107.631 327.976 107.024 327.598 107.024 326.862C107.024 326.067 107.73 325.783 108.59 325.669C109.072 325.604 110.216 325.475 110.43 325.261V326.246C110.43 327.151 109.709 327.976 108.471 327.976ZM124.443 322.035H126.019C125.676 320.051 123.981 318.679 121.783 318.679C119.148 318.679 117.224 320.663 117.224 323.914C117.224 327.136 119.094 329.139 121.853 329.139C124.324 329.139 126.089 327.518 126.089 324.948V323.79H122.086V325.058H124.602C124.567 326.698 123.483 327.737 121.853 327.737C120.058 327.737 118.751 326.38 118.751 323.904C118.751 321.438 120.068 320.081 121.793 320.081C123.145 320.081 124.06 320.827 124.443 322.035ZM131.052 329.154C133.205 329.154 134.612 327.578 134.612 325.217C134.612 322.84 133.205 321.264 131.052 321.264C128.899 321.264 127.492 322.84 127.492 325.217C127.492 327.578 128.899 329.154 131.052 329.154ZM131.057 327.906C129.65 327.906 128.994 326.678 128.994 325.212C128.994 323.75 129.65 322.507 131.057 322.507C132.454 322.507 133.11 323.75 133.11 325.212C133.11 326.678 132.454 327.906 131.057 327.906ZM139.404 329.154C141.556 329.154 142.963 327.578 142.963 325.217C142.963 322.84 141.556 321.264 139.404 321.264C137.251 321.264 135.844 322.84 135.844 325.217C135.844 327.578 137.251 329.154 139.404 329.154ZM139.408 327.906C138.002 327.906 137.345 326.678 137.345 325.212C137.345 323.75 138.002 322.507 139.408 322.507C140.806 322.507 141.462 323.75 141.462 325.212C141.462 326.678 140.806 327.906 139.408 327.906ZM147.397 329.149C148.789 329.149 149.336 328.299 149.605 327.812H149.729V329H151.181V318.818H149.694V322.602H149.605C149.336 322.129 148.829 321.264 147.407 321.264C145.563 321.264 144.205 322.721 144.205 325.197C144.205 327.668 145.543 329.149 147.397 329.149ZM147.725 327.881C146.398 327.881 145.707 326.713 145.707 325.182C145.707 323.665 146.383 322.527 147.725 322.527C149.023 322.527 149.719 323.586 149.719 325.182C149.719 326.788 149.008 327.881 147.725 327.881ZM159.751 321.364H158.155L156.226 327.24H156.146L154.212 321.364H152.617L155.391 329H156.982L159.751 321.364ZM161.064 329H162.55V321.364H161.064V329ZM161.815 320.185C162.327 320.185 162.754 319.788 162.754 319.3C162.754 318.813 162.327 318.411 161.815 318.411C161.297 318.411 160.875 318.813 160.875 319.3C160.875 319.788 161.297 320.185 161.815 320.185ZM165.953 324.466C165.953 323.248 166.698 322.552 167.732 322.552C168.742 322.552 169.353 323.213 169.353 324.322V329H170.84V324.143C170.84 322.254 169.801 321.264 168.24 321.264C167.091 321.264 166.34 321.796 165.987 322.607H165.893V321.364H164.466V329H165.953V324.466ZM176.041 329.154C177.706 329.154 178.884 328.334 179.222 327.091L177.815 326.837C177.547 327.558 176.901 327.926 176.055 327.926C174.783 327.926 173.928 327.101 173.888 325.629H179.317V325.102C179.317 322.343 177.666 321.264 175.936 321.264C173.808 321.264 172.406 322.885 172.406 325.232C172.406 327.603 173.788 329.154 176.041 329.154ZM173.893 324.516C173.952 323.432 174.738 322.492 175.946 322.492C177.099 322.492 177.855 323.347 177.86 324.516H173.893Z" fill="#2D2F33"></path><path d="M189.987 323.074C189.619 321.99 188.794 321.264 187.282 321.264C185.672 321.264 184.478 322.179 184.478 323.472C184.478 324.526 185.105 325.232 186.507 325.56L187.779 325.858C188.55 326.037 188.913 326.405 188.913 326.932C188.913 327.588 188.217 328.125 187.123 328.125C186.164 328.125 185.562 327.712 185.353 326.892L184.24 327.17C184.513 328.468 185.582 329.159 187.143 329.159C188.918 329.159 190.126 328.19 190.126 326.872C190.126 325.808 189.46 325.137 188.098 324.804L186.964 324.526C186.059 324.302 185.652 323.999 185.652 323.412C185.652 322.756 186.348 322.278 187.282 322.278C188.306 322.278 188.729 322.845 188.933 323.372L189.987 323.074ZM191.808 329H192.982V321.364H191.808V329ZM192.405 320.091C192.862 320.091 193.24 319.733 193.24 319.295C193.24 318.858 192.862 318.5 192.405 318.5C191.947 318.5 191.57 318.858 191.57 319.295C191.57 319.733 191.947 320.091 192.405 320.091ZM198.129 332.023C199.958 332.023 201.43 331.188 201.43 329.219V321.364H200.296V322.577H200.177C199.919 322.179 199.441 321.264 197.95 321.264C196.021 321.264 194.689 322.795 194.689 325.142C194.689 327.528 196.081 328.881 197.93 328.881C199.421 328.881 199.899 328.006 200.157 327.588H200.257V329.139C200.257 330.412 199.362 330.989 198.129 330.989C196.742 330.989 196.255 330.258 195.941 329.835L195.007 330.491C195.484 331.292 196.424 332.023 198.129 332.023ZM198.089 327.827C196.618 327.827 195.862 326.713 195.862 325.122C195.862 323.571 196.598 322.318 198.089 322.318C199.521 322.318 200.277 323.472 200.277 325.122C200.277 326.812 199.501 327.827 198.089 327.827ZM204.667 324.406C204.667 323.074 205.492 322.318 206.616 322.318C207.705 322.318 208.366 323.029 208.366 324.227V329H209.539V324.148C209.539 322.199 208.5 321.264 206.954 321.264C205.801 321.264 205.085 321.781 204.727 322.557H204.627V321.364H203.494V329H204.667V324.406ZM214.801 329.159C216.352 329.159 217.486 328.384 217.844 327.23L216.71 326.912C216.412 327.707 215.721 328.105 214.801 328.105C213.424 328.105 212.474 327.215 212.42 325.58H217.963V325.082C217.963 322.239 216.273 321.264 214.682 321.264C212.613 321.264 211.241 322.895 211.241 325.241C211.241 327.588 212.594 329.159 214.801 329.159ZM212.42 324.565C212.499 323.377 213.339 322.318 214.682 322.318C215.954 322.318 216.77 323.273 216.77 324.565H212.42ZM222.547 329.159C224.019 329.159 224.516 328.244 224.774 327.827H224.914V329H226.047V318.818H224.874V322.577H224.774C224.516 322.179 224.059 321.264 222.567 321.264C220.638 321.264 219.306 322.795 219.306 325.202C219.306 327.628 220.638 329.159 222.547 329.159ZM222.706 328.105C221.235 328.105 220.479 326.812 220.479 325.182C220.479 323.571 221.215 322.318 222.706 322.318C224.138 322.318 224.894 323.472 224.894 325.182C224.894 326.912 224.118 328.105 222.706 328.105ZM234.376 329.179C235.708 329.179 236.404 328.463 236.643 327.966H236.702V329H237.876V323.969C237.876 321.543 236.026 321.264 235.052 321.264C233.898 321.264 232.586 321.662 231.989 323.054L233.103 323.452C233.361 322.895 233.973 322.298 235.092 322.298C236.17 322.298 236.702 322.87 236.702 323.849V323.889C236.702 324.456 236.126 324.406 234.734 324.585C233.317 324.769 231.77 325.082 231.77 326.832C231.77 328.324 232.924 329.179 234.376 329.179ZM234.555 328.125C233.62 328.125 232.944 327.707 232.944 326.892C232.944 325.997 233.759 325.719 234.674 325.599C235.171 325.54 236.503 325.401 236.702 325.162V326.236C236.702 327.19 235.947 328.125 234.555 328.125ZM246.889 329.159C248.579 329.159 249.693 328.125 249.892 326.773H248.718C248.5 327.608 247.804 328.105 246.889 328.105C245.497 328.105 244.602 326.952 244.602 325.182C244.602 323.452 245.517 322.318 246.889 322.318C247.923 322.318 248.539 322.955 248.718 323.651H249.892C249.693 322.219 248.48 321.264 246.869 321.264C244.801 321.264 243.429 322.895 243.429 325.222C243.429 327.509 244.741 329.159 246.889 329.159ZM254.625 329.159C256.693 329.159 258.085 327.588 258.085 325.222C258.085 322.835 256.693 321.264 254.625 321.264C252.557 321.264 251.165 322.835 251.165 325.222C251.165 327.588 252.557 329.159 254.625 329.159ZM254.625 328.105C253.054 328.105 252.338 326.753 252.338 325.222C252.338 323.69 253.054 322.318 254.625 322.318C256.196 322.318 256.912 323.69 256.912 325.222C256.912 326.753 256.196 328.105 254.625 328.105ZM260.966 324.406C260.966 323.074 261.791 322.318 262.915 322.318C264.003 322.318 264.665 323.029 264.665 324.227V329H265.838V324.148C265.838 322.199 264.799 321.264 263.253 321.264C262.099 321.264 261.383 321.781 261.025 322.557H260.926V321.364H259.792V329H260.966V324.406ZM271.219 321.364H269.588V319.534H268.415V321.364H267.262V322.358H268.415V327.131C268.415 328.463 269.489 329.099 270.483 329.099C270.921 329.099 271.199 329.02 271.358 328.96L271.119 327.906C271.02 327.926 270.861 327.966 270.602 327.966C270.085 327.966 269.588 327.807 269.588 326.812V322.358H271.219V321.364ZM272.9 329H274.073V324.168C274.073 323.134 274.888 322.378 276.002 322.378C276.315 322.378 276.638 322.438 276.718 322.457V321.264C276.584 321.254 276.276 321.244 276.102 321.244C275.187 321.244 274.391 321.761 274.113 322.517H274.033V321.364H272.9V329ZM280.272 329.179C281.604 329.179 282.3 328.463 282.539 327.966H282.599V329H283.772V323.969C283.772 321.543 281.923 321.264 280.948 321.264C279.795 321.264 278.482 321.662 277.886 323.054L278.999 323.452C279.258 322.895 279.869 322.298 280.988 322.298C282.067 322.298 282.599 322.87 282.599 323.849V323.889C282.599 324.456 282.022 324.406 280.63 324.585C279.213 324.769 277.667 325.082 277.667 326.832C277.667 328.324 278.82 329.179 280.272 329.179ZM280.451 328.125C279.516 328.125 278.84 327.707 278.84 326.892C278.84 325.997 279.656 325.719 280.57 325.599C281.067 325.54 282.4 325.401 282.599 325.162V326.236C282.599 327.19 281.843 328.125 280.451 328.125ZM288.932 329.159C290.622 329.159 291.736 328.125 291.935 326.773H290.761C290.543 327.608 289.847 328.105 288.932 328.105C287.54 328.105 286.645 326.952 286.645 325.182C286.645 323.452 287.56 322.318 288.932 322.318C289.966 322.318 290.582 322.955 290.761 323.651H291.935C291.736 322.219 290.523 321.264 288.912 321.264C286.844 321.264 285.472 322.895 285.472 325.222C285.472 327.509 286.784 329.159 288.932 329.159ZM296.887 321.364H295.256V319.534H294.083V321.364H292.929V322.358H294.083V327.131C294.083 328.463 295.157 329.099 296.151 329.099C296.589 329.099 296.867 329.02 297.026 328.96L296.787 327.906C296.688 327.926 296.529 327.966 296.27 327.966C295.753 327.966 295.256 327.807 295.256 326.812V322.358H296.887V321.364Z" fill="#696F80"></path><path d="M310.398 320.273V326.511C310.398 327.598 309.878 328.182 308.966 328.182C308.135 328.182 307.534 327.696 307.534 326.955H306.494C306.494 328.297 307.534 329.119 308.966 329.119C310.483 329.119 311.455 328.186 311.455 326.511V320.273H310.398ZM317.561 326.324C317.561 327.551 316.624 328.114 315.874 328.114C315.038 328.114 314.442 327.5 314.442 326.545V322.455H313.436V326.614C313.436 328.284 314.322 329.085 315.55 329.085C316.538 329.085 317.186 328.557 317.493 327.892H317.561V329H318.567V322.455H317.561V326.324ZM325.045 323.92C324.73 322.991 324.022 322.369 322.727 322.369C321.346 322.369 320.324 323.153 320.324 324.261C320.324 325.165 320.86 325.77 322.062 326.051L323.153 326.307C323.814 326.46 324.125 326.776 324.125 327.227C324.125 327.79 323.528 328.25 322.591 328.25C321.768 328.25 321.252 327.896 321.074 327.193L320.119 327.432C320.353 328.544 321.27 329.136 322.608 329.136C324.129 329.136 325.164 328.305 325.164 327.176C325.164 326.264 324.593 325.689 323.426 325.403L322.454 325.165C321.679 324.973 321.329 324.713 321.329 324.21C321.329 323.648 321.926 323.239 322.727 323.239C323.605 323.239 323.967 323.724 324.142 324.176L325.045 323.92ZM329.525 322.455H328.127V320.886H327.121V322.455H326.133V323.307H327.121V327.398C327.121 328.54 328.042 329.085 328.894 329.085C329.269 329.085 329.508 329.017 329.644 328.966L329.44 328.062C329.354 328.08 329.218 328.114 328.996 328.114C328.553 328.114 328.127 327.977 328.127 327.125V323.307H329.525V322.455ZM335.418 325.062C335.418 323.92 336.126 323.273 337.089 323.273C338.022 323.273 338.589 323.882 338.589 324.909V329H339.594V324.841C339.594 323.17 338.704 322.369 337.379 322.369C336.39 322.369 335.776 322.812 335.469 323.477H335.384V322.455H334.413V329H335.418V325.062ZM344.091 329.136C345.864 329.136 347.057 327.79 347.057 325.761C347.057 323.716 345.864 322.369 344.091 322.369C342.319 322.369 341.125 323.716 341.125 325.761C341.125 327.79 342.319 329.136 344.091 329.136ZM344.091 328.233C342.745 328.233 342.131 327.074 342.131 325.761C342.131 324.449 342.745 323.273 344.091 323.273C345.438 323.273 346.051 324.449 346.051 325.761C346.051 327.074 345.438 328.233 344.091 328.233ZM349.853 329H350.841L352.273 323.972H352.375L353.807 329H354.796L356.79 322.455H355.733L354.319 327.449H354.25L352.87 322.455H351.796L350.398 327.466H350.33L348.915 322.455H347.858L349.853 329Z" fill="#696F80"></path></g><defs><clipPath id="clip0"><rect width="552" height="332" fill="white"></rect></clipPath></defs></svg> 