<?xml version="1.0" encoding="UTF-8"?> <svg xmlns="http://www.w3.org/2000/svg" width="264" height="160" viewBox="0 0 264 160" fill="none"><circle cx="253" cy="14" r="3" fill="#363B47"></circle><rect x="145" y="1" width="118" height="26" rx="3" stroke="#363B47" stroke-width="2"></rect><circle cx="253" cy="46" r="3" fill="#363B47"></circle><rect x="145" y="33" width="118" height="26" rx="3" stroke="#363B47" stroke-width="2"></rect><circle cx="253" cy="78" r="3" fill="#363B47"></circle><rect x="145" y="65" width="118" height="26" rx="3" stroke="#363B47" stroke-width="2"></rect><rect x="145" y="97" width="118" height="62" rx="3" stroke="#363B47" stroke-width="2"></rect><circle cx="109" cy="14" r="3" fill="#4285EB"></circle><rect x="1" y="1" width="118" height="26" rx="3" stroke="#4285EB" stroke-width="2"></rect><circle cx="109" cy="46" r="3" fill="#363B47"></circle><rect x="1" y="33" width="118" height="26" rx="3" stroke="#363B47" stroke-width="2"></rect><circle cx="109" cy="78" r="3" fill="#363B47"></circle><rect x="1" y="65" width="118" height="26" rx="3" stroke="#363B47" stroke-width="2"></rect><rect x="8" y="140" width="16" height="4" fill="black"></rect><rect x="8" y="144" width="16" height="4" fill="#EB4242"></rect><rect x="8" y="148" width="16" height="4" fill="#EBA330"></rect><rect x="1" y="97" width="118" height="62" rx="3" stroke="#363B47" stroke-width="2"></rect></svg> 