<?xml version="1.0" encoding="UTF-8"?> <svg xmlns="http://www.w3.org/2000/svg" width="264" height="160" viewBox="0 0 264 160" fill="none"><rect x="1" y="1" width="262" height="38" rx="3" stroke="#363B47" stroke-width="2"></rect><rect x="1" y="57" width="262" height="38" rx="3" stroke="#363B47" stroke-width="2"></rect><path d="M18.6719 129.493H20.1534C20.1087 127.862 18.6669 126.679 16.5987 126.679C14.5554 126.679 12.9893 127.847 12.9893 129.602C12.9893 131.019 14.0036 131.849 15.6392 132.292L16.8423 132.62C17.9311 132.908 18.7713 133.266 18.7713 134.171C18.7713 135.165 17.8217 135.822 16.5142 135.822C15.331 135.822 14.3466 135.295 14.2571 134.186H12.7159C12.8153 136.031 14.2422 137.169 16.5241 137.169C18.9155 137.169 20.2926 135.911 20.2926 134.186C20.2926 132.352 18.657 131.641 17.3643 131.322L16.37 131.064C15.5746 130.86 14.5156 130.487 14.5206 129.513C14.5206 128.648 15.3111 128.006 16.5639 128.006C17.7322 128.006 18.5625 128.553 18.6719 129.493ZM25.3002 137.154C26.9657 137.154 28.144 136.334 28.4821 135.091L27.0751 134.837C26.8066 135.558 26.1603 135.926 25.3152 135.926C24.0424 135.926 23.1873 135.101 23.1475 133.629H28.5765V133.102C28.5765 130.343 26.926 129.264 25.1958 129.264C23.068 129.264 21.666 130.885 21.666 133.232C21.666 135.603 23.0481 137.154 25.3002 137.154ZM23.1525 132.516C23.2122 131.432 23.9977 130.492 25.2058 130.492C26.3592 130.492 27.1149 131.347 27.1199 132.516H23.1525ZM33.4425 137.154C35.2472 137.154 36.4155 136.07 36.5795 134.584H35.1328C34.9439 135.409 34.3026 135.896 33.4524 135.896C32.1946 135.896 31.3842 134.847 31.3842 133.182C31.3842 131.546 32.2095 130.517 33.4524 130.517C34.397 130.517 34.9737 131.114 35.1328 131.83H36.5795C36.4205 130.288 35.1626 129.264 33.4276 129.264C31.2749 129.264 29.8828 130.885 29.8828 133.217C29.8828 135.518 31.2251 137.154 33.4425 137.154ZM43.0066 133.833C43.0115 135.131 42.0471 135.747 41.2118 135.747C40.2921 135.747 39.6557 135.081 39.6557 134.042V129.364H38.1692V134.221C38.1692 136.115 39.2083 137.099 40.6749 137.099C41.8233 137.099 42.6039 136.493 42.9569 135.678H43.0364V137H44.498V129.364H43.0066V133.833ZM46.4954 137H47.9819V132.337C47.9819 131.337 48.7525 130.616 49.8065 130.616C50.1147 130.616 50.4627 130.671 50.582 130.706V129.284C50.4329 129.264 50.1396 129.249 49.9506 129.249C49.0558 129.249 48.2901 129.756 48.0117 130.577H47.9322V129.364H46.4954V137ZM51.8684 137H53.3549V129.364H51.8684V137ZM52.6191 128.185C53.1312 128.185 53.5588 127.788 53.5588 127.3C53.5588 126.813 53.1312 126.411 52.6191 126.411C52.1021 126.411 51.6795 126.813 51.6795 127.3C51.6795 127.788 52.1021 128.185 52.6191 128.185ZM58.9194 129.364H57.3533V127.534H55.8668V129.364H54.7482V130.557H55.8668V135.066C55.8619 136.453 56.9208 137.124 58.0941 137.099C58.5664 137.094 58.8846 137.005 59.0586 136.94L58.7901 135.712C58.6907 135.732 58.5067 135.777 58.2681 135.777C57.7859 135.777 57.3533 135.618 57.3533 134.758V130.557H58.9194V129.364ZM61.5034 139.864C62.7314 139.864 63.5069 139.222 63.9494 138.019L67.1064 129.379L65.5005 129.364L63.5666 135.29H63.487L61.5531 129.364H59.9622L62.7562 137.099L62.5723 137.607C62.1944 138.621 61.6625 138.705 60.8471 138.482L60.4892 139.7C60.6681 139.779 61.0559 139.864 61.5034 139.864ZM72.3315 137H73.8677V133.833L75.0708 132.451L78.362 137H80.2115L76.09 131.402L80.1966 126.818H78.2626L73.992 131.68H73.8677V126.818H72.3315V137ZM84.2397 137.154C85.9052 137.154 87.0835 136.334 87.4215 135.091L86.0146 134.837C85.7461 135.558 85.0998 135.926 84.2546 135.926C82.9819 135.926 82.1268 135.101 82.087 133.629H87.516V133.102C87.516 130.343 85.8654 129.264 84.1353 129.264C82.0075 129.264 80.6055 130.885 80.6055 133.232C80.6055 135.603 81.9876 137.154 84.2397 137.154ZM82.092 132.516C82.1516 131.432 82.9371 130.492 84.1452 130.492C85.2987 130.492 86.0543 131.347 86.0593 132.516H82.092ZM89.8725 139.864C91.1005 139.864 91.8761 139.222 92.3185 138.019L95.4755 129.379L93.8697 129.364L91.9357 135.29H91.8562L89.9222 129.364H88.3313L91.1254 137.099L90.9414 137.607C90.5636 138.621 90.0316 138.705 89.2163 138.482L88.8583 139.7C89.0373 139.779 89.4251 139.864 89.8725 139.864ZM101.561 137L102.495 134.305H106.473L107.402 137H109.033L105.369 126.818H103.594L99.93 137H101.561ZM102.943 133.013L104.444 128.668H104.524L106.025 133.013H102.943ZM113.478 137.154C115.282 137.154 116.451 136.07 116.615 134.584H115.168C114.979 135.409 114.338 135.896 113.488 135.896C112.23 135.896 111.419 134.847 111.419 133.182C111.419 131.546 112.245 130.517 113.488 130.517C114.432 130.517 115.009 131.114 115.168 131.83H116.615C116.456 130.288 115.198 129.264 113.463 129.264C111.31 129.264 109.918 130.885 109.918 133.217C109.918 135.518 111.26 137.154 113.478 137.154ZM121.421 137.154C123.226 137.154 124.394 136.07 124.558 134.584H123.111C122.922 135.409 122.281 135.896 121.431 135.896C120.173 135.896 119.363 134.847 119.363 133.182C119.363 131.546 120.188 130.517 121.431 130.517C122.376 130.517 122.952 131.114 123.111 131.83H124.558C124.399 130.288 123.141 129.264 121.406 129.264C119.253 129.264 117.861 130.885 117.861 133.217C117.861 135.518 119.204 137.154 121.421 137.154ZM129.439 137.154C131.104 137.154 132.283 136.334 132.621 135.091L131.214 134.837C130.945 135.558 130.299 135.926 129.454 135.926C128.181 135.926 127.326 135.101 127.286 133.629H132.715V133.102C132.715 130.343 131.065 129.264 129.335 129.264C127.207 129.264 125.805 130.885 125.805 133.232C125.805 135.603 127.187 137.154 129.439 137.154ZM127.291 132.516C127.351 131.432 128.136 130.492 129.344 130.492C130.498 130.492 131.254 131.347 131.259 132.516H127.291ZM134.365 139.864H135.851V135.812H135.941C136.209 136.299 136.756 137.149 138.148 137.149C139.997 137.149 141.34 135.668 141.34 133.197C141.34 130.721 139.977 129.264 138.133 129.264C136.716 129.264 136.204 130.129 135.941 130.602H135.816V129.364H134.365V139.864ZM135.821 133.182C135.821 131.586 136.517 130.527 137.815 130.527C139.162 130.527 139.838 131.665 139.838 133.182C139.838 134.713 139.142 135.881 137.815 135.881C136.537 135.881 135.821 134.788 135.821 133.182ZM146.57 129.364H145.004V127.534H143.517V129.364H142.399V130.557H143.517V135.066C143.512 136.453 144.571 137.124 145.744 137.099C146.217 137.094 146.535 137.005 146.709 136.94L146.441 135.712C146.341 135.732 146.157 135.777 145.919 135.777C145.436 135.777 145.004 135.618 145.004 134.758V130.557H146.57V129.364ZM151.423 137.154C153.089 137.154 154.267 136.334 154.605 135.091L153.198 134.837C152.93 135.558 152.283 135.926 151.438 135.926C150.165 135.926 149.31 135.101 149.271 133.629H154.7V133.102C154.7 130.343 153.049 129.264 151.319 129.264C149.191 129.264 147.789 130.885 147.789 133.232C147.789 135.603 149.171 137.154 151.423 137.154ZM149.276 132.516C149.335 131.432 150.121 130.492 151.329 130.492C152.482 130.492 153.238 131.347 153.243 132.516H149.276ZM159.208 137.149C160.6 137.149 161.146 136.299 161.415 135.812H161.539V137H162.991V126.818H161.504V130.602H161.415C161.146 130.129 160.639 129.264 159.218 129.264C157.373 129.264 156.016 130.721 156.016 133.197C156.016 135.668 157.353 137.149 159.208 137.149ZM159.536 135.881C158.208 135.881 157.517 134.713 157.517 133.182C157.517 131.665 158.193 130.527 159.536 130.527C160.833 130.527 161.529 131.586 161.529 133.182C161.529 134.788 160.818 135.881 159.536 135.881Z" fill="#4BB255"></path><path d="M250 127L243.63 136.466C243.527 136.619 243.396 136.746 243.245 136.837C243.094 136.929 242.927 136.983 242.756 136.997C242.584 137.01 242.412 136.983 242.251 136.916C242.09 136.849 241.944 136.744 241.822 136.608L238 132.35" stroke="#4BB255" stroke-width="2" stroke-linecap="round" stroke-linejoin="round"></path><rect x="1" y="113" width="262" height="38" rx="3" stroke="#4BB255" stroke-width="2"></rect></svg> 