<?xml version="1.0" encoding="UTF-8"?> <svg xmlns="http://www.w3.org/2000/svg" width="24" height="32" viewBox="0 0 24 32" fill="none"><path d="M22.6667 10.6667H20V8C20 3.588 16.412 0 12 0C7.588 0 4 3.588 4 8V10.6667H1.33333C0.597333 10.6667 0 11.264 0 12V30.6667C0 31.4027 0.597333 32 1.33333 32H22.6667C23.4027 32 24 31.4027 24 30.6667V12C24 11.264 23.4027 10.6667 22.6667 10.6667ZM13.3333 23.7547V26.6667H10.6667V23.7547C9.11867 23.2027 8 21.736 8 20C8 17.7947 9.79467 16 12 16C14.2053 16 16 17.7947 16 20C16 21.736 14.8827 23.2027 13.3333 23.7547ZM17.3333 10.6667H6.66667V8C6.66667 5.05867 9.05867 2.66667 12 2.66667C14.9413 2.66667 17.3333 5.05867 17.3333 8V10.6667Z" fill="#4BB255"></path></svg> 