<?xml version="1.0" encoding="UTF-8"?> <svg xmlns="http://www.w3.org/2000/svg" width="264" height="160" viewBox="0 0 264 160" fill="none"><path d="M33.9787 21L34.9134 18.3054H38.8906L39.8203 21H41.451L37.7869 10.8182H36.0121L32.348 21H33.9787ZM35.3608 17.0128L36.8622 12.6676H36.9418L38.4432 17.0128H35.3608ZM44.2885 16.4659C44.2885 15.2479 45.0343 14.5518 46.0684 14.5518C47.0776 14.5518 47.6891 15.2131 47.6891 16.3217V21H49.1756V16.1428C49.1756 14.2536 48.1365 13.2642 46.5755 13.2642C45.427 13.2642 44.6763 13.7962 44.3233 14.6065H44.2289V13.3636H42.802V21H44.2885V16.4659ZM53.3915 21.169C54.6543 21.169 55.3652 20.5277 55.6486 19.956H55.7083V21H57.16V15.929C57.16 13.7067 55.41 13.2642 54.1969 13.2642C52.8148 13.2642 51.5421 13.821 51.0449 15.2131L52.4419 15.5312C52.6607 14.9893 53.2175 14.4673 54.2168 14.4673C55.1763 14.4673 55.6685 14.9695 55.6685 15.8345V15.8693C55.6685 16.4112 55.1117 16.4013 53.7395 16.5604C52.2928 16.7294 50.8113 17.1072 50.8113 18.8423C50.8113 20.3438 51.9398 21.169 53.3915 21.169ZM53.7147 19.9759C52.8745 19.9759 52.2679 19.598 52.2679 18.8622C52.2679 18.0668 52.9739 17.7834 53.834 17.669C54.3162 17.6044 55.4597 17.4751 55.6735 17.2614V18.2457C55.6735 19.1506 54.9526 19.9759 53.7147 19.9759ZM60.6264 10.8182H59.1399V21H60.6264V10.8182ZM63.5659 23.8636C64.7939 23.8636 65.5694 23.2223 66.0119 22.0192L69.1689 13.3786L67.563 13.3636L65.6291 19.2898H65.5495L63.6156 13.3636H62.0247L64.8187 21.0994L64.6348 21.6065C64.2569 22.6207 63.725 22.7053 62.9096 22.4815L62.5517 23.6996C62.7306 23.7791 63.1184 23.8636 63.5659 23.8636ZM76.2919 15.228C75.9837 14.0398 75.054 13.2642 73.4034 13.2642C71.6783 13.2642 70.4553 14.174 70.4553 15.5263C70.4553 16.6101 71.1115 17.331 72.5433 17.6491L73.8359 17.9325C74.5717 18.0966 74.9148 18.4247 74.9148 18.902C74.9148 19.4936 74.2834 19.956 73.3089 19.956C72.419 19.956 71.8473 19.5732 71.6683 18.8224L70.2315 19.0412C70.4801 20.3935 71.6037 21.1541 73.3189 21.1541C75.1634 21.1541 76.4411 20.1747 76.4411 18.7926C76.4411 17.7138 75.755 17.0476 74.353 16.7244L73.1399 16.446C72.2997 16.2472 71.9368 15.9638 71.9418 15.4467C71.9368 14.8601 72.5732 14.4425 73.4183 14.4425C74.343 14.4425 74.7706 14.9545 74.9446 15.4666L76.2919 15.228ZM78.0755 21H79.562V13.3636H78.0755V21ZM78.8262 12.1854C79.3382 12.1854 79.7658 11.7876 79.7658 11.3004C79.7658 10.8132 79.3382 10.4105 78.8262 10.4105C78.3091 10.4105 77.8865 10.8132 77.8865 11.3004C77.8865 11.7876 78.3091 12.1854 78.8262 12.1854ZM84.853 21.1541C86.5185 21.1541 87.6967 20.3338 88.0348 19.0909L86.6278 18.8374C86.3594 19.5582 85.7131 19.9261 84.8679 19.9261C83.5952 19.9261 82.7401 19.1009 82.7003 17.6293H88.1293V17.1023C88.1293 14.343 86.4787 13.2642 84.7486 13.2642C82.6207 13.2642 81.2188 14.8849 81.2188 17.2315C81.2188 19.603 82.6009 21.1541 84.853 21.1541ZM82.7053 16.5156C82.7649 15.4318 83.5504 14.4922 84.7585 14.4922C85.9119 14.4922 86.6676 15.3473 86.6726 16.5156H82.7053ZM89.7786 21H91.2651V16.3366C91.2651 15.3374 92.0357 14.6165 93.0897 14.6165C93.3979 14.6165 93.7459 14.6712 93.8652 14.706V13.2841C93.7161 13.2642 93.4228 13.2493 93.2338 13.2493C92.339 13.2493 91.5733 13.7564 91.2949 14.5767H91.2154V13.3636H89.7786V21ZM99.1674 13.3636H97.6014V11.5341H96.1149V13.3636H94.9963V14.5568H96.1149V19.0661C96.1099 20.4531 97.1689 21.1243 98.3422 21.0994C98.8145 21.0945 99.1326 21.005 99.3066 20.9403L99.0382 19.7124C98.9387 19.7322 98.7548 19.777 98.5162 19.777C98.0339 19.777 97.6014 19.6179 97.6014 18.7578V14.5568H99.1674V13.3636ZM104.517 21H106.003V16.2919C106.003 15.2628 106.724 14.5469 107.569 14.5469C108.395 14.5469 108.966 15.0938 108.966 15.924V21H110.448V16.1328C110.448 15.2131 111.01 14.5469 111.979 14.5469C112.765 14.5469 113.411 14.9844 113.411 16.0185V21H114.898V15.8793C114.898 14.1342 113.923 13.2642 112.541 13.2642C111.442 13.2642 110.617 13.7912 110.249 14.6065H110.17C109.836 13.7713 109.135 13.2642 108.116 13.2642C107.107 13.2642 106.356 13.7663 106.038 14.6065H105.944V13.3636H104.517V21ZM116.89 21H118.376V13.3636H116.89V21ZM117.641 12.1854C118.153 12.1854 118.58 11.7876 118.58 11.3004C118.58 10.8132 118.153 10.4105 117.641 10.4105C117.124 10.4105 116.701 10.8132 116.701 11.3004C116.701 11.7876 117.124 12.1854 117.641 12.1854ZM123.941 13.3636H122.375V11.5341H120.888V13.3636H119.77V14.5568H120.888V19.0661C120.883 20.4531 121.942 21.1243 123.116 21.0994C123.588 21.0945 123.906 21.005 124.08 20.9403L123.812 19.7124C123.712 19.7322 123.528 19.777 123.29 19.777C122.807 19.777 122.375 19.6179 122.375 18.7578V14.5568H123.941V13.3636ZM129.41 21H130.946V17.8331L132.149 16.451L135.44 21H137.29L133.168 15.402L137.275 10.8182H135.341L131.07 15.6804H130.946V10.8182H129.41V21ZM140.243 10.8182H138.706V21H140.243V10.8182Z" fill="#EBA63D"></path><rect x="12" y="10" width="12" height="12" rx="6" fill="#EBA63D"></rect><path d="M20.3619 16.324L17.0377 19.3795C16.9478 19.463 16.8487 19.5 16.751 19.5C16.6629 19.5001 16.5771 19.4708 16.5059 19.4163C16.3483 19.2961 16.2909 19.0772 16.3679 18.8891L17.37 16.4322H15.9171C15.8323 16.4322 15.7494 16.405 15.6796 16.3542C15.6098 16.3034 15.5564 16.2315 15.5266 16.148C15.4655 15.9772 15.5119 15.7844 15.6426 15.6641L18.9669 12.6086C19.1135 12.4732 19.3293 12.4637 19.4864 12.584C19.644 12.7043 19.7015 12.9231 19.6244 13.1113L18.6226 15.5683L20.0756 15.5682C20.1605 15.5681 20.2433 15.5953 20.3131 15.6461C20.3829 15.6969 20.4363 15.7688 20.4661 15.8523C20.5378 16.0104 20.4922 16.2035 20.3619 16.324Z" fill="white"></path><rect x="1" y="1" width="218" height="30" rx="3" stroke="#CED4E0" stroke-width="2"></rect><rect x="233" y="1" width="30" height="30" rx="15" stroke="#CED4E0" stroke-width="2"></rect><path d="M33.9787 61L34.9134 58.3054H38.8906L39.8203 61H41.451L37.7869 50.8182H36.0121L32.348 61H33.9787ZM35.3608 57.0128L36.8622 52.6676H36.9418L38.4432 57.0128H35.3608ZM44.2885 56.4659C44.2885 55.2479 45.0343 54.5518 46.0684 54.5518C47.0776 54.5518 47.6891 55.2131 47.6891 56.3217V61H49.1756V56.1428C49.1756 54.2536 48.1365 53.2642 46.5755 53.2642C45.427 53.2642 44.6763 53.7962 44.3233 54.6065H44.2289V53.3636H42.802V61H44.2885V56.4659ZM53.3915 61.169C54.6543 61.169 55.3652 60.5277 55.6486 59.956H55.7083V61H57.16V55.929C57.16 53.7067 55.41 53.2642 54.1969 53.2642C52.8148 53.2642 51.5421 53.821 51.0449 55.2131L52.4419 55.5312C52.6607 54.9893 53.2175 54.4673 54.2168 54.4673C55.1763 54.4673 55.6685 54.9695 55.6685 55.8345V55.8693C55.6685 56.4112 55.1117 56.4013 53.7395 56.5604C52.2928 56.7294 50.8113 57.1072 50.8113 58.8423C50.8113 60.3438 51.9398 61.169 53.3915 61.169ZM53.7147 59.9759C52.8745 59.9759 52.2679 59.598 52.2679 58.8622C52.2679 58.0668 52.9739 57.7834 53.834 57.669C54.3162 57.6044 55.4597 57.4751 55.6735 57.2614V58.2457C55.6735 59.1506 54.9526 59.9759 53.7147 59.9759ZM60.6264 50.8182H59.1399V61H60.6264V50.8182ZM63.5659 63.8636C64.7939 63.8636 65.5694 63.2223 66.0119 62.0192L69.1689 53.3786L67.563 53.3636L65.6291 59.2898H65.5495L63.6156 53.3636H62.0247L64.8187 61.0994L64.6348 61.6065C64.2569 62.6207 63.725 62.7053 62.9096 62.4815L62.5517 63.6996C62.7306 63.7791 63.1184 63.8636 63.5659 63.8636ZM76.2919 55.228C75.9837 54.0398 75.054 53.2642 73.4034 53.2642C71.6783 53.2642 70.4553 54.174 70.4553 55.5263C70.4553 56.6101 71.1115 57.331 72.5433 57.6491L73.8359 57.9325C74.5717 58.0966 74.9148 58.4247 74.9148 58.902C74.9148 59.4936 74.2834 59.956 73.3089 59.956C72.419 59.956 71.8473 59.5732 71.6683 58.8224L70.2315 59.0412C70.4801 60.3935 71.6037 61.1541 73.3189 61.1541C75.1634 61.1541 76.4411 60.1747 76.4411 58.7926C76.4411 57.7138 75.755 57.0476 74.353 56.7244L73.1399 56.446C72.2997 56.2472 71.9368 55.9638 71.9418 55.4467C71.9368 54.8601 72.5732 54.4425 73.4183 54.4425C74.343 54.4425 74.7706 54.9545 74.9446 55.4666L76.2919 55.228ZM78.0755 61H79.562V53.3636H78.0755V61ZM78.8262 52.1854C79.3382 52.1854 79.7658 51.7876 79.7658 51.3004C79.7658 50.8132 79.3382 50.4105 78.8262 50.4105C78.3091 50.4105 77.8865 50.8132 77.8865 51.3004C77.8865 51.7876 78.3091 52.1854 78.8262 52.1854ZM87.2841 55.228C86.9759 54.0398 86.0462 53.2642 84.3956 53.2642C82.6705 53.2642 81.4474 54.174 81.4474 55.5263C81.4474 56.6101 82.1037 57.331 83.5355 57.6491L84.8281 57.9325C85.5639 58.0966 85.907 58.4247 85.907 58.902C85.907 59.4936 85.2756 59.956 84.3011 59.956C83.4112 59.956 82.8395 59.5732 82.6605 58.8224L81.2237 59.0412C81.4723 60.3935 82.5959 61.1541 84.3111 61.1541C86.1555 61.1541 87.4332 60.1747 87.4332 58.7926C87.4332 57.7138 86.7472 57.0476 85.3452 56.7244L84.1321 56.446C83.2919 56.2472 82.929 55.9638 82.9339 55.4467C82.929 54.8601 83.5653 54.4425 84.4105 54.4425C85.3352 54.4425 85.7628 54.9545 85.9368 55.4666L87.2841 55.228ZM90.062 61.0945C90.6039 61.0945 91.0563 60.652 91.0563 60.1001C91.0563 59.5582 90.6039 59.1108 90.062 59.1108C89.5151 59.1108 89.0676 59.5582 89.0676 60.1001C89.0676 60.652 89.5151 61.0945 90.062 61.0945ZM93.7757 61.0945C94.3176 61.0945 94.7701 60.652 94.7701 60.1001C94.7701 59.5582 94.3176 59.1108 93.7757 59.1108C93.2289 59.1108 92.7814 59.5582 92.7814 60.1001C92.7814 60.652 93.2289 61.0945 93.7757 61.0945ZM97.4945 61.0945C98.0364 61.0945 98.4888 60.652 98.4888 60.1001C98.4888 59.5582 98.0364 59.1108 97.4945 59.1108C96.9476 59.1108 96.5002 59.5582 96.5002 60.1001C96.5002 60.652 96.9476 61.0945 97.4945 61.0945Z" fill="#CED4E0"></path><rect x="12" y="50" width="12" height="12" rx="6" fill="#CED4E0"></rect><path d="M20.3619 56.324L17.0377 59.3795C16.9478 59.463 16.8487 59.5 16.751 59.5C16.6629 59.5001 16.5771 59.4708 16.5059 59.4163C16.3483 59.2961 16.2909 59.0772 16.3679 58.8891L17.37 56.4322H15.9171C15.8323 56.4322 15.7494 56.405 15.6796 56.3542C15.6098 56.3034 15.5564 56.2315 15.5266 56.148C15.4655 55.9772 15.5119 55.7844 15.6426 55.6641L18.9669 52.6086C19.1135 52.4732 19.3293 52.4637 19.4864 52.584C19.644 52.7043 19.7015 52.9231 19.6244 53.1113L18.6226 55.5683L20.0756 55.5682C20.1605 55.5681 20.2433 55.5953 20.3131 55.6461C20.3829 55.6969 20.4363 55.7688 20.4661 55.8523C20.5378 56.0104 20.4922 56.2035 20.3619 56.324Z" fill="white"></path><rect x="1" y="41" width="218" height="30" rx="3" stroke="#CED4E0" stroke-width="2"></rect><rect x="233" y="41" width="30" height="30" rx="15" stroke="#CED4E0" stroke-width="2"></rect><rect x="1" y="81" width="218" height="30" rx="3" stroke="#CED4E0" stroke-width="2"></rect><rect x="233" y="81" width="30" height="30" rx="15" stroke="#CED4E0" stroke-width="2"></rect><rect x="1" y="121" width="218" height="30" rx="3" stroke="#CED4E0" stroke-width="2"></rect><rect x="233" y="121" width="30" height="30" rx="15" stroke="#CED4E0" stroke-width="2"></rect></svg> 