<?xml version="1.0" encoding="UTF-8"?> <svg xmlns="http://www.w3.org/2000/svg" width="264" height="160" viewBox="0 0 264 160" fill="none"><path d="M45.5753 14.1293C45.2273 11.9517 43.522 10.679 41.3693 10.679C38.7344 10.679 36.7905 12.6527 36.7905 15.9091C36.7905 19.1655 38.7244 21.1392 41.3693 21.1392C43.6065 21.1392 45.2422 19.7372 45.5753 17.7237L44.0241 17.7188C43.7607 19.0213 42.6669 19.7372 41.3793 19.7372C39.6342 19.7372 38.3168 18.3999 38.3168 15.9091C38.3168 13.4382 39.6293 12.081 41.3842 12.081C42.6818 12.081 43.7706 12.8118 44.0241 14.1293H45.5753ZM52.9668 13.4929H54.4483C54.4036 11.8622 52.9618 10.679 50.8936 10.679C48.8503 10.679 47.2843 11.8473 47.2843 13.6023C47.2843 15.0192 48.2985 15.8494 49.9341 16.2919L51.1373 16.62C52.226 16.9084 53.0662 17.2663 53.0662 18.1712C53.0662 19.1655 52.1167 19.8217 50.8091 19.8217C49.6259 19.8217 48.6415 19.2947 48.552 18.1861H47.0108C47.1103 20.0305 48.5371 21.169 50.8191 21.169C53.2104 21.169 54.5875 19.9112 54.5875 18.1861C54.5875 16.3516 52.9519 15.6406 51.6593 15.3224L50.665 15.0639C49.8695 14.8601 48.8105 14.4872 48.8155 13.5128C48.8155 12.6477 49.606 12.0064 50.8588 12.0064C52.0272 12.0064 52.8574 12.5533 52.9668 13.4929ZM57.3132 10.8182H55.6527L59.3168 21H61.0916L64.7557 10.8182H63.0952L60.2614 19.1108H60.147L57.3132 10.8182ZM73.103 21.1541C74.7685 21.1541 75.9467 20.3338 76.2848 19.0909L74.8778 18.8374C74.6094 19.5582 73.9631 19.9261 73.1179 19.9261C71.8452 19.9261 70.9901 19.1009 70.9503 17.6293H76.3793V17.1023C76.3793 14.343 74.7287 13.2642 72.9986 13.2642C70.8707 13.2642 69.4688 14.8849 69.4688 17.2315C69.4688 19.603 70.8509 21.1541 73.103 21.1541ZM70.9553 16.5156C71.0149 15.4318 71.8004 14.4922 73.0085 14.4922C74.1619 14.4922 74.9176 15.3473 74.9226 16.5156H70.9553ZM79.0241 13.3636H77.3935L79.7401 17.1818L77.3636 21H78.9943L80.7095 18.1463L82.4297 21H84.0554L81.6541 17.1818L84.0355 13.3636H82.4098L80.7095 16.3366L79.0241 13.3636ZM85.5618 23.8636H87.0483V19.8118H87.1378C87.4062 20.299 87.9531 21.1491 89.3452 21.1491C91.1946 21.1491 92.5369 19.6676 92.5369 17.1967C92.5369 14.7209 91.1747 13.2642 89.3303 13.2642C87.9134 13.2642 87.4013 14.1293 87.1378 14.6016H87.0135V13.3636H85.5618V23.8636ZM87.0185 17.1818C87.0185 15.5859 87.7145 14.527 89.0121 14.527C90.3594 14.527 91.0355 15.6655 91.0355 17.1818C91.0355 18.7131 90.3395 19.8814 89.0121 19.8814C87.7344 19.8814 87.0185 18.7876 87.0185 17.1818ZM97.419 21.1541C99.5717 21.1541 100.979 19.5781 100.979 17.2166C100.979 14.8402 99.5717 13.2642 97.419 13.2642C95.2663 13.2642 93.8594 14.8402 93.8594 17.2166C93.8594 19.5781 95.2663 21.1541 97.419 21.1541ZM97.424 19.9062C96.017 19.9062 95.3608 18.6783 95.3608 17.2116C95.3608 15.75 96.017 14.5071 97.424 14.5071C98.821 14.5071 99.4773 15.75 99.4773 17.2116C99.4773 18.6783 98.821 19.9062 97.424 19.9062ZM102.638 21H104.124V16.3366C104.124 15.3374 104.895 14.6165 105.949 14.6165C106.257 14.6165 106.605 14.6712 106.725 14.706V13.2841C106.575 13.2642 106.282 13.2493 106.093 13.2493C105.198 13.2493 104.433 13.7564 104.154 14.5767H104.075V13.3636H102.638V21ZM112.027 13.3636H110.461V11.5341H108.974V13.3636H107.856V14.5568H108.974V19.0661C108.969 20.4531 110.028 21.1243 111.202 21.0994C111.674 21.0945 111.992 21.005 112.166 20.9403L111.898 19.7124C111.798 19.7322 111.614 19.777 111.376 19.777C110.893 19.777 110.461 19.6179 110.461 18.7578V14.5568H112.027V13.3636ZM113.671 21H115.158V13.3636H113.671V21ZM114.422 12.1854C114.934 12.1854 115.362 11.7876 115.362 11.3004C115.362 10.8132 114.934 10.4105 114.422 10.4105C113.905 10.4105 113.482 10.8132 113.482 11.3004C113.482 11.7876 113.905 12.1854 114.422 12.1854ZM120.449 21.1541C122.114 21.1541 123.292 20.3338 123.631 19.0909L122.224 18.8374C121.955 19.5582 121.309 19.9261 120.464 19.9261C119.191 19.9261 118.336 19.1009 118.296 17.6293H123.725V17.1023C123.725 14.343 122.074 13.2642 120.344 13.2642C118.216 13.2642 116.814 14.8849 116.814 17.2315C116.814 19.603 118.197 21.1541 120.449 21.1541ZM118.301 16.5156C118.361 15.4318 119.146 14.4922 120.354 14.4922C121.508 14.4922 122.263 15.3473 122.268 16.5156H118.301ZM125.374 21H126.861V16.3366C126.861 15.3374 127.631 14.6165 128.685 14.6165C128.994 14.6165 129.342 14.6712 129.461 14.706V13.2841C129.312 13.2642 129.018 13.2493 128.83 13.2493C127.935 13.2493 127.169 13.7564 126.891 14.5767H126.811V13.3636H125.374V21ZM133.765 21.1541C135.431 21.1541 136.609 20.3338 136.947 19.0909L135.54 18.8374C135.271 19.5582 134.625 19.9261 133.78 19.9261C132.507 19.9261 131.652 19.1009 131.612 17.6293H137.041V17.1023C137.041 14.343 135.391 13.2642 133.661 13.2642C131.533 13.2642 130.131 14.8849 130.131 17.2315C130.131 19.603 131.513 21.1541 133.765 21.1541ZM131.617 16.5156C131.677 15.4318 132.463 14.4922 133.671 14.4922C134.824 14.4922 135.58 15.3473 135.585 16.5156H131.617ZM140.177 16.4659C140.177 15.2479 140.923 14.5518 141.957 14.5518C142.966 14.5518 143.578 15.2131 143.578 16.3217V21H145.064V16.1428C145.064 14.2536 144.025 13.2642 142.464 13.2642C141.316 13.2642 140.565 13.7962 140.212 14.6065H140.118V13.3636H138.691V21H140.177V16.4659Z" fill="#4285EB"></path><path d="M20 18L20 10" stroke="#4285EB" stroke-width="2" stroke-linecap="round" stroke-linejoin="round"></path><path d="M22 11L20 9L18 11" stroke="#4285EB" stroke-width="2" stroke-linecap="round" stroke-linejoin="round"></path><path d="M22.5013 14H24C24.5304 14 25.0391 14.2137 25.4142 14.594C25.7893 14.9744 26 15.4903 26 16.0282V20.9718C26 21.5097 25.7893 22.0256 25.4142 22.406C25.0391 22.7863 24.5304 23 24 23H16C15.4696 23 14.9609 22.7863 14.5858 22.406C14.2107 22.0256 14 21.5097 14 20.9718V16.0282C14 15.4903 14.2107 14.9744 14.5858 14.594C14.9609 14.2137 15.4696 14 16 14H17.5" stroke="#4285EB" stroke-width="2" stroke-linecap="round" stroke-linejoin="round"></path><rect x="1" y="1" width="158" height="30" rx="3" stroke="#4285EB" stroke-width="2"></rect><rect x="1" y="41" width="218" height="30" rx="3" stroke="#CED4E0" stroke-width="2"></rect><rect x="233" y="41" width="30" height="30" rx="15" stroke="#CED4E0" stroke-width="2"></rect><rect x="1" y="81" width="218" height="30" rx="3" stroke="#CED4E0" stroke-width="2"></rect><rect x="233" y="81" width="30" height="30" rx="15" stroke="#CED4E0" stroke-width="2"></rect><rect x="1" y="121" width="218" height="30" rx="3" stroke="#CED4E0" stroke-width="2"></rect><rect x="233" y="121" width="30" height="30" rx="15" stroke="#CED4E0" stroke-width="2"></rect></svg> 