<?xml version="1.0" encoding="UTF-8"?> <svg xmlns="http://www.w3.org/2000/svg" width="264" height="160" viewBox="0 0 264 160" fill="none"><path d="M38.0085 10.8182H36.348L40.0121 21H41.7869L45.451 10.8182H43.7905L40.9567 19.1108H40.8423L38.0085 10.8182ZM49.3276 21.1541C50.9931 21.1541 52.1713 20.3338 52.5094 19.0909L51.1025 18.8374C50.834 19.5582 50.1877 19.9261 49.3425 19.9261C48.0698 19.9261 47.2147 19.1009 47.1749 17.6293H52.6039V17.1023C52.6039 14.343 50.9533 13.2642 49.2232 13.2642C47.0953 13.2642 45.6934 14.8849 45.6934 17.2315C45.6934 19.603 47.0755 21.1541 49.3276 21.1541ZM47.1799 16.5156C47.2395 15.4318 48.025 14.4922 49.2331 14.4922C50.3865 14.4922 51.1422 15.3473 51.1472 16.5156H47.1799ZM54.2532 21H55.7397V16.3366C55.7397 15.3374 56.5103 14.6165 57.5643 14.6165C57.8725 14.6165 58.2205 14.6712 58.3398 14.706V13.2841C58.1907 13.2642 57.8974 13.2493 57.7085 13.2493C56.8136 13.2493 56.0479 13.7564 55.7695 14.5767H55.69V13.3636H54.2532V21ZM63.642 13.3636H62.076V11.5341H60.5895V13.3636H59.4709V14.5568H60.5895V19.0661C60.5845 20.4531 61.6435 21.1243 62.8168 21.0994C63.2891 21.0945 63.6072 21.005 63.7812 20.9403L63.5128 19.7124C63.4134 19.7322 63.2294 19.777 62.9908 19.777C62.5085 19.777 62.076 19.6179 62.076 18.7578V14.5568H63.642V13.3636ZM65.2864 21H66.7729V16.3366C66.7729 15.3374 67.5435 14.6165 68.5975 14.6165C68.9057 14.6165 69.2537 14.6712 69.373 14.706V13.2841C69.2239 13.2642 68.9306 13.2493 68.7417 13.2493C67.8468 13.2493 67.0811 13.7564 66.8027 14.5767H66.7232V13.3636H65.2864V21ZM72.8134 21.169C74.0762 21.169 74.7871 20.5277 75.0705 19.956H75.1301V21H76.5819V15.929C76.5819 13.7067 74.8319 13.2642 73.6188 13.2642C72.2367 13.2642 70.964 13.821 70.4668 15.2131L71.8638 15.5312C72.0826 14.9893 72.6394 14.4673 73.6387 14.4673C74.5982 14.4673 75.0904 14.9695 75.0904 15.8345V15.8693C75.0904 16.4112 74.5336 16.4013 73.1614 16.5604C71.7147 16.7294 70.2331 17.1072 70.2331 18.8423C70.2331 20.3438 71.3617 21.169 72.8134 21.169ZM73.1365 19.9759C72.2963 19.9759 71.6898 19.598 71.6898 18.8622C71.6898 18.0668 72.3958 17.7834 73.2559 17.669C73.7381 17.6044 74.8816 17.4751 75.0953 17.2614V18.2457C75.0953 19.1506 74.3745 19.9759 73.1365 19.9759ZM72.2367 12.1655C72.7338 12.1655 73.1117 11.7628 73.1117 11.3004C73.1117 10.8082 72.7338 10.4304 72.2367 10.4304C71.7694 10.4304 71.3567 10.8082 71.3567 11.3004C71.3567 11.7628 71.7694 12.1655 72.2367 12.1655ZM75.16 12.1655C75.6571 12.1655 76.035 11.7628 76.035 11.3004C76.035 10.8082 75.6571 10.4304 75.16 10.4304C74.6926 10.4304 74.28 10.8082 74.28 11.3004C74.28 11.7628 74.6926 12.1655 75.16 12.1655ZM81.7635 24.0227C83.7074 24.0227 85.2088 23.1328 85.2088 21.169V13.3636H83.7521V14.6016H83.6428C83.3793 14.1293 82.8523 13.2642 81.4304 13.2642C79.5859 13.2642 78.2287 14.7209 78.2287 17.152C78.2287 19.5881 79.6158 20.8857 81.4205 20.8857C82.8224 20.8857 83.3643 20.0952 83.6328 19.608H83.7273V21.1094C83.7273 22.3075 82.907 22.8246 81.7784 22.8246C80.5405 22.8246 80.0582 22.2031 79.7947 21.7656L78.517 22.2926C78.9197 23.2273 79.9389 24.0227 81.7635 24.0227ZM81.7486 19.6527C80.4212 19.6527 79.7301 18.6335 79.7301 17.1321C79.7301 15.6655 80.4062 14.527 81.7486 14.527C83.0462 14.527 83.7422 15.5859 83.7422 17.1321C83.7422 18.7081 83.0312 19.6527 81.7486 19.6527ZM90.4936 21.1541C92.1591 21.1541 93.3374 20.3338 93.6754 19.0909L92.2685 18.8374C92 19.5582 91.3537 19.9261 90.5085 19.9261C89.2358 19.9261 88.3807 19.1009 88.3409 17.6293H93.7699V17.1023C93.7699 14.343 92.1193 13.2642 90.3892 13.2642C88.2614 13.2642 86.8594 14.8849 86.8594 17.2315C86.8594 19.603 88.2415 21.1541 90.4936 21.1541ZM88.3459 16.5156C88.4055 15.4318 89.1911 14.4922 90.3991 14.4922C91.5526 14.4922 92.3082 15.3473 92.3132 16.5156H88.3459ZM99.1243 21H100.611V13.3636H99.1243V21ZM99.875 12.1854C100.387 12.1854 100.815 11.7876 100.815 11.3004C100.815 10.8132 100.387 10.4105 99.875 10.4105C99.358 10.4105 98.9354 10.8132 98.9354 11.3004C98.9354 11.7876 99.358 12.1854 99.875 12.1854ZM102.611 21H104.097V16.2919C104.097 15.2628 104.818 14.5469 105.663 14.5469C106.488 14.5469 107.06 15.0938 107.06 15.924V21H108.542V16.1328C108.542 15.2131 109.104 14.5469 110.073 14.5469C110.858 14.5469 111.505 14.9844 111.505 16.0185V21H112.991V15.8793C112.991 14.1342 112.017 13.2642 110.635 13.2642C109.536 13.2642 108.711 13.7912 108.343 14.6065H108.263C107.93 13.7713 107.229 13.2642 106.21 13.2642C105.201 13.2642 104.45 13.7663 104.132 14.6065H104.037V13.3636H102.611V21ZM114.984 23.8636H116.47V19.8118H116.56C116.828 20.299 117.375 21.1491 118.767 21.1491C120.616 21.1491 121.959 19.6676 121.959 17.1967C121.959 14.7209 120.597 13.2642 118.752 13.2642C117.335 13.2642 116.823 14.1293 116.56 14.6016H116.435V13.3636H114.984V23.8636ZM116.44 17.1818C116.44 15.5859 117.136 14.527 118.434 14.527C119.781 14.527 120.457 15.6655 120.457 17.1818C120.457 18.7131 119.761 19.8814 118.434 19.8814C117.156 19.8814 116.44 18.7876 116.44 17.1818ZM126.841 21.1541C128.994 21.1541 130.401 19.5781 130.401 17.2166C130.401 14.8402 128.994 13.2642 126.841 13.2642C124.688 13.2642 123.281 14.8402 123.281 17.2166C123.281 19.5781 124.688 21.1541 126.841 21.1541ZM126.846 19.9062C125.439 19.9062 124.783 18.6783 124.783 17.2116C124.783 15.75 125.439 14.5071 126.846 14.5071C128.243 14.5071 128.899 15.75 128.899 17.2116C128.899 18.6783 128.243 19.9062 126.846 19.9062ZM132.06 21H133.546V16.3366C133.546 15.3374 134.317 14.6165 135.371 14.6165C135.679 14.6165 136.027 14.6712 136.146 14.706V13.2841C135.997 13.2642 135.704 13.2493 135.515 13.2493C134.62 13.2493 133.855 13.7564 133.576 14.5767H133.497V13.3636H132.06V21ZM141.449 13.3636H139.883V11.5341H138.396V13.3636H137.278V14.5568H138.396V19.0661C138.391 20.4531 139.45 21.1243 140.623 21.0994C141.096 21.0945 141.414 21.005 141.588 20.9403L141.319 19.7124C141.22 19.7322 141.036 19.777 140.797 19.777C140.315 19.777 139.883 19.6179 139.883 18.7578V14.5568H141.449V13.3636ZM143.093 21H144.58V13.3636H143.093V21ZM143.844 12.1854C144.356 12.1854 144.783 11.7876 144.783 11.3004C144.783 10.8132 144.356 10.4105 143.844 10.4105C143.327 10.4105 142.904 10.8132 142.904 11.3004C142.904 11.7876 143.327 12.1854 143.844 12.1854ZM149.871 21.1541C151.536 21.1541 152.714 20.3338 153.052 19.0909L151.645 18.8374C151.377 19.5582 150.731 19.9261 149.885 19.9261C148.613 19.9261 147.758 19.1009 147.718 17.6293H153.147V17.1023C153.147 14.343 151.496 13.2642 149.766 13.2642C147.638 13.2642 146.236 14.8849 146.236 17.2315C146.236 19.603 147.618 21.1541 149.871 21.1541ZM147.723 16.5156C147.782 15.4318 148.568 14.4922 149.776 14.4922C150.93 14.4922 151.685 15.3473 151.69 16.5156H147.723ZM154.796 21H156.283V16.3366C156.283 15.3374 157.053 14.6165 158.107 14.6165C158.415 14.6165 158.763 14.6712 158.883 14.706V13.2841C158.734 13.2642 158.44 13.2493 158.251 13.2493C157.357 13.2493 156.591 13.7564 156.312 14.5767H156.233V13.3636H154.796V21ZM163.187 21.1541C164.852 21.1541 166.031 20.3338 166.369 19.0909L164.962 18.8374C164.693 19.5582 164.047 19.9261 163.202 19.9261C161.929 19.9261 161.074 19.1009 161.034 17.6293H166.463V17.1023C166.463 14.343 164.813 13.2642 163.083 13.2642C160.955 13.2642 159.553 14.8849 159.553 17.2315C159.553 19.603 160.935 21.1541 163.187 21.1541ZM161.039 16.5156C161.099 15.4318 161.884 14.4922 163.093 14.4922C164.246 14.4922 165.002 15.3473 165.007 16.5156H161.039ZM169.599 16.4659C169.599 15.2479 170.345 14.5518 171.379 14.5518C172.388 14.5518 173 15.2131 173 16.3217V21H174.486V16.1428C174.486 14.2536 173.447 13.2642 171.886 13.2642C170.738 13.2642 169.987 13.7962 169.634 14.6065H169.539V13.3636H168.113V21H169.599V16.4659Z" fill="#4285EB"></path><path d="M20 10L20 18" stroke="#4285EB" stroke-width="2" stroke-linecap="round" stroke-linejoin="round"></path><path d="M18 17L20 19L22 17" stroke="#4285EB" stroke-width="2" stroke-linecap="round" stroke-linejoin="round"></path><path d="M22.5013 14H24C24.5304 14 25.0391 14.2137 25.4142 14.594C25.7893 14.9744 26 15.4903 26 16.0282V20.9718C26 21.5097 25.7893 22.0256 25.4142 22.406C25.0391 22.7863 24.5304 23 24 23H16C15.4696 23 14.9609 22.7863 14.5858 22.406C14.2107 22.0256 14 21.5097 14 20.9718V16.0282C14 15.4903 14.2107 14.9744 14.5858 14.594C14.9609 14.2137 15.4696 14 16 14H17.5" stroke="#4285EB" stroke-width="2" stroke-linecap="round" stroke-linejoin="round"></path><rect x="1" y="1" width="186" height="30" rx="3" stroke="#4285EB" stroke-width="2"></rect><path d="M34.6548 50.8182H33.1186V61H34.6548V50.8182ZM36.7727 61H38.2592V56.2919C38.2592 55.2628 38.9801 54.5469 39.8253 54.5469C40.6506 54.5469 41.2223 55.0938 41.2223 55.924V61H42.7038V56.1328C42.7038 55.2131 43.2656 54.5469 44.2351 54.5469C45.0206 54.5469 45.6669 54.9844 45.6669 56.0185V61H47.1534V55.8793C47.1534 54.1342 46.179 53.2642 44.7969 53.2642C43.6982 53.2642 42.8729 53.7912 42.505 54.6065H42.4254C42.0923 53.7713 41.3913 53.2642 40.3722 53.2642C39.3629 53.2642 38.6122 53.7663 38.294 54.6065H38.1996V53.3636H36.7727V61ZM49.1458 63.8636H50.6323V59.8118H50.7218C50.9902 60.299 51.5371 61.1491 52.9292 61.1491C54.7786 61.1491 56.1209 59.6676 56.1209 57.1967C56.1209 54.7209 54.7587 53.2642 52.9142 53.2642C51.4973 53.2642 50.9853 54.1293 50.7218 54.6016H50.5975V53.3636H49.1458V63.8636ZM50.6025 57.1818C50.6025 55.5859 51.2985 54.527 52.5961 54.527C53.9434 54.527 54.6195 55.6655 54.6195 57.1818C54.6195 58.7131 53.9235 59.8814 52.5961 59.8814C51.3184 59.8814 50.6025 58.7876 50.6025 57.1818ZM61.003 61.1541C63.1557 61.1541 64.5627 59.5781 64.5627 57.2166C64.5627 54.8402 63.1557 53.2642 61.003 53.2642C58.8503 53.2642 57.4434 54.8402 57.4434 57.2166C57.4434 59.5781 58.8503 61.1541 61.003 61.1541ZM61.008 59.9062C59.601 59.9062 58.9448 58.6783 58.9448 57.2116C58.9448 55.75 59.601 54.5071 61.008 54.5071C62.405 54.5071 63.0613 55.75 63.0613 57.2116C63.0613 58.6783 62.405 59.9062 61.008 59.9062ZM66.2219 61H67.7085V56.3366C67.7085 55.3374 68.479 54.6165 69.533 54.6165C69.8413 54.6165 70.1893 54.6712 70.3086 54.706V53.2841C70.1594 53.2642 69.8661 53.2493 69.6772 53.2493C68.7823 53.2493 68.0167 53.7564 67.7383 54.5767H67.6587V53.3636H66.2219V61ZM75.6108 53.3636H74.0447V51.5341H72.5582V53.3636H71.4396V54.5568H72.5582V59.0661C72.5533 60.4531 73.6122 61.1243 74.7855 61.0994C75.2578 61.0945 75.576 61.005 75.75 60.9403L75.4815 59.7124C75.3821 59.7322 75.1982 59.777 74.9595 59.777C74.4773 59.777 74.0447 59.6179 74.0447 58.7578V54.5568H75.6108V53.3636ZM78.2495 61.0945C78.7914 61.0945 79.2438 60.652 79.2438 60.1001C79.2438 59.5582 78.7914 59.1108 78.2495 59.1108C77.7026 59.1108 77.2551 59.5582 77.2551 60.1001C77.2551 60.652 77.7026 61.0945 78.2495 61.0945ZM81.9632 61.0945C82.5051 61.0945 82.9576 60.652 82.9576 60.1001C82.9576 59.5582 82.5051 59.1108 81.9632 59.1108C81.4164 59.1108 80.9689 59.5582 80.9689 60.1001C80.9689 60.652 81.4164 61.0945 81.9632 61.0945ZM85.682 61.0945C86.2239 61.0945 86.6763 60.652 86.6763 60.1001C86.6763 59.5582 86.2239 59.1108 85.682 59.1108C85.1351 59.1108 84.6877 59.5582 84.6877 60.1001C84.6877 60.652 85.1351 61.0945 85.682 61.0945Z" fill="#CED4E0"></path><rect x="12" y="50" width="12" height="12" rx="6" fill="#CED4E0"></rect><path d="M20.3619 56.324L17.0377 59.3795C16.9478 59.463 16.8487 59.5 16.751 59.5C16.6629 59.5001 16.5771 59.4708 16.5059 59.4163C16.3483 59.2961 16.2909 59.0772 16.3679 58.8891L17.37 56.4322H15.9171C15.8323 56.4322 15.7494 56.405 15.6796 56.3542C15.6098 56.3034 15.5564 56.2315 15.5266 56.148C15.4655 55.9772 15.5119 55.7844 15.6426 55.6641L18.9669 52.6086C19.1135 52.4732 19.3293 52.4637 19.4864 52.584C19.644 52.7043 19.7015 52.9231 19.6244 53.1113L18.6226 55.5683L20.0756 55.5682C20.1605 55.5681 20.2433 55.5953 20.3131 55.6461C20.3829 55.6969 20.4363 55.7688 20.4661 55.8523C20.5378 56.0104 20.4922 56.2035 20.3619 56.324Z" fill="white"></path><rect x="1" y="41" width="218" height="30" rx="3" stroke="#CED4E0" stroke-width="2"></rect><rect x="233" y="41" width="30" height="30" rx="15" stroke="#CED4E0" stroke-width="2"></rect><path d="M34.6548 90.8182H33.1186V101H34.6548V90.8182ZM36.7727 101H38.2592V96.2919C38.2592 95.2628 38.9801 94.5469 39.8253 94.5469C40.6506 94.5469 41.2223 95.0938 41.2223 95.924V101H42.7038V96.1328C42.7038 95.2131 43.2656 94.5469 44.2351 94.5469C45.0206 94.5469 45.6669 94.9844 45.6669 96.0185V101H47.1534V95.8793C47.1534 94.1342 46.179 93.2642 44.7969 93.2642C43.6982 93.2642 42.8729 93.7912 42.505 94.6065H42.4254C42.0923 93.7713 41.3913 93.2642 40.3722 93.2642C39.3629 93.2642 38.6122 93.7663 38.294 94.6065H38.1996V93.3636H36.7727V101ZM49.1458 103.864H50.6323V99.8118H50.7218C50.9902 100.299 51.5371 101.149 52.9292 101.149C54.7786 101.149 56.1209 99.6676 56.1209 97.1967C56.1209 94.7209 54.7587 93.2642 52.9142 93.2642C51.4973 93.2642 50.9853 94.1293 50.7218 94.6016H50.5975V93.3636H49.1458V103.864ZM50.6025 97.1818C50.6025 95.5859 51.2985 94.527 52.5961 94.527C53.9434 94.527 54.6195 95.6655 54.6195 97.1818C54.6195 98.7131 53.9235 99.8814 52.5961 99.8814C51.3184 99.8814 50.6025 98.7876 50.6025 97.1818ZM61.003 101.154C63.1557 101.154 64.5627 99.5781 64.5627 97.2166C64.5627 94.8402 63.1557 93.2642 61.003 93.2642C58.8503 93.2642 57.4434 94.8402 57.4434 97.2166C57.4434 99.5781 58.8503 101.154 61.003 101.154ZM61.008 99.9062C59.601 99.9062 58.9448 98.6783 58.9448 97.2116C58.9448 95.75 59.601 94.5071 61.008 94.5071C62.405 94.5071 63.0613 95.75 63.0613 97.2116C63.0613 98.6783 62.405 99.9062 61.008 99.9062ZM66.2219 101H67.7085V96.3366C67.7085 95.3374 68.479 94.6165 69.533 94.6165C69.8413 94.6165 70.1893 94.6712 70.3086 94.706V93.2841C70.1594 93.2642 69.8661 93.2493 69.6772 93.2493C68.7823 93.2493 68.0167 93.7564 67.7383 94.5767H67.6587V93.3636H66.2219V101ZM75.6108 93.3636H74.0447V91.5341H72.5582V93.3636H71.4396V94.5568H72.5582V99.0661C72.5533 100.453 73.6122 101.124 74.7855 101.099C75.2578 101.094 75.576 101.005 75.75 100.94L75.4815 99.7124C75.3821 99.7322 75.1982 99.777 74.9595 99.777C74.4773 99.777 74.0447 99.6179 74.0447 98.7578V94.5568H75.6108V93.3636ZM78.2495 101.094C78.7914 101.094 79.2438 100.652 79.2438 100.1C79.2438 99.5582 78.7914 99.1108 78.2495 99.1108C77.7026 99.1108 77.2551 99.5582 77.2551 100.1C77.2551 100.652 77.7026 101.094 78.2495 101.094ZM81.9632 101.094C82.5051 101.094 82.9576 100.652 82.9576 100.1C82.9576 99.5582 82.5051 99.1108 81.9632 99.1108C81.4164 99.1108 80.9689 99.5582 80.9689 100.1C80.9689 100.652 81.4164 101.094 81.9632 101.094ZM85.682 101.094C86.2239 101.094 86.6763 100.652 86.6763 100.1C86.6763 99.5582 86.2239 99.1108 85.682 99.1108C85.1351 99.1108 84.6877 99.5582 84.6877 100.1C84.6877 100.652 85.1351 101.094 85.682 101.094Z" fill="#CED4E0"></path><rect x="12" y="90" width="12" height="12" rx="6" fill="#CED4E0"></rect><path d="M20.3619 96.324L17.0377 99.3795C16.9478 99.463 16.8487 99.5 16.751 99.5C16.6629 99.5001 16.5771 99.4708 16.5059 99.4163C16.3483 99.2961 16.2909 99.0772 16.3679 98.8891L17.37 96.4322H15.9171C15.8323 96.4322 15.7494 96.405 15.6796 96.3542C15.6098 96.3034 15.5564 96.2315 15.5266 96.148C15.4655 95.9772 15.5119 95.7844 15.6426 95.6641L18.9669 92.6086C19.1135 92.4732 19.3293 92.4637 19.4864 92.584C19.644 92.7043 19.7015 92.9231 19.6244 93.1113L18.6226 95.5683L20.0756 95.5682C20.1605 95.5681 20.2433 95.5953 20.3131 95.6461C20.3829 95.6969 20.4363 95.7688 20.4661 95.8523C20.5378 96.0104 20.4922 96.2035 20.3619 96.324Z" fill="white"></path><rect x="1" y="81" width="218" height="30" rx="3" stroke="#CED4E0" stroke-width="2"></rect><rect x="233" y="81" width="30" height="30" rx="15" stroke="#CED4E0" stroke-width="2"></rect><rect x="1" y="121" width="218" height="30" rx="3" stroke="#CED4E0" stroke-width="2"></rect><rect x="233" y="121" width="30" height="30" rx="15" stroke="#CED4E0" stroke-width="2"></rect></svg> 