<?xml version="1.0" encoding="UTF-8"?> <svg xmlns="http://www.w3.org/2000/svg" width="360" height="332" viewBox="0 0 360 332" fill="none"><rect width="360" height="332" fill="#E5E5E5"></rect><g clip-path="url(#clip0)"><rect width="360" height="360" fill="white"></rect><rect x="16.5" y="16.5" width="327" height="103" rx="7.5" fill="white"></rect><rect x="32" y="32" width="32" height="32" rx="8" fill="#4272EB"></rect><path d="M47.2222 54H41.9333C41.6858 54 41.4484 53.9027 41.2734 53.7296C41.0983 53.5565 41 53.3217 41 53.0769V42.9231C41 42.6783 41.0983 42.4435 41.2734 42.2704C41.4484 42.0973 41.6858 42 41.9333 42H45.2C45.3449 42 45.4878 42.0334 45.6174 42.0975C45.747 42.1615 45.8597 42.2546 45.9467 42.3692L47.0667 43.8462H54.0667C54.3142 43.8462 54.5516 43.9434 54.7266 44.1165C54.9017 44.2896 55 44.5244 55 44.7692V45.6923" stroke="white" stroke-linecap="round" stroke-linejoin="round"></path><path d="M54.3996 49.5H50.1996C49.8682 49.5 49.5996 49.7686 49.5996 50.1V53.3997C49.5996 53.7311 49.8682 53.9997 50.1996 53.9997H54.3996C54.7309 53.9997 54.9995 53.7311 54.9995 53.3997V50.1C54.9995 49.7686 54.7309 49.5 54.3996 49.5Z" stroke="white" stroke-linecap="round" stroke-linejoin="round"></path><path d="M52.2996 51.5508C52.3392 51.5508 52.3778 51.5625 52.4107 51.5845C52.4436 51.6065 52.4692 51.6377 52.4844 51.6742C52.4995 51.7108 52.5035 51.751 52.4958 51.7898C52.488 51.8286 52.469 51.8642 52.441 51.8922C52.4131 51.9202 52.3774 51.9392 52.3386 51.9469C52.2998 51.9547 52.2596 51.9507 52.2231 51.9356C52.1865 51.9204 52.1553 51.8948 52.1333 51.8619C52.1113 51.829 52.0996 51.7903 52.0996 51.7508C52.0996 51.6977 52.1207 51.6469 52.1582 51.6094C52.1957 51.5719 52.2466 51.5508 52.2996 51.5508" stroke="white" stroke-linecap="round" stroke-linejoin="round"></path><path d="M52.3457 47C51.8816 47 51.4365 47.1756 51.1083 47.4881C50.7801 47.8007 50.5957 48.2245 50.5957 48.6665V49.4998H54.0957V48.6665C54.0957 48.2245 53.9113 47.8007 53.5831 47.4881C53.255 47.1756 52.8098 47 52.3457 47Z" stroke="white" stroke-linecap="round" stroke-linejoin="round"></path><path d="M85.1534 46.0398H86.9545C86.5625 43.7727 84.625 42.2045 82.1136 42.2045C79.1023 42.2045 76.9034 44.4716 76.9034 48.1875C76.9034 51.8693 79.0398 54.1591 82.1932 54.1591C85.017 54.1591 87.0341 52.3068 87.0341 49.3693V48.0455H82.4602V49.4943H85.3352C85.2955 51.3693 84.0568 52.5568 82.1932 52.5568C80.142 52.5568 78.6477 51.0057 78.6477 48.1761C78.6477 45.358 80.1534 43.8068 82.125 43.8068C83.6705 43.8068 84.7159 44.6591 85.1534 46.0398ZM92.7118 54.1761C94.6152 54.1761 95.9618 53.2386 96.3481 51.8182L94.7402 51.5284C94.4334 52.3523 93.6947 52.7727 92.7288 52.7727C91.2743 52.7727 90.297 51.8295 90.2516 50.1477H96.4561V49.5455C96.4561 46.392 94.5697 45.1591 92.5925 45.1591C90.1606 45.1591 88.5584 47.0114 88.5584 49.6932C88.5584 52.4034 90.1379 54.1761 92.7118 54.1761ZM90.2572 48.875C90.3254 47.6364 91.2231 46.5625 92.6038 46.5625C93.922 46.5625 94.7856 47.5398 94.7913 48.875H90.2572ZM99.8639 48.8182C99.8639 47.4261 100.716 46.6307 101.898 46.6307C103.051 46.6307 103.75 47.3864 103.75 48.6534V54H105.449V48.4489C105.449 46.2898 104.262 45.1591 102.478 45.1591C101.165 45.1591 100.307 45.767 99.9037 46.6932H99.7957V45.2727H98.165V54H99.8639V48.8182ZM111.313 54.1761C113.216 54.1761 114.563 53.2386 114.949 51.8182L113.341 51.5284C113.035 52.3523 112.296 52.7727 111.33 52.7727C109.875 52.7727 108.898 51.8295 108.853 50.1477H115.057V49.5455C115.057 46.392 113.171 45.1591 111.194 45.1591C108.762 45.1591 107.16 47.0114 107.16 49.6932C107.16 52.4034 108.739 54.1761 111.313 54.1761ZM108.858 48.875C108.927 47.6364 109.824 46.5625 111.205 46.5625C112.523 46.5625 113.387 47.5398 113.392 48.875H108.858ZM116.766 54H118.465V48.6705C118.465 47.5284 119.346 46.7045 120.55 46.7045C120.903 46.7045 121.3 46.767 121.437 46.8068V45.1818C121.266 45.1591 120.931 45.142 120.715 45.142C119.692 45.142 118.817 45.7216 118.499 46.6591H118.408V45.2727H116.766V54ZM125.192 54.1932C126.636 54.1932 127.448 53.4602 127.772 52.8068H127.84V54H129.499V48.2045C129.499 45.6648 127.499 45.1591 126.113 45.1591C124.533 45.1591 123.079 45.7955 122.511 47.3864L124.107 47.75C124.357 47.1307 124.994 46.5341 126.136 46.5341C127.232 46.5341 127.795 47.108 127.795 48.0966V48.1364C127.795 48.7557 127.158 48.7443 125.59 48.9261C123.937 49.1193 122.244 49.5511 122.244 51.5341C122.244 53.25 123.533 54.1932 125.192 54.1932ZM125.562 52.8295C124.602 52.8295 123.908 52.3977 123.908 51.5568C123.908 50.6477 124.715 50.3239 125.698 50.1932C126.249 50.1193 127.556 49.9716 127.8 49.7273V50.8523C127.8 51.8864 126.977 52.8295 125.562 52.8295ZM133.285 42.3636H131.586V54H133.285V42.3636Z" fill="#2D2F33"></path><path d="M33.7807 97H40.204V95.9062H35.471V95.8267L37.7579 93.3807C39.5079 91.5064 40.025 90.6314 40.025 89.5028C40.025 87.9318 38.7523 86.679 36.9625 86.679C35.1777 86.679 33.8204 87.892 33.8204 89.6818H34.9937C34.9937 88.5234 35.7445 87.7528 36.9227 87.7528C38.0264 87.7528 38.8716 88.429 38.8716 89.5028C38.8716 90.4425 38.3197 91.1385 37.1415 92.4261L33.7807 96.1051V97ZM41.7159 94.9119H46.5085V97H47.6818V94.9119H49.0738V93.8182H47.6818V86.8182H46.1903L41.7159 93.8977V94.9119ZM46.5085 93.8182H43.0482V93.7386L46.4289 88.3892H46.5085V93.8182ZM54.7263 97H55.8996V92.2273C55.8996 91.1087 56.7149 90.3182 57.6297 90.3182C58.5196 90.3182 59.1411 90.8999 59.1411 91.7699V97H60.3343V92.0284C60.3343 91.044 60.9507 90.3182 62.0246 90.3182C62.8598 90.3182 63.5757 90.7607 63.5757 91.8892V97H64.749V91.8892C64.749 90.0945 63.7845 89.2642 62.4223 89.2642C61.3286 89.2642 60.5281 89.7663 60.1354 90.5568H60.0558C59.678 89.7415 59.0118 89.2642 58.0075 89.2642C57.0132 89.2642 56.2774 89.7415 55.9593 90.5568H55.8598V89.3636H54.7263V97ZM70.012 97.1591C71.5631 97.1591 72.6966 96.3835 73.0546 95.2301L71.9211 94.9119C71.6228 95.7074 70.9317 96.1051 70.012 96.1051C68.6348 96.1051 67.6853 95.2152 67.6306 93.5795H73.1739V93.0824C73.1739 90.2386 71.4836 89.2642 69.8927 89.2642C67.8245 89.2642 66.4523 90.8949 66.4523 93.2415C66.4523 95.5881 67.8046 97.1591 70.012 97.1591ZM67.6306 92.5653C67.7101 91.3771 68.5503 90.3182 69.8927 90.3182C71.1654 90.3182 71.9807 91.2727 71.9807 92.5653H67.6306ZM74.8747 97H76.048V92.2273C76.048 91.1087 76.8633 90.3182 77.7781 90.3182C78.668 90.3182 79.2895 90.8999 79.2895 91.7699V97H80.4827V92.0284C80.4827 91.044 81.0991 90.3182 82.173 90.3182C83.0082 90.3182 83.7241 90.7607 83.7241 91.8892V97H84.8974V91.8892C84.8974 90.0945 83.9329 89.2642 82.5707 89.2642C81.477 89.2642 80.6766 89.7663 80.2838 90.5568H80.2043C79.8264 89.7415 79.1602 89.2642 78.156 89.2642C77.1616 89.2642 76.4258 89.7415 76.1077 90.5568H76.0082V89.3636H74.8747V97ZM87.1178 97H88.2513V95.8267H88.3905C88.649 96.2443 89.1462 97.1591 90.6178 97.1591C92.5269 97.1591 93.8592 95.6278 93.8592 93.2017C93.8592 90.7955 92.5269 89.2642 90.5979 89.2642C89.1064 89.2642 88.649 90.179 88.3905 90.5767H88.2911V86.8182H87.1178V97ZM88.2712 93.1818C88.2712 91.4716 89.0269 90.3182 90.4587 90.3182C91.9501 90.3182 92.6859 91.571 92.6859 93.1818C92.6859 94.8125 91.9303 96.1051 90.4587 96.1051C89.0467 96.1051 88.2712 94.9119 88.2712 93.1818ZM98.7717 97.1591C100.323 97.1591 101.456 96.3835 101.814 95.2301L100.681 94.9119C100.382 95.7074 99.6914 96.1051 98.7717 96.1051C97.3946 96.1051 96.445 95.2152 96.3903 93.5795H101.934V93.0824C101.934 90.2386 100.243 89.2642 98.6524 89.2642C96.5842 89.2642 95.212 90.8949 95.212 93.2415C95.212 95.5881 96.5643 97.1591 98.7717 97.1591ZM96.3903 92.5653C96.4698 91.3771 97.31 90.3182 98.6524 90.3182C99.9251 90.3182 100.74 91.2727 100.74 92.5653H96.3903ZM103.634 97H104.808V92.1676C104.808 91.1335 105.623 90.3778 106.737 90.3778C107.05 90.3778 107.373 90.4375 107.453 90.4574V89.2642C107.318 89.2543 107.01 89.2443 106.836 89.2443C105.921 89.2443 105.126 89.7614 104.847 90.517H104.768V89.3636H103.634V97ZM114.169 91.0739C113.801 89.9901 112.975 89.2642 111.464 89.2642C109.853 89.2642 108.66 90.179 108.66 91.4716C108.66 92.5256 109.286 93.2315 110.688 93.5597L111.961 93.858C112.732 94.0369 113.095 94.4048 113.095 94.9318C113.095 95.5881 112.399 96.125 111.305 96.125C110.345 96.125 109.744 95.7124 109.535 94.892L108.421 95.1705C108.695 96.468 109.764 97.1591 111.325 97.1591C113.1 97.1591 114.308 96.1896 114.308 94.8722C114.308 93.8082 113.642 93.1371 112.279 92.804L111.146 92.5256C110.241 92.3018 109.833 91.9986 109.833 91.4119C109.833 90.7557 110.529 90.2784 111.464 90.2784C112.488 90.2784 112.911 90.8452 113.115 91.3722L114.169 91.0739Z" fill="#696F80"></path><rect x="226" y="80" width="102" height="24" rx="12" fill="#F7F8FA"></rect><path d="M238.151 87.2727H236.868L234.69 88.696V89.9574L236.778 88.5938H236.83V96H238.151V87.2727ZM243.55 96.1449C245.565 96.1449 246.746 94.5 246.746 91.6406C246.746 88.8026 245.548 87.1534 243.55 87.1534C241.547 87.1534 240.354 88.7983 240.349 91.6406C240.349 94.4957 241.53 96.1406 243.55 96.1449ZM243.55 95.0071C242.369 95.0071 241.658 93.8224 241.658 91.6406C241.662 89.4673 242.374 88.2699 243.55 88.2699C244.722 88.2699 245.438 89.4673 245.438 91.6406C245.438 93.8224 244.726 95.0071 243.55 95.0071ZM251.206 96.1193C253.022 96.1193 254.304 95.0881 254.313 93.6733C254.304 92.5739 253.533 91.6491 252.557 91.4744V91.4233C253.405 91.2188 253.98 90.4219 253.989 89.4801C253.98 88.1463 252.804 87.1534 251.206 87.1534C249.591 87.1534 248.415 88.1463 248.424 89.4801C248.415 90.4176 248.99 91.2188 249.855 91.4233V91.4744C248.863 91.6491 248.091 92.5739 248.1 93.6733C248.091 95.0881 249.374 96.1193 251.206 96.1193ZM251.206 95.0412C250.115 95.0412 249.425 94.4616 249.434 93.5881C249.425 92.6804 250.175 92.0327 251.206 92.0327C252.221 92.0327 252.971 92.6804 252.979 93.5881C252.971 94.4616 252.284 95.0412 251.206 95.0412ZM251.206 90.9801C250.324 90.9801 249.698 90.4219 249.706 89.5909C249.698 88.7727 250.303 88.2315 251.206 88.2315C252.093 88.2315 252.698 88.7727 252.706 89.5909C252.698 90.4219 252.076 90.9801 251.206 90.9801ZM256.134 96H257.51L261.307 88.4403V87.2727H255.537V88.402H259.943V88.4659L256.134 96ZM268.739 96.1321C270.286 96.1321 271.287 95.2031 271.428 93.929H270.188C270.026 94.6364 269.476 95.054 268.747 95.054C267.669 95.054 266.974 94.1548 266.974 92.7273C266.974 91.3253 267.682 90.4432 268.747 90.4432C269.557 90.4432 270.051 90.9545 270.188 91.5682H271.428C271.291 90.2472 270.213 89.3693 268.726 89.3693C266.881 89.3693 265.688 90.7585 265.688 92.7571C265.688 94.7301 266.838 96.1321 268.739 96.1321ZM275.547 96.1321C277.392 96.1321 278.598 94.7812 278.598 92.7571C278.598 90.7202 277.392 89.3693 275.547 89.3693C273.702 89.3693 272.496 90.7202 272.496 92.7571C272.496 94.7812 273.702 96.1321 275.547 96.1321ZM275.551 95.0625C274.346 95.0625 273.783 94.0099 273.783 92.7528C273.783 91.5 274.346 90.4347 275.551 90.4347C276.749 90.4347 277.311 91.5 277.311 92.7528C277.311 94.0099 276.749 95.0625 275.551 95.0625ZM281.295 92.1136C281.295 91.0696 281.934 90.473 282.82 90.473C283.685 90.473 284.21 91.0398 284.21 91.9901V96H285.484V91.8366C285.484 90.2173 284.593 89.3693 283.255 89.3693C282.271 89.3693 281.627 89.8253 281.325 90.5199H281.244V89.4545H280.021V96H281.295V92.1136ZM290.248 89.4545H288.906V87.8864H287.631V89.4545H286.673V90.4773H287.631V94.3423C287.627 95.5312 288.535 96.1065 289.54 96.0852C289.945 96.081 290.218 96.0043 290.367 95.9489L290.137 94.8963C290.052 94.9134 289.894 94.9517 289.69 94.9517C289.276 94.9517 288.906 94.8153 288.906 94.0781V90.4773H290.248V89.4545ZM291.657 96H292.931V92.0028C292.931 91.1463 293.592 90.5284 294.495 90.5284C294.76 90.5284 295.058 90.5753 295.16 90.6051V89.3864C295.032 89.3693 294.781 89.3565 294.619 89.3565C293.852 89.3565 293.196 89.7912 292.957 90.4943H292.889V89.4545H291.657V96ZM298.109 96.1449C299.191 96.1449 299.801 95.5952 300.044 95.1051H300.095V96H301.339V91.6534C301.339 89.7486 299.839 89.3693 298.799 89.3693C297.615 89.3693 296.524 89.8466 296.098 91.0398L297.295 91.3125C297.483 90.848 297.96 90.4006 298.816 90.4006C299.639 90.4006 300.061 90.831 300.061 91.5724V91.6023C300.061 92.0668 299.583 92.0582 298.407 92.1946C297.167 92.3395 295.897 92.6634 295.897 94.1506C295.897 95.4375 296.865 96.1449 298.109 96.1449ZM298.386 95.1222C297.666 95.1222 297.146 94.7983 297.146 94.1676C297.146 93.4858 297.751 93.2429 298.488 93.1449C298.902 93.0895 299.882 92.9787 300.065 92.7955V93.6392C300.065 94.4148 299.447 95.1222 298.386 95.1222ZM305.793 96.1321C307.34 96.1321 308.342 95.2031 308.482 93.929H307.242C307.08 94.6364 306.531 95.054 305.802 95.054C304.724 95.054 304.029 94.1548 304.029 92.7273C304.029 91.3253 304.737 90.4432 305.802 90.4432C306.612 90.4432 307.106 90.9545 307.242 91.5682H308.482C308.346 90.2472 307.268 89.3693 305.781 89.3693C303.935 89.3693 302.742 90.7585 302.742 92.7571C302.742 94.7301 303.893 96.1321 305.793 96.1321ZM312.9 89.4545H311.558V87.8864H310.284V89.4545H309.325V90.4773H310.284V94.3423C310.279 95.5312 311.187 96.1065 312.193 96.0852C312.598 96.081 312.87 96.0043 313.02 95.9489L312.789 94.8963C312.704 94.9134 312.547 94.9517 312.342 94.9517C311.929 94.9517 311.558 94.8153 311.558 94.0781V90.4773H312.9V89.4545ZM319.109 91.0526C318.845 90.0341 318.048 89.3693 316.633 89.3693C315.154 89.3693 314.106 90.1491 314.106 91.3082C314.106 92.2372 314.669 92.8551 315.896 93.1278L317.004 93.3707C317.635 93.5114 317.929 93.7926 317.929 94.2017C317.929 94.7088 317.387 95.1051 316.552 95.1051C315.789 95.1051 315.299 94.777 315.146 94.1335L313.914 94.321C314.127 95.4801 315.091 96.1321 316.561 96.1321C318.142 96.1321 319.237 95.2926 319.237 94.108C319.237 93.1832 318.649 92.6122 317.447 92.3352L316.407 92.0966C315.687 91.9261 315.376 91.6832 315.38 91.2401C315.376 90.7372 315.922 90.3793 316.646 90.3793C317.439 90.3793 317.805 90.8182 317.954 91.2571L319.109 91.0526Z" fill="#696F80"></path><rect x="16.5" y="16.5" width="327" height="103" rx="7.5" stroke="#EBECF0"></rect><rect x="16.5" y="128.5" width="327" height="103" rx="7.5" fill="white"></rect><rect x="32" y="144" width="32" height="32" rx="8" fill="#3493A3"></rect><path d="M55 156.769C55 156.524 54.9017 156.29 54.7267 156.117C54.5516 155.943 54.3142 155.846 54.0667 155.846H47.0667L45.9467 154.369C45.8597 154.255 45.747 154.162 45.6174 154.097C45.4878 154.033 45.3449 154 45.2 154H41.9333C41.6858 154 41.4484 154.097 41.2734 154.27C41.0983 154.443 41 154.678 41 154.923V165.077C41 165.322 41.0983 165.557 41.2734 165.73C41.4484 165.903 41.6858 166 41.9333 166H54.0667C54.3142 166 54.5516 165.903 54.7267 165.73C54.9017 165.557 55 165.322 55 165.077V156.769Z" stroke="white" stroke-linecap="round" stroke-linejoin="round"></path><path d="M83.625 157.42H85.3182C85.267 155.557 83.6193 154.205 81.2557 154.205C78.9205 154.205 77.1307 155.54 77.1307 157.545C77.1307 159.165 78.2898 160.114 80.1591 160.619L81.5341 160.994C82.7784 161.324 83.7386 161.733 83.7386 162.767C83.7386 163.903 82.6534 164.653 81.1591 164.653C79.8068 164.653 78.6818 164.051 78.5795 162.784H76.8182C76.9318 164.892 78.5625 166.193 81.1705 166.193C83.9034 166.193 85.4773 164.756 85.4773 162.784C85.4773 160.688 83.608 159.875 82.1307 159.511L80.9943 159.216C80.0852 158.983 78.875 158.557 78.8807 157.443C78.8807 156.455 79.7841 155.722 81.2159 155.722C82.5511 155.722 83.5 156.347 83.625 157.42ZM89.8027 166.193C91.2459 166.193 92.0584 165.46 92.3822 164.807H92.4504V166H94.1095V160.205C94.1095 157.665 92.1095 157.159 90.7231 157.159C89.1436 157.159 87.6891 157.795 87.1209 159.386L88.7175 159.75C88.9675 159.131 89.6038 158.534 90.7459 158.534C91.8425 158.534 92.405 159.108 92.405 160.097V160.136C92.405 160.756 91.7686 160.744 90.2004 160.926C88.547 161.119 86.8538 161.551 86.8538 163.534C86.8538 165.25 88.1436 166.193 89.8027 166.193ZM90.172 164.83C89.2118 164.83 88.5186 164.398 88.5186 163.557C88.5186 162.648 89.3254 162.324 90.3084 162.193C90.8595 162.119 92.1663 161.972 92.4106 161.727V162.852C92.4106 163.886 91.5868 164.83 90.172 164.83ZM97.8952 154.364H96.1963V166H97.8952V154.364ZM103.766 166.176C105.669 166.176 107.016 165.239 107.402 163.818L105.794 163.528C105.488 164.352 104.749 164.773 103.783 164.773C102.329 164.773 101.351 163.83 101.306 162.148H107.51V161.545C107.51 158.392 105.624 157.159 103.647 157.159C101.215 157.159 99.6126 159.011 99.6126 161.693C99.6126 164.403 101.192 166.176 103.766 166.176ZM101.311 160.875C101.38 159.636 102.277 158.562 103.658 158.562C104.976 158.562 105.84 159.54 105.846 160.875H101.311ZM115.759 159.403C115.407 158.045 114.344 157.159 112.458 157.159C110.486 157.159 109.089 158.199 109.089 159.744C109.089 160.983 109.839 161.807 111.475 162.17L112.952 162.494C113.793 162.682 114.185 163.057 114.185 163.602C114.185 164.278 113.464 164.807 112.35 164.807C111.333 164.807 110.68 164.369 110.475 163.511L108.833 163.761C109.117 165.307 110.401 166.176 112.361 166.176C114.469 166.176 115.93 165.057 115.93 163.477C115.93 162.244 115.145 161.483 113.543 161.114L112.157 160.795C111.197 160.568 110.782 160.244 110.787 159.653C110.782 158.983 111.509 158.506 112.475 158.506C113.532 158.506 114.02 159.091 114.219 159.676L115.759 159.403Z" fill="#2D2F33"></path><path d="M36.5713 209.139C38.6047 209.139 40.0216 207.951 40.0315 206.295C40.0216 205.008 39.1615 203.914 38.0628 203.71V203.651C39.0173 203.402 39.6438 202.467 39.6537 201.384C39.6438 199.832 38.3412 198.679 36.5713 198.679C34.7815 198.679 33.479 199.832 33.4889 201.384C33.479 202.467 34.1054 203.402 35.0798 203.651V203.71C33.9612 203.914 33.1012 205.008 33.1111 206.295C33.1012 207.951 34.5181 209.139 36.5713 209.139ZM36.5713 208.045C35.1743 208.045 34.3142 207.33 34.3242 206.236C34.3142 205.087 35.2638 204.267 36.5713 204.267C37.859 204.267 38.8085 205.087 38.8185 206.236C38.8085 207.33 37.9485 208.045 36.5713 208.045ZM36.5713 203.213C35.4577 203.213 34.6722 202.517 34.6821 201.463C34.6722 200.429 35.4279 199.753 36.5713 199.753C37.6949 199.753 38.4506 200.429 38.4605 201.463C38.4506 202.517 37.6651 203.213 36.5713 203.213ZM45.7263 209H46.8996V204.227C46.8996 203.109 47.7149 202.318 48.6297 202.318C49.5196 202.318 50.1411 202.9 50.1411 203.77V209H51.3343V204.028C51.3343 203.044 51.9507 202.318 53.0246 202.318C53.8598 202.318 54.5757 202.761 54.5757 203.889V209H55.749V203.889C55.749 202.094 54.7845 201.264 53.4223 201.264C52.3286 201.264 51.5281 201.766 51.1354 202.557H51.0558C50.678 201.741 50.0118 201.264 49.0075 201.264C48.0132 201.264 47.2774 201.741 46.9593 202.557H46.8598V201.364H45.7263V209ZM61.012 209.159C62.5631 209.159 63.6966 208.384 64.0546 207.23L62.9211 206.912C62.6228 207.707 61.9317 208.105 61.012 208.105C59.6348 208.105 58.6853 207.215 58.6306 205.58H64.1739V205.082C64.1739 202.239 62.4836 201.264 60.8927 201.264C58.8245 201.264 57.4523 202.895 57.4523 205.241C57.4523 207.588 58.8046 209.159 61.012 209.159ZM58.6306 204.565C58.7101 203.377 59.5503 202.318 60.8927 202.318C62.1654 202.318 62.9807 203.273 62.9807 204.565H58.6306ZM65.8747 209H67.048V204.227C67.048 203.109 67.8633 202.318 68.7781 202.318C69.668 202.318 70.2895 202.9 70.2895 203.77V209H71.4827V204.028C71.4827 203.044 72.0991 202.318 73.173 202.318C74.0082 202.318 74.7241 202.761 74.7241 203.889V209H75.8974V203.889C75.8974 202.094 74.9329 201.264 73.5707 201.264C72.477 201.264 71.6766 201.766 71.2838 202.557H71.2043C70.8264 201.741 70.1602 201.264 69.156 201.264C68.1616 201.264 67.4258 201.741 67.1077 202.557H67.0082V201.364H65.8747V209ZM78.1178 209H79.2513V207.827H79.3905C79.649 208.244 80.1462 209.159 81.6178 209.159C83.5269 209.159 84.8592 207.628 84.8592 205.202C84.8592 202.795 83.5269 201.264 81.5979 201.264C80.1064 201.264 79.649 202.179 79.3905 202.577H79.2911V198.818H78.1178V209ZM79.2712 205.182C79.2712 203.472 80.0269 202.318 81.4587 202.318C82.9502 202.318 83.6859 203.571 83.6859 205.182C83.6859 206.812 82.9303 208.105 81.4587 208.105C80.0467 208.105 79.2712 206.912 79.2712 205.182ZM89.7717 209.159C91.3228 209.159 92.4563 208.384 92.8143 207.23L91.6808 206.912C91.3825 207.707 90.6914 208.105 89.7717 208.105C88.3946 208.105 87.445 207.215 87.3903 205.58H92.9336V205.082C92.9336 202.239 91.2433 201.264 89.6524 201.264C87.5842 201.264 86.212 202.895 86.212 205.241C86.212 207.588 87.5643 209.159 89.7717 209.159ZM87.3903 204.565C87.4698 203.377 88.31 202.318 89.6524 202.318C90.9251 202.318 91.7404 203.273 91.7404 204.565H87.3903ZM94.6344 209H95.8077V204.168C95.8077 203.134 96.6231 202.378 97.7367 202.378C98.0499 202.378 98.3731 202.438 98.4526 202.457V201.264C98.3184 201.254 98.0101 201.244 97.8361 201.244C96.9214 201.244 96.1259 201.761 95.8475 202.517H95.7679V201.364H94.6344V209ZM105.169 203.074C104.801 201.99 103.975 201.264 102.464 201.264C100.853 201.264 99.66 202.179 99.66 203.472C99.66 204.526 100.286 205.232 101.688 205.56L102.961 205.858C103.732 206.037 104.095 206.405 104.095 206.932C104.095 207.588 103.399 208.125 102.305 208.125C101.345 208.125 100.744 207.712 100.535 206.892L99.4213 207.17C99.6948 208.468 100.764 209.159 102.325 209.159C104.1 209.159 105.308 208.19 105.308 206.872C105.308 205.808 104.642 205.137 103.279 204.804L102.146 204.526C101.241 204.302 100.833 203.999 100.833 203.412C100.833 202.756 101.529 202.278 102.464 202.278C103.488 202.278 103.911 202.845 104.115 203.372L105.169 203.074Z" fill="#696F80"></path><rect x="234" y="192" width="94" height="24" rx="12" fill="#F7F8FA"></rect><path d="M243.134 208H244.51L248.307 200.44V199.273H242.537V200.402H246.943V200.466L243.134 208ZM253.1 199.273H251.817L249.64 200.696V201.957L251.728 200.594H251.779V208H253.1V199.273ZM255.461 208H261.205V206.871H257.276V206.807L259.01 204.991C260.608 203.376 261.064 202.605 261.064 201.629C261.064 200.227 259.922 199.153 258.277 199.153C256.645 199.153 255.452 200.21 255.452 201.804H256.709C256.705 200.866 257.31 200.253 258.252 200.253C259.138 200.253 259.811 200.798 259.811 201.668C259.811 202.439 259.351 202.993 258.414 203.986L255.461 207.045V208ZM268.77 208.132C270.317 208.132 271.318 207.203 271.459 205.929H270.219C270.057 206.636 269.507 207.054 268.778 207.054C267.7 207.054 267.006 206.155 267.006 204.727C267.006 203.325 267.713 202.443 268.778 202.443C269.588 202.443 270.082 202.955 270.219 203.568H271.459C271.322 202.247 270.244 201.369 268.757 201.369C266.912 201.369 265.719 202.759 265.719 204.757C265.719 206.73 266.869 208.132 268.77 208.132ZM275.578 208.132C277.424 208.132 278.63 206.781 278.63 204.757C278.63 202.72 277.424 201.369 275.578 201.369C273.733 201.369 272.527 202.72 272.527 204.757C272.527 206.781 273.733 208.132 275.578 208.132ZM275.583 207.062C274.377 207.062 273.814 206.01 273.814 204.753C273.814 203.5 274.377 202.435 275.583 202.435C276.78 202.435 277.343 203.5 277.343 204.753C277.343 206.01 276.78 207.062 275.583 207.062ZM281.326 204.114C281.326 203.07 281.965 202.473 282.852 202.473C283.717 202.473 284.241 203.04 284.241 203.99V208H285.515V203.837C285.515 202.217 284.624 201.369 283.286 201.369C282.302 201.369 281.658 201.825 281.356 202.52H281.275V201.455H280.052V208H281.326V204.114ZM290.279 201.455H288.937V199.886H287.663V201.455H286.704V202.477H287.663V206.342C287.658 207.531 288.566 208.107 289.572 208.085C289.977 208.081 290.249 208.004 290.398 207.949L290.168 206.896C290.083 206.913 289.925 206.952 289.721 206.952C289.308 206.952 288.937 206.815 288.937 206.078V202.477H290.279V201.455ZM291.689 208H292.963V204.003C292.963 203.146 293.623 202.528 294.527 202.528C294.791 202.528 295.089 202.575 295.191 202.605V201.386C295.064 201.369 294.812 201.357 294.65 201.357C293.883 201.357 293.227 201.791 292.988 202.494H292.92V201.455H291.689V208ZM298.14 208.145C299.223 208.145 299.832 207.595 300.075 207.105H300.126V208H301.37V203.653C301.37 201.749 299.87 201.369 298.831 201.369C297.646 201.369 296.555 201.847 296.129 203.04L297.326 203.312C297.514 202.848 297.991 202.401 298.848 202.401C299.67 202.401 300.092 202.831 300.092 203.572V203.602C300.092 204.067 299.615 204.058 298.439 204.195C297.199 204.339 295.929 204.663 295.929 206.151C295.929 207.438 296.896 208.145 298.14 208.145ZM298.417 207.122C297.697 207.122 297.177 206.798 297.177 206.168C297.177 205.486 297.782 205.243 298.52 205.145C298.933 205.089 299.913 204.979 300.096 204.795V205.639C300.096 206.415 299.478 207.122 298.417 207.122ZM305.825 208.132C307.371 208.132 308.373 207.203 308.513 205.929H307.273C307.112 206.636 306.562 207.054 305.833 207.054C304.755 207.054 304.06 206.155 304.06 204.727C304.06 203.325 304.768 202.443 305.833 202.443C306.643 202.443 307.137 202.955 307.273 203.568H308.513C308.377 202.247 307.299 201.369 305.812 201.369C303.967 201.369 302.773 202.759 302.773 204.757C302.773 206.73 303.924 208.132 305.825 208.132ZM312.931 201.455H311.589V199.886H310.315V201.455H309.356V202.477H310.315V206.342C310.311 207.531 311.218 208.107 312.224 208.085C312.629 208.081 312.902 208.004 313.051 207.949L312.821 206.896C312.735 206.913 312.578 206.952 312.373 206.952C311.96 206.952 311.589 206.815 311.589 206.078V202.477H312.931V201.455ZM319.14 203.053C318.876 202.034 318.079 201.369 316.664 201.369C315.186 201.369 314.137 202.149 314.137 203.308C314.137 204.237 314.7 204.855 315.927 205.128L317.035 205.371C317.666 205.511 317.96 205.793 317.96 206.202C317.96 206.709 317.419 207.105 316.583 207.105C315.821 207.105 315.331 206.777 315.177 206.134L313.946 206.321C314.159 207.48 315.122 208.132 316.592 208.132C318.173 208.132 319.268 207.293 319.268 206.108C319.268 205.183 318.68 204.612 317.478 204.335L316.439 204.097C315.718 203.926 315.407 203.683 315.412 203.24C315.407 202.737 315.953 202.379 316.677 202.379C317.47 202.379 317.836 202.818 317.985 203.257L319.14 203.053Z" fill="#696F80"></path><rect x="16.5" y="128.5" width="327" height="103" rx="7.5" stroke="#EBECF0"></rect><rect x="16.5" y="240.5" width="327" height="103" rx="7.5" fill="white"></rect><rect x="32" y="256" width="32" height="32" rx="8" fill="#DB4F70"></rect><path d="M55 268.769C55 268.524 54.9017 268.29 54.7267 268.117C54.5516 267.943 54.3142 267.846 54.0667 267.846H47.0667L45.9467 266.369C45.8597 266.255 45.747 266.162 45.6174 266.097C45.4878 266.033 45.3449 266 45.2 266H41.9333C41.6858 266 41.4484 266.097 41.2734 266.27C41.0983 266.443 41 266.678 41 266.923V277.077C41 277.322 41.0983 277.557 41.2734 277.73C41.4484 277.903 41.6858 278 41.9333 278H54.0667C54.3142 278 54.5516 277.903 54.7267 277.73C54.9017 277.557 55 277.322 55 277.077V268.769Z" stroke="white" stroke-linecap="round" stroke-linejoin="round"></path><path d="M77.2784 278H79.0341V272.926H84.8352V278H86.5966V266.364H84.8352V271.42H79.0341V266.364H77.2784V278ZM88.9774 278H90.7331V273.597H93.1195C93.1592 273.597 93.1933 273.597 93.2331 273.597L95.5967 278H97.5967L95.0172 273.29C96.4433 272.761 97.1535 271.574 97.1535 270.011C97.1535 267.869 95.824 266.364 93.1251 266.364H88.9774V278ZM90.7331 272.085V267.869H92.9376C94.6706 267.869 95.3865 268.693 95.3865 270.011C95.3865 271.324 94.6706 272.085 92.9604 272.085H90.7331Z" fill="#2D2F33"></path><path d="M36.6012 321.139C38.5401 321.139 39.9619 319.707 39.9619 317.759C39.9619 315.785 38.5898 314.338 36.7205 314.338C36.0344 314.338 35.3682 314.582 34.9506 314.915H34.8909L35.2489 311.912H39.5046V310.818H34.2148L33.5983 315.83L34.7517 315.969C35.1743 315.665 35.8952 315.447 36.5216 315.452C37.8192 315.462 38.7688 316.446 38.7688 317.778C38.7688 319.086 37.854 320.045 36.6012 320.045C35.5571 320.045 34.7269 319.374 34.6324 318.455H33.4392C33.5138 320.006 34.8512 321.139 36.6012 321.139ZM45.7263 321H46.8996V316.227C46.8996 315.109 47.7149 314.318 48.6297 314.318C49.5196 314.318 50.1411 314.9 50.1411 315.77V321H51.3343V316.028C51.3343 315.044 51.9507 314.318 53.0246 314.318C53.8598 314.318 54.5757 314.761 54.5757 315.889V321H55.749V315.889C55.749 314.094 54.7845 313.264 53.4223 313.264C52.3286 313.264 51.5281 313.766 51.1354 314.557H51.0558C50.678 313.741 50.0118 313.264 49.0075 313.264C48.0132 313.264 47.2774 313.741 46.9593 314.557H46.8598V313.364H45.7263V321ZM61.012 321.159C62.5631 321.159 63.6966 320.384 64.0546 319.23L62.9211 318.912C62.6228 319.707 61.9317 320.105 61.012 320.105C59.6348 320.105 58.6853 319.215 58.6306 317.58H64.1739V317.082C64.1739 314.239 62.4836 313.264 60.8927 313.264C58.8245 313.264 57.4523 314.895 57.4523 317.241C57.4523 319.588 58.8046 321.159 61.012 321.159ZM58.6306 316.565C58.7101 315.377 59.5503 314.318 60.8927 314.318C62.1654 314.318 62.9807 315.273 62.9807 316.565H58.6306ZM65.8747 321H67.048V316.227C67.048 315.109 67.8633 314.318 68.7781 314.318C69.668 314.318 70.2895 314.9 70.2895 315.77V321H71.4827V316.028C71.4827 315.044 72.0991 314.318 73.173 314.318C74.0082 314.318 74.7241 314.761 74.7241 315.889V321H75.8974V315.889C75.8974 314.094 74.9329 313.264 73.5707 313.264C72.477 313.264 71.6766 313.766 71.2838 314.557H71.2043C70.8264 313.741 70.1602 313.264 69.156 313.264C68.1616 313.264 67.4258 313.741 67.1077 314.557H67.0082V313.364H65.8747V321ZM78.1178 321H79.2513V319.827H79.3905C79.649 320.244 80.1462 321.159 81.6178 321.159C83.5269 321.159 84.8592 319.628 84.8592 317.202C84.8592 314.795 83.5269 313.264 81.5979 313.264C80.1064 313.264 79.649 314.179 79.3905 314.577H79.2911V310.818H78.1178V321ZM79.2712 317.182C79.2712 315.472 80.0269 314.318 81.4587 314.318C82.9502 314.318 83.6859 315.571 83.6859 317.182C83.6859 318.812 82.9303 320.105 81.4587 320.105C80.0467 320.105 79.2712 318.912 79.2712 317.182ZM89.7717 321.159C91.3228 321.159 92.4563 320.384 92.8143 319.23L91.6808 318.912C91.3825 319.707 90.6914 320.105 89.7717 320.105C88.3946 320.105 87.445 319.215 87.3903 317.58H92.9336V317.082C92.9336 314.239 91.2433 313.264 89.6524 313.264C87.5842 313.264 86.212 314.895 86.212 317.241C86.212 319.588 87.5643 321.159 89.7717 321.159ZM87.3903 316.565C87.4698 315.377 88.31 314.318 89.6524 314.318C90.9251 314.318 91.7404 315.273 91.7404 316.565H87.3903ZM94.6344 321H95.8077V316.168C95.8077 315.134 96.6231 314.378 97.7367 314.378C98.0499 314.378 98.3731 314.438 98.4526 314.457V313.264C98.3184 313.254 98.0101 313.244 97.8361 313.244C96.9214 313.244 96.1259 313.761 95.8475 314.517H95.7679V313.364H94.6344V321ZM105.169 315.074C104.801 313.99 103.975 313.264 102.464 313.264C100.853 313.264 99.66 314.179 99.66 315.472C99.66 316.526 100.286 317.232 101.688 317.56L102.961 317.858C103.732 318.037 104.095 318.405 104.095 318.932C104.095 319.588 103.399 320.125 102.305 320.125C101.345 320.125 100.744 319.712 100.535 318.892L99.4213 319.17C99.6948 320.468 100.764 321.159 102.325 321.159C104.1 321.159 105.308 320.19 105.308 318.872C105.308 317.808 104.642 317.137 103.279 316.804L102.146 316.526C101.241 316.302 100.833 315.999 100.833 315.412C100.833 314.756 101.529 314.278 102.464 314.278C103.488 314.278 103.911 314.845 104.115 315.372L105.169 315.074Z" fill="#696F80"></path><rect x="231" y="304" width="97" height="24" rx="12" fill="#F7F8FA"></rect><path d="M242.878 320.119C244.659 320.119 245.967 319.054 245.963 317.605C245.967 316.501 245.298 315.709 244.139 315.53V315.462C245.051 315.227 245.643 314.511 245.639 313.531C245.643 312.249 244.591 311.153 242.912 311.153C241.31 311.153 240.023 312.121 239.98 313.54H241.254C241.284 312.739 242.038 312.253 242.895 312.253C243.786 312.253 244.369 312.794 244.365 313.599C244.369 314.443 243.692 314.997 242.724 314.997H241.987V316.071H242.724C243.935 316.071 244.634 316.685 244.634 317.562C244.634 318.411 243.896 318.986 242.869 318.986C241.923 318.986 241.186 318.5 241.135 317.724H239.797C239.852 319.148 241.114 320.119 242.878 320.119ZM250.523 320.119C252.338 320.119 253.621 319.088 253.629 317.673C253.621 316.574 252.849 315.649 251.874 315.474V315.423C252.722 315.219 253.297 314.422 253.305 313.48C253.297 312.146 252.121 311.153 250.523 311.153C248.908 311.153 247.732 312.146 247.74 313.48C247.732 314.418 248.307 315.219 249.172 315.423V315.474C248.179 315.649 247.408 316.574 247.416 317.673C247.408 319.088 248.69 320.119 250.523 320.119ZM250.523 319.041C249.432 319.041 248.741 318.462 248.75 317.588C248.741 316.68 249.491 316.033 250.523 316.033C251.537 316.033 252.287 316.68 252.295 317.588C252.287 318.462 251.601 319.041 250.523 319.041ZM250.523 314.98C249.641 314.98 249.014 314.422 249.023 313.591C249.014 312.773 249.619 312.232 250.523 312.232C251.409 312.232 252.014 312.773 252.023 313.591C252.014 314.422 251.392 314.98 250.523 314.98ZM258.058 311.153C256.225 311.136 255.028 312.453 255.028 314.107C255.032 315.773 256.238 316.974 257.751 316.974C258.676 316.974 259.468 316.523 259.916 315.79H259.984C259.98 317.797 259.225 318.969 257.947 318.969C257.112 318.969 256.575 318.457 256.404 317.712H255.105C255.297 319.122 256.387 320.119 257.947 320.119C259.975 320.119 261.245 318.376 261.245 315.321C261.241 312.134 259.613 311.166 258.058 311.153ZM258.062 312.261C259.072 312.261 259.818 313.118 259.818 314.077C259.822 315.048 259.034 315.901 258.037 315.901C257.035 315.901 256.311 315.099 256.306 314.089C256.306 313.075 257.061 312.261 258.062 312.261ZM268.735 320.132C270.282 320.132 271.283 319.203 271.424 317.929H270.184C270.022 318.636 269.472 319.054 268.743 319.054C267.665 319.054 266.971 318.155 266.971 316.727C266.971 315.325 267.678 314.443 268.743 314.443C269.553 314.443 270.047 314.955 270.184 315.568H271.424C271.287 314.247 270.209 313.369 268.722 313.369C266.877 313.369 265.684 314.759 265.684 316.757C265.684 318.73 266.834 320.132 268.735 320.132ZM275.543 320.132C277.388 320.132 278.594 318.781 278.594 316.757C278.594 314.72 277.388 313.369 275.543 313.369C273.698 313.369 272.492 314.72 272.492 316.757C272.492 318.781 273.698 320.132 275.543 320.132ZM275.548 319.062C274.342 319.062 273.779 318.01 273.779 316.753C273.779 315.5 274.342 314.435 275.548 314.435C276.745 314.435 277.308 315.5 277.308 316.753C277.308 318.01 276.745 319.062 275.548 319.062ZM281.291 316.114C281.291 315.07 281.93 314.473 282.816 314.473C283.681 314.473 284.206 315.04 284.206 315.99V320H285.48V315.837C285.48 314.217 284.589 313.369 283.251 313.369C282.267 313.369 281.623 313.825 281.321 314.52H281.24V313.455H280.017V320H281.291V316.114ZM290.244 313.455H288.902V311.886H287.627V313.455H286.669V314.477H287.627V318.342C287.623 319.531 288.531 320.107 289.537 320.085C289.941 320.081 290.214 320.004 290.363 319.949L290.133 318.896C290.048 318.913 289.89 318.952 289.686 318.952C289.272 318.952 288.902 318.815 288.902 318.078V314.477H290.244V313.455ZM291.653 320H292.928V316.003C292.928 315.146 293.588 314.528 294.491 314.528C294.756 314.528 295.054 314.575 295.156 314.605V313.386C295.028 313.369 294.777 313.357 294.615 313.357C293.848 313.357 293.192 313.791 292.953 314.494H292.885V313.455H291.653V320ZM298.105 320.145C299.188 320.145 299.797 319.595 300.04 319.105H300.091V320H301.335V315.653C301.335 313.749 299.835 313.369 298.795 313.369C297.611 313.369 296.52 313.847 296.094 315.04L297.291 315.312C297.479 314.848 297.956 314.401 298.812 314.401C299.635 314.401 300.057 314.831 300.057 315.572V315.602C300.057 316.067 299.58 316.058 298.403 316.195C297.163 316.339 295.893 316.663 295.893 318.151C295.893 319.438 296.861 320.145 298.105 320.145ZM298.382 319.122C297.662 319.122 297.142 318.798 297.142 318.168C297.142 317.486 297.747 317.243 298.484 317.145C298.898 317.089 299.878 316.979 300.061 316.795V317.639C300.061 318.415 299.443 319.122 298.382 319.122ZM305.789 320.132C307.336 320.132 308.338 319.203 308.478 317.929H307.238C307.076 318.636 306.527 319.054 305.798 319.054C304.72 319.054 304.025 318.155 304.025 316.727C304.025 315.325 304.733 314.443 305.798 314.443C306.608 314.443 307.102 314.955 307.238 315.568H308.478C308.342 314.247 307.264 313.369 305.777 313.369C303.931 313.369 302.738 314.759 302.738 316.757C302.738 318.73 303.889 320.132 305.789 320.132ZM312.896 313.455H311.554V311.886H310.28V313.455H309.321V314.477H310.28V318.342C310.276 319.531 311.183 320.107 312.189 320.085C312.594 320.081 312.866 320.004 313.016 319.949L312.786 318.896C312.7 318.913 312.543 318.952 312.338 318.952C311.925 318.952 311.554 318.815 311.554 318.078V314.477H312.896V313.455ZM319.105 315.053C318.841 314.034 318.044 313.369 316.629 313.369C315.151 313.369 314.102 314.149 314.102 315.308C314.102 316.237 314.665 316.855 315.892 317.128L317 317.371C317.631 317.511 317.925 317.793 317.925 318.202C317.925 318.709 317.384 319.105 316.548 319.105C315.786 319.105 315.295 318.777 315.142 318.134L313.911 318.321C314.124 319.48 315.087 320.132 316.557 320.132C318.138 320.132 319.233 319.293 319.233 318.108C319.233 317.183 318.645 316.612 317.443 316.335L316.403 316.097C315.683 315.926 315.372 315.683 315.376 315.24C315.372 314.737 315.918 314.379 316.642 314.379C317.435 314.379 317.801 314.818 317.95 315.257L319.105 315.053Z" fill="#696F80"></path><rect x="16.5" y="240.5" width="327" height="103" rx="7.5" stroke="#EBECF0"></rect></g><defs><clipPath id="clip0"><rect width="360" height="332" fill="white"></rect></clipPath></defs></svg> 