<?xml version="1.0" encoding="UTF-8"?> <svg xmlns="http://www.w3.org/2000/svg" width="360" height="332" viewBox="0 0 360 332" fill="none"><g clip-path="url(#clip0)"><rect width="360" height="360" fill="white"></rect><rect x="16.5" y="16.5" width="327" height="103" rx="7.5" fill="white"></rect><rect x="32" y="32" width="32" height="32" rx="8" fill="#4272EB"></rect><path d="M47.2222 54H41.9333C41.6858 54 41.4484 53.9027 41.2734 53.7296C41.0983 53.5565 41 53.3217 41 53.0769V42.9231C41 42.6783 41.0983 42.4435 41.2734 42.2704C41.4484 42.0973 41.6858 42 41.9333 42H45.2C45.3449 42 45.4878 42.0334 45.6174 42.0975C45.747 42.1615 45.8597 42.2546 45.9467 42.3692L47.0667 43.8462H54.0667C54.3142 43.8462 54.5516 43.9434 54.7266 44.1165C54.9017 44.2896 55 44.5244 55 44.7692V45.6923" stroke="white" stroke-linecap="round" stroke-linejoin="round"></path><path d="M54.3996 49.5H50.1996C49.8682 49.5 49.5996 49.7686 49.5996 50.1V53.3997C49.5996 53.7311 49.8682 53.9997 50.1996 53.9997H54.3996C54.7309 53.9997 54.9995 53.7311 54.9995 53.3997V50.1C54.9995 49.7686 54.7309 49.5 54.3996 49.5Z" stroke="white" stroke-linecap="round" stroke-linejoin="round"></path><path d="M52.2996 51.5508C52.3392 51.5508 52.3778 51.5625 52.4107 51.5845C52.4436 51.6065 52.4692 51.6377 52.4844 51.6742C52.4995 51.7108 52.5035 51.751 52.4958 51.7898C52.488 51.8286 52.469 51.8642 52.441 51.8922C52.4131 51.9202 52.3774 51.9392 52.3386 51.9469C52.2998 51.9547 52.2596 51.9507 52.2231 51.9356C52.1865 51.9204 52.1553 51.8948 52.1333 51.8619C52.1113 51.829 52.0996 51.7903 52.0996 51.7508C52.0996 51.6977 52.1207 51.6469 52.1582 51.6094C52.1957 51.5719 52.2466 51.5508 52.2996 51.5508" stroke="white" stroke-linecap="round" stroke-linejoin="round"></path><path d="M52.3457 47C51.8816 47 51.4365 47.1756 51.1083 47.4881C50.7801 47.8007 50.5957 48.2245 50.5957 48.6665V49.4998H54.0957V48.6665C54.0957 48.2245 53.9113 47.8007 53.5831 47.4881C53.255 47.1756 52.8098 47 52.3457 47Z" stroke="white" stroke-linecap="round" stroke-linejoin="round"></path><path d="M78.2614 54L79.3295 50.9205H83.875L84.9375 54H86.8011L82.6136 42.3636H80.5852L76.3977 54H78.2614ZM79.8409 49.4432L81.5568 44.4773H81.6477L83.3636 49.4432H79.8409ZM89.868 42.3636H88.1692V54H89.868V42.3636ZM93.6764 42.3636H91.9775V54H93.6764V42.3636ZM99.445 57.4545C101.667 57.4545 103.383 56.4375 103.383 54.1932V45.2727H101.718V46.6875H101.593C101.292 46.1477 100.689 45.1591 99.0643 45.1591C96.9564 45.1591 95.4052 46.8239 95.4052 49.6023C95.4052 52.3864 96.9905 53.8693 99.053 53.8693C100.655 53.8693 101.275 52.9659 101.581 52.4091H101.689V54.125C101.689 55.4943 100.752 56.0852 99.4621 56.0852C98.0473 56.0852 97.4961 55.375 97.195 54.875L95.7348 55.4773C96.195 56.5455 97.3598 57.4545 99.445 57.4545ZM99.428 52.4602C97.9109 52.4602 97.1211 51.2955 97.1211 49.5795C97.1211 47.9034 97.8939 46.6023 99.428 46.6023C100.911 46.6023 101.706 47.8125 101.706 49.5795C101.706 51.3807 100.894 52.4602 99.428 52.4602ZM109.246 54.1761C111.15 54.1761 112.496 53.2386 112.883 51.8182L111.275 51.5284C110.968 52.3523 110.229 52.7727 109.263 52.7727C107.809 52.7727 106.832 51.8295 106.786 50.1477H112.991V49.5455C112.991 46.392 111.104 45.1591 109.127 45.1591C106.695 45.1591 105.093 47.0114 105.093 49.6932C105.093 52.4034 106.672 54.1761 109.246 54.1761ZM106.792 48.875C106.86 47.6364 107.758 46.5625 109.138 46.5625C110.457 46.5625 111.32 47.5398 111.326 48.875H106.792ZM114.7 54H116.398V48.6193C116.398 47.4432 117.222 46.625 118.188 46.625C119.131 46.625 119.785 47.25 119.785 48.1989V54H121.478V48.4375C121.478 47.3864 122.12 46.625 123.228 46.625C124.126 46.625 124.864 47.125 124.864 48.3068V54H126.563V48.1477C126.563 46.1534 125.45 45.1591 123.87 45.1591C122.614 45.1591 121.671 45.7614 121.251 46.6932H121.16C120.779 45.7386 119.978 45.1591 118.813 45.1591C117.66 45.1591 116.802 45.733 116.438 46.6932H116.33V45.2727H114.7V54ZM132.426 54.1761C134.329 54.1761 135.676 53.2386 136.062 51.8182L134.454 51.5284C134.147 52.3523 133.408 52.7727 132.443 52.7727C130.988 52.7727 130.011 51.8295 129.965 50.1477H136.17V49.5455C136.17 46.392 134.283 45.1591 132.306 45.1591C129.874 45.1591 128.272 47.0114 128.272 49.6932C128.272 52.4034 129.852 54.1761 132.426 54.1761ZM129.971 48.875C130.039 47.6364 130.937 46.5625 132.318 46.5625C133.636 46.5625 134.499 47.5398 134.505 48.875H129.971ZM137.879 54H139.578V45.2727H137.879V54ZM138.737 43.9261C139.322 43.9261 139.811 43.4716 139.811 42.9148C139.811 42.358 139.322 41.8977 138.737 41.8977C138.146 41.8977 137.663 42.358 137.663 42.9148C137.663 43.4716 138.146 43.9261 138.737 43.9261ZM143.386 48.8182C143.386 47.4261 144.238 46.6307 145.42 46.6307C146.574 46.6307 147.272 47.3864 147.272 48.6534V54H148.971V48.4489C148.971 46.2898 147.784 45.1591 146 45.1591C144.687 45.1591 143.829 45.767 143.426 46.6932H143.318V45.2727H141.687V54H143.386V48.8182Z" fill="#2D2F33"></path><path d="M33.726 97H40.1493V95.9062H35.4164V95.8267L37.7033 93.3807C39.4533 91.5064 39.9704 90.6314 39.9704 89.5028C39.9704 87.9318 38.6976 86.679 36.9079 86.679C35.1231 86.679 33.7658 87.892 33.7658 89.6818H34.9391C34.9391 88.5234 35.6898 87.7528 36.8681 87.7528C37.9718 87.7528 38.817 88.429 38.817 89.5028C38.817 90.4425 38.2651 91.1385 37.0868 92.4261L33.726 96.1051V97ZM41.6612 94.9119H46.4538V97H47.6271V94.9119H49.0192V93.8182H47.6271V86.8182H46.1357L41.6612 93.8977V94.9119ZM46.4538 93.8182H42.9936V93.7386L46.3743 88.3892H46.4538V93.8182ZM54.8308 86.8182V97H55.9842V89.2642H56.0836L59.2654 97H60.379L63.5609 89.2642H63.6603V97H64.8137V86.8182H63.3421L59.8819 95.2699H59.7626L56.3023 86.8182H54.8308ZM67.0427 97H68.216V89.3636H67.0427V97ZM67.6393 88.0909C68.0967 88.0909 68.4746 87.733 68.4746 87.2955C68.4746 86.858 68.0967 86.5 67.6393 86.5C67.1819 86.5 66.8041 86.858 66.8041 87.2955C66.8041 87.733 67.1819 88.0909 67.6393 88.0909ZM73.602 89.3636H71.9714V87.5341H70.7981V89.3636H69.6446V90.358H70.7981V95.1307C70.7981 96.4631 71.8719 97.0994 72.8662 97.0994C73.3037 97.0994 73.5821 97.0199 73.7412 96.9602L73.5026 95.9062C73.4032 95.9261 73.2441 95.9659 72.9856 95.9659C72.4685 95.9659 71.9714 95.8068 71.9714 94.8125V90.358H73.602V89.3636ZM78.2833 100.023C80.1128 100.023 81.5844 99.1875 81.5844 97.2188V89.3636H80.4509V90.5767H80.3316C80.0731 90.179 79.5958 89.2642 78.1043 89.2642C76.1753 89.2642 74.843 90.7955 74.843 93.142C74.843 95.5284 76.235 96.8807 78.0844 96.8807C79.5759 96.8807 80.0532 96.0057 80.3117 95.5881H80.4111V97.1392C80.4111 98.4119 79.5163 98.9886 78.2833 98.9886C76.8962 98.9886 76.409 98.2578 76.0958 97.8352L75.1611 98.4915C75.6384 99.2919 76.578 100.023 78.2833 100.023ZM78.2435 95.8267C76.7719 95.8267 76.0163 94.7131 76.0163 93.1222C76.0163 91.571 76.752 90.3182 78.2435 90.3182C79.6753 90.3182 80.431 91.4716 80.431 93.1222C80.431 94.8125 79.6555 95.8267 78.2435 95.8267ZM84.8215 86.8182H83.6482V97H84.8215V86.8182ZM86.8864 97H88.0597V89.3636H86.8864V97ZM87.483 88.0909C87.9404 88.0909 88.3182 87.733 88.3182 87.2955C88.3182 86.858 87.9404 86.5 87.483 86.5C87.0256 86.5 86.6478 86.858 86.6478 87.2955C86.6478 87.733 87.0256 88.0909 87.483 88.0909ZM93.3264 97.1591C94.8775 97.1591 96.0111 96.3835 96.369 95.2301L95.2355 94.9119C94.9372 95.7074 94.2461 96.1051 93.3264 96.1051C91.9493 96.1051 90.9997 95.2152 90.945 93.5795H96.4883V93.0824C96.4883 90.2386 94.798 89.2642 93.2071 89.2642C91.1389 89.2642 89.7667 90.8949 89.7667 93.2415C89.7667 95.5881 91.119 97.1591 93.3264 97.1591ZM90.945 92.5653C91.0246 91.3771 91.8648 90.3182 93.2071 90.3182C94.4798 90.3182 95.2951 91.2727 95.2951 92.5653H90.945ZM101.073 97.1591C102.544 97.1591 103.041 96.2443 103.3 95.8267H103.439V97H104.573V86.8182H103.399V90.5767H103.3C103.041 90.179 102.584 89.2642 101.093 89.2642C99.1636 89.2642 97.8312 90.7955 97.8312 93.2017C97.8312 95.6278 99.1636 97.1591 101.073 97.1591ZM101.232 96.1051C99.7602 96.1051 99.0045 94.8125 99.0045 93.1818C99.0045 91.571 99.7403 90.3182 101.232 90.3182C102.664 90.3182 103.419 91.4716 103.419 93.1818C103.419 94.9119 102.644 96.1051 101.232 96.1051ZM110.002 97.1591C111.553 97.1591 112.687 96.3835 113.045 95.2301L111.911 94.9119C111.613 95.7074 110.922 96.1051 110.002 96.1051C108.625 96.1051 107.675 95.2152 107.621 93.5795H113.164V93.0824C113.164 90.2386 111.474 89.2642 109.883 89.2642C107.815 89.2642 106.442 90.8949 106.442 93.2415C106.442 95.5881 107.795 97.1591 110.002 97.1591ZM107.621 92.5653C107.7 91.3771 108.54 90.3182 109.883 90.3182C111.156 90.3182 111.971 91.2727 111.971 92.5653H107.621ZM114.865 97H116.038V92.1676C116.038 91.1335 116.854 90.3778 117.967 90.3778C118.28 90.3778 118.604 90.4375 118.683 90.4574V89.2642C118.549 89.2543 118.241 89.2443 118.067 89.2443C117.152 89.2443 116.356 89.7614 116.078 90.517H115.998V89.3636H114.865V97Z" fill="#696F80"></path><rect x="230" y="80" width="98" height="24" rx="12" fill="#F7F8FA"></rect><path d="M242.151 87.2727H240.868L238.69 88.696V89.9574L240.778 88.5938H240.83V96H242.151V87.2727ZM247.55 96.1449C249.565 96.1449 250.746 94.5 250.746 91.6406C250.746 88.8026 249.548 87.1534 247.55 87.1534C245.547 87.1534 244.354 88.7983 244.349 91.6406C244.349 94.4957 245.53 96.1406 247.55 96.1449ZM247.55 95.0071C246.369 95.0071 245.658 93.8224 245.658 91.6406C245.662 89.4673 246.374 88.2699 247.55 88.2699C248.722 88.2699 249.438 89.4673 249.438 91.6406C249.438 93.8224 248.726 95.0071 247.55 95.0071ZM255.206 96.1193C257.022 96.1193 258.304 95.0881 258.313 93.6733C258.304 92.5739 257.533 91.6491 256.557 91.4744V91.4233C257.405 91.2188 257.98 90.4219 257.989 89.4801C257.98 88.1463 256.804 87.1534 255.206 87.1534C253.591 87.1534 252.415 88.1463 252.424 89.4801C252.415 90.4176 252.99 91.2188 253.855 91.4233V91.4744C252.863 91.6491 252.091 92.5739 252.1 93.6733C252.091 95.0881 253.374 96.1193 255.206 96.1193ZM255.206 95.0412C254.115 95.0412 253.425 94.4616 253.434 93.5881C253.425 92.6804 254.175 92.0327 255.206 92.0327C256.221 92.0327 256.971 92.6804 256.979 93.5881C256.971 94.4616 256.284 95.0412 255.206 95.0412ZM255.206 90.9801C254.324 90.9801 253.698 90.4219 253.706 89.5909C253.698 88.7727 254.303 88.2315 255.206 88.2315C256.093 88.2315 256.698 88.7727 256.706 89.5909C256.698 90.4219 256.076 90.9801 255.206 90.9801ZM260.134 96H261.51L265.307 88.4403V87.2727H259.537V88.402H263.943V88.4659L260.134 96ZM270.847 87.2727H269.423L272.564 96H274.085L277.226 87.2727H275.803L273.374 94.3807H273.276L270.847 87.2727ZM280.549 96.1321C281.976 96.1321 282.986 95.429 283.276 94.3636L282.07 94.1463C281.84 94.7642 281.286 95.0795 280.561 95.0795C279.471 95.0795 278.738 94.3722 278.703 93.1108H283.357V92.6591C283.357 90.294 281.942 89.3693 280.459 89.3693C278.635 89.3693 277.434 90.7585 277.434 92.7699C277.434 94.8026 278.618 96.1321 280.549 96.1321ZM278.708 92.1562C278.759 91.2273 279.432 90.4219 280.468 90.4219C281.456 90.4219 282.104 91.1548 282.108 92.1562H278.708ZM284.771 96H286.045V92.0028C286.045 91.1463 286.705 90.5284 287.609 90.5284C287.873 90.5284 288.171 90.5753 288.273 90.6051V89.3864C288.146 89.3693 287.894 89.3565 287.732 89.3565C286.965 89.3565 286.309 89.7912 286.07 90.4943H286.002V89.4545H284.771V96ZM292.818 89.4545H291.476V87.8864H290.202V89.4545H289.243V90.4773H290.202V94.3423C290.197 95.5312 291.105 96.1065 292.111 96.0852C292.516 96.081 292.788 96.0043 292.938 95.9489L292.707 94.8963C292.622 94.9134 292.464 94.9517 292.26 94.9517C291.847 94.9517 291.476 94.8153 291.476 94.0781V90.4773H292.818V89.4545ZM294.228 96H295.502V92.0028C295.502 91.1463 296.162 90.5284 297.066 90.5284C297.33 90.5284 297.628 90.5753 297.73 90.6051V89.3864C297.603 89.3693 297.351 89.3565 297.189 89.3565C296.422 89.3565 295.766 89.7912 295.527 90.4943H295.459V89.4545H294.228V96ZM300.679 96.1449C301.762 96.1449 302.371 95.5952 302.614 95.1051H302.665V96H303.909V91.6534C303.909 89.7486 302.409 89.3693 301.37 89.3693C300.185 89.3693 299.094 89.8466 298.668 91.0398L299.865 91.3125C300.053 90.848 300.53 90.4006 301.387 90.4006C302.209 90.4006 302.631 90.831 302.631 91.5724V91.6023C302.631 92.0668 302.154 92.0582 300.978 92.1946C299.738 92.3395 298.468 92.6634 298.468 94.1506C298.468 95.4375 299.435 96.1449 300.679 96.1449ZM300.956 95.1222C300.236 95.1222 299.716 94.7983 299.716 94.1676C299.716 93.4858 300.321 93.2429 301.059 93.1449C301.472 93.0895 302.452 92.9787 302.635 92.7955V93.6392C302.635 94.4148 302.017 95.1222 300.956 95.1222ZM300.185 88.4276C300.611 88.4276 300.935 88.0824 300.935 87.6861C300.935 87.2642 300.611 86.9403 300.185 86.9403C299.784 86.9403 299.431 87.2642 299.431 87.6861C299.431 88.0824 299.784 88.4276 300.185 88.4276ZM302.691 88.4276C303.117 88.4276 303.441 88.0824 303.441 87.6861C303.441 87.2642 303.117 86.9403 302.691 86.9403C302.29 86.9403 301.936 87.2642 301.936 87.6861C301.936 88.0824 302.29 88.4276 302.691 88.4276ZM308.351 98.5909C310.017 98.5909 311.304 97.8281 311.304 96.1449V89.4545H310.055V90.5156H309.962C309.736 90.1108 309.284 89.3693 308.065 89.3693C306.484 89.3693 305.321 90.6179 305.321 92.7017C305.321 94.7898 306.51 95.902 308.057 95.902C309.259 95.902 309.723 95.2244 309.953 94.8068H310.034V96.0938C310.034 97.1207 309.331 97.5639 308.364 97.5639C307.303 97.5639 306.889 97.0312 306.663 96.6562L305.568 97.108C305.913 97.9091 306.787 98.5909 308.351 98.5909ZM308.338 94.8452C307.2 94.8452 306.608 93.9716 306.608 92.6847C306.608 91.4276 307.188 90.4517 308.338 90.4517C309.45 90.4517 310.047 91.3594 310.047 92.6847C310.047 94.0355 309.438 94.8452 308.338 94.8452ZM315.834 96.1321C317.261 96.1321 318.271 95.429 318.561 94.3636L317.355 94.1463C317.125 94.7642 316.571 95.0795 315.847 95.0795C314.756 95.0795 314.023 94.3722 313.989 93.1108H318.642V92.6591C318.642 90.294 317.227 89.3693 315.744 89.3693C313.92 89.3693 312.719 90.7585 312.719 92.7699C312.719 94.8026 313.903 96.1321 315.834 96.1321ZM313.993 92.1562C314.044 91.2273 314.717 90.4219 315.753 90.4219C316.741 90.4219 317.389 91.1548 317.393 92.1562H313.993Z" fill="#696F80"></path><rect x="16.5" y="16.5" width="327" height="103" rx="7.5" stroke="#EBECF0"></rect><rect x="16.5" y="128.5" width="327" height="103" rx="7.5" fill="white"></rect><rect x="32" y="144" width="32" height="32" rx="8" fill="#3493A3"></rect><path d="M55 156.769C55 156.524 54.9017 156.29 54.7267 156.117C54.5516 155.943 54.3142 155.846 54.0667 155.846H47.0667L45.9467 154.369C45.8597 154.255 45.747 154.162 45.6174 154.097C45.4878 154.033 45.3449 154 45.2 154H41.9333C41.6858 154 41.4484 154.097 41.2734 154.27C41.0983 154.443 41 154.678 41 154.923V165.077C41 165.322 41.0983 165.557 41.2734 165.73C41.4484 165.903 41.6858 166 41.9333 166H54.0667C54.3142 166 54.5516 165.903 54.7267 165.73C54.9017 165.557 55 165.322 55 165.077V156.769Z" stroke="white" stroke-linecap="round" stroke-linejoin="round"></path><path d="M78.2955 154.364H76.3977L80.5852 166H82.6136L86.8011 154.364H84.9034L81.6648 163.841H81.5341L78.2955 154.364ZM91.0555 166.176C92.9589 166.176 94.3055 165.239 94.6919 163.818L93.0839 163.528C92.7771 164.352 92.0385 164.773 91.0726 164.773C89.618 164.773 88.6408 163.83 88.5953 162.148H94.7999V161.545C94.7999 158.392 92.9135 157.159 90.9362 157.159C88.5044 157.159 86.9021 159.011 86.9021 161.693C86.9021 164.403 88.4817 166.176 91.0555 166.176ZM88.601 160.875C88.6692 159.636 89.5669 158.562 90.9476 158.562C92.2658 158.562 93.1294 159.54 93.1351 160.875H88.601ZM96.5088 166H98.2077V160.67C98.2077 159.528 99.0883 158.705 100.293 158.705C100.645 158.705 101.043 158.767 101.179 158.807V157.182C101.009 157.159 100.674 157.142 100.458 157.142C99.4349 157.142 98.5599 157.722 98.2418 158.659H98.1508V157.273H96.5088V166ZM107.063 157.273H105.273V155.182H103.574V157.273H102.296V158.636H103.574V163.79C103.569 165.375 104.779 166.142 106.12 166.114C106.66 166.108 107.023 166.006 107.222 165.932L106.915 164.528C106.802 164.551 106.591 164.602 106.319 164.602C105.767 164.602 105.273 164.42 105.273 163.438V158.636H107.063V157.273ZM108.766 166H110.465V160.67C110.465 159.528 111.346 158.705 112.55 158.705C112.903 158.705 113.3 158.767 113.437 158.807V157.182C113.266 157.159 112.931 157.142 112.715 157.142C111.692 157.142 110.817 157.722 110.499 158.659H110.408V157.273H108.766V166ZM114.731 166H116.43V157.273H114.731V166ZM115.589 155.926C116.174 155.926 116.663 155.472 116.663 154.915C116.663 154.358 116.174 153.898 115.589 153.898C114.998 153.898 114.515 154.358 114.515 154.915C114.515 155.472 114.998 155.926 115.589 155.926ZM122.301 166.176C124.204 166.176 125.551 165.239 125.937 163.818L124.329 163.528C124.022 164.352 123.283 164.773 122.318 164.773C120.863 164.773 119.886 163.83 119.84 162.148H126.045V161.545C126.045 158.392 124.158 157.159 122.181 157.159C119.749 157.159 118.147 159.011 118.147 161.693C118.147 164.403 119.727 166.176 122.301 166.176ZM119.846 160.875C119.914 159.636 120.812 158.562 122.193 158.562C123.511 158.562 124.374 159.54 124.38 160.875H119.846ZM127.89 166H129.549V164.642H129.691C129.998 165.199 130.623 166.17 132.214 166.17C134.328 166.17 135.862 164.477 135.862 161.653C135.862 158.824 134.305 157.159 132.197 157.159C130.578 157.159 129.992 158.148 129.691 158.688H129.589V154.364H127.89V166ZM129.555 161.636C129.555 159.812 130.35 158.602 131.833 158.602C133.373 158.602 134.146 159.903 134.146 161.636C134.146 163.386 133.35 164.722 131.833 164.722C130.373 164.722 129.555 163.472 129.555 161.636Z" fill="#2D2F33"></path><path d="M36.5167 209.139C38.5501 209.139 39.967 207.951 39.9769 206.295C39.967 205.008 39.1069 203.914 38.0082 203.71V203.651C38.9627 203.402 39.5891 202.467 39.5991 201.384C39.5891 199.832 38.2866 198.679 36.5167 198.679C34.7269 198.679 33.4244 199.832 33.4343 201.384C33.4244 202.467 34.0508 203.402 35.0252 203.651V203.71C33.9066 203.914 33.0465 205.008 33.0565 206.295C33.0465 207.951 34.4634 209.139 36.5167 209.139ZM36.5167 208.045C35.1197 208.045 34.2596 207.33 34.2695 206.236C34.2596 205.087 35.2092 204.267 36.5167 204.267C37.8043 204.267 38.7539 205.087 38.7638 206.236C38.7539 207.33 37.8938 208.045 36.5167 208.045ZM36.5167 203.213C35.4031 203.213 34.6175 202.517 34.6275 201.463C34.6175 200.429 35.3732 199.753 36.5167 199.753C37.6403 199.753 38.3959 200.429 38.4059 201.463C38.3959 202.517 37.6104 203.213 36.5167 203.213ZM45.8308 198.818V209H46.9842V201.264H47.0836L50.2654 209H51.3791L54.5609 201.264H54.6603V209H55.8137V198.818H54.3421L50.8819 207.27H50.7626L47.3023 198.818H45.8308ZM58.0427 209H59.216V201.364H58.0427V209ZM58.6393 200.091C59.0967 200.091 59.4746 199.733 59.4746 199.295C59.4746 198.858 59.0967 198.5 58.6393 198.5C58.1819 198.5 57.8041 198.858 57.8041 199.295C57.8041 199.733 58.1819 200.091 58.6393 200.091ZM64.602 201.364H62.9713V199.534H61.7981V201.364H60.6446V202.358H61.7981V207.131C61.7981 208.463 62.8719 209.099 63.8662 209.099C64.3037 209.099 64.5821 209.02 64.7412 208.96L64.5026 207.906C64.4032 207.926 64.2441 207.966 63.9856 207.966C63.4685 207.966 62.9713 207.807 62.9713 206.812V202.358H64.602V201.364ZM69.2833 212.023C71.1128 212.023 72.5844 211.188 72.5844 209.219V201.364H71.4509V202.577H71.3316C71.0731 202.179 70.5958 201.264 69.1043 201.264C67.1753 201.264 65.843 202.795 65.843 205.142C65.843 207.528 67.235 208.881 69.0844 208.881C70.5759 208.881 71.0532 208.006 71.3117 207.588H71.4111V209.139C71.4111 210.412 70.5163 210.989 69.2833 210.989C67.8962 210.989 67.409 210.258 67.0958 209.835L66.1611 210.491C66.6384 211.292 67.578 212.023 69.2833 212.023ZM69.2435 207.827C67.7719 207.827 67.0163 206.713 67.0163 205.122C67.0163 203.571 67.7521 202.318 69.2435 202.318C70.6753 202.318 71.431 203.472 71.431 205.122C71.431 206.812 70.6555 207.827 69.2435 207.827ZM75.8215 198.818H74.6482V209H75.8215V198.818ZM77.8864 209H79.0597V201.364H77.8864V209ZM78.483 200.091C78.9404 200.091 79.3182 199.733 79.3182 199.295C79.3182 198.858 78.9404 198.5 78.483 198.5C78.0256 198.5 77.6478 198.858 77.6478 199.295C77.6478 199.733 78.0256 200.091 78.483 200.091ZM84.3264 209.159C85.8775 209.159 87.0111 208.384 87.369 207.23L86.2355 206.912C85.9372 207.707 85.2461 208.105 84.3264 208.105C82.9493 208.105 81.9997 207.215 81.945 205.58H87.4883V205.082C87.4883 202.239 85.798 201.264 84.2071 201.264C82.1389 201.264 80.7667 202.895 80.7667 205.241C80.7667 207.588 82.119 209.159 84.3264 209.159ZM81.945 204.565C82.0246 203.377 82.8648 202.318 84.2071 202.318C85.4798 202.318 86.2951 203.273 86.2951 204.565H81.945ZM92.0727 209.159C93.5442 209.159 94.0414 208.244 94.2999 207.827H94.4391V209H95.5727V198.818H94.3994V202.577H94.2999C94.0414 202.179 93.584 201.264 92.0925 201.264C90.1636 201.264 88.8312 202.795 88.8312 205.202C88.8312 207.628 90.1636 209.159 92.0727 209.159ZM92.2317 208.105C90.7602 208.105 90.0045 206.812 90.0045 205.182C90.0045 203.571 90.7403 202.318 92.2317 202.318C93.6636 202.318 94.4192 203.472 94.4192 205.182C94.4192 206.912 93.6437 208.105 92.2317 208.105ZM101.002 209.159C102.553 209.159 103.687 208.384 104.045 207.23L102.911 206.912C102.613 207.707 101.922 208.105 101.002 208.105C99.625 208.105 98.6754 207.215 98.6208 205.58H104.164V205.082C104.164 202.239 102.474 201.264 100.883 201.264C98.8147 201.264 97.4425 202.895 97.4425 205.241C97.4425 207.588 98.7948 209.159 101.002 209.159ZM98.6208 204.565C98.7003 203.377 99.5405 202.318 100.883 202.318C102.156 202.318 102.971 203.273 102.971 204.565H98.6208ZM105.865 209H107.038V204.168C107.038 203.134 107.854 202.378 108.967 202.378C109.28 202.378 109.604 202.438 109.683 202.457V201.264C109.549 201.254 109.241 201.244 109.067 201.244C108.152 201.244 107.356 201.761 107.078 202.517H106.998V201.364H105.865V209Z" fill="#696F80"></path><rect x="238" y="192" width="90" height="24" rx="12" fill="#F7F8FA"></rect><path d="M247.134 208H248.51L252.307 200.44V199.273H246.537V200.402H250.943V200.466L247.134 208ZM257.1 199.273H255.817L253.64 200.696V201.957L255.728 200.594H255.779V208H257.1V199.273ZM259.461 208H265.205V206.871H261.276V206.807L263.01 204.991C264.608 203.376 265.064 202.605 265.064 201.629C265.064 200.227 263.922 199.153 262.277 199.153C260.645 199.153 259.452 200.21 259.452 201.804H260.709C260.705 200.866 261.31 200.253 262.252 200.253C263.138 200.253 263.811 200.798 263.811 201.668C263.811 202.439 263.351 202.993 262.414 203.986L259.461 207.045V208ZM270.878 199.273H269.455L272.595 208H274.116L277.257 199.273H275.834L273.405 206.381H273.307L270.878 199.273ZM280.58 208.132C282.007 208.132 283.017 207.429 283.307 206.364L282.101 206.146C281.871 206.764 281.317 207.08 280.593 207.08C279.502 207.08 278.769 206.372 278.735 205.111H283.388V204.659C283.388 202.294 281.973 201.369 280.49 201.369C278.667 201.369 277.465 202.759 277.465 204.77C277.465 206.803 278.65 208.132 280.58 208.132ZM278.739 204.156C278.79 203.227 279.463 202.422 280.499 202.422C281.488 202.422 282.135 203.155 282.14 204.156H278.739ZM284.802 208H286.076V204.003C286.076 203.146 286.737 202.528 287.64 202.528C287.904 202.528 288.202 202.575 288.305 202.605V201.386C288.177 201.369 287.925 201.357 287.763 201.357C286.996 201.357 286.34 201.791 286.102 202.494H286.033V201.455H284.802V208ZM292.849 201.455H291.507V199.886H290.233V201.455H289.274V202.477H290.233V206.342C290.229 207.531 291.136 208.107 292.142 208.085C292.547 208.081 292.82 208.004 292.969 207.949L292.739 206.896C292.653 206.913 292.496 206.952 292.291 206.952C291.878 206.952 291.507 206.815 291.507 206.078V202.477H292.849V201.455ZM294.259 208H295.533V204.003C295.533 203.146 296.194 202.528 297.097 202.528C297.361 202.528 297.659 202.575 297.762 202.605V201.386C297.634 201.369 297.382 201.357 297.221 201.357C296.453 201.357 295.797 201.791 295.559 202.494H295.49V201.455H294.259V208ZM300.711 208.145C301.793 208.145 302.402 207.595 302.645 207.105H302.696V208H303.941V203.653C303.941 201.749 302.441 201.369 301.401 201.369C300.216 201.369 299.125 201.847 298.699 203.04L299.897 203.312C300.084 202.848 300.561 202.401 301.418 202.401C302.24 202.401 302.662 202.831 302.662 203.572V203.602C302.662 204.067 302.185 204.058 301.009 204.195C299.769 204.339 298.499 204.663 298.499 206.151C298.499 207.438 299.466 208.145 300.711 208.145ZM300.988 207.122C300.267 207.122 299.748 206.798 299.748 206.168C299.748 205.486 300.353 205.243 301.09 205.145C301.503 205.089 302.483 204.979 302.667 204.795V205.639C302.667 206.415 302.049 207.122 300.988 207.122ZM300.216 200.428C300.642 200.428 300.966 200.082 300.966 199.686C300.966 199.264 300.642 198.94 300.216 198.94C299.816 198.94 299.462 199.264 299.462 199.686C299.462 200.082 299.816 200.428 300.216 200.428ZM302.722 200.428C303.148 200.428 303.472 200.082 303.472 199.686C303.472 199.264 303.148 198.94 302.722 198.94C302.321 198.94 301.968 199.264 301.968 199.686C301.968 200.082 302.321 200.428 302.722 200.428ZM308.382 210.591C310.048 210.591 311.335 209.828 311.335 208.145V201.455H310.087V202.516H309.993C309.767 202.111 309.315 201.369 308.097 201.369C306.516 201.369 305.352 202.618 305.352 204.702C305.352 206.79 306.541 207.902 308.088 207.902C309.29 207.902 309.754 207.224 309.984 206.807H310.065V208.094C310.065 209.121 309.362 209.564 308.395 209.564C307.334 209.564 306.92 209.031 306.695 208.656L305.599 209.108C305.945 209.909 306.818 210.591 308.382 210.591ZM308.369 206.845C307.232 206.845 306.639 205.972 306.639 204.685C306.639 203.428 307.219 202.452 308.369 202.452C309.482 202.452 310.078 203.359 310.078 204.685C310.078 206.036 309.469 206.845 308.369 206.845ZM315.865 208.132C317.293 208.132 318.303 207.429 318.592 206.364L317.386 206.146C317.156 206.764 316.602 207.08 315.878 207.08C314.787 207.08 314.054 206.372 314.02 205.111H318.673V204.659C318.673 202.294 317.259 201.369 315.776 201.369C313.952 201.369 312.75 202.759 312.75 204.77C312.75 206.803 313.935 208.132 315.865 208.132ZM314.024 204.156C314.075 203.227 314.749 202.422 315.784 202.422C316.773 202.422 317.42 203.155 317.425 204.156H314.024Z" fill="#696F80"></path><rect x="16.5" y="128.5" width="327" height="103" rx="7.5" stroke="#EBECF0"></rect><rect x="16.5" y="240.5" width="327" height="103" rx="7.5" fill="white"></rect><rect x="32" y="256" width="32" height="32" rx="8" fill="#DB4F70"></rect><path d="M55 268.769C55 268.524 54.9017 268.29 54.7267 268.117C54.5516 267.943 54.3142 267.846 54.0667 267.846H47.0667L45.9467 266.369C45.8597 266.255 45.747 266.162 45.6174 266.097C45.4878 266.033 45.3449 266 45.2 266H41.9333C41.6858 266 41.4484 266.097 41.2734 266.27C41.0983 266.443 41 266.678 41 266.923V277.077C41 277.322 41.0983 277.557 41.2734 277.73C41.4484 277.903 41.6858 278 41.9333 278H54.0667C54.3142 278 54.5516 277.903 54.7267 277.73C54.9017 277.557 55 277.322 55 277.077V268.769Z" stroke="white" stroke-linecap="round" stroke-linejoin="round"></path><path d="M77.2784 278H79.0341V272.926H84.8352V278H86.5966V266.364H84.8352V271.42H79.0341V266.364H77.2784V278ZM88.9774 278H90.7331V273.597H93.1195C93.1592 273.597 93.1933 273.597 93.2331 273.597L95.5967 278H97.5967L95.0172 273.29C96.4433 272.761 97.1535 271.574 97.1535 270.011C97.1535 267.869 95.824 266.364 93.1251 266.364H88.9774V278ZM90.7331 272.085V267.869H92.9376C94.6706 267.869 95.3865 268.693 95.3865 270.011C95.3865 271.324 94.6706 272.085 92.9604 272.085H90.7331Z" fill="#2D2F33"></path><path d="M36.5465 321.139C38.4854 321.139 39.9073 319.707 39.9073 317.759C39.9073 315.785 38.5352 314.338 36.6658 314.338C35.9798 314.338 35.3136 314.582 34.8959 314.915H34.8363L35.1942 311.912H39.4499V310.818H34.1602L33.5437 315.83L34.6971 315.969C35.1197 315.665 35.8406 315.447 36.467 315.452C37.7646 315.462 38.7141 316.446 38.7141 317.778C38.7141 319.086 37.7994 320.045 36.5465 320.045C35.5025 320.045 34.6722 319.374 34.5778 318.455H33.3846C33.4592 320.006 34.7965 321.139 36.5465 321.139ZM45.8308 310.818V321H46.9842V313.264H47.0836L50.2654 321H51.3791L54.5609 313.264H54.6603V321H55.8137V310.818H54.3421L50.8819 319.27H50.7626L47.3023 310.818H45.8308ZM58.0427 321H59.216V313.364H58.0427V321ZM58.6393 312.091C59.0967 312.091 59.4746 311.733 59.4746 311.295C59.4746 310.858 59.0967 310.5 58.6393 310.5C58.1819 310.5 57.8041 310.858 57.8041 311.295C57.8041 311.733 58.1819 312.091 58.6393 312.091ZM64.602 313.364H62.9713V311.534H61.7981V313.364H60.6446V314.358H61.7981V319.131C61.7981 320.463 62.8719 321.099 63.8662 321.099C64.3037 321.099 64.5821 321.02 64.7412 320.96L64.5026 319.906C64.4032 319.926 64.2441 319.966 63.9856 319.966C63.4685 319.966 62.9713 319.807 62.9713 318.812V314.358H64.602V313.364ZM69.2833 324.023C71.1128 324.023 72.5844 323.188 72.5844 321.219V313.364H71.4509V314.577H71.3316C71.0731 314.179 70.5958 313.264 69.1043 313.264C67.1753 313.264 65.843 314.795 65.843 317.142C65.843 319.528 67.235 320.881 69.0844 320.881C70.5759 320.881 71.0532 320.006 71.3117 319.588H71.4111V321.139C71.4111 322.412 70.5163 322.989 69.2833 322.989C67.8962 322.989 67.409 322.258 67.0958 321.835L66.1611 322.491C66.6384 323.292 67.578 324.023 69.2833 324.023ZM69.2435 319.827C67.7719 319.827 67.0163 318.713 67.0163 317.122C67.0163 315.571 67.7521 314.318 69.2435 314.318C70.6753 314.318 71.431 315.472 71.431 317.122C71.431 318.812 70.6555 319.827 69.2435 319.827ZM75.8215 310.818H74.6482V321H75.8215V310.818ZM77.8864 321H79.0597V313.364H77.8864V321ZM78.483 312.091C78.9404 312.091 79.3182 311.733 79.3182 311.295C79.3182 310.858 78.9404 310.5 78.483 310.5C78.0256 310.5 77.6478 310.858 77.6478 311.295C77.6478 311.733 78.0256 312.091 78.483 312.091ZM84.3264 321.159C85.8775 321.159 87.0111 320.384 87.369 319.23L86.2355 318.912C85.9372 319.707 85.2461 320.105 84.3264 320.105C82.9493 320.105 81.9997 319.215 81.945 317.58H87.4883V317.082C87.4883 314.239 85.798 313.264 84.2071 313.264C82.1389 313.264 80.7667 314.895 80.7667 317.241C80.7667 319.588 82.119 321.159 84.3264 321.159ZM81.945 316.565C82.0246 315.377 82.8648 314.318 84.2071 314.318C85.4798 314.318 86.2951 315.273 86.2951 316.565H81.945ZM92.0727 321.159C93.5442 321.159 94.0414 320.244 94.2999 319.827H94.4391V321H95.5727V310.818H94.3994V314.577H94.2999C94.0414 314.179 93.584 313.264 92.0925 313.264C90.1636 313.264 88.8312 314.795 88.8312 317.202C88.8312 319.628 90.1636 321.159 92.0727 321.159ZM92.2317 320.105C90.7602 320.105 90.0045 318.812 90.0045 317.182C90.0045 315.571 90.7403 314.318 92.2317 314.318C93.6636 314.318 94.4192 315.472 94.4192 317.182C94.4192 318.912 93.6437 320.105 92.2317 320.105ZM101.002 321.159C102.553 321.159 103.687 320.384 104.045 319.23L102.911 318.912C102.613 319.707 101.922 320.105 101.002 320.105C99.625 320.105 98.6754 319.215 98.6208 317.58H104.164V317.082C104.164 314.239 102.474 313.264 100.883 313.264C98.8147 313.264 97.4425 314.895 97.4425 317.241C97.4425 319.588 98.7948 321.159 101.002 321.159ZM98.6208 316.565C98.7003 315.377 99.5405 314.318 100.883 314.318C102.156 314.318 102.971 315.273 102.971 316.565H98.6208ZM105.865 321H107.038V316.168C107.038 315.134 107.854 314.378 108.967 314.378C109.28 314.378 109.604 314.438 109.683 314.457V313.264C109.549 313.254 109.241 313.244 109.067 313.244C108.152 313.244 107.356 313.761 107.078 314.517H106.998V313.364H105.865V321Z" fill="#696F80"></path><rect x="235" y="304" width="93" height="24" rx="12" fill="#F7F8FA"></rect><path d="M246.878 320.119C248.659 320.119 249.967 319.054 249.963 317.605C249.967 316.501 249.298 315.709 248.139 315.53V315.462C249.051 315.227 249.643 314.511 249.639 313.531C249.643 312.249 248.591 311.153 246.912 311.153C245.31 311.153 244.023 312.121 243.98 313.54H245.254C245.284 312.739 246.038 312.253 246.895 312.253C247.786 312.253 248.369 312.794 248.365 313.599C248.369 314.443 247.692 314.997 246.724 314.997H245.987V316.071H246.724C247.935 316.071 248.634 316.685 248.634 317.562C248.634 318.411 247.896 318.986 246.869 318.986C245.923 318.986 245.186 318.5 245.135 317.724H243.797C243.852 319.148 245.114 320.119 246.878 320.119ZM254.523 320.119C256.338 320.119 257.621 319.088 257.629 317.673C257.621 316.574 256.849 315.649 255.874 315.474V315.423C256.722 315.219 257.297 314.422 257.305 313.48C257.297 312.146 256.121 311.153 254.523 311.153C252.908 311.153 251.732 312.146 251.74 313.48C251.732 314.418 252.307 315.219 253.172 315.423V315.474C252.179 315.649 251.408 316.574 251.416 317.673C251.408 319.088 252.69 320.119 254.523 320.119ZM254.523 319.041C253.432 319.041 252.741 318.462 252.75 317.588C252.741 316.68 253.491 316.033 254.523 316.033C255.537 316.033 256.287 316.68 256.295 317.588C256.287 318.462 255.601 319.041 254.523 319.041ZM254.523 314.98C253.641 314.98 253.014 314.422 253.023 313.591C253.014 312.773 253.619 312.232 254.523 312.232C255.409 312.232 256.014 312.773 256.023 313.591C256.014 314.422 255.392 314.98 254.523 314.98ZM262.058 311.153C260.225 311.136 259.028 312.453 259.028 314.107C259.032 315.773 260.238 316.974 261.751 316.974C262.676 316.974 263.468 316.523 263.916 315.79H263.984C263.98 317.797 263.225 318.969 261.947 318.969C261.112 318.969 260.575 318.457 260.404 317.712H259.105C259.297 319.122 260.387 320.119 261.947 320.119C263.975 320.119 265.245 318.376 265.245 315.321C265.241 312.134 263.613 311.166 262.058 311.153ZM262.062 312.261C263.072 312.261 263.818 313.118 263.818 314.077C263.822 315.048 263.034 315.901 262.037 315.901C261.035 315.901 260.311 315.099 260.306 314.089C260.306 313.075 261.061 312.261 262.062 312.261ZM270.843 311.273H269.419L272.56 320H274.081L277.222 311.273H275.799L273.37 318.381H273.272L270.843 311.273ZM280.545 320.132C281.972 320.132 282.982 319.429 283.272 318.364L282.066 318.146C281.836 318.764 281.282 319.08 280.558 319.08C279.467 319.08 278.734 318.372 278.7 317.111H283.353V316.659C283.353 314.294 281.938 313.369 280.455 313.369C278.631 313.369 277.43 314.759 277.43 316.77C277.43 318.803 278.614 320.132 280.545 320.132ZM278.704 316.156C278.755 315.227 279.428 314.422 280.464 314.422C281.452 314.422 282.1 315.155 282.104 316.156H278.704ZM284.767 320H286.041V316.003C286.041 315.146 286.701 314.528 287.605 314.528C287.869 314.528 288.167 314.575 288.27 314.605V313.386C288.142 313.369 287.89 313.357 287.728 313.357C286.961 313.357 286.305 313.791 286.066 314.494H285.998V313.455H284.767V320ZM292.814 313.455H291.472V311.886H290.198V313.455H289.239V314.477H290.198V318.342C290.194 319.531 291.101 320.107 292.107 320.085C292.512 320.081 292.784 320.004 292.934 319.949L292.703 318.896C292.618 318.913 292.461 318.952 292.256 318.952C291.843 318.952 291.472 318.815 291.472 318.078V314.477H292.814V313.455ZM294.224 320H295.498V316.003C295.498 315.146 296.158 314.528 297.062 314.528C297.326 314.528 297.624 314.575 297.727 314.605V313.386C297.599 313.369 297.347 313.357 297.185 313.357C296.418 313.357 295.762 313.791 295.523 314.494H295.455V313.455H294.224V320ZM300.675 320.145C301.758 320.145 302.367 319.595 302.61 319.105H302.661V320H303.906V315.653C303.906 313.749 302.406 313.369 301.366 313.369C300.181 313.369 299.09 313.847 298.664 315.04L299.862 315.312C300.049 314.848 300.526 314.401 301.383 314.401C302.205 314.401 302.627 314.831 302.627 315.572V315.602C302.627 316.067 302.15 316.058 300.974 316.195C299.734 316.339 298.464 316.663 298.464 318.151C298.464 319.438 299.431 320.145 300.675 320.145ZM300.952 319.122C300.232 319.122 299.712 318.798 299.712 318.168C299.712 317.486 300.317 317.243 301.055 317.145C301.468 317.089 302.448 316.979 302.631 316.795V317.639C302.631 318.415 302.013 319.122 300.952 319.122ZM300.181 312.428C300.607 312.428 300.931 312.082 300.931 311.686C300.931 311.264 300.607 310.94 300.181 310.94C299.781 310.94 299.427 311.264 299.427 311.686C299.427 312.082 299.781 312.428 300.181 312.428ZM302.687 312.428C303.113 312.428 303.437 312.082 303.437 311.686C303.437 311.264 303.113 310.94 302.687 310.94C302.286 310.94 301.933 311.264 301.933 311.686C301.933 312.082 302.286 312.428 302.687 312.428ZM308.347 322.591C310.013 322.591 311.3 321.828 311.3 320.145V313.455H310.051V314.516H309.958C309.732 314.111 309.28 313.369 308.061 313.369C306.48 313.369 305.317 314.618 305.317 316.702C305.317 318.79 306.506 319.902 308.053 319.902C309.255 319.902 309.719 319.224 309.949 318.807H310.03V320.094C310.03 321.121 309.327 321.564 308.36 321.564C307.299 321.564 306.885 321.031 306.659 320.656L305.564 321.108C305.909 321.909 306.783 322.591 308.347 322.591ZM308.334 318.845C307.196 318.845 306.604 317.972 306.604 316.685C306.604 315.428 307.184 314.452 308.334 314.452C309.446 314.452 310.043 315.359 310.043 316.685C310.043 318.036 309.434 318.845 308.334 318.845ZM315.83 320.132C317.257 320.132 318.267 319.429 318.557 318.364L317.351 318.146C317.121 318.764 316.567 319.08 315.843 319.08C314.752 319.08 314.019 318.372 313.985 317.111H318.638V316.659C318.638 314.294 317.223 313.369 315.74 313.369C313.917 313.369 312.715 314.759 312.715 316.77C312.715 318.803 313.9 320.132 315.83 320.132ZM313.989 316.156C314.04 315.227 314.713 314.422 315.749 314.422C316.738 314.422 317.385 315.155 317.39 316.156H313.989Z" fill="#696F80"></path><rect x="16.5" y="240.5" width="327" height="103" rx="7.5" stroke="#EBECF0"></rect></g><defs><clipPath id="clip0"><rect width="360" height="332" fill="white"></rect></clipPath></defs></svg> 