<?xml version="1.0" encoding="UTF-8"?> <svg xmlns="http://www.w3.org/2000/svg" width="456" height="360" viewBox="0 0 456 360" fill="none"><rect width="456" height="468" fill="white"></rect><path d="M24.8807 34.3438H29.4119V47H31.5994V34.3438H36.1378V32.4545H24.8807V34.3438ZM41.2346 47.2202C43.6138 47.2202 45.2971 46.0483 45.78 44.2727L43.7701 43.9105C43.3866 44.9403 42.4633 45.4659 41.2559 45.4659C39.4377 45.4659 38.2161 44.2869 38.1593 42.1847H45.915V41.4318C45.915 37.4901 43.557 35.9489 41.0854 35.9489C38.0457 35.9489 36.0428 38.2642 36.0428 41.6165C36.0428 45.0043 38.0172 47.2202 41.2346 47.2202ZM38.1664 40.5938C38.2516 39.0455 39.3738 37.7031 41.0996 37.7031C42.7474 37.7031 43.8269 38.9247 43.834 40.5938H38.1664ZM47.9312 47H50.0547V40.3381C50.0547 38.9105 51.1556 37.8807 52.6613 37.8807C53.1016 37.8807 53.5988 37.9588 53.7692 38.0085V35.9773C53.5562 35.9489 53.1371 35.9276 52.8672 35.9276C51.5888 35.9276 50.4951 36.652 50.0973 37.8239H49.9837V36.0909H47.9312V47ZM55.2669 47H57.3905V40.2741C57.3905 38.804 58.4203 37.7812 59.6277 37.7812C60.8067 37.7812 61.6235 38.5625 61.6235 39.7486V47H63.7399V40.0469C63.7399 38.733 64.5425 37.7812 65.9274 37.7812C67.0496 37.7812 67.9729 38.4062 67.9729 39.8835V47H70.0965V39.6847C70.0965 37.1918 68.7044 35.9489 66.73 35.9489C65.1604 35.9489 63.9814 36.7017 63.4559 37.8665H63.3422C62.8664 36.6733 61.8649 35.9489 60.409 35.9489C58.9672 35.9489 57.8948 36.6662 57.4402 37.8665H57.3053V36.0909H55.2669V47ZM72.6027 47H74.7263V36.0909H72.6027V47ZM73.6752 34.4077C74.4067 34.4077 75.0175 33.8395 75.0175 33.1435C75.0175 32.4474 74.4067 31.8722 73.6752 31.8722C72.9365 31.8722 72.3328 32.4474 72.3328 33.1435C72.3328 33.8395 72.9365 34.4077 73.6752 34.4077ZM79.3668 40.5227C79.3668 38.7827 80.4321 37.7884 81.9094 37.7884C83.3511 37.7884 84.2247 38.733 84.2247 40.3168V47H86.3483V40.0611C86.3483 37.3622 84.8639 35.9489 82.6338 35.9489C80.9932 35.9489 79.9207 36.7088 79.4165 37.8665H79.2815V36.0909H77.2432V47H79.3668V40.5227ZM98.511 47.2202C100.89 47.2202 102.573 46.0483 103.056 44.2727L101.046 43.9105C100.663 44.9403 99.7397 45.4659 98.5323 45.4659C96.7141 45.4659 95.4925 44.2869 95.4357 42.1847H103.191V41.4318C103.191 37.4901 100.833 35.9489 98.3618 35.9489C95.3221 35.9489 93.3192 38.2642 93.3192 41.6165C93.3192 45.0043 95.2937 47.2202 98.511 47.2202ZM95.4428 40.5938C95.528 39.0455 96.6502 37.7031 98.376 37.7031C100.024 37.7031 101.103 38.9247 101.11 40.5938H95.4428ZM105.208 47H107.331V40.3381C107.331 38.9105 108.432 37.8807 109.938 37.8807C110.378 37.8807 110.875 37.9588 111.046 38.0085V35.9773C110.833 35.9489 110.414 35.9276 110.144 35.9276C108.865 35.9276 107.771 36.652 107.374 37.8239H107.26V36.0909H105.208V47ZM120.718 38.7543C120.278 37.0568 118.95 35.9489 116.592 35.9489C114.127 35.9489 112.38 37.2486 112.38 39.1804C112.38 40.7287 113.317 41.7585 115.363 42.2131L117.21 42.6179C118.261 42.8523 118.751 43.321 118.751 44.0028C118.751 44.848 117.849 45.5085 116.457 45.5085C115.185 45.5085 114.369 44.9616 114.113 43.8892L112.06 44.2017C112.415 46.1335 114.021 47.2202 116.471 47.2202C119.106 47.2202 120.931 45.821 120.931 43.8466C120.931 42.3054 119.951 41.3537 117.948 40.892L116.215 40.4943C115.015 40.2102 114.496 39.8054 114.504 39.0668C114.496 38.2287 115.406 37.6321 116.613 37.6321C117.934 37.6321 118.545 38.3636 118.793 39.0952L120.718 38.7543ZM128.018 36.0909H125.781V33.4773H123.658V36.0909H122.06V37.7955H123.658V44.2372C123.65 46.2188 125.163 47.1776 126.839 47.142C127.514 47.1349 127.969 47.0071 128.217 46.9148L127.834 45.1605C127.692 45.1889 127.429 45.2528 127.088 45.2528C126.399 45.2528 125.781 45.0256 125.781 43.7969V37.7955H128.018V36.0909ZM134.612 47.2202C136.991 47.2202 138.674 46.0483 139.157 44.2727L137.147 43.9105C136.764 44.9403 135.841 45.4659 134.633 45.4659C132.815 45.4659 131.593 44.2869 131.537 42.1847H139.292V41.4318C139.292 37.4901 136.934 35.9489 134.463 35.9489C131.423 35.9489 129.42 38.2642 129.42 41.6165C129.42 45.0043 131.395 47.2202 134.612 47.2202ZM131.544 40.5938C131.629 39.0455 132.751 37.7031 134.477 37.7031C136.125 37.7031 137.204 38.9247 137.211 40.5938H131.544ZM143.432 32.4545H141.308V47H143.432V32.4545ZM148.073 32.4545H145.949V47H148.073V32.4545ZM155.291 47.2202C157.67 47.2202 159.354 46.0483 159.837 44.2727L157.827 43.9105C157.443 44.9403 156.52 45.4659 155.312 45.4659C153.494 45.4659 152.273 44.2869 152.216 42.1847H159.972V41.4318C159.972 37.4901 157.614 35.9489 155.142 35.9489C152.102 35.9489 150.099 38.2642 150.099 41.6165C150.099 45.0043 152.074 47.2202 155.291 47.2202ZM152.223 40.5938C152.308 39.0455 153.43 37.7031 155.156 37.7031C156.804 37.7031 157.883 38.9247 157.891 40.5938H152.223ZM164.111 40.5227C164.111 38.7827 165.177 37.7884 166.654 37.7884C168.096 37.7884 168.969 38.733 168.969 40.3168V47H171.093V40.0611C171.093 37.3622 169.608 35.9489 167.378 35.9489C165.738 35.9489 164.665 36.7088 164.161 37.8665H164.026V36.0909H161.988V47H164.111V40.5227Z" fill="#2D2F33"></path><path d="M414 46L426 34" stroke="#696F80" stroke-linecap="round" stroke-linejoin="round"></path><path d="M426 46L414 34" stroke="#696F80" stroke-linecap="round" stroke-linejoin="round"></path><rect x="24.5" y="80.5" width="407" height="39" rx="7.5" fill="white"></rect><path d="M37.6506 94.8182H36.358L40.0966 105H41.3693L45.108 94.8182H43.8153L40.7926 103.389H40.6733L37.6506 94.8182ZM48.9416 105.159C50.4927 105.159 51.6262 104.384 51.9842 103.23L50.8507 102.912C50.5524 103.707 49.8613 104.105 48.9416 104.105C47.5644 104.105 46.6149 103.215 46.5602 101.58H52.1035V101.082C52.1035 98.2386 50.4132 97.2642 48.8223 97.2642C46.7541 97.2642 45.3819 98.8949 45.3819 101.241C45.3819 103.588 46.7342 105.159 48.9416 105.159ZM46.5602 100.565C46.6397 99.3771 47.4799 98.3182 48.8223 98.3182C50.095 98.3182 50.9103 99.2727 50.9103 100.565H46.5602ZM53.8043 105H54.9776V100.168C54.9776 99.1335 55.7929 98.3778 56.9066 98.3778C57.2198 98.3778 57.5429 98.4375 57.6225 98.4574V97.2642C57.4883 97.2543 57.18 97.2443 57.006 97.2443C56.0912 97.2443 55.2958 97.7614 55.0174 98.517H54.9378V97.3636H53.8043V105ZM62.7288 97.3636H61.0981V95.5341H59.9248V97.3636H58.7714V98.358H59.9248V103.131C59.9248 104.463 60.9987 105.099 61.993 105.099C62.4305 105.099 62.7089 105.02 62.868 104.96L62.6294 103.906C62.53 103.926 62.3709 103.966 62.1123 103.966C61.5953 103.966 61.0981 103.807 61.0981 102.812V98.358H62.7288V97.3636ZM64.4097 105H65.583V100.168C65.583 99.1335 66.3984 98.3778 67.512 98.3778C67.8252 98.3778 68.1484 98.4375 68.2279 98.4574V97.2642C68.0937 97.2543 67.7854 97.2443 67.6114 97.2443C66.6967 97.2443 65.9012 97.7614 65.6228 98.517H65.5433V97.3636H64.4097V105ZM71.7819 105.179C73.1143 105.179 73.8103 104.463 74.0489 103.966H74.1086V105H75.2819V99.9688C75.2819 97.5426 73.4325 97.2642 72.458 97.2642C71.3046 97.2642 69.9921 97.6619 69.3955 99.054L70.5092 99.4517C70.7677 98.8949 71.3792 98.2983 72.4978 98.2983C73.5766 98.2983 74.1086 98.87 74.1086 99.8494V99.8892C74.1086 100.456 73.5319 100.406 72.1398 100.585C70.7229 100.769 69.1768 101.082 69.1768 102.832C69.1768 104.324 70.3302 105.179 71.7819 105.179ZM71.9609 104.125C71.0262 104.125 70.3501 103.707 70.3501 102.892C70.3501 101.997 71.1654 101.719 72.0802 101.599C72.5773 101.54 73.9097 101.401 74.1086 101.162V102.236C74.1086 103.19 73.3529 104.125 71.9609 104.125ZM80.4218 108.023C82.2513 108.023 83.7229 107.188 83.7229 105.219V97.3636H82.5894V98.5767H82.4701C82.2116 98.179 81.7343 97.2642 80.2428 97.2642C78.3138 97.2642 76.9814 98.7955 76.9814 101.142C76.9814 103.528 78.3735 104.881 80.2229 104.881C81.7144 104.881 82.1917 104.006 82.4502 103.588H82.5496V105.139C82.5496 106.412 81.6547 106.989 80.4218 106.989C79.0347 106.989 78.5475 106.258 78.2343 105.835L77.2996 106.491C77.7769 107.292 78.7165 108.023 80.4218 108.023ZM80.382 103.827C78.9104 103.827 78.1547 102.713 78.1547 101.122C78.1547 99.571 78.8905 98.3182 80.382 98.3182C81.8138 98.3182 82.5695 99.4716 82.5695 101.122C82.5695 102.812 81.7939 103.827 80.382 103.827ZM91.1957 99.0739C90.8278 97.9901 90.0026 97.2642 88.4912 97.2642C86.8804 97.2642 85.6872 98.179 85.6872 99.4716C85.6872 100.526 86.3136 101.232 87.7156 101.56L88.9883 101.858C89.7589 102.037 90.1219 102.405 90.1219 102.932C90.1219 103.588 89.4258 104.125 88.3321 104.125C87.3726 104.125 86.771 103.712 86.5622 102.892L85.4486 103.17C85.722 104.468 86.7909 105.159 88.352 105.159C90.1268 105.159 91.3349 104.19 91.3349 102.872C91.3349 101.808 90.6687 101.137 89.3065 100.804L88.173 100.526C87.2682 100.302 86.8605 99.9986 86.8605 99.4119C86.8605 98.7557 87.5565 98.2784 88.4912 98.2784C89.5153 98.2784 89.9379 98.8452 90.1418 99.3722L91.1957 99.0739ZM95.2643 105.179C96.5966 105.179 97.2927 104.463 97.5313 103.966H97.591V105H98.7643V99.9688C98.7643 97.5426 96.9148 97.2642 95.9404 97.2642C94.787 97.2642 93.4745 97.6619 92.8779 99.054L93.9915 99.4517C94.2501 98.8949 94.8616 98.2983 95.9802 98.2983C97.059 98.2983 97.591 98.87 97.591 99.8494V99.8892C97.591 100.456 97.0143 100.406 95.6222 100.585C94.2053 100.769 92.6591 101.082 92.6591 102.832C92.6591 104.324 93.8126 105.179 95.2643 105.179ZM95.4432 104.125C94.5086 104.125 93.8324 103.707 93.8324 102.892C93.8324 101.997 94.6478 101.719 95.5626 101.599C96.0597 101.54 97.3921 101.401 97.591 101.162V102.236C97.591 103.19 96.8353 104.125 95.4432 104.125ZM100.981 105H102.114V103.827H102.254C102.512 104.244 103.009 105.159 104.481 105.159C106.39 105.159 107.722 103.628 107.722 101.202C107.722 98.7955 106.39 97.2642 104.461 97.2642C102.969 97.2642 102.512 98.179 102.254 98.5767H102.154V94.8182H100.981V105ZM102.134 101.182C102.134 99.4716 102.89 98.3182 104.322 98.3182C105.813 98.3182 106.549 99.571 106.549 101.182C106.549 102.812 105.793 104.105 104.322 104.105C102.91 104.105 102.134 102.912 102.134 101.182ZM110.606 94.8182H109.433V105H110.606V94.8182ZM114.919 105.179C116.251 105.179 116.947 104.463 117.186 103.966H117.245V105H118.419V99.9688C118.419 97.5426 116.569 97.2642 115.595 97.2642C114.441 97.2642 113.129 97.6619 112.532 99.054L113.646 99.4517C113.904 98.8949 114.516 98.2983 115.634 98.2983C116.713 98.2983 117.245 98.87 117.245 99.8494V99.8892C117.245 100.456 116.669 100.406 115.276 100.585C113.86 100.769 112.313 101.082 112.313 102.832C112.313 104.324 113.467 105.179 114.919 105.179ZM115.097 104.125C114.163 104.125 113.487 103.707 113.487 102.892C113.487 101.997 114.302 101.719 115.217 101.599C115.714 101.54 117.046 101.401 117.245 101.162V102.236C117.245 103.19 116.49 104.125 115.097 104.125ZM125.289 101.878C125.289 103.31 124.195 103.966 123.32 103.966C122.345 103.966 121.649 103.25 121.649 102.136V97.3636H120.476V102.216C120.476 104.165 121.51 105.099 122.942 105.099C124.095 105.099 124.851 104.483 125.209 103.707H125.289V105H126.462V97.3636H125.289V101.878ZM131.927 97.3636H130.217V96.5881C130.217 95.8324 130.535 95.4347 131.311 95.4347C131.649 95.4347 131.848 95.5142 131.967 95.554L132.305 94.5398C132.126 94.4602 131.768 94.3409 131.192 94.3409C130.098 94.3409 129.044 94.9972 129.044 96.3097V97.3636H127.811V98.358H129.044V105H130.217V98.358H131.927V97.3636Z" fill="#2D2F33"></path><rect x="24.5" y="80.5" width="407" height="39" rx="7.5" stroke="#D3D5DB"></rect><rect x="24.5" y="128.5" width="407" height="39" rx="7.5" fill="white"></rect><path d="M37.054 153H43.4773V151.906H38.7443V151.827L41.0312 149.381C42.7812 147.506 43.2983 146.631 43.2983 145.503C43.2983 143.932 42.0256 142.679 40.2358 142.679C38.451 142.679 37.0938 143.892 37.0938 145.682H38.267C38.267 144.523 39.0178 143.753 40.196 143.753C41.2997 143.753 42.1449 144.429 42.1449 145.503C42.1449 146.442 41.593 147.138 40.4148 148.426L37.054 152.105V153ZM48.6284 153.139C50.5673 153.139 51.9892 151.707 51.9892 149.759C51.9892 147.785 50.617 146.338 48.7477 146.338C48.0616 146.338 47.3954 146.582 46.9778 146.915H46.9181L47.2761 143.912H51.5318V142.818H46.242L45.6255 147.83L46.7789 147.969C47.2015 147.665 47.9224 147.447 48.5488 147.452C49.8464 147.462 50.796 148.446 50.796 149.778C50.796 151.086 49.8812 152.045 48.6284 152.045C47.5843 152.045 46.7541 151.374 46.6596 150.455H45.4664C45.541 152.006 46.8784 153.139 48.6284 153.139ZM57.9126 153H59.1455V148.446H63.5603V147.352H59.1455V143.912H64.0177V142.818H57.9126V153ZM68.5275 153.159C70.0786 153.159 71.2121 152.384 71.5701 151.23L70.4365 150.912C70.1383 151.707 69.4472 152.105 68.5275 152.105C67.1503 152.105 66.2008 151.215 66.1461 149.58H71.6894V149.082C71.6894 146.239 69.999 145.264 68.4081 145.264C66.34 145.264 64.9678 146.895 64.9678 149.241C64.9678 151.588 66.3201 153.159 68.5275 153.159ZM66.1461 148.565C66.2256 147.377 67.0658 146.318 68.4081 146.318C69.6809 146.318 70.4962 147.273 70.4962 148.565H66.1461ZM73.5493 153H74.6828V151.827H74.822C75.0805 152.244 75.5777 153.159 77.0493 153.159C78.9584 153.159 80.2908 151.628 80.2908 149.202C80.2908 146.795 78.9584 145.264 77.0294 145.264C75.5379 145.264 75.0805 146.179 74.822 146.577H74.7226V142.818H73.5493V153ZM74.7027 149.182C74.7027 147.472 75.4584 146.318 76.8902 146.318C78.3817 146.318 79.1175 147.571 79.1175 149.182C79.1175 150.812 78.3618 152.105 76.8902 152.105C75.4783 152.105 74.7027 150.912 74.7027 149.182ZM82.0015 153H83.1748V148.168C83.1748 147.134 83.9901 146.378 85.1038 146.378C85.417 146.378 85.7401 146.438 85.8197 146.457V145.264C85.6855 145.254 85.3772 145.244 85.2032 145.244C84.2884 145.244 83.493 145.761 83.2146 146.517H83.135V145.364H82.0015V153ZM91.939 149.878C91.939 151.31 90.8452 151.966 89.9702 151.966C88.9958 151.966 88.2998 151.25 88.2998 150.136V145.364H87.1265V150.216C87.1265 152.165 88.1606 153.099 89.5924 153.099C90.7458 153.099 91.5015 152.483 91.8594 151.707H91.939V153H93.1123V145.364H91.939V149.878ZM97.4244 153.179C98.7568 153.179 99.4528 152.463 99.6915 151.966H99.7511V153H100.924V147.969C100.924 145.543 99.075 145.264 98.1005 145.264C96.9471 145.264 95.6346 145.662 95.038 147.054L96.1517 147.452C96.4102 146.895 97.0217 146.298 98.1403 146.298C99.2192 146.298 99.7511 146.87 99.7511 147.849V147.889C99.7511 148.456 99.1744 148.406 97.7824 148.585C96.3655 148.769 94.8193 149.082 94.8193 150.832C94.8193 152.324 95.9727 153.179 97.4244 153.179ZM97.6034 152.125C96.6687 152.125 95.9926 151.707 95.9926 150.892C95.9926 149.997 96.8079 149.719 97.7227 149.599C98.2199 149.54 99.5523 149.401 99.7511 149.162V150.236C99.7511 151.19 98.9954 152.125 97.6034 152.125ZM102.982 153H104.155V148.168C104.155 147.134 104.971 146.378 106.084 146.378C106.397 146.378 106.721 146.438 106.8 146.457V145.264C106.666 145.254 106.358 145.244 106.184 145.244C105.269 145.244 104.473 145.761 104.195 146.517H104.115V145.364H102.982V153ZM109.095 155.864C110.154 155.864 110.9 155.302 111.342 154.114L114.594 145.384L113.311 145.364L111.203 151.449H111.123L109.015 145.364H107.743L110.567 153.04L110.348 153.636C109.92 154.8 109.393 154.909 108.538 154.69L108.24 155.724C108.359 155.784 108.697 155.864 109.095 155.864ZM119.896 153H126.319V151.906H121.586V151.827L123.873 149.381C125.623 147.506 126.14 146.631 126.14 145.503C126.14 143.932 124.867 142.679 123.077 142.679C121.293 142.679 119.935 143.892 119.935 145.682H121.109C121.109 144.523 121.859 143.753 123.038 143.753C124.141 143.753 124.986 144.429 124.986 145.503C124.986 146.442 124.435 147.138 123.256 148.426L119.896 152.105V153ZM131.609 153.139C133.856 153.139 135.149 151.235 135.149 147.909C135.149 144.608 133.836 142.679 131.609 142.679C129.382 142.679 128.069 144.608 128.069 147.909C128.069 151.235 129.362 153.139 131.609 153.139ZM131.609 152.045C130.128 152.045 129.263 150.559 129.263 147.909C129.263 145.264 130.138 143.753 131.609 143.753C133.081 143.753 133.956 145.264 133.956 147.909C133.956 150.559 133.091 152.045 131.609 152.045ZM136.954 153H143.377V151.906H138.644V151.827L140.931 149.381C142.681 147.506 143.198 146.631 143.198 145.503C143.198 143.932 141.926 142.679 140.136 142.679C138.351 142.679 136.994 143.892 136.994 145.682H138.167C138.167 144.523 138.918 143.753 140.096 143.753C141.2 143.753 142.045 144.429 142.045 145.503C142.045 146.442 141.493 147.138 140.315 148.426L136.954 152.105V153ZM145.347 153H151.77V151.906H147.037V151.827L149.324 149.381C151.074 147.506 151.591 146.631 151.591 145.503C151.591 143.932 150.318 142.679 148.529 142.679C146.744 142.679 145.386 143.892 145.386 145.682H146.56C146.56 144.523 147.31 143.753 148.489 143.753C149.592 143.753 150.438 144.429 150.438 145.503C150.438 146.442 149.886 147.138 148.708 148.426L145.347 152.105V153Z" fill="#2D2F33"></path><path d="M418.067 142H405.933C405.418 142 405 142.413 405 142.923V153.077C405 153.587 405.418 154 405.933 154H418.067C418.582 154 419 153.587 419 153.077V142.923C419 142.413 418.582 142 418.067 142Z" stroke="#696F80" stroke-linecap="round" stroke-linejoin="round"></path><path d="M405 145H419" stroke="#696F80" stroke-linecap="round" stroke-linejoin="round"></path><path d="M409 143L409 141" stroke="#696F80" stroke-linecap="round" stroke-linejoin="round"></path><path d="M415 143L415 141" stroke="#696F80" stroke-linecap="round" stroke-linejoin="round"></path><rect x="24.5" y="128.5" width="407" height="39" rx="7.5" stroke="#D3D5DB"></rect><rect x="24" y="192" width="408" height="88" rx="8" fill="#F7F8FA"></rect><path d="M44 218C47.3137 218 50 215.314 50 212C50 208.686 47.3137 206 44 206C40.6863 206 38 208.686 38 212C38 215.314 40.6863 218 44 218Z" stroke="#2D2F33" stroke-linecap="round" stroke-linejoin="round"></path><path d="M40.5 218.866L41 218" stroke="#2D2F33" stroke-linecap="round" stroke-linejoin="round"></path><path d="M44 212.5H41" stroke="#2D2F33" stroke-linecap="round" stroke-linejoin="round"></path><path d="M44 208.5V212.5" stroke="#2D2F33" stroke-linecap="round" stroke-linejoin="round"></path><path d="M38.1631 206.241L39.8361 204.758" stroke="#2D2F33" stroke-linecap="round" stroke-linejoin="round"></path><path d="M47.5 218.866L47 218" stroke="#2D2F33" stroke-linecap="round" stroke-linejoin="round"></path><path d="M49.8371 206.241L48.1641 204.758" stroke="#2D2F33" stroke-linecap="round" stroke-linejoin="round"></path><path d="M64.5241 217.139C66.6023 217.139 68.1286 215.896 68.1236 214.206C68.1286 212.918 67.348 211.994 65.9957 211.785V211.705C67.0597 211.432 67.7507 210.597 67.7457 209.453C67.7507 207.957 66.5227 206.679 64.5639 206.679C62.6946 206.679 61.1932 207.808 61.1435 209.463H62.63C62.6648 208.528 63.5447 207.962 64.544 207.962C65.5831 207.962 66.2642 208.593 66.2592 209.533C66.2642 210.517 65.4737 211.163 64.3452 211.163H63.4851V212.416H64.3452C65.7571 212.416 66.5724 213.132 66.5724 214.156C66.5724 215.146 65.7124 215.817 64.5142 215.817C63.4105 215.817 62.5504 215.25 62.4908 214.345H60.9297C60.9943 216.006 62.4659 217.139 64.5241 217.139ZM73.6791 206.818V217H75.1408V209.627H75.2352L78.2381 216.985H79.4511L82.454 209.632H82.5484V217H84.0101V206.818H82.1457L78.9043 214.733H78.7849L75.5435 206.818H73.6791ZM89.2569 217.154C91.4096 217.154 92.8165 215.578 92.8165 213.217C92.8165 210.84 91.4096 209.264 89.2569 209.264C87.1042 209.264 85.6972 210.84 85.6972 213.217C85.6972 215.578 87.1042 217.154 89.2569 217.154ZM89.2618 215.906C87.8549 215.906 87.1986 214.678 87.1986 213.212C87.1986 211.75 87.8549 210.507 89.2618 210.507C90.6589 210.507 91.3151 211.75 91.3151 213.212C91.3151 214.678 90.6589 215.906 89.2618 215.906ZM95.8783 212.466C95.8783 211.248 96.6241 210.552 97.6581 210.552C98.6674 210.552 99.2789 211.213 99.2789 212.322V217H100.765V212.143C100.765 210.254 99.7263 209.264 98.1652 209.264C97.0168 209.264 96.2661 209.796 95.9131 210.607H95.8187V209.364H94.3918V217H95.8783V212.466ZM104.897 217.169C106.16 217.169 106.871 216.528 107.154 215.956H107.214V217H108.666V211.929C108.666 209.707 106.916 209.264 105.703 209.264C104.321 209.264 103.048 209.821 102.551 211.213L103.948 211.531C104.166 210.989 104.723 210.467 105.723 210.467C106.682 210.467 107.174 210.969 107.174 211.835V211.869C107.174 212.411 106.617 212.401 105.245 212.56C103.799 212.729 102.317 213.107 102.317 214.842C102.317 216.344 103.446 217.169 104.897 217.169ZM105.22 215.976C104.38 215.976 103.774 215.598 103.774 214.862C103.774 214.067 104.48 213.783 105.34 213.669C105.822 213.604 106.965 213.475 107.179 213.261V214.246C107.179 215.151 106.458 215.976 105.22 215.976ZM114.126 209.364H112.56V207.534H111.074V209.364H109.955V210.557H111.074V215.066C111.069 216.453 112.128 217.124 113.301 217.099C113.773 217.094 114.092 217.005 114.266 216.94L113.997 215.712C113.898 215.732 113.714 215.777 113.475 215.777C112.993 215.777 112.56 215.618 112.56 214.758V210.557H114.126V209.364ZM118.896 217.154C120.561 217.154 121.74 216.334 122.078 215.091L120.671 214.837C120.402 215.558 119.756 215.926 118.911 215.926C117.638 215.926 116.783 215.101 116.743 213.629H122.172V213.102C122.172 210.343 120.522 209.264 118.791 209.264C116.664 209.264 115.262 210.885 115.262 213.232C115.262 215.603 116.644 217.154 118.896 217.154ZM116.748 212.516C116.808 211.432 117.593 210.492 118.801 210.492C119.955 210.492 120.71 211.347 120.715 212.516H116.748ZM133.891 209.364H132.295L130.366 215.24H130.287L128.353 209.364H126.757L129.531 217H131.122L133.891 209.364ZM138.147 217.154C140.3 217.154 141.707 215.578 141.707 213.217C141.707 210.84 140.3 209.264 138.147 209.264C135.995 209.264 134.588 210.84 134.588 213.217C134.588 215.578 135.995 217.154 138.147 217.154ZM138.152 215.906C136.745 215.906 136.089 214.678 136.089 213.212C136.089 211.75 136.745 210.507 138.152 210.507C139.549 210.507 140.206 211.75 140.206 213.212C140.206 214.678 139.549 215.906 138.152 215.906ZM143.282 217H144.769V212.337C144.769 211.337 145.539 210.616 146.593 210.616C146.902 210.616 147.25 210.671 147.369 210.706V209.284C147.22 209.264 146.926 209.249 146.738 209.249C145.843 209.249 145.077 209.756 144.799 210.577H144.719V209.364H143.282V217ZM150.058 212.466C150.058 211.248 150.828 210.552 151.887 210.552C152.912 210.552 153.523 211.203 153.523 212.322V217H155.01V212.143C155.01 210.239 153.966 209.264 152.395 209.264C151.206 209.264 150.49 209.781 150.132 210.607H150.038V206.818H148.571V217H150.058V212.466ZM160.2 217.154C161.866 217.154 163.044 216.334 163.382 215.091L161.975 214.837C161.707 215.558 161.061 215.926 160.215 215.926C158.943 215.926 158.088 215.101 158.048 213.629H163.477V213.102C163.477 210.343 161.826 209.264 160.096 209.264C157.968 209.264 156.566 210.885 156.566 213.232C156.566 215.603 157.948 217.154 160.2 217.154ZM158.053 212.516C158.112 211.432 158.898 210.492 160.106 210.492C161.259 210.492 162.015 211.347 162.02 212.516H158.053ZM165.042 217H166.529V212.337C166.529 211.337 167.299 210.616 168.353 210.616C168.661 210.616 169.009 210.671 169.129 210.706V209.284C168.98 209.264 168.686 209.249 168.497 209.249C167.602 209.249 166.837 209.756 166.558 210.577H166.479V209.364H165.042V217Z" fill="#2D2F33"></path><path d="M401 207H415" stroke="#696F80" stroke-linecap="round" stroke-linejoin="round"></path><path d="M409.5 205H406.5C406.235 205 405.98 205.105 405.793 205.293C405.605 205.48 405.5 205.735 405.5 206V207H410.5V206C410.5 205.735 410.395 205.48 410.207 205.293C410.02 205.105 409.765 205 409.5 205Z" stroke="#696F80" stroke-linecap="round" stroke-linejoin="round"></path><path d="M406.5 215.5V210.5" stroke="#696F80" stroke-linecap="round" stroke-linejoin="round"></path><path d="M409.5 215.5V210.5" stroke="#696F80" stroke-linecap="round" stroke-linejoin="round"></path><path d="M412.577 218.083C412.556 218.333 412.442 218.566 412.257 218.736C412.073 218.906 411.831 219 411.58 219H404.421C404.17 219 403.928 218.906 403.743 218.736C403.559 218.566 403.445 218.333 403.424 218.083L402.5 207H413.5L412.577 218.083Z" stroke="#696F80" stroke-linecap="round" stroke-linejoin="round"></path><rect x="36.5" y="232.5" width="121.667" height="39" rx="7.5" fill="white"></rect><path d="M52.4943 257.139C54.468 257.139 55.9347 255.901 55.9347 254.236C55.9347 252.943 55.169 252.004 53.8864 251.79V251.71C54.9155 251.397 55.5568 250.552 55.5568 249.403C55.5568 247.962 54.4183 246.679 52.5341 246.679C50.7741 246.679 49.3125 247.763 49.2528 249.364H50.446C50.4908 248.349 51.4553 247.753 52.5142 247.753C53.6378 247.753 54.3636 248.434 54.3636 249.463C54.3636 250.537 53.5234 251.233 52.3153 251.233H51.5V252.327H52.3153C53.8615 252.327 54.7216 253.112 54.7216 254.236C54.7216 255.315 53.782 256.045 52.4744 256.045C51.2962 256.045 50.3615 255.439 50.2869 254.455H49.0341C49.1087 256.055 50.5206 257.139 52.4943 257.139Z" fill="#2D2F33"></path><rect x="36.5" y="232.5" width="121.667" height="39" rx="7.5" stroke="#D3D5DB"></rect><rect x="167.166" y="232.5" width="121.667" height="39" rx="7.5" fill="white"></rect><path d="M179.899 246.818V257H181.052V249.264H181.152L184.334 257H185.447L188.629 249.264H188.729V257H189.882V246.818H188.41L184.95 255.27H184.831L181.371 246.818H179.899ZM195.213 257.159C197.281 257.159 198.673 255.588 198.673 253.222C198.673 250.835 197.281 249.264 195.213 249.264C193.145 249.264 191.753 250.835 191.753 253.222C191.753 255.588 193.145 257.159 195.213 257.159ZM195.213 256.105C193.642 256.105 192.926 254.753 192.926 253.222C192.926 251.69 193.642 250.318 195.213 250.318C196.784 250.318 197.5 251.69 197.5 253.222C197.5 254.753 196.784 256.105 195.213 256.105ZM201.554 252.406C201.554 251.074 202.379 250.318 203.503 250.318C204.591 250.318 205.253 251.029 205.253 252.227V257H206.426V252.148C206.426 250.199 205.387 249.264 203.841 249.264C202.687 249.264 201.971 249.781 201.613 250.557H201.514V249.364H200.38V257H201.554V252.406ZM210.733 257.179C212.065 257.179 212.761 256.463 213 255.966H213.06V257H214.233V251.969C214.233 249.543 212.384 249.264 211.409 249.264C210.256 249.264 208.943 249.662 208.347 251.054L209.46 251.452C209.719 250.895 210.33 250.298 211.449 250.298C212.528 250.298 213.06 250.87 213.06 251.849V251.889C213.06 252.456 212.483 252.406 211.091 252.585C209.674 252.769 208.128 253.082 208.128 254.832C208.128 256.324 209.281 257.179 210.733 257.179ZM210.912 256.125C209.977 256.125 209.301 255.707 209.301 254.892C209.301 253.997 210.117 253.719 211.031 253.599C211.529 253.54 212.861 253.401 213.06 253.162V254.236C213.06 255.19 212.304 256.125 210.912 256.125ZM219.612 249.364H217.981V247.534H216.808V249.364H215.654V250.358H216.808V255.131C216.808 256.463 217.882 257.099 218.876 257.099C219.313 257.099 219.592 257.02 219.751 256.96L219.512 255.906C219.413 255.926 219.254 255.966 218.995 255.966C218.478 255.966 217.981 255.807 217.981 254.812V250.358H219.612V249.364ZM224.412 257.159C225.963 257.159 227.097 256.384 227.455 255.23L226.321 254.912C226.023 255.707 225.332 256.105 224.412 256.105C223.035 256.105 222.086 255.215 222.031 253.58H227.574V253.082C227.574 250.239 225.884 249.264 224.293 249.264C222.225 249.264 220.853 250.895 220.853 253.241C220.853 255.588 222.205 257.159 224.412 257.159ZM222.031 252.565C222.11 251.377 222.951 250.318 224.293 250.318C225.566 250.318 226.381 251.273 226.381 252.565H222.031Z" fill="#2D2F33"></path><path d="M273.332 250L269.52 253.92C269.496 253.945 269.466 253.965 269.434 253.979C269.402 253.993 269.367 254 269.332 254C269.297 254 269.262 253.993 269.23 253.979C269.198 253.965 269.168 253.945 269.144 253.92L265.332 250" stroke="#696F80" stroke-linecap="round" stroke-linejoin="round"></path><rect x="167.166" y="232.5" width="121.667" height="39" rx="7.5" stroke="#D3D5DB"></rect><rect x="297.834" y="232.5" width="121.667" height="39" rx="7.5" fill="white"></rect><path d="M316.652 249.364H315.379L313.271 255.449H313.192L311.084 249.364H309.811L312.635 257H313.828L316.652 249.364ZM320.946 257.159C323.014 257.159 324.406 255.588 324.406 253.222C324.406 250.835 323.014 249.264 320.946 249.264C318.877 249.264 317.485 250.835 317.485 253.222C317.485 255.588 318.877 257.159 320.946 257.159ZM320.946 256.105C319.375 256.105 318.659 254.753 318.659 253.222C318.659 251.69 319.375 250.318 320.946 250.318C322.517 250.318 323.233 251.69 323.233 253.222C323.233 254.753 322.517 256.105 320.946 256.105ZM326.113 257H327.286V252.168C327.286 251.134 328.102 250.378 329.215 250.378C329.528 250.378 329.852 250.438 329.931 250.457V249.264C329.797 249.254 329.489 249.244 329.315 249.244C328.4 249.244 327.604 249.761 327.326 250.517H327.246V249.364H326.113V257ZM332.411 252.406C332.411 251.074 333.261 250.318 334.42 250.318C335.523 250.318 336.19 251.014 336.19 252.227V257H337.363V252.148C337.363 250.184 336.319 249.264 334.758 249.264C333.555 249.264 332.869 249.766 332.511 250.557H332.411V246.818H331.238V257H332.411V252.406ZM342.627 257.159C344.178 257.159 345.312 256.384 345.67 255.23L344.536 254.912C344.238 255.707 343.547 256.105 342.627 256.105C341.25 256.105 340.3 255.215 340.246 253.58H345.789V253.082C345.789 250.239 344.099 249.264 342.508 249.264C340.44 249.264 339.067 250.895 339.067 253.241C339.067 255.588 340.42 257.159 342.627 257.159ZM340.246 252.565C340.325 251.377 341.165 250.318 342.508 250.318C343.78 250.318 344.596 251.273 344.596 252.565H340.246ZM347.49 257H348.663V252.168C348.663 251.134 349.478 250.378 350.592 250.378C350.905 250.378 351.228 250.438 351.308 250.457V249.264C351.174 249.254 350.866 249.244 350.692 249.244C349.777 249.244 348.981 249.761 348.703 250.517H348.623V249.364H347.49V257Z" fill="#2D2F33"></path><path d="M404 250L400.188 253.92C400.164 253.945 400.134 253.965 400.102 253.979C400.07 253.993 400.035 254 400 254C399.965 254 399.93 253.993 399.898 253.979C399.866 253.965 399.836 253.945 399.812 253.92L396 250" stroke="#696F80" stroke-linecap="round" stroke-linejoin="round"></path><rect x="297.834" y="232.5" width="121.667" height="39" rx="7.5" stroke="#D3D5DB"></rect><rect x="24" y="284" width="408" height="40" rx="8" fill="#F7F8FA"></rect><path d="M38.5 304H49.5" stroke="#696F80" stroke-linecap="round" stroke-linejoin="round"></path><path d="M44 298.5V309.5" stroke="#696F80" stroke-linecap="round" stroke-linejoin="round"></path><path d="M61.1186 309H67.5618V307.678H62.6548V304.56H67.169V303.243H62.6548V300.141H67.5021V298.818H61.1186V309ZM69.3508 309H70.8373V304.337C70.8373 303.337 71.6079 302.616 72.6619 302.616C72.9702 302.616 73.3182 302.671 73.4375 302.706V301.284C73.2883 301.264 72.995 301.249 72.8061 301.249C71.9112 301.249 71.1456 301.756 70.8672 302.577H70.7876V301.364H69.3508V309ZM74.6399 309H76.1264V301.364H74.6399V309ZM75.3906 300.185C75.9027 300.185 76.3302 299.788 76.3302 299.3C76.3302 298.813 75.9027 298.411 75.3906 298.411C74.8735 298.411 74.451 298.813 74.451 299.3C74.451 299.788 74.8735 300.185 75.3906 300.185ZM79.5287 304.466C79.5287 303.248 80.2745 302.552 81.3085 302.552C82.3178 302.552 82.9293 303.213 82.9293 304.322V309H84.4158V304.143C84.4158 302.254 83.3767 301.264 81.8156 301.264C80.6672 301.264 79.9165 301.796 79.5635 302.607H79.4691V301.364H78.0422V309H79.5287V304.466ZM87.8119 304.466C87.8119 303.248 88.5576 302.552 89.5917 302.552C90.601 302.552 91.2125 303.213 91.2125 304.322V309H92.699V304.143C92.699 302.254 91.6599 301.264 90.0988 301.264C88.9504 301.264 88.1997 301.796 87.8467 302.607H87.7522V301.364H86.3254V309H87.8119V304.466ZM97.8998 309.154C99.5653 309.154 100.744 308.334 101.082 307.091L99.6746 306.837C99.4062 307.558 98.7599 307.926 97.9147 307.926C96.642 307.926 95.7869 307.101 95.7471 305.629H101.176V305.102C101.176 302.343 99.5255 301.264 97.7954 301.264C95.6675 301.264 94.2655 302.885 94.2655 305.232C94.2655 307.603 95.6477 309.154 97.8998 309.154ZM95.7521 304.516C95.8117 303.432 96.5972 302.492 97.8053 302.492C98.9587 302.492 99.7144 303.347 99.7194 304.516H95.7521ZM102.741 309H104.228V304.337C104.228 303.337 104.998 302.616 106.052 302.616C106.361 302.616 106.709 302.671 106.828 302.706V301.284C106.679 301.264 106.386 301.249 106.197 301.249C105.302 301.249 104.536 301.756 104.258 302.577H104.178V301.364H102.741V309ZM112.868 305.833C112.873 307.131 111.908 307.747 111.073 307.747C110.153 307.747 109.517 307.081 109.517 306.042V301.364H108.03V306.221C108.03 308.115 109.069 309.099 110.536 309.099C111.685 309.099 112.465 308.493 112.818 307.678H112.898V309H114.359V301.364H112.868V305.833ZM117.759 304.466C117.759 303.248 118.505 302.552 119.539 302.552C120.548 302.552 121.16 303.213 121.16 304.322V309H122.646V304.143C122.646 302.254 121.607 301.264 120.046 301.264C118.898 301.264 118.147 301.796 117.794 302.607H117.699V301.364H116.273V309H117.759V304.466ZM127.757 312.023C129.701 312.023 131.203 311.133 131.203 309.169V301.364H129.746V302.602H129.637C129.373 302.129 128.846 301.264 127.424 301.264C125.58 301.264 124.223 302.721 124.223 305.152C124.223 307.588 125.61 308.886 127.414 308.886C128.816 308.886 129.358 308.095 129.627 307.608H129.721V309.109C129.721 310.308 128.901 310.825 127.772 310.825C126.534 310.825 126.052 310.203 125.789 309.766L124.511 310.293C124.914 311.227 125.933 312.023 127.757 312.023ZM127.743 307.653C126.415 307.653 125.724 306.634 125.724 305.132C125.724 303.665 126.4 302.527 127.743 302.527C129.04 302.527 129.736 303.586 129.736 305.132C129.736 306.708 129.025 307.653 127.743 307.653ZM138.22 304.466C138.22 303.248 138.991 302.552 140.05 302.552C141.074 302.552 141.685 303.203 141.685 304.322V309H143.172V304.143C143.172 302.239 142.128 301.264 140.557 301.264C139.368 301.264 138.653 301.781 138.295 302.607H138.2V298.818H136.733V309H138.22V304.466ZM145.071 309H146.558V301.364H145.071V309ZM145.822 300.185C146.334 300.185 146.762 299.788 146.762 299.3C146.762 298.813 146.334 298.411 145.822 298.411C145.305 298.411 144.882 298.813 144.882 299.3C144.882 299.788 145.305 300.185 145.822 300.185ZM149.96 304.466C149.96 303.248 150.706 302.552 151.74 302.552C152.749 302.552 153.361 303.213 153.361 304.322V309H154.847V304.143C154.847 302.254 153.808 301.264 152.247 301.264C151.099 301.264 150.348 301.796 149.995 302.607H149.901V301.364H148.474V309H149.96V304.466ZM156.598 309H162.728V307.707H158.611V307.638L162.589 302.447V301.364H156.732V302.656H160.734V302.726L156.598 307.981V309ZM169.235 305.833C169.24 307.131 168.275 307.747 167.44 307.747C166.52 307.747 165.884 307.081 165.884 306.042V301.364H164.397V306.221C164.397 308.115 165.437 309.099 166.903 309.099C168.052 309.099 168.832 308.493 169.185 307.678H169.265V309H170.726V301.364H169.235V305.833ZM176.274 301.364H174.628V300.678C174.628 300.001 174.907 299.634 175.633 299.634C175.941 299.634 176.16 299.703 176.299 299.748L176.647 298.545C176.438 298.465 176.005 298.341 175.404 298.341C174.196 298.341 173.137 299.047 173.137 300.479V301.364H171.959V302.557H173.137V309H174.628V302.557H176.274V301.364ZM182.561 305.833C182.566 307.131 181.601 307.747 180.766 307.747C179.847 307.747 179.21 307.081 179.21 306.042V301.364H177.724V306.221C177.724 308.115 178.763 309.099 180.229 309.099C181.378 309.099 182.158 308.493 182.511 307.678H182.591V309H184.052V301.364H182.561V305.833ZM179.439 300.165C179.936 300.165 180.314 299.763 180.314 299.3C180.314 298.808 179.936 298.43 179.439 298.43C178.972 298.43 178.559 298.808 178.559 299.3C178.559 299.763 178.972 300.165 179.439 300.165ZM182.362 300.165C182.859 300.165 183.237 299.763 183.237 299.3C183.237 298.808 182.859 298.43 182.362 298.43C181.895 298.43 181.482 298.808 181.482 299.3C181.482 299.763 181.895 300.165 182.362 300.165ZM189.168 312.023C191.111 312.023 192.613 311.133 192.613 309.169V301.364H191.156V302.602H191.047C190.783 302.129 190.256 301.264 188.834 301.264C186.99 301.264 185.633 302.721 185.633 305.152C185.633 307.588 187.02 308.886 188.824 308.886C190.226 308.886 190.768 308.095 191.037 307.608H191.131V309.109C191.131 310.308 190.311 310.825 189.182 310.825C187.944 310.825 187.462 310.203 187.199 309.766L185.921 310.293C186.324 311.227 187.343 312.023 189.168 312.023ZM189.153 307.653C187.825 307.653 187.134 306.634 187.134 305.132C187.134 303.665 187.81 302.527 189.153 302.527C190.45 302.527 191.146 303.586 191.146 305.132C191.146 306.708 190.435 307.653 189.153 307.653ZM197.814 309.154C199.479 309.154 200.657 308.334 200.995 307.091L199.588 306.837C199.32 307.558 198.674 307.926 197.829 307.926C196.556 307.926 195.701 307.101 195.661 305.629H201.09V305.102C201.09 302.343 199.439 301.264 197.709 301.264C195.581 301.264 194.179 302.885 194.179 305.232C194.179 307.603 195.561 309.154 197.814 309.154ZM195.666 304.516C195.726 303.432 196.511 302.492 197.719 302.492C198.873 302.492 199.628 303.347 199.633 304.516H195.666ZM204.142 304.466C204.142 303.248 204.887 302.552 205.922 302.552C206.931 302.552 207.542 303.213 207.542 304.322V309H209.029V304.143C209.029 302.254 207.99 301.264 206.429 301.264C205.28 301.264 204.53 301.796 204.177 302.607H204.082V301.364H202.655V309H204.142V304.466Z" fill="#696F80"></path><path d="M46.0667 358H33.9333C33.4179 358 33 358.413 33 358.923V369.077C33 369.587 33.4179 370 33.9333 370H46.0667C46.5821 370 47 369.587 47 369.077V358.923C47 358.413 46.5821 358 46.0667 358Z" stroke="#696F80" stroke-linecap="round" stroke-linejoin="round"></path><path d="M37 359L37 357" stroke="#696F80" stroke-linecap="round" stroke-linejoin="round"></path><path d="M43 359L43 357" stroke="#696F80" stroke-linecap="round" stroke-linejoin="round"></path><path d="M57.9787 369L58.9134 366.305H62.8906L63.8203 369H65.451L61.7869 358.818H60.0121L56.348 369H57.9787ZM59.3608 365.013L60.8622 360.668H60.9418L62.4432 365.013H59.3608ZM69.4536 369.149C70.8457 369.149 71.3926 368.299 71.661 367.812H71.7853V369H73.237V358.818H71.7505V362.602H71.661C71.3926 362.129 70.8855 361.264 69.4636 361.264C67.6191 361.264 66.2619 362.721 66.2619 365.197C66.2619 367.668 67.5992 369.149 69.4536 369.149ZM69.7818 367.881C68.4544 367.881 67.7633 366.713 67.7633 365.182C67.7633 363.665 68.4394 362.527 69.7818 362.527C71.0794 362.527 71.7754 363.586 71.7754 365.182C71.7754 366.788 71.0644 367.881 69.7818 367.881ZM78.1333 369.149C79.5254 369.149 80.0722 368.299 80.3407 367.812H80.465V369H81.9167V358.818H80.4302V362.602H80.3407C80.0722 362.129 79.5651 361.264 78.1433 361.264C76.2988 361.264 74.9416 362.721 74.9416 365.197C74.9416 367.668 76.2789 369.149 78.1333 369.149ZM78.4614 367.881C77.134 367.881 76.443 366.713 76.443 365.182C76.443 363.665 77.1191 362.527 78.4614 362.527C79.759 362.527 80.455 363.586 80.455 365.182C80.455 366.788 79.7441 367.881 78.4614 367.881ZM91.14 361.364H89.574V359.534H88.0875V361.364H86.9689V362.557H88.0875V367.066C88.0825 368.453 89.1414 369.124 90.3147 369.099C90.787 369.094 91.1052 369.005 91.2792 368.94L91.0108 367.712C90.9113 367.732 90.7274 367.777 90.4888 367.777C90.0065 367.777 89.574 367.618 89.574 366.758V362.557H91.14V361.364ZM95.835 369.154C97.9877 369.154 99.3946 367.578 99.3946 365.217C99.3946 362.84 97.9877 361.264 95.835 361.264C93.6823 361.264 92.2753 362.84 92.2753 365.217C92.2753 367.578 93.6823 369.154 95.835 369.154ZM95.8399 367.906C94.433 367.906 93.7767 366.678 93.7767 365.212C93.7767 363.75 94.433 362.507 95.8399 362.507C97.237 362.507 97.8932 363.75 97.8932 365.212C97.8932 366.678 97.237 367.906 95.8399 367.906ZM107.808 369.154C109.612 369.154 110.781 368.07 110.945 366.584H109.498C109.309 367.409 108.668 367.896 107.818 367.896C106.56 367.896 105.749 366.847 105.749 365.182C105.749 363.546 106.575 362.517 107.818 362.517C108.762 362.517 109.339 363.114 109.498 363.83H110.945C110.786 362.288 109.528 361.264 107.793 361.264C105.64 361.264 104.248 362.885 104.248 365.217C104.248 367.518 105.59 369.154 107.808 369.154ZM114.673 369.169C115.935 369.169 116.646 368.528 116.93 367.956H116.989V369H118.441V363.929C118.441 361.707 116.691 361.264 115.478 361.264C114.096 361.264 112.823 361.821 112.326 363.213L113.723 363.531C113.942 362.989 114.499 362.467 115.498 362.467C116.457 362.467 116.95 362.969 116.95 363.835V363.869C116.95 364.411 116.393 364.401 115.021 364.56C113.574 364.729 112.092 365.107 112.092 366.842C112.092 368.344 113.221 369.169 114.673 369.169ZM114.996 367.976C114.156 367.976 113.549 367.598 113.549 366.862C113.549 366.067 114.255 365.783 115.115 365.669C115.597 365.604 116.741 365.475 116.955 365.261V366.246C116.955 367.151 116.234 367.976 114.996 367.976ZM121.824 358.818H120.337V369H121.824V358.818ZM127.031 369.154C128.696 369.154 129.874 368.334 130.212 367.091L128.805 366.837C128.537 367.558 127.891 367.926 127.045 367.926C125.773 367.926 124.918 367.101 124.878 365.629H130.307V365.102C130.307 362.343 128.656 361.264 126.926 361.264C124.798 361.264 123.396 362.885 123.396 365.232C123.396 367.603 124.778 369.154 127.031 369.154ZM124.883 364.516C124.942 363.432 125.728 362.492 126.936 362.492C128.09 362.492 128.845 363.347 128.85 364.516H124.883ZM133.359 364.466C133.359 363.248 134.104 362.552 135.138 362.552C136.148 362.552 136.759 363.213 136.759 364.322V369H138.246V364.143C138.246 362.254 137.207 361.264 135.646 361.264C134.497 361.264 133.746 361.796 133.393 362.607H133.299V361.364H131.872V369H133.359V364.466ZM143.014 369.149C144.406 369.149 144.953 368.299 145.221 367.812H145.346V369H146.797V358.818H145.311V362.602H145.221C144.953 362.129 144.446 361.264 143.024 361.264C141.179 361.264 139.822 362.721 139.822 365.197C139.822 367.668 141.16 369.149 143.014 369.149ZM143.342 367.881C142.015 367.881 141.324 366.713 141.324 365.182C141.324 363.665 142 362.527 143.342 362.527C144.64 362.527 145.336 363.586 145.336 365.182C145.336 366.788 144.625 367.881 143.342 367.881ZM151.057 369.169C152.32 369.169 153.031 368.528 153.314 367.956H153.374V369H154.826V363.929C154.826 361.707 153.076 361.264 151.863 361.264C150.481 361.264 149.208 361.821 148.711 363.213L150.108 363.531C150.326 362.989 150.883 362.467 151.883 362.467C152.842 362.467 153.334 362.969 153.334 363.835V363.869C153.334 364.411 152.777 364.401 151.405 364.56C149.959 364.729 148.477 365.107 148.477 366.842C148.477 368.344 149.606 369.169 151.057 369.169ZM151.38 367.976C150.54 367.976 149.934 367.598 149.934 366.862C149.934 366.067 150.64 365.783 151.5 365.669C151.982 365.604 153.126 365.475 153.339 365.261V366.246C153.339 367.151 152.618 367.976 151.38 367.976ZM156.722 369H158.208V364.337C158.208 363.337 158.979 362.616 160.033 362.616C160.341 362.616 160.689 362.671 160.808 362.706V361.284C160.659 361.264 160.366 361.249 160.177 361.249C159.282 361.249 158.516 361.756 158.238 362.577H158.159V361.364H156.722V369Z" fill="#696F80"></path></svg> 