<?xml version="1.0" encoding="UTF-8"?> <svg xmlns="http://www.w3.org/2000/svg" width="504" height="360" viewBox="0 0 504 360" fill="none"><rect width="552" height="488" fill="white"></rect><rect x="16.5" y="16.5" width="167" height="223" rx="7.5" fill="white"></rect><path d="M48.8212 60H38.975C38.5398 60 38.1224 59.8314 37.8146 59.5314C37.5069 59.2313 37.334 58.8243 37.334 58.4V37.6C37.334 37.1757 37.5069 36.7687 37.8146 36.4686C38.1224 36.1686 38.5398 36 38.975 36H50.6033C51.0384 36.0004 51.4555 36.1692 51.763 36.4693L58.187 42.7317C58.3394 42.8804 58.4602 43.0568 58.5426 43.251C58.625 43.4452 58.6674 43.6533 58.6673 43.8635V48.8" stroke="#D3D5DB" stroke-width="1.5" stroke-linecap="round" stroke-linejoin="round"></path><path d="M58.668 44H52.1039C51.6687 44 51.2513 43.8314 50.9435 43.5314C50.6358 43.2313 50.4629 42.8243 50.4629 42.4V36" stroke="#D3D5DB" stroke-width="1.5" stroke-linecap="round" stroke-linejoin="round"></path><path d="M55.334 53.333V59.9997" stroke="#D3D5DB" stroke-width="1.5" stroke-linecap="round" stroke-linejoin="round"></path><path d="M52 53.333L58.6667 53.333" stroke="#D3D5DB" stroke-width="1.5" stroke-linecap="round" stroke-linejoin="round"></path><path d="M54 60H56.6612" stroke="#D3D5DB" stroke-width="1.5" stroke-linecap="round" stroke-linejoin="round"></path><path d="M33.1186 86.8182V97H34.5803V89.6271H34.6747L37.6776 96.9851H38.8906L41.8935 89.6321H41.9879V97H43.4496V86.8182H41.5852L38.3438 94.733H38.2244L34.983 86.8182H33.1186ZM45.4797 97H46.9662V89.3636H45.4797V97ZM46.2305 88.1854C46.7425 88.1854 47.1701 87.7876 47.1701 87.3004C47.1701 86.8132 46.7425 86.4105 46.2305 86.4105C45.7134 86.4105 45.2908 86.8132 45.2908 87.3004C45.2908 87.7876 45.7134 88.1854 46.2305 88.1854ZM52.1733 97.1541C53.8387 97.1541 55.017 96.3338 55.3551 95.0909L53.9481 94.8374C53.6797 95.5582 53.0333 95.9261 52.1882 95.9261C50.9155 95.9261 50.0603 95.1009 50.0206 93.6293H55.4495V93.1023C55.4495 90.343 53.799 89.2642 52.0689 89.2642C49.941 89.2642 48.539 90.8849 48.539 93.2315C48.539 95.603 49.9211 97.1541 52.1733 97.1541ZM50.0255 92.5156C50.0852 91.4318 50.8707 90.4922 52.0788 90.4922C53.2322 90.4922 53.9879 91.3473 53.9929 92.5156H50.0255ZM60.5795 89.3636H59.0134V87.5341H57.5269V89.3636H56.4083V90.5568H57.5269V95.0661C57.522 96.4531 58.5809 97.1243 59.7542 97.0994C60.2265 97.0945 60.5447 97.005 60.7187 96.9403L60.4502 95.7124C60.3508 95.7322 60.1669 95.777 59.9282 95.777C59.446 95.777 59.0134 95.6179 59.0134 94.7578V90.5568H60.5795V89.3636ZM68.6725 89.3636H67.0766L65.1477 95.2401H65.0681L63.1342 89.3636H61.5383L64.3124 97H65.9033L68.6725 89.3636ZM73.0033 97.1541C74.6688 97.1541 75.847 96.3338 76.1851 95.0909L74.7782 94.8374C74.5097 95.5582 73.8634 95.9261 73.0182 95.9261C71.7455 95.9261 70.8904 95.1009 70.8506 93.6293H76.2796V93.1023C76.2796 90.343 74.629 89.2642 72.8989 89.2642C70.7711 89.2642 69.3691 90.8849 69.3691 93.2315C69.3691 95.603 70.7512 97.1541 73.0033 97.1541ZM70.8556 92.5156C70.9152 91.4318 71.7007 90.4922 72.9088 90.4922C74.0622 90.4922 74.8179 91.3473 74.8229 92.5156H70.8556ZM77.8449 97H79.3314V92.3366C79.3314 91.3374 80.102 90.6165 81.156 90.6165C81.4642 90.6165 81.8122 90.6712 81.9315 90.706V89.2841C81.7824 89.2642 81.4891 89.2493 81.3002 89.2493C80.4053 89.2493 79.6396 89.7564 79.3612 90.5767H79.2817V89.3636H77.8449V97ZM87.1497 89.3636H85.5837V87.5341H84.0972V89.3636H82.9786V90.5568H84.0972V95.0661C84.0922 96.4531 85.1512 97.1243 86.3245 97.0994C86.7968 97.0945 87.1149 97.005 87.289 96.9403L87.0205 95.7124C86.9211 95.7322 86.7371 95.777 86.4985 95.777C86.0162 95.777 85.5837 95.6179 85.5837 94.7578V90.5568H87.1497V89.3636ZM88.7101 97H90.1966V92.3366C90.1966 91.3374 90.9672 90.6165 92.0212 90.6165C92.3294 90.6165 92.6774 90.6712 92.7967 90.706V89.2841C92.6476 89.2642 92.3543 89.2493 92.1654 89.2493C91.2705 89.2493 90.5048 89.7564 90.2264 90.5767H90.1469V89.3636H88.7101V97ZM96.1531 97.169C97.4159 97.169 98.1268 96.5277 98.4102 95.956H98.4699V97H99.9216V91.929C99.9216 89.7067 98.1716 89.2642 96.9585 89.2642C95.5764 89.2642 94.3037 89.821 93.8065 91.2131L95.2035 91.5312C95.4223 90.9893 95.9791 90.4673 96.9784 90.4673C97.9379 90.4673 98.4301 90.9695 98.4301 91.8345V91.8693C98.4301 92.4112 97.8733 92.4013 96.5011 92.5604C95.0544 92.7294 93.5728 93.1072 93.5728 94.8423C93.5728 96.3438 94.7014 97.169 96.1531 97.169ZM96.4762 95.9759C95.636 95.9759 95.0295 95.598 95.0295 94.8622C95.0295 94.0668 95.7355 93.7834 96.5956 93.669C97.0778 93.6044 98.2213 93.4751 98.4351 93.2614V94.2457C98.4351 95.1506 97.7142 95.9759 96.4762 95.9759ZM105.019 100.023C106.963 100.023 108.465 99.1328 108.465 97.169V89.3636H107.008V90.6016H106.898C106.635 90.1293 106.108 89.2642 104.686 89.2642C102.842 89.2642 101.484 90.7209 101.484 93.152C101.484 95.5881 102.871 96.8857 104.676 96.8857C106.078 96.8857 106.62 96.0952 106.889 95.608H106.983V97.1094C106.983 98.3075 106.163 98.8246 105.034 98.8246C103.796 98.8246 103.314 98.2031 103.05 97.7656L101.773 98.2926C102.175 99.2273 103.195 100.023 105.019 100.023ZM105.004 95.6527C103.677 95.6527 102.986 94.6335 102.986 93.1321C102.986 91.6655 103.662 90.527 105.004 90.527C106.302 90.527 106.998 91.5859 106.998 93.1321C106.998 94.7081 106.287 95.6527 105.004 95.6527Z" fill="#2D2F33"></path><rect x="32" y="200" width="93" height="24" rx="12" fill="#F7F8FA"></rect><circle cx="43" cy="212" r="3" fill="#29B8A5"></circle><path d="M51.7216 207.273H50.2983L53.4389 216H54.9602L58.1009 207.273H56.6776L54.2486 214.381H54.1506L51.7216 207.273ZM61.4237 216.132C62.8512 216.132 63.8612 215.429 64.1509 214.364L62.945 214.146C62.7148 214.764 62.1609 215.08 61.4364 215.08C60.3455 215.08 59.6126 214.372 59.5785 213.111H64.2319V212.659C64.2319 210.294 62.8171 209.369 61.3342 209.369C59.5103 209.369 58.3086 210.759 58.3086 212.77C58.3086 214.803 59.4933 216.132 61.4237 216.132ZM59.5827 212.156C59.6339 211.227 60.3072 210.422 61.3427 210.422C62.3313 210.422 62.979 211.155 62.9833 212.156H59.5827ZM65.6456 216H66.9197V212.003C66.9197 211.146 67.5803 210.528 68.4837 210.528C68.7479 210.528 69.0462 210.575 69.1484 210.605V209.386C69.0206 209.369 68.7692 209.357 68.6072 209.357C67.8402 209.357 67.1839 209.791 66.9453 210.494H66.8771V209.455H65.6456V216ZM70.2511 216H71.5252V211.964C71.5252 211.082 72.1431 210.469 72.8675 210.469C73.5749 210.469 74.065 210.938 74.065 211.649V216H75.3349V211.828C75.3349 211.04 75.8164 210.469 76.6474 210.469C77.3207 210.469 77.8746 210.844 77.8746 211.73V216H79.1488V211.611C79.1488 210.115 78.3136 209.369 77.1289 209.369C76.1871 209.369 75.4798 209.821 75.1644 210.52H75.0962C74.8107 209.804 74.2099 209.369 73.3363 209.369C72.4712 209.369 71.8278 209.8 71.555 210.52H71.4741V209.455H70.2511V216ZM80.8565 216H82.1307V209.455H80.8565V216ZM81.5 208.445C81.9389 208.445 82.3054 208.104 82.3054 207.686C82.3054 207.268 81.9389 206.923 81.5 206.923C81.0568 206.923 80.6946 207.268 80.6946 207.686C80.6946 208.104 81.0568 208.445 81.5 208.445ZM86.6658 216.132C88.0934 216.132 89.1033 215.429 89.3931 214.364L88.1871 214.146C87.957 214.764 87.4031 215.08 86.6786 215.08C85.5877 215.08 84.8548 214.372 84.8207 213.111H89.4741V212.659C89.4741 210.294 88.0593 209.369 86.5763 209.369C84.7525 209.369 83.5508 210.759 83.5508 212.77C83.5508 214.803 84.7354 216.132 86.6658 216.132ZM84.8249 212.156C84.8761 211.227 85.5494 210.422 86.5849 210.422C87.5735 210.422 88.2212 211.155 88.2255 212.156H84.8249ZM93.9432 209.455H92.6009V207.886H91.3267V209.455H90.3679V210.477H91.3267V214.342C91.3224 215.531 92.2301 216.107 93.2358 216.085C93.6406 216.081 93.9134 216.004 94.0625 215.949L93.8324 214.896C93.7472 214.913 93.5895 214.952 93.3849 214.952C92.9716 214.952 92.6009 214.815 92.6009 214.078V210.477H93.9432V209.455ZM99.4989 213.286C99.5032 214.398 98.6765 214.926 97.9606 214.926C97.1722 214.926 96.6268 214.355 96.6268 213.464V209.455H95.3526V213.618C95.3526 215.241 96.2433 216.085 97.5004 216.085C98.4847 216.085 99.1538 215.565 99.4563 214.866H99.5245V216H100.777V209.455H99.4989V213.286ZM103.763 212.114C103.763 211.07 104.403 210.473 105.289 210.473C106.154 210.473 106.678 211.04 106.678 211.99V216H107.952V211.837C107.952 210.217 107.062 209.369 105.724 209.369C104.739 209.369 104.096 209.825 103.793 210.52H103.712V209.455H102.489V216H103.763V212.114ZM112.406 218.591C114.072 218.591 115.359 217.828 115.359 216.145V209.455H114.11V210.516H114.016C113.79 210.111 113.339 209.369 112.12 209.369C110.539 209.369 109.376 210.618 109.376 212.702C109.376 214.79 110.565 215.902 112.112 215.902C113.313 215.902 113.778 215.224 114.008 214.807H114.089V216.094C114.089 217.121 113.386 217.564 112.418 217.564C111.357 217.564 110.944 217.031 110.718 216.656L109.623 217.108C109.968 217.909 110.842 218.591 112.406 218.591ZM112.393 214.845C111.255 214.845 110.663 213.972 110.663 212.685C110.663 211.428 111.242 210.452 112.393 210.452C113.505 210.452 114.102 211.359 114.102 212.685C114.102 214.036 113.492 214.845 112.393 214.845Z" fill="#696F80"></path><rect x="129" y="200" width="30" height="24" rx="12" fill="#F7F8FA"></rect><path d="M140.422 214.534H141.568V212.224H143.878V211.078H141.568V208.773H140.422V211.078H138.116V212.224H140.422V214.534ZM149.143 207.273H147.86L145.683 208.696V209.957L147.771 208.594H147.822V216H149.143V207.273Z" fill="#696F80"></path><rect x="16.5" y="16.5" width="167" height="223" rx="7.5" stroke="#EBECF0"></rect><rect x="192.5" y="16.5" width="167" height="223" rx="7.5" fill="white"></rect><path d="M224.821 60H214.975C214.54 60 214.122 59.8314 213.815 59.5314C213.507 59.2313 213.334 58.8243 213.334 58.4V37.6C213.334 37.1757 213.507 36.7687 213.815 36.4686C214.122 36.1686 214.54 36 214.975 36H226.603C227.038 36.0004 227.456 36.1692 227.763 36.4693L234.187 42.7317C234.339 42.8804 234.46 43.0568 234.543 43.251C234.625 43.4452 234.667 43.6533 234.667 43.8635V48.8" stroke="#D3D5DB" stroke-width="1.5" stroke-linecap="round" stroke-linejoin="round"></path><path d="M234.668 44H228.104C227.669 44 227.251 43.8314 226.944 43.5314C226.636 43.2313 226.463 42.8243 226.463 42.4V36" stroke="#D3D5DB" stroke-width="1.5" stroke-linecap="round" stroke-linejoin="round"></path><path d="M231.334 53.333V59.9997" stroke="#D3D5DB" stroke-width="1.5" stroke-linecap="round" stroke-linejoin="round"></path><path d="M228 53.333L234.667 53.333" stroke="#D3D5DB" stroke-width="1.5" stroke-linecap="round" stroke-linejoin="round"></path><path d="M230 60H232.661" stroke="#D3D5DB" stroke-width="1.5" stroke-linecap="round" stroke-linejoin="round"></path><path d="M209.119 97H210.655V93.8331L211.858 92.451L215.149 97H216.999L212.877 91.402L216.984 86.8182H215.05L210.779 91.6804H210.655V86.8182H209.119V97ZM222.571 93.8331C222.576 95.1307 221.611 95.7472 220.776 95.7472C219.857 95.7472 219.22 95.081 219.22 94.0419V89.3636H217.734V94.2209C217.734 96.1151 218.773 97.0994 220.239 97.0994C221.388 97.0994 222.168 96.4929 222.521 95.6776H222.601V97H224.062V89.3636H222.571V93.8331ZM227.462 92.4659C227.462 91.2479 228.208 90.5518 229.242 90.5518C230.251 90.5518 230.863 91.2131 230.863 92.3217V97H232.349V92.1428C232.349 90.2536 231.31 89.2642 229.749 89.2642C228.601 89.2642 227.85 89.7962 227.497 90.6065H227.403V89.3636H225.976V97H227.462V92.4659ZM237.118 97.1491C238.51 97.1491 239.057 96.299 239.325 95.8118H239.449V97H240.901V86.8182H239.415V90.6016H239.325C239.057 90.1293 238.549 89.2642 237.128 89.2642C235.283 89.2642 233.926 90.7209 233.926 93.1967C233.926 95.6676 235.263 97.1491 237.118 97.1491ZM237.446 95.8814C236.118 95.8814 235.427 94.7131 235.427 93.1818C235.427 91.6655 236.103 90.527 237.446 90.527C238.743 90.527 239.439 91.5859 239.439 93.1818C239.439 94.7876 238.728 95.8814 237.446 95.8814ZM246.23 97.1541C247.895 97.1541 249.074 96.3338 249.412 95.0909L248.005 94.8374C247.736 95.5582 247.09 95.9261 246.245 95.9261C244.972 95.9261 244.117 95.1009 244.077 93.6293H249.506V93.1023C249.506 90.343 247.856 89.2642 246.125 89.2642C243.998 89.2642 242.596 90.8849 242.596 93.2315C242.596 95.603 243.978 97.1541 246.23 97.1541ZM244.082 92.5156C244.142 91.4318 244.927 90.4922 246.135 90.4922C247.289 90.4922 248.045 91.3473 248.049 92.5156H244.082ZM252.558 92.4659C252.558 91.2479 253.304 90.5518 254.338 90.5518C255.347 90.5518 255.959 91.2131 255.959 92.3217V97H257.445V92.1428C257.445 90.2536 256.406 89.2642 254.845 89.2642C253.696 89.2642 252.946 89.7962 252.593 90.6065H252.498V89.3636H251.071V97H252.558V92.4659ZM265.614 89.3636H264.018L262.089 95.2401H262.009L260.076 89.3636H258.48L261.254 97H262.845L265.614 89.3636ZM269.945 97.1541C271.61 97.1541 272.788 96.3338 273.126 95.0909L271.72 94.8374C271.451 95.5582 270.805 95.9261 269.96 95.9261C268.687 95.9261 267.832 95.1009 267.792 93.6293H273.221V93.1023C273.221 90.343 271.57 89.2642 269.84 89.2642C267.712 89.2642 266.31 90.8849 266.31 93.2315C266.31 95.603 267.693 97.1541 269.945 97.1541ZM267.797 92.5156C267.857 91.4318 268.642 90.4922 269.85 90.4922C271.004 90.4922 271.759 91.3473 271.764 92.5156H267.797ZM274.786 97H276.273V92.3366C276.273 91.3374 277.043 90.6165 278.097 90.6165C278.406 90.6165 278.754 90.6712 278.873 90.706V89.2841C278.724 89.2642 278.43 89.2493 278.242 89.2493C277.347 89.2493 276.581 89.7564 276.303 90.5767H276.223V89.3636H274.786V97ZM284.091 89.3636H282.525V87.5341H281.039V89.3636H279.92V90.5568H281.039V95.0661C281.034 96.4531 282.093 97.1243 283.266 97.0994C283.738 97.0945 284.056 97.005 284.23 96.9403L283.962 95.7124C283.862 95.7322 283.678 95.777 283.44 95.777C282.958 95.777 282.525 95.6179 282.525 94.7578V90.5568H284.091V89.3636ZM285.651 97H287.138V92.3366C287.138 91.3374 287.909 90.6165 288.963 90.6165C289.271 90.6165 289.619 90.6712 289.738 90.706V89.2841C289.589 89.2642 289.296 89.2493 289.107 89.2493C288.212 89.2493 287.446 89.7564 287.168 90.5767H287.088V89.3636H285.651V97ZM293.094 97.169C294.357 97.169 295.068 96.5277 295.352 95.956H295.411V97H296.863V91.929C296.863 89.7067 295.113 89.2642 293.9 89.2642C292.518 89.2642 291.245 89.821 290.748 91.2131L292.145 91.5312C292.364 90.9893 292.92 90.4673 293.92 90.4673C294.879 90.4673 295.371 90.9695 295.371 91.8345V91.8693C295.371 92.4112 294.815 92.4013 293.442 92.5604C291.996 92.7294 290.514 93.1072 290.514 94.8423C290.514 96.3438 291.643 97.169 293.094 97.169ZM293.418 95.9759C292.577 95.9759 291.971 95.598 291.971 94.8622C291.971 94.0668 292.677 93.7834 293.537 93.669C294.019 93.6044 295.163 93.4751 295.376 93.2614V94.2457C295.376 95.1506 294.656 95.9759 293.418 95.9759ZM301.961 100.023C303.904 100.023 305.406 99.1328 305.406 97.169V89.3636H303.949V90.6016H303.84C303.576 90.1293 303.049 89.2642 301.627 89.2642C299.783 89.2642 298.426 90.7209 298.426 93.152C298.426 95.5881 299.813 96.8857 301.618 96.8857C303.02 96.8857 303.561 96.0952 303.83 95.608H303.924V97.1094C303.924 98.3075 303.104 98.8246 301.975 98.8246C300.738 98.8246 300.255 98.2031 299.992 97.7656L298.714 98.2926C299.117 99.2273 300.136 100.023 301.961 100.023ZM301.946 95.6527C300.618 95.6527 299.927 94.6335 299.927 93.1321C299.927 91.6655 300.603 90.527 301.946 90.527C303.243 90.527 303.939 91.5859 303.939 93.1321C303.939 94.7081 303.228 95.6527 301.946 95.6527Z" fill="#2D2F33"></path><rect x="208" y="200" width="73" height="24" rx="12" fill="#F7F8FA"></rect><circle cx="219" cy="212" r="3" fill="#9653E3"></circle><path d="M227.722 207.273H226.298L229.439 216H230.96L234.101 207.273H232.678L230.249 214.381H230.151L227.722 207.273ZM237.424 216.132C238.851 216.132 239.861 215.429 240.151 214.364L238.945 214.146C238.715 214.764 238.161 215.08 237.436 215.08C236.346 215.08 235.613 214.372 235.578 213.111H240.232V212.659C240.232 210.294 238.817 209.369 237.334 209.369C235.51 209.369 234.309 210.759 234.309 212.77C234.309 214.803 235.493 216.132 237.424 216.132ZM235.583 212.156C235.634 211.227 236.307 210.422 237.343 210.422C238.331 210.422 238.979 211.155 238.983 212.156H235.583ZM241.646 216H242.92V212.003C242.92 211.146 243.58 210.528 244.484 210.528C244.748 210.528 245.046 210.575 245.148 210.605V209.386C245.021 209.369 244.769 209.357 244.607 209.357C243.84 209.357 243.184 209.791 242.945 210.494H242.877V209.455H241.646V216ZM249.693 209.455H248.351V207.886H247.077V209.455H246.118V210.477H247.077V214.342C247.072 215.531 247.98 216.107 248.986 216.085C249.391 216.081 249.663 216.004 249.812 215.949L249.582 214.896C249.497 214.913 249.339 214.952 249.135 214.952C248.722 214.952 248.351 214.815 248.351 214.078V210.477H249.693V209.455ZM251.103 216H252.377V212.003C252.377 211.146 253.037 210.528 253.941 210.528C254.205 210.528 254.503 210.575 254.605 210.605V209.386C254.478 209.369 254.226 209.357 254.064 209.357C253.297 209.357 252.641 209.791 252.402 210.494H252.334V209.455H251.103V216ZM255.708 216H256.982V209.455H255.708V216ZM256.352 208.445C256.79 208.445 257.157 208.104 257.157 207.686C257.157 207.268 256.79 206.923 256.352 206.923C255.908 206.923 255.546 207.268 255.546 207.686C255.546 208.104 255.908 208.445 256.352 208.445ZM261.517 216.132C262.945 216.132 263.955 215.429 264.245 214.364L263.039 214.146C262.809 214.764 262.255 215.08 261.53 215.08C260.439 215.08 259.706 214.372 259.672 213.111H264.326V212.659C264.326 210.294 262.911 209.369 261.428 209.369C259.604 209.369 258.402 210.759 258.402 212.77C258.402 214.803 259.587 216.132 261.517 216.132ZM259.676 212.156C259.728 211.227 260.401 210.422 261.436 210.422C262.425 210.422 263.073 211.155 263.077 212.156H259.676ZM265.842 216H267.086V214.982H267.192C267.423 215.399 267.891 216.128 269.085 216.128C270.67 216.128 271.82 214.858 271.82 212.74C271.82 210.618 270.653 209.369 269.072 209.369C267.857 209.369 267.418 210.111 267.192 210.516H267.116V207.273H265.842V216ZM267.09 212.727C267.09 211.359 267.687 210.452 268.799 210.452C269.954 210.452 270.533 211.428 270.533 212.727C270.533 214.04 269.937 215.041 268.799 215.041C267.704 215.041 267.09 214.104 267.09 212.727Z" fill="#696F80"></path><rect x="192.5" y="16.5" width="167" height="223" rx="7.5" stroke="#EBECF0"></rect><rect x="368.5" y="16.5" width="167" height="223" rx="7.5" fill="white"></rect><path d="M400.821 60H390.975C390.54 60 390.122 59.8314 389.815 59.5314C389.507 59.2313 389.334 58.8243 389.334 58.4V37.6C389.334 37.1757 389.507 36.7687 389.815 36.4686C390.122 36.1686 390.54 36 390.975 36H402.603C403.038 36.0004 403.456 36.1692 403.763 36.4693L410.187 42.7317C410.339 42.8804 410.46 43.0568 410.543 43.251C410.625 43.4452 410.667 43.6533 410.667 43.8635V48.8" stroke="#D3D5DB" stroke-width="1.5" stroke-linecap="round" stroke-linejoin="round"></path><path d="M410.668 44H404.104C403.669 44 403.251 43.8314 402.944 43.5314C402.636 43.2313 402.463 42.8243 402.463 42.4V36" stroke="#D3D5DB" stroke-width="1.5" stroke-linecap="round" stroke-linejoin="round"></path><path d="M407.334 53.333V59.9997" stroke="#D3D5DB" stroke-width="1.5" stroke-linecap="round" stroke-linejoin="round"></path><path d="M404 53.333L410.667 53.333" stroke="#D3D5DB" stroke-width="1.5" stroke-linecap="round" stroke-linejoin="round"></path><path d="M406 60H408.661" stroke="#D3D5DB" stroke-width="1.5" stroke-linecap="round" stroke-linejoin="round"></path><path d="M385.979 97L386.913 94.3054H390.891L391.82 97H393.451L389.787 86.8182H388.012L384.348 97H385.979ZM387.361 93.0128L388.862 88.6676H388.942L390.443 93.0128H387.361ZM394.718 97H396.205V92.3366C396.205 91.3374 396.975 90.6165 398.029 90.6165C398.337 90.6165 398.685 90.6712 398.805 90.706V89.2841C398.656 89.2642 398.362 89.2493 398.173 89.2493C397.278 89.2493 396.513 89.7564 396.234 90.5767H396.155V89.3636H394.718V97ZM400.126 97H401.578V95.8118H401.702C401.971 96.299 402.518 97.1491 403.91 97.1491C405.759 97.1491 407.102 95.6676 407.102 93.1967C407.102 90.7209 405.739 89.2642 403.895 89.2642C402.478 89.2642 401.966 90.1293 401.702 90.6016H401.613V86.8182H400.126V97ZM401.583 93.1818C401.583 91.5859 402.279 90.527 403.577 90.527C404.924 90.527 405.6 91.6655 405.6 93.1818C405.6 94.7131 404.904 95.8814 403.577 95.8814C402.299 95.8814 401.583 94.7876 401.583 93.1818ZM411.978 97.1541C413.643 97.1541 414.822 96.3338 415.16 95.0909L413.753 94.8374C413.484 95.5582 412.838 95.9261 411.993 95.9261C410.72 95.9261 409.865 95.1009 409.825 93.6293H415.254V93.1023C415.254 90.343 413.604 89.2642 411.874 89.2642C409.746 89.2642 408.344 90.8849 408.344 93.2315C408.344 95.603 409.726 97.1541 411.978 97.1541ZM409.83 92.5156C409.89 91.4318 410.675 90.4922 411.883 90.4922C413.037 90.4922 413.793 91.3473 413.798 92.5156H409.83ZM416.82 97H418.306V89.3636H416.82V97ZM417.57 88.1854C418.082 88.1854 418.51 87.7876 418.51 87.3004C418.51 86.8132 418.082 86.4105 417.57 86.4105C417.053 86.4105 416.631 86.8132 416.631 87.3004C416.631 87.7876 417.053 88.1854 417.57 88.1854ZM423.787 89.3636H422.22V87.5341H420.734V89.3636H419.615V90.5568H420.734V95.0661C420.729 96.4531 421.788 97.1243 422.961 97.0994C423.434 97.0945 423.752 97.005 423.926 96.9403L423.657 95.7124C423.558 95.7322 423.374 95.777 423.135 95.777C422.653 95.777 422.22 95.6179 422.22 94.7578V90.5568H423.787V89.3636ZM430.946 91.228C430.638 90.0398 429.708 89.2642 428.058 89.2642C426.332 89.2642 425.109 90.174 425.109 91.5263C425.109 92.6101 425.766 93.331 427.198 93.6491L428.49 93.9325C429.226 94.0966 429.569 94.4247 429.569 94.902C429.569 95.4936 428.938 95.956 427.963 95.956C427.073 95.956 426.502 95.5732 426.323 94.8224L424.886 95.0412C425.134 96.3935 426.258 97.1541 427.973 97.1541C429.818 97.1541 431.095 96.1747 431.095 94.7926C431.095 93.7138 430.409 93.0476 429.007 92.7244L427.794 92.446C426.954 92.2472 426.591 91.9638 426.596 91.4467C426.591 90.8601 427.227 90.4425 428.073 90.4425C428.997 90.4425 429.425 90.9545 429.599 91.4666L430.946 91.228ZM439.178 89.3636H437.582L435.653 95.2401H435.574L433.64 89.3636H432.044L434.818 97H436.409L439.178 89.3636ZM443.509 97.1541C445.175 97.1541 446.353 96.3338 446.691 95.0909L445.284 94.8374C445.015 95.5582 444.369 95.9261 443.524 95.9261C442.251 95.9261 441.396 95.1009 441.356 93.6293H446.785V93.1023C446.785 90.343 445.135 89.2642 443.405 89.2642C441.277 89.2642 439.875 90.8849 439.875 93.2315C439.875 95.603 441.257 97.1541 443.509 97.1541ZM441.361 92.5156C441.421 91.4318 442.207 90.4922 443.415 90.4922C444.568 90.4922 445.324 91.3473 445.329 92.5156H441.361ZM448.351 97H449.837V92.3366C449.837 91.3374 450.608 90.6165 451.662 90.6165C451.97 90.6165 452.318 90.6712 452.437 90.706V89.2841C452.288 89.2642 451.995 89.2493 451.806 89.2493C450.911 89.2493 450.145 89.7564 449.867 90.5767H449.788V89.3636H448.351V97ZM457.656 89.3636H456.09V87.5341H454.603V89.3636H453.484V90.5568H454.603V95.0661C454.598 96.4531 455.657 97.1243 456.83 97.0994C457.303 97.0945 457.621 97.005 457.795 96.9403L457.526 95.7124C457.427 95.7322 457.243 95.777 457.004 95.777C456.522 95.777 456.09 95.6179 456.09 94.7578V90.5568H457.656V89.3636ZM459.216 97H460.702V92.3366C460.702 91.3374 461.473 90.6165 462.527 90.6165C462.835 90.6165 463.183 90.6712 463.303 90.706V89.2841C463.153 89.2642 462.86 89.2493 462.671 89.2493C461.776 89.2493 461.011 89.7564 460.732 90.5767H460.653V89.3636H459.216V97ZM466.659 97.169C467.922 97.169 468.633 96.5277 468.916 95.956H468.976V97H470.427V91.929C470.427 89.7067 468.677 89.2642 467.464 89.2642C466.082 89.2642 464.809 89.821 464.312 91.2131L465.709 91.5312C465.928 90.9893 466.485 90.4673 467.484 90.4673C468.444 90.4673 468.936 90.9695 468.936 91.8345V91.8693C468.936 92.4112 468.379 92.4013 467.007 92.5604C465.56 92.7294 464.079 93.1072 464.079 94.8423C464.079 96.3438 465.207 97.169 466.659 97.169ZM466.982 95.9759C466.142 95.9759 465.535 95.598 465.535 94.8622C465.535 94.0668 466.241 93.7834 467.101 93.669C467.584 93.6044 468.727 93.4751 468.941 93.2614V94.2457C468.941 95.1506 468.22 95.9759 466.982 95.9759ZM475.525 100.023C477.469 100.023 478.97 99.1328 478.97 97.169V89.3636H477.514V90.6016H477.404C477.141 90.1293 476.614 89.2642 475.192 89.2642C473.347 89.2642 471.99 90.7209 471.99 93.152C471.99 95.5881 473.377 96.8857 475.182 96.8857C476.584 96.8857 477.126 96.0952 477.394 95.608H477.489V97.1094C477.489 98.3075 476.668 98.8246 475.54 98.8246C474.302 98.8246 473.82 98.2031 473.556 97.7656L472.279 98.2926C472.681 99.2273 473.7 100.023 475.525 100.023ZM475.51 95.6527C474.183 95.6527 473.492 94.6335 473.492 93.1321C473.492 91.6655 474.168 90.527 475.51 90.527C476.808 90.527 477.504 91.5859 477.504 93.1321C477.504 94.7081 476.793 95.6527 475.51 95.6527ZM385.432 116.774C385.432 119.27 386.098 121.348 387.361 123.118H388.723C387.744 121.805 386.973 119.141 386.973 116.774C386.973 114.413 387.744 111.748 388.723 110.435H387.361C386.098 112.205 385.432 114.283 385.432 116.774ZM393.841 113.364H392.195V112.678C392.195 112.001 392.473 111.634 393.199 111.634C393.507 111.634 393.726 111.703 393.865 111.748L394.213 110.545C394.005 110.465 393.572 110.341 392.971 110.341C391.762 110.341 390.703 111.047 390.703 112.479V113.364H389.525V114.557H390.703V121H392.195V114.557H393.841V113.364ZM398.281 121.154C399.946 121.154 401.124 120.334 401.463 119.091L400.056 118.837C399.787 119.558 399.141 119.926 398.296 119.926C397.023 119.926 396.168 119.101 396.128 117.629H401.557V117.102C401.557 114.343 399.906 113.264 398.176 113.264C396.048 113.264 394.646 114.885 394.646 117.232C394.646 119.603 396.029 121.154 398.281 121.154ZM396.133 116.516C396.193 115.432 396.978 114.492 398.186 114.492C399.34 114.492 400.095 115.347 400.1 116.516H396.133ZM408.845 115.228C408.536 114.04 407.607 113.264 405.956 113.264C404.231 113.264 403.008 114.174 403.008 115.526C403.008 116.61 403.664 117.331 405.096 117.649L406.389 117.933C407.124 118.097 407.467 118.425 407.467 118.902C407.467 119.494 406.836 119.956 405.862 119.956C404.972 119.956 404.4 119.573 404.221 118.822L402.784 119.041C403.033 120.393 404.156 121.154 405.872 121.154C407.716 121.154 408.994 120.175 408.994 118.793C408.994 117.714 408.308 117.048 406.906 116.724L405.693 116.446C404.852 116.247 404.489 115.964 404.494 115.447C404.489 114.86 405.126 114.442 405.971 114.442C406.896 114.442 407.323 114.955 407.497 115.467L408.845 115.228ZM414.109 113.364H412.543V111.534H411.056V113.364H409.938V114.557H411.056V119.066C411.051 120.453 412.11 121.124 413.283 121.099C413.756 121.094 414.074 121.005 414.248 120.94L413.98 119.712C413.88 119.732 413.696 119.777 413.458 119.777C412.975 119.777 412.543 119.618 412.543 118.758V114.557H414.109V113.364ZM418.878 121.154C420.544 121.154 421.722 120.334 422.06 119.091L420.653 118.837C420.385 119.558 419.738 119.926 418.893 119.926C417.62 119.926 416.765 119.101 416.726 117.629H422.155V117.102C422.155 114.343 420.504 113.264 418.774 113.264C416.646 113.264 415.244 114.885 415.244 117.232C415.244 119.603 416.626 121.154 418.878 121.154ZM416.731 116.516C416.79 115.432 417.576 114.492 418.784 114.492C419.937 114.492 420.693 115.347 420.698 116.516H416.731ZM428.35 110.818H426.69L430.354 121H432.129L435.793 110.818H434.132L431.298 119.111H431.184L428.35 110.818ZM439.585 121.154C441.251 121.154 442.429 120.334 442.767 119.091L441.36 118.837C441.092 119.558 440.445 119.926 439.6 119.926C438.327 119.926 437.472 119.101 437.433 117.629H442.862V117.102C442.862 114.343 441.211 113.264 439.481 113.264C437.353 113.264 435.951 114.885 435.951 117.232C435.951 119.603 437.333 121.154 439.585 121.154ZM437.438 116.516C437.497 115.432 438.283 114.492 439.491 114.492C440.644 114.492 441.4 115.347 441.405 116.516H437.438ZM444.427 121H445.913V116.337C445.913 115.337 446.684 114.616 447.738 114.616C448.046 114.616 448.394 114.671 448.514 114.706V113.284C448.364 113.264 448.071 113.249 447.882 113.249C446.987 113.249 446.222 113.756 445.943 114.577H445.864V113.364H444.427V121ZM452.644 124.023C454.588 124.023 456.09 123.133 456.09 121.169V113.364H454.633V114.602H454.523C454.26 114.129 453.733 113.264 452.311 113.264C450.467 113.264 449.109 114.721 449.109 117.152C449.109 119.588 450.496 120.886 452.301 120.886C453.703 120.886 454.245 120.095 454.514 119.608H454.608V121.109C454.608 122.308 453.788 122.825 452.659 122.825C451.421 122.825 450.939 122.203 450.675 121.766L449.398 122.293C449.8 123.227 450.82 124.023 452.644 124.023ZM452.629 119.653C451.302 119.653 450.611 118.634 450.611 117.132C450.611 115.665 451.287 114.527 452.629 114.527C453.927 114.527 454.623 115.586 454.623 117.132C454.623 118.708 453.912 119.653 452.629 119.653ZM462.836 117.833C462.841 119.131 461.877 119.747 461.042 119.747C460.122 119.747 459.486 119.081 459.486 118.042V113.364H457.999V118.221C457.999 120.115 459.038 121.099 460.505 121.099C461.653 121.099 462.434 120.493 462.787 119.678H462.866V121H464.328V113.364H462.836V117.833ZM459.714 112.165C460.211 112.165 460.589 111.763 460.589 111.3C460.589 110.808 460.211 110.43 459.714 110.43C459.247 110.43 458.834 110.808 458.834 111.3C458.834 111.763 459.247 112.165 459.714 112.165ZM462.638 112.165C463.135 112.165 463.513 111.763 463.513 111.3C463.513 110.808 463.135 110.43 462.638 110.43C462.17 110.43 461.758 110.808 461.758 111.3C461.758 111.763 462.17 112.165 462.638 112.165ZM469.806 113.364H468.24V111.534H466.753V113.364H465.635V114.557H466.753V119.066C466.748 120.453 467.807 121.124 468.981 121.099C469.453 121.094 469.771 121.005 469.945 120.94L469.677 119.712C469.577 119.732 469.393 119.777 469.155 119.777C468.672 119.777 468.24 119.618 468.24 118.758V114.557H469.806V113.364ZM476.204 117.833C476.209 119.131 475.244 119.747 474.409 119.747C473.489 119.747 472.853 119.081 472.853 118.042V113.364H471.366V118.221C471.366 120.115 472.405 121.099 473.872 121.099C475.02 121.099 475.801 120.493 476.154 119.678H476.233V121H477.695V113.364H476.204V117.833ZM481.095 116.466C481.095 115.248 481.841 114.552 482.875 114.552C483.884 114.552 484.496 115.213 484.496 116.322V121H485.982V116.143C485.982 114.254 484.943 113.264 483.382 113.264C482.233 113.264 481.483 113.796 481.13 114.607H481.035V113.364H479.608V121H481.095V116.466ZM491.093 124.023C493.037 124.023 494.539 123.133 494.539 121.169V113.364H493.082V114.602H492.973C492.709 114.129 492.182 113.264 490.76 113.264C488.916 113.264 487.559 114.721 487.559 117.152C487.559 119.588 488.946 120.886 490.75 120.886C492.152 120.886 492.694 120.095 492.963 119.608H493.057V121.109C493.057 122.308 492.237 122.825 491.108 122.825C489.87 122.825 489.388 122.203 489.125 121.766L487.847 122.293C488.25 123.227 489.269 124.023 491.093 124.023ZM491.078 119.653C489.751 119.653 489.06 118.634 489.06 117.132C489.06 115.665 489.736 114.527 491.078 114.527C492.376 114.527 493.072 115.586 493.072 117.132C493.072 118.708 492.361 119.653 491.078 119.653ZM499.307 116.779C499.307 114.283 498.641 112.205 497.378 110.435H496.016C496.995 111.748 497.766 114.413 497.766 116.779C497.766 119.141 496.995 121.805 496.016 123.118H497.378C498.641 121.348 499.307 119.27 499.307 116.779Z" fill="#2D2F33"></path><rect x="384" y="200" width="43" height="24" rx="12" fill="#F7F8FA"></rect><circle cx="395" cy="212" r="3" fill="#EBA63D"></circle><path d="M402.959 216H404.276V212.195H408.626V216H409.947V207.273H408.626V211.065H404.276V207.273H402.959V216ZM411.865 216H413.182V212.697H414.972C415.001 212.697 415.027 212.697 415.057 212.697L416.83 216H418.33L416.395 212.467C417.464 212.071 417.997 211.18 417.997 210.009C417.997 208.402 417 207.273 414.976 207.273H411.865V216ZM413.182 211.564V208.402H414.835C416.135 208.402 416.672 209.02 416.672 210.009C416.672 210.993 416.135 211.564 414.852 211.564H413.182Z" fill="#696F80"></path><rect x="368.5" y="16.5" width="167" height="223" rx="7.5" stroke="#EBECF0"></rect><rect x="16.5" y="248.5" width="167" height="223" rx="7.5" fill="white"></rect><path d="M48.8212 292H38.975C38.5398 292 38.1224 291.831 37.8146 291.531C37.5069 291.231 37.334 290.824 37.334 290.4V269.6C37.334 269.176 37.5069 268.769 37.8146 268.469C38.1224 268.169 38.5398 268 38.975 268H50.6033C51.0384 268 51.4555 268.169 51.763 268.469L58.187 274.732C58.3394 274.88 58.4602 275.057 58.5426 275.251C58.625 275.445 58.6674 275.653 58.6673 275.863V280.8" stroke="#D3D5DB" stroke-width="1.5" stroke-linecap="round" stroke-linejoin="round"></path><path d="M58.668 276H52.1039C51.6687 276 51.2513 275.831 50.9435 275.531C50.6358 275.231 50.4629 274.824 50.4629 274.4V268" stroke="#D3D5DB" stroke-width="1.5" stroke-linecap="round" stroke-linejoin="round"></path><path d="M55.334 285.333V292" stroke="#D3D5DB" stroke-width="1.5" stroke-linecap="round" stroke-linejoin="round"></path><path d="M52 285.333L58.6667 285.333" stroke="#D3D5DB" stroke-width="1.5" stroke-linecap="round" stroke-linejoin="round"></path><path d="M54 292H56.6612" stroke="#D3D5DB" stroke-width="1.5" stroke-linecap="round" stroke-linejoin="round"></path><path d="M33.1186 329H39.2685V327.678H34.6548V318.818H33.1186V329ZM40.8176 329H42.3041V321.364H40.8176V329ZM41.5683 320.185C42.0804 320.185 42.508 319.788 42.508 319.3C42.508 318.813 42.0804 318.411 41.5683 318.411C41.0513 318.411 40.6287 318.813 40.6287 319.3C40.6287 319.788 41.0513 320.185 41.5683 320.185ZM44.0609 329H50.1908V327.707H46.0744V327.638L50.0516 322.447V321.364H44.1951V322.656H48.1972V322.726L44.0609 327.981V329ZM54.933 329.154C56.5985 329.154 57.7768 328.334 58.1148 327.091L56.7079 326.837C56.4394 327.558 55.7931 327.926 54.9479 327.926C53.6752 327.926 52.8201 327.101 52.7803 325.629H58.2093V325.102C58.2093 322.343 56.5587 321.264 54.8286 321.264C52.7008 321.264 51.2988 322.885 51.2988 325.232C51.2988 327.603 52.6809 329.154 54.933 329.154ZM52.7853 324.516C52.8449 323.432 53.6305 322.492 54.8386 322.492C55.992 322.492 56.7476 323.347 56.7526 324.516H52.7853ZM61.2611 324.466C61.2611 323.248 62.0069 322.552 63.041 322.552C64.0502 322.552 64.6617 323.213 64.6617 324.322V329H66.1482V324.143C66.1482 322.254 65.1091 321.264 63.5481 321.264C62.3996 321.264 61.6489 321.796 61.2959 322.607H61.2015V321.364H59.7746V329H61.2611V324.466ZM67.8987 329H74.0287V327.707H69.9122V327.638L73.8895 322.447V321.364H68.0329V322.656H72.0351V322.726L67.8987 327.981V329ZM82.2311 321.364H80.6352L78.7062 327.24H78.6267L76.6927 321.364H75.0969L77.871 329H79.4619L82.2311 321.364ZM86.5619 329.154C88.2273 329.154 89.4056 328.334 89.7437 327.091L88.3367 326.837C88.0682 327.558 87.4219 327.926 86.5768 327.926C85.304 327.926 84.4489 327.101 84.4092 325.629H89.8381V325.102C89.8381 322.343 88.1876 321.264 86.4575 321.264C84.3296 321.264 82.9276 322.885 82.9276 325.232C82.9276 327.603 84.3097 329.154 86.5619 329.154ZM84.4141 324.516C84.4738 323.432 85.2593 322.492 86.4674 322.492C87.6208 322.492 88.3765 323.347 88.3815 324.516H84.4141ZM91.4035 329H92.89V324.337C92.89 323.337 93.6606 322.616 94.7145 322.616C95.0228 322.616 95.3708 322.671 95.4901 322.706V321.284C95.341 321.264 95.0476 321.249 94.8587 321.249C93.9638 321.249 93.1982 321.756 92.9198 322.577H92.8403V321.364H91.4035V329ZM100.708 321.364H99.1423V319.534H97.6558V321.364H96.5371V322.557H97.6558V327.066C97.6508 328.453 98.7097 329.124 99.883 329.099C100.355 329.094 100.674 329.005 100.848 328.94L100.579 327.712C100.48 327.732 100.296 327.777 100.057 327.777C99.5748 327.777 99.1423 327.618 99.1423 326.758V322.557H100.708V321.364ZM102.269 329H103.755V324.337C103.755 323.337 104.526 322.616 105.58 322.616C105.888 322.616 106.236 322.671 106.355 322.706V321.284C106.206 321.264 105.913 321.249 105.724 321.249C104.829 321.249 104.063 321.756 103.785 322.577H103.705V321.364H102.269V329ZM109.712 329.169C110.974 329.169 111.685 328.528 111.969 327.956H112.028V329H113.48V323.929C113.48 321.707 111.73 321.264 110.517 321.264C109.135 321.264 107.862 321.821 107.365 323.213L108.762 323.531C108.981 322.989 109.538 322.467 110.537 322.467C111.496 322.467 111.989 322.969 111.989 323.835V323.869C111.989 324.411 111.432 324.401 110.06 324.56C108.613 324.729 107.131 325.107 107.131 326.842C107.131 328.344 108.26 329.169 109.712 329.169ZM110.035 327.976C109.195 327.976 108.588 327.598 108.588 326.862C108.588 326.067 109.294 325.783 110.154 325.669C110.636 325.604 111.78 325.475 111.994 325.261V326.246C111.994 327.151 111.273 327.976 110.035 327.976ZM118.578 332.023C120.522 332.023 122.023 331.133 122.023 329.169V321.364H120.566V322.602H120.457C120.194 322.129 119.667 321.264 118.245 321.264C116.4 321.264 115.043 322.721 115.043 325.152C115.043 327.588 116.43 328.886 118.235 328.886C119.637 328.886 120.179 328.095 120.447 327.608H120.542V329.109C120.542 330.308 119.721 330.825 118.593 330.825C117.355 330.825 116.873 330.203 116.609 329.766L115.331 330.293C115.734 331.227 116.753 332.023 118.578 332.023ZM118.563 327.653C117.235 327.653 116.544 326.634 116.544 325.132C116.544 323.665 117.221 322.527 118.563 322.527C119.86 322.527 120.556 323.586 120.556 325.132C120.556 326.708 119.846 327.653 118.563 327.653Z" fill="#2D2F33"></path><rect x="16.5" y="248.5" width="167" height="223" rx="7.5" stroke="#EBECF0"></rect><rect x="192.5" y="248.5" width="167" height="223" rx="7.5" fill="white"></rect><path d="M224.821 292H214.975C214.54 292 214.122 291.831 213.815 291.531C213.507 291.231 213.334 290.824 213.334 290.4V269.6C213.334 269.176 213.507 268.769 213.815 268.469C214.122 268.169 214.54 268 214.975 268H226.603C227.038 268 227.456 268.169 227.763 268.469L234.187 274.732C234.339 274.88 234.46 275.057 234.543 275.251C234.625 275.445 234.667 275.653 234.667 275.863V280.8" stroke="#D3D5DB" stroke-width="1.5" stroke-linecap="round" stroke-linejoin="round"></path><path d="M234.668 276H228.104C227.669 276 227.251 275.831 226.944 275.531C226.636 275.231 226.463 274.824 226.463 274.4V268" stroke="#D3D5DB" stroke-width="1.5" stroke-linecap="round" stroke-linejoin="round"></path><path d="M231.334 285.333V292" stroke="#D3D5DB" stroke-width="1.5" stroke-linecap="round" stroke-linejoin="round"></path><path d="M228 285.333L234.667 285.333" stroke="#D3D5DB" stroke-width="1.5" stroke-linecap="round" stroke-linejoin="round"></path><path d="M230 292H232.661" stroke="#D3D5DB" stroke-width="1.5" stroke-linecap="round" stroke-linejoin="round"></path><path d="M209.119 329H215.268V327.678H210.655V318.818H209.119V329ZM216.818 329H218.304V321.364H216.818V329ZM217.568 320.185C218.08 320.185 218.508 319.788 218.508 319.3C218.508 318.813 218.08 318.411 217.568 318.411C217.051 318.411 216.629 318.813 216.629 319.3C216.629 319.788 217.051 320.185 217.568 320.185ZM223.511 329.154C225.177 329.154 226.355 328.334 226.693 327.091L225.286 326.837C225.018 327.558 224.371 327.926 223.526 327.926C222.253 327.926 221.398 327.101 221.358 325.629H226.787V325.102C226.787 322.343 225.137 321.264 223.407 321.264C221.279 321.264 219.877 322.885 219.877 325.232C219.877 327.603 221.259 329.154 223.511 329.154ZM221.363 324.516C221.423 323.432 222.209 322.492 223.417 322.492C224.57 322.492 225.326 323.347 225.331 324.516H221.363ZM231.987 321.364H230.341V320.678C230.341 320.001 230.62 319.634 231.346 319.634C231.654 319.634 231.873 319.703 232.012 319.748L232.36 318.545C232.151 318.465 231.719 318.341 231.117 318.341C229.909 318.341 228.85 319.047 228.85 320.479V321.364H227.672V322.557H228.85V329H230.341V322.557H231.987V321.364ZM236.427 329.154C238.093 329.154 239.271 328.334 239.609 327.091L238.202 326.837C237.934 327.558 237.287 327.926 236.442 327.926C235.169 327.926 234.314 327.101 234.274 325.629H239.703V325.102C239.703 322.343 238.053 321.264 236.323 321.264C234.195 321.264 232.793 322.885 232.793 325.232C232.793 327.603 234.175 329.154 236.427 329.154ZM234.279 324.516C234.339 323.432 235.125 322.492 236.333 322.492C237.486 322.492 238.242 323.347 238.247 324.516H234.279ZM241.269 329H242.755V324.337C242.755 323.337 243.526 322.616 244.58 322.616C244.888 322.616 245.236 322.671 245.355 322.706V321.284C245.206 321.264 244.913 321.249 244.724 321.249C243.829 321.249 243.063 321.756 242.785 322.577H242.706V321.364H241.269V329ZM248.712 329.169C249.975 329.169 250.685 328.528 250.969 327.956H251.028V329H252.48V323.929C252.48 321.707 250.73 321.264 249.517 321.264C248.135 321.264 246.862 321.821 246.365 323.213L247.762 323.531C247.981 322.989 248.538 322.467 249.537 322.467C250.497 322.467 250.989 322.969 250.989 323.835V323.869C250.989 324.411 250.432 324.401 249.06 324.56C247.613 324.729 246.131 325.107 246.131 326.842C246.131 328.344 247.26 329.169 248.712 329.169ZM249.035 327.976C248.195 327.976 247.588 327.598 247.588 326.862C247.588 326.067 248.294 325.783 249.154 325.669C249.636 325.604 250.78 325.475 250.994 325.261V326.246C250.994 327.151 250.273 327.976 249.035 327.976ZM255.863 324.466C255.863 323.248 256.608 322.552 257.642 322.552C258.652 322.552 259.263 323.213 259.263 324.322V329H260.75V324.143C260.75 322.254 259.711 321.264 258.15 321.264C257.001 321.264 256.25 321.796 255.897 322.607H255.803V321.364H254.376V329H255.863V324.466ZM266.224 321.364H264.658V319.534H263.171V321.364H262.053V322.557H263.171V327.066C263.166 328.453 264.225 329.124 265.399 329.099C265.871 329.094 266.189 329.005 266.363 328.94L266.095 327.712C265.995 327.732 265.811 327.777 265.573 327.777C265.09 327.777 264.658 327.618 264.658 326.758V322.557H266.224V321.364ZM270.993 329.154C272.659 329.154 273.837 328.334 274.175 327.091L272.768 326.837C272.5 327.558 271.854 327.926 271.008 327.926C269.736 327.926 268.881 327.101 268.841 325.629H274.27V325.102C274.27 322.343 272.619 321.264 270.889 321.264C268.761 321.264 267.359 322.885 267.359 325.232C267.359 327.603 268.741 329.154 270.993 329.154ZM268.846 324.516C268.905 323.432 269.691 322.492 270.899 322.492C272.052 322.492 272.808 323.347 272.813 324.516H268.846ZM277.322 324.466C277.322 323.248 278.067 322.552 279.101 322.552C280.111 322.552 280.722 323.213 280.722 324.322V329H282.209V324.143C282.209 322.254 281.17 321.264 279.609 321.264C278.46 321.264 277.709 321.796 277.356 322.607H277.262V321.364H275.835V329H277.322V324.466ZM290.377 321.364H288.782L286.853 327.24H286.773L284.839 321.364H283.243L286.017 329H287.608L290.377 321.364ZM294.708 329.154C296.374 329.154 297.552 328.334 297.89 327.091L296.483 326.837C296.215 327.558 295.568 327.926 294.723 327.926C293.45 327.926 292.595 327.101 292.556 325.629H297.985V325.102C297.985 322.343 296.334 321.264 294.604 321.264C292.476 321.264 291.074 322.885 291.074 325.232C291.074 327.603 292.456 329.154 294.708 329.154ZM292.561 324.516C292.62 323.432 293.406 322.492 294.614 322.492C295.767 322.492 296.523 323.347 296.528 324.516H292.561ZM299.55 329H301.036V324.337C301.036 323.337 301.807 322.616 302.861 322.616C303.169 322.616 303.517 322.671 303.637 322.706V321.284C303.487 321.264 303.194 321.249 303.005 321.249C302.11 321.249 301.345 321.756 301.066 322.577H300.987V321.364H299.55V329ZM308.855 321.364H307.289V319.534H305.802V321.364H304.684V322.557H305.802V327.066C305.797 328.453 306.856 329.124 308.029 329.099C308.502 329.094 308.82 329.005 308.994 328.94L308.725 327.712C308.626 327.732 308.442 327.777 308.203 327.777C307.721 327.777 307.289 327.618 307.289 326.758V322.557H308.855V321.364ZM310.415 329H311.902V324.337C311.902 323.337 312.672 322.616 313.726 322.616C314.034 322.616 314.382 322.671 314.502 322.706V321.284C314.353 321.264 314.059 321.249 313.87 321.249C312.975 321.249 312.21 321.756 311.931 322.577H311.852V321.364H310.415V329ZM317.858 329.169C319.121 329.169 319.832 328.528 320.115 327.956H320.175V329H321.627V323.929C321.627 321.707 319.877 321.264 318.663 321.264C317.281 321.264 316.009 321.821 315.511 323.213L316.908 323.531C317.127 322.989 317.684 322.467 318.683 322.467C319.643 322.467 320.135 322.969 320.135 323.835V323.869C320.135 324.411 319.578 324.401 318.206 324.56C316.759 324.729 315.278 325.107 315.278 326.842C315.278 328.344 316.406 329.169 317.858 329.169ZM318.181 327.976C317.341 327.976 316.734 327.598 316.734 326.862C316.734 326.067 317.44 325.783 318.301 325.669C318.783 325.604 319.926 325.475 320.14 325.261V326.246C320.14 327.151 319.419 327.976 318.181 327.976ZM326.724 332.023C328.668 332.023 330.169 331.133 330.169 329.169V321.364H328.713V322.602H328.603C328.34 322.129 327.813 321.264 326.391 321.264C324.547 321.264 323.189 322.721 323.189 325.152C323.189 327.588 324.576 328.886 326.381 328.886C327.783 328.886 328.325 328.095 328.593 327.608H328.688V329.109C328.688 330.308 327.868 330.825 326.739 330.825C325.501 330.825 325.019 330.203 324.755 329.766L323.478 330.293C323.88 331.227 324.9 332.023 326.724 332.023ZM326.709 327.653C325.382 327.653 324.691 326.634 324.691 325.132C324.691 323.665 325.367 322.527 326.709 322.527C328.007 322.527 328.703 323.586 328.703 325.132C328.703 326.708 327.992 327.653 326.709 327.653Z" fill="#2D2F33"></path><rect x="192.5" y="248.5" width="167" height="223" rx="7.5" stroke="#EBECF0"></rect><rect x="368.5" y="248.5" width="167" height="223" rx="7.5" fill="white"></rect><path d="M400.821 292H390.975C390.54 292 390.122 291.831 389.815 291.531C389.507 291.231 389.334 290.824 389.334 290.4V269.6C389.334 269.176 389.507 268.769 389.815 268.469C390.122 268.169 390.54 268 390.975 268H402.603C403.038 268 403.456 268.169 403.763 268.469L410.187 274.732C410.339 274.88 410.46 275.057 410.543 275.251C410.625 275.445 410.667 275.653 410.667 275.863V280.8" stroke="#D3D5DB" stroke-width="1.5" stroke-linecap="round" stroke-linejoin="round"></path><path d="M410.668 276H404.104C403.669 276 403.251 275.831 402.944 275.531C402.636 275.231 402.463 274.824 402.463 274.4V268" stroke="#D3D5DB" stroke-width="1.5" stroke-linecap="round" stroke-linejoin="round"></path><path d="M407.334 285.333V292" stroke="#D3D5DB" stroke-width="1.5" stroke-linecap="round" stroke-linejoin="round"></path><path d="M404 285.333L410.667 285.333" stroke="#D3D5DB" stroke-width="1.5" stroke-linecap="round" stroke-linejoin="round"></path><path d="M406 292H408.661" stroke="#D3D5DB" stroke-width="1.5" stroke-linecap="round" stroke-linejoin="round"></path><path d="M385.979 329L386.913 326.305H390.891L391.82 329H393.451L389.787 318.818H388.012L384.348 329H385.979ZM387.361 325.013L388.862 320.668H388.942L390.443 325.013H387.361ZM396.205 318.818H394.718V329H396.205V318.818ZM399.607 318.818H398.12V329H399.607V318.818ZM404.724 332.023C406.668 332.023 408.17 331.133 408.17 329.169V321.364H406.713V322.602H406.604C406.34 322.129 405.813 321.264 404.391 321.264C402.547 321.264 401.19 322.721 401.19 325.152C401.19 327.588 402.577 328.886 404.381 328.886C405.783 328.886 406.325 328.095 406.594 327.608H406.688V329.109C406.688 330.308 405.868 330.825 404.739 330.825C403.501 330.825 403.019 330.203 402.756 329.766L401.478 330.293C401.881 331.227 402.9 332.023 404.724 332.023ZM404.709 327.653C403.382 327.653 402.691 326.634 402.691 325.132C402.691 323.665 403.367 322.527 404.709 322.527C406.007 322.527 406.703 323.586 406.703 325.132C406.703 326.708 405.992 327.653 404.709 327.653ZM413.37 329.154C415.036 329.154 416.214 328.334 416.552 327.091L415.145 326.837C414.877 327.558 414.231 327.926 413.385 327.926C412.113 327.926 411.258 327.101 411.218 325.629H416.647V325.102C416.647 322.343 414.996 321.264 413.266 321.264C411.138 321.264 409.736 322.885 409.736 325.232C409.736 327.603 411.118 329.154 413.37 329.154ZM411.223 324.516C411.282 323.432 412.068 322.492 413.276 322.492C414.429 322.492 415.185 323.347 415.19 324.516H411.223ZM418.212 329H419.699V324.292C419.699 323.263 420.419 322.547 421.265 322.547C422.09 322.547 422.662 323.094 422.662 323.924V329H424.143V324.133C424.143 323.213 424.705 322.547 425.674 322.547C426.46 322.547 427.106 322.984 427.106 324.018V329H428.593V323.879C428.593 322.134 427.618 321.264 426.236 321.264C425.138 321.264 424.312 321.791 423.944 322.607H423.865C423.532 321.771 422.831 321.264 421.812 321.264C420.802 321.264 420.052 321.766 419.733 322.607H419.639V321.364H418.212V329ZM433.792 329.154C435.458 329.154 436.636 328.334 436.974 327.091L435.567 326.837C435.299 327.558 434.652 327.926 433.807 327.926C432.535 327.926 431.679 327.101 431.64 325.629H437.069V325.102C437.069 322.343 435.418 321.264 433.688 321.264C431.56 321.264 430.158 322.885 430.158 325.232C430.158 327.603 431.54 329.154 433.792 329.154ZM431.645 324.516C431.704 323.432 432.49 322.492 433.698 322.492C434.851 322.492 435.607 323.347 435.612 324.516H431.645ZM438.634 329H440.12V321.364H438.634V329ZM439.385 320.185C439.897 320.185 440.324 319.788 440.324 319.3C440.324 318.813 439.897 318.411 439.385 318.411C438.868 318.411 438.445 318.813 438.445 319.3C438.445 319.788 438.868 320.185 439.385 320.185ZM443.523 324.466C443.523 323.248 444.269 322.552 445.303 322.552C446.312 322.552 446.923 323.213 446.923 324.322V329H448.41V324.143C448.41 322.254 447.371 321.264 445.81 321.264C444.661 321.264 443.911 321.796 443.558 322.607H443.463V321.364H442.036V329H443.523V324.466ZM453.611 329.154C455.276 329.154 456.454 328.334 456.792 327.091L455.386 326.837C455.117 327.558 454.471 327.926 453.626 327.926C452.353 327.926 451.498 327.101 451.458 325.629H456.887V325.102C456.887 322.343 455.236 321.264 453.506 321.264C451.378 321.264 449.976 322.885 449.976 325.232C449.976 327.603 451.359 329.154 453.611 329.154ZM451.463 324.516C451.523 323.432 452.308 322.492 453.516 322.492C454.67 322.492 455.425 323.347 455.43 324.516H451.463ZM386.009 342.818H384.348L388.012 353H389.787L393.451 342.818H391.79L388.957 351.111H388.842L386.009 342.818ZM397.244 353.154C398.909 353.154 400.087 352.334 400.425 351.091L399.018 350.837C398.75 351.558 398.104 351.926 397.259 351.926C395.986 351.926 395.131 351.101 395.091 349.629H400.52V349.102C400.52 346.343 398.869 345.264 397.139 345.264C395.011 345.264 393.609 346.885 393.609 349.232C393.609 351.603 394.991 353.154 397.244 353.154ZM395.096 348.516C395.156 347.432 395.941 346.492 397.149 346.492C398.303 346.492 399.058 347.347 399.063 348.516H395.096ZM402.085 353H403.572V348.337C403.572 347.337 404.342 346.616 405.396 346.616C405.705 346.616 406.053 346.671 406.172 346.706V345.284C406.023 345.264 405.729 345.249 405.54 345.249C404.646 345.249 403.88 345.756 403.602 346.577H403.522V345.364H402.085V353ZM407.374 353H408.861V350.29L409.602 349.55L412.197 353H414.021L410.72 348.64L413.812 345.364H412.033L408.99 348.595H408.861V342.818H407.374V353ZM417.306 353.169C418.568 353.169 419.279 352.528 419.563 351.956H419.622V353H421.074V347.929C421.074 345.707 419.324 345.264 418.111 345.264C416.729 345.264 415.456 345.821 414.959 347.213L416.356 347.531C416.575 346.989 417.132 346.467 418.131 346.467C419.09 346.467 419.583 346.969 419.583 347.835V347.869C419.583 348.411 419.026 348.401 417.654 348.56C416.207 348.729 414.725 349.107 414.725 350.842C414.725 352.344 415.854 353.169 417.306 353.169ZM417.629 351.976C416.788 351.976 416.182 351.598 416.182 350.862C416.182 350.067 416.888 349.783 417.748 349.669C418.23 349.604 419.374 349.475 419.587 349.261V350.246C419.587 351.151 418.867 351.976 417.629 351.976ZM427.807 349.833C427.812 351.131 426.848 351.747 426.013 351.747C425.093 351.747 424.456 351.081 424.456 350.042V345.364H422.97V350.221C422.97 352.115 424.009 353.099 425.476 353.099C426.624 353.099 427.405 352.493 427.758 351.678H427.837V353H429.299V345.364H427.807V349.833ZM434.846 345.364H433.201V344.678C433.201 344.001 433.479 343.634 434.205 343.634C434.513 343.634 434.732 343.703 434.871 343.748L435.219 342.545C435.01 342.465 434.578 342.341 433.976 342.341C432.768 342.341 431.709 343.047 431.709 344.479V345.364H430.531V346.557H431.709V353H433.201V346.557H434.846V345.364ZM441.731 347.228C441.423 346.04 440.493 345.264 438.843 345.264C437.118 345.264 435.895 346.174 435.895 347.526C435.895 348.61 436.551 349.331 437.983 349.649L439.275 349.933C440.011 350.097 440.354 350.425 440.354 350.902C440.354 351.494 439.723 351.956 438.748 351.956C437.858 351.956 437.287 351.573 437.108 350.822L435.671 351.041C435.919 352.393 437.043 353.154 438.758 353.154C440.603 353.154 441.88 352.175 441.88 350.793C441.88 349.714 441.194 349.048 439.792 348.724L438.579 348.446C437.739 348.247 437.376 347.964 437.381 347.447C437.376 346.86 438.012 346.442 438.858 346.442C439.782 346.442 440.21 346.955 440.384 347.467L441.731 347.228ZM443.55 353H445.002V351.812H445.126C445.395 352.299 445.941 353.149 447.334 353.149C449.183 353.149 450.525 351.668 450.525 349.197C450.525 346.721 449.163 345.264 447.319 345.264C445.902 345.264 445.39 346.129 445.126 346.602H445.037V342.818H443.55V353ZM445.007 349.182C445.007 347.586 445.703 346.527 447 346.527C448.348 346.527 449.024 347.665 449.024 349.182C449.024 350.713 448.328 351.881 447 351.881C445.723 351.881 445.007 350.788 445.007 349.182ZM455.402 353.154C457.067 353.154 458.245 352.334 458.583 351.091L457.177 350.837C456.908 351.558 456.262 351.926 455.417 351.926C454.144 351.926 453.289 351.101 453.249 349.629H458.678V349.102C458.678 346.343 457.027 345.264 455.297 345.264C453.169 345.264 451.767 346.885 451.767 349.232C451.767 351.603 453.15 353.154 455.402 353.154ZM453.254 348.516C453.314 347.432 454.099 346.492 455.307 346.492C456.461 346.492 457.216 347.347 457.221 348.516H453.254ZM463.102 353.149C464.494 353.149 465.041 352.299 465.309 351.812H465.434V353H466.885V342.818H465.399V346.602H465.309C465.041 346.129 464.534 345.264 463.112 345.264C461.267 345.264 459.91 346.721 459.91 349.197C459.91 351.668 461.248 353.149 463.102 353.149ZM463.43 351.881C462.103 351.881 461.412 350.713 461.412 349.182C461.412 347.665 462.088 346.527 463.43 346.527C464.728 346.527 465.424 347.586 465.424 349.182C465.424 350.788 464.713 351.881 463.43 351.881ZM468.923 353H470.409V345.364H468.923V353ZM469.674 344.185C470.186 344.185 470.613 343.788 470.613 343.3C470.613 342.813 470.186 342.411 469.674 342.411C469.157 342.411 468.734 342.813 468.734 343.3C468.734 343.788 469.157 344.185 469.674 344.185ZM473.812 348.466C473.812 347.248 474.558 346.552 475.592 346.552C476.601 346.552 477.212 347.213 477.212 348.322V353H478.699V348.143C478.699 346.254 477.66 345.264 476.099 345.264C474.95 345.264 474.2 345.796 473.847 346.607H473.752V345.364H472.325V353H473.812V348.466ZM483.81 356.023C485.754 356.023 487.255 355.133 487.255 353.169V345.364H485.799V346.602H485.689C485.426 346.129 484.899 345.264 483.477 345.264C481.633 345.264 480.275 346.721 480.275 349.152C480.275 351.588 481.662 352.886 483.467 352.886C484.869 352.886 485.411 352.095 485.679 351.608H485.774V353.109C485.774 354.308 484.954 354.825 483.825 354.825C482.587 354.825 482.105 354.203 481.841 353.766L480.564 354.293C480.966 355.227 481.986 356.023 483.81 356.023ZM483.795 351.653C482.468 351.653 481.777 350.634 481.777 349.132C481.777 347.665 482.453 346.527 483.795 346.527C485.093 346.527 485.789 347.586 485.789 349.132C485.789 350.708 485.078 351.653 483.795 351.653ZM494.002 349.833C494.007 351.131 493.043 351.747 492.208 351.747C491.288 351.747 490.652 351.081 490.652 350.042V345.364H489.165V350.221C489.165 352.115 490.204 353.099 491.671 353.099C492.819 353.099 493.6 352.493 493.953 351.678H494.032V353H495.494V345.364H494.002V349.833ZM498.894 348.466C498.894 347.248 499.64 346.552 500.674 346.552C501.683 346.552 502.294 347.213 502.294 348.322V353H503.781V348.143C503.781 346.254 502.742 345.264 501.181 345.264C500.032 345.264 499.282 345.796 498.929 346.607H498.834V345.364H497.407V353H498.894V348.466ZM508.892 356.023C510.836 356.023 512.337 355.133 512.337 353.169V345.364H510.881V346.602H510.771C510.508 346.129 509.981 345.264 508.559 345.264C506.715 345.264 505.357 346.721 505.357 349.152C505.357 351.588 506.744 352.886 508.549 352.886C509.951 352.886 510.493 352.095 510.761 351.608H510.856V353.109C510.856 354.308 510.036 354.825 508.907 354.825C507.669 354.825 507.187 354.203 506.923 353.766L505.646 354.293C506.048 355.227 507.068 356.023 508.892 356.023ZM508.877 351.653C507.55 351.653 506.859 350.634 506.859 349.132C506.859 347.665 507.535 346.527 508.877 346.527C510.175 346.527 510.871 347.586 510.871 349.132C510.871 350.708 510.16 351.653 508.877 351.653ZM388.29 377.154C389.956 377.154 391.134 376.334 391.472 375.091L390.065 374.837C389.797 375.558 389.151 375.926 388.305 375.926C387.033 375.926 386.178 375.101 386.138 373.629H391.567V373.102C391.567 370.343 389.916 369.264 388.186 369.264C386.058 369.264 384.656 370.885 384.656 373.232C384.656 375.603 386.038 377.154 388.29 377.154ZM386.143 372.516C386.202 371.432 386.988 370.492 388.196 370.492C389.349 370.492 390.105 371.347 390.11 372.516H386.143ZM394.619 372.466C394.619 371.248 395.364 370.552 396.398 370.552C397.408 370.552 398.019 371.213 398.019 372.322V377H399.506V372.143C399.506 370.254 398.467 369.264 396.906 369.264C395.757 369.264 395.006 369.796 394.653 370.607H394.559V369.364H393.132V377H394.619V372.466Z" fill="#2D2F33"></path><rect x="368.5" y="248.5" width="167" height="223" rx="7.5" stroke="#EBECF0"></rect></svg> 