<?xml version="1.0" encoding="UTF-8"?> <svg xmlns="http://www.w3.org/2000/svg" width="478" height="240" viewBox="0 0 478 240" fill="none"><rect x="398" y="160" width="80" height="80" rx="40" fill="white"></rect><path d="M447 192.5L437.446 206.699C437.291 206.928 437.094 207.118 436.867 207.256C436.641 207.393 436.391 207.475 436.133 207.495C435.876 207.515 435.618 207.474 435.377 207.373C435.135 207.273 434.916 207.116 434.734 206.913L429 200.525" stroke="#3574F6" stroke-width="2" stroke-linecap="round" stroke-linejoin="round"></path><rect x="240" y="160" width="80" height="80" rx="40" fill="white"></rect><rect x="260" y="180" width="40" height="40" rx="8" fill="#EBA330"></rect><path d="M282.977 192.078C283.029 192.444 282.992 192.816 282.869 193.168C282.745 193.521 282.539 193.846 282.262 194.123C281.974 194.399 281.625 194.62 281.235 194.771C280.846 194.922 280.425 195 280 195C279.575 195 279.154 194.922 278.765 194.771C278.375 194.62 278.026 194.399 277.738 194.123C277.461 193.846 277.255 193.521 277.131 193.168C277.008 192.816 276.971 192.444 277.023 192.078L277.734 187H282.259L282.977 192.078Z" fill="white" stroke="white" stroke-width="1.5" stroke-linecap="round" stroke-linejoin="round"></path><path d="M280 199C280.198 199 280.391 199.059 280.556 199.169C280.72 199.278 280.848 199.435 280.924 199.617C281 199.8 281.019 200.001 280.981 200.195C280.942 200.389 280.847 200.567 280.707 200.707C280.567 200.847 280.389 200.942 280.195 200.981C280.001 201.019 279.8 201 279.617 200.924C279.435 200.848 279.278 200.72 279.169 200.556C279.059 200.391 279 200.198 279 200C279 199.735 279.105 199.48 279.293 199.293C279.48 199.105 279.735 199 280 199" stroke="white" stroke-width="1.5" stroke-linecap="round" stroke-linejoin="round"></path><path d="M280 205C280.198 205 280.391 205.059 280.556 205.169C280.72 205.278 280.848 205.435 280.924 205.617C281 205.8 281.019 206.001 280.981 206.195C280.942 206.389 280.847 206.567 280.707 206.707C280.567 206.847 280.389 206.942 280.195 206.981C280.001 207.019 279.8 207 279.617 206.924C279.435 206.848 279.278 206.72 279.169 206.556C279.059 206.391 279 206.198 279 206C279 205.735 279.105 205.48 279.293 205.293C279.48 205.105 279.735 205 280 205" stroke="white" stroke-width="1.5" stroke-linecap="round" stroke-linejoin="round"></path><path d="M280 211C280.198 211 280.391 211.059 280.556 211.169C280.72 211.278 280.848 211.435 280.924 211.617C281 211.8 281.019 212.001 280.981 212.195C280.942 212.389 280.847 212.567 280.707 212.707C280.567 212.847 280.389 212.942 280.195 212.981C280.001 213.019 279.8 213 279.617 212.924C279.435 212.848 279.278 212.72 279.169 212.556C279.059 212.391 279 212.198 279 212C279 211.735 279.105 211.48 279.293 211.293C279.48 211.105 279.735 211 280 211" stroke="white" stroke-width="1.5" stroke-linecap="round" stroke-linejoin="round"></path><rect x="80" y="160" width="80" height="80" rx="40" fill="white"></rect><rect x="100" y="180" width="40" height="40" rx="8" fill="#677A8F"></rect><path d="M110 194H123" stroke="white" stroke-width="2" stroke-linecap="round" stroke-linejoin="round"></path><path d="M110 200H130" stroke="white" stroke-width="2" stroke-linecap="round" stroke-linejoin="round"></path><path d="M110 206H126" stroke="white" stroke-width="2" stroke-linecap="round" stroke-linejoin="round"></path><rect y="80" width="80" height="80" rx="40" fill="white"></rect><rect x="20" y="100" width="40" height="40" rx="8" fill="#80C74C"></rect><path d="M32.5 117C33.8807 117 35 115.881 35 114.5C35 113.119 33.8807 112 32.5 112C31.1193 112 30 113.119 30 114.5C30 115.881 31.1193 117 32.5 117Z" fill="white" stroke="white" stroke-width="1.5" stroke-linecap="round" stroke-linejoin="round"></path><path d="M50 127.973L44.1681 118.54C44.0663 118.375 43.929 118.24 43.7681 118.146C43.6071 118.052 43.4273 118.002 43.2443 118C43.0612 117.998 42.8805 118.044 42.7177 118.134C42.5549 118.224 42.4149 118.356 42.3099 118.518L39.3152 123.145L37.4611 121.537C37.3393 121.432 37.1986 121.355 37.0478 121.312C36.897 121.268 36.7395 121.259 36.5853 121.285C36.4311 121.311 36.2836 121.371 36.1521 121.462C36.0206 121.553 35.9081 121.672 35.8217 121.812L32.0169 127.973L32 128" fill="white"></path><path d="M32 128L32.0169 127.973M32.0169 127.973L35.8217 121.812C35.9081 121.672 36.0206 121.553 36.1521 121.462C36.2836 121.371 36.4311 121.311 36.5853 121.285C36.7395 121.259 36.897 121.268 37.0478 121.312C37.1986 121.355 37.3393 121.432 37.4611 121.537L39.3152 123.145L42.3099 118.518C42.4149 118.356 42.5549 118.224 42.7177 118.134C42.8805 118.044 43.0612 117.998 43.2443 118C43.4273 118.002 43.6071 118.052 43.7681 118.146C43.929 118.24 44.0663 118.375 44.1681 118.54L50 127.973H32.0169Z" stroke="white" stroke-width="2" stroke-linecap="round" stroke-linejoin="round"></path><rect x="398" width="80" height="80" rx="40" fill="white"></rect><rect x="418" y="20" width="40" height="40" rx="8" fill="#EB598C"></rect><path d="M432.462 48.0002C433.821 48.0002 434.923 46.8982 434.923 45.5387C434.923 44.1792 433.821 43.0771 432.462 43.0771C431.102 43.0771 430 44.1792 430 45.5387C430 46.8982 431.102 48.0002 432.462 48.0002Z" fill="white" stroke="white" stroke-width="2" stroke-linecap="round" stroke-linejoin="round"></path><path d="M443.539 45.5383C444.898 45.5383 446 44.4362 446 43.0768C446 41.7173 444.898 40.6152 443.539 40.6152C442.179 40.6152 441.077 41.7173 441.077 43.0768C441.077 44.4362 442.179 45.5383 443.539 45.5383Z" fill="white" stroke="white" stroke-width="2" stroke-linecap="round" stroke-linejoin="round"></path><path d="M434.923 45.5385V35.9022C434.923 35.4556 435.069 35.0203 435.341 34.658C435.613 34.2957 435.997 34.0248 436.438 33.8836L443.084 32.109C443.417 32.0025 443.772 31.9735 444.119 32.0244C444.466 32.0753 444.795 32.2046 445.08 32.4017C445.365 32.5989 445.596 32.8581 445.756 33.1582C445.916 33.4583 446 33.7905 446 34.1276V42.3467" stroke="white" stroke-width="2" stroke-linecap="round" stroke-linejoin="round"></path><rect x="320" y="80" width="78" height="80" rx="39" fill="white"></rect><rect x="340" y="100" width="40" height="40" rx="8" fill="#9653E3"></rect><path d="M356.311 126.832C356.067 126.954 355.797 127.011 355.525 126.998C355.253 126.986 354.989 126.904 354.757 126.761C354.526 126.618 354.335 126.418 354.202 126.18C354.07 125.942 354 125.674 354 125.402V114.598C354 114.326 354.07 114.058 354.202 113.82C354.335 113.582 354.526 113.382 354.757 113.239C354.989 113.096 355.253 113.014 355.525 113.002C355.797 112.989 356.067 113.046 356.311 113.168L367.117 118.572C367.382 118.704 367.605 118.908 367.761 119.16C367.917 119.413 368 119.703 368 120C368 120.297 367.917 120.587 367.761 120.84C367.605 121.092 367.382 121.296 367.117 121.428L356.311 126.832Z" fill="white"></path><rect x="240" width="80" height="80" rx="40" fill="white"></rect><rect x="260" y="20" width="40" height="40" rx="8" fill="#4BB255"></rect><path d="M273.5 47L278.209 39.9806L273.894 33H277.365L279.719 37.4642C279.937 37.8883 280.085 38.2031 280.166 38.4111H280.197C280.351 38.0727 280.514 37.7442 280.685 37.4254L283.202 33.0024H286.388L281.964 39.9419L286.5 47H283.11L280.391 42.0999C280.263 41.8915 280.154 41.6725 280.066 41.4456H280.026C279.946 41.6679 279.84 41.8807 279.711 42.08L276.911 47H273.5Z" fill="white"></path><rect x="160" y="80" width="80" height="80" rx="40" fill="white"></rect><rect x="180" y="100" width="40" height="40" rx="8" fill="#4285EB"></rect><path d="M195.898 123.594C195.94 123.926 195.969 124.215 195.982 124.463H196.031C196.05 124.228 196.089 123.945 196.149 123.614C196.209 123.283 196.262 123.003 196.31 122.774L198.581 113.005H201.517L203.872 122.627C204.009 123.226 204.107 123.832 204.166 124.443H204.204C204.248 123.851 204.33 123.263 204.449 122.681L206.328 113H209L205.7 127H202.578L200.34 117.729C200.276 117.462 200.201 117.113 200.12 116.684C200.039 116.256 199.988 115.942 199.968 115.745H199.929C199.903 115.973 199.853 116.311 199.777 116.76C199.702 117.208 199.642 117.54 199.596 117.756L197.493 126.998H194.318L191 113.005H193.72L195.766 122.794C195.812 122.995 195.856 123.263 195.898 123.594Z" fill="white"></path><rect x="80" width="80" height="80" rx="40" fill="white"></rect><rect x="100" y="20" width="40" height="40" rx="8" fill="#EB5261"></rect><path d="M115.646 32.9637C115.539 32.2742 115.277 31.6104 114.876 31.0106C114.671 30.7124 114.386 30.4639 114.045 30.2874C113.704 30.1109 113.319 30.0121 112.923 30C112.42 30.0477 111.949 30.2421 111.586 30.5522C111.222 30.8623 110.987 31.2705 110.917 31.7118C110.804 32.6046 111.066 33.5028 111.654 34.2369C113.507 36.1149 115.498 37.8834 117.615 39.5311C119.986 41.222 122.668 42.5427 125.545 43.436C126.334 43.7601 127.195 43.9215 128.065 43.908C128.499 43.8926 128.917 43.7585 129.261 43.5243C129.604 43.2901 129.856 42.9675 129.981 42.6014C130.029 42.3004 129.986 41.9938 129.857 41.7118C129.729 41.4298 129.519 41.1822 129.248 40.9936C128.701 40.6219 128.057 40.3763 127.375 40.279C124.659 39.9298 121.888 40.1888 119.316 41.0322C116.86 41.6988 109.681 43.7866 110.011 49.0994C110.02 49.2328 110 50.1153 111.294 49.9874C111.826 49.896 112.331 49.7082 112.776 49.436C113.221 49.1638 113.597 48.8131 113.881 48.4062C115.536 46.349 115.709 43.7266 115.925 41.2989C116.245 38.5217 116.151 35.7196 115.646 32.9637V32.9637Z" stroke="white" stroke-width="2" stroke-linecap="round" stroke-linejoin="round"></path></svg> 