<svg width="110" height="110" viewBox="0 0 110 110" fill="none" xmlns="http://www.w3.org/2000/svg">
<g opacity="0.5" clip-path="url(#clip0)">
<path d="M77.1169 18.5705L100.867 59.7067C101.862 61.4293 102.131 63.4765 101.616 65.3978C101.101 67.3192 99.8444 68.9573 98.1218 69.9519C96.3991 70.9464 94.352 71.2159 92.4306 70.7011C90.5093 70.1863 88.8711 68.9293 87.8766 67.2067L59.1266 17.4102C58.4635 16.2618 57.3714 15.4238 56.0905 15.0806C54.8096 14.7374 53.4449 14.917 52.2964 15.5801L8.99517 40.5801C7.84674 41.2431 7.00875 42.3352 6.66554 43.6161C6.32232 44.897 6.502 46.2618 7.16504 47.4102L35.915 97.2067C36.9096 98.9293 38.5477 100.186 40.4691 100.701C42.3904 101.216 44.4376 100.946 46.1602 99.9519L98.1218 69.9519" stroke="white" stroke-width="2" stroke-linecap="round" stroke-linejoin="round"/>
<path d="M37.9902 75.8013L68.3011 58.3013" stroke="white" stroke-width="2" stroke-linecap="round" stroke-linejoin="round"/>
<path d="M42.9902 84.4614L60.3107 74.4614" stroke="white" stroke-width="2" stroke-linecap="round" stroke-linejoin="round"/>
<path d="M49.8861 31.4053L23.9053 46.4053C22.7096 47.0956 22.2999 48.6246 22.9902 49.8203L30.4902 62.8107C31.1806 64.0064 32.7096 64.4161 33.9053 63.7258L59.8861 48.7258C61.0818 48.0354 61.4915 46.5064 60.8011 45.3107L53.3011 32.3203C52.6108 31.1246 51.0818 30.7149 49.8861 31.4053Z" stroke="white" stroke-width="2" stroke-linecap="round" stroke-linejoin="round"/>
</g>
<defs>
<clipPath id="clip0">
<rect width="80" height="80" fill="white" transform="translate(0 40) rotate(-30)"/>
</clipPath>
</defs>
</svg>
