<svg width="98" height="28" viewBox="0 0 98 28" fill="none" xmlns="http://www.w3.org/2000/svg">
<path d="M36.3855 3.58232C34.371 3.58232 32.4935 5.03722 32.4935 7.39801C32.4935 9.75879 34.3298 11.2 36.3855 11.2C37.427 11.2 38.263 11.0078 38.9071 10.596L38.6878 11.5568C38.126 11.8862 37.4133 12.0372 36.2896 12.0372C33.8913 12.0372 31.5479 10.2804 31.5479 7.39801C31.5479 4.4882 33.9187 2.75879 36.2896 2.75879C37.4544 2.75879 38.3178 3.00585 38.9208 3.36271L38.7427 4.18624C38.2219 3.85683 37.3311 3.58232 36.3855 3.58232ZM43.7996 12.0372C41.7165 12.0372 40.3049 10.8019 40.3049 8.78428V2.92349H41.2506V8.70193C41.2506 10.2804 42.1825 11.2 43.8133 11.2C45.4441 11.2 46.376 10.2666 46.376 8.70193V2.92349H47.2942V8.78428C47.2942 10.8019 45.8826 12.0372 43.7996 12.0372ZM51.2685 12.0372C50.2132 12.0372 49.3909 11.6941 48.8976 11.3509L48.6372 10.2392C49.4184 10.8431 50.268 11.2137 51.3233 11.2137C52.447 11.2137 53.2282 10.5686 53.2282 9.56663C53.2282 8.61957 52.6663 8.05683 51.4192 7.63134C49.8021 7.06859 49.062 6.21761 49.062 5.03722C49.062 3.92546 49.898 2.77251 51.707 2.77251C52.5293 2.77251 53.2145 3.01957 53.5982 3.29408L53.4063 4.07644C53.05 3.81565 52.3648 3.55487 51.6796 3.55487C50.5558 3.55487 49.9665 4.28232 49.9665 4.96859C49.9665 5.68232 50.4736 6.23134 51.6111 6.67055C53.2282 7.27447 54.1738 8.02938 54.1738 9.48428C54.1738 11.0353 53.0637 12.0372 51.2685 12.0372ZM58.5318 11.8862H57.5862V3.7333H54.5164V2.92349H61.6153V3.7333H58.5318V11.8862ZM66.1377 12.0372C63.6709 12.0372 61.4508 10.198 61.4508 7.38428C61.4508 4.61173 63.6709 2.75879 66.1377 2.75879C68.6045 2.75879 70.8246 4.61173 70.8246 7.38428C70.8246 10.198 68.6182 12.0372 66.1377 12.0372ZM66.1377 3.58232C64.178 3.58232 62.4101 5.09212 62.4101 7.38428C62.4101 9.69016 64.178 11.2 66.1377 11.2C68.0837 11.2 69.8653 9.67644 69.8653 7.38428C69.879 5.0784 68.0974 3.58232 66.1377 3.58232ZM80.6095 7.2333C80.5547 6.45095 80.5136 5.66859 80.4725 4.89997H80.4451C80.1162 5.64114 79.6913 6.56075 79.335 7.2882L77.0601 11.9823H76.7449L74.4563 7.2882C74.1136 6.57448 73.7025 5.69604 73.3462 4.91369H73.3188C73.2777 5.68232 73.2366 6.51957 73.1817 7.2333L72.8117 11.8862H71.9621L72.6747 2.92349H73.2777L75.7445 7.94702C76.1419 8.7431 76.553 9.62153 76.9093 10.4588H76.9368C77.2794 9.63526 77.6494 8.82546 78.0879 7.94702L80.541 2.92349H81.144L81.884 11.8862H80.9932L80.6095 7.2333ZM83.8849 2.92349H88.5581V3.7333H84.8305V6.95879H87.8865V7.76859H84.8305V11.049H89.0514V11.8588H83.8849V2.92349ZM93.2175 7.78232H91.6827V11.8862H90.7371V2.92349H93.2861C94.6428 2.92349 95.9036 3.81565 95.9036 5.35291C95.9036 6.5333 95.1636 7.35683 94.1494 7.64506L97.3015 11.8862H96.2051L93.2175 7.78232ZM93.1353 3.7333H91.6827V6.95879H93.1901C94.1357 6.95879 94.958 6.36859 94.958 5.33918C94.958 4.33722 94.1357 3.7333 93.1353 3.7333Z" fill="#4762A7"/>
<path d="M37.413 22.2627H33.6306L32.6165 24.7745H31.6846L35.3848 15.6333H35.6862L39.3864 24.7745H38.4271L37.413 22.2627ZM35.5492 17.349H35.5218C35.3711 17.8431 35.1929 18.3235 35.0284 18.7215L33.9458 21.4804H37.0841L36.0152 18.7215C35.8507 18.3235 35.7 17.8431 35.5492 17.349ZM42.1136 15.8117H43.0592V23.9647H47.4994V24.7745H42.1136V15.8117ZM49.7469 15.8117H50.6925V23.9647H55.1328V24.7745H49.7469V15.8117ZM57.6133 15.8117H58.5589V24.7745H57.6133V15.8117ZM67.2337 22.2627H63.4513L62.4372 24.7745H61.5053L65.2055 15.6333H65.507L69.2072 24.7745H68.2479L67.2337 22.2627ZM65.3699 17.349H65.3425C65.1918 17.8431 65.0136 18.3235 64.8492 18.7215L63.7665 21.4804H66.9048L65.8359 18.7215C65.6714 18.3235 65.5207 17.8431 65.3699 17.349ZM75.0726 19.9157C74.3052 19.0372 73.4966 18.0764 72.8799 17.3353L72.8525 17.349C72.8936 18.1862 72.8799 19.0098 72.8799 19.8333V24.7745H71.948V15.8117H72.6058L76.7583 20.5745C77.375 21.2882 78.1835 22.249 78.7865 22.9764L78.8139 22.9627C78.7728 22.1666 78.7865 21.3568 78.7865 20.5882V15.8117H79.7321V24.9666H79.4854L75.0726 19.9157ZM87.5162 16.4706C85.5017 16.4706 83.6242 17.9117 83.6242 20.2862C83.6242 22.647 85.4605 24.0882 87.5162 24.0882C88.5577 24.0882 89.3937 23.896 90.0378 23.4843L89.8185 24.4451C89.2567 24.7745 88.544 24.9255 87.4203 24.9255C85.022 24.9255 82.6786 23.1686 82.6786 20.2862C82.6786 17.3764 85.0494 15.647 87.4203 15.647C88.5852 15.647 89.4485 15.8941 90.0515 16.2509L89.8734 17.0745C89.3526 16.7451 88.4618 16.4706 87.5162 16.4706ZM92.8472 15.8117H97.5204V16.6215H93.7928V19.847H96.8489V20.6568H93.7928V23.9509H98.0138V24.7608H92.8472V15.8117Z" fill="#4762A7"/>
<path d="M20.4054 17.555C20.2272 17.4727 20.0354 17.5413 19.9531 17.7197C19.5831 18.5021 18.7746 19.0099 17.9112 19.0099C17.5823 19.0099 17.2534 18.9413 16.9656 18.804C16.7874 18.7217 16.5956 18.804 16.5133 18.9687C16.4311 19.1472 16.5133 19.3393 16.6778 19.4217C17.0615 19.6001 17.4863 19.6962 17.9249 19.6962C19.0623 19.6962 20.1039 19.0374 20.5835 18.0079C20.6521 17.8432 20.5835 17.6374 20.4054 17.555ZM12.5391 6.84912C12.5391 6.84912 12.5528 6.84912 12.5391 6.84912C12.5528 6.84912 12.5391 6.84912 12.5391 6.84912Z" fill="#4762A7"/>
<path d="M21.3514 0H6.60551C2.97385 0 0 2.97843 0 6.61569V21.3843C0 25.0216 2.97385 28 6.60551 28H21.3514C24.9831 28 27.9569 25.0216 27.9569 21.3843V6.61569C27.9569 2.97843 24.9831 0 21.3514 0ZM18.912 23.3745C18.5146 23.5255 19.6932 21.9196 18.775 21.5078C18.0487 21.7275 17.2812 21.8373 16.4727 21.8373C15.5956 21.8373 14.7596 21.7 13.9785 21.4392C13.1973 21.7 12.3476 21.8373 11.4843 21.8373C7.05775 21.8373 3.48091 18.2549 3.48091 13.8216C3.48091 9.38824 7.05775 5.80588 11.4843 5.80588C12.3613 5.80588 13.1973 5.94314 13.9785 6.20392C14.7596 5.94314 15.6093 5.80588 16.4727 5.80588C20.8992 5.80588 24.5171 9.40196 24.476 13.8216C24.4075 21.3157 18.912 23.3745 18.912 23.3745Z" fill="#4762A7"/>
<path d="M8.46886 13.8353C8.46886 10.2804 10.7712 7.27448 13.978 6.21762C13.1969 5.95683 12.3472 5.81958 11.4838 5.81958C7.05731 5.81958 3.48047 9.40193 3.48047 13.8353C3.48047 18.2686 7.05731 21.8509 11.4838 21.8509C12.3609 21.8509 13.1969 21.7137 13.978 21.4529C10.7849 20.396 8.46886 17.3764 8.46886 13.8353Z" fill="#B4BFDC"/>
</svg>
