<svg width="137" height="24" viewBox="0 0 137 24" fill="none" xmlns="http://www.w3.org/2000/svg">
<g clip-path="url(#clip0)">
<path d="M2.67741 0L0 24H17.0661L19.7483 0H2.67741Z" fill="#21508A"/>
<path d="M2.98535 17.5004V9.6001H15.809V12.7621H6.19247V17.5004H2.98535Z" fill="#66B8E7"/>
<path d="M12.6019 14.3384H15.809V22.2434H2.98535V19.0814H12.6019V14.3384Z" fill="#66B8E7"/>
<path d="M10.9981 14.343H7.79102V17.505H10.9981V14.343Z" fill="#66B8E7"/>
<path d="M99.2189 17.5145H107.28V15.1833H99.2189V12.3489H107.776V9.68066H96.084V23.0124H107.983V20.3442H99.2189V17.5145Z" fill="#1D1D1B"/>
<path d="M131.901 9.68066L126.835 15.1786H126.454V9.68066H123.339V23.0124H126.454V17.5097H126.835L132.166 23.0124H136.5L129.536 16.2563L135.787 9.68066H131.901Z" fill="#1D1D1B"/>
<path d="M69.0402 20.3489V12.3489H73.8557C76.1671 12.3489 76.6535 14.4949 76.6535 16.3655C76.6535 18.2362 76.0612 20.3442 73.7642 20.3442L69.0402 20.3489ZM73.7064 9.68541H65.9053V23.0124H73.7064C78.2763 23.0124 79.7787 20.4676 79.7787 16.3655C79.7787 12.2635 78.2763 9.68066 73.7064 9.68066V9.68541Z" fill="#1D1D1B"/>
<path d="M48.2752 9.67599C47.3121 9.59053 46.349 9.52406 45.3859 9.5288C44.4228 9.53355 43.4597 9.59527 42.4966 9.67599C39.7951 9.90388 37.9748 11.1525 37.9748 14.5994V18.0843C37.9544 19.0291 38.1958 19.9615 38.6731 20.781C39.3547 21.8373 40.4189 22.5979 41.649 22.908C42.3226 23.0549 43.0107 23.1265 43.7005 23.1217C44.2687 23.1217 44.8225 23.1454 45.3811 23.1454C45.9397 23.1454 46.4934 23.1454 47.0617 23.1217C47.7514 23.1265 48.4396 23.0549 49.1131 22.908C50.3433 22.5979 51.4074 21.8373 52.089 20.781C52.5665 19.9616 52.8079 19.0291 52.7873 18.0843V14.5994C52.8017 11.1525 50.9767 9.90388 48.2752 9.67599ZM49.5898 17.7472C49.5898 19.7033 49.2094 20.2493 47.7358 20.3965C46.9654 20.4772 46.0023 20.5104 45.3907 20.5104C44.7791 20.5104 43.8208 20.4772 43.0455 20.3965C41.572 20.2493 41.1916 19.7033 41.1916 17.7472V14.7561C41.1916 13.3698 41.312 12.5104 43.0118 12.33C44.5924 12.1793 46.1841 12.1793 47.7647 12.33C49.4646 12.5104 49.585 13.3698 49.585 14.7561L49.5898 17.7472Z" fill="#1D1D1B"/>
<path d="M58.311 20.349C58.0928 20.3735 57.8729 20.3214 57.6898 20.2018C57.5829 20.0962 57.5028 19.9672 57.456 19.8253C57.4091 19.6834 57.3968 19.5327 57.4201 19.3852V9.67603H54.29V19.276C54.29 20.425 54.3334 21.6499 55.3302 22.4428C56.0525 22.9983 56.876 23.0078 57.7379 23.0078H64.4604V20.349H58.311Z" fill="#1D1D1B"/>
<path d="M92.5879 16.5507L92.1064 16.4558V16.2516L92.5879 16.0854C93.4451 15.7816 94.1529 15.3495 94.1529 13.0991C94.1529 10.6777 92.2605 9.69019 89.3374 9.69019H81.2715V23.0124H90.3246C91.7693 23.0124 94.5671 22.5614 94.5671 19.5466C94.5671 17.6712 94.0133 16.8261 92.5879 16.5507ZM84.4016 12.3537H89.6986C90.8302 12.3537 91.0566 13.0991 91.0566 13.8065C91.0566 14.5139 90.7484 15.1834 89.6986 15.1834H84.4016V12.3537ZM89.9827 20.3489H84.4016V17.5003H89.9827C91.1144 17.5003 91.3407 18.2457 91.3407 18.9531C91.3407 19.6605 91.0277 20.3489 89.9827 20.3489Z" fill="#1D1D1B"/>
<path d="M113.641 20.1782C112.678 19.7319 112.572 18.7538 112.572 17.3817V15.3117C112.572 13.9633 112.664 12.9378 113.641 12.5152C113.641 12.5152 115.452 11.6132 121.288 12.7384L121.654 10.1604C120.077 9.82791 118.474 9.6215 116.863 9.54314C115.724 9.48128 114.582 9.54498 113.458 9.73305C112.986 9.81558 112.524 9.94278 112.076 10.1129C110.102 10.8773 109.36 12.7241 109.36 14.7135V17.9752C109.36 19.9598 110.102 21.8114 112.076 22.5758C112.524 22.7458 112.986 22.873 113.458 22.9556C114.582 23.1434 115.724 23.2071 116.863 23.1455C118.474 23.0672 120.077 22.8608 121.654 22.5283L121.283 19.955C115.452 21.0755 113.641 20.1782 113.641 20.1782Z" fill="#1D1D1B"/>
<path d="M29.9185 15.1597V17.5004H33.6409V19.3235C33.6465 19.576 33.5706 19.8237 33.4242 20.0309C33.3116 20.146 33.1771 20.238 33.0283 20.3016C32.8796 20.3651 32.7195 20.399 32.5574 20.4013C31.7878 20.4763 31.0142 20.5033 30.2411 20.482C29.4273 20.482 28.6183 20.4487 27.8045 20.368C25.8398 20.1734 25.5316 19.276 25.5316 17.2677V15.4493C25.5316 13.8968 25.6857 12.8476 26.9762 12.463C27.926 12.2678 28.8956 12.1817 29.8655 12.2066H30.8286C32.3958 12.2299 33.9562 12.4128 35.4852 12.7526L36.0486 10.3787C34.0267 9.82322 31.9355 9.55151 29.8366 9.57159C28.7286 9.57652 27.622 9.65106 26.5236 9.79474C25.7332 9.88467 24.9731 10.1474 24.2988 10.5639C23.0997 11.3852 22.4111 12.8523 22.4111 14.8369V17.8802C22.4111 20.1259 23.119 21.6784 24.5107 22.4191C25.6086 23.041 26.8703 23.1217 28.1319 23.136C28.3438 23.136 29.2299 23.1597 30.087 23.1597C30.872 23.1597 31.628 23.136 32.0662 23.136C33.1545 23.136 34.4739 22.9841 35.3552 22.2719C36.2364 21.5597 36.4724 20.463 36.4724 19.3805V15.1597H29.9185Z" fill="#1D1D1B"/>
</g>
<defs>
<clipPath id="clip0">
<rect width="136.5" height="24" fill="white"/>
</clipPath>
</defs>
</svg>
