<svg width="18" height="9" viewBox="0 0 18 9" fill="none" xmlns="http://www.w3.org/2000/svg">
<path d="M0.736151 0.272727H2.33416L5.11257 7.05682H5.21484L7.99325 0.272727H9.59126V9H8.33842V2.68466H8.25746L5.68359 8.98722H4.64382L2.06996 2.6804H1.98899V9H0.736151V0.272727ZM11.5057 9V0.272727H14.6165C15.2955 0.272727 15.858 0.396307 16.304 0.643466C16.75 0.890625 17.0838 1.22869 17.3054 1.65767C17.527 2.08381 17.6378 2.56392 17.6378 3.09801C17.6378 3.63494 17.5256 4.1179 17.3011 4.54688C17.0795 4.97301 16.7443 5.31108 16.2955 5.56108C15.8494 5.80824 15.2884 5.93182 14.6122 5.93182H12.473V4.81534H14.4929C14.9219 4.81534 15.2699 4.74148 15.5369 4.59375C15.804 4.44318 16 4.23864 16.125 3.98011C16.25 3.72159 16.3125 3.42756 16.3125 3.09801C16.3125 2.76847 16.25 2.47585 16.125 2.22017C16 1.96449 15.8026 1.7642 15.5327 1.61932C15.2656 1.47443 14.9134 1.40199 14.4759 1.40199H12.8224V9H11.5057Z" fill="white"/>
</svg>
