<svg width="22" height="22" viewBox="0 0 22 22" fill="none" xmlns="http://www.w3.org/2000/svg">
<path d="M20.3333 19.6667C20.3333 20.0203 20.1928 20.3594 19.9428 20.6095C19.6927 20.8595 19.3536 21 19 21H2.99996C2.64634 21 2.3072 20.8595 2.05715 20.6095C1.8071 20.3594 1.66663 20.0203 1.66663 19.6667V2.33333C1.66663 1.97971 1.8071 1.64057 2.05715 1.39052C2.3072 1.14048 2.64634 1 2.99996 1H16.3733C16.7213 0.999803 17.0557 1.1357 17.3048 1.37867L19.9306 3.94133C20.0581 4.06554 20.1593 4.214 20.2285 4.37795C20.2976 4.54191 20.3333 4.71805 20.3333 4.896V19.6667Z" stroke="#97A2B8" stroke-width="1.5" stroke-linecap="round" stroke-linejoin="round"/>
<path d="M5.70667 7.66667H16.3733" stroke="#97A2B8" stroke-width="1.5" stroke-linecap="round" stroke-linejoin="round"/>
<path d="M5.70667 11.6667H16.3733" stroke="#97A2B8" stroke-width="1.5" stroke-linecap="round" stroke-linejoin="round"/>
<path d="M5.70667 15.6667H11.04" stroke="#97A2B8" stroke-width="1.5" stroke-linecap="round" stroke-linejoin="round"/>
</svg>
