<svg width="16" height="16" viewBox="0 0 16 16" fill="none" xmlns="http://www.w3.org/2000/svg">
<path d="M2.64101 15.8081C2.36261 15.9469 2.05335 16.0123 1.74258 15.9981C1.4318 15.9839 1.12982 15.8905 0.865267 15.7268C0.600714 15.5631 0.382366 15.3345 0.230936 15.0627C0.0795053 14.791 1.32843e-05 14.485 0 14.1739V1.82607C1.32843e-05 1.51496 0.0795053 1.20902 0.230936 0.937254C0.382366 0.665489 0.600714 0.436918 0.865267 0.273223C1.12982 0.109529 1.4318 0.0161396 1.74258 0.00191114C2.05335 -0.0123173 2.36261 0.0530878 2.64101 0.191924L14.9906 6.36798C15.2939 6.51936 15.549 6.75225 15.7273 7.04052C15.9056 7.32879 16 7.66104 16 8C16 8.33896 15.9056 8.67121 15.7273 8.95948C15.549 9.24775 15.2939 9.48064 14.9906 9.63202L2.64101 15.8081Z" fill="#3574F6"/>
</svg>
