<svg width="29" height="28" viewBox="0 0 29 28" fill="none" xmlns="http://www.w3.org/2000/svg">
<path d="M0.30336 21.2107C0.149915 21.5955 0.33742 22.0318 0.722163 22.1852C1.10691 22.3387 1.54319 22.1511 1.69664 21.7664L0.30336 21.2107ZM6.11463 17.9263L5.38895 18.1157L6.11463 17.9263ZM22.4902 19.9687L21.8296 19.6136L22.4902 19.9687ZM1.69664 21.7664C2.30165 20.2494 3.24705 18.3507 4.12828 17.39C4.34298 17.1559 4.52181 17.014 4.65688 16.9419C4.78628 16.8728 4.82163 16.8945 4.8043 16.8899C4.78896 16.8859 4.85937 16.8938 4.98313 17.0813C5.10944 17.2728 5.25378 17.5979 5.38895 18.1157L6.84031 17.7368C6.68322 17.1351 6.48658 16.6364 6.2352 16.2553C5.98125 15.8704 5.63724 15.557 5.18275 15.4385C4.72626 15.3194 4.29772 15.4333 3.95048 15.6187C3.6089 15.801 3.29834 16.0758 3.02289 16.376C1.94351 17.5527 0.916122 19.6743 0.30336 21.2107L1.69664 21.7664ZM5.38895 18.1157C5.57872 18.8427 5.78591 19.431 6.02223 19.8861C6.25509 20.3345 6.54976 20.7189 6.94886 20.947C7.38016 21.1935 7.83391 21.2018 8.24548 21.0773C8.62806 20.9616 8.97977 20.7313 9.28932 20.4866C9.89244 20.0097 10.5896 19.2605 11.2613 18.6069C11.9692 17.9182 12.7186 17.2595 13.5427 16.8002L12.8126 15.4899C11.8101 16.0485 10.9459 16.821 10.2154 17.5318C9.44863 18.2777 8.88233 18.8962 8.35902 19.3099C8.10535 19.5105 7.92808 19.6062 7.81119 19.6416C7.72329 19.6681 7.70705 19.6526 7.69311 19.6447C7.64696 19.6183 7.52112 19.5177 7.35344 19.1948C7.18923 18.8786 7.01587 18.4093 6.84031 17.7368L5.38895 18.1157ZM13.5427 16.8002C13.9282 16.5855 14.1511 16.5562 14.2581 16.5631C14.3392 16.5683 14.4037 16.5955 14.4854 16.6835C14.5836 16.7892 14.6868 16.9655 14.7926 17.2316C14.8971 17.4948 14.9823 17.7868 15.0765 18.1063C15.1641 18.4038 15.266 18.75 15.3967 19.0374C15.5129 19.2929 15.7399 19.7106 16.1959 19.8864C16.7183 20.0878 17.1988 19.8602 17.5342 19.6052C17.8785 19.3434 18.2455 18.9273 18.654 18.3692L17.4436 17.4833C17.0605 18.0066 16.7957 18.2823 16.6263 18.4112C16.4479 18.5468 16.5327 18.4086 16.7355 18.4868C16.8718 18.5394 16.8552 18.6211 16.7621 18.4164C16.6835 18.2435 16.6104 18.0053 16.5153 17.6826C16.4268 17.3819 16.3217 17.0179 16.1865 16.6777C16.0526 16.3405 15.8665 15.9662 15.5842 15.6624C15.2854 15.3408 14.878 15.0997 14.354 15.0661C13.8559 15.0342 13.3405 15.1958 12.8126 15.4899L13.5427 16.8002ZM18.654 18.3692C19.1328 17.715 19.4927 16.772 19.7749 15.7317C20.0617 14.6743 20.2868 13.4443 20.4624 12.1639C20.8138 9.60209 20.975 6.78073 21.021 4.61534C21.0441 3.53235 21.0385 2.60381 21.0125 1.94623C20.9997 1.62103 20.9812 1.34516 20.9558 1.1453C20.9442 1.05337 20.9264 0.937916 20.8945 0.833522C20.8825 0.794454 20.8456 0.675579 20.7571 0.558114C20.7111 0.497073 20.6096 0.380261 20.4352 0.30803C20.2293 0.222802 20.0064 0.23477 19.8199 0.322088C19.6627 0.395717 19.5706 0.503565 19.5287 0.559168C19.4822 0.620802 19.4529 0.678208 19.436 0.714837C19.4023 0.787847 19.3818 0.857629 19.3695 0.904334C19.3436 1.00282 19.3233 1.11906 19.3061 1.23951C19.2707 1.48662 19.2361 1.83967 19.2021 2.30381C19.1339 3.23644 19.065 4.66811 19.004 6.70798L20.5033 6.75283C20.5641 4.72149 20.6322 3.31444 20.6981 2.41324C20.7312 1.96047 20.7629 1.64782 20.791 1.452C20.8054 1.35099 20.8161 1.30146 20.8201 1.28631C20.8227 1.2762 20.817 1.30219 20.7977 1.34401C20.788 1.36504 20.7658 1.41 20.7264 1.46227C20.6915 1.50852 20.6064 1.6101 20.4561 1.6805C20.2765 1.76459 20.0604 1.77636 19.8613 1.69392C19.6936 1.62447 19.5988 1.51343 19.5593 1.46108C19.5156 1.40309 19.4917 1.3525 19.4813 1.32877C19.4695 1.30192 19.4629 1.2816 19.4601 1.27248C19.4529 1.24877 19.4582 1.25902 19.4678 1.33426C19.4849 1.46874 19.5013 1.69307 19.5137 2.00549C19.5381 2.62315 19.544 3.51949 19.5214 4.58344C19.4761 6.7119 19.3176 9.47255 18.9764 11.96C18.8057 13.2043 18.5912 14.3657 18.3272 15.339C18.0586 16.3293 17.7563 17.0561 17.4436 17.4833L18.654 18.3692ZM19.004 6.70798C18.7602 14.859 18.7599 20.0883 18.8211 23.0941C18.8517 24.5938 18.8977 25.5499 18.9376 26.0418C18.9475 26.1644 18.9579 26.2681 18.9688 26.3481C18.974 26.386 18.9813 26.4334 18.9918 26.4802C18.9967 26.5021 19.0063 26.542 19.0228 26.588C19.031 26.6109 19.0459 26.6493 19.0696 26.6938C19.0885 26.7292 19.1394 26.8197 19.2369 26.9059C19.3431 26.9998 19.5728 27.1413 19.8809 27.0806C20.1528 27.0271 20.2982 26.8488 20.347 26.781C20.4422 26.6486 20.4693 26.5159 20.4719 26.5047C20.4889 26.433 20.4941 26.3659 20.4962 26.3376C20.5018 26.263 20.5037 26.1691 20.5037 26.0687H19.0037C19.0037 26.159 19.0017 26.2083 19.0004 26.2263C18.999 26.2444 19 26.2111 19.0121 26.1601C19.0123 26.1593 19.0367 26.0338 19.1292 25.9053C19.1765 25.8394 19.3205 25.6622 19.5909 25.6089C19.8976 25.5485 20.1258 25.6896 20.2304 25.7821C20.3264 25.8669 20.3757 25.9552 20.393 25.9876C20.4151 26.029 20.4283 26.0635 20.4348 26.0818C20.4479 26.1183 20.454 26.1455 20.4553 26.1511C20.4585 26.1656 20.458 26.1669 20.455 26.1448C20.4495 26.1048 20.4418 26.0325 20.4327 25.9206C20.3965 25.4742 20.3512 24.5538 20.3208 23.0636C20.2603 20.0898 20.26 14.8867 20.5033 6.75283L19.004 6.70798ZM20.5037 26.0687C20.5037 26.0703 20.5037 26.0548 20.5097 26.0174C20.5155 25.9814 20.5253 25.9335 20.5409 25.8725C20.5722 25.7496 20.6215 25.5936 20.6904 25.4043C20.828 25.026 21.0299 24.5521 21.2808 24.0096C21.7818 22.9262 22.4579 21.6128 23.1508 20.3238L21.8296 19.6136C21.1309 20.9134 20.4387 22.2569 19.9194 23.3799C19.6601 23.9404 19.4388 24.4571 19.2807 24.8916C19.1347 25.293 19.0037 25.7246 19.0037 26.0687H20.5037ZM23.1508 20.3238C24.325 18.1394 26.5622 16.7155 29 16.7155V15.2155C25.9685 15.2155 23.2449 16.9805 21.8296 19.6136L23.1508 20.3238Z" fill="#3574F6"/>
</svg>
