<svg width="84" height="28" viewBox="0 0 84 28" fill="none" xmlns="http://www.w3.org/2000/svg">
<g clip-path="url(#clip0)">
<path d="M50.1558 26.5769C50.1558 26.2031 50.4545 25.7478 50.9743 25.4162V25.374C50.8285 25.3075 50.7048 25.1998 50.6184 25.0639C50.532 24.928 50.4865 24.7697 50.4874 24.6082C50.5061 24.4218 50.5683 24.2427 50.6691 24.0854C50.7699 23.9282 50.9062 23.7973 51.0669 23.7037V23.6645C50.8833 23.512 50.7359 23.3199 50.6356 23.1023C50.5353 22.8847 50.4846 22.6472 50.4874 22.4072C50.4881 22.1787 50.5339 21.9526 50.622 21.7421C50.7101 21.5316 50.8387 21.3408 51.0005 21.1809C51.1623 21.021 51.3539 20.8952 51.5643 20.8107C51.7747 20.7262 51.9996 20.6847 52.226 20.6887C52.4487 20.6801 52.6706 20.7192 52.8773 20.8033H54.8789V21.1048H53.3553C53.5426 21.2692 53.6945 21.4707 53.8014 21.6968C53.9083 21.923 53.9679 22.1689 53.9767 22.4193C53.9752 22.6468 53.9286 22.8716 53.8398 23.0807C53.7509 23.2897 53.6216 23.4787 53.4593 23.6366C53.2971 23.7945 53.1052 23.918 52.8949 23.9999C52.6846 24.0819 52.4603 24.1205 52.235 24.1137C51.9078 24.1096 51.5862 24.0269 51.297 23.8725C51.1597 23.937 51.0408 24.0355 50.9515 24.1589C50.8622 24.2822 50.8053 24.4264 50.7861 24.578C50.7861 25.0725 51.2462 25.2926 51.9273 25.2926H53.176C54.3859 25.2926 54.8878 25.5941 54.8878 26.3629C54.8878 27.1317 53.9259 28 52.4053 28C50.8847 28 50.1558 27.4151 50.1558 26.5769ZM54.5562 26.384C54.5562 25.8081 54.126 25.6182 53.2477 25.6182H52.0348C51.7887 25.6221 51.5433 25.5906 51.3059 25.5247C50.6845 25.8594 50.4874 26.2302 50.4874 26.6161C50.4874 27.2191 51.0848 27.7166 52.3485 27.7166C53.7257 27.7166 54.5562 27.0292 54.5562 26.384ZM53.66 22.4072C53.6688 22.2134 53.6386 22.0199 53.5712 21.8382C53.5038 21.6565 53.4005 21.4905 53.2678 21.3502C53.135 21.2099 52.9754 21.0983 52.7987 21.022C52.6219 20.9457 52.4317 20.9063 52.2395 20.9063C52.0473 20.9063 51.857 20.9457 51.6803 21.022C51.5035 21.0983 51.344 21.2099 51.2112 21.3502C51.0784 21.4905 50.9752 21.6565 50.9078 21.8382C50.8404 22.0199 50.8102 22.2134 50.819 22.4072C50.8357 22.7761 50.9927 23.1242 51.2573 23.3792C51.5218 23.6343 51.8736 23.7766 52.2395 23.7766C52.6053 23.7766 52.9571 23.6343 53.2217 23.3792C53.4862 23.1242 53.6432 22.7761 53.66 22.4072Z" fill="#181716"/>
<path d="M56.7788 20.8033H57.0387L57.0805 22.0093H57.0985C57.342 21.6138 57.6786 21.2851 58.0784 21.0526C58.4781 20.8202 58.9286 20.691 59.3898 20.6766C59.7247 20.6661 60.0573 20.7353 60.3607 20.8786L60.2621 21.1621C59.9747 21.0369 59.664 20.9752 59.351 20.9812C58.5205 20.9812 57.7796 21.4033 57.0805 22.5339V25.6272H56.7818L56.7788 20.8033Z" fill="#181716"/>
<path d="M61.7827 23.8182V20.8033H62.0815V23.773C62.0815 24.9127 62.5116 25.4704 63.5214 25.4704C64.2413 25.4704 64.7821 25.0966 65.4841 24.2976V20.8033H65.7828V25.6272H65.5229L65.4841 24.6594H65.4423C64.9135 25.2835 64.3011 25.7508 63.5214 25.7508C62.3533 25.7599 61.7827 25.1418 61.7827 23.8182Z" fill="#181716"/>
<path d="M67.7871 20.8033H68.047L68.0888 21.5299H68.1127C68.6033 21.0288 69.2594 20.7272 69.956 20.6827C71.3272 20.6827 71.9964 21.6535 71.9964 23.1459C71.9964 24.783 70.9448 25.7538 69.7349 25.7538C69.126 25.7056 68.5497 25.4566 68.0948 25.0453H68.0739L68.0948 26.0553V27.8643H67.7961L67.7871 20.8033ZM71.6707 23.1459C71.6707 21.9158 71.1808 20.9661 69.9291 20.9661C69.3973 20.9661 68.7341 21.2676 68.0888 21.9158V24.7227C68.5366 25.1668 69.1242 25.4388 69.7498 25.4915C70.8701 25.4765 71.6707 24.5056 71.6707 23.1519V23.1459Z" fill="#181716"/>
<path d="M73.7891 20.8033H74.049L74.0908 21.5299H74.1087C74.5993 21.0288 75.2553 20.7272 75.952 20.6827C77.3202 20.6827 77.9924 21.6535 77.9924 23.1459C77.9924 24.783 76.9408 25.7538 75.7309 25.7538C75.1217 25.7079 74.5443 25.4611 74.0878 25.0513L74.1087 26.0614V27.8703H73.81L73.7891 20.8033ZM77.6727 23.1459C77.6727 21.9158 77.1828 20.9661 75.931 20.9661C75.3993 20.9661 74.7361 21.2676 74.0908 21.9158V24.7227C74.5385 25.1668 75.1262 25.4388 75.7518 25.4915C76.8751 25.4765 77.6727 24.5056 77.6727 23.1519V23.1459Z" fill="#181716"/>
<path d="M79.4977 23.2333C79.4977 21.6595 80.6389 20.6887 81.8876 20.6887C83.1364 20.6887 84.0087 21.5178 84.0087 22.9107C84.0115 23.0187 84.0045 23.1267 83.9878 23.2333H79.5963V22.9499H83.8982L83.7189 23.1127C83.7189 21.6595 82.9601 20.9721 81.8787 20.9721C80.7972 20.9721 79.8174 21.8012 79.8174 23.2122C79.7998 23.5088 79.8436 23.8059 79.9462 24.0844C80.0487 24.3629 80.2077 24.6168 80.4129 24.8299C80.6181 25.0429 80.865 25.2105 81.138 25.3218C81.411 25.4331 81.7039 25.4858 81.9982 25.4765C82.5915 25.4772 83.1695 25.2859 83.6472 24.9308L83.7876 25.1931C83.2638 25.567 82.6368 25.7653 81.9952 25.7599C81.6632 25.7731 81.3321 25.7167 81.0228 25.5943C80.7134 25.472 80.4326 25.2862 80.198 25.0488C79.9633 24.8115 79.7799 24.5276 79.6594 24.2151C79.5389 23.9026 79.4838 23.5684 79.4977 23.2333Z" fill="#181716"/>
<path d="M59.769 11.9272V12.9704H61.8363V17.1431H62.87V12.9704V11.9272H61.8363H59.769Z" fill="#181716"/>
<path d="M62.3533 10.9895C62.6965 10.9895 62.9747 10.7088 62.9747 10.3624C62.9747 10.0161 62.6965 9.73532 62.3533 9.73532C62.0101 9.73532 61.7319 10.0161 61.7319 10.3624C61.7319 10.7088 62.0101 10.9895 62.3533 10.9895Z" fill="#181716"/>
<path d="M53.0503 16.0939C52.6406 16.0939 52.2478 15.9297 51.9581 15.6374C51.6685 15.345 51.5058 14.9486 51.5058 14.5352V12.9644H53.5731V11.9272H51.5058V10.3624H50.5737L50.4721 11.9272H49.4385V12.9644H50.4721V14.5291C50.471 14.9881 50.5901 15.4392 50.8173 15.8368C51.0445 16.2344 51.3718 16.5644 51.766 16.7933C52.1602 17.0222 52.6073 17.1419 53.0621 17.1403C53.5168 17.1387 53.9631 17.0159 54.3558 16.7843L53.8359 15.8798C53.5977 16.0208 53.3264 16.0947 53.0503 16.0939Z" fill="#181716"/>
<path d="M58.2187 16.0939C57.8091 16.0939 57.4163 15.9297 57.1266 15.6374C56.837 15.345 56.6742 14.9486 56.6742 14.5352V12.9644H58.7415V11.9272H56.6742V10.3624H55.7422L55.6406 11.9272H54.6069V12.9644H55.6406V14.5291C55.6395 14.9881 55.7586 15.4392 55.9858 15.8368C56.213 16.2344 56.5403 16.5644 56.9344 16.7933C57.3286 17.0222 57.7757 17.1419 58.2305 17.1403C58.6853 17.1387 59.1316 17.0159 59.5242 16.7843L59.0044 15.8798C58.7662 16.0208 58.4949 16.0947 58.2187 16.0939Z" fill="#181716"/>
<path d="M8.46931 25.6393H0V4.27221L8.46931 0V25.6393Z" fill="#181716"/>
<path d="M25.4049 25.6393H16.9355V4.27221L25.4049 0V25.6393Z" fill="#181716"/>
<path d="M38.1072 8.54442C40.4451 8.54442 42.3403 6.63168 42.3403 4.27221C42.3403 1.91273 40.4451 0 38.1072 0C35.7693 0 33.874 1.91273 33.874 4.27221C33.874 6.63168 35.7693 8.54442 38.1072 8.54442Z" fill="#181716"/>
</g>
<defs>
<clipPath id="clip0">
<rect width="84" height="28" fill="white"/>
</clipPath>
</defs>
</svg>
