<?xml version="1.0" encoding="UTF-8"?> <svg xmlns="http://www.w3.org/2000/svg" width="137" height="24" viewBox="0 0 137 24" fill="none"><g clip-path="url(#clip0)"><path d="M2.67741 0L0 24H17.0661L19.7483 0H2.67741Z" fill="#21508A"></path><path d="M2.98535 17.5003V9.59999H15.809V12.762H6.19247V17.5003H2.98535Z" fill="#66B8E7"></path><path d="M12.6019 14.3383H15.809V22.2433H2.98535V19.0813H12.6019V14.3383Z" fill="#66B8E7"></path><path d="M10.9986 14.343H7.7915V17.505H10.9986V14.343Z" fill="#66B8E7"></path><path d="M99.2184 17.5145H107.28V15.1834H99.2184V12.349H107.776V9.68071H96.0835V23.0125H107.983V20.3442H99.2184V17.5145Z" fill="#1D1D1B"></path><path d="M131.901 9.68071L126.835 15.1786H126.455V9.68071H123.339V23.0125H126.455V17.5098H126.835L132.166 23.0125H136.5L129.537 16.2564L135.787 9.68071H131.901Z" fill="#1D1D1B"></path><path d="M69.0397 20.349V12.349H73.8552C76.1666 12.349 76.653 14.495 76.653 16.3656C76.653 18.2362 76.0607 20.3442 73.7637 20.3442L69.0397 20.349ZM73.7059 9.68546H65.9048V23.0125H73.7059C78.2758 23.0125 79.7782 20.4677 79.7782 16.3656C79.7782 12.2635 78.2758 9.68071 73.7059 9.68071V9.68546Z" fill="#1D1D1B"></path><path d="M48.2752 9.67597C47.3121 9.59051 46.349 9.52404 45.3859 9.52879C44.4228 9.53354 43.4597 9.59526 42.4966 9.67597C39.7951 9.90386 37.9748 11.1525 37.9748 14.5994V18.0843C37.9544 19.0291 38.1958 19.9615 38.6731 20.781C39.3547 21.8373 40.4189 22.5978 41.649 22.908C42.3226 23.0548 43.0107 23.1265 43.7005 23.1217C44.2687 23.1217 44.8225 23.1454 45.3811 23.1454C45.9397 23.1454 46.4934 23.1454 47.0617 23.1217C47.7514 23.1265 48.4396 23.0548 49.1131 22.908C50.3433 22.5978 51.4074 21.8373 52.089 20.781C52.5665 19.9616 52.8079 19.0291 52.7873 18.0843V14.5994C52.8017 11.1525 50.9767 9.90386 48.2752 9.67597ZM49.5898 17.7472C49.5898 19.7033 49.2094 20.2493 47.7358 20.3964C46.9654 20.4772 46.0023 20.5104 45.3907 20.5104C44.7791 20.5104 43.8208 20.4772 43.0455 20.3964C41.572 20.2493 41.1916 19.7033 41.1916 17.7472V14.7561C41.1916 13.3697 41.312 12.5104 43.0118 12.33C44.5924 12.1793 46.1841 12.1793 47.7647 12.33C49.4646 12.5104 49.585 13.3697 49.585 14.7561L49.5898 17.7472Z" fill="#1D1D1B"></path><path d="M58.311 20.349C58.0928 20.3734 57.8729 20.3213 57.6898 20.2018C57.5829 20.0961 57.5028 19.9671 57.456 19.8252C57.4091 19.6834 57.3968 19.5326 57.4201 19.3852V9.67596H54.29V19.276C54.29 20.4249 54.3334 21.6499 55.3302 22.4427C56.0525 22.9982 56.876 23.0077 57.7379 23.0077H64.4604V20.349H58.311Z" fill="#1D1D1B"></path><path d="M92.5874 16.5508L92.1059 16.4558V16.2516L92.5874 16.0855C93.4446 15.7816 94.1525 15.3496 94.1525 13.0991C94.1525 10.6778 92.26 9.69022 89.337 9.69022H81.271V23.0125H90.3241C91.7688 23.0125 94.5666 22.5614 94.5666 19.5466C94.5666 17.6712 94.0128 16.8261 92.5874 16.5508ZM84.4011 12.3537H89.6981C90.8298 12.3537 91.0561 13.0991 91.0561 13.8065C91.0561 14.514 90.7479 15.1834 89.6981 15.1834H84.4011V12.3537ZM89.9822 20.349H84.4011V17.5003H89.9822C91.1139 17.5003 91.3402 18.2457 91.3402 18.9531C91.3402 19.6605 91.0272 20.349 89.9822 20.349Z" fill="#1D1D1B"></path><path d="M113.641 20.178C112.678 19.7318 112.572 18.7537 112.572 17.3816V15.3116C112.572 13.9632 112.663 12.9377 113.641 12.5151C113.641 12.5151 115.451 11.6131 121.288 12.7383L121.654 10.1602C120.076 9.8278 118.474 9.62139 116.862 9.54303C115.724 9.48117 114.582 9.54487 113.458 9.73294C112.986 9.81547 112.523 9.94267 112.076 10.1128C110.101 10.8772 109.36 12.724 109.36 14.7134V17.9751C109.36 19.9597 110.101 21.8113 112.076 22.5757C112.523 22.7457 112.986 22.8729 113.458 22.9555C114.582 23.1433 115.724 23.207 116.862 23.1454C118.474 23.0671 120.076 22.8607 121.654 22.5282L121.283 19.9549C115.451 21.0754 113.641 20.178 113.641 20.178Z" fill="#1D1D1B"></path><path d="M29.9185 15.1596V17.5003H33.6409V19.3234C33.6465 19.5759 33.5706 19.8237 33.4242 20.0309C33.3116 20.146 33.1771 20.2379 33.0283 20.3015C32.8796 20.3651 32.7195 20.3989 32.5574 20.4012C31.7878 20.4762 31.0142 20.5032 30.2411 20.4819C29.4273 20.4819 28.6183 20.4487 27.8045 20.368C25.8398 20.1733 25.5316 19.276 25.5316 17.2677V15.4493C25.5316 13.8967 25.6857 12.8475 26.9762 12.4629C27.926 12.2677 28.8956 12.1817 29.8655 12.2065H30.8286C32.3958 12.2298 33.9562 12.4128 35.4852 12.7525L36.0486 10.3786C34.0267 9.82314 31.9355 9.55143 29.8366 9.57152C28.7286 9.57645 27.622 9.65098 26.5236 9.79466C25.7332 9.8846 24.9731 10.1474 24.2988 10.5638C23.0997 11.3852 22.4111 12.8522 22.4111 14.8368V17.8801C22.4111 20.1258 23.119 21.6783 24.5107 22.419C25.6086 23.041 26.8703 23.1217 28.1319 23.1359C28.3438 23.1359 29.2299 23.1596 30.087 23.1596C30.872 23.1596 31.628 23.1359 32.0662 23.1359C33.1545 23.1359 34.4739 22.984 35.3552 22.2718C36.2364 21.5596 36.4724 20.4629 36.4724 19.3804V15.1596H29.9185Z" fill="#1D1D1B"></path></g><defs><clipPath id="clip0"><rect width="136.5" height="24" fill="white"></rect></clipPath></defs></svg> 