<?xml version="1.0" encoding="UTF-8"?> <svg xmlns="http://www.w3.org/2000/svg" width="98" height="28" viewBox="0 0 98 28" fill="none"><g clip-path="url(#clip0)"><path d="M36.385 3.58235C34.3705 3.58235 32.493 5.03725 32.493 7.39804C32.493 9.75882 34.3294 11.2 36.385 11.2C37.4265 11.2 38.2625 11.0078 38.9066 10.5961L38.6873 11.5569C38.1255 11.8863 37.4128 12.0373 36.2891 12.0373C33.8908 12.0373 31.5474 10.2804 31.5474 7.39804C31.5474 4.48823 33.9182 2.75882 36.2891 2.75882C37.4539 2.75882 38.3173 3.00588 38.9203 3.36274L38.7422 4.18627C38.2214 3.85686 37.3306 3.58235 36.385 3.58235ZM43.7991 12.0373C41.716 12.0373 40.3045 10.802 40.3045 8.78431V2.92353H41.2501V8.70196C41.2501 10.2804 42.182 11.2 43.8128 11.2C45.4436 11.2 46.3755 10.2667 46.3755 8.70196V2.92353H47.2937V8.78431C47.2937 10.802 45.8821 12.0373 43.7991 12.0373ZM51.268 12.0373C50.2127 12.0373 49.3905 11.6941 48.8971 11.351L48.6367 10.2392C49.4179 10.8431 50.2675 11.2137 51.3228 11.2137C52.4465 11.2137 53.2277 10.5686 53.2277 9.56666C53.2277 8.6196 52.6658 8.05686 51.4187 7.63137C49.8016 7.06862 49.0616 6.21764 49.0616 5.03725C49.0616 3.92549 49.8975 2.77255 51.7065 2.77255C52.5288 2.77255 53.214 3.0196 53.5977 3.29411L53.4058 4.07647C53.0495 3.81568 52.3643 3.5549 51.6791 3.5549C50.5553 3.5549 49.966 4.28235 49.966 4.96862C49.966 5.68235 50.4731 6.23137 51.6106 6.67058C53.2277 7.27451 54.1733 8.02941 54.1733 9.48431C54.1733 11.0353 53.0632 12.0373 51.268 12.0373ZM58.5313 11.8863H57.5857V3.73333H54.5159V2.92353H61.6148V3.73333H58.5313V11.8863ZM66.1372 12.0373C63.6704 12.0373 61.4503 10.198 61.4503 7.38431C61.4503 4.61176 63.6704 2.75882 66.1372 2.75882C68.604 2.75882 70.8241 4.61176 70.8241 7.38431C70.8241 10.198 68.6177 12.0373 66.1372 12.0373ZM66.1372 3.58235C64.1775 3.58235 62.4096 5.09215 62.4096 7.38431C62.4096 9.69019 64.1775 11.2 66.1372 11.2C68.0832 11.2 69.8648 9.67647 69.8648 7.38431C69.8785 5.07843 68.0969 3.58235 66.1372 3.58235ZM80.609 7.23333C80.5542 6.45098 80.5131 5.66862 80.472 4.9H80.4446C80.1157 5.64117 79.6908 6.56078 79.3345 7.28823L77.0596 11.9823H76.7444L74.4558 7.28823C74.1132 6.57451 73.702 5.69607 73.3457 4.91372H73.3183C73.2772 5.68235 73.2361 6.5196 73.1813 7.23333L72.8112 11.8863H71.9616L72.6742 2.92353H73.2772L75.744 7.94705C76.1414 8.74313 76.5525 9.62156 76.9089 10.4588H76.9363C77.2789 9.63529 77.6489 8.82549 78.0874 7.94705L80.5405 2.92353H81.1435L81.8835 11.8863H80.9928L80.609 7.23333ZM83.8844 2.92353H88.5576V3.73333H84.83V6.95882H87.8861V7.76862H84.83V11.049H89.0509V11.8588H83.8844V2.92353ZM93.2171 7.78235H91.6822V11.8863H90.7366V2.92353H93.2856C94.6423 2.92353 95.9031 3.81568 95.9031 5.35294C95.9031 6.53333 95.1631 7.35686 94.149 7.64509L97.301 11.8863H96.2046L93.2171 7.78235ZM93.1348 3.73333H91.6822V6.95882H93.1897C94.1353 6.95882 94.9575 6.36862 94.9575 5.33921C94.9575 4.33725 94.1353 3.73333 93.1348 3.73333Z" fill="#4762A7"></path><path d="M37.4125 22.2628H33.6301L32.616 24.7745H31.6841L35.3843 15.6333H35.6858L39.3859 24.7745H38.4266L37.4125 22.2628ZM35.5487 17.349H35.5213C35.3706 17.8432 35.1924 18.3235 35.028 18.7216L33.9453 21.4804H37.0836L36.0147 18.7216C35.8502 18.3235 35.6995 17.8432 35.5487 17.349ZM42.1131 15.8118H43.0587V23.9647H47.4989V24.7745H42.1131V15.8118ZM49.7465 15.8118H50.6921V23.9647H55.1323V24.7745H49.7465V15.8118ZM57.6128 15.8118H58.5584V24.7745H57.6128V15.8118ZM67.2332 22.2628H63.4508L62.4367 24.7745H61.5048L65.205 15.6333H65.5065L69.2067 24.7745H68.2474L67.2332 22.2628ZM65.3694 17.349H65.342C65.1913 17.8432 65.0131 18.3235 64.8487 18.7216L63.766 21.4804H66.9043L65.8354 18.7216C65.6709 18.3235 65.5202 17.8432 65.3694 17.349ZM75.0721 19.9157C74.3047 19.0373 73.4961 18.0765 72.8794 17.3353L72.852 17.349C72.8931 18.1863 72.8794 19.0098 72.8794 19.8333V24.7745H71.9475V15.8118H72.6054L76.7578 20.5745C77.3745 21.2882 78.183 22.249 78.786 22.9765L78.8134 22.9628C78.7723 22.1667 78.786 21.3569 78.786 20.5882V15.8118H79.7316V24.9667H79.485L75.0721 19.9157ZM87.5157 16.4706C85.5012 16.4706 83.6237 17.9118 83.6237 20.2863C83.6237 22.6471 85.4601 24.0882 87.5157 24.0882C88.5573 24.0882 89.3932 23.8961 90.0373 23.4843L89.8181 24.4451C89.2562 24.7745 88.5436 24.9255 87.4198 24.9255C85.0215 24.9255 82.6781 23.1686 82.6781 20.2863C82.6781 17.3765 85.0489 15.6471 87.4198 15.6471C88.5847 15.6471 89.448 15.8941 90.051 16.251L89.8729 17.0745C89.3521 16.7451 88.4613 16.4706 87.5157 16.4706ZM92.8467 15.8118H97.5199V16.6216H93.7923V19.8471H96.8484V20.6569H93.7923V23.951H98.0133V24.7608H92.8467V15.8118Z" fill="#4762A7"></path><path d="M20.4059 17.5549C20.2277 17.4725 20.0358 17.5412 19.9536 17.7196C19.5836 18.502 18.775 19.0098 17.9117 19.0098C17.5828 19.0098 17.2539 18.9412 16.9661 18.8039C16.7879 18.7216 16.596 18.8039 16.5138 18.9686C16.4316 19.1471 16.5138 19.3392 16.6783 19.4216C17.062 19.6 17.4868 19.6961 17.9254 19.6961C19.0628 19.6961 20.1044 19.0373 20.584 18.0078C20.6525 17.8431 20.584 17.6373 20.4059 17.5549ZM12.5396 6.84901C12.5396 6.84901 12.5533 6.84901 12.5396 6.84901C12.5533 6.84901 12.5396 6.84901 12.5396 6.84901Z" fill="#4762A7"></path><path d="M21.3514 0H6.60551C2.97385 0 0 2.97843 0 6.61569V21.3843C0 25.0216 2.97385 28 6.60551 28H21.3514C24.9831 28 27.9569 25.0216 27.9569 21.3843V6.61569C27.9569 2.97843 24.9831 0 21.3514 0ZM18.912 23.3745C18.5146 23.5255 19.6932 21.9196 18.775 21.5078C18.0487 21.7275 17.2812 21.8373 16.4727 21.8373C15.5956 21.8373 14.7596 21.7 13.9785 21.4392C13.1973 21.7 12.3476 21.8373 11.4843 21.8373C7.05775 21.8373 3.48091 18.2549 3.48091 13.8216C3.48091 9.38824 7.05775 5.80588 11.4843 5.80588C12.3613 5.80588 13.1973 5.94314 13.9785 6.20392C14.7596 5.94314 15.6093 5.80588 16.4727 5.80588C20.8992 5.80588 24.5171 9.40196 24.476 13.8216C24.4075 21.3157 18.912 23.3745 18.912 23.3745Z" fill="#4762A7"></path><path d="M8.46935 13.8353C8.46935 10.2804 10.7717 7.27451 13.9785 6.21765C13.1974 5.95687 12.3477 5.81961 11.4843 5.81961C7.0578 5.81961 3.48096 9.40196 3.48096 13.8353C3.48096 18.2686 7.0578 21.851 11.4843 21.851C12.3614 21.851 13.1974 21.7137 13.9785 21.4529C10.7854 20.3961 8.46935 17.3765 8.46935 13.8353Z" fill="#B4BFDC"></path></g><defs><clipPath id="clip0"><rect width="98" height="28" fill="white"></rect></clipPath></defs></svg> 