<?xml version="1.0" encoding="UTF-8"?> <svg xmlns="http://www.w3.org/2000/svg" width="28" height="32" viewBox="0 0 28 32" fill="none"><path d="M1.00004 5.23069V15.3827C1.00007 18.5915 1.97247 21.7251 3.78906 24.3702C5.60564 27.0154 8.18114 29.0479 11.176 30.2L12.564 30.7334C13.4884 31.0889 14.5117 31.0889 15.436 30.7334L16.824 30.2C19.819 29.0479 22.3944 27.0154 24.211 24.3702C26.0276 21.7251 27 18.5915 27 15.3827V5.23069C27.0026 4.84867 26.8947 4.47404 26.6894 4.15187C26.4841 3.8297 26.1901 3.57371 25.8427 3.41469C22.1092 1.78508 18.0736 0.962237 14 1.00002C9.92652 0.962237 5.89093 1.78508 2.15738 3.41469C1.81002 3.57371 1.51599 3.8297 1.31068 4.15187C1.10536 4.47404 0.997489 4.84867 1.00004 5.23069V5.23069Z" stroke="#292B2F" stroke-width="1.5" stroke-linecap="round" stroke-linejoin="round"></path><path d="M18 13H10C8.89543 13 8 13.8954 8 15V21C8 22.1046 8.89543 23 10 23H18C19.1046 23 20 22.1046 20 21V15C20 13.8954 19.1046 13 18 13Z" stroke="#292B2F" stroke-width="1.5" stroke-linecap="round" stroke-linejoin="round"></path><path d="M14 7C12.9391 7 11.9217 7.42143 11.1716 8.17157C10.4214 8.92172 10 9.93913 10 11V13H18V11C18 9.93913 17.5786 8.92172 16.8284 8.17157C16.0783 7.42143 15.0609 7 14 7Z" stroke="#292B2F" stroke-width="1.5" stroke-linecap="round" stroke-linejoin="round"></path><path d="M14 17.5386C14.0989 17.5386 14.1956 17.5679 14.2778 17.6228C14.36 17.6778 14.4241 17.7559 14.4619 17.8472C14.4998 17.9386 14.5097 18.0391 14.4904 18.1361C14.4711 18.2331 14.4235 18.3222 14.3536 18.3921C14.2836 18.4621 14.1945 18.5097 14.0975 18.529C14.0006 18.5483 13.9 18.5384 13.8087 18.5005C13.7173 18.4627 13.6392 18.3986 13.5843 18.3164C13.5293 18.2341 13.5 18.1375 13.5 18.0386C13.5 17.906 13.5527 17.7788 13.6464 17.685C13.7402 17.5913 13.8674 17.5386 14 17.5386" stroke="#292B2F" stroke-width="1.5" stroke-linecap="round" stroke-linejoin="round"></path></svg> 