<?xml version="1.0" encoding="UTF-8"?> <svg xmlns="http://www.w3.org/2000/svg" width="30" height="24" viewBox="0 0 30 24" fill="none"><path d="M9.39993 12.0001C12.235 12.0001 14.5333 9.70179 14.5333 6.86673C14.5333 4.03167 12.235 1.7334 9.39993 1.7334C6.56487 1.7334 4.2666 4.03167 4.2666 6.86673C4.2666 9.70179 6.56487 12.0001 9.39993 12.0001Z" stroke="#292B2F" stroke-width="1.5" stroke-linecap="round" stroke-linejoin="round"></path><path d="M1 22.2667C1 20.0389 1.885 17.9023 3.4603 16.327C5.03561 14.7517 7.17218 13.8667 9.4 13.8667C11.6278 13.8667 13.7644 14.7517 15.3397 16.327C16.915 17.9023 17.8 20.0389 17.8 22.2667" stroke="#292B2F" stroke-width="1.5" stroke-linecap="round" stroke-linejoin="round"></path><path d="M17.8014 2.56226C18.5765 2.05861 19.4733 1.77361 20.3969 1.73735C21.3206 1.70109 22.2369 1.9149 23.0491 2.35623C23.8613 2.79755 24.5393 3.45 25.0115 4.24469C25.4836 5.03938 25.7324 5.94682 25.7316 6.87119C25.7308 7.79556 25.4804 8.70256 25.0069 9.49643C24.5334 10.2903 23.8543 10.9416 23.0413 11.3815C22.2283 11.8214 21.3116 12.0336 20.388 11.9958C19.4644 11.9579 18.5682 11.6713 17.7939 11.1663" stroke="#292B2F" stroke-width="1.5" stroke-linecap="round" stroke-linejoin="round"></path><path d="M18.7334 14.0745C19.9636 13.7958 21.2407 13.7975 22.4702 14.0793C23.6997 14.3611 24.85 14.916 25.836 15.7027C26.8219 16.4894 27.6183 17.4879 28.166 18.6242C28.7137 19.7604 28.9988 21.0053 29.0001 22.2667" stroke="#292B2F" stroke-width="1.5" stroke-linecap="round" stroke-linejoin="round"></path></svg> 