<?xml version="1.0" encoding="UTF-8"?> <svg xmlns="http://www.w3.org/2000/svg" width="30" height="28" viewBox="0 0 30 28" fill="none"><path d="M25.2665 4.66675L20.5998 10.2667L17.7998 7.46675" stroke="#292B2F" stroke-width="1.5" stroke-linecap="round" stroke-linejoin="round"></path><path d="M4.73333 14H2.86667C2.3716 14 1.8968 13.8034 1.54673 13.4533C1.19667 13.1032 1 12.6284 1 12.1334V2.80002C1 2.30495 1.19667 1.83015 1.54673 1.48008C1.8968 1.13002 2.3716 0.93335 2.86667 0.93335H27.1333C27.6284 0.93335 28.1032 1.13002 28.4533 1.48008C28.8033 1.83015 29 2.30495 29 2.80002V12.1334C29 12.6284 28.8033 13.1032 28.4533 13.4533C28.1032 13.8034 27.6284 14 27.1333 14H15.9333" stroke="#292B2F" stroke-width="1.5" stroke-linecap="round" stroke-linejoin="round"></path><path d="M6.59955 27.0666L3.1599 23.1964C2.98736 23.0068 2.85415 22.7849 2.768 22.5434C2.68184 22.302 2.64444 22.0459 2.65798 21.7899C2.67151 21.5339 2.7357 21.2832 2.84684 21.0522C2.95797 20.8212 3.11384 20.6145 3.30541 20.4442C3.49698 20.2739 3.72044 20.1432 3.96285 20.0599C4.20527 19.9765 4.46181 19.9421 4.71762 19.9586C4.97343 19.9751 5.22342 20.0422 5.45311 20.156C5.6828 20.2698 5.88763 20.4281 6.05573 20.6216L8.46622 23.3333V12.1333C8.46622 11.6382 8.66288 11.1634 9.01295 10.8133C9.36302 10.4633 9.83781 10.2666 10.3329 10.2666C10.828 10.2666 11.3027 10.4633 11.6528 10.8133C12.0029 11.1634 12.1995 11.6382 12.1995 12.1333V20.5333H14.0662C15.5514 20.5333 16.9758 21.1233 18.026 22.1735C19.0762 23.2237 19.6662 24.6481 19.6662 26.1333V27.0666" stroke="#292B2F" stroke-width="1.5" stroke-linecap="round" stroke-linejoin="round"></path></svg> 