<?xml version="1.0" encoding="UTF-8"?> <svg xmlns="http://www.w3.org/2000/svg" width="26" height="30" viewBox="0 0 26 30" fill="none"><path d="M15.7995 23.3999H2.73288C1.70195 23.3999 0.866211 24.2356 0.866211 25.2666V27.1332C0.866211 28.1642 1.70195 28.9999 2.73288 28.9999H15.7995C16.8305 28.9999 17.6662 28.1642 17.6662 27.1332V25.2666C17.6662 24.2356 16.8305 23.3999 15.7995 23.3999Z" stroke="#292B2F" stroke-width="1.5" stroke-linecap="round" stroke-linejoin="round"></path><path d="M17.666 27.1333H23.266C23.7611 27.1333 24.2359 26.9367 24.5859 26.5866C24.936 26.2365 25.1327 25.7617 25.1327 25.2667V1" stroke="#292B2F" stroke-width="1.5" stroke-linecap="round" stroke-linejoin="round"></path><path d="M17.666 17.8H25.1327" stroke="#292B2F" stroke-width="1.5" stroke-linecap="round" stroke-linejoin="round"></path><path d="M17.666 8.46655H25.1327" stroke="#292B2F" stroke-width="1.5" stroke-linecap="round" stroke-linejoin="round"></path><path d="M15.7995 14.0667H2.73288C1.70195 14.0667 0.866211 14.9024 0.866211 15.9333V17.8C0.866211 18.8309 1.70195 19.6666 2.73288 19.6666H15.7995C16.8305 19.6666 17.6662 18.8309 17.6662 17.8V15.9333C17.6662 14.9024 16.8305 14.0667 15.7995 14.0667Z" stroke="#292B2F" stroke-width="1.5" stroke-linecap="round" stroke-linejoin="round"></path><path d="M15.7995 4.7334H2.73288C1.70195 4.7334 0.866211 5.56913 0.866211 6.60006V8.46673C0.866211 9.49766 1.70195 10.3334 2.73288 10.3334H15.7995C16.8305 10.3334 17.6662 9.49766 17.6662 8.46673V6.60006C17.6662 5.56913 16.8305 4.7334 15.7995 4.7334Z" stroke="#292B2F" stroke-width="1.5" stroke-linecap="round" stroke-linejoin="round"></path></svg> 