<?xml version="1.0" encoding="UTF-8"?> <svg xmlns="http://www.w3.org/2000/svg" width="28" height="30" viewBox="0 0 28 30" fill="none"><path d="M27.038 27.1333C27.038 27.6284 26.8413 28.1032 26.4913 28.4533C26.1412 28.8033 25.6664 29 25.1713 29H2.82858C2.33351 29 1.85872 28.8033 1.50865 28.4533C1.15858 28.1032 0.961914 27.6284 0.961914 27.1333V2.86667C0.961914 2.3716 1.15858 1.8968 1.50865 1.54673C1.85872 1.19667 2.33351 1 2.82858 1H21.4952C21.9821 1.00005 22.4496 1.19028 22.7982 1.53013L26.4755 5.11787C26.6537 5.29186 26.7952 5.49975 26.8918 5.72928C26.9884 5.95882 27.0381 6.20536 27.038 6.4544V27.1333Z" stroke="#292B2F" stroke-width="1.5" stroke-linecap="round" stroke-linejoin="round"></path><path d="M14.0288 17.8C15.0597 17.8 15.8954 16.9642 15.8954 15.9333C15.8954 14.9024 15.0597 14.0667 14.0288 14.0667C12.9978 14.0667 12.1621 14.9024 12.1621 15.9333C12.1621 16.9642 12.9978 17.8 14.0288 17.8Z" stroke="#292B2F" stroke-width="1.5" stroke-linecap="round" stroke-linejoin="round"></path><path d="M15.6176 8.71174L16.1639 10.5199C16.2544 10.8199 16.4555 11.0744 16.7265 11.2317C16.9975 11.389 17.3182 11.4375 17.6236 11.3674L19.4567 10.943C19.804 10.8642 20.1675 10.8989 20.4937 11.0419C20.8198 11.1849 21.0916 11.4287 21.269 11.7375C21.4464 12.0463 21.52 12.4039 21.4792 12.7577C21.4384 13.1115 21.2852 13.4429 21.0421 13.7032L19.7603 15.0858C19.5462 15.316 19.4272 15.6188 19.4272 15.9333C19.4272 16.2477 19.5462 16.5505 19.7603 16.7807L21.0421 18.1633C21.2852 18.4236 21.4384 18.755 21.4792 19.1088C21.52 19.4626 21.4464 19.8202 21.269 20.129C21.0916 20.4378 20.8198 20.6817 20.4937 20.8247C20.1675 20.9676 19.804 21.0023 19.4567 20.9235L17.6236 20.4991C17.3182 20.429 16.9975 20.4775 16.7265 20.6348C16.4555 20.7921 16.2544 21.0466 16.1639 21.3466L15.6176 23.1548C15.515 23.4956 15.3053 23.7943 15.0196 24.0067C14.734 24.219 14.3875 24.3337 14.0315 24.3337C13.6756 24.3337 13.3291 24.219 13.0435 24.0067C12.7578 23.7943 12.5481 23.4956 12.4455 23.1548L11.8917 21.3466C11.8012 21.0466 11.6001 20.7921 11.3291 20.6348C11.0581 20.4775 10.7374 20.429 10.432 20.4991L8.59892 20.9235C8.2516 21.0023 7.88816 20.9676 7.56198 20.8247C7.23579 20.6817 6.96405 20.4378 6.78666 20.129C6.60927 19.8202 6.53558 19.4626 6.57641 19.1088C6.61724 18.755 6.77043 18.4236 7.0135 18.1633L8.29528 16.7807C8.50941 16.5505 8.62844 16.2477 8.62844 15.9333C8.62844 15.6188 8.50941 15.316 8.29528 15.0858L7.0135 13.7032C6.77043 13.4429 6.61724 13.1115 6.57641 12.7577C6.53558 12.4039 6.60927 12.0463 6.78666 11.7375C6.96405 11.4287 7.23579 11.1849 7.56198 11.0419C7.88816 10.8989 8.2516 10.8642 8.59892 10.943L10.432 11.3674C10.7374 11.4375 11.0581 11.389 11.3291 11.2317C11.6001 11.0744 11.8012 10.8199 11.8917 10.5199L12.4418 8.71174C12.5434 8.36944 12.7528 8.06912 13.039 7.85556C13.3251 7.64199 13.6726 7.52661 14.0297 7.52661C14.3867 7.52661 14.7342 7.64199 15.0204 7.85556C15.3065 8.06912 15.516 8.36944 15.6176 8.71174V8.71174Z" stroke="#292B2F" stroke-width="1.5" stroke-linecap="round" stroke-linejoin="round"></path></svg> 