<?xml version="1.0" encoding="UTF-8"?> <svg xmlns="http://www.w3.org/2000/svg" width="30" height="30" viewBox="0 0 30 30" fill="none"><path d="M2.86719 16.0149V8.75142C2.86916 8.42743 2.99959 8.11746 3.22986 7.88953C3.46012 7.6616 3.77141 7.53433 4.0954 7.53565H14.5333C14.7236 7.53536 14.9113 7.57928 15.0817 7.66393C15.2521 7.74858 15.4005 7.87166 15.5152 8.02346L16.991 10.333H24.9725C25.2967 10.332 25.6081 10.4598 25.8381 10.6882C26.0682 10.9167 26.1982 11.2271 26.1995 11.5513V16.0149" stroke="#292B2F" stroke-width="1.5" stroke-linecap="round" stroke-linejoin="round"></path><path d="M24.6284 6.59976V5.01814C24.6264 4.69415 24.496 4.38418 24.2657 4.15625C24.0355 3.92832 23.7242 3.80105 23.4002 3.80237H16.9916L15.5158 1.48781C15.4011 1.33601 15.2527 1.21294 15.0823 1.12828C14.9119 1.04363 14.7242 0.99972 14.5339 1.00001H5.66766C5.50703 0.999355 5.34783 1.03035 5.19917 1.09122C5.05051 1.15208 4.9153 1.24164 4.80125 1.35476C4.6872 1.46789 4.59655 1.60237 4.53447 1.75053C4.47239 1.89869 4.44011 2.05763 4.43945 2.21827V3.51616" stroke="#292B2F" stroke-width="1.5" stroke-linecap="round" stroke-linejoin="round"></path><path d="M27.7827 16.0149H2.21799C1.54585 16.0149 1.00098 16.5598 1.00098 17.2319V27.7831C1.00098 28.4552 1.54585 29.0001 2.21799 29.0001H27.7827C28.4548 29.0001 28.9997 28.4552 28.9997 27.7831V17.2319C28.9997 16.5598 28.4548 16.0149 27.7827 16.0149Z" stroke="#292B2F" stroke-width="1.5" stroke-linecap="round" stroke-linejoin="round"></path><path d="M11.3477 19.6658H18.6522" stroke="#292B2F" stroke-width="1.5" stroke-linecap="round" stroke-linejoin="round"></path></svg> 