<?xml version="1.0" encoding="UTF-8"?> <svg xmlns="http://www.w3.org/2000/svg" width="16" height="16" viewBox="0 0 16 16" fill="none"><g clip-path="url(#clip0)"><path d="M10.5 6.49951L7.846 10.0382C7.803 10.0954 7.7482 10.1428 7.68532 10.177C7.62243 10.2113 7.55293 10.2316 7.4815 10.2367C7.41007 10.2417 7.33839 10.2314 7.27131 10.2063C7.20423 10.1813 7.1433 10.1421 7.09267 10.0915L5.5 8.49951" stroke="#AEB3FF" stroke-linecap="round" stroke-linejoin="round"></path><path d="M7.15331 0.904759C7.25515 0.778178 7.38408 0.676043 7.5306 0.605869C7.67713 0.535695 7.83752 0.499268 7.99998 0.499268C8.16244 0.499268 8.32284 0.535695 8.46936 0.605869C8.61589 0.676043 8.74481 0.778178 8.84665 0.904759L9.85465 2.15876C9.96881 2.30103 10.117 2.41225 10.2854 2.48215C10.4539 2.55206 10.6373 2.57841 10.8186 2.55876L12.4186 2.38476C12.5806 2.36677 12.7446 2.38543 12.8983 2.43938C13.0521 2.49332 13.1918 2.58116 13.307 2.69639C13.4222 2.81163 13.5101 2.9513 13.564 3.10508C13.618 3.25885 13.6366 3.42279 13.6186 3.58476L13.4446 5.18476C13.425 5.36611 13.4513 5.54948 13.5213 5.71796C13.5912 5.88644 13.7024 6.0346 13.8446 6.14876L15.0986 7.15676C15.2252 7.2586 15.3274 7.38752 15.3975 7.53405C15.4677 7.68057 15.5041 7.84096 15.5041 8.00343C15.5041 8.16589 15.4677 8.32628 15.3975 8.47281C15.3274 8.61933 15.2252 8.74825 15.0986 8.85009L13.8406 9.85343C13.6984 9.96777 13.5872 10.1161 13.5173 10.2846C13.4474 10.4532 13.4211 10.6367 13.4406 10.8181L13.6146 12.4181C13.6328 12.5801 13.6142 12.7441 13.5603 12.8979C13.5064 13.0518 13.4186 13.1915 13.3033 13.3067C13.188 13.422 13.0483 13.5098 12.8945 13.5637C12.7406 13.6176 12.5766 13.6362 12.4146 13.6181L10.8146 13.4441C10.6333 13.4244 10.4499 13.4507 10.2814 13.5206C10.1129 13.5905 9.96477 13.7018 9.85065 13.8441L8.84665 15.0934C8.74488 15.2201 8.61598 15.3224 8.46945 15.3926C8.32291 15.4628 8.16248 15.4993 7.99998 15.4993C7.83748 15.4993 7.67705 15.4628 7.53052 15.3926C7.38398 15.3224 7.25508 15.2201 7.15331 15.0934L6.14598 13.8401C6.03168 13.6978 5.8834 13.5866 5.71481 13.5167C5.54623 13.4468 5.36276 13.4205 5.18132 13.4401L3.58132 13.6141C3.4193 13.6323 3.25524 13.6139 3.10135 13.56C2.94746 13.5061 2.80767 13.4183 2.69238 13.303C2.57709 13.1877 2.48926 13.048 2.43541 12.8941C2.38155 12.7402 2.36307 12.5761 2.38132 12.4141L2.55532 10.8141C2.57496 10.6326 2.54861 10.4492 2.47871 10.2806C2.4088 10.112 2.29759 9.96373 2.15532 9.84943L0.901982 8.84209C0.775293 8.74032 0.673057 8.61142 0.602809 8.46489C0.532562 8.31836 0.496094 8.15793 0.496094 7.99543C0.496094 7.83292 0.532562 7.67249 0.602809 7.52596C0.673057 7.37943 0.775293 7.25053 0.901982 7.14876L2.15532 6.14076C2.29763 6.02664 2.40888 5.87849 2.4788 5.71C2.54871 5.54151 2.57503 5.35811 2.55532 5.17676L2.38132 3.57676C2.36319 3.41477 2.38177 3.25077 2.43567 3.09694C2.48957 2.9431 2.5774 2.80337 2.69267 2.68811C2.80793 2.57285 2.94766 2.48501 3.10149 2.43111C3.25533 2.37721 3.41932 2.35864 3.58132 2.37676L5.18132 2.55076C5.36275 2.57034 5.5462 2.54396 5.71478 2.47406C5.88335 2.40416 6.03164 2.29299 6.14598 2.15076L7.15331 0.904759Z" stroke="#AEB3FF" stroke-linecap="round" stroke-linejoin="round"></path></g><defs><clipPath id="clip0"><rect width="16" height="16" fill="white"></rect></clipPath></defs></svg> 