<?xml version="1.0" encoding="UTF-8"?> <svg xmlns="http://www.w3.org/2000/svg" width="24" height="24" viewBox="0 0 24 24" fill="none"><circle cx="12" cy="12" r="12" fill="#37B17E"></circle><path d="M9.59544 8.72727V13.8835C9.59189 14.7216 9.20126 15.169 8.50524 15.169C7.86248 15.169 7.41504 14.7855 7.41149 14.1818H6.32129C6.32129 15.4105 7.24458 16.0994 8.47683 16.0994C9.81206 16.0994 10.6856 15.2827 10.6892 13.8835V8.72727H9.59544ZM12.2863 16H15.074C16.7643 16 17.5278 15.1584 17.5278 14.0433C17.5278 12.9176 16.7394 12.282 16.0186 12.2429V12.1719C16.6862 12.0014 17.2437 11.5469 17.2437 10.6378C17.2437 9.56179 16.498 8.72727 14.9497 8.72727H12.2863V16ZM13.3836 15.0589V12.7294H15.0065C15.8872 12.7294 16.4376 13.2976 16.4376 13.9901C16.4376 14.6009 16.0221 15.0589 14.9674 15.0589H13.3836ZM13.3836 11.8736V9.66122H14.8822C15.7522 9.66122 16.1677 10.1193 16.1677 10.723C16.1677 11.4261 15.5924 11.8736 14.8538 11.8736H13.3836Z" fill="white"></path></svg> 