<?xml version="1.0" encoding="UTF-8"?> <svg xmlns="http://www.w3.org/2000/svg" width="608" height="324" viewBox="0 0 608 324" fill="none"><g filter="url(#filter0_d)"><rect x="8" width="600" height="360" rx="12" fill="white"></rect><path d="M44.6165 144.141H47.7884V153H49.3196V144.141H52.4964V142.818H44.6165V144.141ZM54.0344 153H55.5209V145.364H54.0344V153ZM54.7851 144.185C55.2972 144.185 55.7248 143.788 55.7248 143.3C55.7248 142.813 55.2972 142.411 54.7851 142.411C54.2681 142.411 53.8455 142.813 53.8455 143.3C53.8455 143.788 54.2681 144.185 54.7851 144.185ZM61.0014 145.364H59.4353V143.534H57.9488V145.364H56.8302V146.557H57.9488V151.066C57.9439 152.453 59.0028 153.124 60.1761 153.099C60.6484 153.094 60.9666 153.005 61.1406 152.94L60.8721 151.712C60.7727 151.732 60.5887 151.777 60.3501 151.777C59.8679 151.777 59.4353 151.618 59.4353 150.758V146.557H61.0014V145.364ZM64.2123 142.818H62.7258V153H64.2123V142.818ZM69.4193 153.154C71.0848 153.154 72.2631 152.334 72.6011 151.091L71.1942 150.837C70.9257 151.558 70.2794 151.926 69.4342 151.926C68.1615 151.926 67.3064 151.101 67.2666 149.629H72.6956V149.102C72.6956 146.343 71.045 145.264 69.3149 145.264C67.1871 145.264 65.7851 146.885 65.7851 149.232C65.7851 151.603 67.1672 153.154 69.4193 153.154ZM67.2716 148.516C67.3313 147.432 68.1168 146.492 69.3249 146.492C70.4783 146.492 71.234 147.347 71.2389 148.516H67.2716Z" fill="#282A2E"></path><rect x="44.5" y="168.5" width="551" height="39" rx="7.5" fill="white"></rect><path d="M58.7841 179.537H57.7898V196.281H58.7841V179.537Z" fill="#282A2E"></path><path d="M69.8029 182.818H68.5898V190.832H68.4904L62.9222 182.818H61.729V193H62.962V185.006H63.0614L68.6097 193H69.8029V182.818ZM75.2287 193.159C76.7798 193.159 77.9133 192.384 78.2713 191.23L77.1378 190.912C76.8395 191.707 76.1484 192.105 75.2287 192.105C73.8515 192.105 72.902 191.215 72.8473 189.58H78.3906V189.082C78.3906 186.239 76.7003 185.264 75.1093 185.264C73.0412 185.264 71.669 186.895 71.669 189.241C71.669 191.588 73.0213 193.159 75.2287 193.159ZM72.8473 188.565C72.9268 187.377 73.767 186.318 75.1093 186.318C76.3821 186.318 77.1974 187.273 77.1974 188.565H72.8473ZM81.8215 193H82.9749L84.6454 187.134H84.7647L86.4351 193H87.5886L89.9153 185.364H88.6823L87.0317 191.19H86.9522L85.3414 185.364H84.0886L82.4579 191.21H82.3783L80.7278 185.364H79.4948L81.8215 193ZM98.3382 193.159C100.029 193.159 101.142 192.125 101.341 190.773H100.168C99.949 191.608 99.2529 192.105 98.3382 192.105C96.9461 192.105 96.0512 190.952 96.0512 189.182C96.0512 187.452 96.966 186.318 98.3382 186.318C99.3723 186.318 99.9887 186.955 100.168 187.651H101.341C101.142 186.219 99.9291 185.264 98.3183 185.264C96.2501 185.264 94.8779 186.895 94.8779 189.222C94.8779 191.509 96.1904 193.159 98.3382 193.159ZM106.074 193.159C108.143 193.159 109.535 191.588 109.535 189.222C109.535 186.835 108.143 185.264 106.074 185.264C104.006 185.264 102.614 186.835 102.614 189.222C102.614 191.588 104.006 193.159 106.074 193.159ZM106.074 192.105C104.503 192.105 103.788 190.753 103.788 189.222C103.788 187.69 104.503 186.318 106.074 186.318C107.646 186.318 108.361 187.69 108.361 189.222C108.361 190.753 107.646 192.105 106.074 192.105ZM112.415 188.406C112.415 187.074 113.24 186.318 114.364 186.318C115.453 186.318 116.114 187.029 116.114 188.227V193H117.287V188.148C117.287 186.199 116.248 185.264 114.702 185.264C113.549 185.264 112.833 185.781 112.475 186.557H112.375V185.364H111.242V193H112.415V188.406ZM122.668 185.364H121.038V183.534H119.864V185.364H118.711V186.358H119.864V191.131C119.864 192.463 120.938 193.099 121.932 193.099C122.37 193.099 122.648 193.02 122.807 192.96L122.569 191.906C122.469 191.926 122.31 191.966 122.052 191.966C121.535 191.966 121.038 191.807 121.038 190.812V186.358H122.668V185.364ZM124.349 193H125.522V188.168C125.522 187.134 126.338 186.378 127.451 186.378C127.765 186.378 128.088 186.438 128.167 186.457V185.264C128.033 185.254 127.725 185.244 127.551 185.244C126.636 185.244 125.841 185.761 125.562 186.517H125.483V185.364H124.349V193ZM131.721 193.179C133.054 193.179 133.75 192.463 133.988 191.966H134.048V193H135.221V187.969C135.221 185.543 133.372 185.264 132.397 185.264C131.244 185.264 129.931 185.662 129.335 187.054L130.449 187.452C130.707 186.895 131.319 186.298 132.437 186.298C133.516 186.298 134.048 186.87 134.048 187.849V187.889C134.048 188.456 133.471 188.406 132.079 188.585C130.662 188.769 129.116 189.082 129.116 190.832C129.116 192.324 130.27 193.179 131.721 193.179ZM131.9 192.125C130.966 192.125 130.289 191.707 130.289 190.892C130.289 189.997 131.105 189.719 132.02 189.599C132.517 189.54 133.849 189.401 134.048 189.162V190.236C134.048 191.19 133.292 192.125 131.9 192.125ZM140.381 193.159C142.071 193.159 143.185 192.125 143.384 190.773H142.211C141.992 191.608 141.296 192.105 140.381 192.105C138.989 192.105 138.094 190.952 138.094 189.182C138.094 187.452 139.009 186.318 140.381 186.318C141.415 186.318 142.032 186.955 142.211 187.651H143.384C143.185 186.219 141.972 185.264 140.361 185.264C138.293 185.264 136.921 186.895 136.921 189.222C136.921 191.509 138.233 193.159 140.381 193.159ZM148.336 185.364H146.705V183.534H145.532V185.364H144.379V186.358H145.532V191.131C145.532 192.463 146.606 193.099 147.6 193.099C148.038 193.099 148.316 193.02 148.475 192.96L148.237 191.906C148.137 191.926 147.978 191.966 147.72 191.966C147.203 191.966 146.705 191.807 146.705 190.812V186.358H148.336V185.364Z" fill="#8E949E"></path><rect x="44.5" y="168.5" width="551" height="39" rx="7.5" stroke="#8E949E"></rect><path d="M48.4148 249C51.517 249 53.3118 247.076 53.3118 243.894C53.3118 240.727 51.517 238.818 48.5192 238.818H45.1186V249H48.4148ZM46.6548 247.658V240.161H48.4247C50.652 240.161 51.8004 241.493 51.8004 243.894C51.8004 246.305 50.652 247.658 48.3303 247.658H46.6548ZM58.31 249.154C59.9755 249.154 61.1537 248.334 61.4918 247.091L60.0849 246.837C59.8164 247.558 59.1701 247.926 58.3249 247.926C57.0522 247.926 56.1971 247.101 56.1573 245.629H61.5863V245.102C61.5863 242.343 59.9357 241.264 58.2056 241.264C56.0778 241.264 54.6758 242.885 54.6758 245.232C54.6758 247.603 56.0579 249.154 58.31 249.154ZM56.1623 244.516C56.2219 243.432 57.0074 242.492 58.2155 242.492C59.3689 242.492 60.1246 243.347 60.1296 244.516H56.1623ZM68.8739 243.228C68.5657 242.04 67.636 241.264 65.9854 241.264C64.2603 241.264 63.0373 242.174 63.0373 243.526C63.0373 244.61 63.6935 245.331 65.1253 245.649L66.4179 245.933C67.1537 246.097 67.4968 246.425 67.4968 246.902C67.4968 247.494 66.8654 247.956 65.8909 247.956C65.001 247.956 64.4293 247.573 64.2503 246.822L62.8135 247.041C63.0621 248.393 64.1857 249.154 65.9009 249.154C67.7454 249.154 69.0231 248.175 69.0231 246.793C69.0231 245.714 68.337 245.048 66.935 244.724L65.7219 244.446C64.8817 244.247 64.5188 243.964 64.5238 243.447C64.5188 242.86 65.1552 242.442 66.0003 242.442C66.925 242.442 67.3526 242.955 67.5266 243.467L68.8739 243.228ZM73.7901 249.154C75.5948 249.154 76.7631 248.07 76.9272 246.584H75.4804C75.2915 247.409 74.6502 247.896 73.8 247.896C72.5422 247.896 71.7318 246.847 71.7318 245.182C71.7318 243.546 72.5571 242.517 73.8 242.517C74.7446 242.517 75.3213 243.114 75.4804 243.83H76.9272C76.7681 242.288 75.5103 241.264 73.7752 241.264C71.6225 241.264 70.2304 242.885 70.2304 245.217C70.2304 247.518 71.5728 249.154 73.7901 249.154ZM78.4328 249H79.9193V244.337C79.9193 243.337 80.6899 242.616 81.7439 242.616C82.0521 242.616 82.4002 242.671 82.5195 242.706V241.284C82.3703 241.264 82.077 241.249 81.8881 241.249C80.9932 241.249 80.2276 241.756 79.9492 242.577H79.8696V241.364H78.4328V249ZM83.7219 249H85.2084V241.364H83.7219V249ZM84.4726 240.185C84.9847 240.185 85.4122 239.788 85.4122 239.3C85.4122 238.813 84.9847 238.411 84.4726 238.411C83.9555 238.411 83.5329 238.813 83.5329 239.3C83.5329 239.788 83.9555 240.185 84.4726 240.185ZM87.1242 251.864H88.6107V247.812H88.7002C88.9687 248.299 89.5155 249.149 90.9076 249.149C92.757 249.149 94.0993 247.668 94.0993 245.197C94.0993 242.721 92.7371 241.264 90.8927 241.264C89.4758 241.264 88.9637 242.129 88.7002 242.602H88.5759V241.364H87.1242V251.864ZM88.5809 245.182C88.5809 243.586 89.2769 242.527 90.5745 242.527C91.9218 242.527 92.5979 243.665 92.5979 245.182C92.5979 246.713 91.9019 247.881 90.5745 247.881C89.2968 247.881 88.5809 246.788 88.5809 245.182ZM99.2455 241.364H97.6794V239.534H96.1929V241.364H95.0743V242.557H96.1929V247.066C96.1879 248.453 97.2469 249.124 98.4202 249.099C98.8925 249.094 99.2106 249.005 99.3847 248.94L99.1162 247.712C99.0168 247.732 98.8328 247.777 98.5942 247.777C98.1119 247.777 97.6794 247.618 97.6794 246.758V242.557H99.2455V241.364ZM100.806 249H102.292V241.364H100.806V249ZM101.557 240.185C102.069 240.185 102.496 239.788 102.496 239.3C102.496 238.813 102.069 238.411 101.557 238.411C101.039 238.411 100.617 238.813 100.617 239.3C100.617 239.788 101.039 240.185 101.557 240.185ZM107.425 249.154C109.577 249.154 110.984 247.578 110.984 245.217C110.984 242.84 109.577 241.264 107.425 241.264C105.272 241.264 103.865 242.84 103.865 245.217C103.865 247.578 105.272 249.154 107.425 249.154ZM107.43 247.906C106.023 247.906 105.367 246.678 105.367 245.212C105.367 243.75 106.023 242.507 107.43 242.507C108.827 242.507 109.483 243.75 109.483 245.212C109.483 246.678 108.827 247.906 107.43 247.906ZM114.046 244.466C114.046 243.248 114.792 242.552 115.826 242.552C116.835 242.552 117.447 243.213 117.447 244.322V249H118.933V244.143C118.933 242.254 117.894 241.264 116.333 241.264C115.185 241.264 114.434 241.796 114.081 242.607H113.987V241.364H112.56V249H114.046V244.466Z" fill="#282A2E"></path><rect x="44.5" y="264.5" width="551" height="39" rx="7.5" fill="white"></rect><path d="M57.6506 289L58.6747 286.116H62.7912L63.8153 289H65.108L61.3693 278.818H60.0966L56.358 289H57.6506ZM59.0625 285.023L60.6932 280.429H60.7727L62.4034 285.023H59.0625ZM69.3343 289.159C70.8059 289.159 71.3031 288.244 71.5616 287.827H71.7008V289H72.8343V278.818H71.661V282.577H71.5616C71.3031 282.179 70.8457 281.264 69.3542 281.264C67.4252 281.264 66.0928 282.795 66.0928 285.202C66.0928 287.628 67.4252 289.159 69.3343 289.159ZM69.4934 288.105C68.0218 288.105 67.2661 286.812 67.2661 285.182C67.2661 283.571 68.0019 282.318 69.4934 282.318C70.9252 282.318 71.6809 283.472 71.6809 285.182C71.6809 286.912 70.9053 288.105 69.4934 288.105ZM77.9456 289.159C79.4172 289.159 79.9144 288.244 80.1729 287.827H80.3121V289H81.4456V278.818H80.2723V282.577H80.1729C79.9144 282.179 79.457 281.264 77.9655 281.264C76.0365 281.264 74.7042 282.795 74.7042 285.202C74.7042 287.628 76.0365 289.159 77.9456 289.159ZM78.1047 288.105C76.6331 288.105 75.8775 286.812 75.8775 285.182C75.8775 283.571 76.6133 282.318 78.1047 282.318C79.5365 282.318 80.2922 283.472 80.2922 285.182C80.2922 286.912 79.5167 288.105 78.1047 288.105ZM92.936 283.074C92.5681 281.99 91.7428 281.264 90.2315 281.264C88.6207 281.264 87.4275 282.179 87.4275 283.472C87.4275 284.526 88.0539 285.232 89.4559 285.56L90.7286 285.858C91.4992 286.037 91.8622 286.405 91.8622 286.932C91.8622 287.588 91.1661 288.125 90.0724 288.125C89.1129 288.125 88.5113 287.712 88.3025 286.892L87.1889 287.17C87.4623 288.468 88.5312 289.159 90.0923 289.159C91.8671 289.159 93.0752 288.19 93.0752 286.872C93.0752 285.808 92.409 285.137 91.0468 284.804L89.9133 284.526C89.0085 284.302 88.6008 283.999 88.6008 283.412C88.6008 282.756 89.2968 282.278 90.2315 282.278C91.2556 282.278 91.6782 282.845 91.882 283.372L92.936 283.074ZM97.8597 289.159C99.9278 289.159 101.32 287.588 101.32 285.222C101.32 282.835 99.9278 281.264 97.8597 281.264C95.7915 281.264 94.3994 282.835 94.3994 285.222C94.3994 287.588 95.7915 289.159 97.8597 289.159ZM97.8597 288.105C96.2886 288.105 95.5727 286.753 95.5727 285.222C95.5727 283.69 96.2886 282.318 97.8597 282.318C99.4307 282.318 100.147 283.69 100.147 285.222C100.147 286.753 99.4307 288.105 97.8597 288.105ZM103.027 289H104.2V284.227C104.2 283.109 105.016 282.318 105.93 282.318C106.82 282.318 107.442 282.9 107.442 283.77V289H108.635V284.028C108.635 283.044 109.251 282.318 110.325 282.318C111.16 282.318 111.876 282.761 111.876 283.889V289H113.05V283.889C113.05 282.094 112.085 281.264 110.723 281.264C109.629 281.264 108.829 281.766 108.436 282.557H108.356C107.979 281.741 107.312 281.264 106.308 281.264C105.314 281.264 104.578 281.741 104.26 282.557H104.16V281.364H103.027V289ZM118.313 289.159C119.864 289.159 120.997 288.384 121.355 287.23L120.222 286.912C119.923 287.707 119.232 288.105 118.313 288.105C116.935 288.105 115.986 287.215 115.931 285.58H121.474V285.082C121.474 282.239 119.784 281.264 118.193 281.264C116.125 281.264 114.753 282.895 114.753 285.241C114.753 287.588 116.105 289.159 118.313 289.159ZM115.931 284.565C116.011 283.377 116.851 282.318 118.193 282.318C119.466 282.318 120.281 283.273 120.281 284.565H115.931ZM129.912 289.159C131.384 289.159 131.881 288.244 132.14 287.827H132.279V289H133.412V278.818H132.239V282.577H132.14C131.881 282.179 131.424 281.264 129.932 281.264C128.003 281.264 126.671 282.795 126.671 285.202C126.671 287.628 128.003 289.159 129.912 289.159ZM130.071 288.105C128.6 288.105 127.844 286.812 127.844 285.182C127.844 283.571 128.58 282.318 130.071 282.318C131.503 282.318 132.259 283.472 132.259 285.182C132.259 286.912 131.483 288.105 130.071 288.105ZM138.842 289.159C140.393 289.159 141.526 288.384 141.884 287.23L140.751 286.912C140.453 287.707 139.762 288.105 138.842 288.105C137.465 288.105 136.515 287.215 136.46 285.58H142.004V285.082C142.004 282.239 140.313 281.264 138.723 281.264C136.654 281.264 135.282 282.895 135.282 285.241C135.282 287.588 136.634 289.159 138.842 289.159ZM136.46 284.565C136.54 283.377 137.38 282.318 138.723 282.318C139.995 282.318 140.811 283.273 140.811 284.565H136.46ZM147.026 281.364H145.395V279.534H144.222V281.364H143.068V282.358H144.222V287.131C144.222 288.463 145.295 289.099 146.29 289.099C146.727 289.099 147.006 289.02 147.165 288.96L146.926 287.906C146.827 287.926 146.668 287.966 146.409 287.966C145.892 287.966 145.395 287.807 145.395 286.812V282.358H147.026V281.364ZM150.954 289.179C152.286 289.179 152.982 288.463 153.221 287.966H153.28V289H154.454V283.969C154.454 281.543 152.604 281.264 151.63 281.264C150.476 281.264 149.164 281.662 148.567 283.054L149.681 283.452C149.939 282.895 150.551 282.298 151.67 282.298C152.748 282.298 153.28 282.87 153.28 283.849V283.889C153.28 284.456 152.704 284.406 151.312 284.585C149.895 284.769 148.349 285.082 148.349 286.832C148.349 288.324 149.502 289.179 150.954 289.179ZM151.133 288.125C150.198 288.125 149.522 287.707 149.522 286.892C149.522 285.997 150.337 285.719 151.252 285.599C151.749 285.54 153.081 285.401 153.28 285.162V286.236C153.28 287.19 152.525 288.125 151.133 288.125ZM156.511 289H157.684V281.364H156.511V289ZM157.108 280.091C157.565 280.091 157.943 279.733 157.943 279.295C157.943 278.858 157.565 278.5 157.108 278.5C156.65 278.5 156.273 278.858 156.273 279.295C156.273 279.733 156.65 280.091 157.108 280.091ZM160.923 278.818H159.749V289H160.923V278.818ZM168.397 283.074C168.029 281.99 167.204 281.264 165.692 281.264C164.081 281.264 162.888 282.179 162.888 283.472C162.888 284.526 163.515 285.232 164.917 285.56L166.189 285.858C166.96 286.037 167.323 286.405 167.323 286.932C167.323 287.588 166.627 288.125 165.533 288.125C164.574 288.125 163.972 287.712 163.763 286.892L162.65 287.17C162.923 288.468 163.992 289.159 165.553 289.159C167.328 289.159 168.536 288.19 168.536 286.872C168.536 285.808 167.87 285.137 166.508 284.804L165.374 284.526C164.469 284.302 164.062 283.999 164.062 283.412C164.062 282.756 164.758 282.278 165.692 282.278C166.716 282.278 167.139 282.845 167.343 283.372L168.397 283.074ZM171.073 289.08C171.565 289.08 171.968 288.677 171.968 288.185C171.968 287.692 171.565 287.29 171.073 287.29C170.581 287.29 170.178 287.692 170.178 288.185C170.178 288.677 170.581 289.08 171.073 289.08ZM174.891 289.08C175.384 289.08 175.786 288.677 175.786 288.185C175.786 287.692 175.384 287.29 174.891 287.29C174.399 287.29 173.997 287.692 173.997 288.185C173.997 288.677 174.399 289.08 174.891 289.08ZM178.71 289.08C179.202 289.08 179.605 288.677 179.605 288.185C179.605 287.692 179.202 287.29 178.71 287.29C178.217 287.29 177.815 287.692 177.815 288.185C177.815 288.677 178.217 289.08 178.71 289.08Z" fill="#8E949E"></path><rect x="44.5" y="264.5" width="551" height="39" rx="7.5" stroke="#D3D5DB"></rect><rect width="1200" height="48" transform="translate(8 64)" fill="white"></rect><line x1="8" y1="111.5" x2="1208" y2="111.5" stroke="#E9EBF0"></line><rect x="44" y="72" width="132" height="32" rx="8" fill="white"></rect><path d="M66.5 82H57.5C56.6719 82 56 82.6716 56 83.5V85.5C56 86.3281 56.6719 87 57.5 87H66.5C67.3281 87 68 86.3281 68 85.5V83.5C68 82.6716 67.3281 82 66.5 82ZM66.5 85.5H57.5V83.5H66.5V85.5ZM62.5 89H57.5C56.6719 89 56 89.6719 56 90.5V92.5C56 93.3281 56.6719 94 57.5 94H62.5C63.3284 94 64 93.3284 64 92.5V90.5C64 89.6719 63.3281 89 62.5 89ZM62.5 92.5H57.5V90.5H62.5V92.5ZM52.75 80C52.3375 80 52 80.3375 52 80.75V95.25C52 95.6625 52.3375 96 52.75 96C53.1625 96 53.5 95.6625 53.5 95.25V80.75C53.5 80.3375 53.1625 80 52.75 80Z" fill="#676D7A"></path><path d="M85.5753 86.1293C85.2273 83.9517 83.522 82.679 81.3693 82.679C78.7344 82.679 76.7905 84.6527 76.7905 87.9091C76.7905 91.1655 78.7244 93.1392 81.3693 93.1392C83.6065 93.1392 85.2422 91.7372 85.5753 89.7237L84.0241 89.7188C83.7607 91.0213 82.6669 91.7372 81.3793 91.7372C79.6342 91.7372 78.3168 90.3999 78.3168 87.9091C78.3168 85.4382 79.6293 84.081 81.3842 84.081C82.6818 84.081 83.7706 84.8118 84.0241 86.1293H85.5753ZM92.0476 89.8331C92.0525 91.1307 91.0881 91.7472 90.2528 91.7472C89.3331 91.7472 88.6967 91.081 88.6967 90.0419V85.3636H87.2102V90.2209C87.2102 92.1151 88.2493 93.0994 89.7159 93.0994C90.8643 93.0994 91.6449 92.4929 91.9979 91.6776H92.0774V93H93.539V85.3636H92.0476V89.8331ZM101.175 87.228C100.866 86.0398 99.9368 85.2642 98.2862 85.2642C96.561 85.2642 95.338 86.174 95.338 87.5263C95.338 88.6101 95.9943 89.331 97.4261 89.6491L98.7187 89.9325C99.4545 90.0966 99.7976 90.4247 99.7976 90.902C99.7976 91.4936 99.1662 91.956 98.1917 91.956C97.3018 91.956 96.7301 91.5732 96.5511 90.8224L95.1143 91.0412C95.3629 92.3935 96.4865 93.1541 98.2017 93.1541C100.046 93.1541 101.324 92.1747 101.324 90.7926C101.324 89.7138 100.638 89.0476 99.2358 88.7244L98.0227 88.446C97.1825 88.2472 96.8196 87.9638 96.8245 87.4467C96.8196 86.8601 97.4559 86.4425 98.3011 86.4425C99.2258 86.4425 99.6534 86.9545 99.8274 87.4666L101.175 87.228ZM106.439 85.3636H104.873V83.5341H103.386V85.3636H102.268V86.5568H103.386V91.0661C103.381 92.4531 104.44 93.1243 105.614 93.0994C106.086 93.0945 106.404 93.005 106.578 92.9403L106.31 91.7124C106.21 91.7322 106.026 91.777 105.788 91.777C105.305 91.777 104.873 91.6179 104.873 90.7578V86.5568H106.439V85.3636ZM111.134 93.1541C113.287 93.1541 114.693 91.5781 114.693 89.2166C114.693 86.8402 113.287 85.2642 111.134 85.2642C108.981 85.2642 107.574 86.8402 107.574 89.2166C107.574 91.5781 108.981 93.1541 111.134 93.1541ZM111.139 91.9062C109.732 91.9062 109.076 90.6783 109.076 89.2116C109.076 87.75 109.732 86.5071 111.139 86.5071C112.536 86.5071 113.192 87.75 113.192 89.2116C113.192 90.6783 112.536 91.9062 111.139 91.9062ZM116.269 93H117.755V88.2919C117.755 87.2628 118.476 86.5469 119.321 86.5469C120.147 86.5469 120.718 87.0938 120.718 87.924V93H122.2V88.1328C122.2 87.2131 122.762 86.5469 123.731 86.5469C124.517 86.5469 125.163 86.9844 125.163 88.0185V93H126.649V87.8793C126.649 86.1342 125.675 85.2642 124.293 85.2642C123.194 85.2642 122.369 85.7912 122.001 86.6065H121.921C121.588 85.7713 120.887 85.2642 119.868 85.2642C118.859 85.2642 118.108 85.7663 117.79 86.6065H117.696V85.3636H116.269V93ZM135.813 85.3636H134.168V84.6776C134.168 84.0014 134.446 83.6335 135.172 83.6335C135.48 83.6335 135.699 83.7031 135.838 83.7479L136.186 82.5447C135.977 82.4652 135.545 82.3409 134.943 82.3409C133.735 82.3409 132.676 83.0469 132.676 84.4787V85.3636H131.498V86.5568H132.676V93H134.168V86.5568H135.813V85.3636ZM137.263 93H138.749V85.3636H137.263V93ZM138.014 84.1854C138.526 84.1854 138.953 83.7876 138.953 83.3004C138.953 82.8132 138.526 82.4105 138.014 82.4105C137.497 82.4105 137.074 82.8132 137.074 83.3004C137.074 83.7876 137.497 84.1854 138.014 84.1854ZM143.956 93.1541C145.622 93.1541 146.8 92.3338 147.138 91.0909L145.731 90.8374C145.463 91.5582 144.816 91.9261 143.971 91.9261C142.699 91.9261 141.843 91.1009 141.804 89.6293H147.233V89.1023C147.233 86.343 145.582 85.2642 143.852 85.2642C141.724 85.2642 140.322 86.8849 140.322 89.2315C140.322 91.603 141.704 93.1541 143.956 93.1541ZM141.809 88.5156C141.868 87.4318 142.654 86.4922 143.862 86.4922C145.015 86.4922 145.771 87.3473 145.776 88.5156H141.809ZM150.284 82.8182H148.798V93H150.284V82.8182ZM155.059 93.1491C156.451 93.1491 156.998 92.299 157.266 91.8118H157.391V93H158.842V82.8182H157.356V86.6016H157.266C156.998 86.1293 156.491 85.2642 155.069 85.2642C153.224 85.2642 151.867 86.7209 151.867 89.1967C151.867 91.6676 153.205 93.1491 155.059 93.1491ZM155.387 91.8814C154.06 91.8814 153.369 90.7131 153.369 89.1818C153.369 87.6655 154.045 86.527 155.387 86.527C156.685 86.527 157.381 87.5859 157.381 89.1818C157.381 90.7876 156.67 91.8814 155.387 91.8814ZM166.602 87.228C166.294 86.0398 165.364 85.2642 163.714 85.2642C161.989 85.2642 160.766 86.174 160.766 87.5263C160.766 88.6101 161.422 89.331 162.854 89.6491L164.146 89.9325C164.882 90.0966 165.225 90.4247 165.225 90.902C165.225 91.4936 164.594 91.956 163.619 91.956C162.729 91.956 162.158 91.5732 161.979 90.8224L160.542 91.0412C160.79 92.3935 161.914 93.1541 163.629 93.1541C165.474 93.1541 166.751 92.1747 166.751 90.7926C166.751 89.7138 166.065 89.0476 164.663 88.7244L163.45 88.446C162.61 88.2472 162.247 87.9638 162.252 87.4467C162.247 86.8601 162.884 86.4425 163.729 86.4425C164.653 86.4425 165.081 86.9545 165.255 87.4666L166.602 87.228Z" fill="#676D7A"></path><rect x="184" y="72" width="134" height="32" rx="8" fill="white"></rect><path d="M206.965 82.6353C206.252 81.9451 205.37 81.6001 204.465 81.6001C203.56 81.6001 202.656 81.9451 201.966 82.6353L200.882 83.7193C201.26 83.9196 201.619 84.1588 201.93 84.4698C202.008 84.5485 202.077 84.6328 202.148 84.7158L203.097 83.7668C203.463 83.4013 203.928 83.2001 204.465 83.2001C204.982 83.2001 205.467 83.4013 205.833 83.7666C206.198 84.1318 206.399 84.6176 206.399 85.1343C206.399 85.6511 206.198 86.1368 205.833 86.5021L202.5 89.8346C202.138 90.1776 201.65 90.4001 201.135 90.4001C200.62 90.4001 200.133 90.1989 199.767 89.8336C199.4 89.4676 199.178 88.9826 199.178 88.4651C199.178 87.9476 199.379 87.4626 199.744 87.0973L199.855 87.0101C199.803 86.9126 199.748 86.8126 199.668 86.7326C199.453 86.5176 199.17 86.4001 198.865 86.4001C198.567 86.4001 198.288 86.5167 198.075 86.7243C197.307 88.0733 197.484 89.8143 198.635 90.9643C199.325 91.6551 200.23 92.0001 201.135 92.0001C202.04 92.0001 202.944 91.6551 203.634 90.9648L206.965 87.6326C207.676 86.9213 208.021 85.9823 207.999 85.0501C207.977 84.1526 207.635 83.3041 206.965 82.6353ZM197.85 91.2851L196.903 92.2326C196.538 92.5776 196.05 92.8001 195.535 92.8001C195.018 92.8001 194.533 92.5989 194.167 92.2336C193.802 91.8683 193.601 91.3826 193.601 90.8658C193.601 90.3491 193.802 89.8633 194.167 89.4981L197.5 86.1656C197.863 85.8001 198.328 85.6001 198.865 85.6001C199.403 85.6001 199.867 85.8013 200.233 86.1666C200.598 86.5318 200.799 87.0176 200.799 87.5343C200.799 88.0511 200.598 88.5368 200.233 88.9021L200.145 88.9901C200.197 89.0886 200.25 89.1875 200.332 89.2688C200.548 89.4826 200.832 89.6001 201.135 89.6001C201.433 89.6001 201.713 89.4835 201.925 89.2758C202.693 87.9268 202.516 86.1858 201.366 85.0358C200.653 84.3451 199.77 84.0001 198.865 84.0001C197.96 84.0001 197.057 84.3451 196.367 85.0351L193.035 88.3676C192.345 89.0576 192 89.9621 192 90.8666C192 91.7711 192.345 92.6756 193.035 93.3658C193.725 94.0551 194.63 94.4001 195.535 94.4001C196.439 94.4001 197.344 94.0551 198.034 93.3648L199.118 92.2808C198.74 92.0805 198.381 91.8413 198.07 91.5303C197.99 91.4526 197.923 91.3676 197.85 91.2851Z" fill="#676D7A"></path><path d="M217.119 93H223.268V91.6776H218.655V82.8182H217.119V93ZM224.818 93H226.304V85.3636H224.818V93ZM225.568 84.1854C226.08 84.1854 226.508 83.7876 226.508 83.3004C226.508 82.8132 226.08 82.4105 225.568 82.4105C225.051 82.4105 224.629 82.8132 224.629 83.3004C224.629 83.7876 225.051 84.1854 225.568 84.1854ZM229.706 88.4659C229.706 87.2479 230.452 86.5518 231.486 86.5518C232.496 86.5518 233.107 87.2131 233.107 88.3217V93H234.594V88.1428C234.594 86.2536 233.554 85.2642 231.993 85.2642C230.845 85.2642 230.094 85.7962 229.741 86.6065H229.647V85.3636H228.22V93H229.706V88.4659ZM236.503 93H237.99V90.2905L238.73 89.5497L241.326 93H243.15L239.849 88.6399L242.941 85.3636H241.162L238.119 88.5952H237.99V82.8182H236.503V93ZM251.05 93.1541C252.855 93.1541 254.023 92.0703 254.187 90.5838H252.74C252.551 91.4091 251.91 91.8963 251.06 91.8963C249.802 91.8963 248.992 90.8473 248.992 89.1818C248.992 87.5462 249.817 86.517 251.06 86.517C252.004 86.517 252.581 87.1136 252.74 87.8295H254.187C254.028 86.2884 252.77 85.2642 251.035 85.2642C248.882 85.2642 247.49 86.8849 247.49 89.2166C247.49 91.5185 248.832 93.1541 251.05 93.1541ZM258.909 93.1541C261.062 93.1541 262.469 91.5781 262.469 89.2166C262.469 86.8402 261.062 85.2642 258.909 85.2642C256.756 85.2642 255.35 86.8402 255.35 89.2166C255.35 91.5781 256.756 93.1541 258.909 93.1541ZM258.914 91.9062C257.507 91.9062 256.851 90.6783 256.851 89.2116C256.851 87.75 257.507 86.5071 258.914 86.5071C260.311 86.5071 260.967 87.75 260.967 89.2116C260.967 90.6783 260.311 91.9062 258.914 91.9062ZM265.531 88.4659C265.531 87.2479 266.276 86.5518 267.31 86.5518C268.32 86.5518 268.931 87.2131 268.931 88.3217V93H270.418V88.1428C270.418 86.2536 269.379 85.2642 267.818 85.2642C266.669 85.2642 265.918 85.7962 265.565 86.6065H265.471V85.3636H264.044V93H265.531V88.4659ZM275.892 85.3636H274.326V83.5341H272.839V85.3636H271.721V86.5568H272.839V91.0661C272.834 92.4531 273.893 93.1243 275.067 93.0994C275.539 93.0945 275.857 93.005 276.031 92.9403L275.763 91.7124C275.663 91.7322 275.479 91.777 275.241 91.777C274.758 91.777 274.326 91.6179 274.326 90.7578V86.5568H275.892V85.3636ZM277.452 93H278.939V88.3366C278.939 87.3374 279.709 86.6165 280.763 86.6165C281.072 86.6165 281.42 86.6712 281.539 86.706V85.2841C281.39 85.2642 281.096 85.2493 280.908 85.2493C280.013 85.2493 279.247 85.7564 278.969 86.5767H278.889V85.3636H277.452V93ZM284.895 93.169C286.158 93.169 286.869 92.5277 287.152 91.956H287.212V93H288.664V87.929C288.664 85.7067 286.914 85.2642 285.701 85.2642C284.319 85.2642 283.046 85.821 282.549 87.2131L283.946 87.5312C284.164 86.9893 284.721 86.4673 285.721 86.4673C286.68 86.4673 287.172 86.9695 287.172 87.8345V87.8693C287.172 88.4112 286.615 88.4013 285.243 88.5604C283.797 88.7294 282.315 89.1072 282.315 90.8423C282.315 92.3438 283.444 93.169 284.895 93.169ZM285.218 91.9759C284.378 91.9759 283.772 91.598 283.772 90.8622C283.772 90.0668 284.478 89.7834 285.338 89.669C285.82 89.6044 286.963 89.4751 287.177 89.2614V90.2457C287.177 91.1506 286.456 91.9759 285.218 91.9759ZM293.776 93.1541C295.581 93.1541 296.749 92.0703 296.913 90.5838H295.467C295.278 91.4091 294.636 91.8963 293.786 91.8963C292.528 91.8963 291.718 90.8473 291.718 89.1818C291.718 87.5462 292.543 86.517 293.786 86.517C294.731 86.517 295.308 87.1136 295.467 87.8295H296.913C296.754 86.2884 295.496 85.2642 293.761 85.2642C291.609 85.2642 290.217 86.8849 290.217 89.2166C290.217 91.5185 291.559 93.1541 293.776 93.1541ZM301.984 85.3636H300.418V83.5341H298.931V85.3636H297.812V86.5568H298.931V91.0661C298.926 92.4531 299.985 93.1243 301.158 93.0994C301.631 93.0945 301.949 93.005 302.123 92.9403L301.854 91.7124C301.755 91.7322 301.571 91.777 301.332 91.777C300.85 91.777 300.418 91.6179 300.418 90.7578V86.5568H301.984V85.3636ZM309.143 87.228C308.835 86.0398 307.905 85.2642 306.255 85.2642C304.53 85.2642 303.307 86.174 303.307 87.5263C303.307 88.6101 303.963 89.331 305.395 89.6491L306.687 89.9325C307.423 90.0966 307.766 90.4247 307.766 90.902C307.766 91.4936 307.135 91.956 306.16 91.956C305.27 91.956 304.699 91.5732 304.52 90.8224L303.083 91.0412C303.331 92.3935 304.455 93.1541 306.17 93.1541C308.015 93.1541 309.292 92.1747 309.292 90.7926C309.292 89.7138 308.606 89.0476 307.204 88.7244L305.991 88.446C305.151 88.2472 304.788 87.9638 304.793 87.4467C304.788 86.8601 305.425 86.4425 306.27 86.4425C307.194 86.4425 307.622 86.9545 307.796 87.4666L309.143 87.228Z" fill="#676D7A"></path><rect x="8" width="1200" height="64" rx="12" fill="white"></rect><path d="M53.5312 28.2756H55.6477C55.5838 25.946 53.5241 24.2557 50.5696 24.2557C47.6506 24.2557 45.4134 25.9247 45.4134 28.4318C45.4134 30.456 46.8622 31.642 49.1989 32.2741L50.9176 32.7429C52.473 33.1548 53.6733 33.6662 53.6733 34.9588C53.6733 36.3793 52.3168 37.3168 50.4489 37.3168C48.7585 37.3168 47.3523 36.5639 47.2244 34.9801H45.0227C45.1648 37.6151 47.2031 39.2415 50.4631 39.2415C53.8793 39.2415 55.8466 37.4446 55.8466 34.9801C55.8466 32.3594 53.5099 31.3438 51.6634 30.8892L50.2429 30.5199C49.1065 30.2287 47.5938 29.696 47.6009 28.304C47.6009 27.0682 48.7301 26.152 50.5199 26.152C52.1889 26.152 53.375 26.9332 53.5312 28.2756ZM61.1334 39.2415C62.9373 39.2415 63.953 38.3253 64.3578 37.5085H64.443V39H66.5169V31.7557C66.5169 28.581 64.0169 27.9489 62.2839 27.9489C60.3095 27.9489 58.4913 28.7443 57.7811 30.733L59.7768 31.1875C60.0893 30.4134 60.8848 29.6676 62.3123 29.6676C63.6831 29.6676 64.3862 30.3849 64.3862 31.6207V31.6705C64.3862 32.4446 63.5908 32.4304 61.6305 32.6577C59.5638 32.8991 57.4473 33.4389 57.4473 35.9176C57.4473 38.0625 59.0595 39.2415 61.1334 39.2415ZM61.595 37.5369C60.3947 37.5369 59.5283 36.9972 59.5283 35.946C59.5283 34.8097 60.5368 34.4048 61.7655 34.2415C62.4544 34.1491 64.0879 33.9645 64.3933 33.6591V35.0653C64.3933 36.358 63.3635 37.5369 61.595 37.5369ZM71.1289 24.4545H69.0054V39H71.1289V24.4545ZM78.3475 39.2202C80.7268 39.2202 82.41 38.0483 82.893 36.2727L80.8831 35.9105C80.4995 36.9403 79.5762 37.4659 78.3688 37.4659C76.5507 37.4659 75.3291 36.2869 75.2723 34.1847H83.0279V33.4318C83.0279 29.4901 80.67 27.9489 78.1984 27.9489C75.1586 27.9489 73.1558 30.2642 73.1558 33.6165C73.1558 37.0043 75.1302 39.2202 78.3475 39.2202ZM75.2794 32.5938C75.3646 31.0455 76.4867 29.7031 78.2126 29.7031C79.8603 29.7031 80.9399 30.9247 80.947 32.5938H75.2794ZM93.2188 30.7543C92.7785 29.0568 91.4504 27.9489 89.0924 27.9489C86.6279 27.9489 84.8808 29.2486 84.8808 31.1804C84.8808 32.7287 85.8183 33.7585 87.8637 34.2131L89.7103 34.6179C90.7614 34.8523 91.2515 35.321 91.2515 36.0028C91.2515 36.848 90.3495 37.5085 88.9575 37.5085C87.6862 37.5085 86.8694 36.9616 86.6137 35.8892L84.5612 36.2017C84.9163 38.1335 86.5214 39.2202 88.9717 39.2202C91.6066 39.2202 93.4319 37.821 93.4319 35.8466C93.4319 34.3054 92.4518 33.3537 90.4489 32.892L88.716 32.4943C87.5157 32.2102 86.9972 31.8054 87.0043 31.0668C86.9972 30.2287 87.9063 29.6321 89.1137 29.6321C90.4347 29.6321 91.0455 30.3636 91.2941 31.0952L93.2188 30.7543Z" fill="#8E949E"></path><path d="M108.307 26.3409H106.979L103.698 38.5312H105.026L108.307 26.3409Z" fill="#8E949E"></path><path d="M130 30.9842L129.5 31.0123V28.5079C129.5 26.022 127.482 24 125 24C122.518 24 120.5 26.022 120.5 28.5079V31.0123L120 30.9842C118.895 30.9842 118 31.881 118 32.9877V37.9965C118 39.1028 118.895 40 120 40H130C131.105 40 132 39.1028 132 37.9965V32.9877C132 31.9108 131.103 30.9842 130 30.9842ZM126 35.993C126 36.5461 125.552 36.9947 125 36.9947C124.448 36.9947 124 36.5461 124 35.993V34.9912C124 34.438 124.448 33.9894 125 33.9894C125.552 33.9894 126 34.438 126 34.9912V35.993ZM127.5 31.0123H122.5V28.5079C122.5 27.1267 123.622 26.0035 125 26.0035C126.378 26.0035 127.5 27.1267 127.5 28.5079V31.0123Z" fill="#48A348"></path><path d="M154.338 24.4545H152.165V35.1364H152.03L144.629 24.4545H142.598V39H144.793V28.3324H144.928L152.321 39H154.338V24.4545ZM161.731 39.2202C164.11 39.2202 165.793 38.0483 166.276 36.2727L164.266 35.9105C163.883 36.9403 162.959 37.4659 161.752 37.4659C159.934 37.4659 158.712 36.2869 158.655 34.1847H166.411V33.4318C166.411 29.4901 164.053 27.9489 161.582 27.9489C158.542 27.9489 156.539 30.2642 156.539 33.6165C156.539 37.0043 158.513 39.2202 161.731 39.2202ZM158.662 32.5938C158.748 31.0455 159.87 29.7031 161.596 29.7031C163.243 29.7031 164.323 30.9247 164.33 32.5938H158.662ZM170.773 39H172.932L175.148 31.1236H175.311L177.527 39H179.693L182.896 28.0909H180.702L178.578 36.0668H178.472L176.341 28.0909H174.146L172.001 36.1023H171.895L169.757 28.0909H167.563L170.773 39ZM194.12 39.2202C196.698 39.2202 198.367 37.6719 198.601 35.5483H196.535C196.265 36.7273 195.348 37.4233 194.134 37.4233C192.337 37.4233 191.179 35.9247 191.179 33.5455C191.179 31.2088 192.358 29.7386 194.134 29.7386C195.483 29.7386 196.307 30.5909 196.535 31.6136H198.601C198.374 29.4119 196.577 27.9489 194.098 27.9489C191.023 27.9489 189.035 30.2642 189.035 33.5952C189.035 36.8835 190.952 39.2202 194.12 39.2202ZM205.127 39.2202C208.203 39.2202 210.213 36.9688 210.213 33.5952C210.213 30.2003 208.203 27.9489 205.127 27.9489C202.052 27.9489 200.042 30.2003 200.042 33.5952C200.042 36.9688 202.052 39.2202 205.127 39.2202ZM205.135 37.4375C203.125 37.4375 202.187 35.6832 202.187 33.5881C202.187 31.5 203.125 29.7244 205.135 29.7244C207.13 29.7244 208.068 31.5 208.068 33.5881C208.068 35.6832 207.13 37.4375 205.135 37.4375ZM214.367 32.5227C214.367 30.7827 215.432 29.7884 216.909 29.7884C218.351 29.7884 219.225 30.733 219.225 32.3168V39H221.348V32.0611C221.348 29.3622 219.864 27.9489 217.634 27.9489C215.993 27.9489 214.921 28.7088 214.416 29.8665H214.281V28.0909H212.243V39H214.367V32.5227ZM228.948 28.0909H226.711V25.4773H224.588V28.0909H222.99V29.7955H224.588V36.2372C224.581 38.2188 226.093 39.1776 227.77 39.142C228.444 39.1349 228.899 39.0071 229.147 38.9148L228.764 37.1605C228.622 37.1889 228.359 37.2528 228.018 37.2528C227.329 37.2528 226.711 37.0256 226.711 35.7969V29.7955H228.948V28.0909ZM230.958 39H233.081V32.3381C233.081 30.9105 234.182 29.8807 235.688 29.8807C236.128 29.8807 236.625 29.9588 236.796 30.0085V27.9773C236.583 27.9489 236.164 27.9276 235.894 27.9276C234.615 27.9276 233.521 28.652 233.124 29.8239H233.01V28.0909H230.958V39ZM241.37 39.2415C243.174 39.2415 244.19 38.3253 244.595 37.5085H244.68V39H246.754V31.7557C246.754 28.581 244.254 27.9489 242.521 27.9489C240.547 27.9489 238.728 28.7443 238.018 30.733L240.014 31.1875C240.326 30.4134 241.122 29.6676 242.549 29.6676C243.92 29.6676 244.623 30.3849 244.623 31.6207V31.6705C244.623 32.4446 243.828 32.4304 241.868 32.6577C239.801 32.8991 237.684 33.4389 237.684 35.9176C237.684 38.0625 239.297 39.2415 241.37 39.2415ZM241.832 37.5369C240.632 37.5369 239.765 36.9972 239.765 35.946C239.765 34.8097 240.774 34.4048 242.003 34.2415C242.691 34.1491 244.325 33.9645 244.63 33.6591V35.0653C244.63 36.358 243.601 37.5369 241.832 37.5369ZM253.838 39.2202C256.416 39.2202 258.085 37.6719 258.319 35.5483H256.252C255.982 36.7273 255.066 37.4233 253.852 37.4233C252.055 37.4233 250.897 35.9247 250.897 33.5455C250.897 31.2088 252.076 29.7386 253.852 29.7386C255.201 29.7386 256.025 30.5909 256.252 31.6136H258.319C258.092 29.4119 256.295 27.9489 253.816 27.9489C250.741 27.9489 248.752 30.2642 248.752 33.5952C248.752 36.8835 250.67 39.2202 253.838 39.2202ZM265.342 28.0909H263.105V25.4773H260.982V28.0909H259.384V29.7955H260.982V36.2372C260.974 38.2188 262.487 39.1776 264.163 39.142C264.838 39.1349 265.293 39.0071 265.541 38.9148L265.158 37.1605C265.016 37.1889 264.753 37.2528 264.412 37.2528C263.723 37.2528 263.105 37.0256 263.105 35.7969V29.7955H265.342V28.0909Z" fill="#282A2E"></path><rect x="275" y="20" width="45" height="24" rx="8" fill="#676D7A"></rect><path d="M286.784 36C289.443 36 290.982 34.3509 290.982 31.6236C290.982 28.9091 289.443 27.2727 286.874 27.2727H283.959V36H286.784ZM285.276 34.8494V28.4233H286.793C288.702 28.4233 289.686 29.5653 289.686 31.6236C289.686 33.6903 288.702 34.8494 286.712 34.8494H285.276ZM292.517 36H293.791V32.0028C293.791 31.1463 294.451 30.5284 295.355 30.5284C295.619 30.5284 295.917 30.5753 296.02 30.6051V29.3864C295.892 29.3693 295.64 29.3565 295.478 29.3565C294.711 29.3565 294.055 29.7912 293.816 30.4943H293.748V29.4545H292.517V36ZM298.968 36.1449C300.051 36.1449 300.66 35.5952 300.903 35.1051H300.954V36H302.199V31.6534C302.199 29.7486 300.699 29.3693 299.659 29.3693C298.474 29.3693 297.383 29.8466 296.957 31.0398L298.154 31.3125C298.342 30.848 298.819 30.4006 299.676 30.4006C300.498 30.4006 300.92 30.831 300.92 31.5724V31.6023C300.92 32.0668 300.443 32.0582 299.267 32.1946C298.027 32.3395 296.757 32.6634 296.757 34.1506C296.757 35.4375 297.724 36.1449 298.968 36.1449ZM299.245 35.1222C298.525 35.1222 298.005 34.7983 298.005 34.1676C298.005 33.4858 298.61 33.2429 299.348 33.1449C299.761 33.0895 300.741 32.9787 300.924 32.7955V33.6392C300.924 34.4148 300.306 35.1222 299.245 35.1222ZM307.011 29.4545H305.6V28.8665C305.6 28.2869 305.839 27.9716 306.461 27.9716C306.725 27.9716 306.913 28.0312 307.032 28.0696L307.33 27.0384C307.151 26.9702 306.781 26.8636 306.265 26.8636C305.229 26.8636 304.322 27.4688 304.322 28.696V29.4545H303.312V30.4773H304.322V36H305.6V30.4773H307.011V29.4545ZM311.381 29.4545H310.038V27.8864H308.764V29.4545H307.805V30.4773H308.764V34.3423C308.76 35.5312 309.668 36.1065 310.673 36.0852C311.078 36.081 311.351 36.0043 311.5 35.9489L311.27 34.8963C311.185 34.9134 311.027 34.9517 310.822 34.9517C310.409 34.9517 310.038 34.8153 310.038 34.0781V30.4773H311.381V29.4545Z" fill="white"></path><path d="M347.18 29.5243L342.809 28.9006L340.856 25.0218C340.684 24.6749 340.341 24.4999 339.973 24.5C339.66 24.5 339.317 24.6728 339.144 25.0215L337.188 28.9003L332.82 29.5243C332.036 29.6356 331.722 30.5819 332.29 31.1239L335.451 34.115L334.705 38.4039C334.597 39.0104 335.093 39.4996 335.648 39.4996C335.795 39.4996 335.947 39.4653 336.092 39.3898L340 37.3786L343.908 39.3912C344.053 39.466 344.204 39.5 344.351 39.5C344.907 39.5 345.402 39.0134 345.296 38.404L344.548 34.1414L347.709 31.1503C348.278 30.5819 347.965 29.6356 347.18 29.5243ZM343.051 33.8923L343.72 37.7038L340.221 35.9026C340.082 35.8311 339.916 35.8311 339.777 35.9026L336.281 37.7038L336.949 33.8923C336.976 33.74 336.899 33.5847 336.812 33.4763L333.985 30.7785L337.893 30.2207C338.048 30.1981 338.182 30.1014 338.251 29.9637L340 26.4918L341.749 29.9634C341.819 30.1016 341.953 30.1974 342.109 30.2196L346.016 30.7774L343.189 33.4753C343.075 33.5847 343.024 33.74 343.051 33.8923Z" fill="#676D7A"></path></g><defs><filter id="filter0_d" x="0" y="0" width="1216" height="700" color-interpolation-filters="sRGB"><feFlood flood-opacity="0" result="BackgroundImageFix"></feFlood><feColorMatrix in="SourceAlpha" type="matrix" values="0 0 0 0 0 0 0 0 0 0 0 0 0 0 0 0 0 0 127 0" result="hardAlpha"></feColorMatrix><feMorphology radius="16" operator="erode" in="SourceAlpha" result="effect1_dropShadow"></feMorphology><feOffset dy="12"></feOffset><feGaussianBlur stdDeviation="12"></feGaussianBlur><feColorMatrix type="matrix" values="0 0 0 0 0 0 0 0 0 0 0 0 0 0 0 0 0 0 0.08 0"></feColorMatrix><feBlend mode="normal" in2="BackgroundImageFix" result="effect1_dropShadow"></feBlend><feBlend mode="normal" in="SourceGraphic" in2="effect1_dropShadow" result="shape"></feBlend></filter></defs></svg> 