<?xml version="1.0" encoding="UTF-8"?> <svg xmlns="http://www.w3.org/2000/svg" width="416" height="324" viewBox="0 0 416 324" fill="none"><g filter="url(#filter0_d)"><rect x="8" width="552" height="360" rx="12" fill="white"></rect><rect x="44" y="184" width="32" height="32" rx="16" fill="#4285EB"></rect><path d="M52.1483 195.273V204H53.4011V197.68H53.4821L56.0559 203.987H57.0957L59.6696 197.685H59.7505V204H61.0034V195.273H59.4054L56.627 202.057H56.5247L53.7463 195.273H52.1483ZM62.9178 204H66.263C68.2914 204 69.2076 202.99 69.2076 201.652C69.2076 200.301 68.2615 199.538 67.3965 199.491V199.406C68.1976 199.202 68.8667 198.656 68.8667 197.565C68.8667 196.274 67.9718 195.273 66.1138 195.273H62.9178V204ZM64.2346 202.871V200.075H66.182C67.2388 200.075 67.8993 200.757 67.8993 201.588C67.8993 202.321 67.4007 202.871 66.1351 202.871H64.2346ZM64.2346 199.048V196.393H66.0328C67.0769 196.393 67.5755 196.943 67.5755 197.668C67.5755 198.511 66.8851 199.048 65.9988 199.048H64.2346Z" fill="white"></path><path d="M85.1186 182.818V193H86.5803V185.627H86.6747L89.6776 192.985H90.8906L93.8935 185.632H93.9879V193H95.4496V182.818H93.5852L90.3438 190.733H90.2244L86.983 182.818H85.1186ZM97.4797 193H98.9662V185.364H97.4797V193ZM98.2305 184.185C98.7425 184.185 99.1701 183.788 99.1701 183.3C99.1701 182.813 98.7425 182.411 98.2305 182.411C97.7134 182.411 97.2908 182.813 97.2908 183.3C97.2908 183.788 97.7134 184.185 98.2305 184.185ZM104.099 193.154C105.903 193.154 107.072 192.07 107.236 190.584H105.789C105.6 191.409 104.959 191.896 104.109 191.896C102.851 191.896 102.04 190.847 102.04 189.182C102.04 187.546 102.866 186.517 104.109 186.517C105.053 186.517 105.63 187.114 105.789 187.83H107.236C107.077 186.288 105.819 185.264 104.084 185.264C101.931 185.264 100.539 186.885 100.539 189.217C100.539 191.518 101.881 193.154 104.099 193.154ZM110.228 188.466C110.228 187.248 110.999 186.552 112.057 186.552C113.082 186.552 113.693 187.203 113.693 188.322V193H115.18V188.143C115.18 186.239 114.136 185.264 112.565 185.264C111.376 185.264 110.66 185.781 110.303 186.607H110.208V182.818H108.741V193H110.228V188.466ZM119.302 193.169C120.564 193.169 121.275 192.528 121.559 191.956H121.618V193H123.07V187.929C123.07 185.707 121.32 185.264 120.107 185.264C118.725 185.264 117.452 185.821 116.955 187.213L118.352 187.531C118.571 186.989 119.128 186.467 120.127 186.467C121.086 186.467 121.579 186.969 121.579 187.835V187.869C121.579 188.411 121.022 188.401 119.65 188.56C118.203 188.729 116.721 189.107 116.721 190.842C116.721 192.344 117.85 193.169 119.302 193.169ZM119.625 191.976C118.785 191.976 118.178 191.598 118.178 190.862C118.178 190.067 118.884 189.783 119.744 189.669C120.226 189.604 121.37 189.475 121.584 189.261V190.246C121.584 191.151 120.863 191.976 119.625 191.976ZM128.257 193.154C129.923 193.154 131.101 192.334 131.439 191.091L130.032 190.837C129.764 191.558 129.117 191.926 128.272 191.926C126.999 191.926 126.144 191.101 126.105 189.629H131.533V189.102C131.533 186.343 129.883 185.264 128.153 185.264C126.025 185.264 124.623 186.885 124.623 189.232C124.623 191.603 126.005 193.154 128.257 193.154ZM126.109 188.516C126.169 187.432 126.955 186.492 128.163 186.492C129.316 186.492 130.072 187.347 130.077 188.516H126.109ZM134.585 182.818H133.099V193H134.585V182.818ZM140.242 193H144.144C146.511 193 147.58 191.822 147.58 190.261C147.58 188.685 146.476 187.795 145.467 187.74V187.641C146.401 187.402 147.182 186.766 147.182 185.493C147.182 183.987 146.138 182.818 143.97 182.818H140.242V193ZM141.778 191.683V188.421H144.05C145.283 188.421 146.053 189.217 146.053 190.186C146.053 191.041 145.472 191.683 143.995 191.683H141.778ZM141.778 187.223V184.126H143.876C145.094 184.126 145.675 184.767 145.675 185.612C145.675 186.597 144.87 187.223 143.836 187.223H141.778ZM152.415 193.154C154.568 193.154 155.975 191.578 155.975 189.217C155.975 186.84 154.568 185.264 152.415 185.264C150.262 185.264 148.855 186.84 148.855 189.217C148.855 191.578 150.262 193.154 152.415 193.154ZM152.42 191.906C151.013 191.906 150.357 190.678 150.357 189.212C150.357 187.75 151.013 186.507 152.42 186.507C153.817 186.507 154.473 187.75 154.473 189.212C154.473 190.678 153.817 191.906 152.42 191.906ZM158.973 193H160.484L162.036 187.487H162.15L163.701 193H165.217L167.46 185.364H165.923L164.437 190.947H164.362L162.871 185.364H161.335L159.833 190.972H159.759L158.262 185.364H156.726L158.973 193ZM170.273 182.818H168.786V193H170.273V182.818Z" fill="#282A2E"></path><path d="M93.4261 210C93.0483 207.912 91.3778 206.679 89.3295 206.679C86.7244 206.679 84.8352 208.688 84.8352 211.909C84.8352 215.131 86.7244 217.139 89.3295 217.139C91.3778 217.139 93.0483 215.906 93.4261 213.818H92.1932C91.8949 215.23 90.6818 215.986 89.3295 215.986C87.4801 215.986 86.0284 214.554 86.0284 211.909C86.0284 209.264 87.4801 207.832 89.3295 207.832C90.6818 207.832 91.8949 208.588 92.1932 210H93.4261ZM95.1754 217H96.3487V212.168C96.3487 211.134 97.164 210.378 98.2777 210.378C98.5909 210.378 98.914 210.438 98.9936 210.457V209.264C98.8594 209.254 98.5511 209.244 98.3771 209.244C97.4623 209.244 96.6669 209.761 96.3885 210.517H96.3089V209.364H95.1754V217ZM103.27 217.159C104.821 217.159 105.954 216.384 106.312 215.23L105.179 214.912C104.88 215.707 104.189 216.105 103.27 216.105C101.893 216.105 100.943 215.215 100.888 213.58H106.432V213.082C106.432 210.239 104.741 209.264 103.15 209.264C101.082 209.264 99.71 210.895 99.71 213.241C99.71 215.588 101.062 217.159 103.27 217.159ZM100.888 212.565C100.968 211.377 101.808 210.318 103.15 210.318C104.423 210.318 105.238 211.273 105.238 212.565H100.888ZM110.38 217.179C111.712 217.179 112.408 216.463 112.647 215.966H112.706V217H113.88V211.969C113.88 209.543 112.03 209.264 111.056 209.264C109.902 209.264 108.59 209.662 107.993 211.054L109.107 211.452C109.365 210.895 109.977 210.298 111.095 210.298C112.174 210.298 112.706 210.87 112.706 211.849V211.889C112.706 212.456 112.13 212.406 110.738 212.585C109.321 212.769 107.774 213.082 107.774 214.832C107.774 216.324 108.928 217.179 110.38 217.179ZM110.559 216.125C109.624 216.125 108.948 215.707 108.948 214.892C108.948 213.997 109.763 213.719 110.678 213.599C111.175 213.54 112.507 213.401 112.706 213.162V214.236C112.706 215.19 111.951 216.125 110.559 216.125ZM119.258 209.364H117.627V207.534H116.454V209.364H115.301V210.358H116.454V215.131C116.454 216.463 117.528 217.099 118.522 217.099C118.96 217.099 119.238 217.02 119.397 216.96L119.159 215.906C119.059 215.926 118.9 215.966 118.642 215.966C118.125 215.966 117.627 215.807 117.627 214.812V210.358H119.258V209.364ZM124.059 217.159C125.61 217.159 126.743 216.384 127.101 215.23L125.968 214.912C125.669 215.707 124.978 216.105 124.059 216.105C122.682 216.105 121.732 215.215 121.677 213.58H127.221V213.082C127.221 210.239 125.53 209.264 123.939 209.264C121.871 209.264 120.499 210.895 120.499 213.241C120.499 215.588 121.851 217.159 124.059 217.159ZM121.677 212.565C121.757 211.377 122.597 210.318 123.939 210.318C125.212 210.318 126.027 211.273 126.027 212.565H121.677ZM131.805 217.159C133.277 217.159 133.774 216.244 134.032 215.827H134.171V217H135.305V206.818H134.132V210.577H134.032C133.774 210.179 133.316 209.264 131.825 209.264C129.896 209.264 128.563 210.795 128.563 213.202C128.563 215.628 129.896 217.159 131.805 217.159ZM131.964 216.105C130.492 216.105 129.737 214.812 129.737 213.182C129.737 211.571 130.473 210.318 131.964 210.318C133.396 210.318 134.152 211.472 134.152 213.182C134.152 214.912 133.376 216.105 131.964 216.105ZM144.489 217.159C146.557 217.159 147.949 215.588 147.949 213.222C147.949 210.835 146.557 209.264 144.489 209.264C142.42 209.264 141.028 210.835 141.028 213.222C141.028 215.588 142.42 217.159 144.489 217.159ZM144.489 216.105C142.917 216.105 142.202 214.753 142.202 213.222C142.202 211.69 142.917 210.318 144.489 210.318C146.06 210.318 146.775 211.69 146.775 213.222C146.775 214.753 146.06 216.105 144.489 216.105ZM150.829 212.406C150.829 211.074 151.654 210.318 152.778 210.318C153.867 210.318 154.528 211.029 154.528 212.227V217H155.701V212.148C155.701 210.199 154.662 209.264 153.116 209.264C151.963 209.264 151.247 209.781 150.889 210.557H150.789V209.364H149.656V217H150.829V212.406ZM161.595 217H168.018V215.906H163.285V215.827L165.572 213.381C167.322 211.506 167.839 210.631 167.839 209.503C167.839 207.932 166.566 206.679 164.777 206.679C162.992 206.679 161.635 207.892 161.635 209.682H162.808C162.808 208.523 163.559 207.753 164.737 207.753C165.841 207.753 166.686 208.429 166.686 209.503C166.686 210.442 166.134 211.138 164.956 212.426L161.595 216.105V217ZM173.308 217.139C175.556 217.139 176.848 215.235 176.848 211.909C176.848 208.608 175.536 206.679 173.308 206.679C171.081 206.679 169.769 208.608 169.769 211.909C169.769 215.235 171.061 217.139 173.308 217.139ZM173.308 216.045C171.827 216.045 170.962 214.559 170.962 211.909C170.962 209.264 171.837 207.753 173.308 207.753C174.78 207.753 175.655 209.264 175.655 211.909C175.655 214.559 174.79 216.045 173.308 216.045ZM186.584 206.818V214.097C186.584 215.364 185.977 216.045 184.913 216.045C183.944 216.045 183.243 215.479 183.243 214.614H182.03C182.03 216.18 183.243 217.139 184.913 217.139C186.683 217.139 187.817 216.05 187.817 214.097V206.818H186.584ZM192.291 217.179C193.624 217.179 194.32 216.463 194.559 215.966H194.618V217H195.791V211.969C195.791 209.543 193.942 209.264 192.968 209.264C191.814 209.264 190.502 209.662 189.905 211.054L191.019 211.452C191.277 210.895 191.889 210.298 193.007 210.298C194.086 210.298 194.618 210.87 194.618 211.849V211.889C194.618 212.456 194.041 212.406 192.649 212.585C191.233 212.769 189.686 213.082 189.686 214.832C189.686 216.324 190.84 217.179 192.291 217.179ZM192.47 216.125C191.536 216.125 190.86 215.707 190.86 214.892C190.86 213.997 191.675 213.719 192.59 213.599C193.087 213.54 194.419 213.401 194.618 213.162V214.236C194.618 215.19 193.863 216.125 192.47 216.125ZM199.022 212.406C199.022 211.074 199.848 210.318 200.971 210.318C202.06 210.318 202.721 211.029 202.721 212.227V217H203.894V212.148C203.894 210.199 202.855 209.264 201.309 209.264C200.156 209.264 199.44 209.781 199.082 210.557H198.983V209.364H197.849V217H199.022V212.406ZM210.767 213.878C210.767 215.31 209.673 215.966 208.798 215.966C207.824 215.966 207.128 215.25 207.128 214.136V209.364H205.954V214.216C205.954 216.165 206.989 217.099 208.42 217.099C209.574 217.099 210.329 216.483 210.687 215.707H210.767V217H211.94V209.364H210.767V213.878ZM216.252 217.179C217.585 217.179 218.281 216.463 218.519 215.966H218.579V217H219.752V211.969C219.752 209.543 217.903 209.264 216.929 209.264C215.775 209.264 214.463 209.662 213.866 211.054L214.98 211.452C215.238 210.895 215.85 210.298 216.968 210.298C218.047 210.298 218.579 210.87 218.579 211.849V211.889C218.579 212.456 218.002 212.406 216.61 212.585C215.193 212.769 213.647 213.082 213.647 214.832C213.647 216.324 214.801 217.179 216.252 217.179ZM216.431 216.125C215.497 216.125 214.821 215.707 214.821 214.892C214.821 213.997 215.636 213.719 216.551 213.599C217.048 213.54 218.38 213.401 218.579 213.162V214.236C218.579 215.19 217.823 216.125 216.431 216.125ZM221.81 217H222.983V212.168C222.983 211.134 223.799 210.378 224.912 210.378C225.225 210.378 225.549 210.438 225.628 210.457V209.264C225.494 209.254 225.186 209.244 225.012 209.244C224.097 209.244 223.301 209.761 223.023 210.517H222.943V209.364H221.81V217ZM227.923 219.864C228.982 219.864 229.728 219.302 230.17 218.114L233.422 209.384L232.139 209.364L230.031 215.449H229.951L227.843 209.364H226.571L229.395 217.04L229.176 217.636C228.748 218.8 228.221 218.909 227.366 218.69L227.068 219.724C227.187 219.784 227.525 219.864 227.923 219.864ZM238.724 217H245.147V215.906H240.414V215.827L242.701 213.381C244.451 211.506 244.968 210.631 244.968 209.503C244.968 207.932 243.695 206.679 241.905 206.679C240.121 206.679 238.763 207.892 238.763 209.682H239.937C239.937 208.523 240.687 207.753 241.866 207.753C242.969 207.753 243.814 208.429 243.814 209.503C243.814 210.442 243.263 211.138 242.084 212.426L238.724 216.105V217ZM250.437 217.139C252.684 217.139 253.977 215.235 253.977 211.909C253.977 208.608 252.664 206.679 250.437 206.679C248.21 206.679 246.897 208.608 246.897 211.909C246.897 215.235 248.19 217.139 250.437 217.139ZM250.437 216.045C248.956 216.045 248.091 214.559 248.091 211.909C248.091 209.264 248.966 207.753 250.437 207.753C251.909 207.753 252.784 209.264 252.784 211.909C252.784 214.559 251.919 216.045 250.437 216.045ZM255.782 217H262.205V215.906H257.472V215.827L259.759 213.381C261.509 211.506 262.026 210.631 262.026 209.503C262.026 207.932 260.754 206.679 258.964 206.679C257.179 206.679 255.822 207.892 255.822 209.682H256.995C256.995 208.523 257.746 207.753 258.924 207.753C260.028 207.753 260.873 208.429 260.873 209.503C260.873 210.442 260.321 211.138 259.143 212.426L255.782 216.105V217ZM267.754 206.818H266.521L263.976 208.509V209.761L266.462 208.111H266.521V217H267.754V206.818Z" fill="#676D7A"></path><path d="M330.672 185.493H332.153C332.109 183.862 330.667 182.679 328.599 182.679C326.555 182.679 324.989 183.847 324.989 185.602C324.989 187.019 326.004 187.849 327.639 188.292L328.842 188.62C329.931 188.908 330.771 189.266 330.771 190.171C330.771 191.165 329.822 191.822 328.514 191.822C327.331 191.822 326.347 191.295 326.257 190.186H324.716C324.815 192.031 326.242 193.169 328.524 193.169C330.915 193.169 332.293 191.911 332.293 190.186C332.293 188.352 330.657 187.641 329.364 187.322L328.37 187.064C327.575 186.86 326.516 186.487 326.521 185.513C326.521 184.648 327.311 184.006 328.564 184.006C329.732 184.006 330.562 184.553 330.672 185.493ZM337.49 185.364H335.924V183.534H334.437V185.364H333.319V186.557H334.437V191.066C334.432 192.453 335.491 193.124 336.664 193.099C337.137 193.094 337.455 193.005 337.629 192.94L337.36 191.712C337.261 191.732 337.077 191.777 336.838 191.777C336.356 191.777 335.924 191.618 335.924 190.758V186.557H337.49V185.364ZM341.272 193.169C342.535 193.169 343.246 192.528 343.529 191.956H343.589V193H345.041V187.929C345.041 185.707 343.291 185.264 342.078 185.264C340.696 185.264 339.423 185.821 338.926 187.213L340.323 187.531C340.542 186.989 341.098 186.467 342.098 186.467C343.057 186.467 343.549 186.969 343.549 187.835V187.869C343.549 188.411 342.993 188.401 341.62 188.56C340.174 188.729 338.692 189.107 338.692 190.842C338.692 192.344 339.821 193.169 341.272 193.169ZM341.595 191.976C340.755 191.976 340.149 191.598 340.149 190.862C340.149 190.067 340.855 189.783 341.715 189.669C342.197 189.604 343.341 189.475 343.554 189.261V190.246C343.554 191.151 342.833 191.976 341.595 191.976ZM346.937 193H348.423V188.337C348.423 187.337 349.194 186.616 350.248 186.616C350.556 186.616 350.904 186.671 351.023 186.706V185.284C350.874 185.264 350.581 185.249 350.392 185.249C349.497 185.249 348.731 185.756 348.453 186.577H348.374V185.364H346.937V193ZM356.242 185.364H354.676V183.534H353.189V185.364H352.07V186.557H353.189V191.066C353.184 192.453 354.243 193.124 355.416 193.099C355.889 193.094 356.207 193.005 356.381 192.94L356.112 191.712C356.013 191.732 355.829 191.777 355.59 191.777C355.108 191.777 354.676 191.618 354.676 190.758V186.557H356.242V185.364ZM364.282 193.149C365.674 193.149 366.221 192.299 366.489 191.812H366.613V193H368.065V182.818H366.579V186.602H366.489C366.221 186.129 365.714 185.264 364.292 185.264C362.447 185.264 361.09 186.721 361.09 189.197C361.09 191.668 362.427 193.149 364.282 193.149ZM364.61 191.881C363.282 191.881 362.591 190.713 362.591 189.182C362.591 187.665 363.267 186.527 364.61 186.527C365.907 186.527 366.603 187.586 366.603 189.182C366.603 190.788 365.892 191.881 364.61 191.881ZM372.325 193.169C373.588 193.169 374.299 192.528 374.582 191.956H374.642V193H376.093V187.929C376.093 185.707 374.343 185.264 373.13 185.264C371.748 185.264 370.476 185.821 369.978 187.213L371.375 187.531C371.594 186.989 372.151 186.467 373.15 186.467C374.11 186.467 374.602 186.969 374.602 187.835V187.869C374.602 188.411 374.045 188.401 372.673 188.56C371.226 188.729 369.745 189.107 369.745 190.842C369.745 192.344 370.873 193.169 372.325 193.169ZM372.648 191.976C371.808 191.976 371.201 191.598 371.201 190.862C371.201 190.067 371.907 189.783 372.767 189.669C373.25 189.604 374.393 189.475 374.607 189.261V190.246C374.607 191.151 373.886 191.976 372.648 191.976ZM381.554 185.364H379.988V183.534H378.501V185.364H377.383V186.557H378.501V191.066C378.497 192.453 379.555 193.124 380.729 193.099C381.201 193.094 381.519 193.005 381.693 192.94L381.425 191.712C381.325 191.732 381.141 191.777 380.903 191.777C380.421 191.777 379.988 191.618 379.988 190.758V186.557H381.554V185.364ZM386.324 193.154C387.989 193.154 389.167 192.334 389.505 191.091L388.098 190.837C387.83 191.558 387.184 191.926 386.338 191.926C385.066 191.926 384.211 191.101 384.171 189.629H389.6V189.102C389.6 186.343 387.949 185.264 386.219 185.264C384.091 185.264 382.689 186.885 382.689 189.232C382.689 191.603 384.071 193.154 386.324 193.154ZM384.176 188.516C384.235 187.432 385.021 186.492 386.229 186.492C387.382 186.492 388.138 187.347 388.143 188.516H384.176Z" fill="#282A2E"></path><path d="M328.375 217.139C330.622 217.139 331.915 215.235 331.915 211.909C331.915 208.608 330.602 206.679 328.375 206.679C326.148 206.679 324.835 208.608 324.835 211.909C324.835 215.235 326.128 217.139 328.375 217.139ZM328.375 216.045C326.893 216.045 326.028 214.559 326.028 211.909C326.028 209.264 326.903 207.753 328.375 207.753C329.847 207.753 330.722 209.264 330.722 211.909C330.722 214.559 329.857 216.045 328.375 216.045ZM336.981 217.139C339.015 217.139 340.432 215.951 340.442 214.295C340.432 213.008 339.572 211.914 338.473 211.71V211.651C339.427 211.402 340.054 210.467 340.064 209.384C340.054 207.832 338.751 206.679 336.981 206.679C335.192 206.679 333.889 207.832 333.899 209.384C333.889 210.467 334.515 211.402 335.49 211.651V211.71C334.371 211.914 333.511 213.008 333.521 214.295C333.511 215.951 334.928 217.139 336.981 217.139ZM336.981 216.045C335.584 216.045 334.724 215.33 334.734 214.236C334.724 213.087 335.674 212.267 336.981 212.267C338.269 212.267 339.219 213.087 339.229 214.236C339.219 215.33 338.358 216.045 336.981 216.045ZM336.981 211.213C335.868 211.213 335.082 210.517 335.092 209.463C335.082 208.429 335.838 207.753 336.981 207.753C338.105 207.753 338.861 208.429 338.871 209.463C338.861 210.517 338.075 211.213 336.981 211.213ZM346.295 206.818V217H347.449V209.264H347.548L350.73 217H351.844L355.026 209.264H355.125V217H356.278V206.818H354.807L351.347 215.27H351.227L347.767 206.818H346.295ZM360.755 217.179C362.087 217.179 362.783 216.463 363.022 215.966H363.081V217H364.255V211.969C364.255 209.543 362.405 209.264 361.431 209.264C360.277 209.264 358.965 209.662 358.368 211.054L359.482 211.452C359.74 210.895 360.352 210.298 361.47 210.298C362.549 210.298 363.081 210.87 363.081 211.849V211.889C363.081 212.456 362.505 212.406 361.113 212.585C359.696 212.769 358.149 213.082 358.149 214.832C358.149 216.324 359.303 217.179 360.755 217.179ZM360.934 216.125C359.999 216.125 359.323 215.707 359.323 214.892C359.323 213.997 360.138 213.719 361.053 213.599C361.55 213.54 362.882 213.401 363.081 213.162V214.236C363.081 215.19 362.326 216.125 360.934 216.125ZM366.312 217H367.485V212.168C367.485 211.134 368.301 210.378 369.414 210.378C369.728 210.378 370.051 210.438 370.13 210.457V209.264C369.996 209.254 369.688 209.244 369.514 209.244C368.599 209.244 367.804 209.761 367.525 210.517H367.446V209.364H366.312V217ZM374.307 217.159C375.997 217.159 377.111 216.125 377.31 214.773H376.136C375.918 215.608 375.222 216.105 374.307 216.105C372.915 216.105 372.02 214.952 372.02 213.182C372.02 211.452 372.935 210.318 374.307 210.318C375.341 210.318 375.957 210.955 376.136 211.651H377.31C377.111 210.219 375.898 209.264 374.287 209.264C372.219 209.264 370.847 210.895 370.847 213.222C370.847 215.509 372.159 217.159 374.307 217.159ZM380.114 212.406C380.114 211.074 380.964 210.318 382.123 210.318C383.226 210.318 383.893 211.014 383.893 212.227V217H385.066V212.148C385.066 210.184 384.022 209.264 382.461 209.264C381.258 209.264 380.572 209.766 380.214 210.557H380.114V206.818H378.941V217H380.114V212.406ZM390.962 217H397.385V215.906H392.652V215.827L394.939 213.381C396.689 211.506 397.206 210.631 397.206 209.503C397.206 207.932 395.934 206.679 394.144 206.679C392.359 206.679 391.002 207.892 391.002 209.682H392.175C392.175 208.523 392.926 207.753 394.104 207.753C395.208 207.753 396.053 208.429 396.053 209.503C396.053 210.442 395.501 211.138 394.323 212.426L390.962 216.105V217ZM402.676 217.139C404.923 217.139 406.215 215.235 406.215 211.909C406.215 208.608 404.903 206.679 402.676 206.679C400.448 206.679 399.136 208.608 399.136 211.909C399.136 215.235 400.428 217.139 402.676 217.139ZM402.676 216.045C401.194 216.045 400.329 214.559 400.329 211.909C400.329 209.264 401.204 207.753 402.676 207.753C404.147 207.753 405.022 209.264 405.022 211.909C405.022 214.559 404.157 216.045 402.676 216.045ZM408.021 217H414.444V215.906H409.711V215.827L411.998 213.381C413.748 211.506 414.265 210.631 414.265 209.503C414.265 207.932 412.992 206.679 411.202 206.679C409.418 206.679 408.06 207.892 408.06 209.682H409.234C409.234 208.523 409.984 207.753 411.163 207.753C412.266 207.753 413.112 208.429 413.112 209.503C413.112 210.442 412.56 211.138 411.381 212.426L408.021 216.105V217ZM419.993 206.818H418.76L416.214 208.509V209.761L418.7 208.111H418.76V217H419.993V206.818Z" fill="#676D7A"></path><line x1="44" y1="247.5" x2="596" y2="247.5" stroke="#E9EBF0"></line><path d="M45.2784 306H49.7386C52.4432 306 53.6648 304.653 53.6648 302.869C53.6648 301.068 52.4034 300.051 51.25 299.989V299.875C52.3182 299.602 53.2102 298.875 53.2102 297.42C53.2102 295.699 52.017 294.364 49.5398 294.364H45.2784V306ZM47.0341 304.494V300.767H49.6307C51.0398 300.767 51.9205 301.676 51.9205 302.784C51.9205 303.761 51.2557 304.494 49.5682 304.494H47.0341ZM47.0341 299.398V295.858H49.4318C50.8239 295.858 51.4886 296.591 51.4886 297.557C51.4886 298.682 50.5682 299.398 49.3864 299.398H47.0341ZM60.9632 302.381C60.9689 303.864 59.8666 304.568 58.9121 304.568C57.8609 304.568 57.1337 303.807 57.1337 302.619V297.273H55.4348V302.824C55.4348 304.989 56.6223 306.114 58.2984 306.114C59.6109 306.114 60.503 305.42 60.9064 304.489H60.9973V306H62.6678V297.273H60.9632V302.381ZM68.0415 306.17C69.6324 306.17 70.2574 305.199 70.5642 304.642H70.7062V306H72.3653V294.364H70.6665V298.688H70.5642C70.2574 298.148 69.6778 297.159 68.0528 297.159C65.9449 297.159 64.3937 298.824 64.3937 301.653C64.3937 304.477 65.9221 306.17 68.0415 306.17ZM68.4165 304.722C66.8994 304.722 66.1096 303.386 66.1096 301.636C66.1096 299.903 66.8824 298.602 68.4165 298.602C69.8994 298.602 70.6949 299.812 70.6949 301.636C70.6949 303.472 69.8824 304.722 68.4165 304.722ZM74.614 306H76.3129V300.619C76.3129 299.443 77.1368 298.625 78.1027 298.625C79.0459 298.625 79.6993 299.25 79.6993 300.199V306H81.3925V300.438C81.3925 299.386 82.0345 298.625 83.1425 298.625C84.0402 298.625 84.7788 299.125 84.7788 300.307V306H86.4777V300.148C86.4777 298.153 85.364 297.159 83.7845 297.159C82.5288 297.159 81.5856 297.761 81.1652 298.693H81.0743C80.6936 297.739 79.8925 297.159 78.7277 297.159C77.5743 297.159 76.7163 297.733 76.3527 298.693H76.2447V297.273H74.614V306ZM92.2548 306.176C94.715 306.176 96.323 304.375 96.323 301.676C96.323 298.96 94.715 297.159 92.2548 297.159C89.7946 297.159 88.1866 298.96 88.1866 301.676C88.1866 304.375 89.7946 306.176 92.2548 306.176ZM92.2605 304.75C90.6525 304.75 89.9025 303.347 89.9025 301.67C89.9025 300 90.6525 298.58 92.2605 298.58C93.8571 298.58 94.6071 300 94.6071 301.67C94.6071 303.347 93.8571 304.75 92.2605 304.75ZM102.117 297.273H100.327V295.182H98.6285V297.273H97.3501V298.636H98.6285V303.79C98.6228 305.375 99.8331 306.142 101.174 306.114C101.714 306.108 102.077 306.006 102.276 305.932L101.969 304.528C101.856 304.551 101.646 304.602 101.373 304.602C100.822 304.602 100.327 304.42 100.327 303.438V298.636H102.117V297.273ZM110.22 299.403C109.867 298.045 108.805 297.159 106.918 297.159C104.947 297.159 103.549 298.199 103.549 299.744C103.549 300.983 104.299 301.807 105.935 302.17L107.413 302.494C108.254 302.682 108.646 303.057 108.646 303.602C108.646 304.278 107.924 304.807 106.81 304.807C105.793 304.807 105.14 304.369 104.935 303.511L103.293 303.761C103.578 305.307 104.862 306.176 106.822 306.176C108.93 306.176 110.39 305.057 110.39 303.477C110.39 302.244 109.606 301.483 108.004 301.114L106.617 300.795C105.657 300.568 105.242 300.244 105.248 299.653C105.242 298.983 105.97 298.506 106.935 298.506C107.992 298.506 108.481 299.091 108.68 299.676L110.22 299.403ZM124.152 298.04H125.953C125.561 295.773 123.623 294.205 121.112 294.205C118.101 294.205 115.902 296.472 115.902 300.188C115.902 303.869 118.038 306.159 121.191 306.159C124.015 306.159 126.032 304.307 126.032 301.369V300.045H121.458V301.494H124.333C124.294 303.369 123.055 304.557 121.191 304.557C119.14 304.557 117.646 303.006 117.646 300.176C117.646 297.358 119.152 295.807 121.123 295.807C122.669 295.807 123.714 296.659 124.152 298.04ZM127.949 306H129.648V300.619C129.648 299.443 130.471 298.625 131.437 298.625C132.38 298.625 133.034 299.25 133.034 300.199V306H134.727V300.438C134.727 299.386 135.369 298.625 136.477 298.625C137.375 298.625 138.113 299.125 138.113 300.307V306H139.812V300.148C139.812 298.153 138.699 297.159 137.119 297.159C135.863 297.159 134.92 297.761 134.5 298.693H134.409C134.028 297.739 133.227 297.159 132.062 297.159C130.909 297.159 130.051 297.733 129.687 298.693H129.579V297.273H127.949V306ZM142.05 306H143.709V304.642H143.851C144.158 305.199 144.783 306.17 146.374 306.17C148.487 306.17 150.021 304.477 150.021 301.653C150.021 298.824 148.464 297.159 146.356 297.159C144.737 297.159 144.152 298.148 143.851 298.688H143.749V294.364H142.05V306ZM143.714 301.636C143.714 299.812 144.51 298.602 145.993 298.602C147.533 298.602 148.305 299.903 148.305 301.636C148.305 303.386 147.51 304.722 145.993 304.722C144.533 304.722 143.714 303.472 143.714 301.636ZM151.889 306H153.645V300.926H159.446V306H161.207V294.364H159.446V299.42H153.645V294.364H151.889V306ZM168.005 300.182C168.005 303.034 168.766 305.409 170.209 307.432H171.766C170.647 305.932 169.766 302.886 169.766 300.182C169.766 297.483 170.647 294.438 171.766 292.938H170.209C168.766 294.96 168.005 297.335 168.005 300.182ZM175.273 294.364H173.518V306H175.273V294.364ZM179.217 300.818C179.217 299.426 180.069 298.631 181.251 298.631C182.404 298.631 183.103 299.386 183.103 300.653V306H184.802V300.449C184.802 298.29 183.614 297.159 181.83 297.159C180.518 297.159 179.66 297.767 179.256 298.693H179.148V297.273H177.518V306H179.217V300.818ZM190.978 297.273H189.188V295.182H187.489V297.273H186.211V298.636H187.489V303.79C187.484 305.375 188.694 306.142 190.035 306.114C190.575 306.108 190.938 306.006 191.137 305.932L190.83 304.528C190.717 304.551 190.506 304.602 190.234 304.602C189.683 304.602 189.188 304.42 189.188 303.438V298.636H190.978V297.273ZM196.349 306.176C198.252 306.176 199.599 305.239 199.985 303.818L198.377 303.528C198.07 304.352 197.332 304.773 196.366 304.773C194.911 304.773 193.934 303.83 193.889 302.148H200.093V301.545C200.093 298.392 198.207 297.159 196.23 297.159C193.798 297.159 192.195 299.011 192.195 301.693C192.195 304.403 193.775 306.176 196.349 306.176ZM193.894 300.875C193.963 299.636 194.86 298.562 196.241 298.562C197.559 298.562 198.423 299.54 198.428 300.875H193.894ZM201.802 306H203.501V300.67C203.501 299.528 204.382 298.705 205.586 298.705C205.939 298.705 206.336 298.767 206.473 298.807V297.182C206.302 297.159 205.967 297.142 205.751 297.142C204.728 297.142 203.853 297.722 203.535 298.659H203.444V297.273H201.802V306ZM209.466 300.818C209.466 299.426 210.318 298.631 211.5 298.631C212.653 298.631 213.352 299.386 213.352 300.653V306H215.051V300.449C215.051 298.29 213.863 297.159 212.079 297.159C210.767 297.159 209.909 297.767 209.505 298.693H209.397V297.273H207.767V306H209.466V300.818ZM219.693 306.193C221.136 306.193 221.949 305.46 222.273 304.807H222.341V306H224V300.205C224 297.665 222 297.159 220.614 297.159C219.034 297.159 217.579 297.795 217.011 299.386L218.608 299.75C218.858 299.131 219.494 298.534 220.636 298.534C221.733 298.534 222.295 299.108 222.295 300.097V300.136C222.295 300.756 221.659 300.744 220.091 300.926C218.437 301.119 216.744 301.551 216.744 303.534C216.744 305.25 218.034 306.193 219.693 306.193ZM220.062 304.83C219.102 304.83 218.409 304.398 218.409 303.557C218.409 302.648 219.216 302.324 220.199 302.193C220.75 302.119 222.057 301.972 222.301 301.727V302.852C222.301 303.886 221.477 304.83 220.062 304.83ZM227.786 294.364H226.087V306H227.786V294.364ZM237.715 306.176C239.618 306.176 240.965 305.239 241.351 303.818L239.743 303.528C239.436 304.352 238.698 304.773 237.732 304.773C236.277 304.773 235.3 303.83 235.255 302.148H241.459V301.545C241.459 298.392 239.573 297.159 237.595 297.159C235.164 297.159 233.561 299.011 233.561 301.693C233.561 304.403 235.141 306.176 237.715 306.176ZM235.26 300.875C235.328 299.636 236.226 298.562 237.607 298.562C238.925 298.562 239.789 299.54 239.794 300.875H235.26ZM244.867 294.364H243.168V306H244.867V294.364ZM250.738 306.176C252.641 306.176 253.988 305.239 254.374 303.818L252.766 303.528C252.459 304.352 251.721 304.773 250.755 304.773C249.3 304.773 248.323 303.83 248.278 302.148H254.482V301.545C254.482 298.392 252.596 297.159 250.618 297.159C248.187 297.159 246.584 299.011 246.584 301.693C246.584 304.403 248.164 306.176 250.738 306.176ZM248.283 300.875C248.351 299.636 249.249 298.562 250.63 298.562C251.948 298.562 252.812 299.54 252.817 300.875H248.283ZM259.867 306.176C261.93 306.176 263.265 304.938 263.452 303.239H261.799C261.583 304.182 260.85 304.739 259.879 304.739C258.441 304.739 257.515 303.54 257.515 301.636C257.515 299.767 258.458 298.591 259.879 298.591C260.958 298.591 261.617 299.273 261.799 300.091H263.452C263.271 298.33 261.833 297.159 259.85 297.159C257.39 297.159 255.799 299.011 255.799 301.676C255.799 304.307 257.333 306.176 259.867 306.176ZM269.167 297.273H267.377V295.182H265.678V297.273H264.4V298.636H265.678V303.79C265.673 305.375 266.883 306.142 268.224 306.114C268.764 306.108 269.127 306.006 269.326 305.932L269.019 304.528C268.906 304.551 268.695 304.602 268.423 304.602C267.872 304.602 267.377 304.42 267.377 303.438V298.636H269.167V297.273ZM270.87 306H272.569V300.67C272.569 299.528 273.45 298.705 274.654 298.705C275.007 298.705 275.404 298.767 275.541 298.807V297.182C275.37 297.159 275.035 297.142 274.819 297.142C273.796 297.142 272.921 297.722 272.603 298.659H272.512V297.273H270.87V306ZM276.835 306H278.534V297.273H276.835V306ZM277.693 295.926C278.278 295.926 278.767 295.472 278.767 294.915C278.767 294.358 278.278 293.898 277.693 293.898C277.102 293.898 276.619 294.358 276.619 294.915C276.619 295.472 277.102 295.926 277.693 295.926ZM284.319 306.176C286.382 306.176 287.717 304.938 287.905 303.239H286.251C286.035 304.182 285.302 304.739 284.331 304.739C282.893 304.739 281.967 303.54 281.967 301.636C281.967 299.767 282.91 298.591 284.331 298.591C285.41 298.591 286.069 299.273 286.251 300.091H287.905C287.723 298.33 286.285 297.159 284.302 297.159C281.842 297.159 280.251 299.011 280.251 301.676C280.251 304.307 281.785 306.176 284.319 306.176ZM292.085 306.193C293.528 306.193 294.341 305.46 294.665 304.807H294.733V306H296.392V300.205C296.392 297.665 294.392 297.159 293.006 297.159C291.426 297.159 289.972 297.795 289.403 299.386L291 299.75C291.25 299.131 291.886 298.534 293.028 298.534C294.125 298.534 294.687 299.108 294.687 300.097V300.136C294.687 300.756 294.051 300.744 292.483 300.926C290.83 301.119 289.136 301.551 289.136 303.534C289.136 305.25 290.426 306.193 292.085 306.193ZM292.455 304.83C291.494 304.83 290.801 304.398 290.801 303.557C290.801 302.648 291.608 302.324 292.591 302.193C293.142 302.119 294.449 301.972 294.693 301.727V302.852C294.693 303.886 293.869 304.83 292.455 304.83ZM300.178 294.364H298.479V306H300.178V294.364ZM308.044 300.818C308.044 299.426 308.897 298.631 310.078 298.631C311.232 298.631 311.931 299.386 311.931 300.653V306H313.63V300.449C313.63 298.29 312.442 297.159 310.658 297.159C309.346 297.159 308.488 297.767 308.084 298.693H307.976V297.273H306.346V306H308.044V300.818ZM319.493 306.176C321.397 306.176 322.743 305.239 323.13 303.818L321.522 303.528C321.215 304.352 320.476 304.773 319.51 304.773C318.056 304.773 317.079 303.83 317.033 302.148H323.238V301.545C323.238 298.392 321.351 297.159 319.374 297.159C316.942 297.159 315.34 299.011 315.34 301.693C315.34 304.403 316.92 306.176 319.493 306.176ZM317.039 300.875C317.107 299.636 318.005 298.562 319.385 298.562C320.704 298.562 321.567 299.54 321.573 300.875H317.039ZM329.021 297.273H327.231V295.182H325.532V297.273H324.253V298.636H325.532V303.79C325.526 305.375 326.736 306.142 328.077 306.114C328.617 306.108 328.981 306.006 329.18 305.932L328.873 304.528C328.759 304.551 328.549 304.602 328.276 304.602C327.725 304.602 327.231 304.42 327.231 303.438V298.636H329.021V297.273ZM332.616 306H334.343L336.116 299.699H336.247L338.019 306H339.752L342.315 297.273H340.559L338.86 303.653H338.775L337.07 297.273H335.315L333.599 303.682H333.514L331.803 297.273H330.048L332.616 306ZM347.161 306.176C349.622 306.176 351.23 304.375 351.23 301.676C351.23 298.96 349.622 297.159 347.161 297.159C344.701 297.159 343.093 298.96 343.093 301.676C343.093 304.375 344.701 306.176 347.161 306.176ZM347.167 304.75C345.559 304.75 344.809 303.347 344.809 301.67C344.809 300 345.559 298.58 347.167 298.58C348.764 298.58 349.514 300 349.514 301.67C349.514 303.347 348.764 304.75 347.167 304.75ZM352.95 306H354.649V300.67C354.649 299.528 355.529 298.705 356.734 298.705C357.086 298.705 357.484 298.767 357.62 298.807V297.182C357.45 297.159 357.115 297.142 356.899 297.142C355.876 297.142 355.001 297.722 354.683 298.659H354.592V297.273H352.95V306ZM358.915 306H360.613V302.903L361.46 302.057L364.426 306H366.511L362.738 301.017L366.272 297.273H364.238L360.761 300.966H360.613V294.364H358.915V306ZM374.185 299.403C373.832 298.045 372.77 297.159 370.883 297.159C368.912 297.159 367.514 298.199 367.514 299.744C367.514 300.983 368.264 301.807 369.9 302.17L371.378 302.494C372.219 302.682 372.611 303.057 372.611 303.602C372.611 304.278 371.889 304.807 370.775 304.807C369.758 304.807 369.105 304.369 368.9 303.511L367.258 303.761C367.543 305.307 368.827 306.176 370.787 306.176C372.895 306.176 374.355 305.057 374.355 303.477C374.355 302.244 373.571 301.483 371.969 301.114L370.582 300.795C369.622 300.568 369.207 300.244 369.213 299.653C369.207 298.983 369.935 298.506 370.9 298.506C371.957 298.506 372.446 299.091 372.645 299.676L374.185 299.403ZM379.314 301.176C379.314 298.324 378.553 295.949 377.109 293.926H375.553C376.672 295.426 377.553 298.472 377.553 301.176C377.553 303.875 376.672 306.92 375.553 308.42H377.109C378.553 306.398 379.314 304.023 379.314 301.176Z" fill="#282A2E"></path><rect width="1200" height="88" transform="translate(8 64)" fill="#F5F6F7"></rect><rect x="44" y="88" width="145" height="40" rx="8" fill="#3A72E0"></rect><path d="M74.5781 102.616L68.5781 100.116C68.3945 100.038 68.1981 100 68.0019 100C67.8056 100 67.6094 100.037 67.425 100.116L61.4253 102.616C60.8666 102.846 60.5 103.394 60.5 103.972C60.5 112.044 66.4187 116 67.9969 116C69.5375 116 75.5 112.103 75.5 103.972C75.5 103.394 75.1344 102.846 74.5781 102.616ZM68 114.5C64.9531 113.231 62 109.29 62 104L68 101.5L74 104C74 109.431 70.925 113.281 68 114.5ZM66.2531 107.719C66.1344 107.572 65.9406 107.472 65.75 107.472C65.3216 107.472 65 107.822 65 108.222C65 108.44 65.0719 108.634 65.2188 108.753L66.7188 110.253C66.8594 110.422 67.0531 110.472 67.25 110.472C67.3311 110.472 67.6081 110.456 67.8194 110.21L70.8194 106.71C70.9407 106.568 71 106.395 71 106.222C71 105.99 70.8191 105.472 70.2507 105.472C70.0395 105.472 69.8294 105.561 69.6807 105.733L67.2094 108.647L66.2531 107.719Z" fill="white"></path><path d="M90.6719 105.493H92.1534C92.1087 103.862 90.6669 102.679 88.5987 102.679C86.5554 102.679 84.9893 103.847 84.9893 105.602C84.9893 107.019 86.0036 107.849 87.6392 108.292L88.8423 108.62C89.9311 108.908 90.7713 109.266 90.7713 110.171C90.7713 111.165 89.8217 111.822 88.5142 111.822C87.331 111.822 86.3466 111.295 86.2571 110.186H84.7159C84.8153 112.031 86.2422 113.169 88.5241 113.169C90.9155 113.169 92.2926 111.911 92.2926 110.186C92.2926 108.352 90.657 107.641 89.3643 107.322L88.37 107.064C87.5746 106.86 86.5156 106.487 86.5206 105.513C86.5206 104.648 87.3111 104.006 88.5639 104.006C89.7322 104.006 90.5625 104.553 90.6719 105.493ZM93.9251 113H95.4116V105.364H93.9251V113ZM94.6758 104.185C95.1878 104.185 95.6154 103.788 95.6154 103.3C95.6154 102.813 95.1878 102.411 94.6758 102.411C94.1587 102.411 93.7361 102.813 93.7361 103.3C93.7361 103.788 94.1587 104.185 94.6758 104.185ZM100.529 116.023C102.473 116.023 103.974 115.133 103.974 113.169V105.364H102.518V106.602H102.408C102.145 106.129 101.618 105.264 100.196 105.264C98.3515 105.264 96.9943 106.721 96.9943 109.152C96.9943 111.588 98.3814 112.886 100.186 112.886C101.588 112.886 102.13 112.095 102.398 111.608H102.493V113.109C102.493 114.308 101.673 114.825 100.544 114.825C99.3061 114.825 98.8238 114.203 98.5603 113.766L97.2826 114.293C97.6853 115.227 98.7045 116.023 100.529 116.023ZM100.514 111.653C99.1868 111.653 98.4957 110.634 98.4957 109.132C98.4957 107.665 99.1718 106.527 100.514 106.527C101.812 106.527 102.508 107.586 102.508 109.132C102.508 110.708 101.797 111.653 100.514 111.653ZM107.371 108.466C107.371 107.248 108.116 106.552 109.15 106.552C110.16 106.552 110.771 107.213 110.771 108.322V113H112.258V108.143C112.258 106.254 111.219 105.264 109.657 105.264C108.509 105.264 107.758 105.796 107.405 106.607H107.311V105.364H105.884V113H107.371V108.466ZM121.005 113.154C122.81 113.154 123.978 112.07 124.142 110.584H122.695C122.506 111.409 121.865 111.896 121.015 111.896C119.757 111.896 118.947 110.847 118.947 109.182C118.947 107.546 119.772 106.517 121.015 106.517C121.959 106.517 122.536 107.114 122.695 107.83H124.142C123.983 106.288 122.725 105.264 120.99 105.264C118.837 105.264 117.445 106.885 117.445 109.217C117.445 111.518 118.788 113.154 121.005 113.154ZM128.864 113.154C131.017 113.154 132.424 111.578 132.424 109.217C132.424 106.84 131.017 105.264 128.864 105.264C126.712 105.264 125.305 106.84 125.305 109.217C125.305 111.578 126.712 113.154 128.864 113.154ZM128.869 111.906C127.462 111.906 126.806 110.678 126.806 109.212C126.806 107.75 127.462 106.507 128.869 106.507C130.266 106.507 130.922 107.75 130.922 109.212C130.922 110.678 130.266 111.906 128.869 111.906ZM135.486 108.466C135.486 107.248 136.231 106.552 137.266 106.552C138.275 106.552 138.886 107.213 138.886 108.322V113H140.373V108.143C140.373 106.254 139.334 105.264 137.773 105.264C136.624 105.264 135.873 105.796 135.52 106.607H135.426V105.364H133.999V113H135.486V108.466ZM145.847 105.364H144.281V103.534H142.794V105.364H141.676V106.557H142.794V111.066C142.789 112.453 143.848 113.124 145.022 113.099C145.494 113.094 145.812 113.005 145.986 112.94L145.718 111.712C145.618 111.732 145.434 111.777 145.196 111.777C144.713 111.777 144.281 111.618 144.281 110.758V106.557H145.847V105.364ZM147.407 113H148.894V108.337C148.894 107.337 149.664 106.616 150.718 106.616C151.027 106.616 151.375 106.671 151.494 106.706V105.284C151.345 105.264 151.052 105.249 150.863 105.249C149.968 105.249 149.202 105.756 148.924 106.577H148.844V105.364H147.407V113ZM154.85 113.169C156.113 113.169 156.824 112.528 157.107 111.956H157.167V113H158.619V107.929C158.619 105.707 156.869 105.264 155.656 105.264C154.274 105.264 153.001 105.821 152.504 107.213L153.901 107.531C154.12 106.989 154.676 106.467 155.676 106.467C156.635 106.467 157.127 106.969 157.127 107.835V107.869C157.127 108.411 156.571 108.401 155.198 108.56C153.752 108.729 152.27 109.107 152.27 110.842C152.27 112.344 153.399 113.169 154.85 113.169ZM155.173 111.976C154.333 111.976 153.727 111.598 153.727 110.862C153.727 110.067 154.433 109.783 155.293 109.669C155.775 109.604 156.919 109.475 157.132 109.261V110.246C157.132 111.151 156.411 111.976 155.173 111.976ZM163.731 113.154C165.536 113.154 166.704 112.07 166.868 110.584H165.422C165.233 111.409 164.591 111.896 163.741 111.896C162.483 111.896 161.673 110.847 161.673 109.182C161.673 107.546 162.498 106.517 163.741 106.517C164.686 106.517 165.263 107.114 165.422 107.83H166.868C166.709 106.288 165.452 105.264 163.716 105.264C161.564 105.264 160.172 106.885 160.172 109.217C160.172 111.518 161.514 113.154 163.731 113.154ZM171.939 105.364H170.373V103.534H168.886V105.364H167.768V106.557H168.886V111.066C168.881 112.453 169.94 113.124 171.113 113.099C171.586 113.094 171.904 113.005 172.078 112.94L171.809 111.712C171.71 111.732 171.526 111.777 171.287 111.777C170.805 111.777 170.373 111.618 170.373 110.758V106.557H171.939V105.364Z" fill="white"></path><path d="M206.119 102.818V113H207.58V105.627H207.675L210.678 112.985H211.891L214.893 105.632H214.988V113H216.45V102.818H214.585L211.344 110.733H211.224L207.983 102.818H206.119ZM218.48 113H219.966V105.364H218.48V113ZM219.23 104.185C219.743 104.185 220.17 103.788 220.17 103.3C220.17 102.813 219.743 102.411 219.23 102.411C218.713 102.411 218.291 102.813 218.291 103.3C218.291 103.788 218.713 104.185 219.23 104.185ZM225.099 113.154C226.903 113.154 228.072 112.07 228.236 110.584H226.789C226.6 111.409 225.959 111.896 225.109 111.896C223.851 111.896 223.04 110.847 223.04 109.182C223.04 107.546 223.866 106.517 225.109 106.517C226.053 106.517 226.63 107.114 226.789 107.83H228.236C228.077 106.288 226.819 105.264 225.084 105.264C222.931 105.264 221.539 106.885 221.539 109.217C221.539 111.518 222.881 113.154 225.099 113.154ZM231.228 108.466C231.228 107.248 231.999 106.552 233.057 106.552C234.082 106.552 234.693 107.203 234.693 108.322V113H236.18V108.143C236.18 106.239 235.136 105.264 233.565 105.264C232.376 105.264 231.66 105.781 231.303 106.607H231.208V102.818H229.741V113H231.228V108.466ZM240.302 113.169C241.564 113.169 242.275 112.528 242.559 111.956H242.618V113H244.07V107.929C244.07 105.707 242.32 105.264 241.107 105.264C239.725 105.264 238.452 105.821 237.955 107.213L239.352 107.531C239.571 106.989 240.128 106.467 241.127 106.467C242.086 106.467 242.579 106.969 242.579 107.835V107.869C242.579 108.411 242.022 108.401 240.65 108.56C239.203 108.729 237.721 109.107 237.721 110.842C237.721 112.344 238.85 113.169 240.302 113.169ZM240.625 111.976C239.785 111.976 239.178 111.598 239.178 110.862C239.178 110.067 239.884 109.783 240.744 109.669C241.226 109.604 242.37 109.475 242.584 109.261V110.246C242.584 111.151 241.863 111.976 240.625 111.976ZM249.257 113.154C250.923 113.154 252.101 112.334 252.439 111.091L251.032 110.837C250.764 111.558 250.117 111.926 249.272 111.926C247.999 111.926 247.144 111.101 247.105 109.629H252.533V109.102C252.533 106.343 250.883 105.264 249.153 105.264C247.025 105.264 245.623 106.885 245.623 109.232C245.623 111.603 247.005 113.154 249.257 113.154ZM247.109 108.516C247.169 107.432 247.955 106.492 249.163 106.492C250.316 106.492 251.072 107.347 251.077 108.516H247.109ZM255.585 102.818H254.099V113H255.585V102.818ZM261.242 113H265.144C267.511 113 268.58 111.822 268.58 110.261C268.58 108.685 267.476 107.795 266.467 107.74V107.641C267.401 107.402 268.182 106.766 268.182 105.493C268.182 103.987 267.138 102.818 264.97 102.818H261.242V113ZM262.778 111.683V108.421H265.05C266.283 108.421 267.053 109.217 267.053 110.186C267.053 111.041 266.472 111.683 264.995 111.683H262.778ZM262.778 107.223V104.126H264.876C266.094 104.126 266.675 104.767 266.675 105.612C266.675 106.597 265.87 107.223 264.836 107.223H262.778ZM273.415 113.154C275.568 113.154 276.975 111.578 276.975 109.217C276.975 106.84 275.568 105.264 273.415 105.264C271.262 105.264 269.855 106.84 269.855 109.217C269.855 111.578 271.262 113.154 273.415 113.154ZM273.42 111.906C272.013 111.906 271.357 110.678 271.357 109.212C271.357 107.75 272.013 106.507 273.42 106.507C274.817 106.507 275.473 107.75 275.473 109.212C275.473 110.678 274.817 111.906 273.42 111.906ZM279.973 113H281.484L283.036 107.487H283.15L284.701 113H286.217L288.46 105.364H286.923L285.437 110.947H285.362L283.871 105.364H282.335L280.833 110.972H280.759L279.262 105.364H277.726L279.973 113ZM291.273 102.818H289.786V113H291.273V102.818ZM296.884 113H298.058V105.364H296.884V113ZM297.481 104.091C297.938 104.091 298.316 103.733 298.316 103.295C298.316 102.858 297.938 102.5 297.481 102.5C297.023 102.5 296.646 102.858 296.646 103.295C296.646 103.733 297.023 104.091 297.481 104.091ZM301.296 108.406C301.296 107.074 302.121 106.318 303.245 106.318C304.333 106.318 304.995 107.029 304.995 108.227V113H306.168V108.148C306.168 106.199 305.129 105.264 303.583 105.264C302.429 105.264 301.713 105.781 301.355 106.557H301.256V105.364H300.122V113H301.296V108.406ZM314.199 105.364H312.926L310.818 111.449H310.739L308.631 105.364H307.358L310.182 113H311.375L314.199 105.364ZM315.663 113H316.837V105.364H315.663V113ZM316.26 104.091C316.717 104.091 317.095 103.733 317.095 103.295C317.095 102.858 316.717 102.5 316.26 102.5C315.803 102.5 315.425 102.858 315.425 103.295C315.425 103.733 315.803 104.091 316.26 104.091ZM322.223 105.364H320.592V103.534H319.419V105.364H318.265V106.358H319.419V111.131C319.419 112.463 320.493 113.099 321.487 113.099C321.924 113.099 322.203 113.02 322.362 112.96L322.123 111.906C322.024 111.926 321.865 111.966 321.606 111.966C321.089 111.966 320.592 111.807 320.592 110.812V106.358H322.223V105.364ZM327.023 113.159C328.574 113.159 329.708 112.384 330.066 111.23L328.932 110.912C328.634 111.707 327.943 112.105 327.023 112.105C325.646 112.105 324.697 111.215 324.642 109.58H330.185V109.082C330.185 106.239 328.495 105.264 326.904 105.264C324.836 105.264 323.464 106.895 323.464 109.241C323.464 111.588 324.816 113.159 327.023 113.159ZM324.642 108.565C324.721 107.377 325.562 106.318 326.904 106.318C328.177 106.318 328.992 107.273 328.992 108.565H324.642ZM336.495 115.864C337.554 115.864 338.3 115.302 338.742 114.114L341.994 105.384L340.711 105.364L338.603 111.449H338.524L336.416 105.364H335.143L337.967 113.04L337.748 113.636C337.321 114.8 336.794 114.909 335.938 114.69L335.64 115.724C335.759 115.784 336.098 115.864 336.495 115.864ZM346.291 113.159C348.359 113.159 349.751 111.588 349.751 109.222C349.751 106.835 348.359 105.264 346.291 105.264C344.223 105.264 342.831 106.835 342.831 109.222C342.831 111.588 344.223 113.159 346.291 113.159ZM346.291 112.105C344.72 112.105 344.004 110.753 344.004 109.222C344.004 107.69 344.72 106.318 346.291 106.318C347.862 106.318 348.578 107.69 348.578 109.222C348.578 110.753 347.862 112.105 346.291 112.105ZM356.271 109.878C356.271 111.31 355.177 111.966 354.302 111.966C353.328 111.966 352.632 111.25 352.632 110.136V105.364H351.458V110.216C351.458 112.165 352.492 113.099 353.924 113.099C355.078 113.099 355.833 112.483 356.191 111.707H356.271V113H357.444V105.364H356.271V109.878ZM366.684 105.364H365.053V103.534H363.88V105.364H362.726V106.358H363.88V111.131C363.88 112.463 364.953 113.099 365.948 113.099C366.385 113.099 366.664 113.02 366.823 112.96L366.584 111.906C366.485 111.926 366.326 111.966 366.067 111.966C365.55 111.966 365.053 111.807 365.053 110.812V106.358H366.684V105.364ZM371.385 113.159C373.453 113.159 374.845 111.588 374.845 109.222C374.845 106.835 373.453 105.264 371.385 105.264C369.317 105.264 367.924 106.835 367.924 109.222C367.924 111.588 369.317 113.159 371.385 113.159ZM371.385 112.105C369.814 112.105 369.098 110.753 369.098 109.222C369.098 107.69 369.814 106.318 371.385 106.318C372.956 106.318 373.672 107.69 373.672 109.222C373.672 110.753 372.956 112.105 371.385 112.105ZM386.133 105.364H387.326C387.271 103.827 385.854 102.679 383.886 102.679C381.937 102.679 380.405 103.812 380.405 105.523C380.405 106.895 381.4 107.71 382.991 108.168L384.244 108.526C385.317 108.824 386.272 109.202 386.272 110.216C386.272 111.33 385.198 112.065 383.786 112.065C382.573 112.065 381.499 111.528 381.4 110.375H380.127C380.246 112.045 381.599 113.179 383.786 113.179C386.133 113.179 387.465 111.886 387.465 110.236C387.465 108.327 385.655 107.71 384.601 107.432L383.567 107.153C382.812 106.955 381.599 106.557 381.599 105.463C381.599 104.489 382.494 103.773 383.846 103.773C385.079 103.773 386.013 104.359 386.133 105.364ZM389.249 113H390.422V105.364H389.249V113ZM389.846 104.091C390.303 104.091 390.681 103.733 390.681 103.295C390.681 102.858 390.303 102.5 389.846 102.5C389.388 102.5 389.011 102.858 389.011 103.295C389.011 103.733 389.388 104.091 389.846 104.091ZM395.57 116.023C397.399 116.023 398.871 115.188 398.871 113.219V105.364H397.737V106.577H397.618C397.36 106.179 396.882 105.264 395.391 105.264C393.462 105.264 392.13 106.795 392.13 109.142C392.13 111.528 393.522 112.881 395.371 112.881C396.862 112.881 397.34 112.006 397.598 111.588H397.698V113.139C397.698 114.412 396.803 114.989 395.57 114.989C394.183 114.989 393.696 114.258 393.382 113.835L392.448 114.491C392.925 115.292 393.865 116.023 395.57 116.023ZM395.53 111.827C394.058 111.827 393.303 110.713 393.303 109.122C393.303 107.571 394.039 106.318 395.53 106.318C396.962 106.318 397.718 107.472 397.718 109.122C397.718 110.812 396.942 111.827 395.53 111.827ZM402.108 108.406C402.108 107.074 402.933 106.318 404.057 106.318C405.146 106.318 405.807 107.029 405.807 108.227V113H406.98V108.148C406.98 106.199 405.941 105.264 404.395 105.264C403.242 105.264 402.526 105.781 402.168 106.557H402.068V105.364H400.935V113H402.108V108.406ZM415.141 113.179C416.473 113.179 417.169 112.463 417.408 111.966H417.468V113H418.641V107.969C418.641 105.543 416.791 105.264 415.817 105.264C414.664 105.264 413.351 105.662 412.754 107.054L413.868 107.452C414.127 106.895 414.738 106.298 415.857 106.298C416.936 106.298 417.468 106.87 417.468 107.849V107.889C417.468 108.456 416.891 108.406 415.499 108.585C414.082 108.769 412.536 109.082 412.536 110.832C412.536 112.324 413.689 113.179 415.141 113.179ZM415.32 112.125C414.385 112.125 413.709 111.707 413.709 110.892C413.709 109.997 414.524 109.719 415.439 109.599C415.936 109.54 417.269 109.401 417.468 109.162V110.236C417.468 111.19 416.712 112.125 415.32 112.125ZM427.654 113.159C429.344 113.159 430.458 112.125 430.657 110.773H429.484C429.265 111.608 428.569 112.105 427.654 112.105C426.262 112.105 425.367 110.952 425.367 109.182C425.367 107.452 426.282 106.318 427.654 106.318C428.688 106.318 429.305 106.955 429.484 107.651H430.657C430.458 106.219 429.245 105.264 427.634 105.264C425.566 105.264 424.194 106.895 424.194 109.222C424.194 111.509 425.506 113.159 427.654 113.159ZM435.39 113.159C437.459 113.159 438.851 111.588 438.851 109.222C438.851 106.835 437.459 105.264 435.39 105.264C433.322 105.264 431.93 106.835 431.93 109.222C431.93 111.588 433.322 113.159 435.39 113.159ZM435.39 112.105C433.819 112.105 433.103 110.753 433.103 109.222C433.103 107.69 433.819 106.318 435.39 106.318C436.961 106.318 437.677 107.69 437.677 109.222C437.677 110.753 436.961 112.105 435.39 112.105ZM441.731 108.406C441.731 107.074 442.556 106.318 443.68 106.318C444.769 106.318 445.43 107.029 445.43 108.227V113H446.603V108.148C446.603 106.199 445.564 105.264 444.018 105.264C442.864 105.264 442.149 105.781 441.791 106.557H441.691V105.364H440.558V113H441.731V108.406ZM451.984 105.364H450.353V103.534H449.18V105.364H448.027V106.358H449.18V111.131C449.18 112.463 450.254 113.099 451.248 113.099C451.686 113.099 451.964 113.02 452.123 112.96L451.885 111.906C451.785 111.926 451.626 111.966 451.368 111.966C450.851 111.966 450.353 111.807 450.353 110.812V106.358H451.984V105.364ZM453.665 113H454.838V108.168C454.838 107.134 455.654 106.378 456.767 106.378C457.081 106.378 457.404 106.438 457.483 106.457V105.264C457.349 105.254 457.041 105.244 456.867 105.244C455.952 105.244 455.157 105.761 454.878 106.517H454.799V105.364H453.665V113ZM461.037 113.179C462.37 113.179 463.066 112.463 463.304 111.966H463.364V113H464.537V107.969C464.537 105.543 462.688 105.264 461.713 105.264C460.56 105.264 459.247 105.662 458.651 107.054L459.764 107.452C460.023 106.895 460.635 106.298 461.753 106.298C462.832 106.298 463.364 106.87 463.364 107.849V107.889C463.364 108.456 462.787 108.406 461.395 108.585C459.978 108.769 458.432 109.082 458.432 110.832C458.432 112.324 459.586 113.179 461.037 113.179ZM461.216 112.125C460.282 112.125 459.605 111.707 459.605 110.892C459.605 109.997 460.421 109.719 461.336 109.599C461.833 109.54 463.165 109.401 463.364 109.162V110.236C463.364 111.19 462.608 112.125 461.216 112.125ZM469.697 113.159C471.387 113.159 472.501 112.125 472.7 110.773H471.527C471.308 111.608 470.612 112.105 469.697 112.105C468.305 112.105 467.41 110.952 467.41 109.182C467.41 107.452 468.325 106.318 469.697 106.318C470.731 106.318 471.348 106.955 471.527 107.651H472.7C472.501 106.219 471.288 105.264 469.677 105.264C467.609 105.264 466.237 106.895 466.237 109.222C466.237 111.509 467.549 113.159 469.697 113.159ZM477.652 105.364H476.021V103.534H474.848V105.364H473.695V106.358H474.848V111.131C474.848 112.463 475.922 113.099 476.916 113.099C477.354 113.099 477.632 113.02 477.791 112.96L477.553 111.906C477.453 111.926 477.294 111.966 477.036 111.966C476.519 111.966 476.021 111.807 476.021 110.812V106.358H477.652V105.364ZM484.917 113H486.07L487.74 107.134H487.86L489.53 113H490.684L493.01 105.364H491.777L490.127 111.19H490.047L488.436 105.364H487.184L485.553 111.21H485.473L483.823 105.364H482.59L484.917 113ZM494.477 113H495.651V105.364H494.477V113ZM495.074 104.091C495.531 104.091 495.909 103.733 495.909 103.295C495.909 102.858 495.531 102.5 495.074 102.5C494.617 102.5 494.239 102.858 494.239 103.295C494.239 103.733 494.617 104.091 495.074 104.091ZM501.037 105.364H499.406V103.534H498.233V105.364H497.079V106.358H498.233V111.131C498.233 112.463 499.307 113.099 500.301 113.099C500.738 113.099 501.017 113.02 501.176 112.96L500.937 111.906C500.838 111.926 500.679 111.966 500.42 111.966C499.903 111.966 499.406 111.807 499.406 110.812V106.358H501.037V105.364ZM504.055 108.406C504.055 107.074 504.905 106.318 506.064 106.318C507.167 106.318 507.833 107.014 507.833 108.227V113H509.007V108.148C509.007 106.184 507.963 105.264 506.402 105.264C505.198 105.264 504.512 105.766 504.154 106.557H504.055V102.818H502.882V113H504.055V108.406ZM515.499 102.818H514.207L517.945 113H519.218L522.957 102.818H521.664L518.641 111.389H518.522L515.499 102.818ZM526.79 113.159C528.342 113.159 529.475 112.384 529.833 111.23L528.7 110.912C528.401 111.707 527.71 112.105 526.79 112.105C525.413 112.105 524.464 111.215 524.409 109.58H529.952V109.082C529.952 106.239 528.262 105.264 526.671 105.264C524.603 105.264 523.231 106.895 523.231 109.241C523.231 111.588 524.583 113.159 526.79 113.159ZM524.409 108.565C524.489 107.377 525.329 106.318 526.671 106.318C527.944 106.318 528.759 107.273 528.759 108.565H524.409ZM531.653 113H532.826V108.168C532.826 107.134 533.642 106.378 534.755 106.378C535.069 106.378 535.392 106.438 535.471 106.457V105.264C535.337 105.254 535.029 105.244 534.855 105.244C533.94 105.244 533.145 105.761 532.866 106.517H532.787V105.364H531.653V113ZM536.778 113H537.951V105.364H536.778V113ZM537.375 104.091C537.832 104.091 538.21 103.733 538.21 103.295C538.21 102.858 537.832 102.5 537.375 102.5C536.917 102.5 536.54 102.858 536.54 103.295C536.54 103.733 536.917 104.091 537.375 104.091ZM543.417 105.364H541.707V104.588C541.707 103.832 542.025 103.435 542.8 103.435C543.139 103.435 543.337 103.514 543.457 103.554L543.795 102.54C543.616 102.46 543.258 102.341 542.681 102.341C541.587 102.341 540.533 102.997 540.533 104.31V105.364H539.3V106.358H540.533V113H541.707V106.358H543.417V105.364ZM544.977 113H546.151V105.364H544.977V113ZM545.574 104.091C546.031 104.091 546.409 103.733 546.409 103.295C546.409 102.858 546.031 102.5 545.574 102.5C545.117 102.5 544.739 102.858 544.739 103.295C544.739 103.733 545.117 104.091 545.574 104.091ZM551.417 113.159C552.968 113.159 554.102 112.384 554.46 111.23L553.326 110.912C553.028 111.707 552.337 112.105 551.417 112.105C550.04 112.105 549.091 111.215 549.036 109.58H554.579V109.082C554.579 106.239 552.889 105.264 551.298 105.264C549.23 105.264 547.858 106.895 547.858 109.241C547.858 111.588 549.21 113.159 551.417 113.159ZM549.036 108.565C549.115 107.377 549.956 106.318 551.298 106.318C552.571 106.318 553.386 107.273 553.386 108.565H549.036ZM559.164 113.159C560.635 113.159 561.132 112.244 561.391 111.827H561.53V113H562.664V102.818H561.49V106.577H561.391C561.132 106.179 560.675 105.264 559.183 105.264C557.254 105.264 555.922 106.795 555.922 109.202C555.922 111.628 557.254 113.159 559.164 113.159ZM559.323 112.105C557.851 112.105 557.095 110.812 557.095 109.182C557.095 107.571 557.831 106.318 559.323 106.318C560.754 106.318 561.51 107.472 561.51 109.182C561.51 110.912 560.735 112.105 559.323 112.105ZM574.472 105.364H575.665C575.611 103.827 574.194 102.679 572.225 102.679C570.276 102.679 568.745 103.812 568.745 105.523C568.745 106.895 569.739 107.71 571.33 108.168L572.583 108.526C573.657 108.824 574.611 109.202 574.611 110.216C574.611 111.33 573.537 112.065 572.126 112.065C570.912 112.065 569.839 111.528 569.739 110.375H568.466C568.586 112.045 569.938 113.179 572.126 113.179C574.472 113.179 575.805 111.886 575.805 110.236C575.805 108.327 573.995 107.71 572.941 107.432L571.907 107.153C571.151 106.955 569.938 106.557 569.938 105.463C569.938 104.489 570.833 103.773 572.185 103.773C573.418 103.773 574.353 104.359 574.472 105.364ZM577.589 113H578.762V105.364H577.589V113ZM578.185 104.091C578.643 104.091 579.02 103.733 579.02 103.295C579.02 102.858 578.643 102.5 578.185 102.5C577.728 102.5 577.35 102.858 577.35 103.295C577.35 103.733 577.728 104.091 578.185 104.091ZM583.909 116.023C585.739 116.023 587.21 115.188 587.21 113.219V105.364H586.077V106.577H585.958C585.699 106.179 585.222 105.264 583.73 105.264C581.801 105.264 580.469 106.795 580.469 109.142C580.469 111.528 581.861 112.881 583.71 112.881C585.202 112.881 585.679 112.006 585.938 111.588H586.037V113.139C586.037 114.412 585.142 114.989 583.909 114.989C582.522 114.989 582.035 114.258 581.722 113.835L580.787 114.491C581.264 115.292 582.204 116.023 583.909 116.023ZM583.869 111.827C582.398 111.827 581.642 110.713 581.642 109.122C581.642 107.571 582.378 106.318 583.869 106.318C585.301 106.318 586.057 107.472 586.057 109.122C586.057 110.812 585.281 111.827 583.869 111.827ZM590.447 108.406C590.447 107.074 591.273 106.318 592.396 106.318C593.485 106.318 594.146 107.029 594.146 108.227V113H595.32V108.148C595.32 106.199 594.28 105.264 592.734 105.264C591.581 105.264 590.865 105.781 590.507 106.557H590.408V105.364H589.274V113H590.447V108.406ZM599.627 113.179C600.959 113.179 601.655 112.463 601.894 111.966H601.953V113H603.127V107.969C603.127 105.543 601.277 105.264 600.303 105.264C599.149 105.264 597.837 105.662 597.24 107.054L598.354 107.452C598.613 106.895 599.224 106.298 600.343 106.298C601.421 106.298 601.953 106.87 601.953 107.849V107.889C601.953 108.456 601.377 108.406 599.985 108.585C598.568 108.769 597.022 109.082 597.022 110.832C597.022 112.324 598.175 113.179 599.627 113.179ZM599.806 112.125C598.871 112.125 598.195 111.707 598.195 110.892C598.195 109.997 599.01 109.719 599.925 109.599C600.422 109.54 601.755 109.401 601.953 109.162V110.236C601.953 111.19 601.198 112.125 599.806 112.125ZM608.505 105.364H606.875V103.534H605.701V105.364H604.548V106.358H605.701V111.131C605.701 112.463 606.775 113.099 607.769 113.099C608.207 113.099 608.485 113.02 608.644 112.96L608.406 111.906C608.306 111.926 608.147 111.966 607.889 111.966C607.372 111.966 606.875 111.807 606.875 110.812V106.358H608.505V105.364ZM614.999 109.878C614.999 111.31 613.905 111.966 613.03 111.966C612.055 111.966 611.359 111.25 611.359 110.136V105.364H610.186V110.216C610.186 112.165 611.22 113.099 612.652 113.099C613.805 113.099 614.561 112.483 614.919 111.707H614.999V113H616.172V105.364H614.999V109.878ZM618.237 113H619.41V108.168C619.41 107.134 620.226 106.378 621.339 106.378C621.652 106.378 621.976 106.438 622.055 106.457V105.264C621.921 105.254 621.613 105.244 621.439 105.244C620.524 105.244 619.728 105.761 619.45 106.517H619.37V105.364H618.237V113ZM626.331 113.159C627.882 113.159 629.016 112.384 629.374 111.23L628.24 110.912C627.942 111.707 627.251 112.105 626.331 112.105C624.954 112.105 624.004 111.215 623.95 109.58H629.493V109.082C629.493 106.239 627.803 105.264 626.212 105.264C624.144 105.264 622.772 106.895 622.772 109.241C622.772 111.588 624.124 113.159 626.331 113.159ZM623.95 108.565C624.029 107.377 624.87 106.318 626.212 106.318C627.485 106.318 628.3 107.273 628.3 108.565H623.95Z" fill="#282A2E"></path><g clip-path="url(#clip0)"><rect x="8" width="1200" height="64" rx="12" fill="white"></rect><line x1="8" y1="63.5" x2="1208" y2="63.5001" stroke="#E9EBF0"></line><path d="M45.598 39H47.7926V33.8864H50.7756C54.1491 33.8864 55.8182 31.848 55.8182 29.1634C55.8182 26.4858 54.1634 24.4545 50.7827 24.4545H45.598V39ZM47.7926 32.0256V26.3366H50.5483C52.7216 26.3366 53.6094 27.5156 53.6094 29.1634C53.6094 30.8111 52.7216 32.0256 50.5767 32.0256H47.7926ZM64.791 34.4759C64.7981 36.3295 63.4203 37.2102 62.2271 37.2102C60.9132 37.2102 60.0041 36.2585 60.0041 34.7741V28.0909H57.8805V35.0298C57.8805 37.7358 59.3649 39.142 61.4601 39.142C63.1007 39.142 64.2158 38.2756 64.72 37.1108H64.8337V39H66.9217V28.0909H64.791V34.4759ZM69.4351 39H71.5586V32.3381C71.5586 30.9105 72.6595 29.8807 74.1652 29.8807C74.6055 29.8807 75.1027 29.9588 75.2731 30.0085V27.9773C75.0601 27.9489 74.641 27.9276 74.3711 27.9276C73.0927 27.9276 71.999 28.652 71.6012 29.8239H71.4876V28.0909H69.4351V39ZM80.9754 39.2202C83.5535 39.2202 85.2225 37.6719 85.4569 35.5483H83.3902C83.1203 36.7273 82.2041 37.4233 80.9896 37.4233C79.1927 37.4233 78.035 35.9247 78.035 33.5455C78.035 31.2088 79.214 29.7386 80.9896 29.7386C82.339 29.7386 83.1629 30.5909 83.3902 31.6136H85.4569C85.2296 29.4119 83.4328 27.9489 80.9541 27.9489C77.8788 27.9489 75.8902 30.2642 75.8902 33.5952C75.8902 36.8835 77.8078 39.2202 80.9754 39.2202ZM89.5114 32.5227C89.5114 30.7827 90.6123 29.7884 92.1251 29.7884C93.5882 29.7884 94.4617 30.7188 94.4617 32.3168V39H96.5853V32.0611C96.5853 29.3409 95.0938 27.9489 92.8495 27.9489C91.1521 27.9489 90.1293 28.6875 89.618 29.8665H89.483V24.4545H87.3879V39H89.5114V32.5227ZM102.254 39.2415C104.058 39.2415 105.073 38.3253 105.478 37.5085H105.563V39H107.637V31.7557C107.637 28.581 105.137 27.9489 103.404 27.9489C101.43 27.9489 99.6118 28.7443 98.9016 30.733L100.897 31.1875C101.21 30.4134 102.005 29.6676 103.433 29.6676C104.804 29.6676 105.507 30.3849 105.507 31.6207V31.6705C105.507 32.4446 104.711 32.4304 102.751 32.6577C100.684 32.8991 98.5678 33.4389 98.5678 35.9176C98.5678 38.0625 100.18 39.2415 102.254 39.2415ZM102.715 37.5369C101.515 37.5369 100.649 36.9972 100.649 35.946C100.649 34.8097 101.657 34.4048 102.886 34.2415C103.575 34.1491 105.208 33.9645 105.514 33.6591V35.0653C105.514 36.358 104.484 37.5369 102.715 37.5369ZM118.301 30.7543C117.86 29.0568 116.532 27.9489 114.174 27.9489C111.71 27.9489 109.962 29.2486 109.962 31.1804C109.962 32.7287 110.9 33.7585 112.945 34.2131L114.792 34.6179C115.843 34.8523 116.333 35.321 116.333 36.0028C116.333 36.848 115.431 37.5085 114.039 37.5085C112.768 37.5085 111.951 36.9616 111.695 35.8892L109.643 36.2017C109.998 38.1335 111.603 39.2202 114.053 39.2202C116.688 39.2202 118.514 37.821 118.514 35.8466C118.514 34.3054 117.534 33.3537 115.531 32.892L113.798 32.4943C112.597 32.2102 112.079 31.8054 112.086 31.0668C112.079 30.2287 112.988 29.6321 114.195 29.6321C115.516 29.6321 116.127 30.3636 116.376 31.0952L118.301 30.7543ZM120.508 39H122.632V28.0909H120.508V39ZM121.581 26.4077C122.312 26.4077 122.923 25.8395 122.923 25.1435C122.923 24.4474 122.312 23.8722 121.581 23.8722C120.842 23.8722 120.239 24.4474 120.239 25.1435C120.239 25.8395 120.842 26.4077 121.581 26.4077ZM127.273 32.5227C127.273 30.7827 128.338 29.7884 129.815 29.7884C131.257 29.7884 132.13 30.733 132.13 32.3168V39H134.254V32.0611C134.254 29.3622 132.77 27.9489 130.54 27.9489C128.899 27.9489 127.827 28.7088 127.322 29.8665H127.187V28.0909H125.149V39H127.273V32.5227ZM141.336 43.3182C144.113 43.3182 146.258 42.0469 146.258 39.2415V28.0909H144.177V29.8594H144.021C143.644 29.1847 142.891 27.9489 140.86 27.9489C138.225 27.9489 136.286 30.0298 136.286 33.5028C136.286 36.983 138.268 38.8366 140.846 38.8366C142.849 38.8366 143.623 37.7074 144.006 37.0114H144.141V39.1562C144.141 40.8679 142.969 41.6065 141.357 41.6065C139.589 41.6065 138.9 40.7188 138.523 40.0938L136.698 40.8466C137.273 42.1818 138.729 43.3182 141.336 43.3182ZM141.315 37.0753C139.418 37.0753 138.431 35.6193 138.431 33.4744C138.431 31.3793 139.397 29.7528 141.315 29.7528C143.168 29.7528 144.163 31.2656 144.163 33.4744C144.163 35.7259 143.147 37.0753 141.315 37.0753Z" fill="#8E949E"></path><path d="M161.307 26.3409H159.979L156.698 38.5312H158.026L161.307 26.3409Z" fill="#8E949E"></path><path d="M183 30.9842L182.5 31.0123V28.5079C182.5 26.022 180.482 24 178 24C175.518 24 173.5 26.022 173.5 28.5079V31.0123L173 30.9842C171.895 30.9842 171 31.881 171 32.9877V37.9965C171 39.1028 171.895 40 173 40H183C184.105 40 185 39.1028 185 37.9965V32.9877C185 31.9108 184.103 30.9842 183 30.9842ZM179 35.993C179 36.5461 178.552 36.9947 178 36.9947C177.448 36.9947 177 36.5461 177 35.993V34.9912C177 34.438 177.448 33.9894 178 33.9894C178.552 33.9894 179 34.438 179 34.9912V35.993ZM180.5 31.0123H175.5V28.5079C175.5 27.1267 176.622 26.0035 178 26.0035C179.378 26.0035 180.5 27.1267 180.5 28.5079V31.0123Z" fill="#48A348"></path><path d="M195.598 39H201.173C204.554 39 206.081 37.3168 206.081 35.0866C206.081 32.8352 204.504 31.5639 203.062 31.4858V31.3438C204.398 31.0028 205.513 30.0938 205.513 28.2756C205.513 26.1236 204.021 24.4545 200.925 24.4545H195.598V39ZM197.793 37.1179V32.4588H201.038C202.8 32.4588 203.901 33.5952 203.901 34.9801C203.901 36.2017 203.07 37.1179 200.96 37.1179H197.793ZM197.793 30.7472V26.3224H200.79C202.53 26.3224 203.361 27.2386 203.361 28.446C203.361 29.8523 202.21 30.7472 200.733 30.7472H197.793ZM215.084 34.4759C215.091 36.3295 213.713 37.2102 212.52 37.2102C211.206 37.2102 210.297 36.2585 210.297 34.7741V28.0909H208.173V35.0298C208.173 37.7358 209.658 39.142 211.753 39.142C213.394 39.142 214.509 38.2756 215.013 37.1108H215.127V39H217.215V28.0909H215.084V34.4759ZM223.812 39.2131C225.8 39.2131 226.582 37.9986 226.965 37.3026H227.143V39H229.217V24.4545H227.093V29.8594H226.965C226.582 29.1847 225.857 27.9489 223.826 27.9489C221.191 27.9489 219.252 30.0298 219.252 33.5668C219.252 37.0966 221.163 39.2131 223.812 39.2131ZM224.281 37.402C222.384 37.402 221.397 35.733 221.397 33.5455C221.397 31.3793 222.363 29.7528 224.281 29.7528C226.134 29.7528 227.129 31.2656 227.129 33.5455C227.129 35.8395 226.113 37.402 224.281 37.402ZM231.908 39H234.031V32.2741C234.031 30.804 235.061 29.7812 236.268 29.7812C237.447 29.7812 238.264 30.5625 238.264 31.7486V39H240.381V32.0469C240.381 30.733 241.183 29.7812 242.568 29.7812C243.69 29.7812 244.614 30.4062 244.614 31.8835V39H246.737V31.6847C246.737 29.1918 245.345 27.9489 243.371 27.9489C241.801 27.9489 240.622 28.7017 240.096 29.8665H239.983C239.507 28.6733 238.506 27.9489 237.05 27.9489C235.608 27.9489 234.535 28.6662 234.081 29.8665H233.946V28.0909H231.908V39ZM253.839 39.2202C256.914 39.2202 258.924 36.9688 258.924 33.5952C258.924 30.2003 256.914 27.9489 253.839 27.9489C250.763 27.9489 248.753 30.2003 248.753 33.5952C248.753 36.9688 250.763 39.2202 253.839 39.2202ZM253.846 37.4375C251.836 37.4375 250.898 35.6832 250.898 33.5881C250.898 31.5 251.836 29.7244 253.846 29.7244C255.841 29.7244 256.779 31.5 256.779 33.5881C256.779 35.6832 255.841 37.4375 253.846 37.4375ZM266.046 28.0909H263.809V25.4773H261.686V28.0909H260.088V29.7955H261.686V36.2372C261.679 38.2188 263.191 39.1776 264.867 39.142C265.542 39.1349 265.997 39.0071 266.245 38.9148L265.862 37.1605C265.72 37.1889 265.457 37.2528 265.116 37.2528C264.427 37.2528 263.809 37.0256 263.809 35.7969V29.7955H266.046V28.0909ZM276.054 30.7543C275.614 29.0568 274.286 27.9489 271.928 27.9489C269.464 27.9489 267.716 29.2486 267.716 31.1804C267.716 32.7287 268.654 33.7585 270.699 34.2131L272.546 34.6179C273.597 34.8523 274.087 35.321 274.087 36.0028C274.087 36.848 273.185 37.5085 271.793 37.5085C270.522 37.5085 269.705 36.9616 269.449 35.8892L267.397 36.2017C267.752 38.1335 269.357 39.2202 271.807 39.2202C274.442 39.2202 276.268 37.821 276.268 35.8466C276.268 34.3054 275.287 33.3537 273.285 32.892L271.552 32.4943C270.351 32.2102 269.833 31.8054 269.84 31.0668C269.833 30.2287 270.742 29.6321 271.949 29.6321C273.27 29.6321 273.881 30.3636 274.13 31.0952L276.054 30.7543ZM293.23 29.0497H295.481C294.991 26.2159 292.569 24.2557 289.43 24.2557C285.666 24.2557 282.917 27.0895 282.917 31.7344C282.917 36.3366 285.588 39.1989 289.529 39.1989C293.059 39.1989 295.58 36.8835 295.58 33.2116V31.5568H289.863V33.3679H293.457C293.407 35.7116 291.859 37.196 289.529 37.196C286.965 37.196 285.097 35.2571 285.097 31.7202C285.097 28.1974 286.98 26.2585 289.444 26.2585C291.376 26.2585 292.683 27.3239 293.23 29.0497ZM297.856 39H299.979V32.2741C299.979 30.804 301.009 29.7812 302.217 29.7812C303.396 29.7812 304.212 30.5625 304.212 31.7486V39H306.329V32.0469C306.329 30.733 307.131 29.7812 308.516 29.7812C309.639 29.7812 310.562 30.4062 310.562 31.8835V39H312.685V31.6847C312.685 29.1918 311.293 27.9489 309.319 27.9489C307.749 27.9489 306.57 28.7017 306.045 29.8665H305.931C305.455 28.6733 304.454 27.9489 302.998 27.9489C301.556 27.9489 300.484 28.6662 300.029 29.8665H299.894V28.0909H297.856V39ZM315.362 39H317.436V37.3026H317.613C317.997 37.9986 318.778 39.2131 320.767 39.2131C323.409 39.2131 325.327 37.0966 325.327 33.5668C325.327 30.0298 323.381 27.9489 320.746 27.9489C318.721 27.9489 317.99 29.1847 317.613 29.8594H317.486V24.4545H315.362V39ZM317.443 33.5455C317.443 31.2656 318.437 29.7528 320.291 29.7528C322.216 29.7528 323.182 31.3793 323.182 33.5455C323.182 35.733 322.187 37.402 320.291 37.402C318.466 37.402 317.443 35.8395 317.443 33.5455ZM327.542 39H329.736V32.6577H336.988V39H339.189V24.4545H336.988V30.7756H329.736V24.4545H327.542V39ZM347.446 31.7273C347.446 35.2926 348.397 38.2614 350.201 40.7898H352.147C350.748 38.9148 349.647 35.108 349.647 31.7273C349.647 28.3537 350.748 24.5469 352.147 22.6719H350.201C348.397 25.2003 347.446 28.169 347.446 31.7273ZM356.412 24.4545H354.217V39H356.412V24.4545ZM361.221 32.5227C361.221 30.7827 362.286 29.7884 363.763 29.7884C365.205 29.7884 366.079 30.733 366.079 32.3168V39H368.202V32.0611C368.202 29.3622 366.718 27.9489 364.488 27.9489C362.847 27.9489 361.775 28.7088 361.27 29.8665H361.135V28.0909H359.097V39H361.221V32.5227ZM375.803 28.0909H373.565V25.4773H371.442V28.0909H369.844V29.7955H371.442V36.2372C371.435 38.2188 372.947 39.1776 374.624 39.142C375.298 39.1349 375.753 39.0071 376.001 38.9148L375.618 37.1605C375.476 37.1889 375.213 37.2528 374.872 37.2528C374.183 37.2528 373.565 37.0256 373.565 35.7969V29.7955H375.803V28.0909ZM382.396 39.2202C384.775 39.2202 386.459 38.0483 386.942 36.2727L384.932 35.9105C384.548 36.9403 383.625 37.4659 382.417 37.4659C380.599 37.4659 379.378 36.2869 379.321 34.1847H387.077V33.4318C387.077 29.4901 384.719 27.9489 382.247 27.9489C379.207 27.9489 377.204 30.2642 377.204 33.6165C377.204 37.0043 379.179 39.2202 382.396 39.2202ZM379.328 32.5938C379.413 31.0455 380.535 29.7031 382.261 29.7031C383.909 29.7031 384.988 30.9247 384.996 32.5938H379.328ZM389.093 39H391.216V32.3381C391.216 30.9105 392.317 29.8807 393.823 29.8807C394.263 29.8807 394.76 29.9588 394.931 30.0085V27.9773C394.718 27.9489 394.299 27.9276 394.029 27.9276C392.75 27.9276 391.657 28.652 391.259 29.8239H391.145V28.0909H389.093V39ZM398.552 32.5227C398.552 30.7827 399.617 29.7884 401.095 29.7884C402.536 29.7884 403.41 30.733 403.41 32.3168V39H405.534V32.0611C405.534 29.3622 404.049 27.9489 401.819 27.9489C400.178 27.9489 399.106 28.7088 398.602 29.8665H398.467V28.0909H396.428V39H398.552V32.5227ZM411.216 39.2415C413.02 39.2415 414.036 38.3253 414.441 37.5085H414.526V39H416.6V31.7557C416.6 28.581 414.1 27.9489 412.367 27.9489C410.392 27.9489 408.574 28.7443 407.864 30.733L409.86 31.1875C410.172 30.4134 410.968 29.6676 412.395 29.6676C413.766 29.6676 414.469 30.3849 414.469 31.6207V31.6705C414.469 32.4446 413.674 32.4304 411.713 32.6577C409.647 32.8991 407.53 33.4389 407.53 35.9176C407.53 38.0625 409.142 39.2415 411.216 39.2415ZM411.678 37.5369C410.478 37.5369 409.611 36.9972 409.611 35.946C409.611 34.8097 410.62 34.4048 411.848 34.2415C412.537 34.1491 414.171 33.9645 414.476 33.6591V35.0653C414.476 36.358 413.446 37.5369 411.678 37.5369ZM421.212 24.4545H419.088V39H421.212V24.4545ZM433.383 39.2202C435.763 39.2202 437.446 38.0483 437.929 36.2727L435.919 35.9105C435.535 36.9403 434.612 37.4659 433.405 37.4659C431.587 37.4659 430.365 36.2869 430.308 34.1847H438.064V33.4318C438.064 29.4901 435.706 27.9489 433.234 27.9489C430.195 27.9489 428.192 30.2642 428.192 33.6165C428.192 37.0043 430.166 39.2202 433.383 39.2202ZM430.315 32.5938C430.401 31.0455 431.523 29.7031 433.249 29.7031C434.896 29.7031 435.976 30.9247 435.983 32.5938H430.315ZM442.204 24.4545H440.08V39H442.204V24.4545ZM449.422 39.2202C451.801 39.2202 453.485 38.0483 453.968 36.2727L451.958 35.9105C451.574 36.9403 450.651 37.4659 449.444 37.4659C447.625 37.4659 446.404 36.2869 446.347 34.1847H454.103V33.4318C454.103 29.4901 451.745 27.9489 449.273 27.9489C446.233 27.9489 444.23 30.2642 444.23 33.6165C444.23 37.0043 446.205 39.2202 449.422 39.2202ZM446.354 32.5938C446.439 31.0455 447.561 29.7031 449.287 29.7031C450.935 29.7031 452.015 30.9247 452.022 32.5938H446.354ZM460.714 39.2202C463.292 39.2202 464.961 37.6719 465.196 35.5483H463.129C462.859 36.7273 461.943 37.4233 460.728 37.4233C458.931 37.4233 457.774 35.9247 457.774 33.5455C457.774 31.2088 458.953 29.7386 460.728 29.7386C462.078 29.7386 462.901 30.5909 463.129 31.6136H465.196C464.968 29.4119 463.171 27.9489 460.693 27.9489C457.617 27.9489 455.629 30.2642 455.629 33.5952C455.629 36.8835 457.546 39.2202 460.714 39.2202ZM472.219 28.0909H469.982V25.4773H467.858V28.0909H466.26V29.7955H467.858V36.2372C467.851 38.2188 469.364 39.1776 471.04 39.142C471.715 39.1349 472.169 39.0071 472.418 38.9148L472.034 37.1605C471.892 37.1889 471.629 37.2528 471.288 37.2528C470.599 37.2528 469.982 37.0256 469.982 35.7969V29.7955H472.219V28.0909ZM474.228 39H476.351V32.3381C476.351 30.9105 477.452 29.8807 478.958 29.8807C479.398 29.8807 479.895 29.9588 480.066 30.0085V27.9773C479.853 27.9489 479.434 27.9276 479.164 27.9276C477.886 27.9276 476.792 28.652 476.394 29.8239H476.28V28.0909H474.228V39ZM481.564 39H483.687V28.0909H481.564V39ZM482.636 26.4077C483.368 26.4077 483.978 25.8395 483.978 25.1435C483.978 24.4474 483.368 23.8722 482.636 23.8722C481.897 23.8722 481.294 24.4474 481.294 25.1435C481.294 25.8395 481.897 26.4077 482.636 26.4077ZM490.799 39.2202C493.377 39.2202 495.046 37.6719 495.281 35.5483H493.214C492.944 36.7273 492.028 37.4233 490.813 37.4233C489.017 37.4233 487.859 35.9247 487.859 33.5455C487.859 31.2088 489.038 29.7386 490.813 29.7386C492.163 29.7386 492.987 30.5909 493.214 31.6136H495.281C495.054 29.4119 493.257 27.9489 490.778 27.9489C487.703 27.9489 485.714 30.2642 485.714 33.5952C485.714 36.8835 487.632 39.2202 490.799 39.2202ZM500.386 39.2415C502.19 39.2415 503.206 38.3253 503.611 37.5085H503.696V39H505.77V31.7557C505.77 28.581 503.27 27.9489 501.537 27.9489C499.563 27.9489 497.744 28.7443 497.034 30.733L499.03 31.1875C499.342 30.4134 500.138 29.6676 501.565 29.6676C502.936 29.6676 503.639 30.3849 503.639 31.6207V31.6705C503.639 32.4446 502.844 32.4304 500.884 32.6577C498.817 32.8991 496.7 33.4389 496.7 35.9176C496.7 38.0625 498.313 39.2415 500.386 39.2415ZM500.848 37.5369C499.648 37.5369 498.781 36.9972 498.781 35.946C498.781 34.8097 499.79 34.4048 501.019 34.2415C501.708 34.1491 503.341 33.9645 503.646 33.6591V35.0653C503.646 36.358 502.617 37.5369 500.848 37.5369ZM510.382 24.4545H508.258V39H510.382V24.4545ZM519.976 32.5227C519.976 30.7827 521.041 29.7884 522.518 29.7884C523.96 29.7884 524.833 30.733 524.833 32.3168V39H526.957V32.0611C526.957 29.3622 525.473 27.9489 523.243 27.9489C521.602 27.9489 520.529 28.7088 520.025 29.8665H519.89V28.0909H517.852V39H519.976V32.5227ZM534.167 39.2202C536.546 39.2202 538.229 38.0483 538.712 36.2727L536.702 35.9105C536.319 36.9403 535.395 37.4659 534.188 37.4659C532.37 37.4659 531.148 36.2869 531.091 34.1847H538.847V33.4318C538.847 29.4901 536.489 27.9489 534.018 27.9489C530.978 27.9489 528.975 30.2642 528.975 33.6165C528.975 37.0043 530.949 39.2202 534.167 39.2202ZM531.099 32.5938C531.184 31.0455 532.306 29.7031 534.032 29.7031C535.68 29.7031 536.759 30.9247 536.766 32.5938H531.099ZM545.956 28.0909H543.718V25.4773H541.595V28.0909H539.997V29.7955H541.595V36.2372C541.588 38.2188 543.101 39.1776 544.777 39.142C545.451 39.1349 545.906 39.0071 546.155 38.9148L545.771 37.1605C545.629 37.1889 545.366 37.2528 545.025 37.2528C544.336 37.2528 543.718 37.0256 543.718 35.7969V29.7955H545.956V28.0909ZM550.33 39H552.489L554.705 31.1236H554.868L557.084 39H559.25L562.453 28.0909H560.259L558.135 36.0668H558.029L555.898 28.0909H553.703L551.559 36.1023H551.452L549.314 28.0909H547.12L550.33 39ZM568.392 39.2202C571.467 39.2202 573.477 36.9688 573.477 33.5952C573.477 30.2003 571.467 27.9489 568.392 27.9489C565.316 27.9489 563.307 30.2003 563.307 33.5952C563.307 36.9688 565.316 39.2202 568.392 39.2202ZM568.399 37.4375C566.389 37.4375 565.451 35.6832 565.451 33.5881C565.451 31.5 566.389 29.7244 568.399 29.7244C570.395 29.7244 571.332 31.5 571.332 33.5881C571.332 35.6832 570.395 37.4375 568.399 37.4375ZM575.507 39H577.631V32.3381C577.631 30.9105 578.732 29.8807 580.238 29.8807C580.678 29.8807 581.175 29.9588 581.345 30.0085V27.9773C581.132 27.9489 580.713 27.9276 580.443 27.9276C579.165 27.9276 578.071 28.652 577.674 29.8239H577.56V28.0909H575.507V39ZM582.843 39H584.967V35.1293L586.025 34.071L589.732 39H592.339L587.623 32.7713L592.041 28.0909H589.498L585.151 32.7074H584.967V24.4545H582.843V39ZM601.811 30.7543C601.37 29.0568 600.042 27.9489 597.684 27.9489C595.22 27.9489 593.473 29.2486 593.473 31.1804C593.473 32.7287 594.41 33.7585 596.456 34.2131L598.302 34.6179C599.353 34.8523 599.843 35.321 599.843 36.0028C599.843 36.848 598.941 37.5085 597.549 37.5085C596.278 37.5085 595.461 36.9616 595.206 35.8892L593.153 36.2017C593.508 38.1335 595.113 39.2202 597.564 39.2202C600.198 39.2202 602.024 37.821 602.024 35.8466C602.024 34.3054 601.044 33.3537 599.041 32.892L597.308 32.4943C596.108 32.2102 595.589 31.8054 595.596 31.0668C595.589 30.2287 596.498 29.6321 597.706 29.6321C599.027 29.6321 599.637 30.3636 599.886 31.0952L601.811 30.7543ZM608.102 32.9702C608.102 29.4048 607.151 26.4361 605.347 23.9077H603.401C604.8 25.7827 605.901 29.5895 605.901 32.9702C605.901 36.3438 604.8 40.1506 603.401 42.0256H605.347C607.151 39.4972 608.102 36.5284 608.102 32.9702Z" fill="#282A2E"></path></g></g><defs><filter id="filter0_d" x="0" y="0" width="1216" height="444" color-interpolation-filters="sRGB"><feFlood flood-opacity="0" result="BackgroundImageFix"></feFlood><feColorMatrix in="SourceAlpha" type="matrix" values="0 0 0 0 0 0 0 0 0 0 0 0 0 0 0 0 0 0 127 0" result="hardAlpha"></feColorMatrix><feMorphology radius="16" operator="erode" in="SourceAlpha" result="effect1_dropShadow"></feMorphology><feOffset dy="12"></feOffset><feGaussianBlur stdDeviation="12"></feGaussianBlur><feColorMatrix type="matrix" values="0 0 0 0 0 0 0 0 0 0 0 0 0 0 0 0 0 0 0.08 0"></feColorMatrix><feBlend mode="normal" in2="BackgroundImageFix" result="effect1_dropShadow"></feBlend><feBlend mode="normal" in="SourceGraphic" in2="effect1_dropShadow" result="shape"></feBlend></filter><clipPath id="clip0"><rect x="8" width="1200" height="64" rx="12" fill="white"></rect></clipPath></defs></svg> 