<?xml version="1.0" encoding="UTF-8"?> <svg xmlns="http://www.w3.org/2000/svg" width="608" height="296" viewBox="0 0 608 296" fill="none"><g filter="url(#filter0_d)"><path d="M8 12C8 5.3726 13.3726 0 20 0H644C650.627 0 656 5.37258 656 12V452C656 458.627 650.627 464 644 464H20C13.3726 464 8 458.627 8 452V12Z" fill="white"></path><rect width="600" height="24" transform="translate(32 24)" fill="white"></rect><path d="M47.2725 42.2988L43.3457 38.373C44.1955 37.333 44.6644 36.0234 44.6644 34.5938C44.6644 31.2275 41.9353 28.5 38.569 28.5C35.2028 28.5 32.5 31.2284 32.5 34.5938C32.5 37.9591 35.2289 40.6875 38.569 40.6875C39.9988 40.6875 41.3105 40.1921 42.3493 39.368L46.2762 43.2937C46.4403 43.4326 46.622 43.5 46.8007 43.5C46.9795 43.5 47.1606 43.4313 47.298 43.294C47.5714 43.0195 47.5714 42.5742 47.2725 42.2988ZM33.9066 34.5938C33.9066 32.0092 36.0101 29.9062 38.5954 29.9062C41.1807 29.9062 43.2842 32.0092 43.2842 34.5938C43.2842 37.1783 41.1807 39.2812 38.5954 39.2812C36.0101 39.2812 33.9066 37.1777 33.9066 34.5938Z" fill="#8E949E"></path><path d="M58.7841 27.5369H57.7898V44.2812H58.7841V27.5369Z" fill="#282A2E"></path><path d="M69.9222 34C69.5444 31.9119 67.8739 30.679 65.8256 30.679C63.2205 30.679 61.3313 32.6875 61.3313 35.9091C61.3313 39.1307 63.2205 41.1392 65.8256 41.1392C67.8739 41.1392 69.5444 39.9062 69.9222 37.8182H68.6893C68.391 39.2301 67.1779 39.9858 65.8256 39.9858C63.9762 39.9858 62.5245 38.554 62.5245 35.9091C62.5245 33.2642 63.9762 31.8324 65.8256 31.8324C67.1779 31.8324 68.391 32.5881 68.6893 34H69.9222ZM74.7738 41.1591C76.8419 41.1591 78.234 39.5881 78.234 37.2216C78.234 34.8352 76.8419 33.2642 74.7738 33.2642C72.7056 33.2642 71.3135 34.8352 71.3135 37.2216C71.3135 39.5881 72.7056 41.1591 74.7738 41.1591ZM74.7738 40.1051C73.2027 40.1051 72.4868 38.7528 72.4868 37.2216C72.4868 35.6903 73.2027 34.3182 74.7738 34.3182C76.3448 34.3182 77.0607 35.6903 77.0607 37.2216C77.0607 38.7528 76.3448 40.1051 74.7738 40.1051ZM81.1143 36.4062C81.1143 35.0739 81.9396 34.3182 83.0632 34.3182C84.1519 34.3182 84.8132 35.0291 84.8132 36.2273V41H85.9865V36.1477C85.9865 34.1989 84.9474 33.2642 83.4012 33.2642C82.2478 33.2642 81.5319 33.7812 81.174 34.5568H81.0745V33.3636H79.941V41H81.1143V36.4062ZM91.3675 33.3636H89.7368V31.5341H88.5635V33.3636H87.4101V34.358H88.5635V39.1307C88.5635 40.4631 89.6374 41.0994 90.6317 41.0994C91.0692 41.0994 91.3476 41.0199 91.5067 40.9602L91.268 39.9062C91.1686 39.9261 91.0095 39.9659 90.751 39.9659C90.234 39.9659 89.7368 39.8068 89.7368 38.8125V34.358H91.3675V33.3636ZM93.0484 41H94.2217V36.1676C94.2217 35.1335 95.037 34.3778 96.1507 34.3778C96.4639 34.3778 96.787 34.4375 96.8666 34.4574V33.2642C96.7323 33.2543 96.4241 33.2443 96.2501 33.2443C95.3353 33.2443 94.5399 33.7614 94.2615 34.517H94.1819V33.3636H93.0484V41ZM100.421 41.179C101.753 41.179 102.449 40.4631 102.688 39.9659H102.747V41H103.921V35.9688C103.921 33.5426 102.071 33.2642 101.097 33.2642C99.9433 33.2642 98.6308 33.6619 98.0342 35.054L99.1478 35.4517C99.4063 34.8949 100.018 34.2983 101.136 34.2983C102.215 34.2983 102.747 34.87 102.747 35.8494V35.8892C102.747 36.456 102.171 36.4062 100.778 36.5852C99.3616 36.7692 97.8154 37.0824 97.8154 38.8324C97.8154 40.3239 98.9688 41.179 100.421 41.179ZM100.6 40.125C99.6649 40.125 98.9887 39.7074 98.9887 38.892C98.9887 37.9972 99.8041 37.7188 100.719 37.5994C101.216 37.5398 102.548 37.4006 102.747 37.1619V38.2358C102.747 39.1903 101.992 40.125 100.6 40.125ZM109.08 41.1591C110.771 41.1591 111.884 40.125 112.083 38.7727H110.91C110.691 39.608 109.995 40.1051 109.08 40.1051C107.688 40.1051 106.793 38.9517 106.793 37.1818C106.793 35.4517 107.708 34.3182 109.08 34.3182C110.114 34.3182 110.731 34.9545 110.91 35.6506H112.083C111.884 34.2188 110.671 33.2642 109.06 33.2642C106.992 33.2642 105.62 34.8949 105.62 37.2216C105.62 39.5085 106.933 41.1591 109.08 41.1591ZM117.035 33.3636H115.405V31.5341H114.231V33.3636H113.078V34.358H114.231V39.1307C114.231 40.4631 115.305 41.0994 116.3 41.0994C116.737 41.0994 117.015 41.0199 117.175 40.9602L116.936 39.9062C116.837 39.9261 116.677 39.9659 116.419 39.9659C115.902 39.9659 115.405 39.8068 115.405 38.8125V34.358H117.035V33.3636ZM123.743 36.4062C123.743 35.0739 124.568 34.3182 125.692 34.3182C126.781 34.3182 127.442 35.0291 127.442 36.2273V41H128.615V36.1477C128.615 34.1989 127.576 33.2642 126.03 33.2642C124.877 33.2642 124.161 33.7812 123.803 34.5568H123.703V33.3636H122.57V41H123.743V36.4062ZM132.922 41.179C134.255 41.179 134.951 40.4631 135.189 39.9659H135.249V41H136.422V35.9688C136.422 33.5426 134.573 33.2642 133.599 33.2642C132.445 33.2642 131.133 33.6619 130.536 35.054L131.65 35.4517C131.908 34.8949 132.52 34.2983 133.638 34.2983C134.717 34.2983 135.249 34.87 135.249 35.8494V35.8892C135.249 36.456 134.672 36.4062 133.28 36.5852C131.863 36.7692 130.317 37.0824 130.317 38.8324C130.317 40.3239 131.471 41.179 132.922 41.179ZM133.101 40.125C132.167 40.125 131.491 39.7074 131.491 38.892C131.491 37.9972 132.306 37.7188 133.221 37.5994C133.718 37.5398 135.05 37.4006 135.249 37.1619V38.2358C135.249 39.1903 134.493 40.125 133.101 40.125ZM138.48 41H139.653V36.2273C139.653 35.1087 140.469 34.3182 141.383 34.3182C142.273 34.3182 142.895 34.8999 142.895 35.7699V41H144.088V36.0284C144.088 35.044 144.704 34.3182 145.778 34.3182C146.613 34.3182 147.329 34.7607 147.329 35.8892V41H148.503V35.8892C148.503 34.0945 147.538 33.2642 146.176 33.2642C145.082 33.2642 144.282 33.7663 143.889 34.5568H143.809C143.432 33.7415 142.765 33.2642 141.761 33.2642C140.767 33.2642 140.031 33.7415 139.713 34.5568H139.613V33.3636H138.48V41ZM153.766 41.1591C155.317 41.1591 156.45 40.3835 156.808 39.2301L155.675 38.9119C155.376 39.7074 154.685 40.1051 153.766 40.1051C152.388 40.1051 151.439 39.2152 151.384 37.5795H156.928V37.0824C156.928 34.2386 155.237 33.2642 153.646 33.2642C151.578 33.2642 150.206 34.8949 150.206 37.2415C150.206 39.5881 151.558 41.1591 153.766 41.1591ZM151.384 36.5653C151.464 35.3771 152.304 34.3182 153.646 34.3182C154.919 34.3182 155.734 35.2727 155.734 36.5653H151.384ZM160.378 39.608H159.106L159.046 40.1648C158.902 41.5121 158.618 42.8544 158.489 43.4858H159.384C159.623 42.8097 160.13 41.2784 160.299 40.1449L160.378 39.608ZM169.205 41.1591C170.677 41.1591 171.174 40.2443 171.432 39.8267H171.572V41H172.705V30.8182H171.532V34.5767H171.432C171.174 34.179 170.717 33.2642 169.225 33.2642C167.296 33.2642 165.964 34.7955 165.964 37.2017C165.964 39.6278 167.296 41.1591 169.205 41.1591ZM169.364 40.1051C167.893 40.1051 167.137 38.8125 167.137 37.1818C167.137 35.571 167.873 34.3182 169.364 34.3182C170.796 34.3182 171.552 35.4716 171.552 37.1818C171.552 38.9119 170.776 40.1051 169.364 40.1051ZM178.135 41.1591C179.686 41.1591 180.819 40.3835 181.177 39.2301L180.044 38.9119C179.745 39.7074 179.054 40.1051 178.135 40.1051C176.758 40.1051 175.808 39.2152 175.753 37.5795H181.297V37.0824C181.297 34.2386 179.606 33.2642 178.015 33.2642C175.947 33.2642 174.575 34.8949 174.575 37.2415C174.575 39.5881 175.927 41.1591 178.135 41.1591ZM175.753 36.5653C175.833 35.3771 176.673 34.3182 178.015 34.3182C179.288 34.3182 180.103 35.2727 180.103 36.5653H175.753ZM188.407 35.0739C188.039 33.9901 187.213 33.2642 185.702 33.2642C184.091 33.2642 182.898 34.179 182.898 35.4716C182.898 36.5256 183.524 37.2315 184.926 37.5597L186.199 37.858C186.97 38.0369 187.333 38.4048 187.333 38.9318C187.333 39.5881 186.637 40.125 185.543 40.125C184.583 40.125 183.982 39.7124 183.773 38.892L182.659 39.1705C182.933 40.468 184.002 41.1591 185.563 41.1591C187.338 41.1591 188.546 40.1896 188.546 38.8722C188.546 37.8082 187.88 37.1371 186.517 36.804L185.384 36.5256C184.479 36.3018 184.071 35.9986 184.071 35.4119C184.071 34.7557 184.767 34.2784 185.702 34.2784C186.726 34.2784 187.149 34.8452 187.353 35.3722L188.407 35.0739ZM193.33 41.1591C195.02 41.1591 196.134 40.125 196.333 38.7727H195.16C194.941 39.608 194.245 40.1051 193.33 40.1051C191.938 40.1051 191.043 38.9517 191.043 37.1818C191.043 35.4517 191.958 34.3182 193.33 34.3182C194.364 34.3182 194.981 34.9545 195.16 35.6506H196.333C196.134 34.2188 194.921 33.2642 193.31 33.2642C191.242 33.2642 189.87 34.8949 189.87 37.2216C189.87 39.5085 191.182 41.1591 193.33 41.1591ZM197.964 41H199.137V36.1676C199.137 35.1335 199.953 34.3778 201.066 34.3778C201.38 34.3778 201.703 34.4375 201.782 34.4574V33.2642C201.648 33.2543 201.34 33.2443 201.166 33.2443C200.251 33.2443 199.456 33.7614 199.177 34.517H199.098V33.3636H197.964V41ZM203.089 41H204.262V33.3636H203.089V41ZM203.686 32.0909C204.143 32.0909 204.521 31.733 204.521 31.2955C204.521 30.858 204.143 30.5 203.686 30.5C203.228 30.5 202.851 30.858 202.851 31.2955C202.851 31.733 203.228 32.0909 203.686 32.0909ZM206.327 43.8636H207.501V39.8267H207.6C207.859 40.2443 208.356 41.1591 209.827 41.1591C211.737 41.1591 213.069 39.6278 213.069 37.2017C213.069 34.7955 211.737 33.2642 209.808 33.2642C208.316 33.2642 207.859 34.179 207.6 34.5767H207.461V33.3636H206.327V43.8636ZM207.481 37.1818C207.481 35.4716 208.237 34.3182 209.668 34.3182C211.16 34.3182 211.896 35.571 211.896 37.1818C211.896 38.8125 211.14 40.1051 209.668 40.1051C208.256 40.1051 207.481 38.9119 207.481 37.1818ZM218.096 33.3636H216.465V31.5341H215.292V33.3636H214.138V34.358H215.292V39.1307C215.292 40.4631 216.366 41.0994 217.36 41.0994C217.797 41.0994 218.076 41.0199 218.235 40.9602L217.996 39.9062C217.897 39.9261 217.738 39.9659 217.479 39.9659C216.962 39.9659 216.465 39.8068 216.465 38.8125V34.358H218.096V33.3636ZM219.777 41H220.95V33.3636H219.777V41ZM220.373 32.0909C220.831 32.0909 221.208 31.733 221.208 31.2955C221.208 30.858 220.831 30.5 220.373 30.5C219.916 30.5 219.538 30.858 219.538 31.2955C219.538 31.733 219.916 32.0909 220.373 32.0909ZM226.117 41.1591C228.185 41.1591 229.577 39.5881 229.577 37.2216C229.577 34.8352 228.185 33.2642 226.117 33.2642C224.049 33.2642 222.657 34.8352 222.657 37.2216C222.657 39.5881 224.049 41.1591 226.117 41.1591ZM226.117 40.1051C224.546 40.1051 223.83 38.7528 223.83 37.2216C223.83 35.6903 224.546 34.3182 226.117 34.3182C227.688 34.3182 228.404 35.6903 228.404 37.2216C228.404 38.7528 227.688 40.1051 226.117 40.1051ZM232.458 36.4062C232.458 35.0739 233.283 34.3182 234.407 34.3182C235.495 34.3182 236.157 35.0291 236.157 36.2273V41H237.33V36.1477C237.33 34.1989 236.291 33.2642 234.745 33.2642C233.591 33.2642 232.875 33.7812 232.517 34.5568H232.418V33.3636H231.284V41H232.458V36.4062ZM241.14 39.608H239.867L239.807 40.1648C239.663 41.5121 239.38 42.8544 239.251 43.4858H240.146C240.384 42.8097 240.891 41.2784 241.06 40.1449L241.14 39.608ZM249.967 41.1591C251.438 41.1591 251.935 40.2443 252.194 39.8267H252.333V41H253.467V30.8182H252.293V34.5767H252.194C251.935 34.179 251.478 33.2642 249.987 33.2642C248.058 33.2642 246.725 34.7955 246.725 37.2017C246.725 39.6278 248.058 41.1591 249.967 41.1591ZM250.126 40.1051C248.654 40.1051 247.899 38.8125 247.899 37.1818C247.899 35.571 248.634 34.3182 250.126 34.3182C251.558 34.3182 252.313 35.4716 252.313 37.1818C252.313 38.9119 251.538 40.1051 250.126 40.1051ZM257.942 41.179C259.274 41.179 259.97 40.4631 260.209 39.9659H260.268V41H261.442V35.9688C261.442 33.5426 259.592 33.2642 258.618 33.2642C257.464 33.2642 256.152 33.6619 255.555 35.054L256.669 35.4517C256.927 34.8949 257.539 34.2983 258.658 34.2983C259.736 34.2983 260.268 34.87 260.268 35.8494V35.8892C260.268 36.456 259.692 36.4062 258.3 36.5852C256.883 36.7692 255.337 37.0824 255.337 38.8324C255.337 40.3239 256.49 41.179 257.942 41.179ZM258.121 40.125C257.186 40.125 256.51 39.7074 256.51 38.892C256.51 37.9972 257.325 37.7188 258.24 37.5994C258.737 37.5398 260.069 37.4006 260.268 37.1619V38.2358C260.268 39.1903 259.513 40.125 258.121 40.125ZM266.82 33.3636H265.189V31.5341H264.016V33.3636H262.863V34.358H264.016V39.1307C264.016 40.4631 265.09 41.0994 266.084 41.0994C266.522 41.0994 266.8 41.0199 266.959 40.9602L266.721 39.9062C266.621 39.9261 266.462 39.9659 266.204 39.9659C265.687 39.9659 265.189 39.8068 265.189 38.8125V34.358H266.82V33.3636ZM271.621 41.1591C273.172 41.1591 274.305 40.3835 274.663 39.2301L273.53 38.9119C273.232 39.7074 272.541 40.1051 271.621 40.1051C270.244 40.1051 269.294 39.2152 269.239 37.5795H274.783V37.0824C274.783 34.2386 273.092 33.2642 271.501 33.2642C269.433 33.2642 268.061 34.8949 268.061 37.2415C268.061 39.5881 269.413 41.1591 271.621 41.1591ZM269.239 36.5653C269.319 35.3771 270.159 34.3182 271.501 34.3182C272.774 34.3182 273.59 35.2727 273.59 36.5653H269.239ZM281.893 35.0739C281.525 33.9901 280.699 33.2642 279.188 33.2642C277.577 33.2642 276.384 34.179 276.384 35.4716C276.384 36.5256 277.01 37.2315 278.412 37.5597L279.685 37.858C280.456 38.0369 280.819 38.4048 280.819 38.9318C280.819 39.5881 280.123 40.125 279.029 40.125C278.069 40.125 277.468 39.7124 277.259 38.892L276.145 39.1705C276.419 40.468 277.488 41.1591 279.049 41.1591C280.824 41.1591 282.032 40.1896 282.032 38.8722C282.032 37.8082 281.366 37.1371 280.003 36.804L278.87 36.5256C277.965 36.3018 277.557 35.9986 277.557 35.4119C277.557 34.7557 278.253 34.2784 279.188 34.2784C280.212 34.2784 280.635 34.8452 280.839 35.3722L281.893 35.0739ZM285.464 39.608H284.191L284.132 40.1648C283.987 41.5121 283.704 42.8544 283.575 43.4858H284.47C284.708 42.8097 285.215 41.2784 285.384 40.1449L285.464 39.608ZM291.407 43.8636H292.581V39.8267H292.68C292.939 40.2443 293.436 41.1591 294.907 41.1591C296.816 41.1591 298.149 39.6278 298.149 37.2017C298.149 34.7955 296.816 33.2642 294.887 33.2642C293.396 33.2642 292.939 34.179 292.68 34.5767H292.541V33.3636H291.407V43.8636ZM292.561 37.1818C292.561 35.4716 293.316 34.3182 294.748 34.3182C296.24 34.3182 296.975 35.571 296.975 37.1818C296.975 38.8125 296.22 40.1051 294.748 40.1051C293.336 40.1051 292.561 38.9119 292.561 37.1818ZM303.056 41.1591C304.607 41.1591 305.741 40.3835 306.099 39.2301L304.965 38.9119C304.667 39.7074 303.976 40.1051 303.056 40.1051C301.679 40.1051 300.73 39.2152 300.675 37.5795H306.218V37.0824C306.218 34.2386 304.528 33.2642 302.937 33.2642C300.869 33.2642 299.497 34.8949 299.497 37.2415C299.497 39.5881 300.849 41.1591 303.056 41.1591ZM300.675 36.5653C300.754 35.3771 301.595 34.3182 302.937 34.3182C304.21 34.3182 305.025 35.2727 305.025 36.5653H300.675ZM311.021 41.1591C313.089 41.1591 314.481 39.5881 314.481 37.2216C314.481 34.8352 313.089 33.2642 311.021 33.2642C308.953 33.2642 307.561 34.8352 307.561 37.2216C307.561 39.5881 308.953 41.1591 311.021 41.1591ZM311.021 40.1051C309.45 40.1051 308.734 38.7528 308.734 37.2216C308.734 35.6903 309.45 34.3182 311.021 34.3182C312.592 34.3182 313.308 35.6903 313.308 37.2216C313.308 38.7528 312.592 40.1051 311.021 40.1051ZM316.188 43.8636H317.362V39.8267H317.461C317.72 40.2443 318.217 41.1591 319.688 41.1591C321.598 41.1591 322.93 39.6278 322.93 37.2017C322.93 34.7955 321.598 33.2642 319.669 33.2642C318.177 33.2642 317.72 34.179 317.461 34.5767H317.322V33.3636H316.188V43.8636ZM317.342 37.1818C317.342 35.4716 318.098 34.3182 319.529 34.3182C321.021 34.3182 321.757 35.571 321.757 37.1818C321.757 38.8125 321.001 40.1051 319.529 40.1051C318.117 40.1051 317.342 38.9119 317.342 37.1818ZM325.809 30.8182H324.636V41H325.809V30.8182ZM331.076 41.1591C332.627 41.1591 333.76 40.3835 334.118 39.2301L332.985 38.9119C332.687 39.7074 331.995 40.1051 331.076 40.1051C329.699 40.1051 328.749 39.2152 328.694 37.5795H334.238V37.0824C334.238 34.2386 332.547 33.2642 330.956 33.2642C328.888 33.2642 327.516 34.8949 327.516 37.2415C327.516 39.5881 328.868 41.1591 331.076 41.1591ZM328.694 36.5653C328.774 35.3771 329.614 34.3182 330.956 34.3182C332.229 34.3182 333.044 35.2727 333.044 36.5653H328.694ZM337.688 39.608H336.416L336.356 40.1648C336.212 41.5121 335.928 42.8544 335.799 43.4858H336.694C336.933 42.8097 337.44 41.2784 337.609 40.1449L337.688 39.608ZM344.805 30.8182H343.632V41H344.805V30.8182ZM349.117 41.179C350.45 41.179 351.146 40.4631 351.384 39.9659H351.444V41H352.617V35.9688C352.617 33.5426 350.768 33.2642 349.793 33.2642C348.64 33.2642 347.327 33.6619 346.731 35.054L347.844 35.4517C348.103 34.8949 348.714 34.2983 349.833 34.2983C350.912 34.2983 351.444 34.87 351.444 35.8494V35.8892C351.444 36.456 350.867 36.4062 349.475 36.5852C348.058 36.7692 346.512 37.0824 346.512 38.8324C346.512 40.3239 347.665 41.179 349.117 41.179ZM349.296 40.125C348.362 40.125 347.685 39.7074 347.685 38.892C347.685 37.9972 348.501 37.7188 349.415 37.5994C349.913 37.5398 351.245 37.4006 351.444 37.1619V38.2358C351.444 39.1903 350.688 40.125 349.296 40.125ZM354.834 41H355.967V39.8267H356.107C356.365 40.2443 356.862 41.1591 358.334 41.1591C360.243 41.1591 361.575 39.6278 361.575 37.2017C361.575 34.7955 360.243 33.2642 358.314 33.2642C356.822 33.2642 356.365 34.179 356.107 34.5767H356.007V30.8182H354.834V41ZM355.987 37.1818C355.987 35.4716 356.743 34.3182 358.175 34.3182C359.666 34.3182 360.402 35.571 360.402 37.1818C360.402 38.8125 359.646 40.1051 358.175 40.1051C356.763 40.1051 355.987 38.9119 355.987 37.1818ZM366.488 41.1591C368.039 41.1591 369.172 40.3835 369.53 39.2301L368.397 38.9119C368.099 39.7074 367.407 40.1051 366.488 40.1051C365.111 40.1051 364.161 39.2152 364.106 37.5795H369.65V37.0824C369.65 34.2386 367.959 33.2642 366.368 33.2642C364.3 33.2642 362.928 34.8949 362.928 37.2415C362.928 39.5881 364.28 41.1591 366.488 41.1591ZM364.106 36.5653C364.186 35.3771 365.026 34.3182 366.368 34.3182C367.641 34.3182 368.456 35.2727 368.456 36.5653H364.106ZM372.524 30.8182H371.35V41H372.524V30.8182ZM379.998 35.0739C379.63 33.9901 378.805 33.2642 377.293 33.2642C375.682 33.2642 374.489 34.179 374.489 35.4716C374.489 36.5256 375.116 37.2315 376.518 37.5597L377.79 37.858C378.561 38.0369 378.924 38.4048 378.924 38.9318C378.924 39.5881 378.228 40.125 377.134 40.125C376.175 40.125 375.573 39.7124 375.364 38.892L374.251 39.1705C374.524 40.468 375.593 41.1591 377.154 41.1591C378.929 41.1591 380.137 40.1896 380.137 38.8722C380.137 37.8082 379.471 37.1371 378.109 36.804L376.975 36.5256C376.07 36.3018 375.663 35.9986 375.663 35.4119C375.663 34.7557 376.359 34.2784 377.293 34.2784C378.317 34.2784 378.74 34.8452 378.944 35.3722L379.998 35.0739ZM382.674 41.0795C383.166 41.0795 383.569 40.6768 383.569 40.1847C383.569 39.6925 383.166 39.2898 382.674 39.2898C382.182 39.2898 381.779 39.6925 381.779 40.1847C381.779 40.6768 382.182 41.0795 382.674 41.0795ZM386.492 41.0795C386.985 41.0795 387.387 40.6768 387.387 40.1847C387.387 39.6925 386.985 39.2898 386.492 39.2898C386 39.2898 385.598 39.6925 385.598 40.1847C385.598 40.6768 386 41.0795 386.492 41.0795ZM390.311 41.0795C390.803 41.0795 391.206 40.6768 391.206 40.1847C391.206 39.6925 390.803 39.2898 390.311 39.2898C389.818 39.2898 389.416 39.6925 389.416 40.1847C389.416 40.6768 389.818 41.0795 390.311 41.0795Z" fill="#8E949E"></path><line x1="8" y1="71.5" x2="656" y2="71.5" stroke="#E9EBF0"></line><path d="M32.9588 100H34.2756V96.6974H36.0653C36.0952 96.6974 36.1207 96.6974 36.1506 96.6974L37.9233 100H39.4233L37.4886 96.4673C38.5582 96.071 39.0909 95.1804 39.0909 94.0085C39.0909 92.402 38.0938 91.2727 36.0696 91.2727H32.9588V100ZM34.2756 95.5639V92.402H35.929C37.2287 92.402 37.7656 93.0199 37.7656 94.0085C37.7656 94.9929 37.2287 95.5639 35.946 95.5639H34.2756ZM43.3299 100.132C44.7575 100.132 45.7674 99.429 46.0572 98.3636L44.8512 98.1463C44.6211 98.7642 44.0671 99.0795 43.3427 99.0795C42.2518 99.0795 41.5188 98.3722 41.4847 97.1108H46.1381V96.6591C46.1381 94.294 44.7234 93.3693 43.2404 93.3693C41.4165 93.3693 40.2148 94.7585 40.2148 96.7699C40.2148 98.8026 41.3995 100.132 43.3299 100.132ZM41.489 96.1562C41.5401 95.2273 42.2134 94.4219 43.2489 94.4219C44.2376 94.4219 44.8853 95.1548 44.8896 96.1562H41.489ZM50.3089 100.132C51.8558 100.132 52.8572 99.2031 52.9979 97.929H51.7578C51.5959 98.6364 51.0462 99.054 50.3175 99.054C49.2393 99.054 48.5447 98.1548 48.5447 96.7273C48.5447 95.3253 49.2521 94.4432 50.3175 94.4432C51.1271 94.4432 51.6214 94.9545 51.7578 95.5682H52.9979C52.8615 94.2472 51.7834 93.3693 50.2962 93.3693C48.451 93.3693 47.2578 94.7585 47.2578 96.7571C47.2578 98.7301 48.4084 100.132 50.3089 100.132ZM57.1815 100.132C58.609 100.132 59.619 99.429 59.9087 98.3636L58.7028 98.1463C58.4727 98.7642 57.9187 99.0795 57.1942 99.0795C56.1033 99.0795 55.3704 98.3722 55.3363 97.1108H59.9897V96.6591C59.9897 94.294 58.5749 93.3693 57.092 93.3693C55.2681 93.3693 54.0664 94.7585 54.0664 96.7699C54.0664 98.8026 55.2511 100.132 57.1815 100.132ZM55.3406 96.1562C55.3917 95.2273 56.065 94.4219 57.1005 94.4219C58.0891 94.4219 58.7369 95.1548 58.7411 96.1562H55.3406ZM62.6776 96.1136C62.6776 95.0696 63.3168 94.473 64.2031 94.473C65.0682 94.473 65.5923 95.0398 65.5923 95.9901V100H66.8665V95.8366C66.8665 94.2173 65.9759 93.3693 64.6378 93.3693C63.6534 93.3693 63.0099 93.8253 62.7074 94.5199H62.6264V93.4545H61.4034V100H62.6776V96.1136ZM71.6307 93.4545H70.2884V91.8864H69.0142V93.4545H68.0554V94.4773H69.0142V98.3423C69.0099 99.5312 69.9176 100.107 70.9233 100.085C71.3281 100.081 71.6009 100.004 71.75 99.9489L71.5199 98.8963C71.4347 98.9134 71.277 98.9517 71.0724 98.9517C70.6591 98.9517 70.2884 98.8153 70.2884 98.0781V94.4773H71.6307V93.4545ZM81.1207 95.0526C80.8565 94.0341 80.0597 93.3693 78.6449 93.3693C77.1662 93.3693 76.1179 94.1491 76.1179 95.3082C76.1179 96.2372 76.6804 96.8551 77.9077 97.1278L79.0156 97.3707C79.6463 97.5114 79.9403 97.7926 79.9403 98.2017C79.9403 98.7088 79.3991 99.1051 78.5639 99.1051C77.8011 99.1051 77.3111 98.777 77.1577 98.1335L75.9261 98.321C76.1392 99.4801 77.1023 100.132 78.5724 100.132C80.1534 100.132 81.2486 99.2926 81.2486 98.108C81.2486 97.1832 80.6605 96.6122 79.4588 96.3352L78.419 96.0966C77.6989 95.9261 77.3878 95.6832 77.392 95.2401C77.3878 94.7372 77.9332 94.3793 78.6577 94.3793C79.4503 94.3793 79.8168 94.8182 79.9659 95.2571L81.1207 95.0526ZM85.4705 100.132C86.8981 100.132 87.908 99.429 88.1978 98.3636L86.9918 98.1463C86.7617 98.7642 86.2077 99.0795 85.4833 99.0795C84.3924 99.0795 83.6594 98.3722 83.6254 97.1108H88.2788V96.6591C88.2788 94.294 86.864 93.3693 85.381 93.3693C83.5572 93.3693 82.3555 94.7585 82.3555 96.7699C82.3555 98.8026 83.5401 100.132 85.4705 100.132ZM83.6296 96.1562C83.6808 95.2273 84.354 94.4219 85.3896 94.4219C86.3782 94.4219 87.0259 95.1548 87.0302 96.1562H83.6296ZM91.5973 100.145C92.6797 100.145 93.2891 99.5952 93.532 99.1051H93.5831V100H94.8274V95.6534C94.8274 93.7486 93.3274 93.3693 92.2876 93.3693C91.103 93.3693 90.0121 93.8466 89.5859 95.0398L90.7834 95.3125C90.9709 94.848 91.4482 94.4006 92.3047 94.4006C93.1271 94.4006 93.549 94.831 93.549 95.5724V95.6023C93.549 96.0668 93.0717 96.0582 91.8956 96.1946C90.6555 96.3395 89.3857 96.6634 89.3857 98.1506C89.3857 99.4375 90.353 100.145 91.5973 100.145ZM91.8743 99.1222C91.1541 99.1222 90.6342 98.7983 90.6342 98.1676C90.6342 97.4858 91.2393 97.2429 91.9766 97.1449C92.3899 97.0895 93.37 96.9787 93.5533 96.7955V97.6392C93.5533 98.4148 92.9354 99.1222 91.8743 99.1222ZM96.5245 100H97.7987V96.0028C97.7987 95.1463 98.4592 94.5284 99.3626 94.5284C99.6268 94.5284 99.9251 94.5753 100.027 94.6051V93.3864C99.8995 93.3693 99.6481 93.3565 99.4862 93.3565C98.7191 93.3565 98.0629 93.7912 97.8242 94.4943H97.756V93.4545H96.5245V100ZM103.653 100.132C105.2 100.132 106.201 99.2031 106.342 97.929H105.102C104.94 98.6364 104.39 99.054 103.661 99.054C102.583 99.054 101.888 98.1548 101.888 96.7273C101.888 95.3253 102.596 94.4432 103.661 94.4432C104.471 94.4432 104.965 94.9545 105.102 95.5682H106.342C106.205 94.2472 105.127 93.3693 103.64 93.3693C101.795 93.3693 100.602 94.7585 100.602 96.7571C100.602 98.7301 101.752 100.132 103.653 100.132ZM108.978 96.1136C108.978 95.0696 109.639 94.473 110.547 94.473C111.424 94.473 111.949 95.0312 111.949 95.9901V100H113.223V95.8366C113.223 94.2045 112.328 93.3693 110.981 93.3693C109.963 93.3693 109.349 93.8125 109.042 94.5199H108.961V91.2727H107.704V100H108.978V96.1136ZM117.744 100.132C119.172 100.132 120.181 99.429 120.471 98.3636L119.265 98.1463C119.035 98.7642 118.481 99.0795 117.757 99.0795C116.666 99.0795 115.933 98.3722 115.899 97.1108H120.552V96.6591C120.552 94.294 119.137 93.3693 117.654 93.3693C115.831 93.3693 114.629 94.7585 114.629 96.7699C114.629 98.8026 115.814 100.132 117.744 100.132ZM115.903 96.1562C115.954 95.2273 116.627 94.4219 117.663 94.4219C118.652 94.4219 119.299 95.1548 119.304 96.1562H115.903ZM126.871 95.0526C126.607 94.0341 125.81 93.3693 124.395 93.3693C122.916 93.3693 121.868 94.1491 121.868 95.3082C121.868 96.2372 122.43 96.8551 123.658 97.1278L124.766 97.3707C125.396 97.5114 125.69 97.7926 125.69 98.2017C125.69 98.7088 125.149 99.1051 124.314 99.1051C123.551 99.1051 123.061 98.777 122.908 98.1335L121.676 98.321C121.889 99.4801 122.852 100.132 124.322 100.132C125.903 100.132 126.999 99.2926 126.999 98.108C126.999 97.1832 126.411 96.6122 125.209 96.3352L124.169 96.0966C123.449 95.9261 123.138 95.6832 123.142 95.2401C123.138 94.7372 123.683 94.3793 124.408 94.3793C125.2 94.3793 125.567 94.8182 125.716 95.2571L126.871 95.0526Z" fill="#8E949E"></path><path d="M47.2725 138.299L43.3457 134.373C44.1955 133.333 44.6644 132.023 44.6644 130.594C44.6644 127.228 41.9353 124.5 38.569 124.5C35.2028 124.5 32.5 127.228 32.5 130.594C32.5 133.959 35.2289 136.688 38.569 136.688C39.9988 136.688 41.3105 136.192 42.3493 135.368L46.2762 139.294C46.4403 139.433 46.622 139.5 46.8007 139.5C46.9795 139.5 47.1606 139.431 47.298 139.294C47.5714 139.02 47.5714 138.574 47.2725 138.299ZM33.9066 130.594C33.9066 128.009 36.0101 125.906 38.5954 125.906C41.1807 125.906 43.2842 128.009 43.2842 130.594C43.2842 133.178 41.1807 135.281 38.5954 135.281C36.0101 135.281 33.9066 133.178 33.9066 130.594Z" fill="#8E949E"></path><path d="M65.5753 130.129C65.2273 127.952 63.522 126.679 61.3693 126.679C58.7344 126.679 56.7905 128.653 56.7905 131.909C56.7905 135.165 58.7244 137.139 61.3693 137.139C63.6065 137.139 65.2422 135.737 65.5753 133.724L64.0241 133.719C63.7607 135.021 62.6669 135.737 61.3793 135.737C59.6342 135.737 58.3168 134.4 58.3168 131.909C58.3168 129.438 59.6293 128.081 61.3842 128.081C62.6818 128.081 63.7706 128.812 64.0241 130.129H65.5753ZM69.4325 137.169C70.6953 137.169 71.4062 136.528 71.6896 135.956H71.7493V137H73.201V131.929C73.201 129.707 71.451 129.264 70.2379 129.264C68.8558 129.264 67.5831 129.821 67.0859 131.213L68.4829 131.531C68.7017 130.989 69.2585 130.467 70.2578 130.467C71.2173 130.467 71.7095 130.969 71.7095 131.835V131.869C71.7095 132.411 71.1527 132.401 69.7805 132.56C68.3338 132.729 66.8523 133.107 66.8523 134.842C66.8523 136.344 67.9808 137.169 69.4325 137.169ZM69.7557 135.976C68.9155 135.976 68.3089 135.598 68.3089 134.862C68.3089 134.067 69.0149 133.783 69.875 133.669C70.3572 133.604 71.5007 133.475 71.7145 133.261V134.246C71.7145 135.151 70.9936 135.976 69.7557 135.976ZM75.0969 137H76.5834V132.337C76.5834 131.337 77.354 130.616 78.408 130.616C78.7162 130.616 79.0642 130.671 79.1836 130.706V129.284C79.0344 129.264 78.7411 129.249 78.5522 129.249C77.6573 129.249 76.8917 129.756 76.6133 130.577H76.5337V129.364H75.0969V137ZM81.8725 126.818H80.386V137H81.8725V126.818ZM86.0106 137.169C87.2734 137.169 87.9843 136.528 88.2677 135.956H88.3274V137H89.7791V131.929C89.7791 129.707 88.0291 129.264 86.816 129.264C85.4339 129.264 84.1612 129.821 83.664 131.213L85.061 131.531C85.2798 130.989 85.8366 130.467 86.8359 130.467C87.7954 130.467 88.2876 130.969 88.2876 131.835V131.869C88.2876 132.411 87.7308 132.401 86.3586 132.56C84.9119 132.729 83.4303 133.107 83.4303 134.842C83.4303 136.344 84.5589 137.169 86.0106 137.169ZM86.3337 135.976C85.4935 135.976 84.887 135.598 84.887 134.862C84.887 134.067 85.593 133.783 86.4531 133.669C86.9353 133.604 88.0788 133.475 88.2926 133.261V134.246C88.2926 135.151 87.5717 135.976 86.3337 135.976ZM95.4154 137H96.9516V133.833L98.1547 132.451L101.446 137H103.295L99.1739 131.402L103.28 126.818H101.346L97.0759 131.68H96.9516V126.818H95.4154V137ZM107.165 137.154C109.318 137.154 110.725 135.578 110.725 133.217C110.725 130.84 109.318 129.264 107.165 129.264C105.012 129.264 103.605 130.84 103.605 133.217C103.605 135.578 105.012 137.154 107.165 137.154ZM107.17 135.906C105.763 135.906 105.107 134.678 105.107 133.212C105.107 131.75 105.763 130.507 107.17 130.507C108.567 130.507 109.223 131.75 109.223 133.212C109.223 134.678 108.567 135.906 107.17 135.906ZM115.517 137.154C117.321 137.154 118.49 136.07 118.654 134.584H117.207C117.018 135.409 116.377 135.896 115.527 135.896C114.269 135.896 113.458 134.847 113.458 133.182C113.458 131.546 114.284 130.517 115.527 130.517C116.471 130.517 117.048 131.114 117.207 131.83H118.654C118.495 130.288 117.237 129.264 115.502 129.264C113.349 129.264 111.957 130.885 111.957 133.217C111.957 135.518 113.299 137.154 115.517 137.154ZM121.646 132.466C121.646 131.248 122.416 130.552 123.475 130.552C124.5 130.552 125.111 131.203 125.111 132.322V137H126.598V132.143C126.598 130.239 125.553 129.264 123.982 129.264C122.794 129.264 122.078 129.781 121.72 130.607H121.626V126.818H120.159V137H121.646V132.466Z" fill="#282A2E"></path><line x1="8" y1="159.5" x2="640" y2="159.5" stroke="#E9EBF0"></line><path d="M32.9588 188H34.2756V184.697H36.0653C36.0952 184.697 36.1207 184.697 36.1506 184.697L37.9233 188H39.4233L37.4886 184.467C38.5582 184.071 39.0909 183.18 39.0909 182.009C39.0909 180.402 38.0938 179.273 36.0696 179.273H32.9588V188ZM34.2756 183.564V180.402H35.929C37.2287 180.402 37.7656 181.02 37.7656 182.009C37.7656 182.993 37.2287 183.564 35.946 183.564H34.2756ZM43.3299 188.132C44.7575 188.132 45.7674 187.429 46.0572 186.364L44.8512 186.146C44.6211 186.764 44.0671 187.08 43.3427 187.08C42.2518 187.08 41.5188 186.372 41.4847 185.111H46.1381V184.659C46.1381 182.294 44.7234 181.369 43.2404 181.369C41.4165 181.369 40.2148 182.759 40.2148 184.77C40.2148 186.803 41.3995 188.132 43.3299 188.132ZM41.489 184.156C41.5401 183.227 42.2134 182.422 43.2489 182.422C44.2376 182.422 44.8853 183.155 44.8896 184.156H41.489ZM50.3089 188.132C51.8558 188.132 52.8572 187.203 52.9979 185.929H51.7578C51.5959 186.636 51.0462 187.054 50.3175 187.054C49.2393 187.054 48.5447 186.155 48.5447 184.727C48.5447 183.325 49.2521 182.443 50.3175 182.443C51.1271 182.443 51.6214 182.955 51.7578 183.568H52.9979C52.8615 182.247 51.7834 181.369 50.2962 181.369C48.451 181.369 47.2578 182.759 47.2578 184.757C47.2578 186.73 48.4084 188.132 50.3089 188.132ZM57.1815 188.132C58.609 188.132 59.619 187.429 59.9087 186.364L58.7028 186.146C58.4727 186.764 57.9187 187.08 57.1942 187.08C56.1033 187.08 55.3704 186.372 55.3363 185.111H59.9897V184.659C59.9897 182.294 58.5749 181.369 57.092 181.369C55.2681 181.369 54.0664 182.759 54.0664 184.77C54.0664 186.803 55.2511 188.132 57.1815 188.132ZM55.3406 184.156C55.3917 183.227 56.065 182.422 57.1005 182.422C58.0891 182.422 58.7369 183.155 58.7411 184.156H55.3406ZM62.6776 184.114C62.6776 183.07 63.3168 182.473 64.2031 182.473C65.0682 182.473 65.5923 183.04 65.5923 183.99V188H66.8665V183.837C66.8665 182.217 65.9759 181.369 64.6378 181.369C63.6534 181.369 63.0099 181.825 62.7074 182.52H62.6264V181.455H61.4034V188H62.6776V184.114ZM71.6307 181.455H70.2884V179.886H69.0142V181.455H68.0554V182.477H69.0142V186.342C69.0099 187.531 69.9176 188.107 70.9233 188.085C71.3281 188.081 71.6009 188.004 71.75 187.949L71.5199 186.896C71.4347 186.913 71.277 186.952 71.0724 186.952C70.6591 186.952 70.2884 186.815 70.2884 186.078V182.477H71.6307V181.455ZM74.4549 179.273H73.1808V188H74.4549V179.273ZM76.9744 190.455C78.027 190.455 78.6918 189.905 79.071 188.874L81.777 181.467L80.4006 181.455L78.7429 186.534H78.6747L77.017 181.455H75.6534L78.0483 188.085L77.8906 188.52C77.5668 189.389 77.1108 189.462 76.4119 189.27L76.1051 190.314C76.2585 190.382 76.5909 190.455 76.9744 190.455ZM91.7528 181.455H90.3849L88.7315 186.491H88.6634L87.0057 181.455H85.6378L88.0156 188H89.3793L91.7528 181.455ZM92.9503 188H94.2244V181.455H92.9503V188ZM93.5938 180.445C94.0327 180.445 94.3991 180.104 94.3991 179.686C94.3991 179.268 94.0327 178.923 93.5938 178.923C93.1506 178.923 92.7884 179.268 92.7884 179.686C92.7884 180.104 93.1506 180.445 93.5938 180.445ZM98.7596 188.132C100.187 188.132 101.197 187.429 101.487 186.364L100.281 186.146C100.051 186.764 99.4968 187.08 98.7724 187.08C97.6815 187.08 96.9485 186.372 96.9144 185.111H101.568V184.659C101.568 182.294 100.153 181.369 98.6701 181.369C96.8462 181.369 95.6445 182.759 95.6445 184.77C95.6445 186.803 96.8292 188.132 98.7596 188.132ZM96.9187 184.156C96.9698 183.227 97.6431 182.422 98.6786 182.422C99.6673 182.422 100.315 183.155 100.319 184.156H96.9187ZM104.389 188H105.684L107.014 183.274H107.112L108.441 188H109.741L111.663 181.455H110.346L109.072 186.24H109.008L107.73 181.455H106.413L105.126 186.261H105.062L103.779 181.455H102.463L104.389 188ZM115.494 188.132C116.922 188.132 117.931 187.429 118.221 186.364L117.015 186.146C116.785 186.764 116.231 187.08 115.507 187.08C114.416 187.08 113.683 186.372 113.649 185.111H118.302V184.659C118.302 182.294 116.887 181.369 115.404 181.369C113.581 181.369 112.379 182.759 112.379 184.77C112.379 186.803 113.564 188.132 115.494 188.132ZM113.653 184.156C113.704 183.227 114.377 182.422 115.413 182.422C116.402 182.422 117.049 183.155 117.054 184.156H113.653ZM122.166 188.128C123.359 188.128 123.828 187.399 124.058 186.982H124.165V188H125.409V179.273H124.135V182.516H124.058C123.828 182.111 123.393 181.369 122.175 181.369C120.594 181.369 119.43 182.618 119.43 184.74C119.43 186.858 120.577 188.128 122.166 188.128ZM122.447 187.041C121.31 187.041 120.717 186.04 120.717 184.727C120.717 183.428 121.297 182.452 122.447 182.452C123.56 182.452 124.156 183.359 124.156 184.727C124.156 186.104 123.547 187.041 122.447 187.041Z" fill="#8E949E"></path><path d="M52 212V220H60L52 212ZM55 236H52.0469C51.7891 236 51.5391 235.844 51.4144 235.594C50.6719 234.101 48.5238 233.695 47.2894 234.711L46.4219 232.109C46.2188 231.494 45.65 231.081 45 231.081C44.35 231.081 43.7812 231.495 43.5781 232.112L42.4375 235.525C42.3438 235.806 42.0781 236 41.7737 236H41C40.4456 236 40 236.444 40 237C40 237.556 40.4456 238 41 238H41.7737C42.9375 238 43.9694 237.257 44.3363 236.156L45 234.163L46.0562 237.312C46.1812 237.703 46.525 237.969 46.9312 238H47C47.3749 238 47.7263 237.789 47.8906 237.445L48.375 236.484C48.5469 236.14 48.8672 236.101 49 236.101C49.1328 236.101 49.4531 236.14 49.6325 236.507C50.0938 237.431 51.025 238 52.05 238H55C55.5547 238 56 237.555 56 237C56 236.445 55.5562 236 55 236Z" fill="#D3D5DB"></path><path opacity="0.4" d="M52 212H39C37.3431 212 36 213.343 36 215V241C36 242.656 37.3431 244 39 244H57C58.6569 244 60 242.657 60 241V220H52V212ZM40 216.5C40 216.227 40.2269 216 40.5 216H45.5C45.775 216 46 216.227 46 216.5V217.5C46 217.774 45.775 218 45.5 218H40.5C40.2269 218 40 217.774 40 217.5V216.5ZM40 220.5C40 220.225 40.2269 220 40.5 220H45.5C45.775 220 46 220.225 46 220.5V221.5C46 221.775 45.775 222 45.5 222H40.5C40.2269 222 40 221.775 40 221.5V220.5ZM51.4125 235.594C51.5375 235.844 51.7875 236 52.045 236H55C55.5547 236 56 236.445 56 237C56 237.555 55.5562 238 55 238H52.0469C51.0231 238 50.0938 237.43 49.6325 236.507C49.4528 236.14 49.1325 236.101 49 236.101C48.8675 236.101 48.5469 236.14 48.375 236.484L47.8906 237.445C47.725 237.788 47.3188 238 47 238H46.9312C46.525 237.969 46.1812 237.703 46.0562 237.312L45 234.163L44.3375 236.156C43.9687 237.256 42.9375 238 41.7737 238H41C40.4456 238 40 237.556 40 237C40 236.444 40.4456 236 41 236H41.7737C42.0784 236 42.3441 235.805 42.4375 235.523L43.5781 232.109C43.7812 231.494 44.35 231.081 45 231.081C45.65 231.081 46.2188 231.495 46.4219 232.112L47.2894 234.714C48.525 233.694 50.675 234.1 51.4125 235.594Z" fill="#D3D5DB"></path><path d="M73.1186 225H74.6548V221.42H76.7429C79.1044 221.42 80.2727 219.994 80.2727 218.114C80.2727 216.24 79.1143 214.818 76.7479 214.818H73.1186V225ZM74.6548 220.118V216.136H76.5838C78.1051 216.136 78.7266 216.961 78.7266 218.114C78.7266 219.268 78.1051 220.118 76.6037 220.118H74.6548ZM86.7077 221.833C86.7127 223.131 85.7482 223.747 84.913 223.747C83.9932 223.747 83.3569 223.081 83.3569 222.042V217.364H81.8704V222.221C81.8704 224.115 82.9094 225.099 84.3761 225.099C85.5245 225.099 86.305 224.493 86.658 223.678H86.7376V225H88.1992V217.364H86.7077V221.833ZM90.1125 225H91.599V220.337C91.599 219.337 92.3696 218.616 93.4236 218.616C93.7319 218.616 94.0799 218.671 94.1992 218.706V217.284C94.05 217.264 93.7567 217.249 93.5678 217.249C92.6729 217.249 91.9073 217.756 91.6289 218.577H91.5493V217.364H90.1125V225ZM98.3448 225.154C100.149 225.154 101.318 224.07 101.482 222.584H100.035C99.8462 223.409 99.2049 223.896 98.3547 223.896C97.0969 223.896 96.2865 222.847 96.2865 221.182C96.2865 219.546 97.1118 218.517 98.3547 218.517C99.2993 218.517 99.876 219.114 100.035 219.83H101.482C101.323 218.288 100.065 217.264 98.3299 217.264C96.1772 217.264 94.7851 218.885 94.7851 221.217C94.7851 223.518 96.1274 225.154 98.3448 225.154ZM104.474 220.466C104.474 219.248 105.245 218.552 106.304 218.552C107.328 218.552 107.939 219.203 107.939 220.322V225H109.426V220.143C109.426 218.239 108.382 217.264 106.811 217.264C105.622 217.264 104.907 217.781 104.549 218.607H104.454V214.818H102.988V225H104.474V220.466ZM113.548 225.169C114.81 225.169 115.521 224.528 115.805 223.956H115.864V225H117.316V219.929C117.316 217.707 115.566 217.264 114.353 217.264C112.971 217.264 111.698 217.821 111.201 219.213L112.598 219.531C112.817 218.989 113.374 218.467 114.373 218.467C115.332 218.467 115.825 218.969 115.825 219.835V219.869C115.825 220.411 115.268 220.401 113.896 220.56C112.449 220.729 110.967 221.107 110.967 222.842C110.967 224.344 112.096 225.169 113.548 225.169ZM113.871 223.976C113.031 223.976 112.424 223.598 112.424 222.862C112.424 222.067 113.13 221.783 113.99 221.669C114.472 221.604 115.616 221.475 115.83 221.261V222.246C115.83 223.151 115.109 223.976 113.871 223.976ZM124.934 219.228C124.626 218.04 123.696 217.264 122.046 217.264C120.321 217.264 119.098 218.174 119.098 219.526C119.098 220.61 119.754 221.331 121.186 221.649L122.478 221.933C123.214 222.097 123.557 222.425 123.557 222.902C123.557 223.494 122.926 223.956 121.951 223.956C121.062 223.956 120.49 223.573 120.311 222.822L118.874 223.041C119.123 224.393 120.246 225.154 121.961 225.154C123.806 225.154 125.084 224.175 125.084 222.793C125.084 221.714 124.397 221.048 122.995 220.724L121.782 220.446C120.942 220.247 120.579 219.964 120.584 219.447C120.579 218.86 121.216 218.442 122.061 218.442C122.986 218.442 123.413 218.955 123.587 219.467L124.934 219.228ZM129.925 225.154C131.591 225.154 132.769 224.334 133.107 223.091L131.7 222.837C131.432 223.558 130.785 223.926 129.94 223.926C128.667 223.926 127.812 223.101 127.772 221.629H133.201V221.102C133.201 218.343 131.551 217.264 129.821 217.264C127.693 217.264 126.291 218.885 126.291 221.232C126.291 223.603 127.673 225.154 129.925 225.154ZM127.777 220.516C127.837 219.432 128.623 218.492 129.831 218.492C130.984 218.492 131.74 219.347 131.745 220.516H127.777ZM141.604 225.154C143.757 225.154 145.164 223.578 145.164 221.217C145.164 218.84 143.757 217.264 141.604 217.264C139.452 217.264 138.045 218.84 138.045 221.217C138.045 223.578 139.452 225.154 141.604 225.154ZM141.609 223.906C140.202 223.906 139.546 222.678 139.546 221.212C139.546 219.75 140.202 218.507 141.609 218.507C143.006 218.507 143.663 219.75 143.663 221.212C143.663 222.678 143.006 223.906 141.609 223.906ZM146.739 225H148.226V220.337C148.226 219.337 148.996 218.616 150.05 218.616C150.359 218.616 150.707 218.671 150.826 218.706V217.284C150.677 217.264 150.384 217.249 150.195 217.249C149.3 217.249 148.534 217.756 148.256 218.577H148.176V217.364H146.739V225ZM154.614 225.149C156.006 225.149 156.553 224.299 156.821 223.812H156.945V225H158.397V214.818H156.911V218.602H156.821C156.553 218.129 156.045 217.264 154.624 217.264C152.779 217.264 151.422 218.721 151.422 221.197C151.422 223.668 152.759 225.149 154.614 225.149ZM154.942 223.881C153.614 223.881 152.923 222.713 152.923 221.182C152.923 219.665 153.599 218.527 154.942 218.527C156.239 218.527 156.935 219.586 156.935 221.182C156.935 222.788 156.224 223.881 154.942 223.881ZM163.726 225.154C165.391 225.154 166.57 224.334 166.908 223.091L165.501 222.837C165.232 223.558 164.586 223.926 163.741 223.926C162.468 223.926 161.613 223.101 161.573 221.629H167.002V221.102C167.002 218.343 165.352 217.264 163.621 217.264C161.494 217.264 160.092 218.885 160.092 221.232C160.092 223.603 161.474 225.154 163.726 225.154ZM161.578 220.516C161.638 219.432 162.423 218.492 163.631 218.492C164.785 218.492 165.54 219.347 165.545 220.516H161.578ZM168.567 225H170.054V220.337C170.054 219.337 170.825 218.616 171.879 218.616C172.187 218.616 172.535 218.671 172.654 218.706V217.284C172.505 217.264 172.212 217.249 172.023 217.249C171.128 217.249 170.362 217.756 170.084 218.577H170.004V217.364H168.567V225ZM181.296 225H182.489L182.936 222.276H184.403L184.597 221.082H183.13L183.518 218.736H184.995L185.189 217.543H183.712L184.159 214.818H182.966L182.519 217.543H180.132L180.58 214.818H179.387L178.939 217.543H177.473L177.279 218.736H178.745L178.358 221.082H176.881L176.687 222.276H178.164L177.716 225H178.909L179.357 222.276H181.743L181.296 225ZM179.551 221.082L179.939 218.736H182.325L181.937 221.082H179.551ZM186.288 225H192.989V223.683H188.406V223.608L190.429 221.49C192.293 219.606 192.825 218.706 192.825 217.567C192.825 215.932 191.493 214.679 189.574 214.679C187.67 214.679 186.278 215.912 186.278 217.771H187.744C187.739 216.678 188.445 215.962 189.544 215.962C190.578 215.962 191.364 216.598 191.364 217.612C191.364 218.512 190.827 219.158 189.733 220.317L186.288 223.886V225ZM204.431 219.268H197.431V220.555H204.431V219.268ZM209.087 225H212.99C215.356 225 216.425 223.822 216.425 222.261C216.425 220.685 215.321 219.795 214.312 219.74V219.641C215.247 219.402 216.027 218.766 216.027 217.493C216.027 215.987 214.983 214.818 212.816 214.818H209.087V225ZM210.623 223.683V220.421H212.895C214.128 220.421 214.899 221.217 214.899 222.186C214.899 223.041 214.317 223.683 212.841 223.683H210.623ZM210.623 219.223V216.126H212.721C213.939 216.126 214.521 216.767 214.521 217.612C214.521 218.597 213.716 219.223 212.682 219.223H210.623ZM222.881 221.833C222.886 223.131 221.922 223.747 221.086 223.747C220.167 223.747 219.53 223.081 219.53 222.042V217.364H218.044V222.221C218.044 224.115 219.083 225.099 220.55 225.099C221.698 225.099 222.479 224.493 222.832 223.678H222.911V225H224.373V217.364H222.881V221.833ZM229.145 225.149C230.537 225.149 231.084 224.299 231.352 223.812H231.476V225H232.928V214.818H231.442V218.602H231.352C231.084 218.129 230.577 217.264 229.155 217.264C227.31 217.264 225.953 218.721 225.953 221.197C225.953 223.668 227.29 225.149 229.145 225.149ZM229.473 223.881C228.145 223.881 227.454 222.713 227.454 221.182C227.454 219.665 228.131 218.527 229.473 218.527C230.77 218.527 231.466 219.586 231.466 221.182C231.466 222.788 230.756 223.881 229.473 223.881ZM234.966 225H236.452V220.292C236.452 219.263 237.173 218.547 238.018 218.547C238.844 218.547 239.415 219.094 239.415 219.924V225H240.897V220.133C240.897 219.213 241.459 218.547 242.428 218.547C243.214 218.547 243.86 218.984 243.86 220.018V225H245.346V219.879C245.346 218.134 244.372 217.264 242.99 217.264C241.891 217.264 241.066 217.791 240.698 218.607H240.618C240.285 217.771 239.584 217.264 238.565 217.264C237.556 217.264 236.805 217.766 236.487 218.607H236.393V217.364H234.966V225ZM250.471 225.154C252.624 225.154 254.031 223.578 254.031 221.217C254.031 218.84 252.624 217.264 250.471 217.264C248.319 217.264 246.912 218.84 246.912 221.217C246.912 223.578 248.319 225.154 250.471 225.154ZM250.476 223.906C249.069 223.906 248.413 222.678 248.413 221.212C248.413 219.75 249.069 218.507 250.476 218.507C251.873 218.507 252.53 219.75 252.53 221.212C252.53 222.678 251.873 223.906 250.476 223.906ZM259.171 217.364H257.605V215.534H256.118V217.364H255V218.557H256.118V223.066C256.113 224.453 257.172 225.124 258.346 225.099C258.818 225.094 259.136 225.005 259.31 224.94L259.042 223.712C258.942 223.732 258.758 223.777 258.52 223.777C258.037 223.777 257.605 223.618 257.605 222.758V218.557H259.171V217.364ZM266.331 219.228C266.022 218.04 265.093 217.264 263.442 217.264C261.717 217.264 260.494 218.174 260.494 219.526C260.494 220.61 261.15 221.331 262.582 221.649L263.875 221.933C264.61 222.097 264.953 222.425 264.953 222.902C264.953 223.494 264.322 223.956 263.348 223.956C262.458 223.956 261.886 223.573 261.707 222.822L260.27 223.041C260.519 224.393 261.642 225.154 263.358 225.154C265.202 225.154 266.48 224.175 266.48 222.793C266.48 221.714 265.794 221.048 264.392 220.724L263.179 220.446C262.338 220.247 261.975 219.964 261.98 219.447C261.975 218.86 262.612 218.442 263.457 218.442C264.382 218.442 264.809 218.955 264.983 219.467L266.331 219.228ZM269.964 223.608H268.532L268.483 224.165C268.368 225.512 268.05 226.869 267.916 227.486H268.97C269.208 226.835 269.735 225.343 269.889 224.15L269.964 223.608ZM282.446 218.035H284.022C283.679 216.051 281.984 214.679 279.786 214.679C277.152 214.679 275.228 216.663 275.228 219.914C275.228 223.136 277.097 225.139 279.856 225.139C282.327 225.139 284.092 223.518 284.092 220.948V219.79H280.09V221.058H282.605C282.571 222.698 281.487 223.737 279.856 223.737C278.061 223.737 276.754 222.38 276.754 219.904C276.754 217.438 278.071 216.081 279.796 216.081C281.149 216.081 282.063 216.827 282.446 218.035ZM285.839 225H287.325V220.292C287.325 219.263 288.046 218.547 288.891 218.547C289.717 218.547 290.288 219.094 290.288 219.924V225H291.77V220.133C291.77 219.213 292.332 218.547 293.301 218.547C294.087 218.547 294.733 218.984 294.733 220.018V225H296.219V219.879C296.219 218.134 295.245 217.264 293.863 217.264C292.764 217.264 291.939 217.791 291.571 218.607H291.491C291.158 217.771 290.457 217.264 289.438 217.264C288.429 217.264 287.678 217.766 287.36 218.607H287.266V217.364H285.839V225ZM298.247 225H299.699V223.812H299.823C300.091 224.299 300.638 225.149 302.03 225.149C303.88 225.149 305.222 223.668 305.222 221.197C305.222 218.721 303.86 217.264 302.015 217.264C300.599 217.264 300.087 218.129 299.823 218.602H299.734V214.818H298.247V225ZM299.704 221.182C299.704 219.586 300.4 218.527 301.697 218.527C303.045 218.527 303.721 219.665 303.721 221.182C303.721 222.713 303.025 223.881 301.697 223.881C300.42 223.881 299.704 222.788 299.704 221.182ZM306.927 225H308.463V220.56H313.539V225H315.08V214.818H313.539V219.243H308.463V214.818H306.927V225Z" fill="#282A2E"></path><path d="M80.0795 238C79.7557 236.21 78.3239 235.153 76.5682 235.153C74.3352 235.153 72.7159 236.875 72.7159 239.636C72.7159 242.398 74.3352 244.119 76.5682 244.119C78.3239 244.119 79.7557 243.062 80.0795 241.273H79.0227C78.767 242.483 77.7273 243.131 76.5682 243.131C74.983 243.131 73.7386 241.903 73.7386 239.636C73.7386 237.369 74.983 236.142 76.5682 236.142C77.7273 236.142 78.767 236.79 79.0227 238H80.0795ZM84.3952 244.136C85.7248 244.136 86.6964 243.472 87.0032 242.483L86.0316 242.21C85.7759 242.892 85.1836 243.233 84.3952 243.233C83.2148 243.233 82.4009 242.47 82.354 241.068H87.1055V240.642C87.1055 238.205 85.6566 237.369 84.293 237.369C82.5202 237.369 81.3441 238.767 81.3441 240.778C81.3441 242.79 82.5032 244.136 84.3952 244.136ZM82.354 240.199C82.4222 239.18 83.1424 238.273 84.293 238.273C85.3839 238.273 86.0827 239.091 86.0827 240.199H82.354ZM89.641 240.062C89.641 238.92 90.3484 238.273 91.3114 238.273C92.2447 238.273 92.8114 238.882 92.8114 239.909V244H93.8171V239.841C93.8171 238.17 92.9265 237.369 91.6012 237.369C90.6126 237.369 89.9989 237.812 89.6921 238.477H89.6069V237.455H88.6353V244H89.641V240.062ZM98.5014 237.455H97.1037V235.886H96.098V237.455H95.1094V238.307H96.098V242.398C96.098 243.54 97.0185 244.085 97.8707 244.085C98.2457 244.085 98.4844 244.017 98.6207 243.966L98.4162 243.062C98.331 243.08 98.1946 243.114 97.973 243.114C97.5298 243.114 97.1037 242.977 97.1037 242.125V238.307H98.5014V237.455ZM100.014 244H101.02V239.858C101.02 238.972 101.719 238.324 102.673 238.324C102.942 238.324 103.219 238.375 103.287 238.392V237.369C103.172 237.361 102.908 237.352 102.759 237.352C101.974 237.352 101.293 237.795 101.054 238.443H100.986V237.455H100.014V244ZM106.405 244.153C107.547 244.153 108.144 243.54 108.348 243.114H108.4V244H109.405V239.688C109.405 237.608 107.82 237.369 106.985 237.369C105.996 237.369 104.871 237.71 104.36 238.903L105.314 239.244C105.536 238.767 106.06 238.256 107.019 238.256C107.944 238.256 108.4 238.746 108.4 239.585V239.619C108.4 240.105 107.905 240.062 106.712 240.216C105.498 240.374 104.172 240.642 104.172 242.142C104.172 243.42 105.161 244.153 106.405 244.153ZM106.559 243.25C105.757 243.25 105.178 242.892 105.178 242.193C105.178 241.426 105.877 241.188 106.661 241.085C107.087 241.034 108.229 240.915 108.4 240.71V241.631C108.4 242.449 107.752 243.25 106.559 243.25ZM113.9 244.136C115.349 244.136 116.303 243.25 116.474 242.091H115.468C115.281 242.807 114.684 243.233 113.9 243.233C112.707 243.233 111.94 242.244 111.94 240.727C111.94 239.244 112.724 238.273 113.9 238.273C114.786 238.273 115.315 238.818 115.468 239.415H116.474C116.303 238.188 115.263 237.369 113.883 237.369C112.11 237.369 110.934 238.767 110.934 240.761C110.934 242.722 112.059 244.136 113.9 244.136ZM118.95 235.273H117.944V244H118.95V235.273ZM124.303 244H125.36V240.812H127.269C129.301 240.812 130.218 239.577 130.218 238.034C130.218 236.491 129.301 235.273 127.252 235.273H124.303V244ZM125.36 239.875V236.21H127.218C128.637 236.21 129.178 236.986 129.178 238.034C129.178 239.082 128.637 239.875 127.235 239.875H125.36ZM135.909 241.324C135.909 242.551 134.971 243.114 134.221 243.114C133.386 243.114 132.789 242.5 132.789 241.545V237.455H131.784V241.614C131.784 243.284 132.67 244.085 133.897 244.085C134.886 244.085 135.534 243.557 135.841 242.892H135.909V244H136.914V237.455H135.909V241.324ZM138.756 244H139.762V239.858C139.762 238.972 140.461 238.324 141.415 238.324C141.684 238.324 141.961 238.375 142.029 238.392V237.369C141.914 237.361 141.65 237.352 141.501 237.352C140.717 237.352 140.035 237.795 139.796 238.443H139.728V237.455H138.756V244ZM145.681 244.136C147.13 244.136 148.085 243.25 148.255 242.091H147.249C147.062 242.807 146.465 243.233 145.681 243.233C144.488 243.233 143.721 242.244 143.721 240.727C143.721 239.244 144.505 238.273 145.681 238.273C146.567 238.273 147.096 238.818 147.249 239.415H148.255C148.085 238.188 147.045 237.369 145.664 237.369C143.891 237.369 142.715 238.767 142.715 240.761C142.715 242.722 143.84 244.136 145.681 244.136ZM150.731 240.062C150.731 238.92 151.46 238.273 152.452 238.273C153.398 238.273 153.969 238.869 153.969 239.909V244H154.975V239.841C154.975 238.158 154.08 237.369 152.742 237.369C151.711 237.369 151.123 237.8 150.816 238.477H150.731V235.273H149.725V244H150.731V240.062ZM158.741 244.153C159.883 244.153 160.48 243.54 160.684 243.114H160.735V244H161.741V239.688C161.741 237.608 160.156 237.369 159.321 237.369C158.332 237.369 157.207 237.71 156.696 238.903L157.65 239.244C157.872 238.767 158.396 238.256 159.355 238.256C160.279 238.256 160.735 238.746 160.735 239.585V239.619C160.735 240.105 160.241 240.062 159.048 240.216C157.833 240.374 156.508 240.642 156.508 242.142C156.508 243.42 157.497 244.153 158.741 244.153ZM158.895 243.25C158.093 243.25 157.514 242.892 157.514 242.193C157.514 241.426 158.213 241.188 158.997 241.085C159.423 241.034 160.565 240.915 160.735 240.71V241.631C160.735 242.449 160.088 243.25 158.895 243.25ZM168.213 238.92C167.898 237.991 167.19 237.369 165.895 237.369C164.514 237.369 163.491 238.153 163.491 239.261C163.491 240.165 164.028 240.77 165.23 241.051L166.321 241.307C166.982 241.46 167.293 241.776 167.293 242.227C167.293 242.79 166.696 243.25 165.759 243.25C164.936 243.25 164.42 242.896 164.241 242.193L163.287 242.432C163.521 243.544 164.438 244.136 165.776 244.136C167.297 244.136 168.332 243.305 168.332 242.176C168.332 241.264 167.761 240.689 166.594 240.403L165.622 240.165C164.847 239.973 164.497 239.713 164.497 239.21C164.497 238.648 165.094 238.239 165.895 238.239C166.773 238.239 167.135 238.724 167.31 239.176L168.213 238.92ZM169.846 244H170.852V237.455H169.846V244ZM170.358 236.364C170.75 236.364 171.074 236.057 171.074 235.682C171.074 235.307 170.75 235 170.358 235C169.966 235 169.642 235.307 169.642 235.682C169.642 236.057 169.966 236.364 170.358 236.364ZM173.7 240.062C173.7 238.92 174.407 238.273 175.37 238.273C176.303 238.273 176.87 238.882 176.87 239.909V244H177.876V239.841C177.876 238.17 176.985 237.369 175.66 237.369C174.671 237.369 174.058 237.812 173.751 238.477H173.665V237.455H172.694V244H173.7V240.062ZM182.355 246.591C183.924 246.591 185.185 245.875 185.185 244.188V237.455H184.213V238.494H184.111C183.89 238.153 183.48 237.369 182.202 237.369C180.549 237.369 179.407 238.682 179.407 240.693C179.407 242.739 180.6 243.898 182.185 243.898C183.463 243.898 183.873 243.148 184.094 242.79H184.179V244.119C184.179 245.21 183.412 245.705 182.355 245.705C181.167 245.705 180.749 245.078 180.48 244.716L179.679 245.278C180.088 245.964 180.894 246.591 182.355 246.591ZM182.321 242.994C181.06 242.994 180.412 242.04 180.412 240.676C180.412 239.347 181.043 238.273 182.321 238.273C183.549 238.273 184.196 239.261 184.196 240.676C184.196 242.125 183.532 242.994 182.321 242.994Z" fill="#676D7A"></path><path d="M52 268V276H60L52 268ZM55 292H52.0469C51.7891 292 51.5391 291.844 51.4144 291.594C50.6719 290.101 48.5238 289.695 47.2894 290.711L46.4219 288.109C46.2188 287.494 45.65 287.081 45 287.081C44.35 287.081 43.7812 287.495 43.5781 288.112L42.4375 291.525C42.3438 291.806 42.0781 292 41.7737 292H41C40.4456 292 40 292.444 40 293C40 293.556 40.4456 294 41 294H41.7737C42.9375 294 43.9694 293.257 44.3363 292.156L45 290.163L46.0562 293.312C46.1812 293.703 46.525 293.969 46.9312 294H47C47.3749 294 47.7263 293.789 47.8906 293.445L48.375 292.484C48.5469 292.14 48.8672 292.101 49 292.101C49.1328 292.101 49.4531 292.14 49.6325 292.507C50.0938 293.431 51.025 294 52.05 294H55C55.5547 294 56 293.555 56 293C56 292.445 55.5562 292 55 292Z" fill="#D3D5DB"></path><path opacity="0.4" d="M52 268H39C37.3431 268 36 269.343 36 271V297C36 298.656 37.3431 300 39 300H57C58.6569 300 60 298.657 60 297V276H52V268ZM40 272.5C40 272.227 40.2269 272 40.5 272H45.5C45.775 272 46 272.227 46 272.5V273.5C46 273.774 45.775 274 45.5 274H40.5C40.2269 274 40 273.774 40 273.5V272.5ZM40 276.5C40 276.225 40.2269 276 40.5 276H45.5C45.775 276 46 276.225 46 276.5V277.5C46 277.775 45.775 278 45.5 278H40.5C40.2269 278 40 277.775 40 277.5V276.5ZM51.4125 291.594C51.5375 291.844 51.7875 292 52.045 292H55C55.5547 292 56 292.445 56 293C56 293.555 55.5562 294 55 294H52.0469C51.0231 294 50.0938 293.43 49.6325 292.507C49.4528 292.14 49.1325 292.101 49 292.101C48.8675 292.101 48.5469 292.14 48.375 292.484L47.8906 293.445C47.725 293.788 47.3188 294 47 294H46.9312C46.525 293.969 46.1812 293.703 46.0562 293.312L45 290.163L44.3375 292.156C43.9687 293.256 42.9375 294 41.7737 294H41C40.4456 294 40 293.556 40 293C40 292.444 40.4456 292 41 292H41.7737C42.0784 292 42.3441 291.805 42.4375 291.523L43.5781 288.109C43.7812 287.494 44.35 287.081 45 287.081C45.65 287.081 46.2188 287.495 46.4219 288.112L47.2894 290.714C48.525 289.694 50.675 290.1 51.4125 291.594Z" fill="#D3D5DB"></path><path d="M73.9787 281L74.9134 278.305H78.8906L79.8203 281H81.451L77.7869 270.818H76.0121L72.348 281H73.9787ZM75.3608 277.013L76.8622 272.668H76.9418L78.4432 277.013H75.3608ZM85.7967 284.023C87.7406 284.023 89.242 283.133 89.242 281.169V273.364H87.7853V274.602H87.6759C87.4124 274.129 86.8855 273.264 85.4636 273.264C83.6191 273.264 82.2619 274.721 82.2619 277.152C82.2619 279.588 83.649 280.886 85.4536 280.886C86.8556 280.886 87.3975 280.095 87.666 279.608H87.7605V281.109C87.7605 282.308 86.9401 282.825 85.8116 282.825C84.5737 282.825 84.0914 282.203 83.8279 281.766L82.5502 282.293C82.9529 283.227 83.9721 284.023 85.7967 284.023ZM85.7818 279.653C84.4544 279.653 83.7633 278.634 83.7633 277.132C83.7633 275.665 84.4394 274.527 85.7818 274.527C87.0794 274.527 87.7754 275.586 87.7754 277.132C87.7754 278.708 87.0644 279.653 85.7818 279.653ZM91.1516 281H92.6381V276.337C92.6381 275.337 93.4087 274.616 94.4627 274.616C94.7709 274.616 95.1189 274.671 95.2383 274.706V273.284C95.0891 273.264 94.7958 273.249 94.6069 273.249C93.712 273.249 92.9463 273.756 92.6679 274.577H92.5884V273.364H91.1516V281ZM99.4584 281.154C101.124 281.154 102.302 280.334 102.64 279.091L101.233 278.837C100.965 279.558 100.318 279.926 99.4733 279.926C98.2006 279.926 97.3455 279.101 97.3057 277.629H102.735V277.102C102.735 274.343 101.084 273.264 99.354 273.264C97.2262 273.264 95.8242 274.885 95.8242 277.232C95.8242 279.603 97.2063 281.154 99.4584 281.154ZM97.3107 276.516C97.3703 275.432 98.1558 274.492 99.3639 274.492C100.517 274.492 101.273 275.347 101.278 276.516H97.3107ZM107.591 281.154C109.257 281.154 110.435 280.334 110.773 279.091L109.366 278.837C109.098 279.558 108.451 279.926 107.606 279.926C106.333 279.926 105.478 279.101 105.439 277.629H110.867V277.102C110.867 274.343 109.217 273.264 107.487 273.264C105.359 273.264 103.957 274.885 103.957 277.232C103.957 279.603 105.339 281.154 107.591 281.154ZM105.443 276.516C105.503 275.432 106.289 274.492 107.497 274.492C108.65 274.492 109.406 275.347 109.411 276.516H105.443ZM112.433 281H113.919V276.292C113.919 275.263 114.64 274.547 115.485 274.547C116.311 274.547 116.882 275.094 116.882 275.924V281H118.364V276.133C118.364 275.213 118.926 274.547 119.895 274.547C120.681 274.547 121.327 274.984 121.327 276.018V281H122.813V275.879C122.813 274.134 121.839 273.264 120.457 273.264C119.358 273.264 118.533 273.791 118.165 274.607H118.086C117.752 273.771 117.051 273.264 116.032 273.264C115.023 273.264 114.272 273.766 113.954 274.607H113.86V273.364H112.433V281ZM128.013 281.154C129.679 281.154 130.857 280.334 131.195 279.091L129.788 278.837C129.519 279.558 128.873 279.926 128.028 279.926C126.755 279.926 125.9 279.101 125.86 277.629H131.289V277.102C131.289 274.343 129.639 273.264 127.909 273.264C125.781 273.264 124.379 274.885 124.379 277.232C124.379 279.603 125.761 281.154 128.013 281.154ZM125.865 276.516C125.925 275.432 126.71 274.492 127.919 274.492C129.072 274.492 129.828 275.347 129.833 276.516H125.865ZM134.341 276.466C134.341 275.248 135.087 274.552 136.121 274.552C137.13 274.552 137.742 275.213 137.742 276.322V281H139.228V276.143C139.228 274.254 138.189 273.264 136.628 273.264C135.48 273.264 134.729 273.796 134.376 274.607H134.281V273.364H132.855V281H134.341V276.466ZM144.702 273.364H143.136V271.534H141.65V273.364H140.531V274.557H141.65V279.066C141.645 280.453 142.704 281.124 143.877 281.099C144.349 281.094 144.668 281.005 144.842 280.94L144.573 279.712C144.474 279.732 144.29 279.777 144.051 279.777C143.569 279.777 143.136 279.618 143.136 278.758V274.557H144.702V273.364ZM153.101 281.154C155.253 281.154 156.66 279.578 156.66 277.217C156.66 274.84 155.253 273.264 153.101 273.264C150.948 273.264 149.541 274.84 149.541 277.217C149.541 279.578 150.948 281.154 153.101 281.154ZM153.105 279.906C151.699 279.906 151.042 278.678 151.042 277.212C151.042 275.75 151.699 274.507 153.105 274.507C154.503 274.507 155.159 275.75 155.159 277.212C155.159 278.678 154.503 279.906 153.105 279.906ZM161.87 273.364H160.224V272.678C160.224 272.001 160.502 271.634 161.228 271.634C161.537 271.634 161.755 271.703 161.895 271.748L162.243 270.545C162.034 270.465 161.601 270.341 161 270.341C159.792 270.341 158.733 271.047 158.733 272.479V273.364H157.554V274.557H158.733V281H160.224V274.557H161.87V273.364ZM166.94 283.864H168.427V279.812H168.516C168.785 280.299 169.332 281.149 170.724 281.149C172.573 281.149 173.916 279.668 173.916 277.197C173.916 274.721 172.553 273.264 170.709 273.264C169.292 273.264 168.78 274.129 168.516 274.602H168.392V273.364H166.94V283.864ZM168.397 277.182C168.397 275.586 169.093 274.527 170.391 274.527C171.738 274.527 172.414 275.665 172.414 277.182C172.414 278.713 171.718 279.881 170.391 279.881C169.113 279.881 168.397 278.788 168.397 277.182ZM180.334 277.833C180.339 279.131 179.375 279.747 178.54 279.747C177.62 279.747 176.984 279.081 176.984 278.042V273.364H175.497V278.221C175.497 280.115 176.536 281.099 178.003 281.099C179.151 281.099 179.932 280.493 180.285 279.678H180.364V281H181.826V273.364H180.334V277.833ZM183.739 281H185.226V276.337C185.226 275.337 185.996 274.616 187.05 274.616C187.359 274.616 187.707 274.671 187.826 274.706V273.284C187.677 273.264 187.383 273.249 187.195 273.249C186.3 273.249 185.534 273.756 185.256 274.577H185.176V273.364H183.739V281ZM191.972 281.154C193.776 281.154 194.945 280.07 195.109 278.584H193.662C193.473 279.409 192.832 279.896 191.981 279.896C190.724 279.896 189.913 278.847 189.913 277.182C189.913 275.546 190.739 274.517 191.981 274.517C192.926 274.517 193.503 275.114 193.662 275.83H195.109C194.949 274.288 193.692 273.264 191.957 273.264C189.804 273.264 188.412 274.885 188.412 277.217C188.412 279.518 189.754 281.154 191.972 281.154ZM198.101 276.466C198.101 275.248 198.871 274.552 199.93 274.552C200.954 274.552 201.566 275.203 201.566 276.322V281H203.052V276.143C203.052 274.239 202.008 273.264 200.437 273.264C199.249 273.264 198.533 273.781 198.175 274.607H198.081V270.818H196.614V281H198.101V276.466ZM207.174 281.169C208.437 281.169 209.148 280.528 209.432 279.956H209.491V281H210.943V275.929C210.943 273.707 209.193 273.264 207.98 273.264C206.598 273.264 205.325 273.821 204.828 275.213L206.225 275.531C206.444 274.989 207 274.467 208 274.467C208.959 274.467 209.451 274.969 209.451 275.835V275.869C209.451 276.411 208.895 276.401 207.522 276.56C206.076 276.729 204.594 277.107 204.594 278.842C204.594 280.344 205.723 281.169 207.174 281.169ZM207.498 279.976C206.657 279.976 206.051 279.598 206.051 278.862C206.051 278.067 206.757 277.783 207.617 277.669C208.099 277.604 209.243 277.475 209.456 277.261V278.246C209.456 279.151 208.736 279.976 207.498 279.976ZM218.561 275.228C218.253 274.04 217.323 273.264 215.673 273.264C213.948 273.264 212.724 274.174 212.724 275.526C212.724 276.61 213.381 277.331 214.813 277.649L216.105 277.933C216.841 278.097 217.184 278.425 217.184 278.902C217.184 279.494 216.553 279.956 215.578 279.956C214.688 279.956 214.117 279.573 213.938 278.822L212.501 279.041C212.749 280.393 213.873 281.154 215.588 281.154C217.433 281.154 218.71 280.175 218.71 278.793C218.71 277.714 218.024 277.048 216.622 276.724L215.409 276.446C214.569 276.247 214.206 275.964 214.211 275.447C214.206 274.86 214.842 274.442 215.688 274.442C216.612 274.442 217.04 274.955 217.214 275.467L218.561 275.228ZM223.552 281.154C225.217 281.154 226.396 280.334 226.734 279.091L225.327 278.837C225.058 279.558 224.412 279.926 223.567 279.926C222.294 279.926 221.439 279.101 221.399 277.629H226.828V277.102C226.828 274.343 225.178 273.264 223.447 273.264C221.32 273.264 219.918 274.885 219.918 277.232C219.918 279.603 221.3 281.154 223.552 281.154ZM221.404 276.516C221.464 275.432 222.249 274.492 223.457 274.492C224.611 274.492 225.367 275.347 225.371 276.516H221.404ZM238.015 276.053H231.015V277.341H238.015V276.053ZM248.224 273.493H249.706C249.661 271.862 248.219 270.679 246.151 270.679C244.108 270.679 242.542 271.847 242.542 273.602C242.542 275.019 243.556 275.849 245.192 276.292L246.395 276.62C247.483 276.908 248.324 277.266 248.324 278.171C248.324 279.165 247.374 279.822 246.067 279.822C244.883 279.822 243.899 279.295 243.809 278.186H242.268C242.368 280.031 243.795 281.169 246.077 281.169C248.468 281.169 249.845 279.911 249.845 278.186C249.845 276.352 248.209 275.641 246.917 275.322L245.922 275.064C245.127 274.86 244.068 274.487 244.073 273.513C244.073 272.648 244.863 272.006 246.116 272.006C247.285 272.006 248.115 272.553 248.224 273.493ZM251.477 281H252.964V276.292C252.964 275.263 253.685 274.547 254.53 274.547C255.355 274.547 255.927 275.094 255.927 275.924V281H257.409V276.133C257.409 275.213 257.97 274.547 258.94 274.547C259.725 274.547 260.372 274.984 260.372 276.018V281H261.858V275.879C261.858 274.134 260.884 273.264 259.502 273.264C258.403 273.264 257.578 273.791 257.21 274.607H257.13C256.797 273.771 256.096 273.264 255.077 273.264C254.068 273.264 253.317 273.766 252.999 274.607H252.904V273.364H251.477V281ZM265.989 281.169C267.252 281.169 267.962 280.528 268.246 279.956H268.306V281H269.757V275.929C269.757 273.707 268.007 273.264 266.794 273.264C265.412 273.264 264.139 273.821 263.642 275.213L265.039 275.531C265.258 274.989 265.815 274.467 266.814 274.467C267.774 274.467 268.266 274.969 268.266 275.835V275.869C268.266 276.411 267.709 276.401 266.337 276.56C264.89 276.729 263.409 277.107 263.409 278.842C263.409 280.344 264.537 281.169 265.989 281.169ZM266.312 279.976C265.472 279.976 264.865 279.598 264.865 278.862C264.865 278.067 265.571 277.783 266.431 277.669C266.913 277.604 268.057 277.475 268.271 277.261V278.246C268.271 279.151 267.55 279.976 266.312 279.976ZM271.653 281H273.14V276.337C273.14 275.337 273.91 274.616 274.964 274.616C275.272 274.616 275.62 274.671 275.74 274.706V273.284C275.591 273.264 275.297 273.249 275.108 273.249C274.214 273.249 273.448 273.756 273.169 274.577H273.09V273.364H271.653V281ZM280.958 273.364H279.392V271.534H277.905V273.364H276.787V274.557H277.905V279.066C277.9 280.453 278.959 281.124 280.133 281.099C280.605 281.094 280.923 281.005 281.097 280.94L280.829 279.712C280.729 279.732 280.545 279.777 280.307 279.777C279.824 279.777 279.392 279.618 279.392 278.758V274.557H280.958V273.364ZM288.191 273.493H289.672C289.628 271.862 288.186 270.679 286.118 270.679C284.074 270.679 282.508 271.847 282.508 273.602C282.508 275.019 283.523 275.849 285.158 276.292L286.361 276.62C287.45 276.908 288.29 277.266 288.29 278.171C288.29 279.165 287.341 279.822 286.033 279.822C284.85 279.822 283.866 279.295 283.776 278.186H282.235C282.334 280.031 283.761 281.169 286.043 281.169C288.435 281.169 289.812 279.911 289.812 278.186C289.812 276.352 288.176 275.641 286.883 275.322L285.889 275.064C285.094 274.86 284.035 274.487 284.04 273.513C284.04 272.648 284.83 272.006 286.083 272.006C287.251 272.006 288.082 272.553 288.191 273.493ZM302.075 274.035H303.651C303.308 272.051 301.613 270.679 299.415 270.679C296.78 270.679 294.856 272.663 294.856 275.914C294.856 279.136 296.726 281.139 299.485 281.139C301.956 281.139 303.721 279.518 303.721 276.948V275.79H299.719V277.058H302.234C302.199 278.698 301.116 279.737 299.485 279.737C297.69 279.737 296.383 278.38 296.383 275.904C296.383 273.438 297.7 272.081 299.425 272.081C300.778 272.081 301.692 272.827 302.075 274.035ZM305.468 281H306.954V276.292C306.954 275.263 307.675 274.547 308.52 274.547C309.345 274.547 309.917 275.094 309.917 275.924V281H311.399V276.133C311.399 275.213 311.96 274.547 312.93 274.547C313.715 274.547 314.362 274.984 314.362 276.018V281H315.848V275.879C315.848 274.134 314.874 273.264 313.492 273.264C312.393 273.264 311.568 273.791 311.2 274.607H311.12C310.787 273.771 310.086 273.264 309.067 273.264C308.058 273.264 307.307 273.766 306.989 274.607H306.894V273.364H305.468V281ZM317.876 281H319.328V279.812H319.452C319.72 280.299 320.267 281.149 321.659 281.149C323.509 281.149 324.851 279.668 324.851 277.197C324.851 274.721 323.489 273.264 321.644 273.264C320.227 273.264 319.715 274.129 319.452 274.602H319.362V270.818H317.876V281ZM319.333 277.182C319.333 275.586 320.029 274.527 321.326 274.527C322.673 274.527 323.35 275.665 323.35 277.182C323.35 278.713 322.654 279.881 321.326 279.881C320.048 279.881 319.333 278.788 319.333 277.182ZM326.556 281H328.092V276.56H333.168V281H334.709V270.818H333.168V275.243H328.092V270.818H326.556V281ZM340.797 275.909C340.797 278.405 341.463 280.483 342.725 282.253H344.088C343.108 280.94 342.338 278.276 342.338 275.909C342.338 273.548 343.108 270.883 344.088 269.57H342.725C341.463 271.34 340.797 273.418 340.797 275.909ZM345.551 281H352.253V279.683H347.669V279.608L349.692 277.49C351.557 275.606 352.089 274.706 352.089 273.567C352.089 271.932 350.756 270.679 348.837 270.679C346.933 270.679 345.541 271.912 345.541 273.771H347.008C347.003 272.678 347.709 271.962 348.807 271.962C349.842 271.962 350.627 272.598 350.627 273.612C350.627 274.512 350.09 275.158 348.996 276.317L345.551 279.886V281ZM357.598 281.169C359.949 281.169 361.326 279.25 361.326 275.914C361.326 272.603 359.929 270.679 357.598 270.679C355.261 270.679 353.869 272.598 353.864 275.914C353.864 279.245 355.241 281.164 357.598 281.169ZM357.598 279.842C356.221 279.842 355.39 278.46 355.39 275.914C355.395 273.379 356.226 271.982 357.598 271.982C358.965 271.982 359.8 273.379 359.8 275.914C359.8 278.46 358.97 279.842 357.598 279.842ZM363.006 281H369.708V279.683H365.124V279.608L367.147 277.49C369.012 275.606 369.544 274.706 369.544 273.567C369.544 271.932 368.211 270.679 366.292 270.679C364.388 270.679 362.996 271.912 362.996 273.771H364.463C364.458 272.678 365.164 271.962 366.263 271.962C367.297 271.962 368.082 272.598 368.082 273.612C368.082 274.512 367.545 275.158 366.451 276.317L363.006 279.886V281ZM375.371 270.818H373.875L371.334 272.479V273.95L373.77 272.359H373.83V281H375.371V270.818ZM380.92 275.914C380.92 273.418 380.254 271.34 378.991 269.57H377.629C378.608 270.883 379.379 273.548 379.379 275.914C379.379 278.276 378.608 280.94 377.629 282.253H378.991C380.254 280.483 380.92 278.405 380.92 275.914Z" fill="#282A2E"></path><path d="M77.8295 293.455H78.8523C78.8054 292.138 77.5909 291.153 75.9034 291.153C74.233 291.153 72.9205 292.125 72.9205 293.591C72.9205 294.767 73.7727 295.466 75.1364 295.858L76.2102 296.165C77.1307 296.42 77.9489 296.744 77.9489 297.614C77.9489 298.568 77.0284 299.199 75.8182 299.199C74.7784 299.199 73.858 298.739 73.7727 297.75H72.6818C72.7841 299.182 73.9432 300.153 75.8182 300.153C77.8295 300.153 78.9716 299.045 78.9716 297.631C78.9716 295.994 77.4205 295.466 76.517 295.227L75.6307 294.989C74.983 294.818 73.9432 294.477 73.9432 293.54C73.9432 292.705 74.7102 292.091 75.8693 292.091C76.9261 292.091 77.7273 292.594 77.8295 293.455ZM82.4989 300.153C83.641 300.153 84.2376 299.54 84.4421 299.114H84.4933V300H85.4989V295.688C85.4989 293.608 83.9137 293.369 83.0785 293.369C82.0898 293.369 80.9648 293.71 80.4535 294.903L81.408 295.244C81.6296 294.767 82.1538 294.256 83.1126 294.256C84.0373 294.256 84.4933 294.746 84.4933 295.585V295.619C84.4933 296.105 83.9989 296.062 82.8058 296.216C81.5913 296.374 80.266 296.642 80.266 298.142C80.266 299.42 81.2546 300.153 82.4989 300.153ZM82.6523 299.25C81.8512 299.25 81.2717 298.892 81.2717 298.193C81.2717 297.426 81.9705 297.188 82.7546 297.085C83.1808 297.034 84.3228 296.915 84.4933 296.71V297.631C84.4933 298.449 83.8455 299.25 82.6523 299.25ZM88.3402 291.273H87.3345V300H88.3402V291.273ZM92.9265 300.136C94.256 300.136 95.2276 299.472 95.5344 298.483L94.5629 298.21C94.3072 298.892 93.7148 299.233 92.9265 299.233C91.7461 299.233 90.9322 298.47 90.8853 297.068H95.6367V296.642C95.6367 294.205 94.1879 293.369 92.8242 293.369C91.0515 293.369 89.8754 294.767 89.8754 296.778C89.8754 298.79 91.0344 300.136 92.9265 300.136ZM90.8853 296.199C90.9535 295.18 91.6737 294.273 92.8242 294.273C93.9151 294.273 94.614 295.091 94.614 296.199H90.8853ZM101.803 294.92C101.488 293.991 100.78 293.369 99.4847 293.369C98.104 293.369 97.0813 294.153 97.0813 295.261C97.0813 296.165 97.6183 296.77 98.82 297.051L99.9109 297.307C100.571 297.46 100.882 297.776 100.882 298.227C100.882 298.79 100.286 299.25 99.3484 299.25C98.5259 299.25 98.0103 298.896 97.8313 298.193L96.8768 298.432C97.1112 299.544 98.0273 300.136 99.3654 300.136C100.887 300.136 101.922 299.305 101.922 298.176C101.922 297.264 101.351 296.689 100.184 296.403L99.212 296.165C98.4364 295.973 98.087 295.713 98.087 295.21C98.087 294.648 98.6836 294.239 99.4847 294.239C100.363 294.239 100.725 294.724 100.9 295.176L101.803 294.92Z" fill="#676D7A"></path></g><defs><filter id="filter0_d" x="0" y="0" width="664" height="484" color-interpolation-filters="sRGB"><feFlood flood-opacity="0" result="BackgroundImageFix"></feFlood><feColorMatrix in="SourceAlpha" type="matrix" values="0 0 0 0 0 0 0 0 0 0 0 0 0 0 0 0 0 0 127 0" result="hardAlpha"></feColorMatrix><feMorphology radius="16" operator="erode" in="SourceAlpha" result="effect1_dropShadow"></feMorphology><feOffset dy="12"></feOffset><feGaussianBlur stdDeviation="12"></feGaussianBlur><feColorMatrix type="matrix" values="0 0 0 0 0 0 0 0 0 0 0 0 0 0 0 0 0 0 0.08 0"></feColorMatrix><feBlend mode="normal" in2="BackgroundImageFix" result="effect1_dropShadow"></feBlend><feBlend mode="normal" in="SourceGraphic" in2="effect1_dropShadow" result="shape"></feBlend></filter></defs></svg> 