<?xml version="1.0" encoding="UTF-8"?> <svg xmlns="http://www.w3.org/2000/svg" width="16" height="16" viewBox="0 0 16 16" fill="none"><path d="M10.5 6.49934L7.846 10.038C7.803 10.0953 7.7482 10.1426 7.68532 10.1769C7.62243 10.2111 7.55293 10.2314 7.4815 10.2365C7.41007 10.2416 7.33839 10.2312 7.27131 10.2062C7.20423 10.1811 7.1433 10.142 7.09267 10.0913L5.5 8.49934" stroke="#646C7A" stroke-linecap="round" stroke-linejoin="round"></path><path d="M7.15331 0.904667C7.25515 0.778087 7.38408 0.675952 7.5306 0.605778C7.67713 0.535603 7.83752 0.499176 7.99998 0.499176C8.16244 0.499176 8.32284 0.535603 8.46936 0.605778C8.61589 0.675952 8.74481 0.778087 8.84665 0.904667L9.85465 2.15867C9.96881 2.30093 10.117 2.41215 10.2854 2.48206C10.4539 2.55197 10.6373 2.57832 10.8186 2.55867L12.4186 2.38467C12.5806 2.36667 12.7446 2.38534 12.8983 2.43929C13.0521 2.49323 13.1918 2.58107 13.307 2.6963C13.4222 2.81153 13.5101 2.95121 13.564 3.10498C13.618 3.25876 13.6366 3.4227 13.6186 3.58467L13.4446 5.18467C13.425 5.36601 13.4513 5.54939 13.5213 5.71787C13.5912 5.88635 13.7024 6.03451 13.8446 6.14867L15.0986 7.15667C15.2252 7.25851 15.3274 7.38743 15.3975 7.53395C15.4677 7.68048 15.5041 7.84087 15.5041 8.00333C15.5041 8.1658 15.4677 8.32619 15.3975 8.47271C15.3274 8.61924 15.2252 8.74816 15.0986 8.85L13.8406 9.85333C13.6984 9.96768 13.5872 10.116 13.5173 10.2845C13.4474 10.4531 13.4211 10.6366 13.4406 10.818L13.6146 12.418C13.6328 12.58 13.6142 12.744 13.5603 12.8978C13.5064 13.0517 13.4186 13.1914 13.3033 13.3066C13.188 13.4219 13.0483 13.5097 12.8945 13.5636C12.7406 13.6175 12.5766 13.6361 12.4146 13.618L10.8146 13.444C10.6333 13.4243 10.4499 13.4506 10.2814 13.5205C10.1129 13.5904 9.96477 13.7017 9.85065 13.844L8.84665 15.0933C8.74488 15.22 8.61598 15.3223 8.46945 15.3925C8.32291 15.4628 8.16248 15.4992 7.99998 15.4992C7.83748 15.4992 7.67705 15.4628 7.53052 15.3925C7.38398 15.3223 7.25508 15.22 7.15331 15.0933L6.14598 13.84C6.03168 13.6977 5.8834 13.5865 5.71481 13.5166C5.54623 13.4467 5.36276 13.4204 5.18132 13.44L3.58132 13.614C3.4193 13.6323 3.25524 13.6138 3.10135 13.5599C2.94746 13.5061 2.80767 13.4182 2.69238 13.3029C2.57709 13.1876 2.48926 13.0479 2.43541 12.894C2.38155 12.7401 2.36307 12.576 2.38132 12.414L2.55532 10.814C2.57496 10.6326 2.54861 10.4491 2.47871 10.2805C2.4088 10.1119 2.29759 9.96364 2.15532 9.84933L0.901982 8.842C0.775293 8.74023 0.673057 8.61133 0.602809 8.4648C0.532562 8.31827 0.496094 8.15784 0.496094 7.99533C0.496094 7.83283 0.532562 7.6724 0.602809 7.52587C0.673057 7.37934 0.775293 7.25043 0.901982 7.14867L2.15532 6.14067C2.29763 6.02655 2.40888 5.8784 2.4788 5.70991C2.54871 5.54141 2.57503 5.35802 2.55532 5.17667L2.38132 3.57667C2.36319 3.41467 2.38177 3.25068 2.43567 3.09684C2.48957 2.94301 2.5774 2.80328 2.69267 2.68802C2.80793 2.57276 2.94766 2.48492 3.10149 2.43102C3.25533 2.37712 3.41932 2.35855 3.58132 2.37667L5.18132 2.55067C5.36275 2.57025 5.5462 2.54387 5.71478 2.47397C5.88335 2.40407 6.03164 2.29289 6.14598 2.15067L7.15331 0.904667Z" stroke="#646C7A" stroke-linecap="round" stroke-linejoin="round"></path></svg> 