<?xml version="1.0" encoding="UTF-8"?> <svg xmlns="http://www.w3.org/2000/svg" width="264" height="160" viewBox="0 0 264 160" fill="none"><rect x="1" y="1" width="22" height="22" rx="11" stroke="#CED4E0" stroke-width="2"></rect><rect x="33" y="1" width="230" height="22" rx="3" stroke="#CED4E0" stroke-width="2"></rect><rect x="1" y="33" width="22" height="22" rx="11" stroke="#CED4E0" stroke-width="2"></rect><rect x="33" y="33" width="230" height="22" rx="3" stroke="#CED4E0" stroke-width="2"></rect><rect x="1" y="65" width="22" height="22" rx="11" stroke="#EBA63D" stroke-width="2"></rect><path d="M45.9787 91L46.9134 88.3054H50.8906L51.8203 91H53.451L49.7869 80.8182H48.0121L44.348 91H45.9787ZM47.3608 87.0128L48.8622 82.6676H48.9418L50.4432 87.0128H47.3608ZM57.5376 91.1491C58.9297 91.1491 59.4766 90.299 59.745 89.8118H59.8693V91H61.321V80.8182H59.8345V84.6016H59.745C59.4766 84.1293 58.9695 83.2642 57.5476 83.2642C55.7031 83.2642 54.3459 84.7209 54.3459 87.1967C54.3459 89.6676 55.6832 91.1491 57.5376 91.1491ZM57.8658 89.8814C56.5384 89.8814 55.8473 88.7131 55.8473 87.1818C55.8473 85.6655 56.5234 84.527 57.8658 84.527C59.1634 84.527 59.8594 85.5859 59.8594 87.1818C59.8594 88.7876 59.1484 89.8814 57.8658 89.8814ZM66.3013 91.1491C67.6934 91.1491 68.2402 90.299 68.5087 89.8118H68.633V91H70.0847V80.8182H68.5982V84.6016H68.5087C68.2402 84.1293 67.7331 83.2642 66.3113 83.2642C64.4668 83.2642 63.1096 84.7209 63.1096 87.1967C63.1096 89.6676 64.4469 91.1491 66.3013 91.1491ZM66.6294 89.8814C65.302 89.8814 64.611 88.7131 64.611 87.1818C64.611 85.6655 65.2871 84.527 66.6294 84.527C67.927 84.527 68.623 85.5859 68.623 87.1818C68.623 88.7876 67.9121 89.8814 66.6294 89.8814ZM78.1337 91.169C79.3965 91.169 80.1074 90.5277 80.3908 89.956H80.4505V91H81.9022V85.929C81.9022 83.7067 80.1522 83.2642 78.9391 83.2642C77.557 83.2642 76.2843 83.821 75.7871 85.2131L77.1841 85.5312C77.4029 84.9893 77.9597 84.4673 78.959 84.4673C79.9185 84.4673 80.4107 84.9695 80.4107 85.8345V85.8693C80.4107 86.4112 79.8539 86.4013 78.4817 86.5604C77.035 86.7294 75.5534 87.1072 75.5534 88.8423C75.5534 90.3438 76.682 91.169 78.1337 91.169ZM78.4569 89.9759C77.6167 89.9759 77.0101 89.598 77.0101 88.8622C77.0101 88.0668 77.7161 87.7834 78.5762 87.669C79.0584 87.6044 80.2019 87.4751 80.4157 87.2614V88.2457C80.4157 89.1506 79.6948 89.9759 78.4569 89.9759ZM90.8038 91.1541C92.6085 91.1541 93.7768 90.0703 93.9409 88.5838H92.4941C92.3052 89.4091 91.6639 89.8963 90.8137 89.8963C89.5559 89.8963 88.7456 88.8473 88.7456 87.1818C88.7456 85.5462 89.5708 84.517 90.8137 84.517C91.7583 84.517 92.335 85.1136 92.4941 85.8295H93.9409C93.7818 84.2884 92.524 83.2642 90.7889 83.2642C88.6362 83.2642 87.2441 84.8849 87.2441 87.2166C87.2441 89.5185 88.5865 91.1541 90.8038 91.1541ZM98.7472 91.1541C100.9 91.1541 102.307 89.5781 102.307 87.2166C102.307 84.8402 100.9 83.2642 98.7472 83.2642C96.5945 83.2642 95.1875 84.8402 95.1875 87.2166C95.1875 89.5781 96.5945 91.1541 98.7472 91.1541ZM98.7521 89.9062C97.3452 89.9062 96.6889 88.6783 96.6889 87.2116C96.6889 85.75 97.3452 84.5071 98.7521 84.5071C100.149 84.5071 100.805 85.75 100.805 87.2116C100.805 88.6783 100.149 89.9062 98.7521 89.9062ZM103.966 91H105.453V86.2919C105.453 85.2628 106.173 84.5469 107.019 84.5469C107.844 84.5469 108.416 85.0938 108.416 85.924V91H109.897V86.1328C109.897 85.2131 110.459 84.5469 111.428 84.5469C112.214 84.5469 112.86 84.9844 112.86 86.0185V91H114.347V85.8793C114.347 84.1342 113.372 83.2642 111.99 83.2642C110.892 83.2642 110.066 83.7912 109.698 84.6065H109.619C109.286 83.7713 108.585 83.2642 107.566 83.2642C106.556 83.2642 105.806 83.7663 105.487 84.6065H105.393V83.3636H103.966V91ZM116.339 91H117.826V86.2919C117.826 85.2628 118.547 84.5469 119.392 84.5469C120.217 84.5469 120.789 85.0938 120.789 85.924V91H122.27V86.1328C122.27 85.2131 122.832 84.5469 123.801 84.5469C124.587 84.5469 125.233 84.9844 125.233 86.0185V91H126.72V85.8793C126.72 84.1342 125.745 83.2642 124.363 83.2642C123.265 83.2642 122.439 83.7912 122.071 84.6065H121.992C121.659 83.7713 120.958 83.2642 119.939 83.2642C118.929 83.2642 118.179 83.7663 117.86 84.6065H117.766V83.3636H116.339V91ZM132.003 91.1541C133.669 91.1541 134.847 90.3338 135.185 89.0909L133.778 88.8374C133.51 89.5582 132.863 89.9261 132.018 89.9261C130.746 89.9261 129.89 89.1009 129.851 87.6293H135.28V87.1023C135.28 84.343 133.629 83.2642 131.899 83.2642C129.771 83.2642 128.369 84.8849 128.369 87.2315C128.369 89.603 129.751 91.1541 132.003 91.1541ZM129.856 86.5156C129.915 85.4318 130.701 84.4922 131.909 84.4922C133.062 84.4922 133.818 85.3473 133.823 86.5156H129.856ZM138.415 86.4659C138.415 85.2479 139.161 84.5518 140.195 84.5518C141.205 84.5518 141.816 85.2131 141.816 86.3217V91H143.303V86.1428C143.303 84.2536 142.263 83.2642 140.702 83.2642C139.554 83.2642 138.803 83.7962 138.45 84.6065H138.356V83.3636H136.929V91H138.415V86.4659ZM148.861 83.3636H147.295V81.5341H145.808V83.3636H144.69V84.5568H145.808V89.0661C145.803 90.4531 146.862 91.1243 148.036 91.0994C148.508 91.0945 148.826 91.005 149 90.9403L148.732 89.7124C148.632 89.7322 148.448 89.777 148.21 89.777C147.727 89.777 147.295 89.6179 147.295 88.7578V84.5568H148.861V83.3636ZM151.499 91.0945C152.041 91.0945 152.494 90.652 152.494 90.1001C152.494 89.5582 152.041 89.1108 151.499 89.1108C150.953 89.1108 150.505 89.5582 150.505 90.1001C150.505 90.652 150.953 91.0945 151.499 91.0945ZM155.213 91.0945C155.755 91.0945 156.208 90.652 156.208 90.1001C156.208 89.5582 155.755 89.1108 155.213 89.1108C154.666 89.1108 154.219 89.5582 154.219 90.1001C154.219 90.652 154.666 91.0945 155.213 91.0945ZM158.932 91.0945C159.474 91.0945 159.926 90.652 159.926 90.1001C159.926 89.5582 159.474 89.1108 158.932 89.1108C158.385 89.1108 157.938 89.5582 157.938 90.1001C157.938 90.652 158.385 91.0945 158.932 91.0945Z" fill="#EBA63D"></path><rect x="33" y="65" width="230" height="78" rx="3" stroke="#EBA63D" stroke-width="2"></rect></svg> 