<?xml version="1.0" encoding="UTF-8"?> <svg xmlns="http://www.w3.org/2000/svg" width="264" height="160" viewBox="0 0 264 160" fill="none"><rect x="1" y="1" width="150" height="30" rx="3" stroke="#CED4E0" stroke-width="2"></rect><rect x="165" y="1" width="54" height="30" rx="3" stroke="#CED4E0" stroke-width="2"></rect><rect x="233" y="1" width="30" height="30" rx="15" stroke="#CED4E0" stroke-width="2"></rect><rect x="1" y="41" width="150" height="30" rx="3" stroke="#3A72E0" stroke-width="2"></rect><path d="M183.92 53.4929H185.401C185.357 51.8622 183.915 50.679 181.847 50.679C179.803 50.679 178.237 51.8473 178.237 53.6023C178.237 55.0192 179.252 55.8494 180.887 56.2919L182.09 56.62C183.179 56.9084 184.019 57.2663 184.019 58.1712C184.019 59.1655 183.07 59.8217 181.762 59.8217C180.579 59.8217 179.595 59.2947 179.505 58.1861H177.964C178.063 60.0305 179.49 61.169 181.772 61.169C184.164 61.169 185.541 59.9112 185.541 58.1861C185.541 56.3516 183.905 55.6406 182.612 55.3224L181.618 55.0639C180.823 54.8601 179.764 54.4872 179.769 53.5128C179.769 52.6477 180.559 52.0064 181.812 52.0064C182.98 52.0064 183.811 52.5533 183.92 53.4929ZM187.257 61H188.744V53.3636H187.257V61ZM188.008 52.1854C188.52 52.1854 188.947 51.7876 188.947 51.3004C188.947 50.8132 188.52 50.4105 188.008 50.4105C187.491 50.4105 187.068 50.8132 187.068 51.3004C187.068 51.7876 187.491 52.1854 188.008 52.1854ZM193.945 64.0227C195.889 64.0227 197.39 63.1328 197.39 61.169V53.3636H195.934V54.6016H195.824C195.561 54.1293 195.034 53.2642 193.612 53.2642C191.768 53.2642 190.41 54.7209 190.41 57.152C190.41 59.5881 191.797 60.8857 193.602 60.8857C195.004 60.8857 195.546 60.0952 195.814 59.608H195.909V61.1094C195.909 62.3075 195.089 62.8246 193.96 62.8246C192.722 62.8246 192.24 62.2031 191.976 61.7656L190.699 62.2926C191.101 63.2273 192.121 64.0227 193.945 64.0227ZM193.93 59.6527C192.603 59.6527 191.912 58.6335 191.912 57.1321C191.912 55.6655 192.588 54.527 193.93 54.527C195.228 54.527 195.924 55.5859 195.924 57.1321C195.924 58.7081 195.213 59.6527 193.93 59.6527ZM200.871 56.4659C200.871 55.2479 201.616 54.5518 202.65 54.5518C203.66 54.5518 204.271 55.2131 204.271 56.3217V61H205.758V56.1428C205.758 54.2536 204.719 53.2642 203.157 53.2642C202.009 53.2642 201.258 53.7962 200.905 54.6065H200.811V53.3636H199.384V61H200.871V56.4659Z" fill="#3A72E0"></path><rect x="165" y="41" width="54" height="30" rx="3" stroke="#3A72E0" stroke-width="2"></rect><rect x="233" y="41" width="30" height="30" rx="15" stroke="#3A72E0" stroke-width="2"></rect><rect x="1" y="81" width="150" height="30" rx="3" stroke="#CED4E0" stroke-width="2"></rect><rect x="165" y="81" width="54" height="30" rx="3" stroke="#CED4E0" stroke-width="2"></rect><rect x="233" y="81" width="30" height="30" rx="15" stroke="#CED4E0" stroke-width="2"></rect><rect x="1" y="121" width="150" height="30" rx="3" stroke="#CED4E0" stroke-width="2"></rect><rect x="165" y="121" width="54" height="30" rx="3" stroke="#CED4E0" stroke-width="2"></rect><rect x="233" y="121" width="30" height="30" rx="15" stroke="#CED4E0" stroke-width="2"></rect></svg> 