<?xml version="1.0" encoding="UTF-8"?> <svg xmlns="http://www.w3.org/2000/svg" width="264" height="160" viewBox="0 0 264 160" fill="none"><rect x="1" y="1" width="262" height="38" rx="3" stroke="#CED4E0" stroke-width="2"></rect><rect x="1" y="49" width="262" height="38" rx="3" stroke="#CED4E0" stroke-width="2"></rect><path d="M45.5753 122.129C45.2273 119.952 43.522 118.679 41.3693 118.679C38.7344 118.679 36.7905 120.653 36.7905 123.909C36.7905 127.165 38.7244 129.139 41.3693 129.139C43.6065 129.139 45.2422 127.737 45.5753 125.724L44.0241 125.719C43.7607 127.021 42.6669 127.737 41.3793 127.737C39.6342 127.737 38.3168 126.4 38.3168 123.909C38.3168 121.438 39.6293 120.081 41.3842 120.081C42.6818 120.081 43.7706 120.812 44.0241 122.129H45.5753ZM50.5108 129.154C52.6635 129.154 54.0705 127.578 54.0705 125.217C54.0705 122.84 52.6635 121.264 50.5108 121.264C48.3581 121.264 46.9512 122.84 46.9512 125.217C46.9512 127.578 48.3581 129.154 50.5108 129.154ZM50.5158 127.906C49.1088 127.906 48.4526 126.678 48.4526 125.212C48.4526 123.75 49.1088 122.507 50.5158 122.507C51.9128 122.507 52.5691 123.75 52.5691 125.212C52.5691 126.678 51.9128 127.906 50.5158 127.906ZM57.2163 124.466C57.2163 123.248 57.962 122.552 58.9961 122.552C60.0053 122.552 60.6168 123.213 60.6168 124.322V129H62.1033V124.143C62.1033 122.254 61.0643 121.264 59.5032 121.264C58.3548 121.264 57.604 121.796 57.2511 122.607H57.1566V121.364H55.7298V129H57.2163V124.466ZM67.6616 121.364H66.0955V119.534H64.609V121.364H63.4904V122.557H64.609V127.066C64.604 128.453 65.663 129.124 66.8363 129.099C67.3086 129.094 67.6268 129.005 67.8008 128.94L67.5323 127.712C67.4329 127.732 67.2489 127.777 67.0103 127.777C66.5281 127.777 66.0955 127.618 66.0955 126.758V122.557H67.6616V121.364ZM69.3059 129H70.7924V124.337C70.7924 123.337 71.563 122.616 72.617 122.616C72.9252 122.616 73.2733 122.671 73.3926 122.706V121.284C73.2434 121.264 72.9501 121.249 72.7612 121.249C71.8663 121.249 71.1007 121.756 70.8223 122.577H70.7427V121.364H69.3059V129ZM76.8329 129.169C78.0957 129.169 78.8066 128.528 79.09 127.956H79.1497V129H80.6014V123.929C80.6014 121.707 78.8514 121.264 77.6383 121.264C76.2562 121.264 74.9835 121.821 74.4863 123.213L75.8833 123.531C76.1021 122.989 76.6589 122.467 77.6582 122.467C78.6177 122.467 79.1099 122.969 79.1099 123.835V123.869C79.1099 124.411 78.5531 124.401 77.1809 124.56C75.7342 124.729 74.2527 125.107 74.2527 126.842C74.2527 128.344 75.3812 129.169 76.8329 129.169ZM77.1561 127.976C76.3159 127.976 75.7093 127.598 75.7093 126.862C75.7093 126.067 76.4153 125.783 77.2754 125.669C77.7576 125.604 78.9011 125.475 79.1149 125.261V126.246C79.1149 127.151 78.394 127.976 77.1561 127.976ZM85.7979 129.154C87.6026 129.154 88.771 128.07 88.935 126.584H87.4883C87.2994 127.409 86.658 127.896 85.8079 127.896C84.5501 127.896 83.7397 126.847 83.7397 125.182C83.7397 123.546 84.565 122.517 85.8079 122.517C86.7525 122.517 87.3292 123.114 87.4883 123.83H88.935C88.7759 122.288 87.5181 121.264 85.783 121.264C83.6303 121.264 82.2383 122.885 82.2383 125.217C82.2383 127.518 83.5806 129.154 85.7979 129.154ZM94.0893 121.364H92.5233V119.534H91.0368V121.364H89.9181V122.557H91.0368V127.066C91.0318 128.453 92.0907 129.124 93.264 129.099C93.7363 129.094 94.0545 129.005 94.2285 128.94L93.96 127.712C93.8606 127.732 93.6767 127.777 93.438 127.777C92.9558 127.777 92.5233 127.618 92.5233 126.758V122.557H94.0893V121.364ZM99.4387 129H100.925V124.337C100.925 123.337 101.696 122.616 102.75 122.616C103.058 122.616 103.406 122.671 103.525 122.706V121.284C103.376 121.264 103.083 121.249 102.894 121.249C101.999 121.249 101.233 121.756 100.955 122.577H100.876V121.364H99.4387V129ZM107.83 129.154C109.495 129.154 110.673 128.334 111.011 127.091L109.604 126.837C109.336 127.558 108.69 127.926 107.844 127.926C106.572 127.926 105.717 127.101 105.677 125.629H111.106V125.102C111.106 122.343 109.455 121.264 107.725 121.264C105.597 121.264 104.195 122.885 104.195 125.232C104.195 127.603 105.577 129.154 107.83 129.154ZM105.682 124.516C105.741 123.432 106.527 122.492 107.735 122.492C108.888 122.492 109.644 123.347 109.649 124.516H105.682ZM114.242 124.466C114.242 123.248 114.987 122.552 116.021 122.552C117.031 122.552 117.642 123.213 117.642 124.322V129H119.129V124.143C119.129 122.254 118.09 121.264 116.529 121.264C115.38 121.264 114.629 121.796 114.276 122.607H114.182V121.364H112.755V129H114.242V124.466ZM124.414 129.154C126.079 129.154 127.257 128.334 127.595 127.091L126.188 126.837C125.92 127.558 125.274 127.926 124.428 127.926C123.156 127.926 122.301 127.101 122.261 125.629H127.69V125.102C127.69 122.343 126.039 121.264 124.309 121.264C122.181 121.264 120.779 122.885 120.779 125.232C120.779 127.603 122.161 129.154 124.414 129.154ZM122.266 124.516C122.325 123.432 123.111 122.492 124.319 122.492C125.472 122.492 126.228 123.347 126.233 124.516H122.266ZM130.981 129H132.492L134.044 123.487H134.158L135.709 129H137.225L139.468 121.364H137.931L136.445 126.947H136.37L134.879 121.364H133.343L131.841 126.972H131.767L130.27 121.364H128.734L130.981 129ZM143.1 129.169C144.363 129.169 145.074 128.528 145.358 127.956H145.417V129H146.869V123.929C146.869 121.707 145.119 121.264 143.906 121.264C142.524 121.264 141.251 121.821 140.754 123.213L142.151 123.531C142.37 122.989 142.926 122.467 143.926 122.467C144.885 122.467 145.377 122.969 145.377 123.835V123.869C145.377 124.411 144.821 124.401 143.449 124.56C142.002 124.729 140.52 125.107 140.52 126.842C140.52 128.344 141.649 129.169 143.1 129.169ZM143.424 127.976C142.583 127.976 141.977 127.598 141.977 126.862C141.977 126.067 142.683 125.783 143.543 125.669C144.025 125.604 145.169 125.475 145.382 125.261V126.246C145.382 127.151 144.662 127.976 143.424 127.976ZM150.335 118.818H148.849V129H150.335V118.818Z" fill="#6F4BEB"></path><path d="M20 130.5C23.3137 130.5 26 127.814 26 124.5C26 121.186 23.3137 118.5 20 118.5C16.6863 118.5 14 121.186 14 124.5C14 127.814 16.6863 130.5 20 130.5Z" stroke="#6F4BEB" stroke-width="2" stroke-linecap="round" stroke-linejoin="round"></path><path d="M16 131.5L16.924 129.653" stroke="#6F4BEB" stroke-width="2" stroke-linecap="round" stroke-linejoin="round"></path><path d="M19.9989 124.5H17.7383" stroke="#6F4BEB" stroke-width="2" stroke-linecap="round" stroke-linejoin="round"></path><path d="M20 121V124.5" stroke="#6F4BEB" stroke-width="2" stroke-linecap="round" stroke-linejoin="round"></path><path d="M13 118.5L15.5 116.5" stroke="#6F4BEB" stroke-width="2" stroke-linecap="round" stroke-linejoin="round"></path><path d="M24.0021 131.5L23.0781 129.652" stroke="#6F4BEB" stroke-width="2" stroke-linecap="round" stroke-linejoin="round"></path><path d="M27 118.5L24.5 116.5" stroke="#6F4BEB" stroke-width="2" stroke-linecap="round" stroke-linejoin="round"></path><rect x="1" y="105" width="262" height="38" rx="3" stroke="#6F4BEB" stroke-width="2"></rect></svg> 