<svg width="143" height="14" viewBox="0 0 143 14" fill="none" xmlns="http://www.w3.org/2000/svg">
<path d="M0 7.20403V7.05916C0 6.88794 0.145573 6.66405 0.277912 6.58503L10.0048 0.671575C10.3754 0.447681 10.7856 0.671575 10.7856 1.11936V2.75248C10.7856 3.00271 10.64 3.12125 10.5342 3.20027L4.18191 7.0855L10.5342 10.8654C10.64 10.9444 10.7856 11.0629 10.7856 11.3132V12.9463C10.7856 13.3941 10.3621 13.618 10.0048 13.3941L0.277912 7.67816C0.145573 7.59914 0 7.37524 0 7.20403Z" fill="#3574F6"/>
<path d="M14.3453 13.3019L19.5992 0.447745C19.6521 0.316042 19.7712 0.19751 19.9697 0.19751H22.0607C22.3121 0.19751 22.418 0.408234 22.2989 0.68481L17.0715 13.539C17.0185 13.6707 16.873 13.7892 16.7009 13.7892H14.5967C14.3453 13.7892 14.2262 13.5785 14.3453 13.3019Z" fill="white"/>
<path d="M25.7666 0.355597C25.7666 0.158043 25.9386 0 26.1372 0H26.4283C26.5606 0 26.6665 0.0395108 26.7591 0.131703L34.726 8.58702H34.7657V0.566322C34.7657 0.368768 34.9245 0.197554 35.1362 0.197554H36.936C37.1345 0.197554 37.3066 0.368768 37.3066 0.566322V13.6444C37.3066 13.842 37.1345 14 36.936 14H36.6581C36.5258 14 36.4199 13.9605 36.3273 13.8683L28.3207 5.07055H28.281V13.4205C28.281 13.6181 28.1222 13.7893 27.9105 13.7893H26.1372C25.9386 13.7893 25.7666 13.6181 25.7666 13.4205V0.355597Z" fill="white"/>
<path d="M42.5732 0.566277C42.5732 0.368723 42.7453 0.19751 42.9438 0.19751H44.7568C44.9686 0.19751 45.1274 0.368723 45.1274 0.566277V5.71585H51.4929V0.566277C51.4929 0.368723 51.6517 0.19751 51.8634 0.19751H53.6632C53.8618 0.19751 54.0338 0.368723 54.0338 0.566277V13.4205C54.0338 13.618 53.8618 13.7892 53.6632 13.7892H51.8634C51.6517 13.7892 51.4929 13.618 51.4929 13.4205V8.06016H45.1274V13.4205C45.1274 13.618 44.9686 13.7892 44.7568 13.7892H42.9438C42.7453 13.7892 42.5732 13.618 42.5732 13.4205V0.566277Z" fill="white"/>
<path d="M59.1553 0.566277C59.1553 0.368723 59.3273 0.19751 59.5258 0.19751H61.3786C61.5903 0.19751 61.7491 0.368723 61.7491 0.566277V8.66599C61.7491 10.3123 62.8872 11.4581 64.5812 11.4581C66.2751 11.4581 67.4265 10.3123 67.4265 8.67916V0.566277C67.4265 0.368723 67.5853 0.19751 67.797 0.19751H69.6498C69.8483 0.19751 70.0203 0.368723 70.0203 0.566277V8.7977C70.0203 11.7478 67.6647 13.9868 64.5812 13.9868C61.5109 13.9868 59.1553 11.7478 59.1553 8.7977V0.566277Z" fill="white"/>
<path d="M82.1692 6.91435C83.3073 7.30945 84.5116 8.2182 84.5116 10.0357C84.5116 12.2088 82.6324 13.7892 80.2503 13.7892H75.5258C75.3141 13.7892 75.1553 13.618 75.1553 13.4205V0.566277C75.1553 0.368723 75.3141 0.19751 75.5258 0.19751H79.9989C82.328 0.19751 84.1146 1.7516 84.1146 3.79299C84.1146 5.25489 83.175 6.32168 82.1692 6.82215V6.91435ZM79.8004 5.90024C80.7929 5.90024 81.4414 5.12319 81.4414 4.14859C81.4414 3.17399 80.8061 2.50231 79.8004 2.50231H77.6829V5.90024H79.8004ZM80.0783 11.4976C81.0576 11.4976 81.7987 10.7337 81.7987 9.73279C81.7987 8.75818 81.0576 8.04699 80.0783 8.04699H77.6829V11.5108H80.0783V11.4976Z" fill="white"/>
<path d="M96.1438 6.91435C97.282 7.30945 98.4862 8.2182 98.4862 10.0357C98.4862 12.2088 96.607 13.7892 94.2249 13.7892H89.5004C89.2887 13.7892 89.1299 13.618 89.1299 13.4205V0.566277C89.1299 0.368723 89.2887 0.19751 89.5004 0.19751H93.9735C96.3026 0.19751 98.0892 1.7516 98.0892 3.79299C98.0892 5.25489 97.1496 6.32168 96.1438 6.82215V6.91435ZM93.775 5.90024C94.7675 5.90024 95.416 5.12319 95.416 4.14859C95.416 3.17399 94.7807 2.50231 93.775 2.50231H91.6443V5.90024H93.775ZM94.0529 11.4976C95.0322 11.4976 95.7733 10.7337 95.7733 9.73279C95.7733 8.75818 95.0322 8.04699 94.0529 8.04699H91.6576V11.5108H94.0529V11.4976Z" fill="white"/>
<path d="M103.105 0.566277C103.105 0.368723 103.264 0.19751 103.476 0.19751H111.416C111.628 0.19751 111.787 0.368723 111.787 0.566277V2.15988C111.787 2.35743 111.628 2.52865 111.416 2.52865H105.633V5.71585H110.45C110.649 5.71585 110.821 5.88707 110.821 6.08462V7.69139C110.821 7.90212 110.649 8.06016 110.45 8.06016H105.633V11.4581H111.43C111.641 11.4581 111.8 11.6293 111.8 11.8269V13.4205C111.8 13.618 111.641 13.7892 111.43 13.7892H103.489C103.278 13.7892 103.119 13.618 103.119 13.4205V0.566277H103.105Z" fill="white"/>
<path d="M116.299 0.566277C116.299 0.368723 116.458 0.19751 116.669 0.19751H122.254C124.596 0.19751 126.515 2.06769 126.515 4.37249C126.515 6.16364 125.324 7.61237 123.63 8.29723L126.304 13.2361C126.436 13.4863 126.304 13.8024 125.973 13.8024H123.922C123.75 13.8024 123.644 13.7102 123.604 13.6312L121.01 8.48161H118.84V13.4336C118.84 13.6312 118.668 13.8024 118.469 13.8024H116.669C116.458 13.8024 116.299 13.6312 116.299 13.4336V0.566277ZM122.042 6.38754C123.075 6.38754 123.974 5.49196 123.974 4.412C123.974 3.38472 123.075 2.52865 122.042 2.52865H118.866V6.40071H122.042V6.38754Z" fill="white"/>
<path d="M131.598 11.3132C131.598 11.0629 131.704 10.9444 131.849 10.8654L138.175 7.0855L131.849 3.20027C131.704 3.12125 131.598 3.00271 131.598 2.75248V1.11936C131.598 0.671575 132.021 0.447681 132.378 0.671575L142.105 6.58503C142.251 6.66405 142.383 6.88794 142.383 7.05916V7.20403C142.383 7.37524 142.238 7.59914 142.105 7.67816L132.378 13.3941C132.008 13.618 131.598 13.3941 131.598 12.9463V11.3132Z" fill="#3574F6"/>
</svg>
