<svg width="143" height="14" viewBox="0 0 143 14" fill="none" xmlns="http://www.w3.org/2000/svg">
<path d="M0 7.20403V7.05916C0 6.88794 0.145573 6.66405 0.277912 6.58503L10.0048 0.671575C10.3754 0.447681 10.7856 0.671575 10.7856 1.11936V2.75248C10.7856 3.00271 10.64 3.12125 10.5342 3.20027L4.18191 7.0855L10.5342 10.8654C10.64 10.9444 10.7856 11.0629 10.7856 11.3132V12.9463C10.7856 13.3941 10.3621 13.618 10.0048 13.3941L0.277912 7.67816C0.145573 7.59914 0 7.37524 0 7.20403Z" fill="#3574F6"/>
<path d="M14.3455 13.3019L19.5993 0.447745C19.6523 0.316042 19.7714 0.19751 19.9699 0.19751H22.0608C22.3123 0.19751 22.4181 0.408234 22.299 0.68481L17.0717 13.539C17.0187 13.6707 16.8732 13.7892 16.7011 13.7892H14.5969C14.3455 13.7892 14.2264 13.5785 14.3455 13.3019Z" fill="#292B2F"/>
<path d="M25.7665 0.355597C25.7665 0.158043 25.9385 0 26.137 0H26.4282C26.5605 0 26.6664 0.0395108 26.759 0.131703L34.7258 8.58702H34.7655V0.566322C34.7655 0.368768 34.9243 0.197554 35.1361 0.197554H36.9359C37.1344 0.197554 37.3064 0.368768 37.3064 0.566322V13.6444C37.3064 13.842 37.1344 14 36.9359 14H36.658C36.5256 14 36.4198 13.9605 36.3271 13.8683L28.3206 5.07055H28.2809V13.4205C28.2809 13.6181 28.1221 13.7893 27.9104 13.7893H26.137C25.9385 13.7893 25.7665 13.6181 25.7665 13.4205V0.355597Z" fill="#292B2F"/>
<path d="M42.5736 0.566277C42.5736 0.368723 42.7456 0.19751 42.9442 0.19751H44.7572C44.9689 0.19751 45.1277 0.368723 45.1277 0.566277V5.71585H51.4933V0.566277C51.4933 0.368723 51.6521 0.19751 51.8638 0.19751H53.6636C53.8621 0.19751 54.0342 0.368723 54.0342 0.566277V13.4205C54.0342 13.618 53.8621 13.7892 53.6636 13.7892H51.8638C51.6521 13.7892 51.4933 13.618 51.4933 13.4205V8.06016H45.1277V13.4205C45.1277 13.618 44.9689 13.7892 44.7572 13.7892H42.9442C42.7456 13.7892 42.5736 13.618 42.5736 13.4205V0.566277Z" fill="#292B2F"/>
<path d="M59.1555 0.566277C59.1555 0.368723 59.3276 0.19751 59.5261 0.19751H61.3788C61.5906 0.19751 61.7494 0.368723 61.7494 0.566277V8.66599C61.7494 10.3123 62.8875 11.4581 64.5814 11.4581C66.2754 11.4581 67.4267 10.3123 67.4267 8.67916V0.566277C67.4267 0.368723 67.5855 0.19751 67.7973 0.19751H69.65C69.8485 0.19751 70.0206 0.368723 70.0206 0.566277V8.7977C70.0206 11.7478 67.6649 13.9868 64.5814 13.9868C61.5112 13.9868 59.1555 11.7478 59.1555 8.7977V0.566277Z" fill="#292B2F"/>
<path d="M82.1689 6.91435C83.307 7.30945 84.5113 8.2182 84.5113 10.0357C84.5113 12.2088 82.632 13.7892 80.25 13.7892H75.5255C75.3137 13.7892 75.1549 13.618 75.1549 13.4205V0.566277C75.1549 0.368723 75.3137 0.19751 75.5255 0.19751H79.9985C82.3277 0.19751 84.1142 1.7516 84.1142 3.79299C84.1142 5.25489 83.1746 6.32168 82.1689 6.82215V6.91435ZM79.8 5.90024C80.7925 5.90024 81.441 5.12319 81.441 4.14859C81.441 3.17399 80.8058 2.50231 79.8 2.50231H77.6826V5.90024H79.8ZM80.0779 11.4976C81.0572 11.4976 81.7983 10.7337 81.7983 9.73279C81.7983 8.75818 81.0572 8.04699 80.0779 8.04699H77.6826V11.5108H80.0779V11.4976Z" fill="#292B2F"/>
<path d="M96.1442 6.91435C97.2823 7.30945 98.4866 8.2182 98.4866 10.0357C98.4866 12.2088 96.6074 13.7892 94.2253 13.7892H89.5008C89.2891 13.7892 89.1302 13.618 89.1302 13.4205V0.566277C89.1302 0.368723 89.2891 0.19751 89.5008 0.19751H93.9738C96.303 0.19751 98.0896 1.7516 98.0896 3.79299C98.0896 5.25489 97.15 6.32168 96.1442 6.82215V6.91435ZM93.7753 5.90024C94.7679 5.90024 95.4163 5.12319 95.4163 4.14859C95.4163 3.17399 94.7811 2.50231 93.7753 2.50231H91.6447V5.90024H93.7753ZM94.0533 11.4976C95.0326 11.4976 95.7737 10.7337 95.7737 9.73279C95.7737 8.75818 95.0326 8.04699 94.0533 8.04699H91.6579V11.5108H94.0533V11.4976Z" fill="#292B2F"/>
<path d="M103.105 0.566277C103.105 0.368723 103.264 0.19751 103.476 0.19751H111.416C111.628 0.19751 111.786 0.368723 111.786 0.566277V2.15988C111.786 2.35743 111.628 2.52865 111.416 2.52865H105.633V5.71585H110.45C110.648 5.71585 110.82 5.88707 110.82 6.08462V7.69139C110.82 7.90212 110.648 8.06016 110.45 8.06016H105.633V11.4581H111.429C111.641 11.4581 111.8 11.6293 111.8 11.8269V13.4205C111.8 13.618 111.641 13.7892 111.429 13.7892H103.489C103.277 13.7892 103.118 13.618 103.118 13.4205V0.566277H103.105Z" fill="#292B2F"/>
<path d="M116.299 0.566277C116.299 0.368723 116.458 0.19751 116.67 0.19751H122.254C124.597 0.19751 126.516 2.06769 126.516 4.37249C126.516 6.16364 125.325 7.61237 123.631 8.29723L126.304 13.2361C126.436 13.4863 126.304 13.8024 125.973 13.8024H123.922C123.75 13.8024 123.644 13.7102 123.604 13.6312L121.01 8.48161H118.84V13.4336C118.84 13.6312 118.668 13.8024 118.469 13.8024H116.67C116.458 13.8024 116.299 13.6312 116.299 13.4336V0.566277ZM122.043 6.38754C123.075 6.38754 123.975 5.49196 123.975 4.412C123.975 3.38472 123.075 2.52865 122.043 2.52865H118.866V6.40071H122.043V6.38754Z" fill="#292B2F"/>
<path d="M131.598 11.3132C131.598 11.0629 131.704 10.9444 131.85 10.8654L138.175 7.0855L131.85 3.20027C131.704 3.12125 131.598 3.00271 131.598 2.75248V1.11936C131.598 0.671575 132.022 0.447681 132.379 0.671575L142.106 6.58503C142.251 6.66405 142.384 6.88794 142.384 7.05916V7.20403C142.384 7.37524 142.238 7.59914 142.106 7.67816L132.379 13.3941C132.008 13.618 131.598 13.3941 131.598 12.9463V11.3132Z" fill="#3574F6"/>
</svg>
